<svg width="129" height="129" viewBox="0 0 129 129" fill="none" xmlns="http://www.w3.org/2000/svg">
<circle cx="73.8222" cy="54.6386" r="41.4262" stroke="#FF5C52" stroke-width="11.4795"/>
<circle cx="73.8231" cy="54.6385" r="29.9466" stroke="white" stroke-width="11.4795"/>
<circle cx="73.8211" cy="54.6385" r="6.48844" stroke="white" stroke-width="12.4778"/>
<circle cx="73.8201" cy="54.6385" r="18.4671" stroke="#FF5C52" stroke-width="11.4795"/>
<path d="M95.0621 27.7446L95.8788 22.028L96.0552 20.7928L94.82 20.6163L89.6653 19.8799L88.4301 19.7035L88.2536 20.9387L85.3121 41.5295L85.0768 43.1765L86.7238 42.9412L107.315 39.9997L108.55 39.8232L108.373 38.588L107.637 33.4333L107.461 32.1981L106.225 32.3745L100.509 33.1912L125.443 8.25719L126.325 7.37488L125.443 6.49257L121.761 2.81065L120.878 1.92834L119.996 2.81065L95.0621 27.7446Z" fill="#32BCFF" stroke="white" stroke-width="2.49555"/>
<path d="M40.0263 49.5314L34.6672 51.6825L33.5092 52.1473L33.974 53.3053L35.9136 58.1376L36.3784 59.2955L37.5364 58.8307L56.8394 51.0828L58.3833 50.4631L57.3561 49.1544L44.5132 32.793L43.7428 31.8114L42.7613 32.5819L38.6654 35.797L37.6839 36.5674L38.4543 37.5489L42.0199 42.0913L7.9594 32.9649L6.75414 32.6419L6.43119 33.8472L5.08351 38.8768L4.76057 40.082L5.96583 40.405L40.0263 49.5314Z" fill="#FFD02C" stroke="white" stroke-width="2.49555"/>
<path d="M85.978 86.8875L90.5204 90.4531L91.5019 91.2235L92.2724 90.242L95.4875 86.1461L96.2579 85.1646L95.2764 84.3941L78.915 71.5513L77.6063 70.524L76.9866 72.068L69.2386 91.3709L68.7738 92.5289L69.9318 92.9937L74.7641 94.9333L75.922 95.3981L76.3868 94.2401L78.5379 88.8811L87.6644 122.942L87.9873 124.147L89.1926 123.824L94.2222 122.476L95.4274 122.153L95.1045 120.948L85.978 86.8875Z" fill="#00CECB" stroke="white" stroke-width="2.49555"/>
</svg>
