<svg width="81" height="98" viewBox="0 0 81 98" fill="none" xmlns="http://www.w3.org/2000/svg">
<rect x="50.0156" y="15.6533" width="11.7846" height="11.7846" rx="2.09081" transform="rotate(5.39965 50.0156 15.6533)" fill="#FF5C52"/>
<rect x="39.0547" y="22.2622" width="39.1659" height="58.8769" rx="7.93558" transform="rotate(11.68 39.0547 22.2622)" fill="#91FFFD"/>
<path d="M60.4292 54.6068C62.2607 54.9854 64.0568 53.8086 64.4354 51.9771C64.814 50.1457 63.7262 48.6272 61.9023 47.5261C60.612 46.7471 59.9641 45.7394 59.5692 44.5578C59.1743 43.3762 58.1618 41.4593 56.3809 41.0912C55.6647 40.9431 53.9494 40.5885 53.9494 40.5885L54.381 38.5006C40.223 40.7003 40.8209 59.2619 40.8209 59.2619L43.4455 59.8044L43.09 61.5239L42.3078 61.3622C41.7651 61.25 41.1568 61.583 41.0446 62.1256L41.0192 62.2484C40.9357 62.6524 41.1468 63.0574 41.4641 63.2805C40.0048 64.9063 40.5338 66.9014 40.703 67.4338L40.0556 67.3C39.513 67.1878 38.9046 67.5208 38.7924 68.0634L38.3354 70.2741C38.2232 70.8168 38.6235 71.3583 39.1148 71.4598L38.7086 73.4249L54.9207 76.7764L55.3287 74.8028C55.8325 74.8438 56.2863 74.5073 56.3898 74.0065L56.8468 71.7957C56.959 71.2531 56.6875 70.7383 56.1449 70.6261L55.6205 70.5177C55.9869 70.096 57.1863 68.4582 56.491 66.387C56.8708 66.308 57.1476 66.0038 57.2311 65.5998L57.2565 65.477C57.3686 64.9344 57.0972 64.4195 56.5545 64.3074L55.6173 64.1136L55.9728 62.3941L58.9366 63.0069C58.2811 55.9557 52.8969 51.1286 52.8969 51.1286L57.832 52.1489C58.1518 53.3534 59.1272 54.3376 60.4292 54.6068Z" fill="#00CECB"/>
<g style="mix-blend-mode:color">
<rect x="50.1013" y="15.7569" width="11.5945" height="11.5945" rx="1.99578" transform="rotate(5.39965 50.1013 15.7569)" fill="#FF5C52"/>
<rect x="50.1013" y="15.7569" width="11.5945" height="11.5945" rx="1.99578" transform="rotate(5.39965 50.1013 15.7569)" stroke="#FF5C52" stroke-width="0.190074"/>
</g>
<rect x="5.21094" y="63.5884" width="24.4184" height="24.4184" rx="12.2092" transform="rotate(5.39965 5.21094 63.5884)" fill="#FFD02C"/>
<rect y="19.502" width="39.1659" height="58.8769" rx="7.93558" transform="rotate(-11.391 0 19.502)" fill="#EAF5FF"/>
<path d="M37.0582 57.4579L36.6088 57.5484C36.812 57.0499 37.3193 55.4121 35.8354 54.194C34.3731 52.9932 31.4731 49.6502 30.904 46.3568L31.3745 46.262C31.9566 46.1447 32.2897 45.5865 32.1724 45.0043L32.1458 44.8725C32.0285 44.2903 31.5053 43.9046 30.9231 44.0219L30.3522 44.1369L30.2384 43.5723C31.7133 42.045 32.3173 39.9308 31.8815 37.7681C31.6072 36.4066 30.2645 34.5136 28.6894 32.6904L26.7383 35.6332C26.4109 36.1258 25.7427 36.2604 25.25 35.9332L25.1039 35.8347C24.6114 35.5075 24.4769 34.8364 24.8042 34.3438L27.0851 30.9123C26.3118 30.0988 25.5533 29.3454 24.9008 28.7163C25.2027 28.2538 25.3309 27.6775 25.2132 27.0931C24.9753 25.9117 23.825 25.1469 22.6434 25.3849C21.4618 25.623 20.6972 26.7736 20.9352 27.955C21.0529 28.5393 21.3941 29.0209 21.8516 29.3307C20.4899 32.4984 18.381 37.9264 18.8769 40.3882C19.3244 42.6089 20.7968 44.3514 22.7462 45.1792L22.8411 45.6502L22.2261 45.7741C21.6439 45.8914 21.2231 46.4673 21.3404 47.0495L21.3669 47.1813C21.4842 47.7634 22.0952 48.1315 22.6774 48.0142L23.148 47.9194C23.8986 51.1764 22.5195 55.3814 21.6361 57.0547C20.7398 58.7524 21.8416 60.0661 22.2219 60.447L21.7724 60.5376C21.1903 60.6549 20.7695 61.2308 20.8868 61.813L21.1257 62.9989C21.234 63.5363 21.7185 63.8994 22.2587 63.8582L22.7118 66.1074L38.2611 62.9747L37.8079 60.7255C38.3219 60.5543 38.6281 60.0319 38.5198 59.4945L38.2809 58.3086C38.1636 57.7264 37.6403 57.3406 37.0582 57.4579Z" fill="#32BCFF"/>
<g style="mix-blend-mode:color">
<rect x="5.21094" y="63.5884" width="24.4184" height="24.4184" rx="12.2092" transform="rotate(5.39965 5.21094 63.5884)" fill="#FFD02C"/>
</g>
<path d="M11.0577 1.40234L19.665 13.636M5.18359 8.99032L11.0577 15.1129M74.2819 16.1137L68.3464 24.1663M80.0014 26.7988L76.1369 29.8668M65.7798 96.9489L63.1113 90.5998M76.1369 83.0118L71.0967 77.7467" stroke="#FF5C52" stroke-width="1.94332"/>
</svg>
