<svg width="102" height="96" viewBox="0 0 102 96" fill="none" xmlns="http://www.w3.org/2000/svg">
<path d="M31.3516 48.0114C31.3516 45.5479 33.3487 43.5508 35.8122 43.5508H55.0568C65.2629 43.5508 73.5366 51.8245 73.5366 62.0307V91.0887C73.5366 93.5522 71.5395 95.5493 69.076 95.5493H35.8122C33.3487 95.5493 31.3516 93.5522 31.3516 91.0887V48.0114Z" fill="#EAF5FF"/>
<path d="M38.2344 56.8052H63.915" stroke="#32BCFF" stroke-width="4.46066" stroke-linecap="round"/>
<path d="M38.2344 64.4521H63.915" stroke="#32BCFF" stroke-width="4.46066" stroke-linecap="round"/>
<path d="M38.2344 72.0986H58.4985" stroke="#32BCFF" stroke-width="4.46066" stroke-linecap="round"/>
<path d="M38.2344 79.7456H66.6551" stroke="#32BCFF" stroke-width="4.46066" stroke-linecap="round"/>
<path d="M38.2344 87.3926H55.6947" stroke="#32BCFF" stroke-width="4.46066" stroke-linecap="round"/>
<g clip-path="url(#clip0)">
<rect x="9.27734" y="62.5874" width="30.4599" height="30.4599" rx="4.46066" transform="rotate(-15.145 9.27734 62.5874)" fill="#91FFFD"/>
<path d="M38.7464 61.2138L22.7229 65.5508C20.7016 66.0979 19.5066 68.18 20.0537 70.2013V70.2013C20.6008 72.2226 22.6828 73.4176 24.7041 72.8705L28.8868 71.7384C31.5875 71.0075 34.3695 72.6042 35.1005 75.3049V75.3049C35.8315 78.0057 34.2347 80.7876 31.534 81.5186L17.1713 85.406" stroke="#00CECB" stroke-width="3.31363" stroke-linecap="square"/>
</g>
<path d="M83.4297 33.5485L66.6562 41.2568L72.2282 44.7501L75.7214 50.322L83.4297 33.5485Z" fill="#6BCFFF"/>
<rect y="21.2471" width="26.5091" height="12.7447" rx="6.37237" fill="#EAF5FF"/>
<path d="M29.0782 28.8801L29.0827 28.8849M29.0782 28.8801C29.0327 28.8342 28.8359 28.6384 28.7294 28.5326L28.366 28.1714L28.364 28.1734L27.9141 27.7222L28.3633 27.2702L29.0827 28.8849M29.0782 28.8801L28.6161 29.3189L28.6206 29.3237L28.6211 29.3241M29.0782 28.8801L28.8637 29.0929L28.6257 29.3288C28.6243 29.3274 28.6228 29.3259 28.6211 29.3241M29.0827 28.8849L32.3855 32.1781C33.0363 32.8271 34.0916 32.8271 34.7424 32.1781C35.3324 31.5898 35.3876 30.6702 34.9079 30.0199L29.0827 28.8849ZM28.6211 29.3241L28.6266 29.33L28.6328 29.3361L31.9355 32.6294C32.8351 33.5264 34.2928 33.5264 35.1924 32.6294C35.8998 31.924 36.0515 30.8739 35.6475 30.0206C38.9068 30.0675 41.5313 32.7161 41.5313 35.9728V42.2763V42.9135H42.1686H45.5018H46.139V42.2763V35.9728C46.139 30.173 41.448 25.469 35.6471 25.4221C36.0516 24.5687 35.9001 23.518 35.1924 22.8124C34.2928 21.9154 32.8351 21.9154 31.9355 22.8124L29.2009 25.5392L28.6408 26.0977L29.0907 26.5489L28.6405 26.098L27.4641 27.2709L27.0108 27.7229L27.4648 28.1742L28.2802 28.9846C28.3843 29.088 28.5698 29.2726 28.6211 29.3241ZM33.8046 30.4463C34.0066 30.6477 34.0066 30.9742 33.8046 31.1756C33.6026 31.377 33.2751 31.377 33.0731 31.1756L29.867 27.9787M44.2273 40.9381H43.1929V40.3009M35.1984 29.3827H35.5595C39.2096 29.3827 42.1686 32.3332 42.1686 35.9728V41.6391V42.2763H42.8058H44.8646H45.5018L35.1984 29.3827Z" fill="#32BCFF" stroke="#32BCFF" stroke-width="1.27447"/>
<path d="M51.5547 41.1896C51.5547 36.2193 53.0285 31.3607 55.7899 27.228C58.5512 23.0954 62.476 19.8744 67.068 17.9724C71.6599 16.0703 76.7128 15.5727 81.5875 16.5423C86.4623 17.512 90.9401 19.9054 94.4546 23.4199C97.9691 26.9344 100.363 31.4122 101.332 36.287C102.302 41.1618 101.804 46.2146 99.9022 50.8065C98.0001 55.3985 94.7791 59.3233 90.6465 62.0846C86.5138 64.846 81.6552 66.3198 76.6849 66.3198L76.6849 60.0373C80.4126 60.0373 84.0566 58.9319 87.1561 56.8609C90.2556 54.7899 92.6713 51.8463 94.0978 48.4023C95.5244 44.9584 95.8976 41.1687 95.1704 37.5126C94.4431 33.8566 92.6481 30.4982 90.0122 27.8623C87.3763 25.2264 84.018 23.4314 80.3619 22.7041C76.7058 21.9769 72.9162 22.3501 69.4722 23.7767C66.0282 25.2032 63.0846 27.619 61.0136 30.7184C58.9426 33.8179 57.8372 37.4619 57.8372 41.1896L51.5547 41.1896Z" fill="#FF5C52"/>
<path d="M76.6849 16.0594C79.985 16.0594 83.2529 16.7094 86.3018 17.9724C89.3507 19.2353 92.1211 21.0863 94.4546 23.4199C96.7882 25.7535 98.6392 28.5238 99.9022 31.5727C101.165 34.6217 101.815 37.8895 101.815 41.1896C101.815 44.4898 101.165 47.7576 99.9022 50.8065C98.6392 53.8555 96.7882 56.6258 94.4546 58.9594C92.1211 61.2929 89.3507 63.144 86.3018 64.4069C83.2529 65.6698 79.985 66.3198 76.6849 66.3198L76.6849 60.0373C79.16 60.0373 81.6109 59.5498 83.8976 58.6026C86.1843 57.6554 88.262 56.2671 90.0122 54.5169C91.7623 52.7668 93.1507 50.689 94.0978 48.4023C95.045 46.1156 95.5325 43.6647 95.5325 41.1896C95.5325 38.7145 95.045 36.2636 94.0978 33.9769C93.1507 31.6902 91.7623 29.6125 90.0122 27.8623C88.262 26.1122 86.1843 24.7239 83.8976 23.7767C81.6109 22.8295 79.16 22.342 76.6849 22.342L76.6849 16.0594Z" fill="#00CECB"/>
<path d="M60.3281 20.1508C63.3094 17.8325 66.7493 16.1743 70.4199 15.2861C74.0905 14.3979 77.908 14.3 81.6193 14.9988C85.3307 15.6976 88.8511 17.1772 91.9473 19.3395C95.0436 21.5018 97.6449 24.2975 99.5789 27.5412L91.7115 32.232C90.4422 30.1031 88.7349 28.2683 86.7028 26.8491C84.6707 25.43 82.3602 24.4589 79.9245 24.0003C77.4887 23.5416 74.9832 23.6059 72.5742 24.1889C70.1651 24.7718 67.9075 25.8601 65.9508 27.3816L60.3281 20.1508Z" fill="#FFD02C"/>
<rect x="59.3416" y="0.443515" width="19.056" height="19.056" rx="2.45898" transform="rotate(9.77662 59.3416 0.443515)" fill="#32BCFF"/>
<path d="M75.5429 10.7888C75.7225 10.9384 75.6729 11.2263 75.4536 11.3071L66.3248 14.67C66.1055 14.7508 65.881 14.5639 65.9207 14.3336L67.5727 4.74636C67.6123 4.51603 67.8865 4.41504 68.0661 4.56458L75.5429 10.7888Z" fill="#FF5C52"/>
<circle cx="65.008" cy="12.9368" r="5.00953" transform="rotate(9.77662 65.008 12.9368)" fill="#FFD02C"/>
<path fill-rule="evenodd" clip-rule="evenodd" d="M72.0442 19.2697L64.3672 8.39635L65.8553 7.34568L73.5323 18.219L72.0442 19.2697Z" fill="#00CECB"/>
<g style="mix-blend-mode:hard-light">
<path d="M75.5429 10.7888C75.7225 10.9384 75.6729 11.2263 75.4536 11.3071L66.3248 14.67C66.1055 14.7508 65.881 14.5639 65.9207 14.3336L67.5727 4.74636C67.6123 4.51603 67.8865 4.41504 68.0661 4.56458L75.5429 10.7888Z" fill="#FF5C52"/>
</g>
<circle cx="64.1195" cy="6.46844" r="1.21443" transform="rotate(9.77662 64.1195 6.46844)" fill="#FFD02C"/>
<rect x="59.3416" y="0.443515" width="19.056" height="19.056" rx="2.45898" transform="rotate(9.77662 59.3416 0.443515)" stroke="#32BCFF" stroke-width="0.0712747"/>
<defs>
<clipPath id="clip0">
<rect x="9.27734" y="62.5874" width="30.4599" height="30.4599" rx="4.46066" transform="rotate(-15.145 9.27734 62.5874)" fill="white"/>
</clipPath>
</defs>
</svg>
