<svg width="58" height="61" viewBox="0 0 58 61" fill="none" xmlns="http://www.w3.org/2000/svg">
<path fill-rule="evenodd" clip-rule="evenodd" d="M35.322 27.8664V24.0727C37.285 22.3267 38.5248 19.7845 38.5248 16.9571L38.5277 9.61366C38.5277 7.66063 37.9404 5.78307 36.8292 4.18383C35.7439 2.62162 34.2377 1.43077 32.4735 0.73972C32.1303 0.605424 31.7398 0.699291 31.4953 0.97503L30.17 2.46998C29.3952 3.32696 28.2888 3.81844 27.1349 3.81844H24.527C21.7401 3.81844 19.4727 6.08553 19.4727 8.87222V16.957C19.4727 19.7858 20.7137 22.3292 22.6784 24.0752V27.8664C22.6784 27.9025 22.6811 27.9387 22.6818 27.9748L22.9698 29.7664C23.7827 32.3519 26.2017 34.1875 29.0003 34.1875C31.8186 34.1875 34.2427 32.3366 35.042 29.732L35.322 27.8664ZM21.2305 14.422V16.957C21.2305 21.2398 24.7153 24.7241 28.9987 24.7241C33.2821 24.7241 36.767 21.2398 36.767 16.957C36.767 16.957 36.7677 13.3216 36.7648 13.2688C35.653 13.6111 34.4966 13.7841 33.3142 13.7841C30.2587 13.7841 27.3647 12.6161 25.1653 10.495C24.8159 10.158 24.8059 9.6017 25.1428 9.25225C25.4799 8.90292 26.0363 8.89284 26.3856 9.22976C28.2555 11.0331 30.7162 12.0263 33.3142 12.0263C34.5072 12.0263 35.6676 11.8172 36.7699 11.4092V9.61354C36.7699 6.59517 35.0689 3.91125 32.3875 2.61833L31.4797 3.64243C30.3664 4.8737 28.7849 5.57624 27.1349 5.57624H24.527C22.7093 5.57624 21.2305 7.05478 21.2305 8.87222V12.6054C21.3391 12.5679 21.4508 12.5212 21.5637 12.4625C21.8767 12.2997 22.1586 12.0658 22.3786 11.7861C22.6788 11.4045 23.2313 11.3385 23.6128 11.6389C23.9943 11.939 24.0603 12.4916 23.76 12.8731C23.3868 13.3477 22.9077 13.7449 22.3749 14.0221C22.0151 14.2092 21.6288 14.3437 21.2305 14.422ZM24.4707 28.4268C24.7501 30.7092 26.6973 32.4296 29.0001 32.4296C31.3174 32.4296 33.2657 30.6979 33.5324 28.4016C33.5537 28.2231 33.5642 28.0438 33.5642 27.8664V25.3142C32.2078 26.0581 30.6519 26.4819 28.9987 26.4819C27.3468 26.4819 25.7919 26.0588 24.4362 25.3159V27.8663C24.4362 28.053 24.4478 28.2416 24.4707 28.4268Z" fill="#32BCFF"/>
<path d="M47.8518 39.3215C47.8518 36.8629 46.3991 34.6305 44.1509 33.6345L39.3835 31.5918C39.0606 32.3835 38.6483 33.1366 38.1498 33.8391C37.9783 34.0805 37.7074 34.2094 37.4323 34.2094C37.2564 34.2094 37.0787 34.1568 36.9244 34.0472C36.5285 33.7663 36.4355 33.2176 36.7164 32.8218C37.1426 32.2212 37.4944 31.577 37.7681 30.8996L35.1103 29.5542L35.1784 27.6792L44.8532 32.0231C47.7464 33.305 49.6096 36.1681 49.6096 39.3215V42.2941C49.6096 42.7794 49.216 43.173 48.7307 43.173C48.2453 43.173 47.8518 42.7794 47.8518 42.2941V39.3215Z" fill="#86A4C1"/>
<path d="M8.39453 39.4169C8.39453 36.1983 10.3117 33.3118 13.2786 32.0632L22.7353 28.0542L22.9717 29.7666L20.2525 30.9485L18.6412 31.649L13.9699 33.6795C11.647 34.657 10.1523 36.9075 10.1523 39.4169V42.2942C10.1523 42.7796 9.75881 43.1731 9.27343 43.1731C8.78804 43.1731 8.39453 42.7796 8.39453 42.2942V39.4169Z" fill="#86A4C1"/>
<path d="M34.4854 37.1375C32.8191 38.0736 30.9224 38.5684 29.0007 38.5684C27.0536 38.5684 25.1297 38.0772 23.4623 37.1375C23.2276 37.0056 22.9944 36.8634 22.7692 36.7144C22.3643 36.4467 22.2531 35.9014 22.5209 35.4965C22.7887 35.0916 23.3339 34.9804 23.7388 35.2482C23.9288 35.3738 24.1253 35.4938 24.3232 35.6049C25.7529 36.4643 28.0372 36.7668 29.0006 36.8106C30.6215 36.8106 32.2204 36.3936 33.6244 35.6049C33.8223 35.4939 34.0188 35.3739 34.2088 35.2482C34.6137 34.9805 35.159 35.0917 35.4267 35.4965C35.6945 35.9014 35.5833 36.4467 35.1784 36.7145C34.9532 36.8634 34.72 37.0057 34.4854 37.1375Z" fill="#86A4C1"/>
<path d="M10.1819 47.8595L7.85373 47.5063L6.81253 45.3043C6.70309 45.0729 6.48162 44.9292 6.23438 44.9292C5.98713 44.9292 5.76566 45.073 5.65629 45.3043L4.61508 47.5064L2.28682 47.8595C2.04219 47.8966 1.84273 48.0722 1.76638 48.3177C1.69003 48.5631 1.75257 48.8274 1.92957 49.0075L3.61427 50.7215L3.21656 53.1417C3.17482 53.396 3.27306 53.6482 3.47303 53.7999C3.673 53.9516 3.93309 53.9713 4.15196 53.8512L6.23438 52.7084L8.31685 53.8512C8.41197 53.9034 8.51491 53.9292 8.61735 53.9292C8.75045 53.9292 8.88272 53.8856 8.99572 53.7999C9.19569 53.6482 9.29399 53.3961 9.25219 53.1417L8.85448 50.7215L10.5391 49.0075C10.7162 48.8274 10.7787 48.5631 10.7024 48.3177C10.6261 48.0722 10.4266 47.8967 10.1819 47.8595ZM8.07184 50.1267C7.91984 50.2814 7.85055 50.504 7.88644 50.7224L8.20564 52.6646L6.53436 51.7475C6.34648 51.6445 6.12227 51.6445 5.93439 51.7475L4.26318 52.6646L4.58238 50.7224C4.61826 50.504 4.54897 50.2813 4.39691 50.1266L3.04503 48.7512L4.91329 48.4678C5.12344 48.436 5.30496 48.2983 5.39874 48.0997L6.23438 46.3325L7.06989 48.0995C7.16379 48.2983 7.34531 48.436 7.5554 48.4678L9.42372 48.7512L8.07184 50.1267Z" fill="#FF5C52"/>
<path d="M21.4319 47.8595L19.1037 47.5063L18.0625 45.3043C17.9531 45.0729 17.7316 44.9292 17.4844 44.9292C17.2371 44.9292 17.0157 45.073 16.9063 45.3043L15.8651 47.5064L13.5368 47.8595C13.2922 47.8966 13.0927 48.0722 13.0164 48.3177C12.94 48.5631 13.0026 48.8274 13.1796 49.0075L14.8643 50.7215L14.4666 53.1417C14.4248 53.396 14.5231 53.6482 14.723 53.7999C14.923 53.9516 15.1831 53.9713 15.402 53.8512L17.4844 52.7084L19.5669 53.8512C19.662 53.9034 19.7649 53.9292 19.8673 53.9292C20.0005 53.9292 20.1327 53.8856 20.2457 53.7999C20.4457 53.6482 20.544 53.3961 20.5022 53.1417L20.1045 50.7215L21.7891 49.0075C21.9662 48.8274 22.0287 48.5631 21.9524 48.3177C21.8761 48.0722 21.6766 47.8967 21.4319 47.8595ZM19.3218 50.1267C19.1698 50.2814 19.1006 50.504 19.1364 50.7224L19.4556 52.6646L17.7844 51.7475C17.5965 51.6445 17.3723 51.6445 17.1844 51.7475L15.5132 52.6646L15.8324 50.7224C15.8683 50.504 15.799 50.2813 15.6469 50.1266L14.295 48.7512L16.1633 48.4678C16.3734 48.436 16.555 48.2983 16.6487 48.0997L17.4844 46.3325L18.3199 48.0995C18.4138 48.2983 18.5953 48.436 18.8054 48.4678L20.6737 48.7512L19.3218 50.1267Z" fill="#FF5C52"/>
<path d="M32.6819 47.8595L30.3537 47.5063L29.3125 45.3043C29.2031 45.0729 28.9816 44.9292 28.7344 44.9292C28.4871 44.9292 28.2657 45.073 28.1563 45.3043L27.1151 47.5064L24.7868 47.8595C24.5422 47.8966 24.3427 48.0722 24.2664 48.3177C24.19 48.5631 24.2526 48.8274 24.4296 49.0075L26.1143 50.7215L25.7166 53.1417C25.6748 53.396 25.7731 53.6482 25.973 53.7999C26.173 53.9516 26.4331 53.9713 26.652 53.8512L28.7344 52.7084L30.8169 53.8512C30.912 53.9034 31.0149 53.9292 31.1173 53.9292C31.2505 53.9292 31.3827 53.8856 31.4957 53.7999C31.6957 53.6482 31.794 53.3961 31.7522 53.1417L31.3545 50.7215L33.0391 49.0075C33.2162 48.8274 33.2787 48.5631 33.2024 48.3177C33.1261 48.0722 32.9266 47.8967 32.6819 47.8595ZM30.5718 50.1267C30.4198 50.2814 30.3506 50.504 30.3864 50.7224L30.7056 52.6646L29.0344 51.7475C28.8465 51.6445 28.6223 51.6445 28.4344 51.7475L26.7632 52.6646L27.0824 50.7224C27.1183 50.504 27.049 50.2813 26.8969 50.1266L25.545 48.7512L27.4133 48.4678C27.6234 48.436 27.805 48.2983 27.8987 48.0997L28.7344 46.3325L29.5699 48.0995C29.6638 48.2983 29.8453 48.436 30.0554 48.4678L31.9237 48.7512L30.5718 50.1267Z" fill="#FF5C52"/>
<path d="M43.9319 47.8595L41.6037 47.5063L40.5625 45.3043C40.4531 45.0729 40.2316 44.9292 39.9844 44.9292C39.7371 44.9292 39.5157 45.073 39.4063 45.3043L38.3651 47.5064L36.0368 47.8595C35.7922 47.8966 35.5927 48.0722 35.5164 48.3177C35.44 48.5631 35.5026 48.8274 35.6796 49.0075L37.3643 50.7215L36.9666 53.1417C36.9248 53.396 37.0231 53.6482 37.223 53.7999C37.423 53.9516 37.6831 53.9713 37.902 53.8512L39.9844 52.7084L42.0669 53.8512C42.162 53.9034 42.2649 53.9292 42.3674 53.9292C42.5005 53.9292 42.6327 53.8856 42.7457 53.7999C42.9457 53.6482 43.044 53.3961 43.0022 53.1417L42.6045 50.7215L44.2891 49.0075C44.4662 48.8274 44.5287 48.5631 44.4524 48.3177C44.3761 48.0722 44.1766 47.8967 43.9319 47.8595ZM41.8218 50.1267C41.6698 50.2814 41.6006 50.504 41.6364 50.7224L41.9556 52.6646L40.2844 51.7475C40.0965 51.6445 39.8723 51.6445 39.6844 51.7475L38.0132 52.6646L38.3324 50.7224C38.3683 50.504 38.299 50.2813 38.1469 50.1266L36.795 48.7512L38.6633 48.4678C38.8734 48.436 39.055 48.2983 39.1487 48.0997L39.9844 46.3325L40.8199 48.0995C40.9138 48.2983 41.0953 48.436 41.3054 48.4678L43.1737 48.7512L41.8218 50.1267Z" fill="#FF5C52"/>
<path d="M55.1819 47.8595L52.8537 47.5063L51.8125 45.3043C51.7031 45.0729 51.4816 44.9292 51.2344 44.9292C50.9871 44.9292 50.7657 45.073 50.6563 45.3043L49.6151 47.5064L47.2868 47.8595C47.0422 47.8966 46.8427 48.0722 46.7664 48.3177C46.69 48.5631 46.7526 48.8274 46.9296 49.0075L48.6143 50.7215L48.2166 53.1417C48.1748 53.396 48.2731 53.6482 48.473 53.7999C48.673 53.9516 48.9331 53.9713 49.152 53.8512L51.2344 52.7084L53.3169 53.8512C53.412 53.9034 53.5149 53.9292 53.6173 53.9292C53.7504 53.9292 53.8827 53.8856 53.9957 53.7999C54.1957 53.6482 54.294 53.3961 54.2522 53.1417L53.8545 50.7215L55.5391 49.0075C55.7162 48.8274 55.7787 48.5631 55.7024 48.3177C55.6261 48.0722 55.4266 47.8967 55.1819 47.8595ZM53.0718 50.1267C52.9198 50.2814 52.8506 50.504 52.8864 50.7224L53.2056 52.6646L51.5344 51.7475C51.3465 51.6445 51.1223 51.6445 50.9344 51.7475L49.2632 52.6646L49.5824 50.7224C49.6183 50.504 49.549 50.2813 49.3969 50.1266L48.045 48.7512L49.9133 48.4678C50.1234 48.436 50.305 48.2983 50.3987 48.0997L51.2344 46.3325L52.0699 48.0995C52.1638 48.2983 52.3453 48.436 52.5554 48.4678L54.4237 48.7512L53.0718 50.1267Z" fill="#FF5C52"/>
</svg>
