<svg width="60" height="61" viewBox="0 0 60 61" fill="none" xmlns="http://www.w3.org/2000/svg">
<path d="M53.4375 32.8636V14.4792C56.6128 14.0217 59.0625 11.2908 59.0625 7.9917C59.0625 4.37389 56.1188 1.4292 52.5 1.4292C48.8812 1.4292 45.9375 4.37389 45.9375 7.9917H0.9375V45.4917H29.1103C29.5978 53.3254 36.1087 59.5542 44.0625 59.5542C52.3331 59.5542 59.0625 52.8248 59.0625 44.5542C59.0625 39.8301 56.8622 35.6151 53.4375 32.8636ZM52.5 3.3042C55.0847 3.3042 57.1875 5.40701 57.1875 7.9917C57.1875 10.5764 55.0847 12.6792 52.5 12.6792C49.9153 12.6792 47.8125 10.5764 47.8125 7.9917C47.8125 5.40701 49.9153 3.3042 52.5 3.3042ZM2.8125 9.8667H46.2141C46.4381 10.6148 46.7944 11.3039 47.2519 11.9151L41.5181 17.6489C41.1506 17.4726 40.7456 17.3667 40.3125 17.3667C39.8794 17.3667 39.4744 17.4726 39.1078 17.6489L37.2188 15.7598C37.3941 15.3923 37.5 14.9873 37.5 14.5542C37.5 13.0036 36.2381 11.7417 34.6875 11.7417C33.1369 11.7417 31.875 13.0036 31.875 14.5542C31.875 14.9873 31.9809 15.3923 32.1572 15.7589L27.4556 20.4604C27.0881 20.2851 26.6831 20.1792 26.25 20.1792C24.6994 20.1792 23.4375 21.4411 23.4375 22.9917C23.4375 24.5423 24.6994 25.8042 26.25 25.8042C27.8006 25.8042 29.0625 24.5423 29.0625 22.9917C29.0625 22.5586 28.9566 22.1536 28.7803 21.787L33.4819 17.0854C33.8494 17.2608 34.2544 17.3667 34.6875 17.3667C35.1206 17.3667 35.5256 17.2608 35.8922 17.0845L37.7812 18.9736C37.6059 19.3411 37.5 19.7461 37.5 20.1792C37.5 21.7298 38.7619 22.9917 40.3125 22.9917C41.8631 22.9917 43.125 21.7298 43.125 20.1792C43.125 19.7461 43.0191 19.3411 42.8428 18.9745L48.5775 13.2408C49.4353 13.8839 50.4534 14.3198 51.5625 14.4801V31.5848C49.3528 30.3014 46.7962 29.5542 44.0625 29.5542C39.5812 29.5542 35.5631 31.5398 32.8125 34.6664V30.6792H27.1875V41.7417H29.3362C29.22 42.3539 29.1497 42.9811 29.1103 43.6167H2.8125V9.8667ZM40.3125 19.2417C40.8291 19.2417 41.25 19.6617 41.25 20.1792C41.25 20.6967 40.8291 21.1167 40.3125 21.1167C39.7959 21.1167 39.375 20.6967 39.375 20.1792C39.375 19.6617 39.7959 19.2417 40.3125 19.2417ZM33.75 14.5542C33.75 14.0367 34.1709 13.6167 34.6875 13.6167C35.2041 13.6167 35.625 14.0367 35.625 14.5542C35.625 15.0717 35.2041 15.4917 34.6875 15.4917C34.1709 15.4917 33.75 15.0717 33.75 14.5542ZM27.1875 22.9917C27.1875 23.5092 26.7666 23.9292 26.25 23.9292C25.7334 23.9292 25.3125 23.5092 25.3125 22.9917C25.3125 22.4742 25.7334 22.0542 26.25 22.0542C26.7666 22.0542 27.1875 22.4742 27.1875 22.9917ZM44.0625 52.0542C39.9272 52.0542 36.5625 48.6895 36.5625 44.5542C36.5625 40.4189 39.9272 37.0542 44.0625 37.0542C48.1978 37.0542 51.5625 40.4189 51.5625 44.5542C51.5625 48.6895 48.1978 52.0542 44.0625 52.0542ZM30.9375 37.3083C30.4884 38.1183 30.1172 39.1617 29.8228 40.0542H29.0625V32.5542H30.9375V37.3083ZM43.125 31.477V35.227C38.3944 35.6995 34.6875 39.7017 34.6875 44.5542C34.6875 45.9258 34.9912 47.2261 35.5228 48.4017L32.2706 50.2795C31.425 48.547 30.9375 46.6083 30.9375 44.5542C30.9375 37.6336 36.3253 31.9608 43.125 31.477ZM44.0625 57.6792C39.5494 57.6792 35.5612 55.3889 33.1987 51.9089L36.4641 50.0236C38.1684 52.3842 40.935 53.9292 44.0625 53.9292C47.19 53.9292 49.9566 52.3842 51.6609 50.0236L54.9263 51.9089C52.5638 55.3889 48.5756 57.6792 44.0625 57.6792ZM55.8544 50.2795L52.6022 48.4017C53.1338 47.2261 53.4375 45.9258 53.4375 44.5542C53.4375 39.7017 49.7306 35.6986 45 35.227V31.477C51.7997 31.9608 57.1875 37.6336 57.1875 44.5542C57.1875 46.6083 56.7 48.547 55.8544 50.2795Z" fill="#32BCFF"/>
<path d="M44.0625 38.9292C40.9603 38.9292 38.4375 41.452 38.4375 44.5542C38.4375 47.6564 40.9603 50.1792 44.0625 50.1792C47.1647 50.1792 49.6875 47.6564 49.6875 44.5542C49.6875 41.452 47.1647 38.9292 44.0625 38.9292ZM44.0625 48.3042C41.9944 48.3042 40.3125 46.6223 40.3125 44.5542C40.3125 42.4861 41.9944 40.8042 44.0625 40.8042C46.1306 40.8042 47.8125 42.4861 47.8125 44.5542C47.8125 46.6223 46.1306 48.3042 44.0625 48.3042Z" fill="#32BCFF"/>
<path d="M4.6875 41.9292H10.3125V32.5542H4.6875V41.9292ZM6.5625 34.4292H8.4375V40.0542H6.5625V34.4292Z" fill="#FF5C52"/>
<path d="M12.1875 41.9292H17.8125V34.4292H12.1875V41.9292ZM14.0625 36.3042H15.9375V40.0542H14.0625V36.3042Z" fill="#FF5C52"/>
<path fill-rule="evenodd" clip-rule="evenodd" d="M32.8125 34.8539V30.6792H27.1875V41.9292H32.8125V34.8539ZM29.0625 32.5542V40.0542H30.9375V37.4958V32.5542H29.0625Z" fill="#FF5C52"/>
<path fill-rule="evenodd" clip-rule="evenodd" d="M25.3125 41.9292H19.6875V26.9292H25.3125V41.9292ZM23.4375 28.8042H21.5625V40.0542H23.4375V28.8042Z" fill="#FF5C52"/>
<path d="M4.6875 11.9292H6.5625V13.8042H4.6875V11.9292Z" fill="#86A4C1"/>
<path d="M8.4375 11.9292H21.5625V13.8042H8.4375V11.9292Z" fill="#86A4C1"/>
<path d="M4.6875 15.6792H6.5625V17.5542H4.6875V15.6792Z" fill="#86A4C1"/>
<path d="M8.4375 15.6792H21.5625V17.5542H8.4375V15.6792Z" fill="#86A4C1"/>
<path d="M4.6875 19.4292H6.5625V21.3042H4.6875V19.4292Z" fill="#86A4C1"/>
<path d="M8.4375 19.4292H21.5625V21.3042H8.4375V19.4292Z" fill="#86A4C1"/>
<path d="M4.6875 23.1792H6.5625V25.0542H4.6875V23.1792Z" fill="#86A4C1"/>
<path d="M8.4375 23.1792H21.5625V25.0542H8.4375V23.1792Z" fill="#86A4C1"/>
</svg>
