<svg width="54" height="61" viewBox="0 0 54 61" fill="none" xmlns="http://www.w3.org/2000/svg">
<path d="M46.4414 29.6792V51.6792H40.4414C39.8892 51.6792 39.4414 52.1269 39.4414 52.6792V58.6792H2.44141V2.6792H46.4414V15.6792H48.4414V1.6792C48.4414 1.12695 47.9937 0.679199 47.4414 0.679199H1.44141C0.889156 0.679199 0.441406 1.12695 0.441406 1.6792V59.6792C0.441406 60.2315 0.889156 60.6792 1.44141 60.6792H40.4414C40.7065 60.6786 40.9607 60.5733 41.1484 60.3862L48.1484 53.3862C48.232 53.3012 48.2998 53.202 48.3484 53.0932C48.3624 53.0622 48.3704 53.0322 48.3814 53.0002C48.4102 52.9162 48.4277 52.8288 48.4334 52.7402C48.4334 52.7192 48.4454 52.7002 48.4454 52.6792V29.6792H46.4414ZM41.4414 57.2652V53.6792H45.0274L41.4414 57.2652Z" fill="#32BCFF"/>
<path d="M52.6484 17.4721C51.4138 16.2918 49.469 16.2918 48.2344 17.4721L30.7344 34.9721C30.5469 35.1596 30.4414 35.4138 30.4414 35.6791V38.6791C30.4414 39.2313 30.8892 39.6791 31.4414 39.6791H34.4414C34.7067 39.6791 34.9609 39.5736 35.1484 39.3861L52.6484 21.8861C53.8652 20.6663 53.8652 18.6918 52.6484 17.4721ZM34.0274 37.6791H32.4414V36.0931L44.9414 23.5931L46.5274 25.1791L34.0274 37.6791ZM47.9414 23.7651L46.3554 22.1791L47.4414 21.0931L49.0274 22.6791L47.9414 23.7651ZM51.2344 20.4721L50.4414 21.2651L48.8554 19.6791L49.6484 18.8861C50.0922 18.4622 50.7907 18.4622 51.2344 18.8861C51.6704 19.3248 51.6704 20.0333 51.2344 20.4721Z" fill="#32BCFF"/>
<path d="M28.1486 5.38605L26.7346 3.97205L24.4416 6.26505L22.1486 3.97205L20.7346 5.38605L23.0276 7.67905L20.7346 9.97205L22.1486 11.386L24.4416 9.09305L26.7346 11.386L28.1486 9.97205L25.8556 7.67905L28.1486 5.38605Z" fill="#32BCFF"/>
<path d="M17.1486 28.3864L15.7346 26.9724L13.4416 29.2654L11.1486 26.9724L9.73456 28.3864L12.0276 30.6794L9.73456 32.9724L11.1486 34.3864L13.4416 32.0934L15.7346 34.3864L17.1486 32.9724L14.8556 30.6794L17.1486 28.3864Z" fill="#32BCFF"/>
<path d="M42.1486 42.3864L40.7346 40.9724L38.4416 43.2654L36.1486 40.9724L34.7346 42.3864L37.0276 44.6794L34.7346 46.9724L36.1486 48.3864L38.4416 46.0934L40.7346 48.3864L42.1486 46.9724L39.8556 44.6794L42.1486 42.3864Z" fill="#32BCFF"/>
<path d="M9.69141 12.9292C7.48228 12.9292 5.69141 14.7201 5.69141 16.9292C5.69141 19.1383 7.48228 20.9292 9.69141 20.9292C11.9005 20.9292 13.6914 19.1383 13.6914 16.9292C13.6914 14.7201 11.9005 12.9292 9.69141 12.9292ZM9.69141 18.9292C8.58678 18.9292 7.69141 18.0338 7.69141 16.9292C7.69141 15.8246 8.58678 14.9292 9.69141 14.9292C10.796 14.9292 11.6914 15.8246 11.6914 16.9292C11.6914 18.0338 10.7959 18.9292 9.69141 18.9292Z" fill="#86A4C1"/>
<path d="M37.6914 11.9292C35.4823 11.9292 33.6914 13.7201 33.6914 15.9292C33.6914 18.1383 35.4823 19.9292 37.6914 19.9292C39.9005 19.9292 41.6914 18.1383 41.6914 15.9292C41.6914 13.7201 39.9005 11.9292 37.6914 11.9292ZM37.6914 17.9292C36.5868 17.9292 35.6914 17.0338 35.6914 15.9292C35.6914 14.8246 36.5868 13.9292 37.6914 13.9292C38.796 13.9292 39.6914 14.8246 39.6914 15.9292C39.6914 17.0338 38.7959 17.9292 37.6914 17.9292Z" fill="#86A4C1"/>
<path d="M12.6914 40.9292C10.4823 40.9292 8.69141 42.7201 8.69141 44.9292C8.69141 47.1383 10.4823 48.9292 12.6914 48.9292C14.9005 48.9292 16.6914 47.1383 16.6914 44.9292C16.6914 42.7201 14.9005 40.9292 12.6914 40.9292ZM12.6914 46.9292C11.5868 46.9292 10.6914 46.0338 10.6914 44.9292C10.6914 43.8246 11.5868 42.9292 12.6914 42.9292C13.796 42.9292 14.6914 43.8246 14.6914 44.9292C14.6914 46.0338 13.7959 46.9292 12.6914 46.9292Z" fill="#86A4C1"/>
<path d="M24.6914 45.9292C22.4823 45.9292 20.6914 47.7201 20.6914 49.9292C20.6914 52.1383 22.4823 53.9292 24.6914 53.9292C26.9005 53.9292 28.6914 52.1383 28.6914 49.9292C28.6914 47.7201 26.9005 45.9292 24.6914 45.9292ZM24.6914 51.9292C23.5868 51.9292 22.6914 51.0338 22.6914 49.9292C22.6914 48.8246 23.5868 47.9292 24.6914 47.9292C25.796 47.9292 26.6914 48.8246 26.6914 49.9292C26.6914 51.0338 25.7959 51.9292 24.6914 51.9292Z" fill="#86A4C1"/>
<path d="M18.7414 20.6363H20.4414V18.6363H16.4414C15.8892 18.6363 15.4414 19.0841 15.4414 19.6363V23.6363H17.4414V22.2363C21.7793 27.8292 21.467 35.7312 16.7014 40.9643L18.1824 42.3103C23.7249 36.2268 23.9629 26.9975 18.7414 20.6363Z" fill="#FF5C52"/>
<path d="M31.2026 14.9292L28.2026 11.9292L26.7886 13.3432L28.0816 14.6362H15.4956V16.6362H28.0816L26.7886 17.9292L28.2026 19.3432L31.2026 16.3432C31.593 15.9527 31.593 15.3197 31.2026 14.9292Z" fill="#FF5C52"/>
<path d="M33.4952 20.6363H29.4952V22.6363H31.1152C26.2034 27.8655 23.4772 34.7751 23.4952 41.9493V44.6363H25.4952V41.9493C25.4787 35.3225 27.9808 28.9368 32.4952 24.0853V25.6363H34.4952V21.6363C34.4952 21.0841 34.0475 20.6363 33.4952 20.6363Z" fill="#FF5C52"/>
</svg>
