<svg width="57" height="56" viewBox="0 0 57 56" fill="none" xmlns="http://www.w3.org/2000/svg">
<path d="M8.52083 14.8242C7.88801 14.8242 7.375 15.3372 7.375 15.9701V17.6888C7.375 18.3216 7.88801 18.8346 8.52083 18.8346H25.9948L28.5729 16.5429H47.4792C48.3958 16.5429 48.625 17.6888 48.625 18.2617C49.5417 18.2617 50.1528 18.6437 50.3438 18.8346H52.6354C53.2682 18.8346 53.7812 18.3216 53.7812 17.6888V15.9701C53.7812 15.3372 53.2682 14.8242 52.6354 14.8242H8.52083Z" fill="#6BCFFF"/>
<path d="M8.52083 28.0013C7.88801 28.0013 7.375 28.5143 7.375 29.1471V30.8659C7.375 31.4987 7.88801 32.0117 8.52083 32.0117H23.9896V28.0013H8.52083Z" fill="#6BCFFF"/>
<path d="M53.7812 29.1471C53.7812 28.5143 53.2682 28.0013 52.6354 28.0013H50.3438V32.0117H52.6354C53.2682 32.0117 53.7812 31.4987 53.7812 30.8659V29.1471Z" fill="#6BCFFF"/>
<path d="M27.4297 27.4258H45.763M27.4297 32.0091H45.763M27.4297 36.5924H45.763M27.4297 29.7174H45.763M27.4297 34.3008H45.763M27.4297 38.8841H45.763" stroke="#EAF5FF" stroke-linecap="round" stroke-linejoin="round"/>
<path d="M21.987 4.22266L23.4108 2.7988C24.7001 1.50949 26.4488 0.785156 28.2722 0.785156H33.4622C35.2855 0.785156 37.0342 1.50949 38.3235 2.7988L39.7474 4.22266M23.9922 5.36849L24.5567 4.80401C25.846 3.51469 27.5947 2.79036 29.418 2.79036H32.3163C34.1397 2.79036 35.8884 3.51469 37.1777 4.80401L37.7422 5.36849M9.66927 48.3372C9.66927 51.976 7.87375 54.9258 5.65885 54.9258C3.44396 54.9258 1.64844 51.976 1.64844 48.3372M9.66927 48.3372C9.66927 44.6985 7.87375 41.7487 5.65885 41.7487C3.44396 41.7487 1.64844 44.6985 1.64844 48.3372M9.66927 48.3372H13.1068M1.64844 48.3372H16.2578C19.8966 48.3372 22.8464 51.287 22.8464 54.9258M21.1276 48.3372C21.1276 51.976 19.3321 54.9258 17.1172 54.9258C14.9023 54.9258 13.1068 51.976 13.1068 48.3372M21.1276 48.3372C21.1276 44.6985 19.3321 41.7487 17.1172 41.7487C14.9023 41.7487 13.1068 44.6985 13.1068 48.3372M21.1276 48.3372H23.9922H35.737C39.3757 48.3372 42.3255 51.287 42.3255 54.9258C42.3255 53.7844 42.0353 52.7108 41.5246 51.7747M23.9922 40.6029H6.80469C6.17186 40.6029 5.65885 40.0899 5.65885 39.457V7.3737C5.65885 6.74087 6.17186 6.22787 6.80469 6.22787H54.3568C54.9896 6.22787 55.5026 6.74087 55.5026 7.3737V39.457C55.5026 40.0899 54.9896 40.6029 54.3568 40.6029H50.3464H50.9193V41.7487C50.9193 42.1229 50.6801 42.4412 50.3464 42.5592M25.7109 50.056H47.4818C48.1146 50.056 48.6276 49.543 48.6276 48.9102V18.2591M25.7109 50.056H25.138C24.5052 50.056 23.9922 49.543 23.9922 48.9102V21.3119C23.9922 21.008 24.1129 20.7165 24.3278 20.5016L27.9535 16.876C28.1683 16.6611 28.4598 16.5404 28.7637 16.5404H47.4818C48.1146 16.5404 48.6276 17.0534 48.6276 17.6862V18.2591M25.7109 50.056V50.6289C25.7109 51.2617 26.2239 51.7747 26.8568 51.7747H49.2005C49.8333 51.7747 50.3464 51.2617 50.3464 50.6289V19.405C50.3464 18.7721 49.8333 18.2591 49.2005 18.2591H48.6276M19.4089 6.22787L21.3066 4.35418C21.6962 4.04245 22.2734 4.31988 22.2734 4.81889C22.2734 5.14757 22.5399 5.41401 22.8686 5.41401H24.6797C24.9328 5.41401 25.138 5.97473 25.138 6.22787H19.4089ZM42.3255 6.22787L40.4278 4.35418C40.0382 4.04245 39.4609 4.31988 39.4609 4.81889C39.4609 5.14757 39.1945 5.41401 38.8658 5.41401H37.0547C36.8016 5.41401 36.5964 5.97473 36.5964 6.22787H42.3255ZM11.6745 5.36849H13.9661C14.4408 5.36849 14.8255 5.75325 14.8255 6.22787H10.8151C10.8151 5.75325 11.1999 5.36849 11.6745 5.36849ZM47.7682 5.36849H50.0599C50.5345 5.36849 50.9193 5.75325 50.9193 6.22787H46.9089C46.9089 5.75325 47.2936 5.36849 47.7682 5.36849ZM45.1901 41.4622C45.1901 43.5189 43.5228 45.1862 41.4661 45.1862C39.4095 45.1862 37.7422 43.5189 37.7422 41.4622C37.7422 39.4056 39.4095 37.7383 41.4661 37.7383C43.5228 37.7383 45.1901 39.4056 45.1901 41.4622ZM44.0443 41.4622C44.0443 42.8861 42.89 44.0404 41.4661 44.0404C40.0423 44.0404 38.888 42.8861 38.888 41.4622C38.888 40.0384 40.0423 38.8841 41.4661 38.8841C42.89 38.8841 44.0443 40.0384 44.0443 41.4622Z" stroke="#86A4C1"/>
<path d="M27.4297 44.132L27.8592 45.4206C27.8925 45.5205 28.0211 45.5472 28.0914 45.4688L30.1612 43.1613C30.2452 43.0676 30.4004 43.127 30.4004 43.2528V45.9323C30.4004 46.0629 30.5656 46.1196 30.6458 46.0165L32.0845 44.1668C32.1362 44.1004 32.2349 44.0957 32.2926 44.157L33.3148 45.2428C33.3756 45.3074 33.4808 45.2982 33.5294 45.2239L34.6943 43.4445M34.6943 45.232H35.4505" stroke="#86A4C1" stroke-linecap="round" stroke-linejoin="round"/>
</svg>
