<svg width="56" height="56" viewBox="0 0 56 56" fill="none" xmlns="http://www.w3.org/2000/svg">
<path d="M38.3124 13.1035C38.9452 13.1035 39.4582 13.6165 39.4582 14.2493V27.7129C39.4582 27.8707 39.4263 28.021 39.3687 28.1578C39.1121 27.2456 38.4843 25.1348 38.0259 23.9889C37.5676 22.8431 36.3072 20.8379 35.7343 19.9785C35.5433 19.9785 35.1041 20.0931 34.8749 20.5514C34.6458 21.0098 35.7343 25.8987 36.3072 28.2858L35.4478 28.8587H17.1146C16.4818 28.8587 15.9688 28.3457 15.9688 27.7129V14.2493C15.9688 13.6165 16.4818 13.1035 17.1146 13.1035H38.3124Z" fill="#FF5C52"/>
<path d="M35.1614 18.8327V16.541M34.0156 19.9785H32.2969M36.3073 19.9785H38.026" stroke="white" stroke-linecap="round" stroke-linejoin="round"/>
<path d="M4.25358 38.049V7.94661C4.25358 7.31379 4.76658 6.80078 5.39941 6.80078H50.0274C50.6603 6.80078 51.1733 7.31379 51.1733 7.94662V38.049M4.25358 38.049H0.786457C0.628249 38.049 0.5 38.1772 0.5 38.3354V38.8841C0.5 39.5169 1.01301 40.03 1.64583 40.03H9.09371M4.25358 38.049H9.95308M51.1733 38.049H54.6404C54.7986 38.049 54.9268 38.1772 54.9268 38.3354V38.8841C54.9268 39.5169 54.4138 40.03 53.781 40.03H46.5721M51.1733 38.049H46.0929M24.3998 40.03H34.5928M19.1197 40.03H21.1249M21.9843 36.5925H21.6978M23.9895 36.5925H31.9973M10.8125 36.5925H7.08851C6.45569 36.5925 5.94268 36.0794 5.94268 35.4466V9.95182C5.94268 9.319 6.45569 8.80599 7.08851 8.80599H48.3383C48.9712 8.80599 49.4842 9.319 49.4842 9.95182V35.4466C49.4842 36.0794 48.9712 36.5925 48.3383 36.5925H45.6397M20.552 38.049H33.0627M12.8871 34.9948C11.2776 35.3972 11.1435 36.0678 9.93643 38.482C8.97077 40.4133 7.66143 46.3951 1.35937 46.6185C0.20942 50.0222 3.23009 55.3855 4.98062 55.3812C5.02332 54.6781 9.66819 51.3576 12.2165 50.4188C14.7648 49.4799 19.5931 48.0046 20.532 46.3951C21.4708 44.7857 24.4215 40.4938 24.5556 39.4209C24.6897 38.3479 22.812 38.3479 21.8732 39.4209C20.9343 40.4938 18.6543 43.0421 18.386 42.7739C18.1178 42.5056 18.5202 41.1644 19.1908 39.8232C19.7272 38.7502 21.2026 37.0514 21.8732 36.3361C21.9626 36.4255 22.2487 36.6848 22.6779 37.0067C23.2144 37.409 24.1532 37.1408 24.0191 36.0678C23.9083 35.1817 22.6085 34.1127 21.7058 33.7672M12.2165 36.2019C12.7977 35.1289 14.121 32.9025 14.7648 32.5807C15.4085 32.2588 16.2944 32.1397 16.652 32.1844M16.652 32.1844C16.1571 32.7921 15.6621 33.6312 15.1671 34.3242C14.6306 35.0753 14.2499 36.0195 14.2499 36.0195M16.652 32.1844C16.8277 31.9688 17.0033 31.7823 17.1789 31.6418C17.8495 31.1053 21.0684 31.6418 22.1414 32.983C22.5982 33.554 22.277 33.7361 21.7058 33.7672M21.7058 33.7672C21.5154 33.6943 21.3427 33.6537 21.2026 33.6537C21.1019 33.6537 20.9715 33.6843 20.8198 33.7383M20.8198 33.7383C20.2037 33.6874 19.5799 33.6026 19.3249 33.6537C18.7884 33.7609 18.1178 34.9502 17.8496 35.5313C18.5661 35.0033 20.0018 34.0299 20.8198 33.7383ZM13.677 33.7996V10.8112H41.7498V30.7619M16.5416 27.9987L18.738 24.3125C18.9333 24.0001 19.3684 23.9506 19.629 24.2111L20.9172 25.4993C21.1729 25.755 21.5985 25.7128 21.799 25.412L23.7283 22.518C23.9723 22.152 24.5207 22.1862 24.7174 22.5796L25.5109 24.1666C25.7166 24.5779 26.2985 24.5915 26.5232 24.1903L29.562 18.764C29.7593 18.4115 30.2639 18.404 30.4717 18.7503C30.6612 19.0663 31.1085 19.0944 31.3361 18.8047L33.8434 15.6135C33.9521 15.4752 34.1181 15.3945 34.2939 15.3945H36.41C36.5294 15.3945 36.6458 15.3572 36.743 15.2878L38.5988 13.9622M16.5416 30.0039H29.1457M18.2603 31.4362H30.4717M21.9843 32.8685H27.7134M33.3463 33.7196C32.5689 31.7534 30.4997 32.1716 30.9203 33.6437C31.3409 35.1158 31.4649 35.8693 32.1784 36.8576C32.8919 37.8459 34.6395 40.1469 36.1828 41.9938C37.7261 43.8406 40.8952 45.5525 42.5188 47.1001L43.6261 50.7412C43.7174 51.0415 43.9783 51.2622 44.2929 51.3005C47.4429 51.6838 49.9814 51.5942 52.3296 49.9397C52.6996 49.679 52.7333 49.159 52.4324 48.8224C50.9633 47.1797 47.0524 42.749 46.9415 42.0137C46.7697 40.8744 46.0337 36.9178 44.989 35.1222C44.9387 35.0356 44.9085 34.94 44.8946 34.841C44.8276 34.3643 44.5708 33.5644 43.937 33.0762C43.782 32.9568 43.6637 32.7884 43.568 32.6186C43.0593 31.7158 40.9292 30.1 39.7878 29.1574C39.7007 29.0855 39.6374 28.9929 39.6019 28.8862C38.604 25.8841 36.5142 20.1497 35.7203 20.0043C34.799 19.8355 34.0608 20.2476 36.4581 28.2082M33.3463 33.7196C33.2942 33.3055 33.2585 32.2227 33.5315 31.205C33.8045 30.1872 35.5963 28.7831 36.4581 28.2082M33.3463 33.7196C33.4334 33.94 33.5326 34.1536 33.6413 34.3578M36.4581 28.2082C36.6901 28.9786 36.9514 29.8196 37.2448 30.7377M37.2448 30.7377C36.8397 31.0319 35.9107 31.9415 35.4356 33.2266C35.2355 33.7677 34.9568 34.0817 34.6712 34.2522M37.2448 30.7377C37.4282 31.3969 37.4977 32.2847 37.4638 33.165M33.6413 34.3578C34.5018 35.9755 35.9525 37.0104 36.6577 36.2709C37.133 35.7724 37.4132 34.477 37.4638 33.165M33.6413 34.3578C33.8729 34.4495 34.2785 34.4866 34.6712 34.2522M34.6712 34.2522C34.5034 34.5738 34.309 35.2379 34.8736 35.322C35.2726 35.3814 35.7036 35.3213 36.0813 35.0756M37.4638 33.165C37.3932 33.1576 37.1654 33.3442 36.8187 34.1504C36.6304 34.5883 36.3716 34.8868 36.0813 35.0756M36.0813 35.0756C36.1804 35.3143 36.5171 35.7005 37.0717 35.3355M2.79166 19.4049L1.56399 18.2591M2.79166 21.1237H1.07292M2.79166 22.8425L1.56399 23.9883M52.6352 19.4049L53.8629 18.2591M52.6352 21.1237H54.3539M52.6352 22.8425L53.8629 23.9883" stroke="#86A4C1" stroke-linecap="round" stroke-linejoin="round"/>
<path d="M22.2695 25.4219C22.2695 25.8965 21.8848 26.2812 21.4102 26.2812C20.9355 26.2812 20.5508 25.8965 20.5508 25.4219C20.5508 24.9473 20.9355 24.5625 21.4102 24.5625C21.8848 24.5625 22.2695 24.9473 22.2695 25.4219Z" fill="white"/>
<path d="M30.8632 18.5469C30.8632 19.0215 30.4785 19.4062 30.0039 19.4062C29.5293 19.4062 29.1445 19.0215 29.1445 18.5469C29.1445 18.0723 29.5293 17.6875 30.0039 17.6875C30.4785 17.6875 30.8632 18.0723 30.8632 18.5469Z" fill="white"/>
</svg>
