<svg width="56" height="56" viewBox="0 0 56 56" fill="none" xmlns="http://www.w3.org/2000/svg">
<path d="M42.0351 1.71745C41.759 1.71745 41.5351 1.94131 41.5351 2.21745C41.5351 2.49359 41.759 2.71745 42.0351 2.71745V1.71745ZM44.0404 3.9362V4.4362C44.3165 4.4362 44.5404 4.21234 44.5404 3.9362H44.0404ZM41.4622 3.4362C41.1861 3.4362 40.9622 3.66006 40.9622 3.9362C40.9622 4.21234 41.1861 4.4362 41.4622 4.4362V3.4362ZM43.5166 2.55305L43.8701 2.1995V2.1995L43.5166 2.55305ZM43.7048 2.74122L43.3512 3.09477V3.09477L43.7048 2.74122ZM24.2747 5.36849H23.7747C23.7747 5.64463 23.9986 5.86849 24.2747 5.86849V5.36849ZM53.207 5.36849V5.86849C53.4832 5.86849 53.707 5.64463 53.707 5.36849H53.207ZM53.207 2.50391H53.707C53.707 2.22776 53.4832 2.00391 53.207 2.00391V2.50391ZM50.9154 2.50391V2.00391C50.6392 2.00391 50.4154 2.22776 50.4154 2.50391H50.9154ZM50.9154 3.64974H50.4154C50.4154 3.92588 50.6392 4.14974 50.9154 4.14974V3.64974ZM24.2747 2.50391V2.00391C23.9986 2.00391 23.7747 2.22776 23.7747 2.50391H24.2747ZM26.5664 2.50391H27.0664C27.0664 2.22776 26.8425 2.00391 26.5664 2.00391V2.50391ZM26.5664 3.64974V4.14974C26.8425 4.14974 27.0664 3.92588 27.0664 3.64974H26.5664ZM42.8653 43.9155C43.1072 44.0488 43.4113 43.9607 43.5445 43.7188C43.6777 43.477 43.5897 43.1729 43.3478 43.0396L42.8653 43.9155ZM39.6761 39.8691L39.2266 40.088L39.2267 40.0882L39.6761 39.8691ZM36.2904 28.4159L36.6778 28.0998L36.6776 28.0996L36.2904 28.4159ZM32.9884 22.5437L33.4422 22.7536L33.4425 22.753L32.9884 22.5437ZM35.3629 21.8488L35.1607 22.3061L35.1617 22.3066L35.3629 21.8488ZM37.5307 23.8324L37.8922 23.4869L37.8904 23.4851L37.5307 23.8324ZM41.6428 26.7293L41.3757 27.152L41.3765 27.1525L41.6428 26.7293ZM45.1291 30.2706L45.589 30.0744L45.5884 30.0731L45.1291 30.2706ZM46.114 33.4788C46.3168 33.6661 46.6332 33.6536 46.8205 33.4507C47.0079 33.2478 46.9953 32.9315 46.7924 32.7442L46.114 33.4788ZM46.3582 27.6315L46.7518 27.3231L46.7511 27.3221L46.3582 27.6315ZM47.2186 29.5254L46.7411 29.6734L46.7411 29.6736L47.2186 29.5254ZM49.6267 37.5998L49.139 37.7098L49.1391 37.7104L49.6267 37.5998ZM51.2805 43.5001L51.7398 43.3024L51.7395 43.3019L51.2805 43.5001ZM44.0396 47.1534L44.3058 46.7302L44.3051 46.7298L44.0396 47.1534ZM40.1175 45.45L40.3788 45.0236L40.3774 45.0228L40.1175 45.45ZM38.1623 38.4893C38.1567 38.2132 37.9284 37.9939 37.6523 37.9995C37.3762 38.005 37.1569 38.2334 37.1625 38.5095L38.1623 38.4893ZM33.7111 38.8367C33.893 38.6289 33.8719 38.313 33.6641 38.1312C33.4563 37.9493 33.1404 37.9704 32.9585 38.1782L33.7111 38.8367ZM30.9715 41.494L31.4076 41.7386L31.408 41.7379L30.9715 41.494ZM30.8039 42.3793L31.2659 42.188L31.2632 42.1818L30.8039 42.3793ZM31.8151 42.7996L31.765 42.3021L31.7645 42.3022L31.8151 42.7996ZM37.0493 38.8552C37.2414 38.6567 37.2362 38.3402 37.0378 38.1482C36.8393 37.9561 36.5228 37.9613 36.3307 38.1597L37.0493 38.8552ZM39.1396 39.0075C39.4158 39.0088 39.6408 38.7861 39.6421 38.51C39.6435 38.2338 39.4208 38.0088 39.1446 38.0075L39.1396 39.0075ZM29.0106 38.4569L29.0131 37.9569H29.0106V38.4569ZM41.8048 26.8323L41.5348 27.2531L41.8048 26.8323ZM3.36328 7.44661C3.08714 7.44661 2.86328 7.67047 2.86328 7.94661C2.86328 8.22276 3.08714 8.44661 3.36328 8.44661V7.44661ZM5.65495 8.44661C5.93109 8.44661 6.15495 8.22276 6.15495 7.94661C6.15495 7.67047 5.93109 7.44661 5.65495 7.44661V8.44661ZM6.51432 7.44661C6.23818 7.44661 6.01432 7.67047 6.01432 7.94661C6.01432 8.22276 6.23818 8.44661 6.51432 8.44661V7.44661ZM8.80599 8.44661C9.08213 8.44661 9.30599 8.22276 9.30599 7.94661C9.30599 7.67047 9.08213 7.44661 8.80599 7.44661V8.44661ZM1.28516 9.95182C1.28516 9.67568 1.0613 9.45182 0.785156 9.45182C0.509014 9.45182 0.285156 9.67568 0.285156 9.95182H1.28516ZM0.285156 11.6706C0.285156 11.9467 0.509014 12.1706 0.785156 12.1706C1.0613 12.1706 1.28516 11.9467 1.28516 11.6706H0.285156ZM48.8735 55.0373L48.7831 54.5456L48.8735 55.0373ZM47.5769 54.2967L48.0454 54.1219L47.5769 54.2967ZM54.8895 49.5678L54.4716 49.8423L54.8895 49.5678ZM54.9996 50.6067L55.4641 50.7918L54.9996 50.6067ZM3.07682 9.95182V9.45182C2.80068 9.45182 2.57682 9.67568 2.57682 9.95182H3.07682ZM40.6589 9.95182H41.1589C41.1589 9.67568 40.9351 9.45182 40.6589 9.45182V9.95182ZM40.6589 26.1263L40.4003 26.5542L40.6589 26.1263ZM3.07682 37.3111H2.57682C2.57682 37.5872 2.80068 37.8111 3.07682 37.8111V37.3111ZM6.71473 41.2906C6.46174 41.1799 6.16692 41.2953 6.05624 41.5483C5.94556 41.8013 6.06092 42.0961 6.31391 42.2068L6.71473 41.2906ZM11.0977 43.7539L10.8972 44.212C11.025 44.2679 11.1703 44.2679 11.2981 44.212L11.0977 43.7539ZM15.8814 42.2068C16.1344 42.0961 16.2497 41.8013 16.1391 41.5483C16.0284 41.2953 15.7336 41.1799 15.4806 41.2906L15.8814 42.2068ZM6.71473 43.2958C6.46174 43.1851 6.16692 43.3005 6.05624 43.5535C5.94556 43.8065 6.06092 44.1013 6.31391 44.212L6.71473 43.2958ZM11.0977 45.7591L10.8972 46.2172C11.025 46.2731 11.1703 46.2731 11.2981 46.2172L11.0977 45.7591ZM15.8814 44.212C16.1344 44.1013 16.2497 43.8065 16.1391 43.5535C16.0284 43.3005 15.7336 43.1851 15.4806 43.2958L15.8814 44.212ZM6.71473 45.301C6.46174 45.1903 6.16692 45.3057 6.05624 45.5587C5.94556 45.8117 6.06092 46.1065 6.31391 46.2172L6.71473 45.301ZM11.0977 47.7643L10.8972 48.2224C11.025 48.2783 11.1703 48.2783 11.2981 48.2224L11.0977 47.7643ZM15.8814 46.2172C16.1344 46.1065 16.2497 45.8117 16.1391 45.5587C16.0284 45.3057 15.7336 45.1903 15.4806 45.301L15.8814 46.2172ZM6.71473 47.3062C6.46174 47.1956 6.16692 47.3109 6.05624 47.5639C5.94556 47.8169 6.06092 48.1117 6.31391 48.2224L6.71473 47.3062ZM11.0977 49.7695L10.8972 50.2276C11.025 50.2835 11.1703 50.2835 11.2981 50.2276L11.0977 49.7695ZM15.8814 48.2224C16.1344 48.1117 16.2497 47.8169 16.1391 47.5639C16.0284 47.3109 15.7336 47.1956 15.4806 47.3062L15.8814 48.2224ZM21.9831 14.3216C21.7069 14.3216 21.4831 14.5455 21.4831 14.8216C21.4831 15.0978 21.7069 15.3216 21.9831 15.3216V14.3216ZM36.306 15.3216C36.5821 15.3216 36.806 15.0978 36.806 14.8216C36.806 14.5455 36.5821 14.3216 36.306 14.3216V15.3216ZM21.9831 16.0404C21.7069 16.0404 21.4831 16.2642 21.4831 16.5404C21.4831 16.8165 21.7069 17.0404 21.9831 17.0404V16.0404ZM32.8685 17.0404C33.1446 17.0404 33.3685 16.8165 33.3685 16.5404C33.3685 16.2642 33.1446 16.0404 32.8685 16.0404V17.0404ZM23.7018 17.7591C23.4257 17.7591 23.2018 17.983 23.2018 18.2591C23.2018 18.5353 23.4257 18.7591 23.7018 18.7591V17.7591ZM35.1601 18.7591C35.4363 18.7591 35.6601 18.5353 35.6601 18.2591C35.6601 17.983 35.4363 17.7591 35.1601 17.7591V18.7591ZM21.6295 17.9056C21.4343 18.1008 21.4343 18.4174 21.6295 18.6127C21.8248 18.8079 22.1414 18.8079 22.3366 18.6127L21.6295 17.9056ZM22.556 17.6862H23.056C23.056 17.484 22.9342 17.3016 22.7473 17.2243C22.5605 17.1469 22.3454 17.1896 22.2024 17.3326L22.556 17.6862ZM22.056 19.1185C22.056 19.3946 22.2798 19.6185 22.556 19.6185C22.8321 19.6185 23.056 19.3946 23.056 19.1185H22.056ZM21.9831 26.9258C21.7069 26.9258 21.4831 27.1496 21.4831 27.4258C21.4831 27.7019 21.7069 27.9258 21.9831 27.9258V26.9258ZM35.1601 27.9258C35.4363 27.9258 35.6601 27.7019 35.6601 27.4258C35.6601 27.1496 35.4363 26.9258 35.1601 26.9258V27.9258ZM21.9831 28.6445C21.7069 28.6445 21.4831 28.8684 21.4831 29.1445C21.4831 29.4207 21.7069 29.6445 21.9831 29.6445V28.6445ZM32.8685 29.6445C33.1446 29.6445 33.3685 29.4207 33.3685 29.1445C33.3685 28.8684 33.1446 28.6445 32.8685 28.6445V29.6445ZM21.9831 30.3633C21.7069 30.3633 21.4831 30.5871 21.4831 30.8633C21.4831 31.1394 21.7069 31.3633 21.9831 31.3633V30.3633ZM35.1601 31.3633C35.4363 31.3633 35.6601 31.1394 35.6601 30.8633C35.6601 30.5871 35.4363 30.3633 35.1601 30.3633V31.3633ZM22.056 1.93099V5.94141H23.056V1.93099H22.056ZM23.7018 7.58724H54.0664V6.58724H23.7018V7.58724ZM55.7122 5.94141V1.93099H54.7122V5.94141H55.7122ZM54.0664 0.285156H23.7018V1.28516H54.0664V0.285156ZM55.7122 1.93099C55.7122 1.02202 54.9754 0.285156 54.0664 0.285156V1.28516C54.4231 1.28516 54.7122 1.57431 54.7122 1.93099H55.7122ZM54.0664 7.58724C54.9754 7.58724 55.7122 6.85037 55.7122 5.94141H54.7122C54.7122 6.29809 54.4231 6.58724 54.0664 6.58724V7.58724ZM22.056 5.94141C22.056 6.85037 22.7929 7.58724 23.7018 7.58724V6.58724C23.3451 6.58724 23.056 6.29809 23.056 5.94141H22.056ZM23.056 1.93099C23.056 1.57431 23.3451 1.28516 23.7018 1.28516V0.285156C22.7929 0.285156 22.056 1.02202 22.056 1.93099H23.056ZM42.0351 2.71745H42.7064V1.71745H42.0351V2.71745ZM44.0404 3.4362H41.4622V4.4362H44.0404V3.4362ZM43.163 2.90661L43.3512 3.09477L44.0583 2.38766L43.8701 2.1995L43.163 2.90661ZM43.5404 3.55144V3.9362H44.5404V3.55144H43.5404ZM43.3512 3.09477C43.4723 3.21589 43.5404 3.38016 43.5404 3.55144H44.5404C44.5404 3.11494 44.367 2.69632 44.0583 2.38766L43.3512 3.09477ZM42.7064 2.71745C42.8777 2.71745 43.0419 2.78549 43.163 2.90661L43.8701 2.1995C43.5615 1.89085 43.1429 1.71745 42.7064 1.71745V2.71745ZM53.207 2.00391H50.9154V3.00391H53.207V2.00391ZM50.4154 2.50391V3.64974H51.4154V2.50391H50.4154ZM53.707 5.36849V3.64974H52.707V5.36849H53.707ZM53.707 3.64974V2.50391H52.707V3.64974H53.707ZM50.9154 4.14974H53.207V3.14974H50.9154V4.14974ZM24.2747 3.00391H26.5664V2.00391H24.2747V3.00391ZM26.0664 2.50391V3.64974H27.0664V2.50391H26.0664ZM24.7747 5.36849V3.64974H23.7747V5.36849H24.7747ZM24.7747 3.64974V2.50391H23.7747V3.64974H24.7747ZM26.5664 3.14974H24.2747V4.14974H26.5664V3.14974ZM43.3478 43.0396C41.9635 42.2771 40.818 41.0705 40.1256 39.65L39.2267 40.0882C40.0092 41.6934 41.2997 43.0531 42.8653 43.9155L43.3478 43.0396ZM36.6776 28.0996C36.271 27.6019 35.8012 27.172 35.3616 26.7701C34.9132 26.36 34.4957 25.9784 34.139 25.5476L33.3687 26.1853C33.7774 26.6789 34.2483 27.107 34.6868 27.508C35.1342 27.9172 35.5499 28.2998 35.9031 28.7322L36.6776 28.0996ZM34.139 25.5476C33.4196 24.6787 33.0608 23.5782 33.4422 22.7536L32.5346 22.3337C31.9104 23.6832 32.5572 25.2051 33.3687 26.1853L34.139 25.5476ZM33.4425 22.753C33.7018 22.1906 34.4142 21.9759 35.1607 22.3061L35.5652 21.3916C34.5127 20.9261 33.1019 21.1036 32.5344 22.3343L33.4425 22.753ZM35.1617 22.3066C35.5271 22.4672 35.8437 22.7316 36.1678 23.0692C36.3299 23.238 36.4868 23.4175 36.6531 23.6075C36.8166 23.7944 36.9893 23.9916 37.171 24.1797L37.8904 23.4851C37.7284 23.3174 37.5715 23.1385 37.4056 22.9489C37.2424 22.7625 37.0701 22.5651 36.8892 22.3767C36.5275 21.9999 36.1038 21.6283 35.5641 21.3911L35.1617 22.3066ZM44.6692 30.4668C44.7631 30.6871 44.8433 30.923 44.9255 31.1767C45.0056 31.424 45.09 31.696 45.1853 31.957C45.3766 32.4812 45.6378 33.039 46.114 33.4788L46.7924 32.7442C46.492 32.4667 46.2979 32.0888 46.1246 31.6142C46.0377 31.3758 45.9624 31.1327 45.8768 30.8685C45.7933 30.6107 45.7017 30.3388 45.589 30.0744L44.6692 30.4668ZM41.8048 23.5802C41.5005 23.977 41.5005 23.9769 41.5005 23.977C41.5005 23.977 41.5006 23.977 41.5006 23.977C41.5007 23.9771 41.5008 23.9772 41.501 23.9773C41.5013 23.9776 41.5019 23.978 41.5027 23.9786C41.5042 23.9798 41.5066 23.9816 41.5098 23.9841C41.5161 23.9889 41.5256 23.9963 41.5381 24.0059C41.5631 24.0252 41.6001 24.0539 41.6478 24.0909C41.743 24.1651 41.8806 24.2728 42.0493 24.4065C42.3869 24.6741 42.8483 25.0452 43.3437 25.4598C44.3489 26.3009 45.4467 27.282 45.9654 27.9408L46.7511 27.3221C46.1579 26.5689 44.979 25.5243 43.9854 24.6929C43.4815 24.2711 43.0129 23.8942 42.6705 23.6228C42.4992 23.487 42.3592 23.3775 42.2619 23.3018C42.2133 23.2639 42.1752 23.2345 42.1493 23.2144C42.1363 23.2044 42.1264 23.1967 42.1196 23.1915C42.1162 23.1889 42.1136 23.1869 42.1119 23.1856C42.111 23.1849 42.1103 23.1844 42.1098 23.184C42.1096 23.1838 42.1094 23.1837 42.1093 23.1836C42.1092 23.1835 42.1092 23.1835 42.1091 23.1835C42.1091 23.1834 42.109 23.1834 41.8048 23.5802ZM45.9646 27.9398C46.3303 28.4066 46.5317 28.9982 46.7411 29.6734L47.6962 29.3773C47.4921 28.7189 47.2465 27.9546 46.7518 27.3231L45.9646 27.9398ZM46.7411 29.6736C47.5713 32.3471 48.5358 35.0347 49.139 37.7098L50.1145 37.4898C49.4997 34.7633 48.5085 31.9932 47.6961 29.3771L46.7411 29.6736ZM49.1391 37.7104C49.586 39.6802 49.9881 41.7674 50.8214 43.6982L51.7395 43.3019C50.9526 41.4785 50.5725 39.5089 50.1143 37.4892L49.1391 37.7104ZM50.8212 43.6977C51.1627 44.4913 51.8791 45.7258 52.5955 46.8944C53.318 48.0729 54.0609 49.2169 54.4716 49.8423L55.3075 49.2933C54.8993 48.6718 54.1628 47.5376 53.4481 46.3718C52.7273 45.1961 52.0486 44.0202 51.7398 43.3024L50.8212 43.6977ZM54.5352 50.4215C53.871 52.0874 53.3222 52.9033 52.5574 53.4154C51.7641 53.9465 50.6794 54.197 48.7831 54.5456L48.9639 55.5291C50.8119 55.1894 52.1168 54.9138 53.1137 54.2463C54.1391 53.5598 54.7812 52.5046 55.4641 50.7918L54.5352 50.4215ZM48.0454 54.1219C47.6761 53.132 47.0436 51.4948 46.3724 50.0203C46.0371 49.284 45.6877 48.5781 45.3525 48.0103C45.185 47.7266 45.0162 47.4692 44.8499 47.2566C44.6888 47.0508 44.5066 46.8565 44.3058 46.7302L43.7734 47.5767C43.8292 47.6118 43.927 47.7 44.0624 47.873C44.1925 48.0392 44.3366 48.2566 44.4914 48.5187C44.8007 49.0427 45.1334 49.7124 45.4622 50.4347C46.119 51.8773 46.742 53.4889 47.1085 54.4714L48.0454 54.1219ZM44.3051 46.7298C43.6016 46.2887 42.8956 46.0471 42.2446 45.8244C41.5834 45.5981 40.9784 45.3911 40.3788 45.0236L39.8562 45.8763C40.564 46.31 41.2719 46.5485 41.9209 46.7705C42.5801 46.9961 43.1814 47.2056 43.774 47.5771L44.3051 46.7298ZM40.3774 45.0228C39.4737 44.4728 38.9238 43.4989 38.5974 42.2936C38.2714 41.09 38.1873 39.7256 38.1623 38.4893L37.1625 38.5095C37.1878 39.761 37.2726 41.2275 37.6321 42.555C37.9913 43.8809 38.6438 45.1384 39.8575 45.8771L40.3774 45.0228ZM33.3348 38.5075C32.9585 38.1782 32.9585 38.1782 32.9585 38.1783C32.9585 38.1783 32.9584 38.1783 32.9584 38.1784C32.9583 38.1784 32.9582 38.1786 32.9581 38.1787C32.9578 38.179 32.9575 38.1794 32.957 38.18C32.956 38.1811 32.9546 38.1828 32.9527 38.1849C32.9489 38.1892 32.9434 38.1956 32.9361 38.2039C32.9217 38.2204 32.9006 38.2447 32.8736 38.2758C32.8197 38.3381 32.7422 38.4277 32.648 38.5376C32.4596 38.7574 32.2036 39.059 31.9333 39.3859C31.4071 40.0223 30.7826 40.8069 30.535 41.2502L31.408 41.7379C31.6018 41.391 32.1589 40.6824 32.704 40.0231C32.9694 39.7021 33.2215 39.4052 33.4073 39.1884C33.5001 39.0801 33.5763 38.9919 33.6291 38.9309C33.6556 38.9005 33.6762 38.8768 33.6901 38.8608C33.6971 38.8528 33.7024 38.8467 33.7059 38.8426C33.7077 38.8406 33.709 38.8391 33.7099 38.8381C33.7103 38.8376 33.7106 38.8372 33.7108 38.837C33.7109 38.8369 33.711 38.8368 33.7111 38.8368C33.7111 38.8367 33.7111 38.8367 33.7111 38.8367C33.7111 38.8367 33.7111 38.8367 33.3348 38.5075ZM30.5354 41.2494C30.4522 41.3977 30.3547 41.5926 30.3003 41.8079C30.2452 42.0259 30.2256 42.3004 30.3446 42.5769L31.2632 42.1818C31.2592 42.1726 31.2481 42.1389 31.2698 42.0529C31.2922 41.9642 31.3399 41.8593 31.4076 41.7386L30.5354 41.2494ZM30.3419 42.5707C30.4885 42.9245 30.7838 43.1181 31.0577 43.2131C31.3283 43.307 31.6196 43.3221 31.8658 43.297L31.7645 42.3022C31.6252 42.3163 31.4863 42.3034 31.3854 42.2684C31.2877 42.2345 31.2701 42.1984 31.2658 42.188L30.3419 42.5707ZM31.8653 43.2971C33.1077 43.1718 34.1256 42.3589 34.8614 41.5215L34.1101 40.8614C33.4379 41.6265 32.6345 42.2144 31.765 42.3021L31.8653 43.2971ZM34.8614 41.5215C35.2258 41.1067 35.6047 40.6102 35.9696 40.1422C36.3415 39.6654 36.7015 39.2146 37.0493 38.8552L36.3307 38.1597C35.9411 38.5624 35.551 39.0529 35.1811 39.5273C34.8042 40.0105 34.4497 40.4749 34.1101 40.8614L34.8614 41.5215ZM39.1446 38.0075L29.0131 37.9569L29.0081 38.9569L39.1396 39.0075L39.1446 38.0075ZM41.3765 27.1525C41.4293 27.1858 41.4821 27.2193 41.5348 27.2531L42.0748 26.4114C42.0196 26.376 41.9643 26.3409 41.9091 26.3061L41.3765 27.1525ZM41.5348 27.2531C42.8838 28.1187 44.0918 29.1239 44.6697 30.4681L45.5884 30.0731C44.887 28.4417 43.461 27.3009 42.0748 26.4114L41.5348 27.2531ZM41.3048 23.5802V26.8323H42.3048V23.5802H41.3048ZM42.3048 23.5802V9.95182H41.3048V23.5802H42.3048ZM40.6589 8.30599H2.79037V9.30599H40.6589V8.30599ZM1.14453 9.95182V37.3111H2.14453V9.95182H1.14453ZM2.79036 38.9569H29.0106V37.9569H2.79036V38.9569ZM3.36328 8.44661H5.65495V7.44661H3.36328V8.44661ZM6.51432 8.44661H8.80599V7.44661H6.51432V8.44661ZM0.285156 9.95182V11.6706H1.28516V9.95182H0.285156ZM42.3048 9.95182C42.3048 9.04285 41.5679 8.30599 40.6589 8.30599V9.30599C41.0156 9.30599 41.3048 9.59514 41.3048 9.95182H42.3048ZM1.14453 37.3111C1.14453 38.22 1.8814 38.9569 2.79036 38.9569V37.9569C2.43368 37.9569 2.14453 37.6677 2.14453 37.3111H1.14453ZM48.7831 54.5456C48.4721 54.6027 48.1585 54.4251 48.0454 54.1219L47.1085 54.4714C47.3885 55.2221 48.1686 55.6753 48.9639 55.5291L48.7831 54.5456ZM2.79037 8.30599C1.8814 8.30599 1.14453 9.04285 1.14453 9.95182H2.14453C2.14453 9.59514 2.43368 9.30599 2.79037 9.30599V8.30599ZM54.4716 49.8423C54.5874 50.0185 54.6095 50.2352 54.5352 50.4215L55.4641 50.7918C55.663 50.2928 55.5967 49.7337 55.3075 49.2933L54.4716 49.8423ZM3.07682 10.4518H40.6589V9.45182H3.07682V10.4518ZM37.1692 24.1779C38.1192 25.1718 39.2935 25.885 40.4003 26.5542L40.9176 25.6984C39.7941 25.0191 38.7358 24.3696 37.8922 23.4869L37.1692 24.1779ZM40.4003 26.5542C40.7315 26.7544 41.0567 26.9505 41.3757 27.152L41.9098 26.3066C41.5808 26.0987 41.2463 25.8971 40.9176 25.6984L40.4003 26.5542ZM40.1589 9.95182V26.1263H41.1589V9.95182H40.1589ZM2.57682 9.95182V37.3111H3.57682V9.95182H2.57682ZM40.1257 39.6502C39.7556 38.8902 39.5066 38.0685 39.3173 37.2041L38.3405 37.418C38.54 38.3293 38.8103 39.2331 39.2266 40.088L40.1257 39.6502ZM39.3173 37.2041C39.1526 36.4517 39.035 35.6772 38.9195 34.887C38.8047 34.1024 38.6917 33.2993 38.537 32.5165C38.2275 30.95 37.7412 29.4031 36.6778 28.0998L35.903 28.732C36.8137 29.8481 37.2587 31.2056 37.556 32.7103C37.7047 33.463 37.8138 34.2372 37.93 35.0317C38.0453 35.8207 38.1673 36.6272 38.3405 37.418L39.3173 37.2041ZM3.07682 37.8111H38.8289V36.8111H3.07682V37.8111ZM6.31391 42.2068L10.8972 44.212L11.2981 43.2958L6.71473 41.2906L6.31391 42.2068ZM15.4806 41.2906L10.8972 43.2958L11.2981 44.212L15.8814 42.2068L15.4806 41.2906ZM6.31391 44.212L10.8972 46.2172L11.2981 45.301L6.71473 43.2958L6.31391 44.212ZM15.4806 43.2958L10.8972 45.301L11.2981 46.2172L15.8814 44.212L15.4806 43.2958ZM6.31391 46.2172L10.8972 48.2224L11.2981 47.3062L6.71473 45.301L6.31391 46.2172ZM15.4806 45.301L10.8972 47.3062L11.2981 48.2224L15.8814 46.2172L15.4806 45.301ZM6.31391 48.2224L10.8972 50.2276L11.2981 49.3115L6.71473 47.3062L6.31391 48.2224ZM15.4806 47.3062L10.8972 49.3115L11.2981 50.2276L15.8814 48.2224L15.4806 47.3062ZM53.207 4.86849H24.2747V5.86849H53.207V4.86849ZM21.9831 15.3216H36.306V14.3216H21.9831V15.3216ZM21.9831 17.0404H32.8685V16.0404H21.9831V17.0404ZM23.7018 18.7591H35.1601V17.7591H23.7018V18.7591ZM22.3366 18.6127L22.9095 18.0398L22.2024 17.3326L21.6295 17.9056L22.3366 18.6127ZM22.056 17.6862V19.1185H23.056V17.6862H22.056ZM21.9831 27.9258H35.1601V26.9258H21.9831V27.9258ZM21.9831 29.6445H32.8685V28.6445H21.9831V29.6445ZM21.9831 31.3633H35.1601V30.3633H21.9831V31.3633Z" fill="#86A4C1"/>
<path d="M9.66797 15.6823H9.95443V17.974H9.66797C9.19335 17.974 8.80859 17.5892 8.80859 17.1146V16.5417C8.80859 16.067 9.19335 15.6823 9.66797 15.6823Z" fill="#00CECB"/>
<path d="M10.5273 14.25C10.5273 14.0918 10.6556 13.9635 10.8138 13.9635H13.9648C14.123 13.9635 14.2513 14.0918 14.2513 14.25V19.6927C14.2513 19.8509 14.123 19.9792 13.9648 19.9792H10.8138C10.6556 19.9792 10.5273 19.8509 10.5273 19.6927V14.25Z" fill="#00CECB"/>
<path fill-rule="evenodd" clip-rule="evenodd" d="M7.3763 10.8125C6.74348 10.8125 6.23047 11.3255 6.23047 11.9583V21.6979C6.23047 22.3307 6.74348 22.8437 7.3763 22.8437H17.1159C17.7487 22.8437 18.2617 22.3307 18.2617 21.6979V11.9583C18.2617 11.3255 17.7487 10.8125 17.1159 10.8125H7.3763ZM10.8138 13.3906C10.3392 13.3906 9.95443 13.7754 9.95443 14.25V15.1094H9.66797C8.87694 15.1094 8.23568 15.7506 8.23568 16.5417V17.1146C8.23568 17.9056 8.87694 18.5469 9.66797 18.5469H9.95443V19.6927C9.95443 20.1673 10.3392 20.5521 10.8138 20.5521H13.9648C14.4395 20.5521 14.8242 20.1673 14.8242 19.6927V14.25C14.8242 13.7754 14.4395 13.3906 13.9648 13.3906H10.8138Z" fill="#00CECB"/>
<path fill-rule="evenodd" clip-rule="evenodd" d="M9.95443 14.25C9.95443 13.7754 10.3392 13.3906 10.8138 13.3906H13.9648C14.4395 13.3906 14.8242 13.7754 14.8242 14.25V19.6927C14.8242 20.1673 14.4395 20.5521 13.9648 20.5521H10.8138C10.3392 20.5521 9.95443 20.1673 9.95443 19.6927V18.5469H9.66797C8.87694 18.5469 8.23568 17.9056 8.23568 17.1146V16.5417C8.23568 15.7506 8.87694 15.1094 9.66797 15.1094H9.95443V14.25ZM9.66797 15.6823H9.95443V17.974H9.66797C9.19335 17.974 8.80859 17.5892 8.80859 17.1146V16.5417C8.80859 16.067 9.19335 15.6823 9.66797 15.6823ZM10.5273 14.25C10.5273 14.0918 10.6556 13.9635 10.8138 13.9635H13.9648C14.123 13.9635 14.2513 14.0918 14.2513 14.25V19.6927C14.2513 19.8509 14.123 19.9792 13.9648 19.9792H10.8138C10.6556 19.9792 10.5273 19.8509 10.5273 19.6927V14.25Z" fill="#00CECB"/>
<path d="M8.52214 28.8581C9.21507 28.8581 9.79307 29.3501 9.92578 30.0039H7.11849C7.2512 29.3501 7.8292 28.8581 8.52214 28.8581Z" fill="#00CECB"/>
<path d="M8.52214 31.7227C7.8292 31.7227 7.2512 31.2306 7.11849 30.5768H9.92578C9.79307 31.2306 9.21507 31.7227 8.52214 31.7227Z" fill="#00CECB"/>
<path d="M12.819 31.7227C12.1261 31.7227 11.5481 31.2306 11.4154 30.5768H14.2227C14.0899 31.2306 13.5119 31.7227 12.819 31.7227Z" fill="#00CECB"/>
<path d="M12.819 28.8581C13.5119 28.8581 14.0899 29.3501 14.2227 30.0039H11.4154C11.5481 29.3501 12.1261 28.8581 12.819 28.8581Z" fill="#00CECB"/>
<path fill-rule="evenodd" clip-rule="evenodd" d="M7.3763 23.9883C6.74348 23.9883 6.23047 24.5013 6.23047 25.1341V34.8737C6.23047 35.5065 6.74348 36.0195 7.3763 36.0195H17.1159C17.7487 36.0195 18.2617 35.5065 18.2617 34.8737V25.1341C18.2617 24.5013 17.7487 23.9883 17.1159 23.9883H7.3763ZM8.52214 32.2956C9.53232 32.2956 10.368 31.5486 10.507 30.5768H10.8341C10.9731 31.5486 11.8088 32.2956 12.819 32.2956C13.8292 32.2956 14.6649 31.5486 14.8039 30.5768H16.543C16.8594 30.5768 17.1159 30.8333 17.1159 31.1497C17.1159 31.3079 17.2441 31.4362 17.4023 31.4362C17.5605 31.4362 17.6888 31.3079 17.6888 31.1497C17.6888 30.5169 17.1758 30.0039 16.543 30.0039H14.8039C14.6649 29.0322 13.8292 28.2852 12.819 28.2852C11.8088 28.2852 10.9731 29.0322 10.8341 30.0039H10.507C10.368 29.0322 9.53232 28.2852 8.52214 28.2852C7.41469 28.2852 6.51693 29.1829 6.51693 30.2904C6.51693 31.3978 7.41469 32.2956 8.52214 32.2956Z" fill="#00CECB"/>
<path fill-rule="evenodd" clip-rule="evenodd" d="M10.507 30.5768C10.368 31.5486 9.53232 32.2956 8.52214 32.2956C7.41469 32.2956 6.51693 31.3978 6.51693 30.2904C6.51693 29.1829 7.41469 28.2852 8.52214 28.2852C9.53232 28.2852 10.368 29.0322 10.507 30.0039H10.8341C10.9731 29.0322 11.8088 28.2852 12.819 28.2852C13.8292 28.2852 14.6649 29.0322 14.8039 30.0039H16.543C17.1758 30.0039 17.6888 30.5169 17.6888 31.1497C17.6888 31.3079 17.5605 31.4362 17.4023 31.4362C17.2441 31.4362 17.1159 31.3079 17.1159 31.1497C17.1159 30.8333 16.8594 30.5768 16.543 30.5768H14.8039C14.6649 31.5486 13.8292 32.2956 12.819 32.2956C11.8088 32.2956 10.9731 31.5486 10.8341 30.5768H10.507ZM8.52214 28.8581C9.21507 28.8581 9.79307 29.3501 9.92578 30.0039H7.11849C7.2512 29.3501 7.8292 28.8581 8.52214 28.8581ZM8.52214 31.7227C7.8292 31.7227 7.2512 31.2306 7.11849 30.5768H9.92578C9.79307 31.2306 9.21507 31.7227 8.52214 31.7227ZM12.819 31.7227C12.1261 31.7227 11.5481 31.2306 11.4154 30.5768H14.2227C14.0899 31.2306 13.5119 31.7227 12.819 31.7227ZM12.819 28.8581C13.5119 28.8581 14.0899 29.3501 14.2227 30.0039H11.4154C11.5481 29.3501 12.1261 28.8581 12.819 28.8581Z" fill="#00CECB"/>
<path d="M42.3242 2.21745V3.64974C42.3242 3.96615 42.0677 4.22266 41.7513 4.22266H39.383C39.4317 4.30692 39.4596 4.40476 39.4596 4.50911C39.4596 4.82553 39.2031 5.08203 38.8867 5.08203C38.5703 5.08203 38.3138 4.82553 38.3138 4.50911C38.3138 4.40476 38.3417 4.30692 38.3904 4.22266H37.7409C37.4245 4.22266 37.168 3.96615 37.168 3.64974V2.21745C37.168 1.90103 37.4245 1.64453 37.7409 1.64453H41.7513C42.0677 1.64453 42.3242 1.90103 42.3242 2.21745Z" fill="#EAF5FF"/>
<path d="M42.8971 5.08203C43.2135 5.08203 43.47 4.82553 43.47 4.50911C43.47 4.1927 43.2135 3.9362 42.8971 3.9362C42.5807 3.9362 42.3242 4.1927 42.3242 4.50911C42.3242 4.82553 42.5807 5.08203 42.8971 5.08203Z" fill="#EAF5FF"/>
</svg>
