<svg width="56" height="57" viewBox="0 0 56 57" fill="none" xmlns="http://www.w3.org/2000/svg">
<path d="M27.4258 5.37011L38.0293 1.07323C38.9488 0.722918 39.9651 0.722918 40.8847 1.07323L51.4882 5.37011" stroke="#86A4C1" stroke-linecap="round" stroke-linejoin="round"/>
<path fill-rule="evenodd" clip-rule="evenodd" d="M24.5612 4.51172C23.9284 4.51172 23.4154 5.02473 23.4154 5.65755V42.8971C23.4154 43.53 23.9284 44.043 24.5612 44.043H54.3527C54.9855 44.043 55.4985 43.53 55.4985 42.8971V5.65755C55.4985 5.02473 54.9855 4.51172 54.3527 4.51172H24.5612ZM27.1393 7.08984C26.5065 7.08984 25.9935 7.60285 25.9935 8.23568V40.319C25.9935 40.9518 26.5065 41.4648 27.1393 41.4648H51.7746C52.4074 41.4648 52.9204 40.9518 52.9204 40.319V8.23568C52.9204 7.60285 52.4074 7.08984 51.7746 7.08984H27.1393Z" fill="#EAF5FF"/>
<path d="M49.7694 48.6263V48.9128C49.7694 49.5456 49.2564 50.0586 48.6236 50.0586H21.6966C21.0638 50.0586 20.5508 49.5456 20.5508 48.9128V48.6263C20.5508 47.9935 21.0638 47.4805 21.6966 47.4805H48.6236C49.2564 47.4805 49.7694 47.9935 49.7694 48.6263Z" fill="#EAF5FF"/>
<path d="M24.5612 4.01172C23.6522 4.01172 22.9154 4.74859 22.9154 5.65755H23.9154C23.9154 5.30087 24.2045 5.01172 24.5612 5.01172V4.01172ZM22.9154 5.65755V42.8971H23.9154V5.65755H22.9154ZM22.9154 42.8971C22.9154 43.8061 23.6522 44.543 24.5612 44.543V43.543C24.2045 43.543 23.9154 43.2538 23.9154 42.8971H22.9154ZM24.5612 44.543H54.3527V43.543H24.5612V44.543ZM54.3527 44.543C55.2617 44.543 55.9985 43.8061 55.9985 42.8971H54.9985C54.9985 43.2538 54.7094 43.543 54.3527 43.543V44.543ZM55.9985 42.8971V5.65755H54.9985V42.8971H55.9985ZM55.9985 5.65755C55.9985 4.74859 55.2617 4.01172 54.3527 4.01172V5.01172C54.7094 5.01172 54.9985 5.30087 54.9985 5.65755H55.9985ZM54.3527 4.01172H24.5612V5.01172H54.3527V4.01172ZM27.1393 6.58984C26.2303 6.58984 25.4935 7.32671 25.4935 8.23568H26.4935C26.4935 7.87899 26.7826 7.58984 27.1393 7.58984V6.58984ZM25.4935 8.23568V40.319H26.4935V8.23568H25.4935ZM25.4935 40.319C25.4935 41.228 26.2303 41.9648 27.1393 41.9648V40.9648C26.7826 40.9648 26.4935 40.6757 26.4935 40.319H25.4935ZM27.1393 41.9648H51.7746V40.9648H27.1393V41.9648ZM51.7746 41.9648C52.6836 41.9648 53.4204 41.228 53.4204 40.319H52.4204C52.4204 40.6757 52.1313 40.9648 51.7746 40.9648V41.9648ZM53.4204 40.319V8.23568H52.4204V40.319H53.4204ZM53.4204 8.23568C53.4204 7.32671 52.6836 6.58984 51.7746 6.58984V7.58984C52.1313 7.58984 52.4204 7.87899 52.4204 8.23568H53.4204ZM51.7746 6.58984H27.1393V7.58984H51.7746V6.58984ZM50.2694 48.9128V48.6263H49.2694V48.9128H50.2694ZM20.0508 48.6263V48.9128H21.0508V48.6263H20.0508ZM21.6966 50.5586H48.6236V49.5586H21.6966V50.5586ZM20.0508 48.9128C20.0508 49.8217 20.7876 50.5586 21.6966 50.5586V49.5586C21.3399 49.5586 21.0508 49.2694 21.0508 48.9128H20.0508ZM21.0508 48.6263C21.0508 48.2696 21.3399 47.9805 21.6966 47.9805V46.9805C20.7876 46.9805 20.0508 47.7173 20.0508 48.6263H21.0508ZM50.2694 48.6263C50.2694 47.7173 49.5325 46.9805 48.6236 46.9805V47.9805C48.9802 47.9805 49.2694 48.2696 49.2694 48.6263H50.2694ZM49.2694 48.9128C49.2694 49.2694 48.9802 49.5586 48.6236 49.5586V50.5586C49.5325 50.5586 50.2694 49.8217 50.2694 48.9128H49.2694ZM48.6236 46.9805H21.6966V47.9805H48.6236V46.9805Z" fill="#EAF5FF"/>
<path d="M40.0326 1.64714C40.0326 1.96355 39.776 2.22005 39.4596 2.22005C39.1432 2.22005 38.8867 1.96355 38.8867 1.64714C38.8867 1.33072 39.1432 1.07422 39.4596 1.07422C39.776 1.07422 40.0326 1.33072 40.0326 1.64714Z" fill="#EAF5FF"/>
<path d="M5.65492 25.4219H0.785156C0.785156 43.7552 6.22784 44.3281 11.957 44.3281M19.9778 25.4219H24.8475C24.8475 43.7552 19.4049 44.3281 13.6757 44.3281M12.2196 42.6094V53.6442H6.07838C5.5281 53.6442 5.08201 54.6633 5.08201 55.2135H20.5507C20.5507 54.6633 20.1046 53.6442 19.5543 53.6442H13.4131V42.6094H12.2196Z" stroke="#86A4C1" stroke-linecap="round" stroke-linejoin="round"/>
<path d="M3.64973 18.5456L1.64453 16.5404M5.36847 17.9727L5.08201 13.6758" stroke="#86A4C1" stroke-linecap="round" stroke-linejoin="round"/>
<path d="M37.259 23.3035C37.354 23.0442 37.2207 22.757 36.9614 22.662C36.7021 22.567 36.4149 22.7003 36.32 22.9596L37.259 23.3035ZM33.4843 32.1563L33.0148 31.9844L33.4843 32.1563ZM34.4602 32.9728L34.2135 32.5379L34.4602 32.9728ZM35.6355 32.306L35.3888 31.8711L35.3888 31.8711L35.6355 32.306ZM36.5974 32.6261L37.0564 32.4279L36.5974 32.6261ZM37.0211 33.6079L36.5621 33.806L37.0211 33.6079ZM43.1669 22.9596C43.0719 22.7003 42.7847 22.567 42.5254 22.662C42.2661 22.757 42.1329 23.0442 42.2278 23.3035L43.1669 22.9596ZM46.0025 32.1563L46.472 31.9844L46.0025 32.1563ZM45.0266 32.9728L44.7799 33.4077L45.0266 32.9728ZM43.8513 32.306L44.0981 31.8711L44.0981 31.8711L43.8513 32.306ZM42.8895 32.6261L43.3485 32.8242L42.8895 32.6261ZM42.4657 33.6079L42.9248 33.806H42.9248L42.4657 33.6079ZM41.1876 33.5274L41.6681 33.3892L41.1876 33.5274ZM38.2993 33.5274L38.7798 33.6657L38.2993 33.5274ZM40.2434 26.0645C40.2434 25.7884 40.0196 25.5645 39.7434 25.5645C39.4673 25.5645 39.2434 25.7884 39.2434 26.0645H40.2434ZM30.5768 9.45443C30.3007 9.45443 30.0768 9.67828 30.0768 9.95443C30.0768 10.2306 30.3007 10.4544 30.5768 10.4544V9.45443ZM48.3371 10.4544C48.6133 10.4544 48.8371 10.2306 48.8371 9.95443C48.8371 9.67828 48.6133 9.45443 48.3371 9.45443V10.4544ZM30.5768 38.6732C30.3007 38.6732 30.0768 38.897 30.0768 39.1732C30.0768 39.4493 30.3007 39.6732 30.5768 39.6732V38.6732ZM35.733 39.6732C36.0092 39.6732 36.233 39.4493 36.233 39.1732C36.233 38.897 36.0092 38.6732 35.733 38.6732V39.6732ZM43.1809 38.6732C42.9048 38.6732 42.6809 38.897 42.6809 39.1732C42.6809 39.4493 42.9048 39.6732 43.1809 39.6732V38.6732ZM48.3371 39.6732C48.6133 39.6732 48.8371 39.4493 48.8371 39.1732C48.8371 38.897 48.6133 38.6732 48.3371 38.6732V39.6732ZM30.5768 11.1732C30.3007 11.1732 30.0768 11.397 30.0768 11.6732C30.0768 11.9493 30.3007 12.1732 30.5768 12.1732V11.1732ZM48.3371 12.1732C48.6133 12.1732 48.8371 11.9493 48.8371 11.6732C48.8371 11.397 48.6133 11.1732 48.3371 11.1732V12.1732ZM36.32 22.9596L33.0148 31.9844L33.9538 32.3283L37.259 23.3035L36.32 22.9596ZM34.707 33.4077L35.8822 32.7409L35.3888 31.8711L34.2135 32.5379L34.707 33.4077ZM36.1383 32.8242L36.5621 33.806L37.4802 33.4097L37.0564 32.4279L36.1383 32.8242ZM42.2278 23.3035L45.533 32.3283L46.472 31.9844L43.1669 22.9596L42.2278 23.3035ZM45.2733 32.5379L44.0981 31.8711L43.6046 32.7409L44.7799 33.4077L45.2733 32.5379ZM42.4304 32.4279L42.0066 33.4097L42.9248 33.806L43.3485 32.8242L42.4304 32.4279ZM41.6681 33.3892L40.2239 28.3705L39.2629 28.647L40.7071 33.6657L41.6681 33.3892ZM38.7798 33.6657L40.2239 28.647L39.2629 28.3705L37.8188 33.3892L38.7798 33.6657ZM40.2434 28.5087V26.0645H39.2434V28.5087H40.2434ZM42.0066 33.4097C41.9738 33.4858 41.91 33.5216 41.8294 33.5165C41.749 33.5114 41.6908 33.4681 41.6681 33.3892L40.7071 33.6657C41.013 34.7289 42.4874 34.8192 42.9248 33.806L42.0066 33.4097ZM45.533 32.3283C45.5851 32.4706 45.4284 32.6259 45.2733 32.5379L44.7799 33.4077C45.7238 33.9433 46.8524 33.0232 46.472 31.9844L45.533 32.3283ZM36.5621 33.806C36.9994 34.8192 38.4738 34.7289 38.7798 33.6657L37.8188 33.3892C37.7961 33.4681 37.7379 33.5114 37.6574 33.5165C37.5768 33.5216 37.513 33.4858 37.4802 33.4097L36.5621 33.806ZM35.8822 32.7409C35.978 32.6865 36.0972 32.7291 36.1383 32.8242L37.0564 32.4279C36.7776 31.782 35.9981 31.5254 35.3888 31.8711L35.8822 32.7409ZM44.0981 31.8711C43.4888 31.5254 42.7092 31.782 42.4304 32.4279L43.3485 32.8242C43.3896 32.7291 43.5088 32.6865 43.6046 32.7409L44.0981 31.8711ZM33.0148 31.9844C32.6344 33.0232 33.763 33.9433 34.707 33.4077L34.2135 32.5379C34.0584 32.6259 33.9017 32.4706 33.9538 32.3283L33.0148 31.9844ZM30.5768 10.4544H48.3371V9.45443H30.5768V10.4544ZM30.5768 39.6732H35.733V38.6732H30.5768V39.6732ZM43.1809 39.6732H48.3371V38.6732H43.1809V39.6732ZM30.5768 12.1732H48.3371V11.1732H30.5768V12.1732ZM27.1393 7.58984H51.7746V6.58984H27.1393V7.58984ZM52.4204 8.23568V40.319H53.4204V8.23568H52.4204ZM51.7746 40.9648H27.1393V41.9648H51.7746V40.9648ZM26.4935 40.319V8.23568H25.4935V40.319H26.4935ZM27.1393 40.9648C26.7826 40.9648 26.4935 40.6757 26.4935 40.319H25.4935C25.4935 41.228 26.2303 41.9648 27.1393 41.9648V40.9648ZM52.4204 40.319C52.4204 40.6757 52.1313 40.9648 51.7746 40.9648V41.9648C52.6836 41.9648 53.4204 41.228 53.4204 40.319H52.4204ZM51.7746 7.58984C52.1313 7.58984 52.4204 7.87899 52.4204 8.23568H53.4204C53.4204 7.32671 52.6836 6.58984 51.7746 6.58984V7.58984ZM27.1393 6.58984C26.2303 6.58984 25.4935 7.32671 25.4935 8.23568H26.4935C26.4935 7.87899 26.7826 7.58984 27.1393 7.58984V6.58984ZM45.8319 47.194V50.3451H46.8319V47.194H45.8319ZM44.6861 47.194V50.3451H45.6861V47.194H44.6861ZM23.4883 47.194V50.3451H24.4883V47.194H23.4883ZM55.9985 54.3555V51.2044H54.9985V54.3555H55.9985ZM25.7799 51.2044V54.3555H26.7799V51.2044H25.7799ZM30.5768 49.5586H27.4258V50.5586H30.5768V49.5586ZM27.4258 56.0013H30.5768V55.0013H27.4258V56.0013ZM30.0768 50.0586V55.5013H31.0768V50.0586H30.0768ZM52.0611 49.5586H32.0091V50.5586H52.0611V49.5586ZM32.0091 49.5586H30.5768V50.5586H32.0091V49.5586ZM30.5768 56.0013H32.0091V55.0013H30.5768V56.0013ZM32.0091 56.0013H52.0611V55.0013H32.0091V56.0013ZM52.0611 56.0013H54.3527V55.0013H52.0611V56.0013ZM31.5091 50.0586V55.5013H32.5091V50.0586H31.5091ZM51.5611 50.0586V55.5013H52.5611V50.0586H51.5611ZM25.7799 54.3555C25.7799 55.2644 26.5168 56.0013 27.4258 56.0013V55.0013C27.0691 55.0013 26.7799 54.7122 26.7799 54.3555H25.7799ZM26.7799 51.2044C26.7799 50.8477 27.0691 50.5586 27.4258 50.5586V49.5586C26.5168 49.5586 25.7799 50.2955 25.7799 51.2044H26.7799ZM55.9985 51.2044C55.9985 50.2955 55.2617 49.5586 54.3527 49.5586V50.5586C54.7094 50.5586 54.9985 50.8477 54.9985 51.2044H55.9985ZM54.9985 54.3555C54.9985 54.7122 54.7094 55.0013 54.3527 55.0013V56.0013C55.2617 56.0013 55.9985 55.2644 55.9985 54.3555H54.9985ZM54.3527 49.5586H52.0611V50.5586H54.3527V49.5586Z" fill="#86A4C1"/>
<path fill-rule="evenodd" clip-rule="evenodd" d="M34.4522 22.184C34.8679 22.4334 35.011 22.9675 34.7757 23.3914C34.4462 23.9849 34.8681 24.7155 35.5468 24.7269C36.0316 24.7351 36.4226 25.1261 36.4308 25.6108C36.4422 26.2895 37.1728 26.7113 37.7662 26.3818C38.1901 26.1465 38.7243 26.2896 38.9738 26.7054C39.323 27.2874 40.1666 27.2875 40.5158 26.7054C40.7652 26.2897 41.2994 26.1466 41.7233 26.3819C42.3168 26.7114 43.0475 26.2895 43.0589 25.6108C43.0671 25.126 43.4581 24.735 43.9428 24.7268C44.6215 24.7154 45.0433 23.9848 44.7139 23.3913C44.4786 22.9675 44.6217 22.4333 45.0374 22.1839C45.6194 21.8347 45.6194 20.9911 45.0373 20.6419C44.6216 20.3924 44.4785 19.8582 44.7138 19.4343C45.0432 18.8408 44.6215 18.1102 43.9428 18.0988C43.458 18.0906 43.067 17.6996 43.0589 17.2148C43.0474 16.5361 42.3168 16.1142 41.7233 16.4437C41.2994 16.679 40.7653 16.5359 40.5158 16.1201C40.1666 15.538 39.3229 15.5381 38.9737 16.1202C38.7243 16.5359 38.1893 16.6787 37.7654 16.4433C37.173 16.1144 36.4423 16.5347 36.4309 17.2123C36.4228 17.6953 36.0318 18.0853 35.5488 18.0947C34.8698 18.1079 34.4459 18.84 34.7755 19.4337C35.0108 19.8576 34.868 20.3924 34.4522 20.6418C33.8701 20.9911 33.8701 21.8347 34.4522 22.184ZM39.7448 24.8503C41.6432 24.8503 43.1822 23.3112 43.1822 21.4128C43.1822 19.5143 41.6432 17.9753 39.7448 17.9753C37.8463 17.9753 36.3073 19.5143 36.3073 21.4128C36.3073 23.3112 37.8463 24.8503 39.7448 24.8503Z" fill="#EAF5FF"/>
<path d="M42.6836 21.4102C42.6836 23.0325 41.3684 24.3477 39.7461 24.3477C38.1238 24.3477 36.8086 23.0325 36.8086 21.4102C36.8086 19.7878 38.1238 18.4727 39.7461 18.4727C41.3684 18.4727 42.6836 19.7878 42.6836 21.4102Z" stroke="#86A4C1" stroke-linecap="round" stroke-linejoin="round"/>
<path fill-rule="evenodd" clip-rule="evenodd" d="M5.65625 21.125V36.1125C5.65625 39.1178 7.6083 41.7748 10.4762 42.6732L11.7759 42.9765C12.4612 43.1365 13.1741 43.1365 13.8594 42.9765L15.1591 42.6732C18.027 41.7748 19.9791 39.1178 19.9791 36.1125V21.125H5.65625ZM12.8177 34.875C14.2415 34.875 15.3958 33.7207 15.3958 32.2969C15.3958 30.873 14.2415 29.7187 12.8177 29.7187C11.3938 29.7187 10.2396 30.873 10.2396 32.2969C10.2396 33.7207 11.3938 34.875 12.8177 34.875Z" fill="#FFD02C" stroke="#EAF5FF" stroke-linecap="round" stroke-linejoin="round"/>
<path d="M5.65625 22.2695H19.9791" stroke="#86A4C1" stroke-linecap="round" stroke-linejoin="round"/>
</svg>
