<svg width="200" height="41" viewBox="0 0 200 41" fill="none" xmlns="http://www.w3.org/2000/svg">
<g clip-path="url(#clip0)">
<path d="M193.137 7.87927L186.33 15.4859V7.87927H181.389V27.0732H186.33V18.9757L193.631 27.0732H200L191.024 17.0127L199.341 7.87927H193.137Z" fill="#EF3124"/>
<path d="M172.661 15.0497H165.853V7.87927H160.912V27.0732H165.853V19.4938H172.661V27.0732H177.602V7.87927H172.661V15.0497Z" fill="#EF3124"/>
<path d="M29.3167 18.2669C29.2069 21.8385 28.7403 22.5473 26.709 22.5473V27.0459H27.4501C32.5009 27.0459 33.7087 24.4558 33.9009 18.7031L34.093 12.3233H38.8144V27.0459H43.7554V7.87927H29.6187L29.3167 18.2669Z" fill="#EF3124"/>
<path d="M56.0798 13.7138H52.5113V7.87927H47.5703V27.0459H56.1347C61.5149 27.0459 63.4364 23.5834 63.4364 20.3117C63.4364 16.0858 60.7737 13.7138 56.0798 13.7138ZM55.6955 22.8472H52.5113V17.967H55.6955C57.3974 17.967 58.4405 18.7031 58.4405 20.3117C58.4405 22.0566 57.4523 22.8472 55.6955 22.8472Z" fill="#EF3124"/>
<path d="M79.5225 7.44306V0.327148H74.5815V7.44306C68.9269 7.90655 65.1113 11.9144 65.1113 17.449C65.1113 23.0381 68.9269 27.0187 74.5815 27.5094V34.7344H79.5225V27.5094C85.1772 27.0732 88.9927 23.0381 88.9927 17.449C88.9927 11.8598 85.1772 7.87929 79.5225 7.44306ZM74.5815 22.8745C71.8366 22.4928 70.1347 20.448 70.1347 17.449C70.1347 14.4499 71.8366 12.4051 74.5815 12.0234V22.8745ZM79.5225 22.8745V12.0507C82.2675 12.4051 83.9969 14.4499 83.9969 17.449C83.9969 20.448 82.2675 22.4928 79.5225 22.8745Z" fill="#EF3124"/>
<path d="M107.522 21.1568V14.7225C107.522 10.0331 104.503 7.06128 99.4245 7.06128C94.1816 7.06128 91.4091 10.1966 91.1621 13.4683H96.1579C96.3226 12.7595 97.0913 11.5326 99.4245 11.5326C101.346 11.5326 102.581 12.405 102.581 14.7225H97.6677C93.2757 14.7225 90.668 17.0127 90.668 20.8296C90.668 24.8102 93.5228 27.5366 97.6403 27.5366C100.66 27.5366 102.334 26.1189 103.048 25.0556C103.707 26.337 105.134 27.0731 107.028 27.0731H108.73V22.6291C107.852 22.6291 107.522 22.2201 107.522 21.1568ZM102.581 19.9026C102.581 22.111 101.017 23.3652 98.9578 23.3652C97.1736 23.3652 95.7737 22.7108 95.7737 20.8024C95.7737 18.9211 97.3108 18.6212 98.6559 18.6212H102.609V19.9026H102.581Z" fill="#EF3124"/>
<path d="M128.659 10.6057H123.141V5.18015H135.933V0.327148H117.953V27.0732H128.659C134.588 27.0732 137.992 24.1559 137.992 18.7576C137.992 13.6865 134.615 10.6057 128.659 10.6057ZM128.439 22.2202H123.169V15.2678H128.439C131.184 15.2678 132.721 16.522 132.721 18.7304C132.721 21.0206 131.184 22.2202 128.439 22.2202Z" fill="#EF3124"/>
<path d="M156.905 21.1568V14.7225C156.905 10.0331 153.886 7.06128 148.807 7.06128C143.564 7.06128 140.792 10.1966 140.545 13.4683H145.541C145.705 12.7595 146.474 11.5326 148.807 11.5326C150.729 11.5326 151.964 12.405 151.964 14.7225H147.05C142.659 14.7225 140.051 17.0127 140.051 20.8296C140.051 24.8102 142.906 27.5366 147.023 27.5366C150.043 27.5366 151.717 26.1189 152.431 25.0556C153.089 26.337 154.517 27.0731 156.411 27.0731H158.113V22.6291C157.234 22.6291 156.905 22.2201 156.905 21.1568ZM151.964 19.9026C151.964 22.111 150.399 23.3652 148.341 23.3652C146.556 23.3652 145.156 22.7108 145.156 20.8024C145.156 18.9211 146.694 18.6212 148.039 18.6212H151.991V19.9026H151.964Z" fill="#EF3124"/>
<path d="M26.4068 35.2251H0V40.6779H26.4068V35.2251Z" fill="#EF3124"/>
<path d="M18.007 3.98055C17.2384 1.77216 16.3874 0 13.3954 0C10.4308 0 9.52495 1.7449 8.7289 3.98055L0.548828 27.0732H5.95646L7.8505 21.5931H18.2815L20.0383 27.0732H25.8027L18.007 3.98055ZM9.4426 16.931L13.1483 5.99809H13.2856L16.7717 16.931H9.4426Z" fill="#EF3124"/>
</g>
<defs>
<clipPath id="clip0">
<rect width="200" height="40.678" fill="white"/>
</clipPath>
</defs>
</svg>
