<svg width="168" height="47" viewBox="0 0 168 47" fill="none" xmlns="http://www.w3.org/2000/svg">
<g clip-path="url(#clip0)">
<path d="M119.234 17.4359H112.969V40.1423H119.234V17.4359Z" fill="black"/>
<path d="M104.094 17.4359L97.962 33.9555L91.8306 17.4359H85.5684L94.001 40.1423H95.6665H100.254H101.923L110.354 17.4359H104.094Z" fill="black"/>
<path d="M141.346 22.4388V17.436H133.846V11.173H127.591V17.436H122.637V22.4388H127.591V32.2069C127.591 37.2474 130.14 40.6077 136.639 40.6077C139.153 40.6077 141.354 39.7013 141.354 39.7013L140.597 34.7957C139.7 35.0327 138.776 35.1542 137.848 35.1571C135.99 35.1571 133.854 34.369 133.854 31.8222V22.4388H141.346Z" fill="black"/>
<path d="M80.9073 40.1423H87.5772L75.226 6.88306H70.3936L58.0469 40.1423H64.7146L67.0682 33.7964H78.5459L80.9073 40.1423ZM68.9281 28.7847L72.8132 18.3313L76.6938 28.7847H68.9281Z" fill="black"/>
<path d="M155.707 16.8546C148.923 16.8546 143.42 22.1858 143.42 28.7505C143.42 35.3153 148.926 40.6475 155.707 40.6475C162.489 40.6475 167.995 35.3197 167.995 28.7505C167.995 22.1814 162.484 16.8546 155.707 16.8546ZM155.707 34.9494C152.22 34.9494 149.389 32.2114 149.389 28.8356C149.389 25.4599 152.22 22.7175 155.707 22.7175C159.195 22.7175 162.026 25.4565 162.026 28.8356C162.026 32.2147 159.2 34.9494 155.707 34.9494Z" fill="black"/>
<path d="M120.143 10.7851C120.143 11.5756 119.907 12.3484 119.463 13.0059C119.02 13.6633 118.389 14.1758 117.651 14.4786C116.913 14.7813 116.101 14.8606 115.317 14.7065C114.534 14.5524 113.814 14.1717 113.249 13.6128C112.684 13.0538 112.3 12.3416 112.144 11.5663C111.988 10.791 112.068 9.98733 112.374 9.25709C112.68 8.52684 113.198 7.90279 113.862 7.46389C114.527 7.02498 115.308 6.79095 116.107 6.79138C117.177 6.79168 118.203 7.21253 118.96 7.96143C119.717 8.71032 120.142 9.72596 120.143 10.7851Z" fill="black"/>
<path d="M21.0991 10.4379C21.0996 12.503 20.4811 14.5218 19.322 16.239C18.1629 17.9562 16.5151 19.2947 14.5872 20.0852C12.6592 20.8756 10.5377 21.0826 8.49084 20.6798C6.44402 20.277 4.56389 19.2827 3.08824 17.8224C1.61258 16.3622 0.607692 14.5018 0.200668 12.4764C-0.206355 10.451 0.00276883 8.35163 0.801592 6.44385C1.60041 4.53608 2.95305 2.90557 4.68842 1.75856C6.42379 0.611551 8.46394 -0.000436999 10.5508 2.34122e-07C13.3482 0.00058633 16.0309 1.10048 18.009 3.05785C19.987 5.01521 21.0986 7.6698 21.0991 10.4379Z" fill="#00AAFF"/>
<path d="M47.4993 34.3005C47.4987 36.8117 46.7456 39.2663 45.3353 41.354C43.925 43.4417 41.9209 45.0687 39.5762 46.0295C37.2316 46.9902 34.6517 47.2415 32.1627 46.7515C29.6738 46.2615 27.3875 45.0523 25.593 43.2767C23.7985 41.5011 22.5763 39.2388 22.0809 36.776C21.5855 34.3131 21.8392 31.7602 22.8099 29.44C23.7805 27.1198 25.4246 25.1364 27.5343 23.7407C29.644 22.345 32.1245 21.5996 34.6622 21.5988C36.3479 21.5986 38.0172 21.927 39.5747 22.5653C41.1321 23.2036 42.5473 24.1391 43.7394 25.3186C44.9314 26.4981 45.877 27.8984 46.5221 29.4395C47.1673 30.9806 47.4993 32.6324 47.4993 34.3005Z" fill="#97CF26"/>
<path d="M42.9249 10.4379C42.9263 12.056 42.4426 13.6381 41.5351 14.9841C40.6276 16.3301 39.3371 17.3796 37.8267 17.9997C36.3164 18.6198 34.6541 18.7828 33.0502 18.4679C31.4463 18.153 29.9728 17.3745 28.8161 16.2308C27.6593 15.0871 26.8714 13.6297 26.5519 12.0428C26.2324 10.4559 26.3957 8.81091 27.0212 7.31588C27.6466 5.82085 28.7061 4.54297 30.0656 3.64388C31.4251 2.74479 33.0236 2.26489 34.6588 2.26489C36.8499 2.26489 38.9514 3.12577 40.5015 4.65832C42.0515 6.19087 42.9232 8.2697 42.9249 10.4379Z" fill="#FF6163"/>
<path d="M16.5328 34.3005C16.5339 35.4706 16.1843 36.6148 15.5281 37.5882C14.8719 38.5616 13.9387 39.3206 12.8465 39.7691C11.7543 40.2176 10.5522 40.3354 9.39236 40.1078C8.23247 39.8801 7.16689 39.3171 6.33043 38.49C5.49397 37.6629 4.92422 36.6089 4.69325 35.4613C4.46229 34.3137 4.58049 33.1241 5.03291 32.043C5.48533 30.962 6.25163 30.0379 7.23486 29.3879C8.2181 28.7379 9.37409 28.391 10.5566 28.3912C11.3411 28.3909 12.118 28.5436 12.8429 28.8404C13.5678 29.1372 14.2265 29.5724 14.7815 30.1211C15.3364 30.6698 15.7767 31.3213 16.0772 32.0384C16.3777 32.7555 16.5325 33.5242 16.5328 34.3005Z" fill="#A169F7"/>
</g>
<defs>
<clipPath id="clip0">
<path d="M0 0H168V47H0V0Z" fill="white"/>
</clipPath>
</defs>
</svg>
