<svg width="89" height="89" viewBox="0 0 89 89" fill="none" xmlns="http://www.w3.org/2000/svg">
<path d="M12.5156 86.2188H1.39062C0.55625 86.2188 0 86.775 0 87.6094C0 88.4438 0.55625 89 1.39062 89H12.5156C13.35 89 13.9062 88.4438 13.9062 87.6094C13.9062 86.775 13.35 86.2188 12.5156 86.2188Z" fill="white"/>
<path d="M20.8594 86.2188H18.0781C17.2437 86.2188 16.6875 86.775 16.6875 87.6094C16.6875 88.4438 17.2437 89 18.0781 89H20.8594C21.6937 89 22.25 88.4438 22.25 87.6094C22.25 86.775 21.6937 86.2188 20.8594 86.2188Z" fill="white"/>
<path d="M87.6094 16.6875C86.775 16.6875 86.2188 17.2437 86.2188 18.0781V34.7656C86.2188 35.6 86.775 36.1562 87.6094 36.1562C88.4438 36.1562 89 35.6 89 34.7656V18.0781C89 17.2437 88.4438 16.6875 87.6094 16.6875Z" fill="white"/>
<path d="M87.6094 38.9375C86.775 38.9375 86.2188 39.4937 86.2188 40.3281V43.1094C86.2188 43.9437 86.775 44.5 87.6094 44.5C88.4438 44.5 89 43.9437 89 43.1094V40.3281C89 39.4937 88.4438 38.9375 87.6094 38.9375Z" fill="white"/>
<path d="M75.0938 83.4375H73.7031V82.0469C73.7031 81.2125 73.1469 80.6562 72.3125 80.6562C71.4781 80.6562 70.9219 81.2125 70.9219 82.0469V83.4375H69.5312C68.6969 83.4375 68.1406 83.9937 68.1406 84.8281C68.1406 85.6625 68.6969 86.2188 69.5312 86.2188H70.9219V87.6094C70.9219 88.4437 71.4781 89 72.3125 89C73.1469 89 73.7031 88.4437 73.7031 87.6094V86.2188H75.0938C75.9281 86.2188 76.4844 85.6625 76.4844 84.8281C76.4844 83.9937 75.7891 83.4375 75.0938 83.4375Z" fill="#361984"/>
<path d="M13.9062 5.5625H15.2969V6.95312C15.2969 7.7875 15.8531 8.34375 16.6875 8.34375C17.5219 8.34375 18.0781 7.7875 18.0781 6.95312V5.5625H19.4688C20.3031 5.5625 20.8594 5.00625 20.8594 4.17188C20.8594 3.3375 20.3031 2.78125 19.4688 2.78125H18.0781V1.39062C18.0781 0.55625 17.5219 0 16.6875 0C15.8531 0 15.2969 0.55625 15.2969 1.39062V2.78125H13.9062C13.0719 2.78125 12.5156 3.3375 12.5156 4.17188C12.5156 5.00625 13.0719 5.5625 13.9062 5.5625Z" fill="#361984"/>
<path d="M84.8281 9.73438H79.8219L84.4109 5.14531C84.9672 4.58906 84.9672 3.75469 84.4109 3.19844C83.8547 2.64219 83.0203 2.64219 82.4641 3.19844L77.875 7.7875V2.78125C77.875 1.94687 77.3187 1.39062 76.4844 1.39062C75.65 1.39062 75.0938 1.94687 75.0938 2.78125V10.5688L69.2531 16.4094C62.5781 10.5688 53.9562 7.09219 44.5 7.09219C23.7797 7.09219 6.95312 23.9187 6.95312 44.6391C6.95312 65.3594 23.7797 82.1859 44.5 82.1859C65.2203 82.1859 82.0469 65.3594 82.0469 44.6391C82.0469 35.4609 78.7094 27.1172 73.2859 20.5813L45.4734 48.3937C45.1953 48.6719 44.7781 48.8109 44.5 48.8109C44.2219 48.8109 43.8047 48.6719 43.5266 48.3937C42.9703 47.8375 42.9703 47.0031 43.5266 46.4469L71.4781 18.4953L71.3391 18.3562L77.0406 12.6547H84.8281C85.6625 12.6547 86.2188 12.0984 86.2188 11.2641C86.2188 10.4297 85.6625 9.73438 84.8281 9.73438ZM66.8891 27.9516C67.5844 27.5344 68.4188 27.6734 68.8359 28.3687C72.0344 33.0969 73.7031 38.6594 73.7031 44.5C73.7031 60.6313 60.6313 73.7031 44.5 73.7031C28.3687 73.7031 15.2969 60.6313 15.2969 44.5C15.2969 28.3687 28.3687 15.2969 44.5 15.2969C50.2016 15.2969 55.7641 16.9656 60.6312 20.1641C61.3266 20.5812 61.4656 21.4156 61.0484 22.1109C60.6313 22.8062 59.7969 22.9453 59.1016 22.5281C54.7906 19.6078 49.7844 18.0781 44.5 18.0781C29.8984 18.0781 18.0781 29.8984 18.0781 44.5C18.0781 59.1016 29.8984 70.9219 44.5 70.9219C59.1016 70.9219 70.9219 59.1016 70.9219 44.5C70.9219 39.3547 69.3922 34.2094 66.4719 29.8984C66.0547 29.3422 66.3328 28.5078 66.8891 27.9516ZM59.3797 36.8516C58.9625 36.1562 59.2406 35.3219 59.9359 35.0438C60.6312 34.6266 61.4656 34.9047 61.7438 35.6C63.1344 38.3813 63.8297 41.3016 63.8297 44.5C63.8297 55.2078 55.0688 63.9688 44.3609 63.9688C33.6531 63.9688 24.8922 55.2078 24.8922 44.5C24.8922 33.7922 33.6531 25.0312 44.3609 25.0312C47.5594 25.0312 50.4797 25.7266 53.2609 27.1172C53.9562 27.5344 54.2344 28.3687 53.8172 28.925C53.4 29.6203 52.5656 29.8984 52.0094 29.4813C49.6453 28.2297 47.1422 27.6734 44.3609 27.6734C35.1828 27.6734 27.6734 35.1828 27.6734 44.3609C27.6734 53.5391 35.1828 61.0484 44.3609 61.0484C53.5391 61.0484 61.0484 53.5391 61.0484 44.3609C61.1875 41.8578 60.6313 39.2156 59.3797 36.8516ZM44.5 51.4531C48.3937 51.4531 51.4531 48.3937 51.4531 44.5C51.4531 43.6656 52.0094 43.1094 52.8438 43.1094C53.6781 43.1094 54.2344 43.6656 54.2344 44.5C54.2344 49.9234 49.9234 54.2344 44.5 54.2344C39.0766 54.2344 34.7656 49.9234 34.7656 44.5C34.7656 39.0766 39.0766 34.7656 44.5 34.7656C45.3344 34.7656 45.8906 35.3219 45.8906 36.1562C45.8906 36.9906 45.3344 37.5469 44.5 37.5469C40.6063 37.5469 37.5469 40.6063 37.5469 44.5C37.5469 48.3937 40.6063 51.4531 44.5 51.4531Z" fill="#FF3531"/>
</svg>
