<svg width="206" height="43" viewBox="0 0 206 43" fill="none" xmlns="http://www.w3.org/2000/svg">
<path d="M92.8464 21.4015C92.8464 29.0825 88.1927 32.726 82.3674 32.726H78.8202V28.0977H82.107C85.6217 28.0977 87.9649 26.1939 87.9649 21.3687C87.9649 16.6092 85.7519 14.2458 82.0094 14.2458C78.3971 14.2458 75.8262 16.4779 75.8262 21.2702V40.571H70.9446V10.2412H75.7936V12.8672H76.477C78.1042 10.668 80.4799 9.68322 82.9857 9.68322C88.3554 9.68322 92.8464 13.6222 92.8464 21.4015ZM60.9538 19.3993L57.732 19.071C55.1936 18.8412 53.8593 18.1519 53.8593 16.642C53.8593 14.8695 55.5841 13.8519 58.0249 13.8519C60.5633 13.8519 62.1905 15.0664 62.3206 16.7733H66.9743C66.7791 12.3748 63.4271 9.68322 58.0574 9.68322C52.6552 9.68322 49.0104 12.5718 49.0104 16.8061C49.0104 20.3512 51.2233 22.6489 56.2675 23.1412L59.5544 23.4695C61.5396 23.6664 62.8739 24.0603 62.8739 25.997C62.8739 27.7367 61.6372 28.984 58.3503 28.984C55.3238 28.984 53.8268 27.6054 53.3061 25.7344H48.2619C48.75 29.9687 52.2972 33.2512 58.3503 33.2512C64.0454 33.2512 67.7228 30.2313 67.7228 25.7344C67.6903 21.8283 65.1194 19.7931 60.9538 19.3993ZM111.624 25.7672C110.875 27.5397 109.053 28.8527 106.45 28.8527C102.902 28.8527 100.266 26.5222 100.266 21.5C100.266 16.7077 102.707 14.0489 106.515 14.0489C109.899 14.0489 111.819 16.084 112.014 19.1695H103.293V22.7145H116.798V20.384C116.798 13.9176 112.535 9.71605 106.482 9.71605C100.852 9.71605 95.4499 13.5893 95.4499 21.5C95.4499 29.4107 100.852 33.284 106.482 33.284C111.624 33.284 115.334 30.0672 116.473 25.7672H111.624ZM35.1143 9.68322C29.8097 9.68322 25.8394 12.4733 25.3513 16.7733H30.5582C30.9162 15.1977 32.3481 14.016 35.0818 14.016C38.5965 14.016 39.7355 15.887 39.7355 18.1519V25.8328C37.7503 28.1306 35.4397 29.1809 33.1292 29.1809C30.7209 29.1809 29.0612 27.9993 29.0612 25.9313C29.0612 23.929 30.363 22.6817 32.8363 22.6817H36.7089V19.1695H32.6736C27.1412 19.1695 24.017 21.9596 24.017 26.2596C24.017 30.2641 27.011 33.284 31.9576 33.284C34.7238 33.284 37.1645 32.168 38.987 30.8222H39.6704V32.726H44.5194V17.7252C44.6495 12.1779 40.907 9.68322 35.1143 9.68322ZM2.21289 32.726H7.06186V1.96948H2.21289V32.726ZM22.5851 10.2412H16.6622L9.60025 19.629V22.5504L16.8574 32.726H22.878L14.3516 21.0733L22.5851 10.2412ZM198.027 10.2412L194.056 19.1367C193.08 21.2702 192.169 23.371 191.876 24.7825H191.193C190.9 23.371 189.956 21.3359 188.98 19.2023L185.009 10.2412H179.64L188.98 30.4283L184.359 40.6038H189.533L203.396 10.2412H198.027ZM178.566 10.2412H172.643L165.581 19.5962V22.5176L172.838 32.6931H178.859L170.365 21.0405L178.566 10.2412ZM148.17 19.3993L144.948 19.071C142.41 18.8412 141.076 18.1519 141.076 16.642C141.076 14.8695 142.801 13.8519 145.241 13.8519C147.78 13.8519 149.407 15.0664 149.537 16.7733H154.191C153.995 12.3748 150.644 9.68322 145.274 9.68322C139.872 9.68322 136.227 12.5718 136.227 16.8061C136.227 20.3512 138.44 22.6489 143.484 23.1412L146.771 23.4695C148.756 23.6664 150.09 24.0603 150.09 25.997C150.09 27.7367 148.854 28.984 145.567 28.984C142.54 28.984 141.043 27.6054 140.523 25.7344H135.478C135.966 29.9687 139.514 33.2512 145.567 33.2512C151.262 33.2512 154.939 30.2313 154.939 25.7344C154.939 21.8283 152.336 19.7931 148.17 19.3993ZM158.194 32.726H163.043V1.96948H158.194V32.726ZM126.171 12.8672H125.487V10.2412H120.638V32.726H125.487V20.9748C125.487 16.9702 127.31 14.6397 130.955 14.6397H134.014V9.68322H132.224C128.872 9.68322 127.44 10.9634 126.171 12.8672Z" fill="#009982"/>
</svg>
