<svg width="210" height="53" viewBox="0 0 210 53" fill="none" xmlns="http://www.w3.org/2000/svg">
<path d="M42.6562 23.2908C42.6562 28.6318 51.0119 27.577 51.0119 30.3979C51.0119 31.475 49.9208 31.8409 48.1542 31.8409C46.4085 31.8409 44.4886 31.3878 42.7437 30.2466V33.3266C44.3146 34.1883 46.2777 34.6832 48.3941 34.6832C51.6008 34.6832 54.3493 33.6275 54.3493 30.2466C54.3493 24.8851 45.9945 25.8536 45.9945 23.2481C45.9945 22.3223 46.8233 21.8701 48.4807 21.8487C50.1832 21.8265 51.9065 22.2795 53.1933 23.1839V20.1689C51.8839 19.4363 50.0516 19.0063 48.2408 19.0063C45.2308 19.0063 42.6562 20.3843 42.6562 23.2908ZM59.8343 34.3815V28.2224H62.2997L66.4668 34.3815H70.0873L64.8526 26.6503L69.8042 19.3073H66.1611L62.2997 25.2937H59.8343V19.3073H56.5627V34.3815H59.8343ZM71.6452 19.3073V34.3815H74.9177V19.3073H71.6452ZM78.1858 19.3073V34.3815H88.9402V31.475H81.4583V19.3064H78.1858V19.3073ZM90.8618 19.3073V34.3815H101.616V31.475H94.1334V19.3064H90.8618V19.3073Z" fill="#FF3531"/>
<path d="M103.461 19.3081V34.3823H110.027C112.689 34.3823 116.026 33.5856 116.026 30.1611C116.026 27.9437 114.608 26.8452 113.103 26.4144C114.455 25.9622 115.416 24.8859 115.416 23.1198C115.416 20.5357 113.387 19.3073 110.136 19.3073H103.461V19.3081ZM112.754 29.8175C112.754 31.4536 111.445 31.7554 109.983 31.7554H106.711V27.8787H110.157C111.467 27.8787 112.754 28.2232 112.754 29.8175ZM112.165 23.6797C112.165 24.8423 111.27 25.4022 110.027 25.4022H106.733V21.9572H109.853C111.292 21.9572 112.165 22.4958 112.165 23.6797ZM121.688 34.3823V29.1063H124.088L128.211 34.3823H131.985L127.426 28.6976C129.28 28.1164 130.763 26.8025 130.763 24.2183C130.763 20.4057 127.665 19.3081 124.699 19.3081H118.416V34.3823H121.688ZM121.688 22.1504H124.851C126.225 22.1504 127.426 22.7317 127.426 24.2824C127.426 25.8117 126.225 26.4144 124.851 26.4144H121.688V22.1504ZM135.629 34.3823L136.763 31.5614H143.745L144.857 34.3823H148.238L142.021 19.3081H138.487L132.248 34.3823H135.629ZM139.905 23.4857C140.036 23.1839 140.145 22.883 140.254 22.3017C140.363 22.883 140.472 23.1839 140.581 23.4857L142.719 28.8908H137.789L139.905 23.4857ZM153.217 34.3823V26.6084C153.217 25.9194 153.196 25.1655 153.152 24.5414L160.264 34.3823H163.34V19.3081H160.067V27.082C160.067 27.771 160.09 28.525 160.133 29.149L153.022 19.3081H149.946V34.3823H153.217ZM165.754 27.0179C165.754 32.2717 169.921 34.6841 174.001 34.6841C175.615 34.6841 177.12 34.3396 178.429 33.7147V30.5492C177.513 31.3673 176.073 31.7982 174.502 31.7982C171.841 31.7982 169.092 30.3338 169.114 27.0179C169.114 23.378 171.818 21.8709 174.502 21.8709C175.92 21.8709 177.338 22.3017 178.32 23.0549V19.9757C177.011 19.3295 175.484 19.0063 173.956 19.0063C169.877 19.0063 165.776 21.505 165.754 27.0179ZM191 19.3081V25.3809H184.15V19.3081H180.879V34.3823H184.15V28.3096H191V34.3823H194.273V19.3081H191Z" fill="#1C0E42"/>
<path fill-rule="evenodd" clip-rule="evenodd" d="M12.5451 38.5269C12.7216 38.6231 12.8981 38.7334 13.0613 38.8571L21.4019 33.9974V26.1076C19.3265 25.5293 17.808 23.6015 17.808 21.3158C17.808 18.5763 20.0045 16.3458 22.7038 16.3458C25.4024 16.3458 27.5996 18.5763 27.5996 21.3158C27.5996 23.6015 26.0805 25.5293 24.0056 26.1076V35.5527L14.3899 41.1844C14.4307 41.4729 14.4166 41.7762 14.3765 42.0519L16.9534 43.5803L31.5192 35.0437V17.9563L16.9534 9.42032L2.38642 17.9563V35.0437L7.43199 38.0172C6.90309 38.6096 6.49654 39.3251 6.29326 40.124L0 36.4343V16.5657L16.9534 6.625L33.9062 16.5657V36.4343L16.9528 46.375L13.1963 44.1445C12.6128 44.6311 11.8794 44.8987 11.1215 44.9017C9.29014 44.9017 7.82579 43.4014 7.82579 41.5563C7.82579 40.124 8.70708 38.8988 9.94139 38.4308V29.6601C7.78501 29.137 6.18429 27.1681 6.18429 24.8132C6.18429 22.0736 8.38146 19.8432 11.0808 19.8432C13.7794 19.8432 15.9766 22.0736 15.9766 24.8132C15.9782 25.8686 15.6468 26.8973 15.0301 27.7511C14.4135 28.6048 13.5433 29.2396 12.5451 29.564V38.5269ZM22.7044 18.9616C23.0114 18.9615 23.3153 19.0224 23.5988 19.1408C23.8823 19.2592 24.1398 19.4327 24.3565 19.6514C24.5732 19.8701 24.7448 20.1298 24.8615 20.4154C24.9782 20.701 25.0378 21.007 25.0367 21.3158C25.0367 22.6237 23.9929 23.6842 22.7044 23.6842C21.4159 23.6842 20.3715 22.6244 20.3715 21.3158C20.3704 21.007 20.43 20.701 20.5467 20.4154C20.6634 20.1298 20.835 19.8701 21.0517 19.6514C21.2684 19.4327 21.5259 19.2592 21.8094 19.1408C22.0929 19.0224 22.3968 18.9615 22.7038 18.9616H22.7044ZM11.0814 22.459C12.3699 22.459 13.4136 23.5194 13.4136 24.8132C13.4136 26.1211 12.3699 27.1815 11.0814 27.1815C9.79292 27.1815 8.7485 26.1211 8.7485 24.8132C8.7485 23.5194 9.79292 22.459 11.0808 22.459H11.0814ZM11.1222 39.9861C11.3262 39.987 11.528 40.0283 11.7162 40.1077C11.9043 40.187 12.075 40.303 12.2186 40.4488C12.3622 40.5946 12.4758 40.7675 12.5529 40.9575C12.63 41.1476 12.6692 41.351 12.6681 41.5563C12.6691 41.7615 12.6299 41.965 12.5527 42.155C12.4755 42.345 12.3618 42.5178 12.2182 42.6636C12.0745 42.8093 11.9037 42.9252 11.7156 43.0045C11.5274 43.0838 11.3255 43.125 11.1215 43.1258C10.9175 43.1249 10.7157 43.0836 10.5275 43.0042C10.3394 42.9249 10.1687 42.8089 10.0251 42.6631C9.88151 42.5173 9.76791 42.3444 9.69079 42.1544C9.61367 41.9644 9.57453 41.7609 9.57562 41.5556C9.57461 41.3504 9.61383 41.1469 9.69103 40.9569C9.76823 40.7669 9.8819 40.5941 10.0255 40.4483C10.1692 40.3026 10.34 40.1867 10.5281 40.1074C10.7163 40.0281 10.9182 39.9869 11.1222 39.9861Z" fill="#FF3531"/>
</svg>
