<svg width="209" height="91" viewBox="0 0 209 91" fill="none" xmlns="http://www.w3.org/2000/svg">
<path d="M142.145 24.3875H138.232V51.3475H142.145V24.3875Z" fill="#333333"/>
<path d="M148.764 46.4779C147.3 46.4779 146.121 47.6723 146.121 49.1555C146.121 50.6387 147.3 51.8331 148.764 51.8331C150.228 51.8331 151.406 50.6387 151.406 49.1555C151.406 47.6723 150.228 46.4779 148.764 46.4779Z" fill="#333333"/>
<path d="M159.05 41.9627C159.05 38.7469 160.954 35.9905 164.646 35.9905H166.978V32.2366H164.646C161.757 32.2366 160.436 33.1685 159.089 34.7173L159.063 34.7567V32.2366H155.189V51.3344H159.05C159.05 51.3212 159.05 43.2621 159.05 41.9627Z" fill="#333333"/>
<path d="M133.984 32.2366H130.072V51.3344H133.984V32.2366Z" fill="#333333"/>
<path d="M132.027 29.0733C133.491 29.0733 134.67 27.8788 134.67 26.3957C134.67 24.9125 133.478 23.718 132.027 23.718C130.564 23.718 129.385 24.9125 129.385 26.3957C129.385 27.8788 130.577 29.0733 132.027 29.0733Z" fill="#333333"/>
<path d="M121.988 34.166C120.485 32.6171 118.179 31.7509 115.886 31.7509C110.42 31.7509 105.977 36.2529 105.977 41.792C105.977 47.331 110.42 51.8331 115.886 51.8331C118.179 51.8331 120.602 50.8355 121.988 49.2605V51.3474H125.835V32.2365H121.988V34.166ZM116.016 47.8429C112.648 47.8429 110.083 45.2178 110.083 41.792C110.083 38.3662 112.648 35.7673 116.016 35.7673C119.384 35.7673 122.04 38.2087 122.04 41.792C122.04 45.3753 119.384 47.8429 116.016 47.8429Z" fill="#333333"/>
<path d="M177.807 51.8332C179.556 51.8332 181.784 50.875 183.183 49.2474C183.196 49.9693 183.183 50.6256 183.183 51.3344H187.031V42.9996V32.2366H183.17V42.724C183.17 45.441 181.124 47.9742 178.053 47.9742C175.372 47.9742 173.468 46.0054 173.468 43.1834V32.2497H169.607V43.5115C169.62 48.5517 172.302 51.8332 177.807 51.8332Z" fill="#333333"/>
<path d="M94.6812 31.7509C92.1163 31.7509 89.6032 32.9322 88.0746 34.796C86.6756 32.919 84.6418 31.7509 81.9085 31.7509C79.6804 31.7509 78.0871 32.7615 77.2321 33.5753V32.2365H73.3848V51.3343H77.2321V40.1644C77.2321 37.6705 79.24 35.6492 81.6883 35.6492C84.1366 35.6492 86.1445 37.6836 86.1445 40.1644V51.3343H89.9918V40.1644C89.9918 37.6705 91.9997 35.6492 94.448 35.6492C96.8963 35.6492 98.9042 37.6836 98.9042 40.1644V51.3343H102.752V40.1644C102.777 35.0454 99.5 31.7509 94.6812 31.7509Z" fill="#333333"/>
<path d="M145.487 60.1679L145.461 60.1941V58.7109H144.334H143.194H143V69.9202H143.194H145.461C145.461 69.9071 145.461 65.4312 145.461 64.67C145.461 62.7799 146.575 61.1654 148.739 61.1654H150.099V58.7109H148.739C147.055 58.7109 146.277 59.2622 145.487 60.1679Z" fill="#333333"/>
<path d="M171.951 64.8538C171.951 66.652 170.526 67.7283 169.14 67.7283C167.677 67.7283 166.64 66.652 166.64 65.1163V58.7241H164.166V65.3001C164.166 68.4108 165.928 70.209 168.985 70.209C169.982 70.209 171.161 69.6971 171.938 68.9227C171.938 69.1196 171.938 69.3165 171.938 69.5134V69.9334H174.4V58.7241H171.925L171.951 64.8538Z" fill="#333333"/>
<path d="M156.51 58.4353C153.311 58.4353 150.707 61.0736 150.707 64.3156C150.707 67.5576 153.311 70.1959 156.51 70.1959C159.71 70.1959 162.314 67.5576 162.314 64.3156C162.314 61.0736 159.723 58.4353 156.51 58.4353ZM156.51 67.702C154.671 67.702 153.168 66.1794 153.168 64.3156C153.168 62.4517 154.671 60.9292 156.51 60.9292C158.35 60.9292 159.853 62.4517 159.853 64.3156C159.853 66.1794 158.363 67.702 156.51 67.702Z" fill="#333333"/>
<path d="M182.704 58.4353C181.435 58.4353 180.204 58.8816 179.336 59.6429V58.7109H176.875V73.7792H179.336V68.9227C180.165 69.7102 181.448 70.209 182.704 70.209C185.904 70.209 188.508 67.5707 188.508 64.3287C188.508 61.0736 185.904 58.4353 182.704 58.4353ZM182.627 67.6495C180.696 67.6495 179.297 66.245 179.297 64.3156C179.297 62.3861 180.696 60.9948 182.627 60.9948C184.492 60.9948 185.904 62.4255 185.904 64.3156C185.904 66.2188 184.492 67.6495 182.627 67.6495Z" fill="#333333"/>
<path d="M138.091 59.6429C137.223 58.8816 135.993 58.4353 134.723 58.4353C131.524 58.4353 128.92 61.0736 128.92 64.3156C128.92 67.5576 131.524 70.1959 134.723 70.1959C135.98 70.1959 137.262 69.6971 138.091 68.9096V69.1327C138.052 71.4297 136.951 72.5979 134.801 72.5979H134.775C133.557 72.5979 132.482 72.1253 131.485 71.1409L131.394 71.049L129.606 72.7816L129.684 72.8735C130.604 73.9629 132.469 75.2099 134.71 75.2099C134.749 75.2099 134.788 75.2099 134.827 75.2099C136.925 75.1705 140.449 74.3436 140.553 69.2246V58.6978H138.091V59.6429ZM134.801 67.6495C132.936 67.6495 131.524 66.2188 131.524 64.3156C131.524 62.4255 132.936 60.9948 134.801 60.9948C136.731 60.9948 138.13 62.3861 138.13 64.3156C138.117 66.2451 136.731 67.6495 134.801 67.6495Z" fill="#333333"/>
<path d="M47.4765 41.4508C47.4765 44.9291 44.6914 47.7511 41.2586 47.7511C37.8258 47.7511 35.0406 44.9291 35.0406 41.4508C35.0406 37.9725 37.8258 35.1505 41.2586 35.1505C44.6914 35.1505 47.4765 37.9856 47.4765 41.4508ZM41.2586 20.5154C29.859 20.5154 20.584 29.9133 20.584 41.4639C20.584 53.0145 29.859 62.3993 41.2586 62.3993C45.4298 62.3993 49.4585 61.1392 52.9042 58.7504L52.969 58.711L50.1839 55.4296L50.1321 55.4558C47.4765 57.1753 44.4193 58.0941 41.2586 58.0941C32.2037 58.0941 24.8329 50.6256 24.8329 41.4508C24.8329 32.2759 32.2037 24.8075 41.2586 24.8075C50.3134 24.8075 57.6842 32.2759 57.6842 41.4508C57.6842 42.6452 57.5547 43.8396 57.2956 45.0341C56.7775 47.1998 55.2878 47.8561 54.1608 47.7642C53.0338 47.6723 51.7124 46.8585 51.6995 44.8634V41.4508C51.6995 35.6099 47.0101 30.8584 41.2456 30.8584C35.4811 30.8584 30.7917 35.6099 30.7917 41.4508C30.7917 47.2917 35.4811 52.0432 41.2456 52.0432C44.0437 52.0432 46.6733 50.9275 48.6553 48.9193C49.8082 50.7306 51.6865 51.8725 53.8239 52.0432C54.0053 52.0563 54.1996 52.0694 54.381 52.0694C55.8836 52.0694 57.3733 51.5575 58.5781 50.6387C59.8217 49.6805 60.7414 48.3023 61.2466 46.6485C61.3243 46.386 61.4798 45.7691 61.4798 45.7691V45.7428C61.7777 44.4172 61.9202 43.0915 61.9202 41.4508C61.9332 29.9133 52.6581 20.5154 41.2586 20.5154Z" fill="#FC2C38"/>
</svg>
