<svg width="248" height="74" viewBox="0 0 248 74" fill="none" xmlns="http://www.w3.org/2000/svg">
<path d="M39.7194 18.6362V37.7084C39.7194 38.5803 39.0593 39.2342 38.179 39.2342H35.8685C35.7585 39.2342 35.6484 39.3432 35.6484 39.4521V55.4728C36.1986 55.4728 36.7487 55.5817 37.4089 55.5817C47.7514 55.5817 56.1134 47.299 56.1134 37.0545C56.1134 27.5729 48.9617 19.7261 39.7194 18.6362ZM39.2793 47.19C37.959 47.19 36.9688 46.1002 36.9688 44.9013C36.9688 43.5935 38.069 42.6127 39.2793 42.6127C40.5996 42.6127 41.5899 43.7025 41.5899 44.9013C41.6999 46.1002 40.5996 47.19 39.2793 47.19ZM44.7806 47.19C43.4603 47.19 42.4701 46.1002 42.4701 44.9013C42.4701 43.5935 43.5704 42.6127 44.7806 42.6127C46.101 42.6127 47.0912 43.7025 47.0912 44.9013C47.0912 46.1002 46.101 47.19 44.7806 47.19ZM50.282 47.19C48.9617 47.19 47.9714 46.1002 47.9714 44.9013C47.9714 43.5935 49.0717 42.6127 50.282 42.6127C51.6023 42.6127 52.5925 43.7025 52.5925 44.9013C52.5925 46.1002 51.6023 47.19 50.282 47.19Z" fill="#00985F"/>
<path d="M37.4096 18.5272C27.0671 18.5272 18.7051 26.81 18.7051 37.0545C18.7051 45.9911 24.9766 53.402 33.4486 55.1458V38.4713C33.4486 37.7084 34.1088 37.0545 34.879 36.9455H35.6492H37.1896C37.2996 36.9455 37.4096 36.8365 37.4096 36.7275V18.5272ZM33.7787 33.785C32.4584 33.785 31.4682 32.6951 31.4682 31.4963C31.4682 30.1885 32.5684 29.2076 33.7787 29.2076C35.099 29.2076 36.0893 30.2975 36.0893 31.4963C36.0893 32.6951 35.099 33.785 33.7787 33.785Z" fill="#00985F"/>
<path d="M224.674 28.6627V35.6377H215.212V28.6627H210.48V47.19H215.212V39.6701H224.674V47.19H229.295V28.6627H224.674Z" fill="#00985F"/>
<path d="M146.776 30.7333C146.006 29.0986 144.466 28.2267 142.925 28.2267C141.385 28.2267 139.844 29.0986 139.074 30.7333L131.482 47.1899H136.434L138.084 43.2665H147.766L149.417 47.1899H154.368L146.776 30.7333ZM139.624 39.561L142.485 32.804C142.595 32.586 142.705 32.586 142.815 32.586C142.925 32.586 143.145 32.586 143.145 32.804L146.006 39.561H139.624Z" fill="#00985F"/>
<path d="M91.1024 25.2842C88.9018 25.2842 87.4715 26.483 86.4812 28.7717L80.4298 42.7216L74.3783 28.7717C73.3881 26.483 71.9577 25.2842 69.7572 25.2842C67.6667 25.2842 65.5762 26.701 65.5762 29.8615V47.0809H70.1973V30.4064L76.3588 44.2474C77.129 46.2091 78.5593 47.4079 80.4298 47.4079C82.4102 47.4079 83.7306 46.2091 84.5008 44.2474L90.6622 30.4064V47.1899H95.2834V29.9705C95.2834 26.81 93.1929 25.2842 91.1024 25.2842Z" fill="#00985F"/>
<path d="M103.536 43.2665C103.316 43.2665 103.096 43.0486 103.096 42.8306V39.5611H114.759V35.7466H103.096V32.9131C103.096 32.6951 103.316 32.4771 103.536 32.4771H115.089V28.5537H101.225C99.5749 28.5537 98.4746 29.8615 98.4746 31.2783V44.2474C98.4746 45.6642 99.6849 46.972 101.225 46.972H115.089V43.0486H103.536V43.2665Z" fill="#00985F"/>
<path d="M122.9 47.19V33.0221C122.9 32.8041 123.12 32.5861 123.341 32.5861H134.893V28.6627H121.03C119.38 28.6627 118.279 29.9705 118.279 31.3873V47.081H122.9V47.19Z" fill="#00985F"/>
<path d="M207.401 37.9263C207.401 31.4962 204.54 28.4447 197.498 28.4447H195.848C188.806 28.4447 185.945 31.4962 185.945 37.9263C185.945 44.2474 188.806 47.4079 195.848 47.4079H197.388C204.54 47.2989 207.401 44.2474 207.401 37.9263ZM197.388 43.4845H195.848C191.997 43.4845 190.456 41.7407 190.456 37.9263C190.456 34.2208 191.777 32.3681 195.848 32.3681H197.388C201.349 32.3681 202.779 34.2208 202.779 37.9263C202.779 41.7407 201.349 43.4845 197.388 43.4845Z" fill="#00985F"/>
<path d="M172.962 25.7201H163.719C156.788 25.7201 154.037 29.2076 154.037 35.2017C154.037 36.1825 154.147 37.0544 154.257 37.8173C155.027 42.0677 157.558 44.6833 164.05 44.6833H166.14V47.0809H170.761V44.6833H172.742C179.233 44.6833 181.764 42.0677 182.534 37.8173C182.644 37.0544 182.754 36.1825 182.754 35.2017C182.644 29.2076 179.783 25.7201 172.962 25.7201ZM165.92 40.8688H163.829C160.639 40.8688 159.538 39.67 158.878 37.8173C158.658 37.1634 158.658 36.1825 158.658 35.2017C158.658 31.2783 160.529 29.6435 163.169 29.6435H166.03V40.8688H165.92ZM177.803 37.9263C177.143 39.779 175.932 40.9778 172.852 40.9778H170.761V29.6435H173.622C176.262 29.6435 178.133 31.2783 178.133 35.2017C178.023 36.2915 178.023 37.1634 177.803 37.9263Z" fill="#00985F"/>
</svg>
