<svg width="201" height="51" viewBox="0 0 201 51" fill="none" xmlns="http://www.w3.org/2000/svg">
<path d="M15.0176 26.6477C22.1466 26.6477 27.9414 20.8529 27.9414 13.7239C27.9414 6.5948 22.1466 0.800049 15.0176 0.800049C7.8885 0.800049 2.09375 6.5948 2.09375 13.7239C2.09375 20.8529 7.8885 26.6477 15.0176 26.6477ZM15.0176 8.3866C17.9531 8.3866 20.3548 10.7884 20.3548 13.7239C20.3548 16.6594 17.9531 19.0611 15.0176 19.0611C12.0821 19.0611 9.6803 16.6594 9.6803 13.7239C9.6803 10.7884 12.0821 8.3866 15.0176 8.3866Z" fill="#DB8916"/>
<path d="M20.2408 37.2079C22.8713 36.598 25.4256 35.5686 27.7511 34.0818C29.5048 32.9762 30.0385 30.6126 28.9329 28.8589C27.8273 27.0671 25.4637 26.5334 23.71 27.6771C18.4109 30.9938 11.5868 30.9938 6.28762 27.6771C4.49582 26.5715 2.1703 27.1052 1.06472 28.8589C-0.0408599 30.6126 0.492868 32.9762 2.24654 34.0818C4.57207 35.5686 7.12633 36.598 9.75685 37.2079L2.51341 44.4514C1.02659 45.9382 1.02659 48.34 2.51341 49.8268C3.23775 50.5511 4.22896 50.9323 5.18204 50.9323C6.13513 50.9323 7.12633 50.5511 7.85068 49.8268L14.9416 42.7358L22.0707 49.8268C23.5575 51.3136 25.9593 51.3136 27.408 49.8268C28.8948 48.34 28.8948 45.9382 27.408 44.4514L20.2408 37.2079Z" fill="#DB8916"/>
<path d="M120.624 19.2898C118.947 19.2898 117.613 19.7854 116.926 20.0904C116.583 20.3191 116.011 20.5479 116.393 21.3866L116.621 21.7678C116.926 22.3015 117.346 22.4159 118.032 22.1872C118.604 21.9203 119.595 21.6153 120.396 21.6153C122.149 21.6153 123.407 22.4922 123.484 24.8558V25.237C122.874 24.5889 121.768 23.979 120.129 23.979C117.231 23.979 115.363 25.5802 115.363 28.0963C115.363 30.5743 117.193 32.2517 120.091 32.2517C121.654 32.2517 122.912 31.6418 123.674 30.6887C123.903 31.2605 124.132 31.9086 124.818 31.9086H124.894C125.542 31.9086 125.771 31.6418 125.771 30.9555V24.4746C125.771 20.7766 123.789 19.2898 120.624 19.2898ZM120.739 30.1168C119.214 30.1168 118.07 29.3162 118.07 28.0963C118.07 26.8382 119.214 26.0376 120.739 26.0376C122.264 26.0376 123.445 26.8382 123.445 28.0963C123.445 29.3162 122.264 30.1168 120.739 30.1168Z" fill="#777679"/>
<path d="M74.874 19.5948H74.1497C73.5016 19.5948 73.2728 19.8236 73.2728 20.4717V24.589H68.4693V20.4717C68.4693 19.8236 68.2405 19.5948 67.5924 19.5948H66.83C66.1819 19.5948 65.9531 19.8236 65.9531 20.4717V30.9937C65.9531 31.6418 66.1819 31.9087 66.83 31.9087H67.5924C68.2405 31.9087 68.4693 31.68 68.4693 30.9937V26.9908H73.2728V30.9937C73.2728 31.6418 73.5016 31.9087 74.1497 31.9087H74.874C75.5602 31.9087 75.8271 31.68 75.8271 30.9937V20.4717C75.789 19.8236 75.5602 19.5948 74.874 19.5948Z" fill="#777679"/>
<path d="M44.9477 19.366C41.3641 19.366 39.4961 21.9584 39.4961 25.5038V26.0757C39.4961 29.6212 41.4023 32.2135 44.9477 32.2135C48.5313 32.2135 50.4375 29.6212 50.4375 26.0757V25.5038C50.4375 21.9584 48.5313 19.366 44.9477 19.366ZM47.7689 26.0376C47.7689 28.2868 46.892 29.9643 44.9477 29.9643C42.9653 29.9643 42.0885 28.0962 42.0885 26.0376V25.6563C42.0885 23.5214 42.851 21.6915 44.9477 21.6915C47.0826 21.6915 47.7689 23.5214 47.7689 25.6563V26.0376Z" fill="#777679"/>
<path d="M83.8335 19.366C80.2499 19.366 78.3438 21.9584 78.3438 25.5038V26.0757C78.3438 29.6212 80.2499 32.2135 83.8335 32.2135C87.4171 32.2135 89.2852 29.6212 89.2852 26.0757V25.5038C89.3233 21.9584 87.4171 19.366 83.8335 19.366ZM86.6928 26.0376C86.6928 28.2868 85.8159 29.9643 83.8716 29.9643C81.8892 29.9643 81.0124 28.0962 81.0124 26.0376V25.6563C81.0124 23.5214 81.7367 21.6915 83.8716 21.6915C85.9684 21.6915 86.6928 23.5214 86.6928 25.6563V26.0376Z" fill="#777679"/>
<path d="M62.7495 29.5832H62.0633V20.4717C62.0633 19.8236 61.8346 19.5948 61.1483 19.5948H54.9342C54.2861 19.5948 54.0574 19.8236 54.0574 20.4717C54.0574 23.2166 53.638 26.9908 52.9518 29.5832H52.2275C51.5412 29.5832 51.3125 29.8119 51.3125 30.4981L51.3506 33.7005C51.3506 34.3486 51.5794 34.5773 52.2656 34.5773H52.7231C53.4474 34.5773 53.5999 34.3486 53.638 33.7005L53.6761 31.8706H61.1865L61.2627 33.7005C61.3008 34.3486 61.4914 34.5773 62.1777 34.5773H62.6351C63.2832 34.5773 63.5501 34.3486 63.5501 33.7005L63.6264 30.4981C63.6264 29.8119 63.3595 29.5832 62.7495 29.5832ZM59.5471 29.5832H55.5061C56.0398 27.2576 56.3067 24.0172 56.4592 21.7679H59.5471V29.5832Z" fill="#777679"/>
<path d="M184.631 25.4277L188.214 20.2811C188.405 19.938 188.329 19.5948 187.833 19.5948H186.613C185.736 19.5948 185.622 19.7092 185.203 20.2811L182.343 24.5509H181.238V20.4717C181.238 19.8236 181.009 19.5948 180.323 19.5948H179.56C178.912 19.5948 178.684 19.8236 178.684 20.4717V30.9937C178.684 31.6418 178.912 31.9087 179.56 31.9087H180.323C180.971 31.9087 181.238 31.68 181.238 30.9937V27.067H182.687L185.546 31.2225C186.003 31.7943 186.08 31.9087 186.956 31.9087H188.176C188.748 31.9087 188.824 31.4512 188.596 31.0319L184.631 25.4277Z" fill="#777679"/>
<path d="M199.576 19.5948H199.309C198.699 19.5948 198.432 19.8617 198.013 20.4717L196.259 22.7972C195.23 24.2078 193.743 26.3046 192.828 27.6008C192.943 26.1902 193.095 23.1784 193.095 21.6535V20.4717C193.095 19.8236 192.866 19.5948 192.218 19.5948H191.494C190.846 19.5948 190.617 19.8236 190.617 20.4717V30.9937C190.617 31.6418 190.846 31.9087 191.494 31.9087H191.723C192.409 31.9087 192.676 31.6037 193.095 30.9937L194.811 28.7063C195.878 27.2958 197.327 25.199 198.28 23.8647C198.166 25.3134 198.013 28.287 198.013 29.8119V30.9937C198.013 31.6418 198.242 31.9087 198.89 31.9087H199.614C200.262 31.9087 200.491 31.68 200.491 30.9937V20.4717C200.453 19.8236 200.224 19.5948 199.576 19.5948Z" fill="#777679"/>
<path d="M174.53 19.5948H174.34C173.653 19.5948 173.425 19.8617 173.005 20.4717L171.252 22.7972L167.821 27.6008C167.935 26.1902 168.049 23.1784 168.049 21.6535V20.4717C168.049 19.8236 167.821 19.5948 167.172 19.5948H166.486C165.838 19.5948 165.609 19.8236 165.609 20.4717V30.9937C165.609 31.6418 165.838 31.9087 166.486 31.9087H166.715C167.363 31.9087 167.592 31.6037 168.011 30.9937L169.765 28.7063C170.794 27.2958 172.243 25.199 173.158 23.8647C173.043 25.3134 172.929 28.287 172.929 29.8119V30.9937C172.929 31.6418 173.158 31.9087 173.806 31.9087H174.492C175.178 31.9087 175.407 31.68 175.407 30.9937V20.4717C175.445 19.8236 175.216 19.5948 174.53 19.5948Z" fill="#777679"/>
<path d="M97.8633 25.4277L101.409 20.2811C101.599 19.938 101.561 19.5948 101.028 19.5948H99.8076C98.9689 19.5948 98.8545 19.7092 98.4733 20.2811L95.5378 24.5509H94.4704V20.4717C94.4704 19.8236 94.2035 19.5948 93.5554 19.5948H92.7929C92.1067 19.5948 91.8398 19.8236 91.8398 20.4717V30.9937C91.8398 31.6418 92.0686 31.9087 92.7929 31.9087H93.5554C94.2035 31.9087 94.4704 31.68 94.4704 30.9937V27.0289H95.8809L98.8164 31.1844C99.1977 31.7562 99.312 31.8706 100.151 31.8706H101.294C101.904 31.8706 101.981 31.4131 101.714 30.9937L97.8633 25.4277Z" fill="#777679"/>
<path d="M111.969 19.5948H105.564C104.916 19.5948 104.688 19.8236 104.688 20.4717C104.688 25.8852 104.726 29.5832 103.544 29.5832C102.896 29.5832 102.629 29.8119 102.629 30.46V31.1081C102.629 31.7943 102.858 32.0231 103.544 32.0231C104.611 32.0231 105.45 31.6418 106.136 30.6888C106.975 29.4307 107.127 27.0289 107.127 24.1697V21.8441H110.368V30.9937C110.368 31.6418 110.597 31.9087 111.245 31.9087H112.007C112.655 31.9087 112.884 31.68 112.884 30.9937V20.4717C112.846 19.8236 112.617 19.5948 111.969 19.5948Z" fill="#777679"/>
<path d="M161.454 19.5948H160.692C160.044 19.5948 159.815 19.8236 159.815 20.4717V24.589H155.011V20.4717C155.011 19.8236 154.783 19.5948 154.134 19.5948H153.41C152.724 19.5948 152.457 19.8236 152.457 20.4717V30.9937C152.457 31.6418 152.686 31.9087 153.41 31.9087H154.134C154.783 31.9087 155.011 31.68 155.011 30.9937V26.9908H159.815V30.9937C159.815 31.6418 160.044 31.9087 160.692 31.9087H161.454C162.102 31.9087 162.331 31.68 162.331 30.9937V20.4717C162.331 19.8236 162.102 19.5948 161.454 19.5948Z" fill="#777679"/>
<path d="M137.511 27.2957H136.977C136.291 27.2957 136.1 27.6388 135.986 28.1344C135.605 29.1256 134.919 29.8881 133.661 29.8881C131.869 29.8881 130.992 28.0582 130.992 26.0376V25.6564C130.992 23.5596 131.716 21.7297 133.584 21.7297C134.576 21.7297 135.338 22.3016 135.795 23.369C136.024 23.8646 136.1 24.2077 136.787 24.2077H137.435C138.007 24.2077 138.312 23.9027 138.235 23.3309C137.968 21.2722 136.291 19.4042 133.546 19.4042C129.963 19.4042 128.285 22.0347 128.285 25.5802V26.1139C128.285 29.7356 130.115 32.2899 133.622 32.2899C136.558 32.2899 138.159 30.0406 138.388 28.2488C138.464 27.5245 138.159 27.2957 137.511 27.2957Z" fill="#777679"/>
<path d="M149.253 27.2957H148.719C148.033 27.2957 147.843 27.6388 147.728 28.1344C147.347 29.1256 146.661 29.8881 145.403 29.8881C143.611 29.8881 142.734 28.0582 142.734 26.0376V25.6564C142.734 23.5596 143.458 21.7297 145.326 21.7297C146.318 21.7297 147.08 22.3016 147.538 23.369C147.766 23.8646 147.843 24.2077 148.529 24.2077H149.177C149.749 24.2077 150.054 23.9027 149.978 23.3309C149.711 21.2722 148.033 19.4042 145.288 19.4042C141.705 19.4042 140.027 22.0347 140.027 25.5802V26.1139C140.027 29.7356 141.857 32.2899 145.365 32.2899C148.3 32.2899 149.901 30.0406 150.13 28.2488C150.206 27.5626 149.901 27.2957 149.253 27.2957Z" fill="#777679"/>
</svg>
