<svg width="201" height="39" viewBox="0 0 201 39" fill="none" xmlns="http://www.w3.org/2000/svg">
<path d="M19.4459 0C8.69241 0 0 8.67578 0 19.4087C0 30.1416 8.69241 38.8174 19.4459 38.8174C30.1994 38.8174 38.8918 30.1416 38.8918 19.4087C38.8918 8.67578 30.1994 0 19.4459 0ZM16.7575 27.6373L15.3237 31.841C9.94698 30.0522 6.36249 24.954 6.36249 19.2298C6.36249 13.5056 9.94699 8.49689 15.4133 6.61863L16.8471 10.8224C13.2626 11.9851 10.9327 15.3839 10.9327 19.1404C10.7535 23.0758 13.173 26.4745 16.7575 27.6373ZM23.3889 31.9304L22.0447 27.6373C25.7188 26.4745 28.1383 23.0758 28.1383 19.2298C28.1383 15.3839 25.7188 12.0745 22.1343 10.9118L23.5681 6.61863C29.0344 8.40745 32.7086 13.5056 32.7086 19.2298C32.7086 25.1329 28.9448 30.2311 23.3889 31.9304Z" fill="#00BEF0"/>
<path d="M197.506 22.897L199.657 25.4908C197.416 27.8162 194.638 28.4423 192.398 28.4423C190.247 28.4423 188.724 28.0846 187.38 27.4585C184.512 26.0274 183.078 23.1653 183.078 19.6771C183.078 14.4001 186.663 10.4647 191.95 10.4647C197.865 10.4647 200.732 14.8473 200.284 20.5715H186.842C186.932 22.0026 187.738 23.3442 188.903 24.0597C189.889 24.6858 191.054 24.9541 192.577 24.9541C194.28 24.9541 195.983 24.4175 197.506 22.897ZM186.932 17.4411H196.431C196.162 15.3839 194.459 13.5951 191.771 13.5951C188.993 13.5951 187.29 15.5628 186.932 17.4411ZM96.692 27.9057H101.531L93.914 19.051L101.441 10.733H96.692L90.9568 17.3516H89.2542V10.733H85.58V27.8162H89.2542V21.0187H90.9568L96.692 27.9057ZM112.464 13.8634C109.327 13.8634 107.266 16.2783 107.266 19.3193C107.266 22.3603 109.327 24.7752 112.464 24.7752C115.6 24.7752 117.572 22.4498 117.572 19.3193C117.661 16.3678 115.69 13.8634 112.464 13.8634ZM113.091 10.3752C117.93 10.3752 121.515 14.1318 121.515 19.3193C121.515 24.4175 118.02 28.3529 113.091 28.3529C110.761 28.3529 108.879 27.5479 107.535 26.1169V35.061H103.771V10.8224H107.445V12.8796C108.879 11.1802 110.761 10.3752 113.091 10.3752ZM161.93 10.8224H146.606V14.2212H152.431V27.9057H156.195V14.2212H162.02V10.8224H161.93ZM82.9813 10.8224H67.5679V14.2212H73.3927V27.9057H77.1565V14.2212H82.9813V10.8224ZM63.0873 19.4088C63.0873 16.1889 60.847 13.8634 57.7106 13.8634C54.6637 13.8634 52.3338 16.1889 52.3338 19.4088C52.3338 22.6287 54.5741 24.9541 57.7106 24.9541C60.7574 24.9541 63.0873 22.6287 63.0873 19.4088ZM48.4805 19.4088C48.4805 14.3106 52.4234 10.4647 57.7106 10.4647C62.9081 10.4647 66.9406 14.3106 66.9406 19.4088C66.9406 24.5069 62.9977 28.4423 57.7106 28.4423C52.513 28.3529 48.4805 24.5069 48.4805 19.4088ZM180.121 10.8224V27.9057H176.447V16.9044L167.486 27.9057H164.529V10.8224H168.203V21.8237L177.164 10.8224H180.121ZM144.007 27.9057H140.333V10.8224H144.007V27.9057ZM134.508 22.092C134.508 20.5715 133.433 19.4982 131.999 19.4982H128.236V24.7752H131.999C133.433 24.7752 134.508 23.6125 134.508 22.092ZM138.183 22.092C138.183 25.4908 135.673 27.9057 132.089 27.9057H124.561V10.8224H128.236V16.3678H132.447C136.032 16.3678 138.183 18.6933 138.183 22.092Z" fill="black"/>
</svg>
