<svg width="152" height="56" viewBox="0 0 152 56" fill="none" xmlns="http://www.w3.org/2000/svg">
<g clip-path="url(#clip0)">
<path d="M101.015 11.8093V37.9955C101.015 38.1838 100.941 38.3644 100.809 38.4976C100.677 38.6307 100.497 38.7055 100.311 38.7055H95.0051C94.9122 38.7062 94.8201 38.6883 94.734 38.653C94.648 38.6176 94.5697 38.5654 94.5038 38.4994C94.4378 38.4334 94.3855 38.3549 94.3498 38.2684C94.314 38.182 94.2957 38.0892 94.2957 37.9955V11.8093C94.2957 11.7157 94.314 11.6229 94.3498 11.5364C94.3855 11.45 94.4378 11.3715 94.5038 11.3055C94.5697 11.2395 94.648 11.1873 94.734 11.1519C94.8201 11.1165 94.9122 11.0987 95.0051 11.0994H100.311C100.497 11.0994 100.677 11.1742 100.809 11.3073C100.941 11.4405 101.015 11.621 101.015 11.8093ZM142.364 11.0994H136.426C136.273 11.0995 136.125 11.1503 136.003 11.2439C135.881 11.3376 135.794 11.4688 135.753 11.6176L131.054 27.0868L125.913 11.5969C125.864 11.4561 125.773 11.3342 125.652 11.2479C125.532 11.1616 125.388 11.1151 125.24 11.1149H121.096C120.949 11.1154 120.805 11.1621 120.685 11.2484C120.566 11.3348 120.476 11.4566 120.428 11.5969L115.287 27.0868L110.531 11.6021C110.49 11.4537 110.402 11.3229 110.28 11.2294C110.159 11.136 110.01 11.0848 109.858 11.0838H103.935C103.824 11.0833 103.714 11.1094 103.615 11.1599C103.515 11.2105 103.429 11.284 103.364 11.3745C103.298 11.465 103.254 11.5699 103.237 11.6806C103.219 11.7913 103.228 11.9047 103.262 12.0115L112.001 38.2132C112.049 38.3539 112.139 38.4761 112.259 38.5626C112.379 38.6491 112.522 38.6954 112.67 38.6952H117.384C117.531 38.6947 117.675 38.648 117.795 38.5616C117.914 38.4753 118.004 38.3535 118.052 38.2132L123.163 22.9047L128.304 38.2132C128.352 38.3535 128.442 38.4753 128.562 38.5616C128.681 38.648 128.825 38.6947 128.972 38.6952H133.666C133.813 38.6947 133.956 38.648 134.076 38.5616C134.196 38.4753 134.286 38.3535 134.334 38.2132L143.074 12.0115C143.098 11.9045 143.097 11.7932 143.07 11.6869C143.043 11.5805 142.992 11.4821 142.92 11.3999C142.857 11.3092 142.774 11.2347 142.678 11.1825C142.581 11.1302 142.474 11.1017 142.364 11.0994ZM151.294 11.0994H146.004C145.911 11.0987 145.819 11.1165 145.733 11.1519C145.647 11.1873 145.569 11.2395 145.503 11.3055C145.437 11.3715 145.385 11.45 145.349 11.5364C145.313 11.6229 145.295 11.7157 145.295 11.8093V37.9955C145.295 38.0892 145.313 38.182 145.349 38.2684C145.385 38.3549 145.437 38.4334 145.503 38.4994C145.569 38.5654 145.647 38.6176 145.733 38.653C145.819 38.6883 145.911 38.7062 146.004 38.7055H151.31C151.497 38.7055 151.676 38.6307 151.808 38.4976C151.94 38.3644 152.014 38.1838 152.014 37.9955V11.8093C152.014 11.7148 151.995 11.6212 151.959 11.534C151.923 11.4468 151.869 11.3679 151.802 11.3017C151.735 11.2356 151.656 11.1836 151.569 11.1489C151.481 11.1141 151.388 11.0973 151.294 11.0994ZM91.2265 37.8297C91.3093 37.9034 91.3663 38.0021 91.3892 38.111C91.412 38.22 91.3994 38.3335 91.3533 38.4346C91.3071 38.5358 91.2299 38.6193 91.1329 38.6728C91.036 38.7262 90.9246 38.7468 90.8152 38.7314H84.3118C84.1801 38.7318 84.05 38.7027 83.9309 38.6462C83.8118 38.5898 83.7066 38.5074 83.6229 38.4049L82.5227 37.0679C79.5389 39.0133 75.9468 39.7775 72.4376 39.2134C68.9285 38.6492 65.7503 36.7966 63.5149 34.0122C61.2795 31.2277 60.1448 27.7082 60.3292 24.131C60.5136 20.5538 62.0041 17.1717 64.5138 14.6358C67.0235 12.0999 70.375 10.5894 73.9233 10.3949C77.4715 10.2005 80.9658 11.3359 83.7334 13.5825C86.501 15.8292 88.3465 19.0284 88.9145 22.5644C89.4826 26.1004 88.7331 29.7232 86.8103 32.7355L91.2265 37.8297ZM78.3379 31.9737L75.4949 28.5016C75.4272 28.4207 75.3839 28.322 75.37 28.2172C75.3562 28.1123 75.3724 28.0057 75.4167 27.9098C75.461 27.8139 75.5316 27.7328 75.6202 27.6761C75.7087 27.6193 75.8115 27.5893 75.9164 27.5895H81.8749C82.1664 26.7178 82.3157 25.8042 82.317 24.8843C82.317 20.5571 79.1245 16.8258 74.7392 16.8258C70.3538 16.8258 67.1613 20.5571 67.1613 24.8843C67.1613 29.2115 70.359 32.8858 74.7392 32.8858C75.9964 32.8974 77.2356 32.5834 78.3379 31.9737ZM44.0934 37.6742C44.2579 38.7677 43.9135 39.2289 43.5793 39.2289C43.2451 39.2289 42.7362 38.7884 42.1809 37.9126C41.6257 37.0368 41.4303 36.0625 41.7028 35.565C41.8031 35.3914 41.9662 35.2636 42.1579 35.2086C42.3496 35.1535 42.555 35.1754 42.731 35.2696C43.641 35.6117 44.0009 37.0264 44.0934 37.6742ZM39.0243 40.0529C40.1245 40.9909 40.4587 42.1258 39.8778 42.8928C39.7012 43.1132 39.4756 43.2886 39.2192 43.4048C38.9629 43.5209 38.683 43.5746 38.4023 43.5613C37.7873 43.5617 37.192 43.3433 36.7212 42.9446C35.6929 42.0637 35.4256 40.6385 36.0785 39.8353C36.2245 39.6712 36.4051 39.5422 36.6071 39.4579C36.8091 39.3736 37.0272 39.3361 37.2455 39.3481C37.9018 39.3669 38.531 39.6162 39.0243 40.0529ZM37.1838 49.096C41.9187 49.096 47.0546 50.7336 52.7406 55.833C53.3113 56.3513 54.0722 55.7087 53.5735 55.0764C47.9852 47.9456 42.8184 46.593 37.662 45.4477C31.359 44.0485 28.1151 40.4675 25.853 36.5445C25.4057 35.7568 25.1898 35.9019 25.1898 36.9021C25.1432 38.3926 25.2466 39.8841 25.4983 41.3537C25.2412 41.3537 24.9842 41.3537 24.7271 41.3537C21.4952 41.3588 18.3344 40.3973 15.6449 38.5908C12.9553 36.7844 10.8579 34.2142 9.61801 31.2056C8.37815 28.1971 8.05163 24.8853 8.67978 21.6896C9.30792 18.4939 10.8625 15.5578 13.1467 13.2531C15.4309 10.9483 18.3421 9.37852 21.5118 8.74231C24.6815 8.1061 27.9672 8.43211 30.953 9.67907C33.9388 10.926 36.4905 13.0379 38.2851 15.7473C40.0797 18.4568 41.0365 21.642 41.0345 24.8999C41.0367 25.5405 41.0023 26.1807 40.9317 26.8173C39.211 26.5982 37.472 26.5652 35.7444 26.7188C35.1274 26.7707 35.2303 27.0609 35.6827 27.149C41.0808 28.1336 44.7874 31.5021 45.6357 37.6224C45.6398 37.6528 45.653 37.6812 45.6735 37.7038C45.694 37.7263 45.7209 37.7421 45.7505 37.7489C45.7802 37.7556 45.8112 37.7531 45.8393 37.7416C45.8675 37.7301 45.8915 37.7102 45.9082 37.6846C48.7085 32.9653 49.8806 27.4445 49.2418 21.9833C48.603 16.5221 46.1891 11.4275 42.3767 7.49419C38.5643 3.56089 33.5677 1.01001 28.1662 0.239433C22.7648 -0.531147 17.2622 0.521896 12.5168 3.23432C7.77129 5.94674 4.04977 10.166 1.93264 15.2341C-0.184479 20.3021 -0.578161 25.934 0.813001 31.2512C2.20416 36.5685 5.30195 41.2721 9.62318 44.6286C13.9444 47.985 19.2461 49.8055 24.7014 49.806C28.3258 49.806 31.9143 49.096 37.1838 49.096Z" fill="#FF8C00"/>
</g>
<defs>
<clipPath id="clip0">
<path d="M0 0H152V56H0V0Z" fill="white"/>
</clipPath>
</defs>
</svg>
