<svg width="169" height="35" viewBox="0 0 169 35" fill="none" xmlns="http://www.w3.org/2000/svg">
<path fill-rule="evenodd" clip-rule="evenodd" d="M168.339 0.00313518L155.115 34.4944H149.726L162.947 0.00313518H168.339ZM131.98 16.9047C131.98 14.2278 133.926 11.4234 137.331 11.4234C140.736 11.4234 142.602 13.8621 142.602 16.9047C142.602 19.9473 140.779 22.3856 137.331 22.3856C133.884 22.3856 131.98 19.5816 131.98 16.9047ZM132.055 9.88304V7.94923H127.022V34.4813H132.239V24.1695C132.83 24.7726 134.908 26.3579 137.985 26.3579C142.811 26.3579 147.249 22.9024 147.249 16.9047C147.249 10.6311 142.363 7.52345 137.985 7.52345C134.654 7.52345 132.646 9.26274 132.055 9.88304ZM110.332 14.9303C110.478 13.7221 111.764 11.2919 114.934 11.2919C118.464 11.2919 119.036 13.9388 119.12 14.9303H110.332ZM105.136 16.9773C105.136 22.3314 109.147 26.3579 115.118 26.3579C121.089 26.3579 123.635 22.2966 123.635 22.2966L119.832 19.844C119.832 19.844 118.533 22.3844 115.154 22.3844C111.675 22.3844 110.274 19.539 110.274 18.4526H124.063C124.063 18.4526 124.138 17.667 124.138 17.4381V16.832C124.138 11.5281 120.769 7.52345 114.934 7.52345C109.099 7.52345 105.136 11.6226 105.136 16.9773ZM97.9402 7.94952L104.834 25.9321H99.2352L95.2306 14.4634H95.1613L91.17 25.9321H85.5912L92.4845 7.94952H97.9402ZM70.6253 17.1741C70.6253 14.6028 72.1115 12.3587 75.5385 12.3587C78.9651 12.3587 80.1917 15.2744 80.1917 17.3552C80.1917 19.4357 78.9327 22.3844 75.499 22.3844C72.0656 22.3844 70.6253 19.7446 70.6253 17.1741ZM71.1444 9.48292C71.283 8.87458 71.8258 4.05886 78.6148 4.05886H82.8088L84.3635 0.00313518H78.6867C71.2029 0.00313518 65.5165 3.30324 65.5165 14.9099C65.5165 21.2818 68.36 26.3579 75.3513 26.3579C81.9999 26.3579 85.2613 21.7096 85.2613 17.1884C85.2613 10.6413 80.2115 7.94923 75.9625 7.94923C73.446 7.94923 71.648 9.12334 71.1444 9.48292ZM57.7964 7.94952H62.2539V25.9321H57.0363V15.3969L51.979 21.7285H50.5647L50.4468 21.5862L45.4676 15.4841V25.9321H40.2473V7.94952H44.7078L44.8224 8.08309L51.3034 15.5392L57.7964 7.94952ZM31.0878 18.4351C31.0878 20.8945 29.6545 22.5894 26.8779 22.5894C24.1924 22.5894 23.9646 21.0779 23.9646 20.5022C23.9646 19.1718 25.225 18.2855 28.2259 18.0237C29.0523 17.9516 29.8966 17.916 30.7322 17.916H31.0878V18.4351ZM35.9737 16.4783C35.9737 16.1158 35.9679 15.7679 35.9524 15.4316C35.6974 9.83113 33.2218 7.52345 27.879 7.52345C24.2614 7.52345 21.9092 8.9364 21.0816 9.51179L22.4906 13.1858C22.4906 13.1858 24.6898 11.3946 27.469 11.3946C31.401 11.3946 31.0123 14.504 31.0123 14.504C29.6676 14.5156 18.9675 13.9834 18.9675 20.6443C18.9675 24.3392 22.1531 26.3579 25.7286 26.3579C28.9093 26.3579 30.6204 24.8274 31.1846 24.2331C31.1875 24.3142 31.296 25.9318 31.296 25.9318H36.1574C36.1574 25.9318 35.9737 24.3716 35.9737 21.9283V16.4783ZM5.40448 12.485V4.34758H8.06988C9.9632 4.34758 13.019 5.45753 13.019 8.43363C13.019 11.4348 9.9632 12.485 7.99472 12.485H5.40448ZM0 25.9321V35V0L8.441 0.00313518C13.844 0.00313518 18.4627 2.8585 18.4627 8.41642C18.4627 13.9746 13.844 16.7901 8.32957 16.7901H5.40448V25.9321H0H0ZM169 0V35V0Z" fill="#315EFB"/>
</svg>
