<?xml version="1.0" encoding="UTF-8"?>
<!DOCTYPE svg PUBLIC "-//W3C//DTD SVG 1.1//EN" "http://www.w3.org/Graphics/SVG/1.1/DTD/svg11.dtd">
<!-- Creator: CorelDRAW X7 -->
<svg xmlns="http://www.w3.org/2000/svg" xml:space="preserve" width="100mm" height="30mm" version="1.1" style="shape-rendering:geometricPrecision; text-rendering:geometricPrecision; image-rendering:optimizeQuality; fill-rule:evenodd; clip-rule:evenodd"
viewBox="0 0 10000 3000"
 xmlns:xlink="http://www.w3.org/1999/xlink">
 <defs>
  <style type="text/css">
   <![CDATA[
    .fil3 {fill:black}
    .fil0 {fill:black}
    .fil1 {fill:#EB0614}
    .fil2 {fill:#EB0614}
   ]]>
  </style>
 </defs>
 <g id="Слой_x0020_1">
  <metadata id="CorelCorpID_0Corel-Layer"/>
  <polygon class="fil0" points="325,1031 535,1031 744,1031 851,1031 851,1138 960,1138 960,1655 744,1655 744,1861 960,1861 960,2081 744,2081 744,1861 535,1861 535,1450 744,1450 744,1244 535,1244 535,2081 325,2081 "/>
  <polygon class="fil0" points="1158,1031 1374,1031 1792,1031 1792,1244 1374,1244 1374,1450 1575,1450 1575,1658 1374,1658 1374,1861 1792,1861 1792,2081 1374,2081 1158,2081 "/>
  <path class="fil0" d="M1993 1031l199 0 215 0 0 107 106 0 0 106 95 0 0 726 -95 0 0 111 -321 0 -199 0 0 -1050zm414 830l0 -617 -215 0 0 617 215 0z"/>
  <polygon class="fil0" points="5719,1031 5929,1031 6138,1031 6245,1031 6354,1031 6354,1138 6354,1655 6138,1655 6138,1861 6354,1861 6354,2081 6138,2081 6138,1861 5929,1861 5929,1450 6138,1450 6138,1244 5929,1244 5929,2081 5719,2081 "/>
  <polygon class="fil1" points="2825,1031 3657,1031 3657,1138 3748,1138 3748,1244 3855,1244 3855,2081 3657,2081 3657,1244 3439,1244 3439,2081 3239,2081 3239,1244 3024,1244 3024,2081 2825,2081 2825,1244 "/>
  <path class="fil2" d="M4074 1031l199 0 0 213 200 0 0 -213 216 0 0 213 0 206 0 520 -107 0 0 111 -416 0 0 -111 -92 0 0 -520 0 -206 0 -213zm399 419l-200 0 0 411 200 0 0 -411z"/>
  <path class="fil2" d="M5414 2081l-308 0 -220 0 0 -220 0 -617 0 -8 0 -98 0 -107 420 0 0 107 108 0 0 106 107 0 0 726 -107 0 0 111zm-308 -220l200 0 0 -617 -200 0 0 617z"/>
  <rect class="fil0" x="6354" y="921" width="108" height="110"/>
  <rect class="fil0" x="6461" y="829" width="92.1934" height="92.1934"/>
  <rect class="fil2" x="6553" y="628" width="201" height="201"/>
  <path class="fil0" d="M6861 505l-308 0 0 -92 308 0 0 92zm109 -200l-417 0 0 -108 417 0 0 108z"/>
  <path class="fil0" d="M6861 505l109 0 0 323 -109 0 0 -323zm109 -200l108 0 0 108 105 0 0 415 -105 0 0 -415 -108 0 0 -108z"/>
  <path class="fil3" d="M6553 1970l109 0 0 111 416 0 0 -111 105 0 0 -109 0 -617 0 -106 0 0 -105 0 0 -107 -416 0 0 107 -109 0 0 106 0 617 0 109zm201 -726l216 0 0 617 -216 0 0 -617z"/>
  <path class="fil3" d="M7910 2081l-525 0 0 -220 0 -830 199 0 326 0 0 107 92 0 0 312 -92 0 0 208 92 0 0 312 -92 0 0 111zm-109 -635l0 -202 -217 0 0 202 217 0zm-217 212l0 203 217 0 0 -203 -217 0z"/>
  <path class="fil3" d="M8327 1970l-108 0 0 -832 108 0 0 -107 400 0 0 107 109 0 0 832 -109 0 0 111 -400 0 0 -111zm307 -109l0 -617 -215 0 0 617 215 0z"/>
  <polygon class="fil3" points="9668,1244 9468,1244 9468,2081 9252,2081 9252,1244 9052,1244 9052,1031 9668,1031 "/>
 </g>
</svg>
