<svg width="200" height="38" viewBox="0 0 200 38" fill="none" xmlns="http://www.w3.org/2000/svg">
<g clip-path="url(#clip0)">
<path d="M52.1453 23.4415C53.0005 24.3445 54.0362 25.0559 55.1844 25.5292C56.582 26.052 58.065 26.3064 59.5563 26.2791C60.4094 26.2791 61.2073 26.1727 61.8621 26.1171C62.5163 26.0321 63.1594 25.8769 63.7806 25.6542C64.3663 25.4922 64.8459 25.2237 65.3255 25.0663C65.705 24.8491 66.0961 24.6528 66.4969 24.4784L65.902 23.224C65.5838 23.386 65.2609 23.5434 64.8874 23.6869C64.5399 23.8473 64.1843 23.9894 63.8221 24.1127C63.391 24.2585 62.9431 24.3487 62.4893 24.3812C61.9073 24.477 61.317 24.5126 60.7277 24.4877C59.6647 24.5275 58.6119 24.2677 57.6885 23.7378C56.9109 23.2515 56.2546 22.5927 55.7701 21.8121C55.3128 20.9041 55.0015 19.9292 54.8477 18.9236C54.6733 17.7186 54.5839 16.5027 54.5803 15.2851C54.5803 14.2667 54.6863 13.1974 54.7417 12.1281C54.8224 11.1586 55.0803 10.2124 55.5026 9.33676C55.8825 8.52074 56.4481 7.80565 57.1536 7.24905C58.0469 6.68102 59.0845 6.38367 60.142 6.39268C61.2088 6.37865 62.2529 6.70261 63.1257 7.31849C63.9789 7.90638 64.4585 8.86923 64.6707 10.1561H66.0034V6.05013C65.5792 5.88811 65.1503 5.73072 64.6707 5.58722C64.1688 5.42452 63.6508 5.31742 63.1257 5.26781C62.5401 5.16135 62.0604 5.16135 61.4747 5.1058C61.0136 5.1058 60.4602 4.99933 60.0912 4.99933C58.5129 4.97366 56.9424 5.22751 55.4519 5.74924C54.2373 6.19992 53.1509 6.94154 52.2869 7.90963C51.4229 8.87772 50.8075 10.043 50.4943 11.3041C50.0694 12.7821 49.8719 14.3166 49.9086 15.8545C49.8748 17.3223 50.0725 18.7861 50.4943 20.1919C50.7716 21.3944 51.3385 22.5102 52.1453 23.4415Z" fill="#2F9A41"/>
<path d="M133.029 25.5849C133.984 25.4871 134.91 25.1958 135.749 24.7285C136.594 24.2551 137.266 23.5238 137.668 22.6408C138.214 21.4712 138.47 20.1864 138.415 18.8959C138.449 17.9121 138.293 16.9311 137.954 16.0073C137.629 15.2176 137.095 14.5324 136.409 14.0261C135.547 13.4843 134.586 13.1207 133.582 12.9568C132.194 12.6985 130.782 12.5914 129.371 12.6374H127.61V7.70741C127.587 7.52468 127.603 7.33914 127.658 7.1634C127.713 6.98767 127.805 6.82587 127.928 6.68902C128.352 6.52601 128.81 6.47037 129.261 6.527H131.765C132.406 6.5027 133.049 6.53834 133.683 6.63347C134.107 6.65866 134.515 6.80835 134.855 7.06397C135.19 7.33053 135.448 7.68213 135.602 8.08237C135.846 8.65289 136.041 9.24283 136.188 9.84604H137.221V5.24475H122.002V5.88819C122.108 5.88819 122.163 5.99466 122.426 5.99466C122.694 6.10113 122.855 6.15668 122.887 6.26314C122.997 6.40433 123.087 6.56011 123.155 6.72605C123.155 6.99454 123.261 7.18896 123.261 7.58243V23.4231C123.285 23.7128 123.249 24.0045 123.155 24.2795C123.155 24.548 123.049 24.7053 122.887 24.7424C122.774 24.8878 122.609 24.9839 122.426 25.0109C122.295 25.08 122.15 25.1165 122.002 25.1173V25.7608H129.68C130.799 25.7604 131.916 25.7017 133.029 25.5849ZM127.997 24.085C127.912 24.0126 127.845 23.9225 127.798 23.8209C127.752 23.7193 127.729 23.6088 127.73 23.4972C127.73 23.2287 127.624 22.9093 127.624 22.4788V13.8641H129.385C130.93 13.8641 132.106 14.2899 132.798 15.0954C133.49 15.9009 133.813 17.234 133.813 19.0579C133.841 20.0309 133.734 21.0031 133.494 21.9464C133.321 22.564 133.005 23.1318 132.572 23.6036C132.193 23.8997 131.781 24.1513 131.345 24.3535C130.854 24.4602 130.353 24.5145 129.851 24.5156C129.39 24.4091 128.929 24.4091 128.68 24.3535C128.427 24.353 128.183 24.2572 127.997 24.085Z" fill="#2F9A41"/>
<path d="M111.276 25.1034C111.17 25.1034 111.114 24.9969 110.852 24.9969C110.584 24.8905 110.423 24.8349 110.39 24.7284C110.358 24.622 110.229 24.46 110.123 24.2655C110.123 23.997 110.017 23.8026 110.017 23.4092V17.7154H112.097C113.115 17.7103 114.132 17.6205 115.136 17.4469C116.039 17.3029 116.908 16.9888 117.695 16.5211C118.465 16.0503 119.078 15.3608 119.457 14.5399C119.93 13.4626 120.149 12.2905 120.098 11.1144C120.115 10.0333 119.916 8.95983 119.512 7.95733C119.102 7.23859 118.534 6.62285 117.852 6.15663C117.121 5.72546 116.3 5.46889 115.454 5.40672C114.516 5.29646 113.572 5.24236 112.627 5.2447H104.506V5.88814C104.612 5.88814 104.667 5.99461 104.935 5.99461C105.202 6.10108 105.359 6.15663 105.396 6.2631C105.506 6.40418 105.596 6.55998 105.663 6.726C105.663 6.99449 105.769 7.18891 105.769 7.58238V23.3721C105.794 23.6619 105.758 23.9536 105.663 24.2285C105.663 24.497 105.557 24.6544 105.396 24.6914C105.282 24.8369 105.117 24.933 104.935 24.9599C104.802 25.0297 104.655 25.0663 104.506 25.0664V25.6543H111.225L111.276 25.0664V25.1034ZM110.155 7.54997C110.143 7.38843 110.18 7.22694 110.261 7.08707C110.266 7.02574 110.282 6.9659 110.31 6.91106C110.338 6.85622 110.376 6.80747 110.423 6.76766C110.55 6.65596 110.715 6.59791 110.884 6.60565C111.151 6.60565 111.345 6.49918 111.806 6.49918C112.307 6.52654 112.806 6.58062 113.3 6.6612C113.755 6.82619 114.172 7.0812 114.527 7.4111C114.877 7.82988 115.165 8.29772 115.38 8.79982C115.561 9.49807 115.651 10.217 115.648 10.9385C115.648 12.7021 115.38 13.989 114.901 14.9009C114.421 15.8129 113.517 16.2897 112.235 16.2897H110.155V7.54997Z" fill="#2F9A41"/>
<path d="M101.841 21.0345H100.508C100.393 21.685 100.239 22.328 100.047 22.9602C99.9575 23.3782 99.732 23.7544 99.4059 24.0295C99.2499 24.1768 99.0655 24.2906 98.8641 24.3638C98.6626 24.4371 98.4484 24.4682 98.2346 24.4554C97.5462 24.5566 96.8498 24.5922 96.1547 24.5618C95.5133 24.5933 94.8703 24.5576 94.2362 24.4554C93.8652 24.4128 93.5045 24.3046 93.1709 24.136C93.0535 24.0713 92.9535 23.9789 92.8796 23.8668C92.8057 23.7547 92.7601 23.6263 92.7467 23.4925C92.6483 23.1089 92.6124 22.7119 92.6406 22.3167V15.7898H96.1778C96.496 15.7898 96.8188 15.8962 97.1923 15.8962C97.5337 15.9279 97.8726 15.982 98.2069 16.0582C98.5024 16.132 98.7886 16.2392 99.0601 16.3777V13.7021C98.8033 13.8717 98.5116 13.9809 98.2069 14.0215C97.5372 14.1462 96.8614 14.2358 96.1824 14.2899H92.6083V7.48522C92.6093 7.16965 92.6639 6.85656 92.7697 6.5594C92.9311 6.39739 93.1986 6.39739 93.6229 6.39739H95.8642C96.5056 6.37314 97.1478 6.40878 97.7826 6.50385C98.2041 6.53754 98.6088 6.68466 98.954 6.92973C99.289 7.19629 99.5469 7.54789 99.7011 7.94812C99.9446 8.52031 100.141 9.11177 100.287 9.71643H101.352V5.24475H87.125V5.88819C87.2311 5.88819 87.2864 5.99466 87.5493 5.99466C87.8168 6.10113 87.9736 6.15668 88.0104 6.26314C88.1206 6.40423 88.2106 6.56003 88.2779 6.72605C88.2779 6.99454 88.384 7.18896 88.384 7.58243V23.3722C88.4084 23.6619 88.3723 23.9536 88.2779 24.2285C88.2779 24.497 88.1719 24.6544 88.0104 24.6915C87.8966 24.8369 87.7316 24.933 87.5493 24.9599C87.4184 25.0291 87.2729 25.0656 87.125 25.0664V25.6543H101.841V21.0345Z" fill="#2F9A41"/>
<path d="M79.3386 25.5849C80.2939 25.4871 81.2196 25.1958 82.0595 24.7285C82.9079 24.2429 83.5946 23.5166 84.0333 22.6408C84.5799 21.4713 84.8362 20.1864 84.7804 18.8959C84.8149 17.9121 84.6583 16.931 84.3192 16.0073C83.9943 15.2176 83.4599 14.5324 82.7743 14.0261C81.9123 13.4843 80.9512 13.1207 79.9473 12.9568C78.5594 12.6984 77.1477 12.5913 75.7368 12.6374H73.9752V7.70741C73.9525 7.5247 73.9692 7.33923 74.0241 7.16354C74.079 6.98785 74.1708 6.82604 74.2934 6.68902C74.7177 6.52601 75.1754 6.47037 75.6262 6.527H78.1303C78.7717 6.50272 79.414 6.53837 80.0488 6.63347C80.4707 6.66853 80.8754 6.81726 81.2202 7.06397C81.5552 7.33053 81.8131 7.68213 81.9672 8.08237C82.2112 8.6528 82.4071 9.24276 82.5529 9.84604H83.6182V5.24475H68.3535V5.88819C68.4596 5.88819 68.5149 5.99466 68.7824 5.99466C69.0499 6.10113 69.2067 6.15668 69.2436 6.26314C69.3536 6.40433 69.4436 6.56011 69.511 6.72605C69.511 6.99454 69.6171 7.18896 69.6171 7.58243V23.3722C69.6376 23.6618 69.6016 23.9527 69.511 24.2285C69.511 24.497 69.405 24.6544 69.2436 24.6915C69.1298 24.8369 68.9647 24.933 68.7824 24.9599C68.6501 25.0298 68.503 25.0663 68.3535 25.0664V25.8163H76.032C77.2679 25.7469 78.2687 25.7469 79.3386 25.5849ZM74.3257 24.085C74.241 24.0126 74.1731 23.9225 74.1269 23.8209C74.0807 23.7193 74.0572 23.6088 74.0582 23.4972C74.0582 23.2287 73.9521 22.9093 73.9521 22.4788V13.8641H75.7138C77.2587 13.8641 78.4347 14.2899 79.1264 15.0954C79.8182 15.9009 80.141 17.234 80.141 19.0579C80.1687 20.0309 80.0616 21.003 79.8228 21.9464C79.6497 22.564 79.3336 23.1318 78.9005 23.6036C78.5214 23.8997 78.1098 24.1513 77.6738 24.3535C77.1828 24.4603 76.6819 24.5146 76.1796 24.5156C75.7184 24.4091 75.3264 24.4091 75.0082 24.3535C74.8822 24.358 74.7566 24.3365 74.6392 24.2903C74.5218 24.2441 74.4151 24.1743 74.3257 24.085Z" fill="#2F9A41"/>
<path d="M199.842 31.5748H49.8008V33.5561H199.842V31.5748Z" fill="#2F9A41"/>
<path d="M187.844 18.0395C188.273 18.6274 188.591 19.1088 189.015 19.5902C189.333 20.0531 189.762 20.6086 190.081 21.09C190.4 21.6145 190.756 22.1156 191.146 22.5898C191.538 23.1171 191.894 23.6708 192.211 24.2471C192.529 24.71 192.797 25.3164 193.064 25.7978L199.982 25.9043C199.235 25.1543 198.598 24.4044 197.851 23.6545C197.21 22.9046 196.625 22.2658 196.196 21.8353C195.555 21.0854 194.969 20.4466 194.439 19.8541C193.908 19.2615 193.373 18.6227 192.894 18.0348C192.399 17.4546 191.937 16.8472 191.51 16.2156C191.137 15.6277 190.588 14.8778 190.177 14.2344L190.496 13.8085C190.957 13.1651 191.561 12.4707 192.257 11.6699C192.893 10.819 193.588 10.0146 194.337 9.26276C195.012 8.47798 195.727 7.73008 196.482 7.02229C197.086 6.46368 197.727 5.94565 198.4 5.47156H193.599C193.383 5.98726 193.133 6.48826 192.852 6.97137C192.515 7.63724 192.123 8.27364 191.681 8.87392C191.257 9.51736 190.758 10.2626 190.348 11.0126C189.938 11.7625 189.426 12.4013 188.965 13.1003C188.503 13.7992 188.042 14.4381 187.632 14.9195C187.207 15.5074 186.885 15.9379 186.617 16.3082C186.991 16.8591 187.415 17.4516 187.844 18.0395Z" fill="#2F9A41"/>
<path d="M187.258 25.1034C187.152 25.1034 187.097 24.9969 186.829 24.9969C186.562 24.8905 186.405 24.8349 186.368 24.7284C186.258 24.5874 186.168 24.4316 186.101 24.2655C186.101 23.9971 185.995 23.8026 185.995 23.4092V7.67034C185.97 7.38057 186.006 7.08883 186.101 6.81396C186.101 6.54548 186.207 6.38809 186.368 6.35105C186.509 6.24045 186.664 6.15008 186.829 6.08257C186.962 6.01273 187.109 5.97619 187.258 5.9761V5.28174H180.539V5.92518C180.645 5.92518 180.7 6.03165 180.968 6.03165C181.235 6.13812 181.392 6.19367 181.429 6.30013C181.539 6.44112 181.629 6.59694 181.697 6.76304C181.697 7.03153 181.803 7.22595 181.803 7.61942V23.4092C181.827 23.6989 181.791 23.9907 181.697 24.2655C181.697 24.534 181.591 24.6914 181.429 24.7284C181.316 24.8743 181.15 24.9705 180.968 24.9969C180.836 25.0668 180.689 25.1033 180.539 25.1034V25.6913H187.258V25.1034Z" fill="#2F9A41"/>
<path d="M142.756 23.2842C143.023 22.1084 143.503 20.4466 144.139 18.3589H150.697L151.62 21.0345C152.005 22.0071 152.313 23.0085 152.542 24.0295C152.764 24.6139 152.907 25.2259 152.966 25.8487H158.191C157.924 25.4228 157.73 24.8303 157.338 24.1915C156.89 23.2532 156.499 22.2886 156.167 21.303L151.426 7.81387C151.23 7.33073 151.086 6.82793 150.997 6.31405C150.891 5.88818 150.891 5.56414 150.836 5.29565H144.974V5.9391C145.08 5.9391 145.136 6.04556 145.398 6.04556C145.666 6.15203 145.823 6.20758 145.86 6.31405C145.97 6.45507 146.06 6.61089 146.127 6.77696V7.20283C146.132 7.66258 146.04 8.11823 145.86 8.54063L142.553 16.6739C141.967 18.1737 141.382 19.5115 141.008 20.4744C140.635 21.4372 140.155 22.4001 139.943 23.0435C139.625 23.6869 139.357 24.2748 139.09 24.7007C138.876 25.0467 138.68 25.4036 138.504 25.77H142.235C142.359 24.9317 142.533 24.1017 142.756 23.2842ZM147.451 8.61932L150.135 16.9146H144.494L147.451 8.61932Z" fill="#2F9A41"/>
<path d="M165.98 25.1034H165.814C165.708 25.1034 165.653 24.997 165.385 24.997C165.118 24.8905 164.961 24.835 164.924 24.7285C164.814 24.5873 164.724 24.4315 164.657 24.2656C164.657 23.9971 164.551 23.8027 164.551 23.4092V15.5398H172.497V23.3537C172.521 23.6434 172.485 23.9352 172.391 24.21C172.391 24.4785 172.285 24.6359 172.123 24.6729C172.009 24.8184 171.844 24.9145 171.662 24.9414C171.531 25.0105 171.386 25.0471 171.238 25.0479V25.6913H177.957V25.0479C177.851 25.0479 177.795 24.9414 177.533 24.9414C177.265 24.835 177.104 24.7794 177.071 24.6729C176.961 24.5322 176.871 24.3763 176.804 24.21C176.804 23.9415 176.698 23.7471 176.698 23.3537V7.48522C176.673 7.19545 176.709 6.90371 176.804 6.62884C176.804 6.36035 176.91 6.20297 177.071 6.16593C177.212 6.05543 177.367 5.96507 177.533 5.89745C177.664 5.82833 177.809 5.79181 177.957 5.79098V5.24475H171.348V5.88819C171.454 5.88819 171.51 5.99466 171.773 5.99466C172.04 6.10113 172.202 6.15668 172.234 6.26314C172.344 6.40423 172.434 6.56003 172.501 6.72605C172.501 6.99454 172.607 7.18896 172.607 7.58243V14.1835H164.758V7.55002C164.734 7.26027 164.77 6.96864 164.864 6.69365C164.864 6.42516 164.97 6.26777 165.132 6.23074C165.272 6.11999 165.427 6.0296 165.593 5.96225C165.722 5.88802 165.869 5.85116 166.017 5.85579V5.24475H159.316V5.88819C159.422 5.88819 159.478 5.99466 159.741 5.99466C160.008 6.10113 160.165 6.15668 160.202 6.26314C160.312 6.40433 160.402 6.56011 160.469 6.72605C160.469 6.99454 160.575 7.18896 160.575 7.58243V23.4231C160.596 23.7128 160.56 24.0037 160.469 24.2795C160.469 24.548 160.363 24.7053 160.202 24.7424C160.088 24.8878 159.923 24.9839 159.741 25.0109C159.61 25.08 159.464 25.1165 159.316 25.1173V25.7608H166.036L165.98 25.0664V25.1034Z" fill="#2F9A41"/>
<path d="M36.1521 7.38805C35.7232 6.80016 35.2989 6.21227 34.9254 5.61975L11.996 18.8404L0.927966 12.4708C0.67394 13.1581 0.51866 13.8782 0.466797 14.6094L12.1021 21.3725L36.1521 7.38805Z" fill="#2F9A41"/>
<path d="M11.9955 23.8166L0.106505 16.9656C0.0185265 17.387 -0.017101 17.8176 0.000436043 18.2478C0.000436043 23.4858 2.07342 28.5093 5.76334 32.2131C9.45327 35.9169 14.4579 37.9977 19.6762 37.9977C24.8946 37.9977 29.8992 35.9169 33.5891 32.2131C37.2791 28.5093 39.352 23.4858 39.352 18.2478C39.3741 15.1227 38.6431 12.0385 37.2214 9.25818L11.9955 23.8166Z" fill="#2F9A41"/>
<path d="M33.3241 3.96246C32.7638 3.43156 32.1757 2.93092 31.5624 2.46265L11.995 13.864L2.5595 8.45728C2.24129 9.04518 1.91847 9.68862 1.54492 10.383L11.889 16.3776L33.3241 3.96246Z" fill="#2F9A41"/>
<path d="M29.6448 1.18042C28.9042 0.735406 28.1338 0.342533 27.339 0.00463867L11.9959 8.87393L5.11984 4.98088C4.65867 5.44379 4.1975 6.0502 3.73633 6.63809L11.9451 11.3505L29.6448 1.18042Z" fill="#2F9A41"/>
</g>
<defs>
<clipPath id="clip0">
<path d="M0 0H200V38H0V0Z" fill="white"/>
</clipPath>
</defs>
</svg>
