<svg width="103" height="40" viewBox="0 0 103 40" fill="none" xmlns="http://www.w3.org/2000/svg">
<path d="M20.5127 1.84581C10.1835 1.84581 1.7168 10.0659 1.7168 20.0943C1.7168 30.1227 10.1835 38.3333 20.5127 38.3333C26.2107 38.3333 31.3607 35.8489 34.8031 31.9335C35.1744 31.5402 35.4603 31.0783 35.6439 30.5755C35.8274 30.0726 35.9048 29.539 35.8714 29.0065C35.8381 28.474 35.6946 27.9535 35.4497 27.4759C35.2047 26.9983 34.8633 26.5735 34.4456 26.2268C34.028 25.8801 33.5427 25.6186 33.0188 25.4578C32.4949 25.297 31.9429 25.2402 31.3959 25.2909C30.8489 25.3416 30.318 25.4986 29.8348 25.7527C29.3516 26.0068 28.9261 26.3527 28.5835 26.7699C26.6347 28.9866 23.7698 30.3834 20.5127 30.3834C14.6084 30.3834 9.90513 25.8267 9.90513 20.0943C9.90513 14.3619 14.6084 9.79565 20.5127 9.79565C23.6392 9.79565 26.3954 11.0876 28.3387 13.1525C28.6993 13.5454 29.1366 13.8649 29.6254 14.0925C30.1142 14.3201 30.6446 14.4511 31.186 14.4781C31.7273 14.5051 32.2688 14.4274 32.779 14.2496C33.2892 14.0718 33.7579 13.7973 34.158 13.4423C34.5581 13.0872 34.8816 12.6585 35.1097 12.1811C35.3378 11.7037 35.466 11.187 35.4869 10.6612C35.5077 10.1353 35.4207 9.61059 35.2311 9.11758C35.0414 8.62457 34.7528 8.17303 34.382 7.78917C30.9505 4.1431 25.9822 1.84581 20.5127 1.84581ZM41.2589 1.77844C40.7526 1.77149 40.2499 1.86231 39.7801 2.04562C39.3102 2.22892 38.8826 2.50106 38.522 2.84621C38.1614 3.19137 37.8751 3.60265 37.6797 4.05617C37.4843 4.50969 37.3836 4.9964 37.3836 5.488C37.3836 5.97961 37.4843 6.46632 37.6797 6.91983C37.8751 7.37335 38.1614 7.78464 38.522 8.12979C38.8826 8.47495 39.3102 8.74709 39.7801 8.93039C40.2499 9.1137 40.7526 9.20451 41.2589 9.19757H48.3889V33.9804C48.3809 34.5247 48.4845 35.065 48.6935 35.57C48.9025 36.0751 49.2129 36.5347 49.6065 36.9223C50.0001 37.3099 50.4691 37.6177 50.9863 37.8277C51.5034 38.0378 52.0585 38.146 52.6191 38.146C53.1797 38.146 53.7347 38.0378 54.2519 37.8277C54.7691 37.6177 55.2381 37.3099 55.6317 36.9223C56.0253 36.5347 56.3356 36.0751 56.5447 35.57C56.7537 35.065 56.8572 34.5247 56.8493 33.9804V9.19757H63.9793C64.4856 9.20451 64.9883 9.1137 65.4581 8.93039C65.928 8.74709 66.3556 8.47495 66.7162 8.12979C67.0767 7.78464 67.363 7.37335 67.5585 6.91983C67.7539 6.46632 67.8545 5.97961 67.8545 5.488C67.8545 4.9964 67.7539 4.50969 67.5585 4.05617C67.363 3.60265 67.0767 3.19137 66.7162 2.84621C66.3556 2.50106 65.928 2.22892 65.4581 2.04562C64.9883 1.86231 64.4856 1.77149 63.9793 1.77844H41.2589ZM85.9321 1.72876C75.6029 1.72876 67.1434 9.94181 67.1434 19.9702C67.1434 29.9986 75.6029 38.2117 85.9321 38.2117C91.6301 38.2117 96.7838 35.7264 100.226 31.811C100.593 31.4167 100.875 30.9549 101.056 30.4529C101.236 29.9509 101.31 29.419 101.275 28.8885C101.24 28.3581 101.095 27.8399 100.85 27.3646C100.604 26.8893 100.264 26.4667 99.8471 26.1216C99.4306 25.7765 98.9471 25.5161 98.4251 25.3556C97.9031 25.1952 97.3533 25.138 96.8081 25.1875C96.263 25.237 95.7336 25.3921 95.2513 25.6437C94.769 25.8953 94.3436 26.2383 94.0003 26.6524C92.0514 28.8691 89.1892 30.2626 85.9321 30.2626C80.0277 30.2626 75.331 25.7026 75.331 19.9702C75.331 14.2378 80.0277 9.67782 85.9321 9.67782C89.0586 9.67782 91.8181 10.9665 93.7615 13.0313C94.1243 13.4168 94.5619 13.7291 95.049 13.9504C95.5363 14.1717 96.0636 14.2977 96.6009 14.3212C97.1383 14.3446 97.6751 14.2651 98.1808 14.0871C98.6865 13.9091 99.1511 13.6362 99.5482 13.2839C99.9452 12.9316 100.267 12.5068 100.495 12.0338C100.723 11.5608 100.853 11.0488 100.877 10.5271C100.901 10.0054 100.819 9.4842 100.636 8.99325C100.452 8.50229 100.171 8.05119 99.8083 7.66572C96.3768 4.01966 91.4016 1.72876 85.9321 1.72876Z" fill="#FFCB08"/>
</svg>
