<svg width="16" height="26" viewBox="0 0 16 26" fill="none" xmlns="http://www.w3.org/2000/svg">
<path d="M12.2863 6.42857C12.2863 7.27278 12.1754 8.10873 11.96 8.88868C11.7447 9.66863 11.429 10.3773 11.031 10.9743C10.633 11.5712 10.1606 12.0447 9.64063 12.3678C9.12066 12.6909 8.56337 12.8571 8.00056 12.8571C7.43775 12.8571 6.88045 12.6909 6.36049 12.3678C5.84052 12.0447 5.36807 11.5712 4.9701 10.9743C4.57213 10.3773 4.25645 9.66863 4.04107 8.88868C3.8257 8.10873 3.71484 7.27278 3.71484 6.42857L8.00056 6.42857H12.2863Z" stroke="#1C0E42" stroke-linecap="round" stroke-linejoin="round"/>
<path d="M12.2863 19.2857C12.2863 18.4415 12.1754 17.6056 11.96 16.8256C11.7447 16.0457 11.429 15.337 11.031 14.7401C10.633 14.1431 10.1606 13.6696 9.64063 13.3465C9.12066 13.0235 8.56337 12.8572 8.00056 12.8572C7.43775 12.8572 6.88045 13.0235 6.36049 13.3465C5.84052 13.6696 5.36807 14.1431 4.9701 14.7401C4.57213 15.337 4.25645 16.0457 4.04107 16.8256C3.8257 17.6056 3.71484 18.4415 3.71484 19.2857L8.00056 19.2857H12.2863Z" stroke="#1C0E42" stroke-linecap="round" stroke-linejoin="round"/>
<line x1="2.5" y1="6.35718" x2="13.5" y2="6.35718" stroke="#1C0E42" stroke-linecap="round"/>
<line x1="2.5" y1="19.2144" x2="13.5" y2="19.2144" stroke="#1C0E42" stroke-linecap="round"/>
</svg>
