<svg width="16" height="17" viewBox="0 0 16 17" fill="none" xmlns="http://www.w3.org/2000/svg">
<path d="M4.64295 11.7057L3.5 15H12.5L11.3476 11.6786C11.158 11.132 10.8329 10.6359 10.4093 10.2418C9.06086 8.9871 6.9557 8.97169 5.60727 10.2264C5.16987 10.6334 4.83879 11.1413 4.64295 11.7057Z" stroke="#1C0E42"/>
<path d="M11.3429 6.23644L12.5 2.5L8 2.5H3.5L4.66591 6.26496C4.84627 6.84738 5.18096 7.37695 5.62732 7.79228C6.9549 9.02756 9.02815 9.04334 10.3557 7.80806C10.8164 7.3794 11.1568 6.83755 11.3429 6.23644Z" stroke="#1C0E42"/>
<line x1="2.5" y1="2.35718" x2="13.5" y2="2.35718" stroke="#1C0E42" stroke-linecap="round"/>
<line x1="2.5" y1="15.2144" x2="13.5" y2="15.2144" stroke="#1C0E42" stroke-linecap="round"/>
</svg>
