<svg width="200" height="21" viewBox="0 0 200 21" fill="none" xmlns="http://www.w3.org/2000/svg">
<g clip-path="url(#clip0)">
<path d="M8.00039 6.17173H0V1.08203H21.8263V6.17173H13.8259V20.1984H8.00039V6.17173Z" fill="black"/>
<path d="M44.1964 1.08203V20.1183H38.5651V9.01715L28.8559 20.1183H23.8848V1.08203H29.5161V12.1832L39.2253 1.08203H44.1964Z" fill="black"/>
<path d="M53.895 20.1584H48.2637V1.12218H53.895V8.01531H62.944V1.00195H68.5656V20.0382H62.944V13.0249H53.895V20.1584Z" fill="black"/>
<path d="M72.6445 20.1585V1.12219H78.2759V6.21189H84.0529C85.444 6.13748 86.8371 6.31378 88.1696 6.73288C89.4487 7.17863 90.5531 8.04093 91.3165 9.19007C92.0799 10.3392 92.4611 11.7131 92.4028 13.105C92.4517 14.6147 91.9959 16.0958 91.112 17.2998C90.2281 18.5038 88.9698 19.3575 87.5482 19.7176C86.3958 20.034 85.2062 20.1824 84.014 20.1585H72.6445ZM78.2759 15.5497H83.0819C83.8308 15.6189 84.5853 15.5233 85.2956 15.2691C85.7254 15.0866 86.0921 14.775 86.3484 14.3749C86.6046 13.9747 86.7384 13.5044 86.7326 13.0249C86.7393 12.5592 86.5989 12.104 86.3326 11.7281C86.0664 11.3521 85.6887 11.0758 85.2568 10.9409C84.5499 10.736 83.8148 10.6547 83.0819 10.7004H78.2759V15.5497Z" fill="black"/>
<path d="M100.625 20.1584H94.9941V1.12211H100.625V8.2557H102.179L108.975 1.08203H116.044L107.034 10.2194L116.393 20.1584H108.898L102.179 12.9446H100.625V20.1584Z" fill="black"/>
<path d="M140.191 10.6603C140.191 16.3511 135.648 20.7595 128.113 20.7595C120.579 20.7595 116.006 16.3511 116.006 10.6603C116.006 4.96943 120.54 0.561035 128.162 0.561035C135.784 0.561035 140.191 5.00951 140.191 10.6603ZM134.288 10.6603C134.288 7.53432 131.842 5.24997 128.113 5.24997C124.385 5.24997 121.938 7.53432 121.938 10.6603C121.938 13.7862 124.346 16.1107 128.113 16.1107C131.88 16.1107 134.288 13.7862 134.288 10.6603Z" fill="black"/>
<path d="M170.096 10.6202C170.096 16.0706 165.862 18.916 158.755 19.0763V21.0401H153.124V19.0363C146.056 18.876 141.832 16.0305 141.832 10.5802C141.832 5.12977 146.056 2.04389 153.124 1.88359V0H158.755V1.92366C165.862 2.08397 170.096 5.16985 170.096 10.6202ZM153.124 6.01145C149.24 6.17176 147.531 8.01527 147.531 10.5802C147.531 13.145 149.24 14.7882 153.124 14.9485V6.01145ZM164.348 10.5802C164.348 8.01527 162.678 6.17176 158.755 6.01145V15.0286C162.678 14.8282 164.348 13.1851 164.348 10.6202V10.5802Z" fill="black"/>
<path d="M200.01 10.6202C200.01 16.0706 195.776 18.916 188.669 19.0763V21.0401H183.038V19.0363C175.97 18.876 171.746 16.0305 171.746 10.5802C171.746 5.12977 175.97 2.04389 183.038 1.88359V0H188.669V1.92366C195.767 2.08397 200.01 5.16985 200.01 10.6202ZM183.028 6.01145C179.145 6.17176 177.436 8.01527 177.436 10.5802C177.436 13.145 179.145 14.7882 183.028 14.9485V6.01145ZM194.252 10.5802C194.252 8.01527 192.582 6.17176 188.66 6.01145V15.0286C192.582 14.8282 194.252 13.1851 194.252 10.6202V10.5802Z" fill="black"/>
</g>
<defs>
<clipPath id="clip0">
<path d="M0 0H200V21H0V0Z" fill="white"/>
</clipPath>
</defs>
</svg>
