<svg width="202" height="48" viewBox="0 0 202 48" fill="none" xmlns="http://www.w3.org/2000/svg">
<path d="M202 0H0V48H202V0Z" fill="#B732A3"/>
<path d="M33.6307 24.66C33.271 25.9548 32.9113 27.2137 32.5876 28.5086C32.084 30.343 31.6164 32.1414 31.1129 33.9759C31.0409 34.1917 30.969 34.2636 30.7532 34.2636C29.7101 34.2636 28.631 34.2636 27.5879 34.2636C27.3362 34.2636 27.2642 34.1917 27.1923 33.9399C26.1492 30.1632 25.1061 26.3505 24.099 22.5378C24.063 22.4659 24.063 22.3939 24.027 22.322C23.8832 22.2501 23.8832 22.1062 23.8472 21.9623C23.6674 21.3508 23.5235 20.7394 23.3436 20.0919C23.0559 21.135 22.8041 22.1422 22.5883 23.1853C22.5523 23.3651 22.4804 23.5809 22.3725 23.7248C22.0128 25.1995 21.6171 26.6742 21.2575 28.113C20.7899 30.0553 20.2863 31.9976 19.8187 33.9399C19.7468 34.1917 19.6748 34.2636 19.423 34.2636C18.4159 34.2636 17.3728 34.2636 16.3657 34.2636C16.1139 34.2636 16.042 34.1917 15.9701 33.9399C15.3586 31.7458 14.7831 29.5157 14.1716 27.3216C14.1716 27.2497 14.1357 27.2137 14.0997 27.1778C13.74 25.811 13.3803 24.4801 13.0206 23.1133C12.2653 20.3078 11.5099 17.5022 10.7186 14.7326C10.6467 14.4449 10.6827 14.3729 11.0064 14.3729C12.0495 14.4089 13.1285 14.3729 14.1716 14.3729C14.3874 14.3729 14.4953 14.4449 14.5313 14.6607C15.5025 18.3295 16.4736 21.9623 17.4448 25.6311C17.4807 25.739 17.5167 25.8469 17.5167 25.9189C17.6606 25.9908 17.6606 26.1347 17.6966 26.2786C17.8764 26.9979 18.0562 27.6813 18.2721 28.4367C18.4879 27.7533 18.5958 27.0339 18.7756 26.3865C18.8116 26.2426 18.8476 26.0627 18.9555 25.9548C19.2792 24.66 19.6029 23.3651 19.9266 22.1062C20.5381 19.6244 21.1495 17.1785 21.761 14.6966C21.797 14.4808 21.9049 14.4089 22.1207 14.4089C23.1278 14.4089 24.1709 14.4089 25.178 14.4089C25.3938 14.4089 25.5018 14.4808 25.5377 14.6966C26.0413 16.567 26.5448 18.4374 27.0844 20.3078C27.0844 20.3797 27.1203 20.4157 27.1563 20.4516C27.3002 20.5595 27.3002 20.7034 27.3362 20.8473C27.9836 23.2212 28.631 25.6311 29.3144 28.0051C29.3864 28.2209 29.4223 28.4367 29.4223 28.5806C29.4583 28.6885 29.4943 28.6525 29.4583 28.6525C29.4223 28.6525 29.4223 28.6525 29.4223 28.6525C29.3864 28.5086 29.4223 28.3647 29.4583 28.2568C29.9259 26.4584 30.3935 24.6959 30.8611 22.9335C30.8971 22.8256 30.933 22.6817 31.0409 22.6097C31.7243 20.02 32.4077 17.3943 33.0911 14.8045C33.1631 14.5168 33.271 14.4089 33.5947 14.4089C34.4939 14.4449 35.4291 14.4089 36.3643 14.4089C36.0765 15.452 35.8248 16.4591 35.537 17.4662C34.9255 19.8042 34.2781 22.1422 33.6666 24.5161C33.6307 24.5161 33.6307 24.588 33.6307 24.66Z" fill="#FEFEFE"/>
<path d="M58.916 30.9905C58.988 32.0335 58.952 33.0407 58.952 34.0838C58.952 34.2636 58.8441 34.2636 58.7002 34.2636C58.0168 34.2636 57.2974 34.2636 56.614 34.2636C56.3982 34.2636 56.1824 34.2636 55.9666 34.2636C53.0172 34.2636 50.0677 34.2636 47.0823 34.2636C46.7946 34.2636 46.7227 34.1917 46.7227 33.9039C46.7227 27.5015 46.7227 21.135 46.7227 14.7326C46.7227 14.4089 46.8306 14.3729 47.1183 14.3729C48.1254 14.3729 49.0966 14.3729 50.1037 14.3729C50.3915 14.3729 50.4994 14.4449 50.4994 14.7686C50.4994 17.5741 50.4994 20.3437 50.4994 23.1493C50.4994 23.2932 50.4994 23.437 50.4994 23.5809C50.4994 24.0845 50.4994 24.5521 50.4994 25.0556C50.6432 25.2355 50.6073 25.4153 50.6073 25.6311C50.6073 27.2137 50.6073 28.8323 50.6073 30.415C50.6073 30.9185 50.6073 30.9185 51.1108 30.9185C52.8014 30.9185 54.4559 30.9185 56.1465 30.9185C56.3263 30.9185 56.5061 30.8825 56.686 30.9905C57.4413 30.9905 58.1967 30.9905 58.916 30.9905Z" fill="#FEFEFE"/>
<path d="M42.0106 34.2636C41.0395 34.2636 40.1043 34.2636 39.1331 34.2636C39.0252 34.2636 38.8813 34.2995 38.7734 34.1916C38.7734 31.7098 38.7734 29.2279 38.7734 26.7461C38.7734 23.8686 38.7734 20.9911 38.7734 18.1136C38.7734 16.9626 38.7734 15.8116 38.7734 14.6606C38.7734 14.4089 38.8094 14.3369 39.0972 14.3369C40.0683 14.3729 41.0754 14.3729 42.0466 14.3369C42.3343 14.3369 42.3703 14.4448 42.3703 14.6966C42.3703 18.5812 42.3703 22.4658 42.3703 26.3864C42.3703 26.5303 42.3703 26.6742 42.3703 26.818C42.4422 26.89 42.4422 26.9619 42.4422 27.0339C42.4422 27.8252 42.5142 28.6165 42.3703 29.4078C42.3703 30.8825 42.3343 32.3932 42.3703 33.8679C42.4063 34.1916 42.3343 34.2995 42.0106 34.2636Z" fill="#FEFEFE"/>
<path d="M180.098 19.6603C180.134 20.3077 180.53 20.7034 180.997 21.0631C181.573 21.4587 182.184 21.6386 182.868 21.8184C184.45 22.25 186.069 22.5378 187.615 23.0773C189.702 23.7967 190.996 25.1994 191.284 27.3935C191.68 30.343 190.349 32.6809 187.507 33.796C184.378 34.9829 181.285 34.875 178.264 33.3284C176.789 32.573 175.854 31.2782 175.35 29.7315C175.278 29.5517 175.314 29.4437 175.53 29.4078C176.537 29.192 177.544 28.9762 178.551 28.7603C178.659 28.7244 178.767 28.6884 178.803 28.8683C179.235 30.5228 180.422 31.2782 181.968 31.5299C183.191 31.7457 184.414 31.7817 185.601 31.3501C186.464 31.0264 187.184 30.5228 187.436 29.5517C187.723 28.4726 187.184 27.3216 186.141 26.854C185.313 26.4584 184.414 26.3145 183.551 26.0987C182.328 25.739 181.069 25.4872 179.882 25.0915C178.767 24.6959 177.832 24.1204 177.184 23.1133C176.357 21.6745 176.105 20.1638 176.465 18.5452C176.933 16.6389 178.228 15.4519 179.99 14.6966C180.566 14.4448 181.177 14.3369 181.788 14.193C182.832 14.0851 183.839 14.0492 184.882 14.193C186.572 14.4448 188.119 15.0203 189.342 16.2433C189.881 16.7828 190.241 17.4302 190.457 18.1496C190.529 18.3294 190.493 18.4014 190.277 18.4733C189.306 18.7251 188.299 18.9769 187.328 19.1927C187.184 19.2287 187.076 19.2287 187.04 19.0848C186.428 17.5741 185.17 17.0705 183.659 16.9986C182.939 16.9626 182.256 17.0346 181.573 17.3223C181.285 17.4302 181.033 17.5741 180.817 17.7899C180.458 18.2575 180.17 18.7611 180.062 19.3366C180.062 19.4085 180.026 19.5524 180.098 19.6603Z" fill="#FEFEFE"/>
<path d="M172.578 34.2636C172.434 34.2636 172.29 34.2636 172.146 34.2636C168.693 34.2636 165.204 34.2636 161.751 34.2636C161.463 34.2636 161.355 34.1917 161.355 33.8679C161.355 31.2063 161.355 28.5446 161.355 25.9189C161.355 25.775 161.355 25.6311 161.355 25.4872C161.355 25.1995 161.355 24.9477 161.355 24.66C161.355 21.3508 161.355 18.0417 161.355 14.7326C161.355 14.4449 161.427 14.3729 161.715 14.3729C165.744 14.3729 169.772 14.3729 173.801 14.3729C174.088 14.3729 174.16 14.4449 174.16 14.7326C174.124 15.488 174.124 16.2433 174.16 16.9986C174.16 17.2864 174.088 17.3943 173.801 17.3943C170.995 17.3943 168.19 17.3943 165.384 17.3943C165.06 17.3943 164.952 17.4662 164.952 17.8259C164.988 19.3726 164.952 20.9192 164.952 22.4659C164.952 22.7177 165.024 22.7896 165.276 22.7896C167.506 22.7896 169.7 22.7896 171.93 22.7896C172.254 22.7896 172.362 22.8615 172.362 23.1853C172.326 23.8687 172.326 24.588 172.362 25.2714C172.362 25.5951 172.29 25.7031 171.966 25.7031C169.772 25.7031 167.578 25.7031 165.384 25.7031C165.024 25.7031 164.916 25.811 164.988 26.1347C165.024 26.3145 164.988 26.5303 164.988 26.7102C165.096 26.8541 165.096 27.0699 165.096 27.2497C165.096 28.4007 165.096 29.5157 165.096 30.6667C165.096 31.0984 165.132 31.1343 165.564 31.1343C166.967 31.1343 168.405 31.1343 169.808 31.1343C169.988 31.1343 170.168 31.0984 170.348 31.2422C171.535 31.2422 172.758 31.2422 173.945 31.2422C174.196 31.2422 174.304 31.2782 174.304 31.5659C174.268 32.3932 174.304 33.2205 174.304 34.0838C174.304 34.2996 174.268 34.3715 174.016 34.3715C173.549 34.2636 173.081 34.2636 172.578 34.2636Z" fill="#FEFEFE"/>
<path d="M157.076 22.5738C157.076 22.7177 157.076 22.8615 157.076 23.0054C157.076 26.6382 157.076 30.2711 157.076 33.8679C157.076 34.1557 157.004 34.2636 156.68 34.2636C156.177 34.2276 155.637 34.2636 155.134 34.2636C154.666 34.2636 154.198 34.2276 153.767 34.2636C153.551 34.2636 153.479 34.1917 153.479 33.9759C153.479 32.8608 153.479 31.7098 153.479 30.5948C153.407 30.2351 153.371 29.8754 153.371 29.4798C153.371 27.8612 153.371 26.2426 153.371 24.588C153.371 24.4082 153.335 24.1924 153.479 24.0125C153.479 21.4947 153.479 18.9769 153.479 16.4591C153.479 15.8476 153.515 15.2362 153.479 14.6607C153.479 14.4449 153.551 14.3729 153.767 14.3729C154.774 14.3729 155.781 14.3729 156.788 14.3729C157.04 14.3729 157.076 14.4808 157.076 14.6966C157.076 17.2145 157.076 19.6963 157.076 22.2141C157.076 22.322 157.076 22.4659 157.076 22.5738Z" fill="#FEFEFE"/>
<path d="M99.1649 18.4734C99.1649 17.2504 99.2008 16.0275 99.1649 14.8045C99.1649 14.4808 99.2368 14.3729 99.5605 14.3729C102.438 14.3729 105.316 14.3729 108.229 14.3729C108.373 14.3729 108.517 14.3729 108.661 14.3729C109.668 14.3729 110.675 14.3729 111.682 14.3729C111.934 14.3729 112.006 14.4449 111.97 14.6966C111.97 15.488 111.97 16.2433 111.97 17.0346C111.97 17.2864 111.898 17.3943 111.61 17.3943C110.351 17.3943 109.056 17.3943 107.797 17.3943C107.653 17.5382 107.438 17.5022 107.258 17.5022C105.963 17.5022 104.668 17.5022 103.409 17.5022C102.906 17.5022 102.906 17.5022 102.906 18.0058C102.906 19.3726 102.906 20.7753 102.906 22.1422C102.906 22.6097 102.942 22.6097 103.409 22.6097C104.057 22.6097 104.74 22.6097 105.387 22.6097C106.934 22.5738 108.481 22.7536 109.991 22.6817C110.063 22.6817 110.099 22.6817 110.135 22.7177C110.135 23.6528 110.135 24.588 110.135 25.5592C109.56 25.5592 108.948 25.5951 108.373 25.5951C106.646 25.5951 104.884 25.5951 103.157 25.5951C102.834 25.5951 102.726 25.6671 102.726 25.9908C102.726 27.6094 102.762 29.228 102.726 30.8466C102.726 31.1343 102.87 31.0984 103.085 31.0984C105.963 31.0984 108.804 31.0984 111.682 31.0984C112.006 31.0984 112.078 31.1703 112.078 31.494C112.042 32.2853 112.042 33.0766 112.078 33.8679C112.078 34.1557 112.006 34.2276 111.718 34.2276C108.481 34.2276 105.244 34.2276 101.97 34.2276C101.827 34.2276 101.719 34.2276 101.575 34.2276C100.891 34.2276 100.208 34.1917 99.5246 34.2276C99.2008 34.2276 99.1289 34.1557 99.1289 33.832C99.1289 28.8683 99.1289 23.8687 99.1289 18.905C99.2008 18.7971 99.2008 18.6172 99.1649 18.4734Z" fill="#FEFEFE"/>
<path d="M95.8933 28.1489C95.6775 26.3145 94.7063 24.9837 92.9799 24.3003C92.6202 24.1564 92.2605 24.0845 91.8289 23.9406C92.5482 23.7607 93.1957 23.473 93.7352 23.0054C95.0301 21.8544 95.4257 20.3797 95.2099 18.6892C94.9941 16.9627 93.6273 15.0563 91.649 14.6607C90.8577 14.4808 90.0304 14.3729 89.2031 14.3729C87.4047 14.3729 85.6063 14.3729 83.8078 14.3729C83.0165 14.3729 82.2252 14.4089 81.4339 14.3729C81.1462 14.3729 81.0742 14.4449 81.0742 14.7326C81.1102 15.0204 81.0742 15.2721 81.0742 15.5599C81.0742 15.7038 81.0742 15.8476 81.0742 15.9915C81.0742 21.9623 81.0742 27.9331 81.0742 33.9039C81.0742 34.1917 81.1462 34.2996 81.4699 34.2996C83.8798 34.2996 86.3256 34.2996 88.7355 34.2996C89.419 34.2996 90.1024 34.2996 90.7858 34.2276C91.9008 34.1197 92.9439 33.8679 93.8431 33.1845C95.4977 31.9256 96.1091 30.1632 95.8933 28.1489ZM84.4912 19.9481C84.4912 19.1568 84.4912 18.3654 84.4912 17.5382C84.4912 17.3224 84.5272 17.2144 84.779 17.2144C86.1818 17.2144 87.5486 17.2144 88.9514 17.2144C89.4909 17.2144 89.9945 17.3583 90.462 17.6101C91.5051 18.1856 91.9368 19.1568 91.685 20.5236C91.4692 21.6386 90.5699 22.5018 89.4549 22.6457C88.5557 22.7536 87.6205 22.6817 86.7213 22.7177C86.0739 22.7177 85.4624 22.7177 84.815 22.7177C84.5632 22.7177 84.4912 22.6457 84.4912 22.3939C84.5272 21.6026 84.4912 20.7753 84.4912 19.9481ZM89.6707 31.2063C88.0162 31.2782 86.3976 31.2422 84.743 31.2422C84.5272 31.2422 84.4912 31.1343 84.4912 30.9545C84.4912 30.0912 84.4912 29.228 84.4912 28.4007C84.4912 27.5734 84.4912 26.7102 84.4912 25.8829C84.4912 25.6671 84.5632 25.5951 84.779 25.5951C86.2897 25.5951 87.8004 25.5951 89.311 25.5951C90.7858 25.6311 91.9008 26.4224 92.2245 27.7173C92.6561 29.4798 91.5051 31.1343 89.6707 31.2063Z" fill="#FEFEFE"/>
<path d="M77.295 20.8832C76.5756 18.4013 75.1009 16.459 72.7629 15.2361C72.2234 14.9484 71.6479 14.8045 71.0724 14.6246C70.2091 14.4808 69.3099 14.3729 68.4107 14.4088C67.4036 14.4448 66.3965 14.4088 65.3893 14.4088C64.2383 14.4088 63.0873 14.4448 61.9004 14.4088C61.5767 14.4088 61.4688 14.4808 61.4688 14.8404C61.4688 20.4875 61.4688 26.1346 61.4688 31.7817C61.4688 32.6449 61.4688 33.4722 61.4688 34.3355C62.4759 34.3355 63.483 34.3355 64.5261 34.3355C66.1806 34.2995 67.8352 34.3714 69.4898 34.2635C69.5617 34.2635 69.6336 34.2276 69.7056 34.2276C72.5831 33.9038 74.8491 32.573 76.3238 30.0552C78.0143 27.1058 78.1942 24.0125 77.295 20.8832ZM73.1945 28.005C72.1874 30.1271 70.5329 31.2781 68.1589 31.3141C67.2957 31.3141 66.4324 31.3141 65.5692 31.3141C65.2814 31.3141 65.1735 31.2422 65.1735 30.9184C65.1735 28.6884 65.1735 26.4583 65.1735 24.2283C65.1735 21.9982 65.1735 19.7682 65.1735 17.5381C65.1735 17.2863 65.2455 17.1784 65.4972 17.1784C66.4684 17.2144 67.4755 17.2144 68.4467 17.1784C70.1732 17.1424 71.504 17.8978 72.4752 19.3006C73.3384 20.5235 73.77 21.9263 73.842 23.437C73.9499 25.0196 73.8779 26.5662 73.1945 28.005Z" fill="#FEFEFE"/>
<path d="M148.407 30.7027C147.868 29.3718 147.364 28.041 146.861 26.7101C146.717 26.3864 146.609 26.0987 146.465 25.7749C146.357 25.5591 146.393 25.4512 146.645 25.3433C148.048 24.7319 149.091 23.7607 149.594 22.286C149.882 21.4227 149.954 20.5595 149.918 19.6962C149.81 17.3223 148.335 15.4879 146.069 14.7685C145.314 14.5168 144.523 14.3729 143.696 14.3729C140.71 14.3369 137.689 14.3729 134.703 14.3369C134.38 14.3369 134.308 14.4448 134.308 14.7326C134.308 20.9551 134.308 27.1418 134.308 33.3643C134.308 33.5082 134.308 33.6521 134.308 33.8319C134.2 34.1916 134.272 34.3355 134.631 34.3355C134.739 34.3355 134.847 34.3355 134.955 34.3355C135.818 34.2995 136.718 34.2276 137.581 34.2636C137.941 34.2636 138.012 34.2276 138.048 33.8319C138.048 33.6881 138.048 33.5442 138.048 33.4003C138.048 31.1343 138.048 28.8323 138.048 26.5663C138.048 26.1346 138.084 26.0987 138.516 26.0987C139.811 26.0987 141.106 26.0987 142.365 26.0987C142.832 26.0987 142.832 26.1346 143.012 26.5663C143.624 28.1129 144.199 29.6955 144.775 31.2422C144.847 31.3861 144.882 31.5659 145.026 31.6738C145.314 32.4292 145.602 33.1845 145.89 33.9398C145.962 34.1197 146.033 34.1916 146.249 34.1916C147.328 34.1916 148.407 34.1916 149.486 34.1916C149.774 34.1916 149.774 34.0837 149.702 33.8679C149.271 32.8608 148.839 31.7817 148.407 30.7027ZM145.997 21.2069C145.674 22.322 144.811 22.8615 143.731 23.0773C143.3 23.1852 142.832 23.2212 142.401 23.2212C141.034 23.2212 139.631 23.2212 138.264 23.2212C138.012 23.2212 137.905 23.1492 137.905 22.8615C137.941 21.9982 137.905 21.099 137.905 20.2358C137.905 19.3725 137.905 18.4733 137.905 17.6101C137.905 17.3583 137.941 17.2504 138.228 17.2504C139.775 17.2504 141.322 17.2504 142.868 17.2504C143.839 17.2504 144.775 17.5022 145.494 18.2575C146.249 19.1207 146.321 20.1638 145.997 21.2069Z" fill="#FEFEFE"/>
<path d="M130.351 33.3644C130.171 32.9687 129.991 32.5731 129.883 32.1774C129.847 32.0695 129.775 31.9976 129.739 31.8897C128.912 29.8394 128.121 27.7892 127.293 25.775C127.185 25.5232 127.257 25.4153 127.473 25.3074C128.696 24.7679 129.667 23.9406 130.243 22.7176C130.638 21.8184 130.782 20.8473 130.746 19.8761C130.638 17.8259 129.775 16.1714 127.905 15.1642C126.862 14.6247 125.711 14.3729 124.56 14.3729C121.43 14.337 118.301 14.3729 115.172 14.3729C115.172 19.7682 115.172 25.1635 115.172 30.5228C115.172 31.6379 115.172 32.7889 115.172 33.9039C115.172 34.1917 115.244 34.2636 115.532 34.2276C116.503 34.2276 117.438 34.2276 118.409 34.2276C118.697 34.2276 118.733 34.1557 118.733 33.8679C118.733 31.3501 118.733 28.8323 118.733 26.3145C118.733 26.0627 118.805 25.9908 119.056 25.9908C120.531 25.9908 122.006 25.9908 123.517 25.9908C123.625 25.9908 123.732 25.9548 123.804 26.0627C123.732 26.2066 123.804 26.3145 123.84 26.4224C124.704 28.6884 125.531 30.9185 126.394 33.1845C126.43 33.3284 126.466 33.4723 126.61 33.5802C126.718 34.1557 127.077 34.2996 127.617 34.1917C127.689 34.1917 127.725 34.1917 127.797 34.1917C128.66 34.1917 129.523 34.1917 130.387 34.1917C130.638 34.1917 130.674 34.1197 130.566 33.9039C130.495 33.796 130.423 33.5802 130.351 33.3644ZM126.898 21.171C126.574 22.286 125.747 22.8256 124.668 23.0773C124.236 23.1852 123.804 23.2212 123.373 23.2212C121.934 23.2212 120.531 23.2212 119.092 23.2212C118.841 23.2212 118.769 23.1493 118.769 22.8975C118.769 21.9983 118.769 21.0991 118.769 20.2358C118.769 19.3366 118.769 18.4374 118.769 17.5382C118.769 17.3943 118.733 17.2504 118.985 17.2504C120.783 17.2864 122.581 17.1425 124.38 17.3224C126.358 17.5022 127.473 19.2647 126.898 21.171Z" fill="#FEFEFE"/>
</svg>
