<svg width="132" height="50" viewBox="0 0 132 50" fill="none" xmlns="http://www.w3.org/2000/svg">
<g clip-path="url(#clip0)">
<path d="M13.1015 27.0885L5.5284 43.92H0L8.33046 25.9384C4.40757 23.9754 1.80241 20.3941 1.80241 13.8196C1.80241 4.60778 7.69811 0 14.7146 0H21.8561V43.92H17.0737V27.0885H13.1015ZM17.0737 3.99341H14.5291C10.6781 3.99341 6.95594 6.51083 6.95594 13.8196C6.95594 20.8848 10.3639 23.1588 14.5291 23.1588H17.0737V3.99341Z" fill="#FF0000"/>
<path d="M44.8902 12.9617V43.92H40.1115V30.0367H32.917V43.92H28.0664V12.9617H32.9056V26.107H40.1001V12.9617H44.8902ZM69.7869 50H65.4437V43.92H52.0316V50H47.6847V39.9902H49.6044C52.4633 33.4157 52.7738 23.833 52.7738 15.6027V12.9804H67.3029V40.009H69.7831L69.7869 50ZM62.5242 16.8315H57.1208V17.3822C57.1208 23.893 56.8103 33.4157 54.2051 39.9902H62.5356L62.5242 16.8315ZM83.1384 44.3508C76.6785 44.3508 72.7063 39.2522 72.7063 29.7407C72.7063 19.7909 75.5008 12.5421 82.1425 12.5421C87.3604 12.5421 90.7759 16.4119 90.7759 26.9161V29.5572H77.7349C77.7349 36.5588 79.7229 40.245 83.57 40.245C86.3039 40.245 88.4926 39.0162 89.7194 38.1584L90.8365 41.8408C88.63 43.5124 85.9171 44.397 83.1384 44.3508ZM77.7993 25.62H85.8079C85.8079 20.3341 84.937 16.4644 82.1425 16.4644C79.1624 16.4606 78.1098 20.0869 77.7993 25.6162V25.62ZM100.583 28.5045V43.9237H95.7401V12.9617H100.583V27.272L108.096 12.9617H113.018L105.256 27.5193L114.135 43.92H108.842L100.583 28.5045ZM114.734 28.4408C114.734 18.7345 118.52 12.5309 125.847 12.5309C128.642 12.5309 130.255 13.2801 131.622 14.1267L130.94 18.6746C129.634 17.5507 127.771 16.5243 125.787 16.5243C122.307 16.5243 119.823 20.3941 119.823 28.1936C119.823 35.9331 121.686 40.3574 125.597 40.3574C127.533 40.3827 129.41 39.7057 130.876 38.4543L132.012 42.0169C130.216 43.5819 127.887 44.4157 125.495 44.3508C118.778 44.3508 114.734 39.005 114.734 28.4408Z" fill="black"/>
</g>
<defs>
<clipPath id="clip0">
<path d="M0 0H132V50H0V0Z" fill="white"/>
</clipPath>
</defs>
</svg>
