<svg width="169" height="102" fill="none" xmlns="http://www.w3.org/2000/svg"><path d="M24.405 1.004a2.396 2.396 0 00-.913.121A42.789 42.789 0 0019.183 2.9l-.01.005c-.572.275-.633.727-.148 1.001l17.324 9.88c-.023.052-.032.099-.046.15-2.432.815-4.17 2.217-4.384 3.829-.037.252-.019.49.019.727a1 1 0 01-.024-.117v1.244a2.411 2.411 0 00-.274 1.076l.004 4.49c-1.835 1.095-3.046 2.498-3.265 4.035-.038 1.407-.038 5.18-.038 8.841.005 1.696 1.323 3.205 3.452 4.281.755 2.031 4.03 3.545 8.171 3.545 2.031 0 3.918-.377 5.478-.987l11.744 7.397L37.76 63.32c-.14-.075-.275-.159-.429-.224-1.859-.768-4.5-.638-6.317.387a4.519 4.519 0 00-.717.498c-.075.06-.126.126-.191.191-.121.121-.242.238-.335.364-.024.028-.047.06-.07.093-1.775.657-3.224 1.635-4.081 2.809l-1.127-.406c-.601-.214-1.393-.149-1.943.159L1.626 78.943c-.624.35-.815.908-.42 1.314a25.488 25.488 0 003.643 3.065l.01.009c.577.4 1.63.391 2.334-.014l16.89-9.638c-.018.14-.041.28-.041.424v3.694c-2.04 1.397-3.4 3.177-3.68 5.124a4.86 4.86 0 00-.038.997h-.018v8.455c0 2.343 1.924 4.393 4.891 5.715 1.57 1.743 4.598 2.912 8.24 2.912 4.147 0 7.84-1.514 9.639-3.666 2.925-1.565 4.844-3.778 4.844-6.21v-2.66l18.172-8.93v6.322c0 2.199 1.668 3.987 3.806 4.22a3.804 3.804 0 003.746 3.163H95.49a3.804 3.804 0 003.746-3.163c2.133-.233 3.805-2.021 3.805-4.22v-6.322l18.173 8.93v2.66c0 2.432 1.919 4.645 4.844 6.21 1.794 2.152 5.492 3.666 9.634 3.666 3.642 0 6.67-1.17 8.245-2.912 2.967-1.322 4.891-3.372 4.891-5.715v-8.455h-.019a4.79 4.79 0 00-.037-.997c-.279-1.947-1.644-3.727-3.685-5.124v-3.694c0-.145-.023-.284-.041-.424l16.891 9.638c.708.405 1.756.415 2.333.01l.01-.005a25.542 25.542 0 003.643-3.07c.396-.4.209-.96-.415-1.31L146.584 67.19c-.55-.308-1.346-.373-1.943-.159l-1.127.401c-.862-1.17-2.306-2.147-4.081-2.804l-.07-.098c-.088-.117-.205-.224-.312-.335-.074-.075-.135-.15-.219-.22a4.189 4.189 0 00-.717-.493 5.81 5.81 0 00-.825-.387 7.725 7.725 0 00-1.84-.438c-1.271-.149-2.585 0-3.647.438-.154.065-.289.15-.429.224l-19.425-11.027 11.744-7.392c1.556.61 3.447.987 5.478.987 4.141 0 7.411-1.509 8.166-3.54 2.134-1.076 3.447-2.576 3.447-4.253V29.22h-.028c-.223-1.542-1.43-2.944-3.27-4.039l.005-4.486c0-.368-.098-.727-.27-1.071v-1.249c-.005.047-.019.093-.028.145.042-.247.056-.499.023-.755-.219-1.612-1.952-3.019-4.384-3.83-.018-.05-.028-.097-.046-.148l17.324-9.88c.485-.28.424-.727-.149-1.002l-.009-.005a43.327 43.327 0 00-4.309-1.775c-.564-.195-1.295-.158-1.724.084l-15.074 8.464c-.415.233-.471.592-.135.88l1.751 1.496c.042.037.061.08.093.121-1.742-.545-3.95-.438-5.329.34-.624.354-.983.792-1.09 1.254-2.576.768-4.253 2.259-4.094 4.001 0 .01 0 .019.004.023v.988l-14.427 8.184c-.545.313-.535.816.042 1.128l.005.005c1.393.75 2.874 1.43 4.416 2.03.587.229 1.374.182 1.859-.097l5.082-2.93c-.382.661-.573 1.374-.512 2.124.046.54.223 1.062.498 1.565L95.021 40.894H74.109L52.127 30.785c.275-.503.452-1.025.494-1.565.06-.75-.13-1.458-.513-2.124l5.087 2.93c.48.28 1.272.326 1.859.098a39.013 39.013 0 004.411-2.031l.014-.005c.573-.312.582-.815.038-1.128L49.09 18.776v-.974c0-.014.004-.023.004-.037.163-1.742-1.523-3.228-4.094-4.002-.108-.46-.466-.899-1.095-1.253-1.374-.778-3.582-.885-5.325-.34.033-.037.052-.084.098-.12l1.747-1.496c.34-.284.284-.648-.135-.88L25.216 1.208c-.215-.12-.503-.19-.81-.205zm112.741 17.758c-.019.06-.042.116-.061.177.019-.06.042-.117.061-.177zm-105.152.014c.009.042.028.084.041.126-.013-.042-.032-.084-.041-.126zm104.998.41l-.014.032v-.004l.014-.028zM55.621 44.015l7.145 5.035-.172 2.404c-.275-.177-.526-.359-.815-.531l-.01-.005a1.79 1.79 0 00-.586-.205l.172-2.46-5.734-4.238zm57.828.046l-5.674 4.193.177 2.46a1.77 1.77 0 00-.591.204l-.01.005c-.284.172-.54.354-.81.531l-.173-2.404 7.081-4.989zM62.226 56.587l-.172 2.427L43.5 71.462v-2.068c.172-1.863-1.142-3.508-3.298-4.537.274 0 .55.028.796.117l3.126 1.099c.61.214 1.397.149 1.933-.159l16.17-9.325zm44.678 0l16.174 9.326c.536.308 1.323.373 1.933.159l3.126-1.1c.247-.088.522-.116.796-.116-2.156 1.03-3.47 2.674-3.302 4.537 0-.023.004 1.067 0 2.064l-18.55-12.442-.177-2.428z" fill="#fff" stroke="#0FB3E9"/><path d="M98.775 90.123H70.36a4.265 4.265 0 01-4.267-4.263v-3.899h36.945v3.9a4.265 4.265 0 01-4.263 4.262z" fill="#fff" stroke="#0FB3E9"/><path d="M66.093 81.961h36.945v1.84H66.093v-1.84z" fill="#fff" stroke="#0FB3E9"/><path d="M95.491 93.24H73.644a3.808 3.808 0 01-3.81-3.807v-7.472h29.463v7.472a3.807 3.807 0 01-3.806 3.806z" fill="#fff" stroke="#0FB3E9"/><path d="M69.833 81.961h29.464v1.84H69.833v-1.84zm19.458 9.853H79.84a3.113 3.113 0 01-3.116-3.117v-.312a3.117 3.117 0 013.116-3.12h9.452a3.121 3.121 0 013.121 3.12v.312a3.117 3.117 0 01-3.12 3.117z" fill="#fff" stroke="#0FB3E9"/><path d="M88.387 88.54c0 1.983-1.71 3.586-3.82 3.586s-3.824-1.603-3.824-3.587c0-1.98 1.714-3.587 3.824-3.587s3.82 1.607 3.82 3.587z" fill="#fff" stroke="#0FB3E9"/><path d="M88.047 88.539c0 1.807-1.556 3.27-3.48 3.27-1.923 0-3.484-1.463-3.484-3.27 0-1.803 1.56-3.27 3.484-3.27s3.48 1.467 3.48 3.27z" fill="#fff" stroke="#0FB3E9"/><path d="M86.738 88.81c0 1.126-.973 2.04-2.17 2.04-1.202 0-2.176-.913-2.176-2.04 0-1.128.974-2.041 2.175-2.041 1.198 0 2.171.913 2.171 2.04z" fill="#fff" stroke="#0FB3E9"/><path d="M89.291 84.458H79.84a3.933 3.933 0 00-3.927 3.927v.312a3.932 3.932 0 003.927 3.923h9.452a3.93 3.93 0 003.927-3.923v-.312a3.93 3.93 0 00-3.927-3.927zm0 .806a3.121 3.121 0 013.121 3.121v.312a3.117 3.117 0 01-3.12 3.117h-9.453a3.113 3.113 0 01-3.116-3.117v-.312a3.117 3.117 0 013.116-3.12h9.452zM31.64 41.099c.349-2.595 4.55-4.677 9.386-4.677 4.835 0 8.567 2.082 8.334 4.677-.238 2.632-4.444 4.788-9.396 4.788-4.952 0-8.678-2.157-8.324-4.788zM33.438 101c-5.642 0-9.834-2.795-9.373-6.2.457-3.35 5.269-6.033 10.756-6.033 5.483 0 9.69 2.684 9.387 6.033-.308 3.405-5.13 6.2-10.77 6.2zm104.053-59.901c-.35-2.595-4.551-4.677-9.382-4.677-4.835 0-8.571 2.082-8.339 4.677.238 2.632 4.445 4.788 9.396 4.788 4.957 0 8.679-2.157 8.325-4.788zM135.693 101c5.641 0 9.833-2.795 9.372-6.2-.456-3.35-5.268-6.033-10.751-6.033-5.488 0-9.694 2.684-9.392 6.033.308 3.405 5.134 6.2 10.771 6.2zm-33.647-32.632H67.089c-3.125 0-5.44-3.009-5.184-6.638l.917-12.768c.233-3.275 2.754-5.874 5.632-5.874h32.222c2.879 0 5.399 2.599 5.637 5.874l.913 12.768c.26 3.63-2.059 6.638-5.18 6.638z" fill="#fff" stroke="#0FB3E9"/><path d="M37.136 30.99l7.365-3.713 46.882 21.564-16.034 9.074L37.136 30.99z" fill="#fff" stroke="#0FB3E9"/><path d="M28.379 29.22c.508-3.54 6.251-6.368 12.838-6.368 6.582 0 11.693 2.828 11.404 6.368-.294 3.61-6.052 6.587-12.862 6.587-6.806 0-11.897-2.977-11.38-6.587zm9.279 55.89l-7.356-4.793L74.665 50.55l16.034 9.154-53.04 25.406z" fill="#fff" stroke="#0FB3E9"/><path d="M33.172 91.45c-7.751 0-13.486-3.857-12.815-8.525.657-4.574 7.24-8.217 14.706-8.217 7.472 0 13.23 3.643 12.853 8.218-.382 4.667-6.988 8.524-14.744 8.524zm10.356-55.955a22.9 22.9 0 01-3.769.312c-6.377 0-11.255-2.614-11.418-5.944v8.203c.005 3.317 5.04 5.944 11.418 5.944a22.9 22.9 0 003.769-.312l17.37 10.938.457-6.378-5.74-4.248-12.087-8.515z" fill="#fff" stroke="#0FB3E9"/><path d="M66.726 71.28l-19.248 9.125a5.07 5.07 0 01.438 2.52c-.382 4.668-6.988 8.525-14.74 8.525-7.196 0-12.642-3.321-12.856-7.532l-.014.004v8.45c0 4.086 5.818 7.282 12.87 7.282 7.752 0 14.74-3.871 14.74-8.53V88.47l18.81-9.247V71.28zm65.268-40.29l-7.365-3.713-46.881 21.564 16.034 9.074 38.212-26.925z" fill="#fff" stroke="#0FB3E9"/><path d="M140.752 29.22c-.508-3.54-6.252-6.368-12.834-6.368-6.587 0-11.697 2.828-11.408 6.368.293 3.61 6.051 6.587 12.861 6.587 6.806 0 11.898-2.977 11.381-6.587zm-9.275 55.89l7.351-4.793L94.466 50.55l-16.033 9.154 53.044 25.406z" fill="#fff" stroke="#0FB3E9"/><path d="M135.958 91.45c7.756 0 13.486-3.857 12.815-8.525-.657-4.574-7.239-8.217-14.706-8.217-7.472 0-13.23 3.643-12.852 8.218.382 4.667 6.987 8.524 14.743 8.524zm-10.355-55.955c1.197.2 2.464.312 3.768.312 6.382 0 11.255-2.614 11.413-5.916v8.203c0 3.289-5.035 5.916-11.413 5.916-1.304 0-2.571-.112-3.768-.312l-17.371 10.938-.457-6.378 5.739-4.248 12.089-8.515zm15.149-6.271l.032-.004v.67c.01-.218 0-.442-.032-.666z" fill="#fff" stroke="#0FB3E9"/><path d="M102.404 71.28l19.248 9.125a5.12 5.12 0 00-.437 2.52c.381 4.668 6.987 8.525 14.743 8.525 7.193 0 12.638-3.321 12.852-7.532l.014.004v8.45c0 4.086-5.813 7.282-12.866 7.282-7.756 0-14.743-3.871-14.743-8.53V88.47l-18.811-9.247V71.28z" fill="#fff" stroke="#0FB3E9"/><path d="M66.093 71.81h36.945v10.151H66.093v-10.15z" fill="#fff" stroke="#0FB3E9"/><path d="M67.397 73.972h34.336V79.8H67.397v-5.828zm34.649-6.284H67.089c-3.125 0-5.44-3.004-5.184-6.638l.917-12.768c.233-3.27 2.754-5.87 5.632-5.87h32.222c2.879 0 5.399 2.6 5.637 5.87l.913 12.768c.26 3.634-2.059 6.638-5.18 6.638z" fill="#fff" stroke="#0FB3E9"/><path d="M98.272 60.375H70.858c-2.446 0-4.304-2.199-4.146-4.868l.568-9.508c.145-2.46 2.125-4.425 4.426-4.425h25.723c2.297 0 4.276 1.965 4.425 4.425l.564 9.508c.159 2.669-1.696 4.868-4.146 4.868z" fill="#fff" stroke="#0FB3E9"/><path d="M98.272 59.7H70.858c-2.446 0-4.304-2.2-4.146-4.873l.568-9.503c.145-2.465 2.125-4.43 4.426-4.43h25.723c2.297 0 4.276 1.965 4.425 4.43l.564 9.503c.159 2.674-1.696 4.872-4.146 4.872z" fill="#fff" stroke="#0FB3E9" stroke-width="1.5"/><path d="M33.405 89.4c-5.893 0-10.272-2.925-9.792-6.479.475-3.503 5.502-6.307 11.236-6.307 5.735 0 10.132 2.804 9.815 6.307-.321 3.554-5.366 6.48-11.259 6.48z" fill="#fff" stroke="#0FB3E9"/><path d="M44.208 74.103c0-3.266-3.904-6.033-9.387-6.033-5.487 0-10.78 2.6-10.78 6.033v8.967h.006c.195 3.056 4.169 5.455 9.39 5.455 5.642 0 10.77-2.795 10.77-6.2v-8.222z" fill="#fff" stroke="#0FB3E9"/><path d="M33.484 78.752c-5.236 0-9.135-2.357-8.706-5.222.424-2.828 4.896-5.082 9.992-5.082 5.096 0 9.005 2.254 8.725 5.082-.284 2.865-4.77 5.222-10.01 5.222zM31.295 29.22c.363-2.697 4.728-4.859 9.75-4.859 5.021 0 8.902 2.162 8.66 4.859-.247 2.734-4.617 4.975-9.764 4.975-5.143 0-9.014-2.24-8.646-4.975z" fill="#fff" stroke="#0FB3E9"/><path d="M49.36 20.285c0-2.422-3.76-4.262-8.334-4.262-4.835 0-9.387 2.059-9.387 4.677l.005 8.874c0 2.296 3.783 4.136 8.32 4.136 4.952 0 9.396-2.17 9.396-4.788v-8.637z" fill="#fff" stroke="#0FB3E9"/><path d="M31.989 20.7c.335-2.492 4.37-4.49 9.014-4.49 4.644 0 8.23 1.998 8.007 4.49-.228 2.53-4.271 4.602-9.027 4.602-4.757 0-8.334-2.073-7.994-4.602zm103.736 68.7c5.893 0 10.272-2.925 9.792-6.479-.475-3.503-5.501-6.307-11.236-6.307-5.734 0-10.127 2.804-9.81 6.307.321 3.554 5.361 6.48 11.254 6.48z" fill="#fff" stroke="#0FB3E9"/><path d="M124.923 74.103c0-3.266 3.903-6.033 9.391-6.033 5.483 0 10.775 2.6 10.775 6.033v8.967h-.005c-.196 3.056-4.169 5.455-9.391 5.455-5.637 0-10.77-2.795-10.77-6.2v-8.222z" fill="#fff" stroke="#0FB3E9"/><path d="M135.646 78.752c5.241 0 9.135-2.357 8.706-5.222-.423-2.828-4.891-5.082-9.992-5.082-5.096 0-9.004 2.254-8.725 5.082.289 2.865 4.77 5.222 10.011 5.222zm2.189-49.532c-.363-2.697-4.728-4.859-9.749-4.859-5.022 0-8.898 2.162-8.66 4.859.247 2.734 4.616 4.975 9.764 4.975 5.142 0 9.013-2.24 8.645-4.975z" fill="#fff" stroke="#0FB3E9"/><path d="M119.775 20.285c0-2.422 3.755-4.262 8.334-4.262 4.83 0 9.382 2.059 9.382 4.677l-.005 8.874c0 2.296-3.783 4.136-8.32 4.136-4.952 0-9.396-2.17-9.396-4.788l.005-8.637z" fill="#fff" stroke="#0FB3E9"/><path d="M137.141 20.7c-.335-2.492-4.369-4.49-9.014-4.49-4.644 0-8.231 1.998-8.007 4.49.228 2.53 4.271 4.602 9.028 4.602 4.756 0 8.333-2.073 7.993-4.602zm-88.047-2.935c-.233 2.571-4.318 4.681-9.116 4.681-4.803 0-8.408-2.11-8.059-4.681.34-2.534 4.416-4.565 9.102-4.565 4.691 0 8.306 2.03 8.073 4.565z" fill="#fff" stroke="#0FB3E9"/><path d="M49.09 17.765c-.233 2.571-4.319 4.681-9.121 4.681-4.416 0-7.812-1.784-8.06-4.07v2.286c0 2.628 3.261 4.682 8.06 4.682 4.802 0 8.888-2.11 9.12-4.682v-2.897zM43.5 69.398c-.29 3.19-4.78 5.818-10.02 5.818-5.036 0-8.814-2.427-8.72-5.45l-.006 3.699c-.009 2.976 3.746 5.287 8.726 5.287 5.24 0 9.73-2.567 10.02-5.758.014-.181.004-3.643 0-3.596z" fill="#fff" stroke="#0FB3E9"/><path d="M43.5 69.398c-.29 3.19-4.78 5.818-10.02 5.818-5.236 0-9.13-2.627-8.702-5.818.428-3.15 4.905-5.665 10.001-5.665 5.101 0 9.01 2.516 8.72 5.665z" fill="#fff" stroke="#0FB3E9"/><path d="M39.34 65.406c-.014-.7-.434-1.389-1.267-1.924-1.831-1.174-4.98-1.174-7.058 0-1.141.643-1.723 1.509-1.723 2.352v2.837c.014.694.419 1.374 1.239 1.905 1.835 1.202 5.03 1.202 7.122 0 1.132-.652 1.705-1.518 1.687-2.366v-2.804z" fill="#fff" stroke="#0FB3E9"/><path d="M61.779 50.923l-.01-.005c-.582-.35-1.56-.34-2.175.01L33.265 65.872l-3.722 2.11c-.55.312-1.346.377-1.947.163l-3.102-1.109c-.601-.219-1.393-.154-1.943.159L1.626 78.948c-.624.349-.815.903-.42 1.309a25.185 25.185 0 003.643 3.065l.01.009c.577.4 1.63.391 2.334-.014l28.183-16.08 3.689-2.106c.536-.308 1.323-.373 1.928-.159l3.13 1.1c.606.214 1.398.149 1.93-.159l19.28-11.119c.55-.317.652-.815.228-1.174a28.672 28.672 0 00-3.782-2.697z" fill="#fff" stroke="#0FB3E9"/><path d="M37.653 68.709c-2.091 1.201-5.287 1.201-7.122 0-1.826-1.193-1.603-3.117.484-4.29 2.078-1.175 5.227-1.175 7.058 0 1.84 1.173 1.658 3.097-.42 4.29z" fill="#fff" stroke="#0FB3E9"/><path d="M37.653 67.772c-2.091 1.202-5.287 1.202-7.122 0-1.826-1.193-1.603-3.112.484-4.29 2.078-1.174 5.227-1.174 7.058 0 1.84 1.178 1.658 3.097-.42 4.29z" fill="#fff" stroke="#0FB3E9"/><path d="M35.376 66.3c-.662.382-1.677.382-2.26 0-.582-.377-.517-.987.15-1.365.66-.372 1.667-.372 2.25 0 .586.378.521.988-.14 1.365zm9.661-52.28l-8.814.168v2.939c.01.55.373 1.09 1.109 1.514 1.621.932 4.425.932 6.247 0 1.03-.527 1.523-1.235 1.458-1.92V14.02z" fill="#fff" stroke="#0FB3E9"/><path d="M19.183 2.9l-.009.01c-.573.27-.633.722-.154.997l20.567 11.73 2.893 1.653c.424.242.484.615.14.913l-1.776 1.551c-.344.303-.288.685.14.932l16.211 9.344c.48.275 1.272.322 1.859.094a38.593 38.593 0 004.411-2.031l.01-.005c.577-.308.582-.815.037-1.123l-21.834-12.39-2.874-1.631c-.42-.238-.47-.601-.13-.89l1.751-1.495c.336-.29.28-.648-.135-.88l-15.079-8.47c-.424-.237-1.155-.28-1.719-.079a42.774 42.774 0 00-4.309 1.77z" fill="#fff" stroke="#0FB3E9"/><path d="M43.905 13.442c1.626.918 1.486 2.413-.326 3.34-1.822.932-4.626.932-6.247 0-1.617-.927-1.44-2.422.377-3.34 1.812-.913 4.58-.913 6.196 0z" fill="#fff" stroke="#0FB3E9"/><path d="M43.905 12.51c1.626.918 1.486 2.413-.326 3.34-1.822.932-4.626.932-6.247 0-1.617-.927-1.44-2.422.377-3.34 1.812-.908 4.58-.908 6.196 0z" fill="#fff" stroke="#0FB3E9"/><path d="M41.678 13.647c.513.289.466.764-.112 1.062-.577.294-1.467.294-1.98 0-.516-.298-.465-.773.112-1.062.578-.293 1.463-.293 1.98 0zm78.358 4.118c.233 2.571 4.318 4.681 9.116 4.681 4.803 0 8.409-2.11 8.064-4.681-.345-2.534-4.421-4.565-9.107-4.565-4.686 0-8.301 2.03-8.073 4.565z" fill="#fff" stroke="#0FB3E9"/><path d="M120.045 17.765c.233 2.571 4.314 4.681 9.117 4.681 4.416 0 7.812-1.784 8.058-4.07v2.286c0 2.628-3.26 4.682-8.058 4.682-4.803 0-8.884-2.11-9.117-4.682v-2.897zm5.586 51.633c.293 3.19 4.779 5.818 10.02 5.818 5.035 0 8.818-2.427 8.72-5.45l.005 3.699c.009 2.976-3.746 5.287-8.725 5.287-5.241 0-9.727-2.567-10.02-5.758a226.39 226.39 0 010-3.596z" fill="#fff" stroke="#0FB3E9"/><path d="M125.631 69.398c.288 3.19 4.779 5.818 10.02 5.818 5.24 0 9.13-2.627 8.701-5.818-.428-3.15-4.9-5.665-10.001-5.665-5.101 0-9.005 2.516-8.72 5.665z" fill="#fff" stroke="#0FB3E9"/><path d="M129.791 65.406c.014-.7.433-1.389 1.267-1.924 1.83-1.174 4.979-1.174 7.057 0 1.141.643 1.728 1.509 1.724 2.352v2.837c-.014.694-.42 1.374-1.235 1.905-1.84 1.202-5.036 1.202-7.122 0-1.137-.652-1.705-1.518-1.691-2.366v-2.804z" fill="#fff" stroke="#0FB3E9"/><path d="M107.351 50.923l.01-.005c.582-.35 1.56-.34 2.175.01l26.334 14.944 3.722 2.11c.545.312 1.341.377 1.942.163l3.103-1.109c.6-.219 1.397-.154 1.947.159l20.92 11.753c.625.349.816.903.42 1.309a25.225 25.225 0 01-3.643 3.065l-.01.009c-.577.4-1.625.391-2.333-.014l-28.183-16.08-3.69-2.106c-.535-.308-1.323-.373-1.928-.159l-3.126 1.1c-.61.214-1.402.149-1.933-.159l-19.281-11.119c-.545-.312-.652-.815-.228-1.174a28.718 28.718 0 013.782-2.697z" fill="#fff" stroke="#0FB3E9"/><path d="M131.482 68.709c2.087 1.201 5.287 1.201 7.122 0 1.826-1.193 1.598-3.117-.489-4.29-2.078-1.175-5.227-1.175-7.057 0-1.836 1.173-1.659 3.097.424 4.29z" fill="#fff" stroke="#0FB3E9"/><path d="M131.482 67.772c2.087 1.202 5.287 1.202 7.122 0 1.826-1.193 1.598-3.112-.489-4.29-2.078-1.174-5.227-1.174-7.057 0-1.836 1.178-1.659 3.097.424 4.29z" fill="#fff" stroke="#0FB3E9"/><path d="M133.755 66.3c.666.382 1.677.382 2.259 0 .582-.377.517-.987-.149-1.365-.662-.372-1.668-.372-2.25 0-.582.378-.522.988.14 1.365zm-9.662-52.28l8.814.168v2.939c-.005.55-.373 1.09-1.109 1.514-1.621.932-4.425.932-6.247 0-1.029-.527-1.523-1.235-1.458-1.92V14.02z" fill="#fff" stroke="#0FB3E9"/><path d="M149.947 2.9l.014.01c.568.27.629.722.149.997l-20.562 11.73-2.897 1.653c-.424.242-.48.615-.14.913l1.775 1.551c.345.303.289.685-.14.932l-16.211 9.344c-.48.275-1.267.322-1.854.094a38.72 38.72 0 01-4.416-2.031l-.009-.005c-.578-.308-.583-.815-.038-1.123l21.839-12.39 2.869-1.631c.419-.238.471-.601.131-.89l-1.747-1.495c-.34-.29-.284-.648.13-.88l15.079-8.47c.429-.237 1.155-.28 1.724-.079a43.12 43.12 0 014.304 1.77z" fill="#fff" stroke="#0FB3E9"/><path d="M125.225 13.442c-1.625.918-1.486 2.413.327 3.34 1.821.932 4.625.932 6.246 0 1.617-.927 1.444-2.422-.377-3.34-1.812-.913-4.579-.913-6.196 0z" fill="#fff" stroke="#0FB3E9"/><path d="M125.225 12.51c-1.625.918-1.486 2.413.327 3.34 1.821.932 4.625.932 6.246 0 1.617-.927 1.444-2.422-.377-3.34-1.812-.908-4.579-.908-6.196 0z" fill="#fff" stroke="#0FB3E9"/><path d="M127.457 13.647c-.517.289-.471.764.107 1.062.577.294 1.467.294 1.984 0 .513-.298.461-.773-.116-1.062-.578-.293-1.463-.293-1.975 0z" fill="#fff" stroke="#0FB3E9"/></svg>