<svg width="149" height="292" fill="none" xmlns="http://www.w3.org/2000/svg"><path fill-rule="evenodd" clip-rule="evenodd" d="M98.431 1l25.56 14.225 12.947 34.032v122.18l10.07 50.002-.493.28v.04l-.56.306c.227.679.52 1.359.666 2.038.76 3.277.733 6.487.16 9.604 1.345 6.593-.226 12.986-4.249 18.767 1.479 19.18-23.562 35.949-58.366 38.214-36.802 2.397-70.554-12.294-75.39-32.82-.505-2.197-.599-4.369-.439-6.5-1.958-2.877-3.41-5.914-4.155-9.084-.773-3.276-.733-6.5-.16-9.63-1.532-7.592.866-14.904 6.3-21.311v-75.868c-5.181-3.583-8.644-10.323-9.204-19.62-.653-11.162 2.984-23.536 9.204-33.832v-31.34C35.709 25.8 62.842 4.582 98.43 1zm-6.926 25.174c-3.277 1.479-6.54 3.037-9.777 4.755a106.834 106.834 0 019.39-2.104v-.014l.387-2.637z" fill="#fff" stroke="#0FB3E9" stroke-linecap="round" stroke-linejoin="round"/><path fill-rule="evenodd" clip-rule="evenodd" d="M66.597 216.418c-36.802 2.424-62.722 21.005-57.913 41.504 4.835 20.538 38.587 35.23 75.375 32.819 36.802-2.397 62.722-20.992 57.9-41.504-4.808-20.512-38.573-35.217-75.362-32.819z" fill="#fff" stroke="#0FB3E9" stroke-width="1.5" stroke-linecap="round" stroke-linejoin="round"/><path fill-rule="evenodd" clip-rule="evenodd" d="M66.597 208.146c-36.802 2.385-62.722 20.966-57.913 41.491 4.835 20.526 38.587 35.217 75.375 32.806 36.802-2.384 62.722-20.991 57.9-41.49-4.808-20.526-38.573-35.231-75.362-32.807z" fill="#fff" stroke="#0FB3E9" stroke-width="1.5" stroke-linecap="round" stroke-linejoin="round"/><path fill-rule="evenodd" clip-rule="evenodd" d="M65.998 197.97c-39.346 2.557-67.077 22.443-61.923 44.367 5.155 21.951 41.251 37.655 80.597 35.084 39.346-2.557 67.064-22.443 61.909-44.381-5.154-21.937-41.237-37.654-80.583-35.07z" fill="#fff" stroke="#0FB3E9" stroke-width="1.5" stroke-linecap="round" stroke-linejoin="round"/><path fill-rule="evenodd" clip-rule="evenodd" d="M65.998 189.085c-39.346 2.584-67.077 22.457-61.923 44.381 5.155 21.951 41.251 37.668 80.597 35.084 39.346-2.557 67.064-22.43 61.909-44.381-5.154-21.937-41.237-37.654-80.583-35.084z" fill="#fff" stroke="#0FB3E9" stroke-width="2" stroke-linecap="round" stroke-linejoin="round"/><path fill-rule="evenodd" clip-rule="evenodd" d="M28.197 63.655c16.143-9.23 30.195-.812 31.367 18.808 1.172 19.619-10.975 43.022-27.118 52.266-16.144 9.23-30.196.799-31.368-18.808-1.172-19.646 10.975-43.035 27.119-52.266z" fill="#fff" stroke="#0FB3E9" stroke-width="1.5" stroke-linecap="round" stroke-linejoin="round"/><path fill-rule="evenodd" clip-rule="evenodd" d="M58.539 271.707l87.922-49.895-8.611-50.073V49.054l-13.899-33.789-25.56-14.212v26.8L48.975 99.204v121.861l9.564 50.641z" fill="#fff" stroke="#0FB3E9" stroke-linecap="round" stroke-linejoin="round"/><path fill-rule="evenodd" clip-rule="evenodd" d="M136.911 49.324c-30.888 7.059-60.404 22.403-87.936 49.881L10.282 77.548c25.387-24.895 52.52-46.1 88.11-49.696l38.519 21.472z" fill="#fff" stroke="#0FB3E9" stroke-linecap="round" stroke-linejoin="round"/><path fill-rule="evenodd" clip-rule="evenodd" d="M58.083 271.146L9.196 243.088V50.805L35.573 64.6l14.07 35.016V219.76l8.44 51.385zM90.932 97.14c16.157-9.243 30.196-.798 31.368 18.821 1.185 19.62-10.962 43.009-27.106 52.24-16.156 9.23-30.195.812-31.38-18.807-1.173-19.633 10.975-43.023 27.118-52.253z" fill="#fff" stroke="#0FB3E9" stroke-linecap="round" stroke-linejoin="round"/><path fill-rule="evenodd" clip-rule="evenodd" d="M93.49 98.58c16.143-9.231 30.195-.8 31.367 18.807 1.172 19.633-10.975 43.022-27.118 52.266-16.157 9.23-30.196.812-31.368-18.808-1.172-19.633 10.962-43.035 27.119-52.266z" fill="#fff" stroke="#0FB3E9" stroke-linecap="round" stroke-linejoin="round"/><path fill-rule="evenodd" clip-rule="evenodd" d="M94.475 115.016c8.671-4.968 16.223-.44 16.849 10.096.627 10.562-5.887 23.136-14.571 28.091-8.684 4.982-16.223.44-16.863-10.096-.626-10.536 5.9-23.136 14.585-28.091z" fill="#fff" stroke="#0FB3E9" stroke-linecap="round" stroke-linejoin="round"/><path fill-rule="evenodd" clip-rule="evenodd" d="M94.475 115.016c4.476-2.558 8.645-2.598 11.735-.56 1.558 2.038 2.557 4.902 2.77 8.458.64 10.563-5.9 23.136-14.571 28.091-4.476 2.558-8.658 2.584-11.735.586-1.558-2.078-2.57-4.928-2.784-8.484-.626-10.536 5.901-23.136 14.585-28.091z" fill="#fff" stroke="#0FB3E9" stroke-linecap="round" stroke-linejoin="round"/><path fill-rule="evenodd" clip-rule="evenodd" d="M106.343 114.509c1.398 1.838 2.291 4.396 2.477 7.566.573 9.403-8.458 22.483-12.986 25.027-4.53 2.558-7.992 2.691-10.47.506-10.535-9.217 7.859-41.69 20.979-33.099zM58.499 271.681l88.455-50.175-9.104-51.271-87.751 50.143 8.4 51.303z" fill="#fff" stroke="#0FB3E9" stroke-linecap="round" stroke-linejoin="round"/><path fill-rule="evenodd" clip-rule="evenodd" d="M72.511 251.808l56.023-31.781-5.142-27.132-55.689 31.594 4.808 27.319z" fill="#fff" stroke="#0FB3E9" stroke-linecap="round" stroke-linejoin="round"/><path fill-rule="evenodd" clip-rule="evenodd" d="M72.165 249.836l53.851-30.541-4.782-25.188-53.531 30.382 4.462 25.347zm55.982-198.275L115.2 17.503c-8.498 1.225-16.356 4.262-23.735 8.658l-.413 2.703 37.095 22.697z" fill="#fff" stroke="#0FB3E9" stroke-linecap="round" stroke-linejoin="round"/><path fill-rule="evenodd" clip-rule="evenodd" d="M123.951 15.265c-30.874 7.06-60.39 22.404-87.922 49.895L9.196 50.804C34.583 25.924 62.8 4.65 98.39 1.054l25.56 14.211z" fill="#fff" stroke="#0FB3E9" stroke-linecap="round" stroke-linejoin="round"/><path fill-rule="evenodd" clip-rule="evenodd" d="M136.898 49.323l-12.947-34.058-8.751 2.238 12.947 34.058 8.751-2.238zM55.901 92.586L42.968 58.528l-6.94 6.633 13.516 34.187 6.357-6.762zm-12.533 27.598l-28.117-15.957v-4.835l28.117 15.943v4.849zm-.053 91.958l-28.118-15.943v-4.849l28.118 15.957v4.835z" fill="#fff" stroke="#0FB3E9" stroke-linecap="round" stroke-linejoin="round"/><path d="M62.783 207.152c1.21-.037.227-2.367 1.51-3.177 4.254-2.714 7.469-8.828 7.31-13.933 5.05-2.434-2.2-6.313-5.317-6.213-1.198.037-2.47.473-3.753 1.282-4.254 2.715-7.469 8.828-7.31 13.921.122 3.885 4.455 8.22 7.56 8.12z" fill="#fff" stroke="#0FB3E9" stroke-linecap="round" stroke-linejoin="round"/><path d="M74.19 191.352c-.16-5.128-3.824-7.072-8.192-4.355-4.356 2.717-7.752 9.084-7.593 14.212.16 5.128 3.823 7.072 8.179 4.355 4.368-2.717 7.765-9.084 7.605-14.212z" fill="#fff" stroke="#0FB3E9" stroke-width="1.5" stroke-linecap="round" stroke-linejoin="round"/></svg>