<svg width="143" height="292" fill="none" xmlns="http://www.w3.org/2000/svg"><path d="M72.365 96.45c-7.875-.014-15.746 1.715-21.742 5.182-5.997 3.476-8.981 8.039-8.953 12.607v5.884c.004.393.037.787.084 1.18a10.66 10.66 0 00-.084 1.284v5.889c.014 2.506.941 5.022 2.768 7.355l-26.586 81.747 4.014 2.305-.21.647L1 287.786l5.064 3.022 24.034-63.738.675-2.076 4.015 2.305 26.718-82.14.421.084v58.28h4.338l2.085 46.09h5.477l2.061-46.09h4.338v-57.694c.3-.047.6-.08.895-.127l26.549 81.616 4.011-2.305.674 2.075 24.034 63.734 5.069-3.017-20.656-67.261-.211-.647 4.015-2.3-25.898-79.625c3.041-2.857 4.559-6.109 4.54-9.365v-5.889c0-.393-.033-.787-.08-1.176.052-.426.085-.857.08-1.283v-5.889c-.023-4.563-3.045-9.14-9.08-12.64-6.034-3.49-13.923-5.243-21.803-5.257v-.023zm-24.3 42.895a27.235 27.235 0 002.693 1.785c1.95 1.129 4.104 2.057 6.381 2.82l-12.658 38.913-8.906-5.116 12.49-38.402zm46.816 1.513l11.998 36.889-8.906 5.116-12.401-38.14c3.157-.848 6.128-2.005 8.733-3.513.196-.118.384-.235.576-.352zm-28.616 5.14a53.22 53.22 0 009.623.285v18.979h-9.623v-19.264z" fill="#fff" stroke="#0FB3E9"/><path d="M61.927 111.053h4.338v92.667h-4.338v-92.667zm13.961 0h4.338v92.667h-4.338v-92.667z" fill="#fff" stroke="#0FB3E9"/><path d="M73.827 249.81H68.35l-2.085-46.09v-38.28h9.623v38.28l-2.061 46.09z" fill="#fff" stroke="#0FB3E9" stroke-width="1.5"/><path d="M21.866 220.075l-4.014-2.3 33.937-104.351 3.804 2.951-33.727 103.7zm12.922 7.421l-4.015-2.305L64.035 122.92l3.81 2.951-33.057 101.625z" fill="#fff" stroke="#0FB3E9"/><path d="M6.07 291L1 287.983l20.656-67.261 13.919-42.797 8.906 5.116-14.383 44.226L6.069 291zm114.521-70.925l4.015-2.3-33.937-104.351-3.809 2.951 33.731 103.7zm-12.92 7.421l4.01-2.305L78.423 122.92l-3.81 2.951 33.058 101.625z" fill="#fff" stroke="#0FB3E9"/><path d="M136.389 291l5.069-3.017-20.656-67.261-13.919-42.797-8.91 5.116 14.382 44.226L136.389 291z" fill="#fff" stroke="#0FB3E9"/><path d="M103.248 122.887c-.019-4.563-3.045-9.145-9.08-12.64-12.063-6.98-31.552-7.013-43.546-.075-5.996 3.472-8.98 8.039-8.952 12.603v5.893c.028 4.568 3.054 9.145 9.088 12.64 12.064 6.985 31.558 7.023 43.546.08 5.992-3.477 8.972-8.035 8.944-12.603v-5.898z" fill="#fff" stroke="#0FB3E9" stroke-linecap="round" stroke-linejoin="round"/><path d="M50.622 110.168c11.99-6.934 31.483-6.901 43.547.079 12.059 6.985 12.119 18.276.135 25.214-11.988 6.943-31.487 6.901-43.546-.075-12.059-6.985-12.12-18.28-.136-25.214" fill="#fff"/><path d="M50.622 110.168c11.99-6.934 31.483-6.901 43.547.079 12.059 6.985 12.119 18.276.135 25.214-11.988 6.943-31.487 6.901-43.546-.075-12.059-6.985-12.12-18.28-.136-25.214" stroke="#0FB3E9" stroke-linecap="round" stroke-linejoin="round"/><path d="M103.248 114.529c-.019-4.568-3.045-9.145-9.08-12.64-12.063-6.985-31.552-7.018-43.546-.079-5.996 3.476-8.98 8.039-8.952 12.607v5.893c.028 4.564 3.054 9.141 9.088 12.64 12.064 6.981 31.558 7.018 43.546.075 5.992-3.471 8.972-8.034 8.944-12.597v-5.899z" fill="#fff" stroke="#0FB3E9" stroke-linecap="round" stroke-linejoin="round"/><path d="M50.622 101.81c11.99-6.939 31.483-6.906 43.547.079 12.059 6.981 12.119 18.272.135 25.215-11.988 6.943-31.487 6.9-43.546-.08-12.059-6.981-12.12-18.276-.136-25.214z" fill="#fff" stroke="#0FB3E9" stroke-linecap="round" stroke-linejoin="round"/><path d="M61.187 1L50.449 6.936l-6.296 16.51v42.332c-2.268 4.544-4.142 9.852-5.411 16.036l-1.902 1.073-.075.024c-3.032 1.288-4.934 4.563-5.079 9.098-.234 7.35 4.123 16.032 10.129 20.642-.839 5.125 2.14 10.433 8.943 14.373 9.347 5.406 23.144 6.629 34.467 3.687 7.238-1.649 10.565-4.146 13.516-6.718 3.411-3.331 3.987-5.266 5.332-7.299v-1.738c6.591-4.297 11.529-13.591 11.281-21.392-.136-4.511-2.029-7.767-5.041-9.046l-.01-.019-.051-.028-.595-.338-3.317-1.873-.126-.075 8.774-12.495-3.645-12.33-2.403-1.373.155-.872-5.022-2.956V38.09l-.005-13C92.356 13.65 79.866 3.825 63.838 1.35v-.014l-.013.01A53.334 53.334 0 0061.187 1zm3.364 10.47c4.76 2.01 9.435 4.522 14.017 7.58-4.352-2.065-8.958-3.611-13.895-4.464v-.01l-.122-3.105z" stroke="#0FB3E9" stroke-linecap="round" stroke-linejoin="round"/><path d="M85.342 42.522l-2.904 14.95 26.001 14.846 2.904-14.954-26-14.842z" fill="#fff" stroke="#0FB3E9" stroke-linecap="round" stroke-linejoin="round"/><path fill-rule="evenodd" clip-rule="evenodd" d="M39.496 107.108l3.378 3.214L61.187 10.023V1L50.454 6.936 44.153 23.45v59.245l-4.657 24.413z" fill="#fff" stroke="#0FB3E9" stroke-linecap="round" stroke-linejoin="round"/><path fill-rule="evenodd" clip-rule="evenodd" d="M43.755 108.191l23.49-12.621-2.573-80.988-.829-13.245-9.13 6.686-6.302 16.514v59.245l-4.657 24.409z" fill="#fff" stroke="#0FB3E9" stroke-linecap="round" stroke-linejoin="round"/><path d="M111.343 57.364s-45.738 3.776-44.136 65.134l16.407-8.137 31.379-44.666-3.65-12.33z" fill="#fff" stroke="#0FB3E9" stroke-linecap="round" stroke-linejoin="round"/><path d="M55.096 101.594l-2.478 12.766 26.006 14.842 2.474-12.762-26.002-14.846z" fill="#fff" stroke="#0FB3E9" stroke-linecap="round" stroke-linejoin="round"/><path d="M81.126 38.667s-34.12 2.825-42.384 43.143l-1.902 1.073-.076.028c-3.03 1.288-4.937 4.558-5.078 9.098-.253 7.955 4.868 17.484 11.647 21.705 2.042 1.274 4.062 1.954 5.992 2.015 1.255.037 2.408-.183 3.424-.623.59-.328 1.214-.647 1.832-.961l10.377 6.1v.005l16.407-8.143s13.075-35.919 24.422-38.275l3.308-18.717-20.14-11.843-4.601-2.703-3.228-1.902z" fill="#fff" stroke="#0FB3E9" stroke-linecap="round" stroke-linejoin="round"/><path d="M81.13 38.671s-45.738 3.776-44.136 65.134l7.824 4.601c-1.602-61.354 44.136-65.13 44.136-65.13l-7.823-4.605z" fill="#fff" stroke="#0FB3E9" stroke-linecap="round" stroke-linejoin="round"/><path d="M84.354 40.569s-45.734 3.78-44.132 65.134l24.736 14.546 44.137-65.13-24.741-14.55z" fill="#fff" stroke="#0FB3E9" stroke-linecap="round" stroke-linejoin="round"/><path fill-rule="evenodd" clip-rule="evenodd" d="M48.411 24.537v17.746c13.507 3.804 26.4 11.033 38.543 23.11l15.282-20.37L58.46 24.945l-10.049-.407z" fill="#fff" stroke="#0FB3E9" stroke-linecap="round" stroke-linejoin="round"/><path d="M109.095 55.12s-45.739 3.776-44.137 65.129l16.407-8.137s13.075-35.92 24.422-38.276l3.308-18.72" fill="#fff"/><path d="M109.095 55.12s-45.739 3.776-44.137 65.129l16.407-8.137s13.075-35.92 24.422-38.276l3.308-18.72" stroke="#0FB3E9" stroke-linecap="round" stroke-linejoin="round"/><path d="M57.537 112.641c4.151-6.859 4.85-25.401 2.37-34.921-.74-2.844-4.408-4.512-7.664-3.495L36.84 82.887l-.075.024c-3.03 1.288-4.933 4.563-5.073 9.102-.253 7.956 4.863 17.485 11.642 21.706 2.047 1.274 4.062 1.949 5.996 2.009 1.251.038 2.408-.182 3.42-.623 1.542-.843 3.195-1.653 4.788-2.464z" fill="#fff" stroke="#0FB3E9" stroke-linecap="round" stroke-linejoin="round"/><path d="M32.183 92.192c.239-7.473 5.593-10.317 11.974-6.348 6.376 3.963 11.347 13.23 11.118 20.707-.235 7.472-5.599 10.316-11.975 6.348-6.376-3.959-11.347-13.235-11.117-20.707z" fill="#fff" stroke="#0FB3E9" stroke-linecap="round" stroke-linejoin="round"/><path fill-rule="evenodd" clip-rule="evenodd" d="M44.148 23.45c15.034 3.42 29.402 10.865 42.801 24.193l17.123-9.553c-12.354-12.068-25.645-22.253-42.97-23.996L44.149 23.45z" fill="#fff" stroke="#0FB3E9" stroke-linecap="round" stroke-linejoin="round"/><path d="M38.371 96.033c.113-3.462 2.596-4.788 5.561-2.947 2.957 1.846 5.276 6.152 5.163 9.619-.112 3.462-2.605 4.792-5.56 2.946-2.966-1.841-5.276-6.146-5.164-9.618z" fill="#fff" stroke="#0FB3E9" stroke-linecap="round" stroke-linejoin="round"/><path d="M84.691 94.178l-.052-.028-.557-.314-.019-.019-.028-.023-.023-.019-.024-.023-1.002-.562-.019-.02-.028-.023-.46-.262-.07-.037-.075-.043-.023-.023c-1.729-.73-2.806-2.595-2.89-5.177-.141-4.525 2.768-9.95 6.629-12.354 1.162-.721 2.31-1.106 3.406-1.138a4.465 4.465 0 011.948.351l.029.023.14.08 1.898 1.073.341.192.029.024 2.886 5.176c.145 4.53-2.77 9.951-6.625 12.354-1.166.722-2.314 1.106-3.41 1.144a4.593 4.593 0 01-1.95-.357l-.023-.018-.028-.024" fill="#fff"/><path d="M84.691 94.178l-.052-.028-.557-.314-.019-.019-.028-.023-.023-.019-.024-.023-1.002-.562-.019-.02-.028-.023-.46-.262-.07-.037-.075-.043-.023-.023c-1.729-.73-2.806-2.595-2.89-5.177-.141-4.525 2.768-9.95 6.629-12.354 1.162-.721 2.31-1.106 3.406-1.138a4.465 4.465 0 011.948.351l.029.023.14.08 1.898 1.073.341.192.029.024 2.886 5.176c.145 4.53-2.77 9.951-6.625 12.354-1.166.722-2.314 1.106-3.41 1.144a4.593 4.593 0 01-1.95-.357l-.023-.018-.028-.024" stroke="#0FB3E9" stroke-linecap="round" stroke-linejoin="round"/><path fill-rule="evenodd" clip-rule="evenodd" d="M82.297 131.301l16.35-94.541-.004-12.996-8.766 4.15-6.3 16.515v59.245l-4.953 25.528 3.673 2.099z" fill="#fff" stroke="#0FB3E9" stroke-linecap="round" stroke-linejoin="round"/><path fill-rule="evenodd" clip-rule="evenodd" d="M82.297 131.301c9.346-1.602 13.118-4.408 16.444-7.308 3.411-3.331 3.987-5.266 5.331-7.299V38.09l-.004-12.996-10.813 6.035-6.301 16.514v59.245l-4.657 24.413z" fill="#fff" stroke="#0FB3E9" stroke-linecap="round" stroke-linejoin="round"/><path d="M94.305 116.502l-.09-.057-.974-.543-.037-.023-.052-.029-.037-.032-.038-.024-1.752-.984-.038-.028-.051-.018-.797-.464-.121-.066-.136-.075-.038-.028c-3.022-1.279-4.91-4.54-5.055-9.051-.248-7.918 4.84-17.405 11.59-21.602 2.039-1.27 4.039-1.94 5.955-2 1.256-.038 2.399.177 3.411.622l.047.024.253.14 3.312 1.874.595.338.051.028 5.051 9.051c.253 7.922-4.844 17.4-11.591 21.602-2.033 1.27-4.043 1.944-5.964 2.001-1.246.037-2.394-.183-3.406-.619l-.037-.028-.047-.028" fill="#fff"/><path d="M94.305 116.502l-.09-.057-.974-.543-.037-.023-.052-.029-.037-.032-.038-.024-1.752-.984-.038-.028-.051-.018-.797-.464-.121-.066-.136-.075-.038-.028c-3.022-1.279-4.91-4.54-5.055-9.051-.248-7.918 4.84-17.405 11.59-21.602 2.039-1.27 4.039-1.94 5.955-2 1.256-.038 2.399.177 3.411.622l.047.024.253.14 3.312 1.874.595.338.051.028 5.051 9.051c.253 7.922-4.844 17.4-11.591 21.602-2.033 1.27-4.043 1.944-5.964 2.001-1.246.037-2.394-.183-3.406-.619l-.037-.028-.047-.028" stroke="#0FB3E9" stroke-linecap="round" stroke-linejoin="round"/><path fill-rule="evenodd" clip-rule="evenodd" d="M48.411 24.537l6.301-16.514c4.137.59 6.166-.858 9.759 1.27l.201 5.289-16.26 9.955z" fill="#fff" stroke="#0FB3E9" stroke-linecap="round" stroke-linejoin="round"/><path d="M97.804 117.167c1.916-.056 3.921-.731 5.959-2.001 6.751-4.197 11.844-13.679 11.591-21.602-.183-6.015-3.491-9.805-8.424-9.646-1.911.061-3.916.731-5.964 2-6.746 4.198-11.834 13.68-11.58 21.598.191 6.02 3.49 9.81 8.418 9.651z" fill="#fff" stroke="#0FB3E9" stroke-linecap="round" stroke-linejoin="round"/><path fill-rule="evenodd" clip-rule="evenodd" d="M50.454 6.936c15.029 3.42 29.402 10.864 42.801 24.193l10.813-6.035C91.714 13.026 78.507 2.743 61.187 1L50.454 6.936z" fill="#fff" stroke="#0FB3E9" stroke-linecap="round" stroke-linejoin="round"/><path d="M114.721 93.798c-.243-7.44-5.57-10.264-11.918-6.32-6.343 3.945-11.29 13.17-11.066 20.609.234 7.435 5.575 10.265 11.919 6.315 6.343-3.935 11.29-13.169 11.065-20.604z" fill="#fff" stroke="#0FB3E9" stroke-linecap="round" stroke-linejoin="round"/><path fill-rule="evenodd" clip-rule="evenodd" d="M44.153 23.45l6.3-16.514 4.26 1.087-6.302 16.514-4.258-1.087z" fill="#fff" stroke="#0FB3E9" stroke-linecap="round" stroke-linejoin="round"/><path d="M107.774 98.114c-.099-2.938-2.202-4.062-4.718-2.502-2.507 1.565-4.47 5.214-4.376 8.156.094 2.938 2.207 4.067 4.713 2.502 2.516-1.565 4.474-5.214 4.381-8.156z" fill="#fff" stroke="#0FB3E9" stroke-linecap="round" stroke-linejoin="round"/><path d="M83.576 44.43l6.301-16.515 3.378 3.214-6.301 16.514-3.378-3.214z" stroke="#0FB3E9" stroke-linecap="round" stroke-linejoin="round"/><path d="M78.193 72.717L53.218 58.465l24.975 14.252z" fill="#fff"/><path d="M78.193 72.717L53.218 58.465" stroke="#0FB3E9" stroke-linecap="round" stroke-linejoin="round"/><path d="M40.854 97.471c.07-2.136 1.598-2.951 3.425-1.817 1.818 1.138 3.247 3.785 3.176 5.921-.07 2.132-1.602 2.952-3.42 1.813-1.827-1.133-3.246-3.78-3.18-5.917z" fill="#fff" stroke="#0FB3E9" stroke-linecap="round" stroke-linejoin="round"/><path d="M47.507 88.523l11.44-6.287-11.44 6.287z" fill="#fff"/><path d="M47.507 88.523l11.44-6.287" stroke="#0FB3E9" stroke-linecap="round" stroke-linejoin="round"/><path d="M55.284 106.073l1.705-.59-1.705.59z" fill="#fff"/><path d="M55.284 106.073l1.705-.59" stroke="#0FB3E9" stroke-linecap="round" stroke-linejoin="round"/><path d="M96.525 75.373l-.037-.024-.408-.225-.014-.01-.038-.018-.014-.01-.726-.407-.037-.019-.333-.192-.051-.023-.056-.033-.015-.01c-1.255-.533-2.038-1.887-2.098-3.761-.103-3.284 2.01-7.224 4.816-8.967.843-.53 1.672-.806 2.469-.83.52-.018.997.071 1.419.254l.019.01.103.06 1.377.778.244.14.023.01 2.094 3.757c.108 3.289-2.009 7.224-4.811 8.972-.843.524-1.677.805-2.473.829a3.22 3.22 0 01-1.415-.258l-.014-.014-.024-.005" fill="#fff"/><path d="M96.525 75.373l-.037-.024-.408-.225-.014-.01-.038-.018-.014-.01-.726-.407-.037-.019-.333-.192-.051-.023-.056-.033-.015-.01c-1.255-.533-2.038-1.887-2.098-3.761-.103-3.284 2.01-7.224 4.816-8.967.843-.53 1.672-.806 2.469-.83.52-.018.997.071 1.419.254l.019.01.103.06 1.377.778.244.14.023.01 2.094 3.757c.108 3.289-2.009 7.224-4.811 8.972-.843.524-1.677.805-2.473.829a3.22 3.22 0 01-1.415-.258l-.014-.014-.024-.005" stroke="#0FB3E9" stroke-linecap="round" stroke-linejoin="round"/><path d="M97.977 75.65c.797-.029 1.63-.305 2.474-.835 2.802-1.742 4.919-5.678 4.811-8.966-.075-2.502-1.447-4.072-3.495-4.006-.796.023-1.625.305-2.478.83-2.801 1.742-4.914 5.677-4.806 8.966.08 2.502 1.447 4.076 3.494 4.01z" fill="#fff" stroke="#0FB3E9" stroke-linecap="round" stroke-linejoin="round"/><path d="M105 65.942c-.098-3.087-2.31-4.258-4.947-2.623-2.633 1.64-4.69 5.467-4.596 8.559.098 3.087 2.314 4.263 4.952 2.623 2.633-1.635 4.685-5.472 4.591-8.559zm-4.689-20.782c-.104-3.087-2.315-4.263-4.952-2.624-2.633 1.64-4.685 5.468-4.592 8.56.099 3.087 2.315 4.258 4.948 2.623 2.632-1.635 4.689-5.472 4.596-8.56z" fill="#fff" stroke="#0FB3E9" stroke-linecap="round" stroke-linejoin="round"/><path fill-rule="evenodd" clip-rule="evenodd" d="M54.54 29.287v10.991c7.865 2.886 15.515 7.046 22.913 12.771V42.054c-7.398-5.72-15.053-9.88-22.914-12.767z" fill="#fff" stroke="#0FB3E9" stroke-linecap="round" stroke-linejoin="round"/><path d="M132.121 276.491l3.771-2.244-15.371-50.044-10.358-31.844-6.625 3.805 10.701 32.906 17.882 47.421zm-121.456-1.115l-3.673-2.188 14.964-48.723 10.082-31 6.455 3.706-10.419 32.035-17.409 46.17z" fill="#fff" stroke="#0FB3E9"/></svg>