<svg width="130" height="72" fill="none" xmlns="http://www.w3.org/2000/svg"><path d="M35.358 1.365c-4.316 0-8.64.944-11.92 2.826l-15.96 9.14c-3.41 1.95-5.03 4.554-4.892 7.127h-.015L2.579 33.5c.176 2.335 1.812 4.632 4.9 6.406l2.158 1.374.015.008 18.87 12.104 14.455 9.255c7.25 4.155 15.346 6.313 22.596 2.158l4.293-2.457.638.36s0 .008.007.008c.5.284 1.13.323 1.844.077l.3.17c2.027 1.166 4.638.475 5.813-1.545a4.214 4.214 0 00.085-4.047l9.639-5.522.652.376c.6.338 1.421.3 2.32-.146l32.15 18.41a3.836 3.836 0 005.222-1.383c1.053-1.812.423-4.132-1.405-5.184L94.989 45.504c-.031-.515-.146-.953-.33-1.306V32.485h-.016c-.092-2.688-3.218-5.414-7.657-7.956l-16.167-8.28-.039-.015L49.728 5.458l-.038-.03-2.304-1.175-.108-.062c-3.28-1.882-7.596-2.826-11.92-2.826z" fill="#fff" stroke="#0FB3E9" stroke-linecap="round" stroke-linejoin="round"/><path d="M27.878 53.015l14.454 9.263c7.25 4.155 15.345 6.313 22.596 2.158l25.184-14.424c2.818-1.62 3.963-3.295 3.901-5.008V32.117l-8.31.945-.76 3.271-14.762-7.55-12.258-4.431-8.878-6.382-2.297-1.19-.115-.055c-6.551-3.755-17.28-3.755-23.84 0l-10.122 5.791-10.745-2.434.007 13.041v.008c.177 2.334 1.813 4.63 4.9 6.397l2.159 1.383s7.066 2.719 12.242 6.113c5.177 3.403 6.644 5.991 6.644 5.991z" fill="#fff" stroke="#0FB3E9" stroke-width="1.5" stroke-linecap="round" stroke-linejoin="round"/><path d="M42.332 49.375c7.25 4.155 15.345 6.305 22.596 2.15l25.191-14.423c7.243-4.148 3.48-8.794-3.77-12.942l-16.176-8.28-12.25-4.43-8.878-6.39-2.304-1.176-.108-.061c-6.551-3.764-17.28-3.764-23.84 0L5.146 14.065C-1.39 18.01.275 22.862 6.834 26.625l2.158 1.383s7.066 2.719 12.242 6.113c5.177 3.403 6.644 5.983 6.644 5.983l14.454 9.263" fill="#fff"/><path d="M42.332 49.375c7.25 4.155 15.345 6.305 22.596 2.15l25.191-14.423c7.243-4.148 3.48-8.794-3.77-12.942l-16.176-8.28-12.25-4.43-8.878-6.39-2.304-1.176-.108-.061c-6.551-3.764-17.28-3.764-23.84 0L5.146 14.065C-1.39 18.01.275 22.862 6.834 26.625l2.158 1.383s7.066 2.719 12.242 6.113c5.177 3.403 6.644 5.983 6.644 5.983l14.454 9.263" stroke="#0FB3E9" stroke-linecap="round" stroke-linejoin="round"/><path d="M43.377 39.767l-.86-.492 26.205-15.007 12.987 7.442-.852.476-12.135-6.943-25.345 14.524z" fill="#fff" stroke="#0FB3E9" stroke-linecap="round" stroke-linejoin="round"/><path d="M55.511 46.717l-12.135-6.95 25.346-14.524 12.135 6.943L55.51 46.717z" fill="#fff" stroke="#0FB3E9" stroke-linecap="round" stroke-linejoin="round"/><path d="M61.187 32.74l3.08-1.767 7.158 4.101-3.08 1.759-7.158-4.094zm-12.112 6.934l3.08-1.758 3.894 2.227-3.072 1.766-3.902-2.235zm16.329-9.347l3.08-1.766 7.158 4.093-3.08 1.767-7.158-4.094zM8.992 28.008c2.05-1.044 5.391-.914 7.342.33l11.79 7.573c1.95 1.26 1.797 3.157-.246 4.201L8.992 28.008z" fill="#fff" stroke="#0FB3E9" stroke-linecap="round" stroke-linejoin="round"/><path d="M8.992 40.911V28.008l18.886 12.104v12.903L8.992 40.911z" fill="#fff" stroke="#0FB3E9" stroke-width="1.5" stroke-linecap="round" stroke-linejoin="round"/><path d="M49.045 5.067c-1.828 1.175-1.598 3.087.583 4.201l13.21 6.759c2.19 1.113 5.5 1.029 7.335-.146L49.045 5.067zM9.621 20.435l.008-2.289 47.196-2.987v2.288L30.619 32.462 9.621 20.435z" fill="#fff" stroke="#0FB3E9" stroke-linecap="round" stroke-linejoin="round"/><path d="M9.63 18.146L35.826 3.131 56.825 15.16 30.627 30.174 9.63 18.146z" fill="#fff" stroke="#0FB3E9" stroke-linecap="round" stroke-linejoin="round"/><path d="M12.025 19.514L38.223 4.506l1.552.883-26.198 15.015-1.552-.89zm3.764 2.158L41.987 6.664l1.551.891L17.34 22.563l-1.551-.891zm3.763 2.158L45.758 8.823l1.55.89-26.204 15.008-1.552-.891zm3.771 2.158L49.53 10.981l1.543.89L24.875 26.88l-1.552-.89zm3.764 2.158L53.292 13.14l1.551.883-26.205 15.015-1.551-.89z" fill="#fff" stroke="#0FB3E9" stroke-width=".354" stroke-linecap="round" stroke-linejoin="round"/><path d="M60.089 23.323l3.372-1.936c.507-.284.76-.652.775-1.037v-2.258h-1.06l-.107.968c-1.03-.384-2.427-.33-3.333.192l-1.69.968-2.435.054-.023 2.043c.031.36.277.73.768 1.006 1.03.591 2.704.591 3.733 0z" fill="#fff" stroke="#0FB3E9" stroke-linecap="round" stroke-linejoin="round"/><path d="M60.09 21.15l3.379-1.936c1.029-.591 1.029-1.544 0-2.143-1.037-.584-2.704-.584-3.733 0l-3.38 1.935c-1.029.592-1.029 1.544.008 2.143 1.03.584 2.696.584 3.725 0zm-11.299 8.647l3.38-1.935c.499-.284.76-.668.775-1.037v-2.258h-1.06l-.115.968c-1.029-.4-2.427-.33-3.333.192l-1.69.96-2.434.054-.023 2.043c.023.368.276.73.768 1.014 1.029.59 2.703.59 3.732 0z" fill="#fff" stroke="#0FB3E9" stroke-linecap="round" stroke-linejoin="round"/><path d="M48.8 27.624l3.37-1.943c1.03-.592 1.03-1.552 0-2.135-1.028-.592-2.703-.592-3.732 0l-3.38 1.927c-1.028.6-1.028 1.552 0 2.15 1.038.585 2.704.585 3.741 0z" fill="#fff" stroke="#0FB3E9" stroke-linecap="round" stroke-linejoin="round"/><path d="M37.501 36.272l3.372-1.935c.5-.292.76-.66.776-1.037v-2.258h-1.06l-.115.968c-1.03-.4-2.427-.338-3.334.176l-1.682.975-2.442.047L33 35.25c.015.36.268.73.76 1.013 1.037.592 2.703.592 3.74 0" fill="#fff"/><path d="M37.501 36.272l3.372-1.935c.5-.292.76-.66.776-1.037v-2.258h-1.06l-.115.968c-1.03-.4-2.427-.338-3.334.176l-1.682.975-2.442.047L33 35.25c.015.36.268.73.76 1.013 1.037.592 2.703.592 3.74 0" stroke="#0FB3E9" stroke-linecap="round" stroke-linejoin="round"/><path d="M37.501 34.09l3.372-1.942c1.037-.584 1.037-1.544 0-2.128-1.03-.599-2.696-.591-3.733-.008l-3.38 1.944c-1.028.583-1.028 1.543 0 2.127 1.038.6 2.712.6 3.741.008zm29.001 26.329l3.372 1.928 5.107-8.779-3.372-1.935c-.652-.37-1.551-.315-2.557.253-1.997 1.144-3.61 3.925-3.61 6.213 0 1.145.407 1.944 1.06 2.32z" fill="#fff" stroke="#0FB3E9" stroke-linecap="round" stroke-linejoin="round"/><path d="M68.806 60.027c0-2.28 1.621-5.069 3.618-6.213 1.997-1.144 3.617-.215 3.61 2.074.007 2.288-1.613 5.069-3.61 6.205-1.997 1.145-3.618.215-3.618-2.066z" fill="#fff" stroke="#0FB3E9" stroke-linecap="round" stroke-linejoin="round"/><path d="M72.009 62.593c2.035 1.167 4.639.476 5.814-1.544 1.175-2.02.476-4.6-1.56-5.776l-1.458-.83c-.546-.314-1.298-.268-2.128.216-1.666.952-3.01 3.264-3.01 5.169 0 .944.337 1.62.883 1.927l1.459.837zM84.835 49.92l3.364 1.928 5.115-8.771-3.371-1.936c-.653-.368-1.56-.322-2.558.254-1.997 1.144-3.61 3.917-3.61 6.205.008 1.145.4 1.944 1.06 2.32z" fill="#fff" stroke="#0FB3E9" stroke-linecap="round" stroke-linejoin="round"/><path d="M87.147 49.528c-.008-2.288 1.613-5.061 3.61-6.205 1.997-1.145 3.61-.215 3.61 2.073 0 2.289-1.621 5.062-3.61 6.206-1.997 1.137-3.61.215-3.61-2.074z" fill="#fff" stroke="#0FB3E9" stroke-linecap="round" stroke-linejoin="round"/><path d="M122.669 70.12a3.836 3.836 0 005.222-1.383 3.785 3.785 0 00-1.405-5.184L92.861 44.29c-.491-.276-1.16-.245-1.912.185-1.49.86-2.704 2.933-2.704 4.646 0 .86.308 1.452.8 1.736l33.624 19.262z" fill="#fff" stroke="#0FB3E9" stroke-linecap="round" stroke-linejoin="round"/></svg>