<svg width="625" height="394" fill="none" xmlns="http://www.w3.org/2000/svg"><path d="M313.409 42.465L4.135 217.073 313.409 391.68l309.275-174.607L313.409 42.465z" fill="#fff" stroke="#0089E3" stroke-width=".9" stroke-linecap="round" stroke-linejoin="round"/><path d="M446.929 117.847c-61.081 22.723-45.31 72.577-38.558 112.439 5.43 32.059 9.289 52.99 57.828 75.134l156.485-88.347-175.755-99.226z" stroke="#0089E3" stroke-opacity=".996" stroke-width=".615" stroke-linecap="round" stroke-linejoin="round" stroke-dasharray="0.61 1.23"/><path d="M320.423 45.958l-11.899-.47 11.899.47zm-17.828 2.852l24.933 1.101-24.933-1.101zm108.108 47.717l-26.477-.644-115.617 25.905-57.578-2.003-.133 1.179 12.751.443-2.635 16.374-4.375 8.429-9.1 3.47-36.621-1.851 5.322-28.242-5.93 3.322-8.806 46.717-67.186-4.151-3.248 1.82 70.06 4.329-11.017 58.442-138.205-9.479 3.533 2.861 134.186 9.204-.312 1.654c-37.792-2.335-91.089-6.57-128.88-8.905l3.577 2.84c37.48 2.381 88.358 6.399 124.814 8.651l-9.45 55.997 5.121 2.142 9.572-57.815 43.403 2.682-1.703 17.961 2.349 10.365 21.569 4.244 29.224 2.69-.543 29.776-98.56-6.088 4.062 2.275 265.125 16.377-3.09 16.316 4.746-2.658 9.761-51.543 4.205 3.892 5.863.266-7.686 40.583 4.582-2.566c.37-1.508.755-3.011 1.161-4.506l6.254.352 1.927-1.079-7.971-.449c3.141-18.076 7.646-41.156 11.343-60.681l39.746.224 59.105 3.646 7.379-4.134-104.949-6.484 7.972-42.105 118.492 7.807-6.117 32.157 2.38-1.333 6.06-31.861-120.594-7.945 13.954-73.684-3.835-2.148-19.626 103.632-4.82-2.823-5.798 1.559 20.428-107.866-3.836-2.149-12.335 65.141-276.948-17.11 3.947-20.943 37.408 1.892 10.35-3.952 4.645-8.943 2.657-16.522 43.195 1.501 115.637-25.909 27.288.665-1.172-1.21zm32.614 92.531l-11.066 58.439-135.572-8.376-7.97-6.697 1.117-5.168-6.501-7.437 3.225-25.505-2.108-.083-3.257 25.821 6.47 7.409-1.137 5.255 7.422 6.236-62.668-3.871 9.205-58.556 202.84 12.533zm1.313 43.184l5.049 2.953-2.504 13.225-10.731-.663 2.657-14.028 5.529-1.487zm34.159 20.745l-28.206-.161.298-1.562 27.908 1.723zm-32.103-1.983l-.314 1.653-10.731-.662.311-1.655 10.734.664zm-.801 4.24l-5.095 26.88-4.426-.201-5.441-5.026 4.229-22.317 10.733.664zm-14.125-5.163l-.312 1.655-276.892-17.106.313-1.654 276.891 17.105zm-.802 4.241L419.373 315.5l-168.897-10.436.566-30.907-30.831-2.839-20.16-3.968-2.163-9.535 1.684-17.788 231.386 14.295zm-193.415-77.978l-9.205 58.556-72.982-4.51 11.016-58.443 71.171 4.397zm-165.742 1.744l-2.948 12.153 3.554.269 3.582-14.768" fill="#D1EBFC"/><path d="M71.802 178.088l-2.949 12.153 3.554.269 3.582-14.768M320.423 45.958l-11.899-.47 11.899.47zm-17.828 2.852l24.933 1.101-24.933-1.101zm108.108 47.717l-26.477-.644-115.617 25.905-57.578-2.003-.133 1.179 12.751.443-2.635 16.374-4.375 8.429-9.1 3.47-36.621-1.851 5.322-28.242-5.93 3.322-8.806 46.717-67.186-4.151-3.248 1.82 70.06 4.329-11.017 58.442-138.205-9.479 3.533 2.861 134.186 9.204-.312 1.654c-37.792-2.335-91.089-6.57-128.88-8.905l3.577 2.84c37.48 2.381 88.358 6.399 124.814 8.651l-9.45 55.997 5.121 2.142 9.572-57.815 43.403 2.682-1.703 17.961 2.349 10.365 21.569 4.244 29.224 2.69-.543 29.776-98.56-6.088 4.062 2.275 265.125 16.377-3.09 16.316 4.746-2.658 9.761-51.543 4.205 3.892 5.863.266-7.686 40.583 4.582-2.566c.37-1.508.755-3.011 1.161-4.506l6.254.352 1.927-1.079-7.971-.449c3.141-18.076 7.646-41.156 11.343-60.681l39.746.224 59.105 3.646 7.379-4.134-104.949-6.484 7.972-42.105 118.492 7.807-6.117 32.157 2.38-1.333 6.06-31.861-120.594-7.945 13.954-73.684-3.835-2.148-19.626 103.632-4.82-2.823-5.798 1.559 20.428-107.866-3.836-2.149-12.335 65.141-276.948-17.11 3.947-20.943 37.408 1.892 10.35-3.952 4.645-8.943 2.657-16.522 43.195 1.501 115.637-25.909 27.288.665-1.172-1.21zm32.614 92.531l-11.066 58.439-135.572-8.376-7.97-6.697 1.117-5.168-6.501-7.437 3.225-25.505-2.108-.083-3.257 25.821 6.47 7.409-1.137 5.255 7.422 6.236-62.668-3.87 9.205-58.557 202.84 12.533v0zm1.313 43.184l5.049 2.953-2.504 13.225-10.731-.663 2.657-14.028 5.529-1.487v0zm34.159 20.745l-28.206-.161.298-1.562 27.908 1.723h0zm-32.103-1.983l-.314 1.653-10.731-.662.311-1.655 10.734.664zm-.801 4.24l-5.095 26.88-4.426-.201-5.441-5.026 4.229-22.317 10.733.664v0zm-14.125-5.163l-.312 1.655-276.892-17.106.313-1.654 276.891 17.105zm-.802 4.241L419.373 315.5l-168.897-10.436.566-30.907-30.831-2.839-20.16-3.968-2.163-9.535 1.684-17.788 231.386 14.295zm-193.415-77.978l-9.205 58.556-72.982-4.51 11.016-58.443 71.171 4.397z" stroke="#0089E3" stroke-opacity=".953" stroke-width=".29"/><path d="M526.49 162.765c-33.63 12.488-25.521 39.662-21.804 61.569 2.989 17.618 4.469 29.576 31.193 41.745l86.803-49.006-96.192-54.308zM217.551 96.584c54.875 20.459-3.058 86.065-8.254 130.207-3.93 33.38 28.459 77.621-15.147 97.559L4.135 217.073 217.55 96.583z" stroke="#0089E3" stroke-opacity=".996" stroke-width=".615" stroke-linecap="round" stroke-linejoin="round" stroke-dasharray="0.61 1.23"/><path d="M285.067 1.296L157.291 74.351l83.337 47.647 127.775-73.055-83.336-47.647z" fill="#fff" stroke="#0089E3" stroke-width=".503" stroke-linecap="round" stroke-linejoin="round"/><path d="M131.74 212.559v4.168l-37.243 21.534c12.395 9.432 19.925 21.753 19.927 35.248.003 13.492-7.519 25.807-19.905 35.234l37.221 17.351v4.169l-16.099 9.307-98.182-56.768-16.096-9.307v-4.168l130.377-56.768zM69.523 252.7l-35.968 20.795 35.97 20.798c7.661-5.747 11.9-13.134 11.927-20.79-.025-7.658-4.265-15.05-11.93-20.803z" fill="#fff" stroke="#0089E3" stroke-width=".529" stroke-linecap="round" stroke-linejoin="round"/><path d="M115.641 203.252l16.099 9.307-37.243 21.533c12.395 9.432 19.925 21.753 19.927 35.248.003 13.492-7.519 25.807-19.905 35.234l37.221 21.52-16.099 9.307-98.182-56.768-16.096-9.306 16.096-9.307 98.182-56.768zm-46.118 45.279l-35.968 20.796 35.97 20.797c7.661-5.747 11.9-13.134 11.927-20.789-.025-7.659-4.265-15.051-11.93-20.804z" fill="#fff" stroke="#0089E3" stroke-width=".529" stroke-linecap="round" stroke-linejoin="round"/><path d="M94.518 304.574l-7.449-4.541m-.021-61.4l7.448-4.541-7.448 4.541zm27.206 31.373h-8.179" stroke="#0089E3" stroke-width=".529" stroke-linecap="round" stroke-linejoin="round"/><path d="M214.899 61.812l41.874 24.125 57.29-33.103-41.874-24.124-57.29 33.102zm41.874 25.012l-43.401-24.998 58.817-33.99 43.4 24.998-58.816 33.99z" fill="#fff" stroke="#0089E3" stroke-width=".212"/><path d="M253.187 84.6l-.295-.17.124-.465 4.703-2.719.465.124-.125.468-4.701 2.717-.171.045" fill="#fff"/><path d="M253.187 84.6l-.295-.17.124-.465 4.703-2.719.465.124-.125.468-4.701 2.717-.171.045" stroke="#0089E3" stroke-width=".212"/><path d="M249.875 82.826l-.295-.17.125-.467 4.701-2.717.466.124-.124.466-4.702 2.718-.17.045" fill="#fff"/><path d="M249.875 82.826l-.295-.17.125-.467 4.701-2.717.466.124-.124.466-4.702 2.718-.17.045" stroke="#0089E3" stroke-width=".212"/><path d="M246.631 80.915l-.295-.17.125-.468 4.701-2.717.466.124-.125.466-4.701 2.718-.171.047" fill="#fff"/><path d="M246.631 80.915l-.295-.17.125-.468 4.701-2.717.466.124-.125.466-4.701 2.718-.171.047" stroke="#0089E3" stroke-width=".212"/><path d="M243.32 79.005l-.295-.173.125-.465 4.702-2.717a.338.338 0 01.465.123l-.124.466-4.701 2.718-.171.048" fill="#fff"/><path d="M243.32 79.005l-.295-.173.125-.465 4.702-2.717a.338.338 0 01.465.123l-.124.466-4.701 2.718-.171.048" stroke="#0089E3" stroke-width=".212"/><path d="M240.076 77.095l-.296-.171.125-.466 4.701-2.718a.34.34 0 01.466.126l-.124.465-4.703 2.717-.169.047" fill="#fff"/><path d="M240.076 77.095l-.296-.171.125-.466 4.701-2.718a.34.34 0 01.466.126l-.124.465-4.703 2.717-.169.047" stroke="#0089E3" stroke-width=".212"/><path d="M236.764 75.184l-.294-.17.124-.466 4.701-2.718.467.124-.126.467-4.7 2.717-.171.047" fill="#fff"/><path d="M236.764 75.184l-.294-.17.124-.466 4.701-2.718.467.124-.126.467-4.7 2.717-.171.047" stroke="#0089E3" stroke-width=".212"/><path d="M233.534 73.41l-.295-.17.124-.466 4.703-2.718.465.125-.124.468-4.703 2.717-.17.045" fill="#fff"/><path d="M233.534 73.41l-.295-.17.124-.466 4.703-2.718.465.125-.124.468-4.703 2.717-.17.045" stroke="#0089E3" stroke-width=".212"/><path d="M230.22 71.5l-.295-.17.126-.466 4.701-2.718.466.125-.125.466-4.702 2.718-.171.045" fill="#fff"/><path d="M230.22 71.5l-.295-.17.126-.466 4.701-2.718.466.125-.125.466-4.702 2.718-.171.045" stroke="#0089E3" stroke-width=".212"/><path d="M227.165 69.454l-.295-.171.124-.468 4.703-2.717.466.124-.125.466-4.702 2.718-.17.047" fill="#fff"/><path d="M227.165 69.454l-.295-.171.124-.468 4.703-2.717.466.124-.125.466-4.702 2.718-.17.047" stroke="#0089E3" stroke-width=".212"/><path d="M223.855 67.543l-.295-.17.125-.468 4.7-2.717.466.124-.124.466-4.702 2.718-.171.047" fill="#fff"/><path d="M223.855 67.543l-.295-.17.125-.468 4.7-2.717.466.124-.124.466-4.702 2.718-.171.047" stroke="#0089E3" stroke-width=".212"/><path d="M220.625 65.77l-.295-.17.125-.467 4.701-2.717.467.124-.126.465-4.701 2.718-.171.046" fill="#fff"/><path d="M220.625 65.77l-.295-.17.125-.467 4.701-2.717.467.124-.126.465-4.701 2.718-.171.046" stroke="#0089E3" stroke-width=".212"/><path d="M217.299 63.86l-.295-.174.124-.464 4.703-2.718a.339.339 0 01.465.126l-.124.465-4.702 2.719-.17.045" fill="#fff"/><path d="M217.299 63.86l-.295-.174.124-.464 4.703-2.718a.339.339 0 01.465.126l-.124.465-4.702 2.719-.17.045" stroke="#0089E3" stroke-width=".212"/><path d="M306.783 54.171l-.296-.173.124-.465 4.703-2.717a.338.338 0 01.466.124l-.126.465-4.701 2.718-.17.048" fill="#fff"/><path d="M306.783 54.171l-.296-.173.124-.465 4.703-2.717a.338.338 0 01.466.124l-.126.465-4.701 2.718-.17.048" stroke="#0089E3" stroke-width=".212"/><path d="M303.472 52.397l-.295-.169.125-.466 4.7-2.718.466.124-.125.468-4.701 2.716-.17.046" fill="#fff"/><path d="M303.472 52.397l-.295-.169.125-.466 4.7-2.718.466.124-.125.468-4.701 2.716-.17.046" stroke="#0089E3" stroke-width=".212"/><path d="M300.242 50.487l-.296-.17.125-.467 4.701-2.718.466.128-.125.464-4.701 2.718-.17.045" fill="#fff"/><path d="M300.242 50.487l-.296-.17.125-.467 4.701-2.718.466.128-.125.464-4.701 2.718-.17.045" stroke="#0089E3" stroke-width=".212"/><path d="M296.916 48.577l-.295-.171.124-.466 4.702-2.718.465.125-.124.466-4.701 2.718-.171.046" fill="#fff"/><path d="M296.916 48.577l-.295-.171.124-.466 4.702-2.718.465.125-.124.466-4.701 2.718-.171.046" stroke="#0089E3" stroke-width=".212"/><path d="M293.685 46.666l-.294-.17.124-.468 4.701-2.717.467.124-.125.466-4.702 2.718-.171.047" fill="#fff"/><path d="M293.685 46.666l-.294-.17.124-.468 4.701-2.717.467.124-.125.466-4.702 2.718-.171.047" stroke="#0089E3" stroke-width=".212"/><path d="M290.36 44.893l-.295-.171.125-.468 4.701-2.717.466.124-.125.466-4.701 2.718-.172.047" fill="#fff"/><path d="M290.36 44.893l-.295-.171.125-.468 4.701-2.717.466.124-.125.466-4.701 2.718-.172.047" stroke="#0089E3" stroke-width=".212"/><path d="M287.13 42.982l-.295-.169.125-.468 4.701-2.716.465.124-.124.465-4.701 2.718-.172.046" fill="#fff"/><path d="M287.13 42.982l-.295-.169.125-.468 4.701-2.716.465.124-.124.465-4.701 2.718-.172.046" stroke="#0089E3" stroke-width=".212"/><path d="M283.817 41.072l-.296-.173.125-.464 4.702-2.718a.338.338 0 01.465.126l-.125.465-4.701 2.718-.17.046" fill="#fff"/><path d="M283.817 41.072l-.296-.173.125-.464 4.702-2.718a.338.338 0 01.465.126l-.125.465-4.701 2.718-.17.046" stroke="#0089E3" stroke-width=".212"/><path d="M280.762 39.025l-.295-.17.126-.466 4.701-2.717.466.124-.125.465-4.702 2.72-.171.043" fill="#fff"/><path d="M280.762 39.025l-.295-.17.126-.466 4.701-2.717.466.124-.125.465-4.702 2.72-.171.043" stroke="#0089E3" stroke-width=".212"/><path d="M277.451 37.115l-.295-.171.125-.466 4.7-2.717a.336.336 0 01.465.124l-.124.466-4.701 2.718-.171.045" fill="#fff"/><path d="M277.451 37.115l-.295-.171.125-.466 4.7-2.717a.336.336 0 01.465.124l-.124.466-4.701 2.718-.171.045" stroke="#0089E3" stroke-width=".212"/><path d="M274.221 35.341l-.295-.17.125-.465 4.701-2.718.466.126-.124.465-4.703 2.718-.171.044" fill="#fff"/><path d="M274.221 35.341l-.295-.17.125-.465 4.701-2.718.466.126-.124.465-4.703 2.718-.171.044" stroke="#0089E3" stroke-width=".212"/><path d="M270.906 33.43l-.296-.168.125-.468 4.702-2.717a.337.337 0 01.465.124l-.124.466-4.701 2.718-.171.045" fill="#fff"/><path d="M270.906 33.43l-.296-.168.125-.468 4.702-2.717a.337.337 0 01.465.124l-.124.466-4.701 2.718-.171.045" stroke="#0089E3" stroke-width=".212"/><path d="M291.193 48.167h-55.9v9.649c-.015 8.22 12.483 14.9 27.916 14.941 15.43.029 27.957-6.61 27.97-14.832l-.009-.11h.009v-9.648" fill="#fff"/><path d="M291.193 48.167h-55.9v9.649c-.015 8.22 12.483 14.9 27.916 14.941 15.43.029 27.957-6.61 27.97-14.832l-.009-.11h.009v-9.648" stroke="#0089E3" stroke-width=".212"/><path d="M263.278 33.158c15.43.029 27.93 6.719 27.916 14.941-.017 8.219-12.542 14.86-27.97 14.832-15.431-.03-27.93-6.718-27.916-14.941.016-8.22 12.541-14.86 27.97-14.832z" fill="#fff" stroke="#0089E3" stroke-width=".212"/><path d="M263.425 39.298c12.684.025 23.159 4.755 25.067 10.91.209-.661.35-1.338.351-2.031l-.008-.078c-.071-7.085-11.412-12.839-25.408-12.866-13.754-.027-24.931 5.484-25.422 12.394l-.046.453c-.001.707.141 1.398.356 2.075 1.902-6.169 12.402-10.88 25.121-10.856" fill="#fff"/><path d="M263.425 39.298c12.684.025 23.159 4.755 25.067 10.91.209-.661.35-1.338.351-2.031l-.008-.078c-.071-7.085-11.412-12.839-25.408-12.866-13.754-.027-24.931 5.484-25.422 12.394l-.046.453c-.001.707.141 1.398.356 2.075 1.902-6.169 12.402-10.88 25.121-10.856" stroke="#0089E3" stroke-width=".212"/><path d="M263.373 60.994c12.685.023 23.186-4.666 25.121-10.814-1.916-6.155-12.386-10.885-25.067-10.91-12.713-.024-23.213 4.687-25.121 10.855 1.952 6.137 12.409 10.844 25.067 10.869z" fill="#fff"/><path d="M263.373 60.994c12.685.023 23.186-4.666 25.121-10.814-1.916-6.155-12.386-10.885-25.067-10.91-12.713-.024-23.213 4.687-25.121 10.855 1.952 6.137 12.409 10.844 25.067 10.869" stroke="#0089E3" stroke-width=".212"/><path d="M262.788 42.573c7.805.014 14.122 3.396 14.122 7.554-.008 4.155-6.342 7.511-14.149 7.498-7.806-.017-14.121-3.396-14.121-7.554.008-4.155 6.342-7.514 14.148-7.498z" fill="#fff" stroke="#0089E3" stroke-width=".212"/><path d="M269.07 49.668h-.464c-.933-1.23-3.186-2.1-5.828-2.106-2.658-.006-4.922.87-5.849 2.106h-.455v1.236c-.004 1.851 2.812 3.36 6.293 3.367 3.477.004 6.3-1.491 6.303-3.341l-.004-.026h.004V49.67" fill="#fff"/><path d="M269.07 49.668h-.464c-.933-1.23-3.186-2.1-5.828-2.106-2.658-.006-4.922.87-5.849 2.106h-.455v1.236c-.004 1.851 2.812 3.36 6.293 3.367 3.477.004 6.3-1.491 6.303-3.341l-.004-.026h.004V49.67" stroke="#0089E3" stroke-width=".212"/><path d="M262.772 46.257c3.479.006 6.296 1.513 6.292 3.364-.003 1.854-2.826 3.35-6.303 3.341-3.48-.006-6.296-1.513-6.293-3.366.004-1.851 2.825-3.347 6.304-3.34" fill="#fff"/><path d="M262.772 46.257c3.479.006 6.296 1.513 6.292 3.364-.003 1.854-2.826 3.35-6.303 3.341-3.48-.006-6.296-1.513-6.293-3.366.004-1.851 2.825-3.347 6.304-3.34" stroke="#0089E3" stroke-width=".212"/><path d="M276.936 41.618l-11.991 9.448-4.356-2.518 16.343-8.188v1.259" fill="#fff"/><path d="M276.936 41.618l-11.991 9.448-4.356-2.518 16.343-8.188v1.259" stroke="#0089E3" stroke-width=".212"/><path d="M248.598 57.992l16.343-6.93v-1.26h-2.178l-2.178-1.258-11.991 8.188v1.259" fill="#fff"/><path d="M248.598 57.992l16.343-6.93v-1.26h-2.178l-2.178-1.258-11.991 8.188v1.259" stroke="#0089E3" stroke-width=".212"/><path d="M276.936 40.39l-11.991 9.448-2.178-1.26-2.178-1.257 16.343-6.931" fill="#fff"/><path d="M276.936 40.39l-11.991 9.448-2.178-1.26-2.178-1.257 16.343-6.931" stroke="#0089E3" stroke-width=".212"/><path d="M248.598 56.764l16.343-6.93-2.178-1.26-2.178-1.257-11.991 9.447" fill="#fff"/><path d="M248.598 56.764l16.343-6.93-2.178-1.26-2.178-1.257-11.991 9.447" stroke="#0089E3" stroke-width=".212"/><path d="M262.936 47.349c1.188.001 2.15.516 2.149 1.148-.001.633-.964 1.144-2.153 1.142-1.187-.004-2.149-.517-2.148-1.15.001-.633.965-1.144 2.152-1.14" fill="#fff"/><path d="M262.936 47.349c1.188.001 2.15.516 2.149 1.148-.001.633-.964 1.144-2.153 1.142-1.187-.004-2.149-.517-2.148-1.15.001-.633.965-1.144 2.152-1.14" stroke="#0089E3" stroke-width=".212"/><path d="M222.343 73.138l14.721 8.509 2.883-1.666-14.721-8.508-2.883 1.665z" fill="#fff"/><path d="M222.343 73.138l14.721 8.509 2.883-1.666-14.721-8.508-2.883 1.665" stroke="#0089E3" stroke-width=".212"/><path d="M476 323.356c.224.267.429.544.585.823.332.603.495 1.268.717 1.914.117.336.295.628.397.961l6.437-5.978-8.135 2.279" fill="#fff"/><path d="M476 323.356c.224.267.429.544.585.823.332.603.495 1.268.717 1.914.117.336.295.628.397.961l6.437-5.978-8.135 2.279" stroke="#0089E3" stroke-width=".265"/><path d="M483.911 321.113l-7.837 2.194c-.218.016-.362.075-.228.036l-13.175 3.865a1.938 1.938 0 00-1.014.186l-.006-.021-53.125 30.61.033.066c-.045.019-.096.024-.14.045l-.01-.018-18.594 10.603c-.066.022-.143.031-.203.06l-2.049 1.177c-.845.219-1.455 1.019-1.644 2.271l-6.152 3.599.01.017c-.62.35-1.023 1.159-1.023 2.335 0 2.135 1.292 4.614 2.886 5.54.706.411 1.346.428 1.848.153l.003.009.188-.111 6.086-3.58c.87.414 1.658.384 2.248-.042l.036.078 2.68-1.548c-.031.031-.055.073-.087.102l18.726-10.774c.037-.034.066-.083.102-.12l.003.009 52.756-30.277-.009-.024c.248-.133.459-.342.646-.585l10.786-10.024c.011-.01.014-.031.024-.042l6.235-5.789z" fill="#fff" stroke="#0089E3" stroke-width=".794" stroke-linecap="round" stroke-linejoin="round"/><path d="M478.196 325.93c0-.978-.621-2.067-1.321-2.536-.311-.283-.553-.17-.8-.088l-13.775 4.043 4.507 9.848 11.073-10.289c.2-.194.317-.537.317-.978" fill="#fff"/><path d="M478.196 325.93c0-.978-.621-2.067-1.321-2.536-.311-.283-.553-.17-.8-.088l-13.775 4.043 4.507 9.848 11.073-10.289c.2-.194.317-.537.317-.978" stroke="#0089E3" stroke-width=".265"/><path d="M467.772 334.57c0-2.691-1.626-5.818-3.633-6.98-.856-.498-1.634-.537-2.255-.233l-.008-.02-53.122 30.61 4.946 9.871 52.757-30.279-.009-.023c.802-.428 1.322-1.456 1.322-2.961" fill="#fff"/><path d="M467.772 334.57c0-2.691-1.626-5.818-3.633-6.98-.856-.498-1.634-.537-2.255-.233l-.008-.02-53.122 30.61 4.946 9.871 52.757-30.279-.009-.023c.802-.428 1.322-1.456 1.322-2.961" stroke="#0089E3" stroke-width=".265"/><path d="M410.9 358.286c-.855-.498-1.633-.532-2.254-.228l-.01-.019-18.999 10.832c.619-.304 1.684-.304 2.54.191 2.006 1.164 3.635 4.293 3.635 6.978 0 1.246-.368 2.142-.943 2.663l18.725-10.774c.575-.524.941-1.417.941-2.662 0-2.691-1.626-5.815-3.633-6.98" fill="#fff"/><path d="M410.9 358.286c-.855-.498-1.633-.532-2.254-.228l-.01-.019-18.999 10.832c.619-.304 1.684-.304 2.54.191 2.006 1.164 3.635 4.293 3.635 6.978 0 1.246-.368 2.142-.943 2.663l18.725-10.774c.575-.524.941-1.417.941-2.662 0-2.691-1.626-5.815-3.633-6.98" stroke="#0089E3" stroke-width=".265"/><path d="M395.907 375.935c0-2.686-1.629-5.815-3.635-6.979-.856-.495-1.809-.559-2.43-.255l-2.314 1.329 4.749 10.117 2.687-1.549c.575-.52.943-1.417.943-2.662" fill="#fff"/><path d="M395.907 375.935c0-2.686-1.629-5.815-3.635-6.979-.856-.495-1.809-.559-2.43-.255l-2.314 1.329 4.749 10.117 2.687-1.549c.575-.52.943-1.417.943-2.662" stroke="#0089E3" stroke-width=".265"/><path d="M393.343 377.222c0 2.69-1.629 3.927-3.635 2.763-2.006-1.164-3.634-4.289-3.634-6.98 0-2.692 1.626-3.927 3.634-2.764 2.006 1.167 3.635 4.293 3.635 6.981z" fill="#fff" stroke="#0089E3" stroke-width=".265"/><path d="M392.246 377.038c0-2.134-1.29-4.616-2.884-5.539-.68-.395-1.297-.424-1.789-.182l-.281.162-7.3 4.271 3.723 8.054 7.598-4.473c.571-.377.934-1.167.934-2.292" fill="#fff"/><path d="M392.246 377.038c0-2.134-1.29-4.616-2.884-5.539-.68-.395-1.297-.424-1.789-.182l-.281.162-7.3 4.271 3.723 8.054 7.598-4.473c.571-.377.934-1.167.934-2.292" stroke="#0089E3" stroke-width=".265"/><path d="M384.75 381.45c0 2.135-1.292 3.117-2.884 2.192-1.593-.927-2.886-3.405-2.886-5.539 0-2.133 1.292-3.116 2.886-2.192 1.592.924 2.884 3.405 2.884 5.539z" fill="#fff" stroke="#0089E3" stroke-width=".265"/></svg>