<svg width="596" height="383" fill="none" xmlns="http://www.w3.org/2000/svg"><path d="M61.03 211.289c-.397 0-.796.041-1.17.129a3.864 3.864 0 00-1.02.394L3.043 244.239l-.674.596c-.448.649-.214 1.421.69 1.946v.107l-.088-.051c-.605-.35-.91-.816-.91-1.275v4.483c-.005.459.301.921.91 1.275l97.744 56.441c1.21.703 3.181.703 4.384 0v-.019l55.754-32.403c.598-.346.897-.806.897-1.261v-4.086c.227-.489.111-1.022-.384-1.46l-.4-.279-97.742-56.441a3.943 3.943 0 00-1.023-.394 5.2 5.2 0 00-1.17-.129h0z" fill="#fff" stroke="#0089E3" stroke-width=".794" stroke-linecap="round" stroke-linejoin="round"/><path d="M323.177 2.68l-6.529.61-45.004 126.887-116.117 67.053v8.767l133.843 77.246 116.12-67.054v-8.767l-.057-.033.568.258-.003.007c3.526 1.361 6.503-.546 6.503-.546l45.177-126.806L323.177 2.68z" fill="#fff" stroke="#0089E3" stroke-width="1.032" stroke-linejoin="round"/><path d="M316.08 3.03l-45.003 126.888 133.218 76.923.127.084 1.011.464 44.961-126.804L316.08 3.03z" fill="#fff" stroke="#0089E3" stroke-width=".423" stroke-linejoin="round"/><path d="M317.783 16.806l-35.657 101.141 123.493 71.327 35.836-101.036-123.672-71.432z" fill="#D1EBFC" stroke="#0089E3" stroke-width=".291" stroke-linejoin="round"/><path d="M316.646 3.288l134.315 77.557 6.716-.543-134.501-77.62-6.529.608" fill="#fff"/><path d="M316.646 3.288l134.315 77.557 6.716-.543-134.501-77.62-6.529.608" stroke="#0089E3" stroke-width=".423" stroke-linejoin="round"/><path d="M450.96 80.844l-44.964 126.809c3.526 1.361 6.502-.544 6.502-.544l45.178-126.808-6.716.545" fill="#fff"/><path d="M450.96 80.844l-44.964 126.809c3.526 1.361 6.502-.544 6.502-.544l45.178-126.808-6.716.545" stroke="#0089E3" stroke-width=".423" stroke-linejoin="round"/><path d="M271.646 130.176L155.527 197.23l133.846 77.244 116.119-67.053-133.846-77.245z" fill="#fff" stroke="#0089E3" stroke-width=".423" stroke-linecap="round" stroke-linejoin="round"/><path d="M379.003 40.259l-2.371 6.727 8.213 4.744 2.384-6.72-8.226-4.751z" fill="#fff" stroke="#0089E3" stroke-width=".423" stroke-linejoin="round"/><path d="M405.49 207.421l-116.119 67.053v8.769l116.119-67.054v-8.768z" fill="#fff" stroke="#0089E3" stroke-width=".423" stroke-linecap="round" stroke-linejoin="round"/><path d="M155.527 197.23l133.846 77.244v8.769l-133.845-77.245-.001-8.768zm113.18-58.687l-58.459 33.756 87.067 50.25-6.723 3.878 35.225 20.329 65.181-37.634-122.291-70.579z" fill="#fff" stroke="#0089E3" stroke-width=".423" stroke-linecap="round" stroke-linejoin="round"/><path d="M252.847 196.767l-37.115 21.422 37.28 21.51 37.114-21.423-37.279-21.509z" fill="#fff" stroke="#0089E3" stroke-width=".291" stroke-linecap="round" stroke-linejoin="round"/><path d="M252.665 196.901l-6.59 3.763 12.487 7.126 6.59-3.764-12.487-7.125z" fill="#fff" stroke="#0089E3" stroke-width=".423" stroke-linecap="round" stroke-linejoin="round"/><path d="M265.151 204.026l-6.589 3.764 12.486 7.125 6.59-3.764-12.487-7.125zm12.49 7.125l-6.59 3.764 12.486 7.125 6.59-3.764-12.486-7.125zm24.116 24.977l10.561 6.099-12.827 7.401-10.561-6.099 12.827-7.401zm-31.291-94.469l-10.967 6.333 10.967 6.333 10.967-6.333-10.967-6.333zm10.969 6.333l-10.967 6.333 10.967 6.333 10.967-6.333-10.967-6.333z" fill="#fff" stroke="#0089E3" stroke-width=".423" stroke-linecap="round" stroke-linejoin="round"/><path d="M292.399 154.325l-10.967 6.333 10.967 6.333 10.967-6.333-10.967-6.333zm10.968 6.333l-10.967 6.333 10.967 6.333 10.967-6.333-10.967-6.333zm10.968 6.333l-10.967 6.333 10.967 6.333 10.967-6.333-10.967-6.333z" fill="#fff" stroke="#0089E3" stroke-width=".423" stroke-linecap="round" stroke-linejoin="round"/><path d="M325.299 173.324l-10.967 6.333 10.967 6.333 10.967-6.333-10.967-6.333zm10.969 6.333l-10.967 6.333 10.967 6.333 10.967-6.333-10.967-6.333zm10.968 6.333l-10.967 6.333 10.967 6.333 10.967-6.333-10.967-6.333z" fill="#fff" stroke="#0089E3" stroke-width=".423" stroke-linecap="round" stroke-linejoin="round"/><path d="M358.203 192.323l-10.967 6.333 10.967 6.333 10.967-6.333-10.967-6.333z" fill="#fff" stroke="#0089E3" stroke-width=".423" stroke-linecap="round" stroke-linejoin="round"/><path d="M369.168 198.656l-10.967 6.333 16.451 9.499 10.967-6.333-16.451-9.499zm-109.67-50.664l-10.967 6.333 16.451 9.499 10.967-6.333-16.451-9.499zm16.452 9.499l-10.967 6.333 10.967 6.333 10.967-6.333-10.967-6.333z" fill="#fff" stroke="#0089E3" stroke-width=".423" stroke-linecap="round" stroke-linejoin="round"/><path d="M286.914 163.824l-10.967 6.333 10.967 6.333 10.967-6.333-10.967-6.333zm10.969 6.333l-10.967 6.333 10.967 6.333 10.967-6.333-10.967-6.333zm10.968 6.333l-10.967 6.333 10.967 6.333 10.967-6.333-10.967-6.333zm10.969 6.333l-10.967 6.333 10.967 6.333 10.967-6.333-10.967-6.333z" fill="#fff" stroke="#0089E3" stroke-width=".423" stroke-linecap="round" stroke-linejoin="round"/><path d="M330.783 189.156l-10.967 6.333 10.967 6.333 10.968-6.333-10.968-6.333z" fill="#fff" stroke="#0089E3" stroke-width=".423" stroke-linecap="round" stroke-linejoin="round"/><path d="M341.751 195.489l-10.967 6.333 10.967 6.333 10.967-6.333-10.967-6.333zm10.969 6.333l-10.967 6.333 10.967 6.333 10.967-6.333-10.967-6.333zm10.968 6.333l-10.967 6.333 10.967 6.333 10.967-6.333-10.967-6.333zm-115.158-53.83l-10.967 6.333 10.967 6.333 10.968-6.333-10.968-6.333zm10.968 6.333l-10.967 6.333 10.967 6.333 10.967-6.333-10.967-6.333zm10.968 6.333l-10.967 6.333 10.967 6.333 10.967-6.333-10.967-6.333zm10.969 6.333l-10.967 6.333 10.967 6.333 10.967-6.333-10.967-6.333z" fill="#fff" stroke="#0089E3" stroke-width=".423" stroke-linecap="round" stroke-linejoin="round"/><path d="M292.399 179.657l-10.967 6.333 10.967 6.333 10.967-6.333-10.967-6.333zm10.968 6.333l-10.967 6.333 10.967 6.333 10.968-6.333-10.968-6.333z" fill="#fff" stroke="#0089E3" stroke-width=".423" stroke-linecap="round" stroke-linejoin="round"/><path d="M314.335 192.323l-10.967 6.333 10.967 6.333 10.967-6.333-10.967-6.333zm10.968 6.333l-10.967 6.333 10.967 6.333 10.967-6.333-10.967-6.333z" fill="#fff" stroke="#0089E3" stroke-width=".423" stroke-linecap="round" stroke-linejoin="round"/><path d="M336.268 204.989l-10.967 6.333 10.967 6.333 10.967-6.333-10.967-6.333zm10.967 6.333l-10.966 6.333 16.45 9.499 10.967-6.333-16.451-9.499zm-109.669-50.664l-10.967 6.333 16.45 9.499 10.967-6.333-16.45-9.499z" fill="#fff" stroke="#0089E3" stroke-width=".423" stroke-linecap="round" stroke-linejoin="round"/><path d="M254.014 170.157l-10.967 6.333 10.967 6.333 10.967-6.333-10.967-6.333zm10.969 6.333l-10.967 6.333 10.967 6.333 10.967-6.333-10.967-6.333z" fill="#fff" stroke="#0089E3" stroke-width=".423" stroke-linecap="round" stroke-linejoin="round"/><path d="M275.95 182.823l-10.967 6.333 10.967 6.333 10.967-6.333-10.967-6.333z" fill="#fff" stroke="#0089E3" stroke-width=".423" stroke-linecap="round" stroke-linejoin="round"/><path d="M286.914 189.156l-10.967 6.333 10.967 6.333 10.967-6.333-10.967-6.333zm10.969 6.333l-10.967 6.333 10.967 6.333 10.967-6.333-10.967-6.333zm10.968 6.333l-10.967 6.333 10.967 6.333 10.967-6.333-10.967-6.333zm10.969 6.333l-10.967 6.333 10.967 6.333 10.967-6.333-10.967-6.333z" fill="#fff" stroke="#0089E3" stroke-width=".423" stroke-linecap="round" stroke-linejoin="round"/><path d="M330.783 214.488l-10.967 6.333 10.967 6.333 10.968-6.333-10.968-6.333z" fill="#fff" stroke="#0089E3" stroke-width=".423" stroke-linecap="round" stroke-linejoin="round"/><path d="M341.751 220.821l-10.967 6.333 10.967 6.333 10.967-6.333-10.967-6.333zm-115.153-53.83l-10.967 6.333 10.967 6.333 10.967-6.333-10.967-6.333zm10.968 6.333l-10.967 6.333 10.967 6.333 10.967-6.333-10.967-6.333zm21.932 12.666l-10.967 6.333 43.868 25.332 10.967-6.333-43.868-25.332z" fill="#fff" stroke="#0089E3" stroke-width=".423" stroke-linecap="round" stroke-linejoin="round"/><path d="M248.53 179.657l-10.967 6.333 10.967 6.333 10.968-6.333-10.968-6.333zm54.837 31.665l-10.967 6.333 10.967 6.333 10.968-6.333-10.968-6.333z" fill="#fff" stroke="#0089E3" stroke-width=".423" stroke-linecap="round" stroke-linejoin="round"/><path d="M314.333 217.655l-9.158 5.279 9.158 5.279 9.158-5.279-9.158-5.279zm9.161 5.279l-9.158 5.279 9.158 5.279 9.158-5.279-9.158-5.279z" fill="#fff" stroke="#0089E3" stroke-width=".423" stroke-linecap="round" stroke-linejoin="round"/><path d="M332.652 228.213l-9.158 5.279 9.158 5.279 9.158-5.279-9.158-5.279zm-27.467-5.275l-9.158 5.279 9.158 5.279 9.158-5.279-9.158-5.279z" fill="#fff" stroke="#0089E3" stroke-width=".423" stroke-linecap="round" stroke-linejoin="round"/><path d="M314.342 228.217l-9.157 5.279 9.157 5.279 9.158-5.279-9.158-5.279zm9.158 5.28l-9.158 5.278 9.158 5.28 9.158-5.28-9.158-5.278z" fill="#fff" stroke="#0089E3" stroke-width=".423" stroke-linecap="round" stroke-linejoin="round"/><path d="M445.92 260.188l-128.849 73.584 84.036 47.991 128.849-73.583-84.036-47.992z" fill="#fff" stroke="#0089E3" stroke-width=".476" stroke-linecap="round" stroke-linejoin="round"/><path d="M510.727 253.359l-128.849 73.583 84.036 47.992 128.849-73.584-84.036-47.991z" fill="#fff" stroke="#0089E3" stroke-width=".476" stroke-linecap="round" stroke-linejoin="round"/><path d="M154.834 50.862L25.985 124.445l84.036 47.992L238.87 98.854l-84.036-47.992z" fill="#fff" stroke="#0089E3" stroke-width=".397" stroke-linecap="round" stroke-linejoin="round"/><path d="M152.686 86.448l66.781 37.734-43.555 24.61-66.78-37.734 43.554-24.61z" fill="#fff" stroke="#0089E3" stroke-width=".397" stroke-linecap="round" stroke-linejoin="round"/><path d="M119.097 82.946l66.78 37.734-43.555 24.61-66.78-37.734 43.555-24.61z" fill="#fff" stroke="#0089E3" stroke-width=".397" stroke-linecap="round" stroke-linejoin="round"/><path d="M161.366 268.534l-.401-.281-97.74-56.44a3.95 3.95 0 00-1.025-.394 5.339 5.339 0 00-2.34 0 3.865 3.865 0 00-1.02.394L3.043 244.24l-.674.595c-.448.648-.215 1.421.689 1.946v4.483l97.745 56.44v-4.483c1.213.699 3.181.699 4.383 0l27.897-16.213 27.893-16.215.678-.594c.375-.54.277-1.167-.288-1.666" fill="#fff"/><path d="M161.366 268.534l-.401-.281-97.74-56.44a3.95 3.95 0 00-1.025-.394 5.339 5.339 0 00-2.34 0 3.865 3.865 0 00-1.02.394L3.043 244.24l-.674.595c-.448.648-.215 1.421.689 1.946v4.483l97.745 56.44v-4.483c1.213.699 3.181.699 4.383 0l27.897-16.213 27.893-16.215.678-.594c.375-.54.277-1.167-.288-1.666" stroke="#0089E3" stroke-width=".423" stroke-linecap="round" stroke-linejoin="round"/><path d="M105.058 303.285l55.789-32.427c.598-.347.9-.802.904-1.262v4.484c0 .455-.299.914-.896 1.261l-55.794 32.427-.003-4.483z" fill="#fff" stroke="#0089E3" stroke-width=".423" stroke-linecap="round" stroke-linejoin="round"/><path d="M2.06 245.562c0 .459.307.926.912 1.276l97.744 56.44c1.214.699 3.182.699 4.384 0v4.483c-1.202.703-3.174.703-4.384 0l-97.744-56.44c-.609-.354-.915-.816-.911-1.276v-4.483zm58.974-29.584c-.907 0-1.813.205-2.504.612l-46.868 27.517c-1.383.814-1.371 2.124 0 2.939l69.27 40.405 52.595-30.035-69.985-40.826c-.691-.407-1.6-.612-2.508-.612z" fill="#fff" stroke="#0089E3" stroke-width=".423" stroke-linecap="round" stroke-linejoin="round"/><path d="M131.771 283.707c.408.229.408.608 0 .842l-4.202 2.445c-.401.23-1.053.226-1.457 0l-4.231-2.442c-.405-.236-.405-.616 0-.849l4.201-2.442c.401-.229 1.053-.229 1.458 0l4.227 2.446" fill="#fff"/><path d="M131.771 283.707c.408.229.408.608 0 .842l-4.202 2.445c-.401.23-1.053.226-1.457 0l-4.231-2.442c-.405-.236-.405-.616 0-.849l4.201-2.442c.401-.229 1.053-.229 1.458 0l4.227 2.446" stroke="#0089E3" stroke-width=".423" stroke-linecap="round" stroke-linejoin="round"/><path d="M134.788 262.897l-6.59 3.764 12.487 7.125 6.589-3.764-12.486-7.125z" fill="#fff" stroke="#0089E3" stroke-width=".423" stroke-linecap="round" stroke-linejoin="round"/><path d="M128.198 266.661l-6.59 3.763 12.487 7.125 6.59-3.763-12.487-7.125zm-26.356 15.055l-6.59 3.763 12.486 7.125 6.59-3.763-12.486-7.125zm-6.592 3.763l-6.589 3.764 12.487 7.125 6.589-3.763-12.486-7.126z" fill="#fff" stroke="#0089E3" stroke-width=".423" stroke-linecap="round" stroke-linejoin="round"/><path d="M142.381 22.933c-12.385.003-22.427 6.838-22.428 15.267-.002 8.43 10.038 15.261 22.423 15.259 12.385-.003 22.427-6.838 22.428-15.267.002-8.43-10.037-15.26-22.423-15.259z" fill="#fff" stroke="#0089E3" stroke-width=".397" stroke-linecap="round" stroke-linejoin="round"/><path d="M164.512 40.516c-.816 3.6-3.495 6.883-7.555 9.256-4.06 2.374-9.233 3.681-14.584 3.687-5.297 0-10.422-1.275-14.468-3.601-4.046-2.326-6.751-5.552-7.636-9.106l5.75 46.107c0 1.38.377 2.748 1.111 4.034 2.444 4.279 8.498 7.097 15.244 7.095 9.034 0 16.358-4.987 16.359-11.135v-.014l5.779-46.323z" fill="#fff" stroke="#0089E3" stroke-width=".397" stroke-linecap="round" stroke-linejoin="round"/><path d="M142.383 22.926c-12.385.001-22.428 6.836-22.43 15.266.001.855.108 1.71.32 2.552v.006l5.75 46.1c0 1.38.377 2.75 1.111 4.035 2.444 4.28 8.497 7.096 15.244 7.095 9.034 0 16.359-4.986 16.36-11.135v-.013l5.777-46.315v-.009c.184-.769.281-1.546.29-2.324.001-8.43-10.038-15.26-22.422-15.258h0z" fill="#fff" stroke="#0089E3" stroke-width=".661" stroke-linecap="round" stroke-linejoin="round"/><path d="M134.84 79.597c.229.109.664.1.775-.11l11.893-10.946-10.561-5.004-2.478 15.406s.141.545.371.654z" fill="#fff" stroke="#0089E3" stroke-width=".529" stroke-linecap="round" stroke-linejoin="round"/><path d="M136.9 64.57c.073 1.727 1.555 3.544 3.733 4.576 2.917 1.382 6.116.927 7.145-1.016l.001-.001 16.853-31.82-10.562-5.005-16.853 31.821h0a2.803 2.803 0 00-.316 1.445h-.001z" fill="#fff" stroke="#0089E3" stroke-width=".529" stroke-linecap="round" stroke-linejoin="round"/><path d="M167.356 31.16l-10.561-5.004-3.549 6.702a2.803 2.803 0 00-.317 1.445h0c.072 1.726 1.555 3.544 3.733 4.576 2.917 1.382 6.115.926 7.145-1.017l.001-.001 3.548-6.7z" fill="#fff" stroke="#0089E3" stroke-width=".529" stroke-linecap="round" stroke-linejoin="round"/><path d="M163.94 25.14c-2.916-1.382-6.115-.927-7.145 1.016-1.03 1.944.5 4.64 3.416 6.021 2.917 1.382 6.116.927 7.145-1.016 1.03-1.944-.5-4.64-3.416-6.021z" fill="#fff" stroke="#0089E3" stroke-width=".529" stroke-linecap="round" stroke-linejoin="round"/><path d="M164.512 40.516c-.816 3.6-3.495 6.883-7.555 9.256-4.06 2.374-9.233 3.682-14.584 3.687-5.297 0-10.422-1.275-14.468-3.601-4.046-2.326-6.751-5.552-7.636-9.106l5.75 46.107c0 1.38.376 2.748 1.111 4.034 2.444 4.279 8.498 7.097 15.244 7.096 9.034 0 16.358-4.988 16.359-11.136v-.014l5.779-46.323z" fill="#fff" fill-opacity=".604" stroke="#0089E3" stroke-width=".397" stroke-linecap="round" stroke-linejoin="round"/><path d="M517.838 257.421l66.78 37.733-43.554 24.61-66.781-37.733 43.555-24.61z" fill="#D1EBFC" stroke="#0089E3" stroke-width=".37" stroke-linecap="round" stroke-linejoin="round"/><path d="M446.627 232.01c-8.895.001-17.426 2.331-23.717 6.477-6.29 4.146-9.825 9.769-9.827 15.631v13.77c0 2.74.77 5.457 2.277 8.01v-.008c5.01 8.496 17.424 14.09 31.256 14.087 18.523-.004 33.54-9.9 33.542-22.108v-13.762c.001-5.862-3.531-11.484-9.82-15.628s-14.819-6.471-23.713-6.47l.002.001z" fill="#fff" stroke="#0089E3" stroke-width=".767" stroke-linecap="round" stroke-linejoin="round"/><path d="M415.361 275.886c5.011 8.496 17.423 14.091 31.256 14.089 18.523-.004 33.541-9.902 33.543-22.11V254.11l-67.077.014v13.762c0 2.739.772 5.455 2.278 8.009v-.009z" fill="#fff" stroke="#0089E3" stroke-width=".37" stroke-linecap="round" stroke-linejoin="round"/><path d="M446.627 237.042c-18.523.003-33.541 9.902-33.543 22.109-.002 12.208 15.012 22.101 33.535 22.098 18.523-.003 33.54-9.902 33.542-22.11.002-12.207-15.012-22.101-33.534-22.097z" fill="#fff" stroke="#0089E3" stroke-width=".37" stroke-linecap="round" stroke-linejoin="round"/><path d="M446.627 232.006c-18.523.003-33.541 9.902-33.543 22.109-.002 12.208 15.012 22.101 33.535 22.098 18.523-.003 33.54-9.902 33.542-22.11.002-12.207-15.012-22.1-33.534-22.097zm31.13 66.972l-8.695 4.893 50.739 28.666 8.797-4.95-50.841-28.609zm-17.594 9.9l-8.695 4.893 50.739 28.666 8.798-4.95-50.842-28.609z" fill="#fff" stroke="#0089E3" stroke-width=".37" stroke-linecap="round" stroke-linejoin="round"/></svg>