<svg xmlns="http://www.w3.org/2000/svg" viewBox="0 0 479.94 479.94" fill="none"><path d="M95.74 240.22V140.15c0-10 2-19.46 8.35-27.6 8.57-11.05 20.12-15.84 33.8-15.85q101.72-.06 203.42 0c20.78.05 35.42 11.32 40.55 30.66a49.18 49.18 0 011.34 12.48q.12 100.55 0 201.08c0 21.65-11 36.68-30.82 41.87a49.75 49.75 0 01-12.49 1.31q-100.53.12-201.08 0c-21.44 0-36.36-10.87-41.64-30.48a53.21 53.21 0 01-1.42-13.41c-.06-33.27-.01-66.63-.01-99.99zm16 .22c0 33.68-.06 67.36 0 101 0 16.89 9.54 26.66 26.23 26.69q101.5.12 203 0c16.51 0 26.19-9.71 26.21-26.22q.13-101.51 0-203c0-16.51-9.71-26.19-26.22-26.21q-101.5-.14-203 .08a31.37 31.37 0 00-13.06 2.76c-10 4.8-13.26 13.67-13.23 24.31.14 33.55.08 67.07.08 100.59z" fill="#0EB3E9" stroke="#0EB3E9" stroke-width="8"/><path d="M239.55 320.16a79.73 79.73 0 1179.68-79.64 79.57 79.57 0 01-79.68 79.64zm.37-143.49a63.77 63.77 0 1063.35 64.3 63.63 63.63 0 00-63.35-64.3zm87.92-47.86A23.69 23.69 0 01351.13 153c-.26 13.17-11.17 23.81-24.11 23.53-13.12-.29-23.8-11.19-23.64-24.12a23.92 23.92 0 0124.46-23.6zm-.61 31.68a7.84 7.84 0 007.88-7.55 7.65 7.65 0 00-7.71-8.1 7.78 7.78 0 00-7.93 7.47 7.92 7.92 0 007.76 8.18z" fill="#0EB3E9" stroke="#0EB3E9" stroke-width="8"/></svg>