<svg width="150" height="80" fill="none" xmlns="http://www.w3.org/2000/svg"><path fill-rule="evenodd" clip-rule="evenodd" d="M75.06 0h3.888l3.727.162c89.768 7.007 89.765 72.543 0 79.55l-3.727.163h-7.777C48.602 79.578 8.946 70.65.856 46.013L.37 44.069l-.324-2.106C-1.55 15.292 39.17 2.39 59.992.81l7.453-.648L71.17 0h3.889zm0 3.402h3.564l3.565.162c84.47 6.29 84.47 66.584 0 72.746l-3.565.162h-7.129c-20.77-.078-58.59-8.265-66.265-30.945l-.486-1.782-.162-1.944C2.797 17.17 41.924 5.692 60.802 4.05l3.565-.325 3.564-.162 3.564-.162h3.565zm0 4.537l3.402.162h3.403c78.705 5.816 78.729 57.967 0 63.673l-3.403.162h-6.805c-18.186-.138-54.772-7.043-61.728-27.057l-.486-1.62-.162-1.62C7.64 19.402 45.297 9.968 61.774 8.587l3.24-.162 3.241-.324h3.402l3.403-.162zm0-1.458h3.402l3.403.162c80.441 5.697 80.444 60.97 0 66.589l-3.403.162h-6.805c-18.856.03-56.166-7.52-63.024-28.353l-.487-1.62-.324-1.782C6.848 18.407 43.79 8.654 61.45 7.129l3.403-.324 3.402-.162 3.402-.162h3.403zM21.108 53.466V26.57h7.939l10.045 15.878V26.57h7.29v26.895h-7.776L28.399 37.264v16.202h-7.291zm30.297 0V26.57h7.615v20.414h8.1v6.48H51.406zm16.85 0l4.05-26.895h7.615l4.699 16.364 4.86-16.364h7.615l4.051 26.895h-7.453l-1.944-15.554-4.699 15.554h-4.86l-4.537-15.554-2.106 15.554h-7.291zm35.806 0V26.57h7.615v11.341l8.263-11.341h8.911l-10.37 12.961 10.694 13.934h-9.559l-7.939-11.503v11.503" fill="#A2A2A2"/></svg>