<svg width="64" height="20" fill="none" xmlns="http://www.w3.org/2000/svg"><path fill-rule="evenodd" clip-rule="evenodd" d="M57 20a7 7 0 100-14 7 7 0 000 14zm0-4a3 3 0 100-6 3 3 0 000 6zM38 5h10v4h-6v11h-4V5zm-9 15a7 7 0 100-14 7 7 0 000 14zm0-4a3 3 0 100-6 3 3 0 000 6zM6 0h14v20h-4V4H9.998c-.028 2.728-.315 6.396-1.505 9.508-.635 1.66-1.573 3.284-2.98 4.503C4.067 19.264 2.225 20 0 20v-4c1.275 0 2.183-.397 2.893-1.012.75-.65 1.374-1.63 1.864-2.91C5.748 9.488 6 6.17 6 3.536V0z" fill="#1A394A"/></svg>