<svg width="214" height="110" fill="none" xmlns="http://www.w3.org/2000/svg"><path fill-rule="evenodd" clip-rule="evenodd" d="M81.441 82.166v-1.89h-4.81v1.89h-.561V78.11h.562v1.76h4.81v-1.76h.555v4.056h-.556zm2.447 0V78.11h4.791v.405h-4.238v1.354h4.126v.401h-4.126v1.49h4.238v.406h-4.79zm14.514-1.788v-.506c0-.964-.48-1.45-1.996-1.45h-1.652v-.36h-.563v.36h-1.63c-1.528 0-2.007.405-2.007 1.45v.506c0 1.031.541 1.388 2.006 1.388h1.632v.4h.563v-.4h1.65c1.457 0 1.997-.338 1.997-1.388zm-.564 0c0 .78-.378.987-1.432.987h-1.652v-2.537h1.652c1 0 1.432.235 1.432 1.022v.528zm-3.646.987H92.56c-1.055 0-1.457-.206-1.457-.993v-.54c0-.775.44-1.004 1.457-1.004h1.632v2.537zm8.49-2.85v3.651h.559v-3.651h2.646v-.405h-5.831v.405h2.626zm10.266 3.651v-4.055h-3.647c-1.346 0-1.901.334-1.901 1.256 0 .762.555 1.118 1.617 1.118l-1.841 1.683h.779l1.732-1.683h2.696v1.683h.565v-.002zm-.565-2.082h-3.258c-.866 0-1.169-.113-1.169-.717 0-.63.317-.852 1.114-.852h3.313v1.569zm7.972 2.082v-1.89h-4.807v1.89h-.559V78.11h.559v1.76h4.807v-1.76h.562v4.056h-.562zm8.515 0l-2.804-4.055h-.861l-2.802 4.055h.618l.696-1.017h3.806l.69 1.017h.657zm-1.639-1.431h-3.21l1.6-2.333 1.61 2.332zm8.032 1.431v-1.682h-2.695l-1.741 1.683h-.768l1.827-1.683c-1.059 0-1.608-.355-1.608-1.118 0-.922.549-1.256 1.895-1.256h3.654v4.055h-.564v.001zm0-3.651h-3.313c-.794 0-1.123.222-1.123.852 0 .605.306.717 1.177.717h3.259v-1.57zm10.948 3.651h.983l-3.914-2.125 3.827-1.93h-.992l-3.417 1.74h-.908v-1.74h-.562v4.055h.562v-1.908h.932l3.489 1.909zm8.267-1.391c0 .794-.265.986-1.402.986h-2.368c-1.054 0-1.448-.204-1.448-.986v-1.294c0-.789.431-1.003 1.448-1.003h2.368c1.079 0 1.402.2 1.402 1.003v1.294zm.555 0v-1.269c0-1.179-.645-1.444-1.957-1.444h-2.363c-1.537 0-2.015.415-2.015 1.445v1.268c0 1.042.546 1.391 2.015 1.391h2.363c1.439 0 1.957-.236 1.957-1.39zm8.513-2.665h1.204v4.056h-.562V78.44h-.311l-2.921 3.728h-.287l-2.917-3.728h-.316v3.728h-.558V78.11h1.197l2.744 3.46 2.727-3.46zm3.779 4.056v-3.651h4.794v3.651h.566V78.11h-5.929v4.056h.569zm12.658 0l-.688-1.017h-3.806l-.706 1.017h-.618l2.808-4.055h.851l2.804 4.055h-.645zm-2.585-3.765l-1.612 2.332h3.215l-1.603-2.332zm10.762 3.765V78.11h-.558v1.76h-4.8v-1.76h-.568v4.056h.568v-1.89h4.8v1.89h.558zm7.853 0V78.11h-1.093l-4.278 3.74h-.049v-3.74h-.553v4.056h.91l4.289-3.742h.207v3.742h.567zm6.769-2.082h-3.266c-.871 0-1.164-.113-1.164-.717 0-.63.308-.852 1.103-.852h3.327v1.569zm.551 2.082v-4.055h-3.643c-1.338 0-1.9.334-1.9 1.256 0 .762.562 1.118 1.621 1.118l-1.848 1.683h.789l1.724-1.683h2.706v1.683h.551v-.002zM76.02 88.175s12.187-.164 13.163.49c.976.645 1.95 1.303 2.113 2.596.161 1.302-.65 5.358-3.738 5.523-3.085.162-6.654-.165-6.654-.165l-.16 3.25-4.874-.162.15-11.532z" fill="#A2A2A2"/><path fill-rule="evenodd" clip-rule="evenodd" d="M81.06 91.422l-.156 1.952s3.894.81 4.705 0c.813-.81.16-2.11-1.135-2.11-1.296 0-3.413.158-3.413.158z" fill="#fff"/><path fill-rule="evenodd" clip-rule="evenodd" d="M91.297 91.263c1.305-1.46 3.577-3.736 8.766-3.413 5.199.327 7.966 2.432 7.966 4.883 0 2.428.154 5.675-2.931 6.645-3.082.979-6.173.979-8.282.66-2.112-.329-5.52-2.282-6.005-4.876-.488-2.599.486-3.899.486-3.899z" fill="#A2A2A2"/><path fill-rule="evenodd" clip-rule="evenodd" d="M96.172 94.346c-.297-2.098 1.456-3.412 2.918-3.412 1.46 0 3.89.165 3.729 2.928-.158 2.758-.314 2.595-1.775 3.085-1.463.486-4.388.978-4.872-2.601z" fill="#fff"/><path fill-rule="evenodd" clip-rule="evenodd" d="M125.395 92.732c-.808-1.47-2.589-4.236-5.356-4.392-2.759-.164-6.498-.49-8.282.156-1.791.657-3.24 2.275-3.569 3.736-.323 1.466-.658 4.715 1.459 6.175 2.109 1.462 5.528 2.603 8.771 1.95 3.241-.648 6.33-1.95 6.818-4.711h-5.518s-1.469 1.951-3.249 1.787c0 0-1.634.492-2.767-1.129-1.13-1.633-.972-3.092.162-4.556 1.147-1.466 4.226-.979 4.553-.327.322.652.81 1.624.81 1.624l6.168-.313z" fill="#A2A2A2"/><path fill-rule="evenodd" clip-rule="evenodd" d="M124.913 88.497h5.037V92.4h5.026v-4.225h5.202V99.87h-4.876v-3.898h-5.189v3.898h-5.364l.164-11.373zm16.894-.322l14.453.165v2.923h-8.767V92.4h7.309v3.246h-7.638v1.468h9.419v3.081h-14.616l-.16-12.02z" fill="#A2A2A2"/><path fill-rule="evenodd" clip-rule="evenodd" d="M163.728 88.175h5.036s-.321.815.335.654c.639-.163 5.025-.333 6.329 1.299 1.296 1.62 1.787 3.733.482 5.195-1.304 1.463-2.439 2.11-3.242 2.11-.821 0-3.569.163-3.569.163v2.599h-5.371v-2.761s-3.412-.163-4.548-.487c-1.131-.327-3.248-1.624-3.248-3.734 0-2.113 1.137-3.902 2.767-4.06 1.617-.162 4.705-.162 4.705-.162l.324-.816z" fill="#A2A2A2"/><path fill-rule="evenodd" clip-rule="evenodd" d="M163.728 91.748l-.161 2.435s-2.597.327-2.597-.642c0-.978.49-1.954 2.758-1.793zm5.37.162l.154 2.274s1.462.653 2.28-.485c.802-1.136-.659-1.95-2.434-1.789z" fill="#fff"/><path fill-rule="evenodd" clip-rule="evenodd" d="M179.318 91.748v8.609h5.195v-8.609h4.707l.983-1.296-1.46-1.786H175.1c.003 0-.653 2.597.808 2.755 1.461.166 3.41.327 3.41.327z" fill="#A2A2A2"/><path fill-rule="evenodd" clip-rule="evenodd" d="M194.42 88.666v3.244s6.177-.323 7.316.322c1.136.652 2.271 1.63 2.433 2.76.162 1.144-.162 2.933-1.297 3.903-1.136.974-2.432 1.623-3.742 1.623h-9.411v-11.69l4.701-.162z" fill="#A2A2A2"/><path fill-rule="evenodd" clip-rule="evenodd" d="M194.915 95.323v1.948h3.243c.808 0 1.951-1.786.486-2.11-1.459-.325-3.729.162-3.729.162z" fill="#fff"/><path fill-rule="evenodd" clip-rule="evenodd" d="M9.436 34.58h8.287v28.1l-8.287-7.312V34.58zm9.912-9.255h7.958v46.452l-7.958-7.644V25.325zm9.584-9.257h8.122V60.08h-8.122V16.07zm9.74-9.257h8.446v44.174h-8.446V6.81zm9.583 8.766h8.123v44.502h-8.123V15.577zm10.073 9.577h7.957v38.818l-7.957 7.805V25.154zm9.414 9.263h8.128v20.304l-8.128 7.96V34.417zm-38.81 26.644h8.122v40.751h-8.122V61.061zm9.74-8.771h7.955v49.522h-7.955V52.291zm9.583 8.926h8.123v40.596h-8.123V61.216z" fill="#A2A2A2"/></svg>