<svg xmlns="http://www.w3.org/2000/svg" xmlns:xlink="http://www.w3.org/1999/xlink" viewBox="0 0 580 544" fill="none"><path fill="#FFF" d="M0 0h580v544H0z"/><path d="M166.24 529.31c9.4 19.09 242.7 20.84 249.51-1.38-21.73-16.18-235.16-17.91-249.51 1.38z" fill="#e5e5e5" fill-rule="evenodd"><animate attributeName="fill" dur="10s" repeatCount="indefinite" calcMode="linear" values="#e5e5e5 ; #e5e5e5 ; #0FB3E9 ; #0FB3E9 ; #e5e5e5 ; #e5e5e5" keyTimes="0; 0.32 ; 0.42 ; 0.58 ; 0.68 ; 1"/></path><g fill="#e5e5e5" fill-rule="evenodd"><path d="M382.92 199.17c3.39 7.6 53.75 21.88 65.12 24.63 24.84 6 55.7 8.85 82.07 4.88a78.43 78.43 0 00-1.61-22.41c-15.48-10.05-111.2-19.09-145.58-7.1z"><animate attributeName="fill" dur="10s" repeatCount="indefinite" calcMode="linear" values="#e5e5e5 ; #e5e5e5 ; #0FB3E9 ; #0FB3E9 ; #e5e5e5 ; #e5e5e5" keyTimes="0; 0.32 ; 0.42 ; 0.58 ; 0.68 ; 1"/></path><path d="M384.81 397.46c21.88 4.68 73.21 2.62 84.87 1 17.51-2.46 44.06-59.42 47.76-74.44l-30.68 20.9c-27.43 17.84-71.3 43.04-101.95 52.54z"><animate attributeName="fill" dur="10s" repeatCount="indefinite" calcMode="linear" values="#e5e5e5 ; #e5e5e5 ; #0FB3E9 ; #0FB3E9 ; #e5e5e5 ; #e5e5e5" keyTimes="0; 0.32 ; 0.42 ; 0.58 ; 0.68 ; 1"/></path><path d="M132.57 64.71c26.91 15.71 63.72 39.53 107.72 44.89-11-14.36-48.26-50.19-63.22-76.83-13.31 3.94-40.22 24.27-44.5 31.94z"><animate attributeName="fill" dur="10s" repeatCount="indefinite" calcMode="linear" values="#e5e5e5 ; #e5e5e5 ; #0FB3E9 ; #0FB3E9 ; #e5e5e5 ; #e5e5e5" keyTimes="0; 0.32 ; 0.42 ; 0.58 ; 0.68 ; 1"/></path><path d="M527.29 290.23c1.15-18.39 5-33.75 3.66-53.63-34.74 1.31-49.8.69-88.45-6 27.26 14.15 84.47 59.51 84.79 59.63z"><animate attributeName="fill" dur="10s" repeatCount="indefinite" calcMode="linear" values="#e5e5e5 ; #e5e5e5 ; #0FB3E9 ; #0FB3E9 ; #e5e5e5 ; #e5e5e5" keyTimes="0; 0.32 ; 0.42 ; 0.58 ; 0.68 ; 1"/></path><path d="M364.76 15.38C300.01-6.13 233.11 6 185.23 27.95c4.17 15.59 47 59.84 61.23 75.15a129.39 129.39 0 0010.66 10.81c5.92 1.4 11.51 2.63 13.61 3 35.32 7.64 76.33 8.72 113.13 8 20.64-.4 91.87-7.27 105.68-14.73-12.25-37.96-85.56-81.78-124.78-94.8z"><animate attributeName="fill" dur="10s" repeatCount="indefinite" calcMode="linear" values="#e5e5e5 ; #e5e5e5 ; #0FB3E9 ; #0FB3E9 ; #e5e5e5 ; #e5e5e5" keyTimes="0; 0.32 ; 0.42 ; 0.58 ; 0.68 ; 1"/></path><path d="M261.38 131.76c-7.27-6.64-8.06-7.5-12.62-11.71-4.31-1-5.83-1.5-10-2.4-51-10.54-81.49-25.01-113-47.75-19.2 19-29.68 31.26-44 55.92-8.61 14.84-26.15 54.34-26.7 74.66 23.31-10.48 22.3-15.32 58.79-25.76 22.93-6.56 48.05-10.18 73-11 39.1-1.32 77.2 3.2 114.86 12.06 11 2.59 23.45 7.18 33.46 8.87-24.09-12.49-64.41-44.32-73.79-52.89z"><animate attributeName="fill" dur="10s" repeatCount="indefinite" calcMode="linear" values="#e5e5e5 ; #e5e5e5 ; #0FB3E9 ; #0FB3E9 ; #e5e5e5 ; #e5e5e5" keyTimes="0; 0.32 ; 0.42 ; 0.58 ; 0.68 ; 1"/></path><path d="M494.88 118.11l-51.76 9.33c-37.42 5.67-81.36 6.67-119.36 3.93-19.11-1.39-38.35-5.54-56.57-7.1 8.8 11.94 62.57 47.94 75.15 55.33 1.47.86 9.11 5.33 12 7a109.64 109.64 0 0013.12 6.51c.2.09 19.75-2.63 21.54-2.85 90.47-10.66 117.76 2.23 137.15 6.85.54-17-22.93-69.82-31.27-79z"><animate attributeName="fill" dur="10s" repeatCount="indefinite" calcMode="linear" values="#e5e5e5 ; #e5e5e5 ; #0FB3E9 ; #0FB3E9 ; #e5e5e5 ; #e5e5e5" keyTimes="0; 0.32 ; 0.42 ; 0.58 ; 0.68 ; 1"/></path><path d="M389.37 407.11c-10.85-1.17-14.49-1.64-22.12-2.93 0 0-5.81 2.56-16.32 6.06q-9.37 3.14-18.82 5.7l-.45.12c-61.59 16.68-126.47 16.17-207.51 4.32 64.16 46.18 190.35 103.61 311 15.83 8.18-6 27.37-21.77 31.6-29.84-44.22 3.65-55.99 2.65-77.38.74z"><animate attributeName="fill" dur="10s" repeatCount="indefinite" calcMode="linear" values="#e5e5e5 ; #e5e5e5 ; #0FB3E9 ; #0FB3E9 ; #e5e5e5 ; #e5e5e5" keyTimes="0; 0.32 ; 0.42 ; 0.58 ; 0.68 ; 1"/></path><path d="M127.09 302.35s-3.63-2.66-8.39-6.19c-19.19-13.6-61-50.12-67.9-64.34-.63 42 6.72 89.32 25.13 119.51l30.58-30c7.71-7.52 14.37-13.28 20.58-18.98z"><animate attributeName="fill" dur="10s" repeatCount="indefinite" calcMode="linear" values="#e5e5e5 ; #e5e5e5 ; #0FB3E9 ; #0FB3E9 ; #e5e5e5 ; #e5e5e5" keyTimes="0; 0.32 ; 0.42 ; 0.58 ; 0.68 ; 1"/></path><path d="M346.2 197.42c-58.93-30.12-215.65-44.22-292.26 12.31-2.42 4.83-2.34 8.66-2.05 12.82 5 13.08 45.07 48.91 64.12 63.31 4.35 3.38 10.81 7.92 16.33 11.9 4.34-3.51 9.5-8.18 14.66-12.06 42.4-33.69 135.58-73.79 199.2-88.28z"><animate attributeName="fill" dur="10s" repeatCount="indefinite" calcMode="linear" values="#e5e5e5 ; #e5e5e5 ; #0FB3E9 ; #0FB3E9 ; #e5e5e5 ; #e5e5e5" keyTimes="0; 0.32 ; 0.42 ; 0.58 ; 0.68 ; 1"/></path><path d="M290.55 386.83a550.69 550.69 0 01-100-42.94l-40.79-24.58c-6.77-4.5-9.62-6.47-16.82-11.81-6 3.62-10 6.82-22.14 18.18-11.27 10-25.36 25.66-31 32.64 3.46 11.11 30 47 36.94 51 43.41 16.88 188.6 13.86 229.82-7.54-5.2-2.81-45.56-11.67-56.01-14.95z"><animate attributeName="fill" dur="10s" repeatCount="indefinite" calcMode="linear" values="#e5e5e5 ; #e5e5e5 ; #0FB3E9 ; #0FB3E9 ; #e5e5e5 ; #e5e5e5" keyTimes="0; 0.32 ; 0.42 ; 0.58 ; 0.68 ; 1"/></path><path d="M492.61 273.4c-26.2-18.8-42.1-29.45-71.74-44.81-7.92-4.11-19.65-10.61-30.15-15.54 0 0-18.56-8.6-27.45-11.55 0 0-7.32 1.6-12.07 2.71l-1.57.38c-93.27 23.3-150.72 57.43-194.36 85.73-11.22 7.44-13 9.73-16.43 12.72a146.51 146.51 0 0016.2 11.69c55 34.65 135.68 65.92 182 75.47a227.15 227.15 0 0032.59 5.44c6-2.11 11.84-4.4 17.2-6.51 21.53-8.12 56.9-26.68 71.41-35.35 11.29-6.75 54.5-33.65 63-43.46 1.79-2.53 2.43-5.73 3.35-11.92z"><animate attributeName="fill" dur="10s" repeatCount="indefinite" calcMode="linear" values="#e5e5e5 ; #e5e5e5 ; #0FB3E9 ; #0FB3E9 ; #e5e5e5 ; #e5e5e5" keyTimes="0; 0.32 ; 0.42 ; 0.58 ; 0.68 ; 1"/></path></g><g transform="translate(50.76 4.11)"><path id="a" d="M0 396.23a668.5 668.5 0 0076 16.42c99.25 15 173.05 7.42 207.93-5.11 80.2-28.82 110.71-43.72 153.77-72.26 38.58-25.57 71.71-51.39 71.71-51.39" fill="none" fill-rule="evenodd"/><circle r="16" fill="#fff"><animateMotion dur="10s" repeatCount="indefinite" calcMode="spline" keyPoints="0 ; 0.05 ; 0.588 ; 0.588 ; 1 ; 1" keyTimes="0; 0.1 ; 0.4 ; 0.6 ; 0.9 ; 1" keySplines="0 0 1 1 ; 0 .6 .75 1 ; 0 0 1 1 ; .25 0 1 .4 ; 0 0 1 1"><mpath xlink:href="#a"/></animateMotion><animate attributeName="r" dur="10s" repeatCount="indefinite" calcMode="spline" values="24 ; 24 ; 16 ; 16 ; 24 ; 24" keyTimes="0; 0.1 ; 0.4 ; 0.6 ; 0.9 ; 1" keySplines="0 0 1 1 ; 0 .6 .75 1 ; 0 0 1 1 ; .25 0 1 .4 ; 0 0 1 1"/></circle><path id="b" d="M-33.12 177.62s26.69 39.07 37.36 52.07c21 25.55 42 41.36 63.7 58.71 8.08 6.46 40.4 32.27 93.34 57.89s104.76 40.1 133 46.59 53.08 10.17 116.89 6.21 86.12-8.75 86.12-8.75" fill="none" fill-rule="evenodd"/><circle r="16" fill="#fff"><animateMotion dur="10s" repeatCount="indefinite" calcMode="spline" keyPoints="0 ; 0.05 ; 0.277 ; 0.277 ; 1" keyTimes="0; 0.2 ; 0.4 ; 0.6 ; 1" keySplines="0 0 1 1 ; 0 .6 .75 1 ; 0 0 1 1 ; .25 0 1 .4"><mpath xlink:href="#b"/></animateMotion><animate attributeName="r" dur="10s" repeatCount="indefinite" calcMode="spline" values="24 ; 24 ; 16 ; 16 ; 32" keyTimes="0; 0.2 ; 0.4 ; 0.6 ; 1" keySplines="0 0 1 1 ; 0 .6 .75 1 ; 0 0 1 1 ; .25 0 1 .4"/></circle><path id="c" d="M519 217.33s-14-12.07-47.86-21.18-61.83-12.28-99.31-9.31-64.35 1.51-145.64 32.45C155.9 246 96.32 280.41 49.19 327.38c-28.86 28.76-70 80.75-70 80.75" fill="none" fill-rule="evenodd"/><circle r="16" fill="#fff"><animateMotion dur="10s" repeatCount="indefinite" calcMode="spline" keyPoints="0 ; 0.7575 ; 0.7575 ; 0.95 ; 1" keyTimes="0; 0.4 ; 0.6 ; 0.8 ; 1" keySplines="0 .6 .75 1 ; 0 0 1 1 ; .25 0 1 .4 ; 0 0 1 1"><mpath xlink:href="#c"/></animateMotion><animate attributeName="r" dur="10s" repeatCount="indefinite" calcMode="spline" values="32 ; 16 ; 16 ; 24 ; 24" keyTimes="0; 0.4 ; 0.6 ; 0.8 ; 1" keySplines="0 .6 .75 1 ; 0 0 1 1 ; .25 0 1 .4 ; 0 0 1 1"/></circle><path id="d" d="M-50.76 230.81s60.28-35.43 89.92-48.42C49.28 178 91 164.18 134.47 163.05a456.33 456.33 0 01128.42 14.57c42.14 11.07 83.62 28.63 113.83 44.72s73.48 46.87 90 60.71 46.7 39.53 46.7 39.53" fill="none" fill-rule="evenodd"/><circle r="16" fill="#fff"><animateMotion dur="10s" repeatCount="indefinite" calcMode="spline" keyPoints="0 ; 0.05 ; 0.615 ; 0.615 ; 0.95 ; 1" keyTimes="0; 0.05 ; 0.4 ; 0.6 ; 0.85 ; 1" keySplines="0 0 1 1 ; 0 .6 .75 1 ; 0 0 1 1 ; .25 0 1 .4 ; 0 0 1 1"><mpath xlink:href="#d"/></animateMotion><animate attributeName="r" dur="10s" repeatCount="indefinite" calcMode="spline" values="28 ; 28 ; 16 ; 16 ; 24 ; 24" keyTimes="0; 0.05 ; 0.4 ; 0.6 ; 0.85 ; 1" keySplines="0 0 1 1 ; 0 .6 .75 1 ; 0 0 1 1 ; .25 0 1 .4 ; 0 0 1 1"/></circle><path id="e" d="M521.92 226.4c-18 0-61.2 7.66-112.45-.39-30.31-4.76-51.61-13.94-71-22-7.32-3-37.7-14.68-65.25-35.18-19-14.11-31.34-21-51-37.75-8.57-7.3-16.79-16-34.47-34.49-23.2-24.23-33.94-36.9-46-52.13-8.61-10.87-22.16-37-26.54-48.57" fill="none" fill-rule="evenodd"/><circle r="16" fill="#fff"><animateMotion dur="10s" repeatCount="indefinite" calcMode="spline" keyPoints="0 ; 0.05 ; 0.4295 ; 0.4295 ; 0.95 ; 1" keyTimes="0; 0.15 ; 0.4 ; 0.6 ; 0.95 ; 1" keySplines="0 0 1 1 ; 0 .6 .75 1 ; 0 0 1 1 ; .25 0 1 .4 ; 0 0 1 1"><mpath xlink:href="#e"/></animateMotion><animate attributeName="r" dur="10s" repeatCount="indefinite" calcMode="spline" values="24 ; 24 ; 16 ; 16 ; 28 ; 28" keyTimes="0; 0.15 ; 0.4 ; 0.6 ; 0.95 ; 1" keySplines="0 0 1 1 ; 0 .6 .75 1 ; 0 0 1 1 ; .25 0 1 .4 ; 0 0 1 1"/></circle><path id="f" d="M46.22 34.44s23 24.42 48.14 39.1 43.2 24.28 81 33.88 83.15 17.23 131.08 17.23 95.85-4.93 118-10.65c46.65-12.08 55.12-26.48 55.12-26.48" fill="none" fill-rule="evenodd"/><circle r="16" fill="#fff"><animateMotion dur="10s" repeatCount="indefinite" calcMode="spline" keyPoints="0 ; 0.05 ; 0.385 ; 0.385 ; 0.95 ; 1" keyTimes="0; 0.175 ; 0.4 ; 0.6 ; 0.925 ; 1" keySplines="0 0 1 1 ; 0 .6 .75 1 ; 0 0 1 1 ; .25 0 1 .4 ; 0 0 1 1"><mpath xlink:href="#f"/></animateMotion><animate attributeName="r" dur="10s" repeatCount="indefinite" calcMode="spline" values="24 ; 24 ; 16 ; 16 ; 28 ; 28" keyTimes="0; 0.175 ; 0.4 ; 0.6 ; 0.925 ; 1" keySplines="0 0 1 1 ; 0 .6 .75 1 ; 0 0 1 1 ; .25 0 1 .4 ; 0 0 1 1"/></circle></g></svg>