<svg width="188" height="90" fill="none" xmlns="http://www.w3.org/2000/svg"><path d="M57.82 58.842h11.881v3.882H64.05V90h-6.23V58.842zm18.925 19.461l1.068-15.579h.357l1.068 15.58h-2.493zM69.847 90h6.099l.577-8.275h2.937L80.04 90h6.096l-3.249-31.158h-9.791L69.847 90zm25.21-10.905v5.874c0 .792.613 1.021.97 1.021.588 0 .996-.485.996-1.021v-7.253c0-.97-.178-2.043-2.503-2.043h-2.528V72.25h2.63c1.763 0 2.401-.408 2.401-2.324v-6.18c0-.537-.408-1.022-.996-1.022-.357 0-.97.205-.97 1.022v5.082h-6.232V64.41c0-2.171.256-5.568 4.623-5.568h5.159c4.367 0 4.648 3.397 4.648 5.568v4.98c0 3.397-2.375 4.316-4.24 4.24v.306c4.189-.102 4.24 3.116 4.24 4.214v6.282c0 2.197-.281 5.568-4.648 5.568h-5.16c-4.366 0-4.622-3.371-4.622-5.567v-5.338h6.232zm12.284-20.253h14.43V90h-6.232V62.724h-1.966V90h-6.232V58.842zm24.748 17.138V62.723h.817c.664 0 1.149.562 1.149 1.558v10.14c0 .995-.485 1.557-1.149 1.557h-.817zM125.857 90h6.232V79.401h3.575c4.342 0 4.623-3.37 4.623-5.567V64.41c0-2.171-.281-5.568-4.623-5.568h-9.807V90zm26.714-5.031c0 .536-.409 1.021-.996 1.021-.358 0-.971-.23-.971-1.021V63.746c0-.817.613-1.022.971-1.022.587 0 .996.486.996 1.022v21.223zm-8.198-.536c0 2.196.281 5.567 4.622 5.567h5.185c4.342 0 4.622-3.371 4.622-5.567V64.41c0-2.171-.28-5.568-4.622-5.568h-5.185c-4.341 0-4.622 3.397-4.622 5.568v20.023zm34.708-25.591h8.121V90h-6.232V70.463h-.229L177.523 90h-4.98l-3.193-19.537h-.23V90h-6.231V58.842h8.096l4.06 21.913 4.036-21.913zM49.745 16.243C47.837 7.892 43.057 1.098 42.398 0c-1.042 1.558-4.855 7.56-6.794 14.2-2.117 7.432-2.429 14.02-1.698 20.482.725 6.487 3.465 13.153 3.465 13.153 1.456 3.473 3.637 7.227 5.057 9.066 2.082-2.707 6.865-10.777 8.357-21.3.83-5.873.865-11.007-1.04-19.358zm-7.347 38.564c-.938-1.762-2.394-5.108-2.531-10.318-.036-5.005 1.974-9.322 2.561-10.215.524.893 2.255 4.648 2.462 9.781.14 5.006-1.525 8.964-2.492 10.752zm6.793-24.39c-.072 3.192-.452 6.564-.937 8.581.173-3.473-.243-8.351-1.04-12.182-.797-3.805-3.052-10.19-4.852-13.127-1.663 2.81-3.711 8.326-4.784 13.102-1.077 4.775-1.108 10.573-1.108 12.31-.286-1.456-1.001-6.692-.8-11.927.17-4.316 1.18-8.786 1.735-10.829C39.519 9.526 41.912 5.16 42.362 4.47c.45.69 3.463 6.079 5.026 11.723 1.555 5.644 1.87 11.058 1.803 14.225z" fill="#A2A2A2"/><path d="M45.633 58.843H31.13v9.73c.012 0 .023-.026.035-.026a8.746 8.746 0 0112.38 0c3.416 3.397 3.416 8.94 0 12.361-.016.026-.031.026-.047.051-.018 0-.035.026-.05.051a17.466 17.466 0 01-12.318 5.057c-4.475 0-8.95-1.685-12.361-5.108-6.017-6.001-6.73-15.323-2.143-22.117a17.7 17.7 0 012.143-2.605c3.412-3.422 7.886-5.107 12.36-5.107V27.736C13.938 27.736 0 41.655 0 58.843 0 76.03 13.937 89.975 31.13 89.975c8.964 0 17.04-3.806 22.72-9.858V58.842h-8.217z" fill="#A2A2A2"/></svg>