<svg width="129" height="60" fill="none" xmlns="http://www.w3.org/2000/svg"><path fill-rule="evenodd" clip-rule="evenodd" d="M12.832 58.356c1.043 2.12 26.966 2.315 27.723-.154-2.414-1.798-26.13-1.99-27.724.154zm-2.368-25.814a1.765 1.765 0 01.255 1.418c6.751 4.501 17.773 8.628 22.647 9.206a1.771 1.771 0 012.914-.037c2.07-.528 7.105-3.15 8.985-4.273 1.255-.75 6.056-3.739 6.996-4.829.2-.28.27-.636.373-1.324l-3.544-2.778c-2.91-2.089-4.677-3.271-7.97-4.979-1.265-.655-3.405-1.861-4.755-2.31a1.774 1.774 0 01-2.988-.4c-11.286 2.793-17.907 7.02-22.913 10.306z" fill="#0FB3E9"/><path fill-rule="evenodd" clip-rule="evenodd" d="M32.826 21.479C26.28 18.133 8.866 16.566.354 22.846c-.27.538-.261.963-.228 1.425.663 1.754 7.021 7.191 8.081 7.679a1.76 1.76 0 01.79-.185c.352 0 .68.102.956.28a.341.341 0 00.05-.039c4.273-3.848 15.348-8.824 22.823-10.527zM7.803 34.85c-1.193.66-3.733 3.446-4.574 4.488.384 1.235 3.338 5.225 4.105 5.67 4.823 1.875 20.954 1.54 25.534-.839-.579-.314-5.064-1.301-6.225-1.663-3.844-1.198-7.638-2.866-11.107-4.77l-5.146-3.1a1.77 1.77 0 01-2.587.214z" fill="#0FB3E9"/><path fill-rule="evenodd" clip-rule="evenodd" d="M.47 21.819c2.591-1.165 2.48-1.702 6.533-2.862 2.548-.73 5.34-1.132 8.107-1.225 4.345-.147 8.578.356 12.762 1.34 1.226.288 2.605.799 3.718.986-2.666-1.386-7.653-5.517-8.188-5.875l-.028-.018a1.773 1.773 0 01-2.475-1.563C15.23 11.43 11.835 9.836 8.33 7.31c-2.133 2.116-3.298 3.473-4.89 6.214-.96 1.648-2.908 6.037-2.97 8.295zm7.683 24.435c7.13 5.132 21.15 11.513 34.555 1.76.908-.662 3.04-2.42 3.51-3.317-5.609.462-6.515.252-9.689-.01a1.774 1.774 0 01-3.178.441c-7.493 2.498-15.25 2.581-25.198 1.126zM24.265 13.35c.978 1.328 6.73 5.328 8.127 6.148.163.096 1.006.603 1.334.774a1.774 1.774 0 012.857.447c.015.004.03.008.047.01.153.03.42.019.953-.044 10.051-1.186 13.081.246 15.239.756.059-1.887-2.55-7.755-3.475-8.774l-5.751 1.036c-4.158.63-9.045.746-13.268.437-2.123-.155-4.04-.615-6.063-.79zM2.797 38.58l4.53-4.445a1.772 1.772 0 01.215-1.611.821.821 0 00.006-.074C5.417 30.939.766 26.88.004 25.3c-.07 4.666.748 9.924 2.793 13.279z" fill="#0FB3E9"/><path fill-rule="evenodd" clip-rule="evenodd" d="M36.907 21.673c.377.845 5.972 2.432 7.236 2.737 2.76.665 6.189.983 9.118.542.047-.738.02-1.676-.178-2.49-1.721-1.117-12.356-2.121-16.176-.79zm.21 22.033c2.431.52 8.134.29 9.43.11 1.946-.273 4.895-6.602 5.306-8.271l-3.41 2.322c-3.046 1.983-7.92 4.783-11.326 5.84zM9.09 6.733c2.99 1.746 7.08 4.392 11.969 4.988-1.223-1.595-5.363-5.577-7.025-8.537-1.48.438-4.469 2.697-4.944 3.55zm43.858 25.058c.128-2.043.559-3.75.406-5.959-3.86.146-5.533.077-9.828-.66 3.031 1.566 9.386 6.605 9.422 6.62zM34.89 1.252C27.694-1.138 20.26.209 14.94 2.649c.464 1.732 5.222 6.65 6.803 8.35l.054-.007a1.773 1.773 0 012.647 1.543c3.925.85 8.482.97 12.57.889 2.294-.045 10.208-.808 11.743-1.638C47.393 7.568 39.247 2.7 34.89 1.252z" fill="#0FB3E9"/><path d="M72.989 36.295H71.53c-3.863 0-6.323-2.642-6.323-6.395 0-3.626 2.46-6.195 6.323-6.195h1.458v-1.677H71.53c-4.756 0-8.145 3.408-8.145 7.872 0 4.555 3.39 8.072 8.145 8.072h1.458v-1.677zm10.587 1.677h2.186c4.373 0 7.908-3.626 7.908-7.98 0-4.338-3.517-7.964-7.871-7.964h-2.224v15.944zm1.822-14.286h.419c3.389 0 6.031 2.77 6.031 6.305 0 3.535-2.66 6.323-6.086 6.323h-.364V23.686zm-2.825-1.658h-2.186c-4.373 0-7.945 3.626-7.945 7.981 0 4.337 3.553 7.963 7.909 7.963h2.222V22.028zm-1.822 14.286h-.419c-3.389 0-6.068-2.77-6.068-6.305 0-3.535 2.697-6.323 6.123-6.323h.364v12.628zm23.743-7.18v-1.676h-8.09v-3.753h8.09v-1.677h-9.913v7.107h9.913zm.073 8.838v-1.677h-8.164v-4.482h8.091v-1.676h-9.913v7.835h9.986zm.911 0h1.822V23.686h3.17c1.75 0 3.116 1.367 3.116 3.17 0 1.604-1.13 2.935-3.116 2.935h-2.168v8.18h1.822v-6.54h.346c2.679 0 4.938-2.224 4.938-4.647 0-2.57-2.259-4.756-4.919-4.756h-5.011v15.944zm23.451 0l-5.357-15.944h-1.932l5.357 15.944h1.932zm-13.612 0l2.132-6.195h6.414l-3.28-9.749h-1.931l2.66 8.109h-5.266l-2.642 7.835h1.913z" fill="#1A394A"/></svg>