<svg width="141" height="50" fill="none" xmlns="http://www.w3.org/2000/svg"><path fill-rule="evenodd" clip-rule="evenodd" d="M9.545 0L7.157 6.54h33.09L42.633 0H9.545zM5.963 9.81l-2.388 6.538h33.089l2.388-6.539H5.962zm-3.575 9.809L0 26.158h33.089l2.386-6.54H2.388z" fill="#A2A2A2"/><mask id="a" style="mask-type:alpha" maskUnits="userSpaceOnUse" x="49" y="9" width="92" height="41"><path d="M49.644 50h90.578V9.934H49.644v40.064z" fill="#fff"/></mask><g mask="url(#a)"><path fill-rule="evenodd" clip-rule="evenodd" d="M70.345 28.65v.138c1.512.555 2.957 1.525 3.714 2.148 2.338 1.942 3.37 4.506 3.37 7.833 0 5.478-2.889 9.428-7.635 10.676-1.444.416-2.956.555-5.777.555H49.644V9.935h12.724c2.613 0 4.4.138 5.982.553 4.609 1.248 7.635 4.437 7.635 9.496 0 2.704-.963 4.993-2.545 6.517-.687.693-1.65 1.525-3.095 2.149zm-12.723 4.228v10.536h5.502c1.65 0 3.163-.138 4.264-1.178 1.1-1.04 1.582-2.357 1.582-4.09 0-1.316-.345-2.564-1.032-3.465-1.17-1.456-2.614-1.803-5.089-1.803h-5.227zm-.07-6.932h4.47c1.376 0 2.064 0 2.751-.208 1.859-.555 3.028-2.217 3.028-4.505 0-2.703-1.239-3.883-3.028-4.436-.756-.208-1.512-.278-3.025-.278h-4.195v9.427zM89.397 50V16.657H77.91V9.935h31.912l-2.269 6.722h-10.18V50h-7.978zm22.902 0V9.935h25.861l-2.269 6.722h-15.682v8.873h6.396c5.158 0 7.841 1.248 9.698 2.842 1.444 1.248 3.92 4.02 3.92 9.498 0 5.406-2.545 8.386-4.677 9.912C133.07 49.514 130.456 50 125.16 50h-12.862zm7.91-6.724h5.984c2.269 0 3.644-.555 4.607-1.803.482-.623 1.169-1.733 1.169-3.812 0-2.08-.687-3.535-2.062-4.576-.825-.623-1.926-.969-3.783-.969h-5.915v11.16z" fill="#A2A2A2"/></g></svg>