<svg width="21" height="21" fill="none" xmlns="http://www.w3.org/2000/svg"><path fill-rule="evenodd" clip-rule="evenodd" d="M5.982.81C5.448.288 4.8 0 4.125 0S2.801.285 2.268.81a6.503 6.503 0 00-.526.601 20.57 20.57 0 00-.954 1.342C.397 3.329.15 4.078.05 4.819c-.098.735-.058 1.513.173 2.165.03.111.096.326.187.59.169.492.381 1.037.64 1.62a22.408 22.408 0 002.962 4.886 19.858 19.858 0 002.847 2.907 21.874 21.874 0 004.513 2.889c.539.259 1.042.473 1.497.646.262.1.461.168.586.207.627.238 1.392.31 2.126.252.738-.06 1.494-.256 2.093-.6a27.751 27.751 0 001.515-.894c.409-.263.747-.505.97-.73.536-.542.834-1.196.837-1.88.002-.685-.292-1.34-.828-1.88-.867-.873-1.72-1.725-2.561-2.56-.533-.527-1.183-.816-1.859-.816-.676 0-1.325.288-1.857.816l-.827.822-.714.71-.03.03a13.808 13.808 0 01-2.08-1.141 8.388 8.388 0 01-1.179-.939c-.346-.338-.696-.787-1.04-1.333a13.966 13.966 0 01-1.012-1.933l.006-.005.652-.652.863-.866c.542-.545.845-1.199.844-1.886-.001-.687-.305-1.342-.846-1.889A508.24 508.24 0 005.982.811zM3.707 2.274c.183-.18.324-.22.417-.22.094 0 .236.041.42.222A593.74 593.74 0 017.07 4.801c.21.212.251.359.251.445 0 .086-.04.23-.246.438l-.861.863-.65.651-.297.296a1.47 1.47 0 00-.32 1.541c.065.17.186.463.355.828.285.616.614 1.236.983 1.82.414.656.86 1.236 1.344 1.707.428.417.922.807 1.467 1.173a15.82 15.82 0 001.937 1.101c.39.188.7.321.893.396.51.211 1.15.083 1.548-.313l.324-.323.715-.712.822-.817c.183-.18.322-.22.413-.22.09 0 .231.04.414.222.838.83 1.686 1.677 2.549 2.547.192.194.233.337.232.428 0 .093-.044.24-.242.44-.07.07-.276.228-.622.45a25.427 25.427 0 01-1.401.826l-.011.006c-.305.176-.76.3-1.25.34-.491.038-.956-.015-1.277-.138l-.014-.006-.015-.004a9.495 9.495 0 01-.513-.181c-.4-.152-.85-.344-1.338-.578a19.83 19.83 0 01-4.089-2.618 17.797 17.797 0 01-2.556-2.61A20.367 20.367 0 012.926 8.36a17.922 17.922 0 01-.575-1.452 8.78 8.78 0 01-.163-.515l-.006-.02-.007-.02c-.117-.325-.15-.784-.087-1.264.063-.479.214-.913.406-1.195l.007-.01a18.124 18.124 0 01.665-.957c.066-.088.128-.17.188-.246a4.74 4.74 0 01.353-.408z" fill="#0FB3E9"/></svg>