<svg xmlns="http://www.w3.org/2000/svg" viewBox="0 0 404.5 404.5" fill="none"><path d="M258.74 321.49c-19.6-.4-37.45-7.47-54.23-16.64-54.21-29.66-94.84-72-117.33-130.25-11-28.49-5.18-54 16.08-75.88 3.65-3.77 7.27-7.58 11.19-11.05 9.35-8.26 21.62-8.62 30.62-.05q20.23 19.22 39.45 39.5c8.28 8.75 7.83 20.74-.52 29.82-6.39 6.94-13.12 13.57-20 20.07-4.23 4-4.43 7.47-.79 12.17a271.74 271.74 0 0053.1 52.18c5.13 3.81 8.65 3.39 12.8-1.05q8.88-9.45 18.36-18.33c10.1-9.43 22.41-9.5 32.32.07q18.68 18 36.78 36.62c10.24 10.51 9.88 22.57-.18 33.43-15.59 16.9-33.26 29.62-57.65 29.39zM94.88 148.7c1.51 6.59 2.23 13.48 4.64 19.72 22.69 58.82 63.9 100.64 119.79 128.39 13.07 6.49 27 11.76 42.13 11.19 20.35-.76 34.4-12.72 46.84-27.12 3.74-4.33 2.25-8.82-1.52-12.61-11.84-11.88-23.63-23.83-35.61-35.59-5.72-5.61-9.58-5.44-15.48.32-6.18 6-12.08 12.39-18.3 18.41-8.87 8.6-17.52 9.13-27.47 1.94a270.79 270.79 0 01-57.7-56.42c-8-10.55-7.56-19 1.75-28.66 6.37-6.6 13-13 19.42-19.52 4.42-4.51 4.52-9.36.1-13.86-12.15-12.32-24.21-24.76-36.89-36.51-2.32-2.16-9-3.24-11-1.59-16.28 13.39-30.47 28.39-30.7 51.91z" fill="#0EB3E9" stroke="#0EB3E9" stroke-width="8"/></svg>