<svg width="162" height="223" fill="none" xmlns="http://www.w3.org/2000/svg"><path d="M103.97 1a.093.093 0 00-.069.026c-.128.064-.193.193-.193.385s.065.384.193.576c.128.192.255.32.383.448 0 0 .129.064.513.32.106.053.315.172.458.25-1.421.628-2.443 2.392-2.443 4.487v.449c0 .192.065.383.065.575.128.385.447.706.959 1.026.696.411 1.596.617 2.498.622-.923.006-1.848-.201-2.561-.622-.512-.256-.833-.641-.961-1.026.384 2.177 1.792 3.778 3.521 3.778 1.674 0 3.099-1.567 3.478-3.644a1.6 1.6 0 00.108-.261v-.832a6.44 6.44 0 00-.202-1.594c.338.33.681.684 1.034 1.081 1.536 1.793 3.008 4.162 4.16 6.659 1.089 2.496 1.857 5.057 1.793 7.17v10.434c0 .384.256.769.576.96.32.193.577.065.577-.32V21.514c0-1.664-.385-3.458-.961-5.314-.896-2.753-2.368-5.505-3.968-7.874-1.601-2.304-3.394-4.226-5.059-5.186-1.664-.96-2.56-1.472-3.072-1.728a5.87 5.87 0 00-.513-.32c-.096-.048-.227-.096-.314-.09v0zm24.257 15.007c-1.728 0-3.328.704-4.544 2.049-1.217 1.28-2.05 3.2-2.05 5.698v10.434c0 .384.257.769.577.961.32.192.576.064.576-.32V24.393c0-1.409.32-2.689.897-3.713a6.204 6.204 0 013.648-3.009c1.472-.448 3.073-.255 4.353.513.85.49.419.239.915.523-.049 0-.097-.011-.146-.011-1.985 0-3.585 2.112-3.585 4.736v.449c0 .192.064.384.064.576.128.384.448.704.96 1.024.695.41 1.595.617 2.496.621-.923.007-1.847-.2-2.56-.621-.512-.256-.832-.64-.96-1.024.384 2.176 1.793 3.777 3.521 3.777 1.675 0 3.098-1.568 3.477-3.645a1.58 1.58 0 00.108-.26v-.833c0-1.383-.447-2.637-1.148-3.518l.443.253c.016.007.034.01.05.014.058.101.166.136.335.052.192-.128.383-.448.383-.704 0-.204-.084-.32-.246-.297-.084-.047-.981-.553-4.17-2.393-1.089-.64-2.306-.896-3.394-.896h0zm.641 8.45c-.064-.192-.064-.384-.064-.576-.064.192 0 .384.064.576zm-9.082-4.08c-.36 0-.713.08-.969.24-.408.226-.521.549-.351.831h-.033V79.86c-.821.132-1.6.37-2.241.743a4.12 4.12 0 00-.642.456L96.322 69.953l1.468-.118 1.781-3.836c1.317.06 2.135.531 2.135.531l-1.539-1.814 3.015-6.494c1.317.06 2.135.533 2.135.533l-1.539-1.815 3.014-6.493c1.317.06 2.134.531 2.134.531l-1.538-1.812 1.372-2.955-2.264-3.36-7.388.682-10.263 22.102L81 61.103 1 107.31v68.389l80 46.206 80-46.206V107.31l-35.418-20.457-.683-4.778h-.054c-.203-.541-.674-1.053-1.419-1.472-.624-.363-1.379-.598-2.176-.733V21.448h-.125c.166-.282.084-.605-.324-.831a2.137 2.137 0 00-1.016-.24h.001z" fill="#FAFCFE" fill-opacity=".988" stroke="#0FB3E9" stroke-width="1.5" stroke-linecap="round" stroke-linejoin="round"/><path d="M27.902 91.772L1 107.31l38.085 21.997 12.01.864c2.877-1.034 4.222-4.363 6.059-6.956 6.943-2.47 15.56-1.256 23.846-.774L27.902 91.772z" fill="#FAFCFE" stroke="#0FB3E9" stroke-linecap="round" stroke-linejoin="round"/><path d="M81 164.878c-4.283 1.439-7.87-10.015-11.065-10.983-2.064-.625-3.964-1.614-5.782-2.791C45.134 138.796 27.893 121.648 1 107.31v68.389l80 46.206v-57.027zm0 0c33.431-10.205 26.533-22.286 38.326-33.497L161 107.31v68.389l-80 46.206v-57.027z" fill="#FAFCFE" stroke="#0FB3E9" stroke-width="1.5" stroke-linecap="round" stroke-linejoin="round"/><path d="M134.098 91.772L161 107.31l-41.674 24.071-5.1-7.011c-7.367-.259-13.647 1.825-22.661-1.982l.374-6.266 42.159-24.35z" fill="#FAFCFE" stroke="#0FB3E9" stroke-linecap="round" stroke-linejoin="round"/><path d="M47.725 165.03c5.814.678 8.458-3.747 5.904-9.883-2.554-6.136-9.337-11.66-15.151-12.338-5.815-.678-8.458 3.747-5.904 9.883 2.553 6.136 9.337 11.66 15.151 12.338z" fill="#CCEFFA" stroke="#0FB3E9" stroke-linecap="round" stroke-linejoin="round"/><path d="M56.854 177.022c1.32-.607 1.463-2.375.32-3.95-1.142-1.575-3.138-2.36-4.457-1.754-1.32.606-1.463 2.374-.32 3.949 1.142 1.576 3.138 2.361 4.457 1.755z" fill="#FAFCFE" fill-opacity=".938" stroke="#0FB3E9" stroke-linecap="round" stroke-linejoin="round"/><path d="M106.487 42.846l-7.388.683-10.941 23.565 2.204 3.333.45-.037-7.37 15.872-.356-.166-5.12 11.025c-.776-.206-1.555-.306-2.269-.24-.883.08-1.545.377-1.958.822l-.009-.007-.062.094c-.082.1-.153.204-.211.315l-5.647 8.458.058.028c-.793.931-.81 2.366.289 3.886 1.74 2.467 5.658 4.286 8.667 4.023 1.87-.141 2.955-1.08 3.154-2.286l2.91-9.659a1.86 1.86 0 00.121-.399l.04-.132-.014-.007c.071-.606-.127-1.306-.63-2.026-.423-.605-1.023-1.148-1.704-1.615l5.115-11.015-.297-.137 7.915-17.047 4.347-.35 1.782-3.837c1.316.06 2.134.533 2.134.533l-1.539-1.814 3.015-6.494c1.317.06 2.135.531 2.135.531l-1.539-1.813 3.014-6.495c1.317.061 2.134.533 2.134.533l-1.539-1.814 1.373-2.955-2.264-3.356z" fill="#FDFCFD" stroke="#0FB3E9" stroke-linejoin="round"/><path d="M79.986 112.22l3.072-10.19-9.319-4.327-5.92 8.867.058.028c-.792.93-.81 2.366.289 3.886 1.74 2.467 5.658 4.286 8.666 4.024 1.87-.142 2.955-1.082 3.154-2.288z" fill="#FDFCFD" stroke="#0FB3E9" stroke-linejoin="round"/><path d="M82.414 100c-1.344-1.924-4.371-3.33-6.707-3.115-2.337.214-3.136 1.935-1.82 3.917 1.345 1.923 4.372 3.329 6.708 3.115 2.336-.214 3.163-1.995 1.819-3.918z" fill="#FDFCFD" stroke="#0FB3E9" stroke-linejoin="round"/><path fill-rule="evenodd" clip-rule="evenodd" d="M85.825 87.369l-6.09 13.118c-.083.178-.312.36-.664.341-.672.049-1.503-.337-1.9-.882-.154-.288-.25-.55-.167-.727l6.09-13.118 2.731 1.268z" fill="#FDFCFD" stroke="#0FB3E9" stroke-linejoin="round"/><path fill-rule="evenodd" clip-rule="evenodd" d="M94.183 68.593l-8.848 19.053a.78.78 0 01-.544.397c-.554.104-1.206-.2-1.484-.69-.096-.26-.132-.493-.049-.671l8.847-19.054 2.078.965z" fill="#FDFCFD" stroke="#0FB3E9" stroke-linejoin="round"/><path fill-rule="evenodd" clip-rule="evenodd" d="M101.312 46.865l7.448-.655-10.97 23.625-7.42.595 10.942-23.565z" fill="#FDFCFD" stroke="#0FB3E9" stroke-linejoin="round"/><path fill-rule="evenodd" clip-rule="evenodd" d="M101.312 46.865l7.448-.654-2.264-3.36-7.388.682 2.204 3.332z" fill="#FDFCFD" stroke="#0FB3E9" stroke-linejoin="round"/><path fill-rule="evenodd" clip-rule="evenodd" d="M101.312 46.865l-2.204-3.332-10.942 23.565 2.205 3.332 10.941-23.565zm2.771 1.648c1.49-.102 2.192.873 1.558 2.239-.634 1.365-2.355 2.586-3.873 2.747-1.518.161-2.192-.874-1.558-2.239.634-1.365 2.442-2.618 3.873-2.747zm-3.61 7.776c1.49-.102 2.192.873 1.558 2.238-.634 1.366-2.356 2.587-3.874 2.748-1.49.102-2.191-.874-1.558-2.239.634-1.365 2.415-2.559 3.874-2.747zm-3.611 7.775c1.49-.101 2.192.874 1.558 2.24-.634 1.364-2.355 2.585-3.873 2.746-1.49.102-2.192-.873-1.558-2.238.634-1.365 2.415-2.559 3.873-2.748z" fill="#FDFCFD" stroke="#0FB3E9" stroke-linejoin="round"/><path fill-rule="evenodd" clip-rule="evenodd" d="M108.927 50.979s-2.501-1.45-5.815.402l-2.022-3.103c-.032-.087 2.491-1.946 4.806-.872l3.031 3.573zm-3.61 7.775s-2.502-1.45-5.815.403l-2.023-3.104c-.031-.087 2.464-1.886 4.806-.87l3.032 3.571zm-3.611 7.776s-2.501-1.45-5.815.403l-2.022-3.104c-.06-.027 2.463-1.887 4.806-.871l3.031 3.572z" fill="#FDFCFD" stroke="#0FB3E9" stroke-linejoin="round"/><path d="M126.371 92.381l-1.472-10.307h-10.051l-1.6 10.307h.064c-.321 1.152.256 2.433 1.856 3.329 2.561 1.472 6.786 1.472 9.347 0 1.6-.896 2.177-2.113 1.856-3.329z" fill="#FDFCFD" stroke="#0FB3E9" stroke-linejoin="round"/><path d="M123.427 80.602c-1.985-1.153-5.25-1.153-7.235 0-1.984 1.152-1.984 3.009 0 4.225 1.985 1.152 5.25 1.152 7.235 0 2.048-1.216 2.048-3.073 0-4.225zm5.377-56.721c0 .192 0 .384.064.576-.064-.192-.128-.384-.064-.576zm7.17-.384v.832c-.128.448-.448.832-1.024 1.153-1.409.832-3.649.832-5.058 0-.512-.32-.832-.64-.96-1.025 0-.192-.064-.384-.064-.576v-.448c0-2.625 1.601-4.737 3.585-4.737 1.921 0 3.521 2.176 3.521 4.801z" fill="#FDFCFD" stroke="#0FB3E9" stroke-linejoin="round"/><path d="M135.91 24.393c-.32 2.177-1.792 3.841-3.521 3.841-1.728 0-3.137-1.6-3.521-3.777.128.384.448.769.96 1.025 1.409.832 3.649.832 5.058 0a1.857 1.857 0 001.024-1.089zM102.748 8.005c0 .192 0 .384.064.576-.064-.192-.064-.384-.064-.576zm7.171-.448v.832c-.128.448-.449.832-1.025 1.152-1.408.832-3.649.832-5.057 0-.512-.32-.832-.64-.96-1.024 0-.192-.065-.384-.065-.576v-.449c0-2.624 1.601-4.737 3.586-4.737 1.984 0 3.521 2.177 3.521 4.802z" fill="#FDFCFD" stroke="#0FB3E9" stroke-linejoin="round"/><path d="M109.855 8.453c-.321 2.177-1.793 3.841-3.522 3.841-1.728 0-3.136-1.6-3.521-3.777.129.384.449.768.961 1.024 1.408.832 3.649.832 5.057 0 .576-.256.961-.704 1.025-1.088zm11.395 73.493V21.448h-2.817v60.434c-.064.256.064.512.384.704.576.32 1.473.32 1.985 0 .32-.192.448-.384.448-.64z" fill="#FDFCFD" stroke="#0FB3E9" stroke-linejoin="round"/><path d="M120.802 20.616c-.576-.32-1.473-.32-1.985 0-.576.32-.576.832 0 1.152.576.32 1.473.32 1.985 0s.576-.832 0-1.152zm15.172-1.216s-1.024-.576-4.353-2.497c-1.088-.64-2.305-.896-3.393-.896-1.729 0-3.329.704-4.545 2.048-1.217 1.28-2.049 3.201-2.049 5.698v10.435c0 .384.256.768.576.96.32.192.576.064.576-.32V24.393c0-1.408.32-2.689.897-3.713a6.206 6.206 0 013.649-3.009c1.472-.448 3.073-.256 4.353.512 3.329 1.921 3.585 2.05 3.585 2.05.128.063.32 0 .384-.065.128-.064.192-.128.192-.256 0-.192.128-.128 0-.32l.128-.192zM107.87 3.14c-1.664-.961-2.561-1.473-3.073-1.73-.384-.255-.512-.32-.512-.32-.128-.063-.32-.127-.384-.063-.128.064-.192.192-.192.384s.064.384.192.576c.128.192.256.32.384.448 0 0 .128.064.512.32.512.256 1.409.768 3.073 1.729.896.512 1.857 1.408 2.881 2.56 1.536 1.793 3.009 4.162 4.161 6.658 1.088 2.497 1.857 5.058 1.793 7.17v10.435c0 .385.256.769.576.96.32.193.576.065.576-.32V21.514c0-1.665-.384-3.457-.96-5.314-.897-2.753-2.369-5.506-3.97-7.874-1.6-2.305-3.393-4.226-5.057-5.186z" fill="#FDFCFD" stroke="#0FB3E9" stroke-linejoin="round"/><path d="M135.654 19.336c.256-.128.384 0 .384.256s-.192.576-.384.704c-.256.128-.384 0-.384-.256-.064-.256.128-.576.384-.704z" fill="#FDFCFD" stroke="#0FB3E9" stroke-linejoin="round"/><path d="M102.793 137.479c-1.038-.647-1.151-2.533-.252-4.213.898-1.68 2.468-2.517 3.505-1.871 1.037.647 1.15 2.533.252 4.213-.899 1.68-2.468 2.517-3.505 1.871zm-39.217-1.062c1.037-.647 1.15-2.533.252-4.213-.899-1.68-2.468-2.517-3.506-1.871-1.037.647-1.15 2.533-.251 4.213.898 1.68 2.467 2.518 3.505 1.871z" fill="#FAFCFE" stroke="#0FB3E9" stroke-linecap="round" stroke-linejoin="round"/><path d="M23.802 108.293l2.426-1.284 8.1 4.286-2.426 1.283-8.1-4.285zm16.2 8.571l2.426-1.284 8.1 4.286-2.426 1.283-8.1-4.285zm-26.87-16.784l4.996 2.644-2.425 1.283-4.762-2.519 2.191-1.408zm122.651 6.97l-2.426-1.284-8.099 4.286 2.426 1.283 8.099-4.285zm-16.199 8.571l-2.426-1.284-8.1 4.286 2.426 1.283 8.1-4.285zm26.869-16.784l-4.996 2.644 2.426 1.283 4.762-2.519-2.192-1.408z" fill="#FAFCFE" fill-opacity=".938" stroke="#0FB3E9" stroke-linecap="round" stroke-linejoin="round"/></svg>