<svg width="162" height="185" fill="none" xmlns="http://www.w3.org/2000/svg"><path d="M82.256 1.452L62.431 32.088 3.51 46.933 1 112.867l6.04 4.798H3.513v20.229l17.584 10.156-3.435 3.238 7.548 4.36-7.47 7.039 14.846 8.573 10.903-10.276 38.767 22.391L161 137.894V46.932l-38.527-22.253 8.702-5.025-14.846-8.575-8.701 5.025L82.256 1.452z" fill="#FAFCFE" fill-opacity=".981" stroke="#0FB3E9" stroke-linecap="round" stroke-linejoin="round"/><path d="M82.256 1.452L62.431 32.088 3.512 46.933l78.744 45.48L161 46.934 82.256 1.452z" fill="#FAFCFE" fill-opacity=".981" stroke="#0FB3E9" stroke-width="1.5" stroke-linecap="round" stroke-linejoin="round"/><path d="M22.124 57.682v59.097c0 .491-.28.887-.628.887H3.513v20.229l78.743 45.481V92.413l-60.132-34.73zm60.132 34.732L161 46.933v90.962l-78.744 45.481V92.414z" fill="#FAFCFE" fill-opacity=".981" stroke="#0FB3E9" stroke-width="1.5" stroke-linecap="round" stroke-linejoin="round"/><path d="M75.225 96.475L56.658 85.902l-2.552 1.193-44.03-27.72-2.245 58.919 2.713-.628v16.168l64.681 37.358V96.475zm14.062 0l64.682-37.359v74.718l-64.682 37.358V96.475z" fill="#FAFCFE" fill-opacity=".981" stroke="#0FB3E9" stroke-linecap="round" stroke-linejoin="round"/><path d="M62.431 32.088L3.512 46.933 61.677 83.55l17.766-13.44 17.26.402 15.529-4.598-16.498-9.812L62.43 32.088z" fill="#FAFCFE" fill-opacity=".981" stroke="#0FB3E9" stroke-width="1.5" stroke-linecap="round" stroke-linejoin="round"/><path d="M7.279 95.805l14.845-8.574 49.565 28.628-14.845 8.574L7.279 95.805z" fill="#CCEFFA" stroke="#0FB3E9" stroke-linecap="round" stroke-linejoin="round"/><path d="M10.075 59.376l5.563-3.722-2.245 58.918-5.562 3.722 2.244-58.918z" fill="#FAFCFE" fill-opacity=".981" stroke="#0FB3E9" stroke-linecap="round" stroke-linejoin="round"/><path d="M64.505 96.849l-14.845 8.573 25.565 14.766V103.04l-10.72-6.191zm24.782 14.314v17.147l9.939 5.74 14.844-8.574-24.783-14.313z" fill="#FAFCFE" stroke="#0FB3E9" stroke-linecap="round" stroke-linejoin="round"/><path d="M3.512 46.933l-2.511 65.934 6.83 5.427 1.122-29.46 1.122-29.458 44.03 27.719 7.57-3.545L3.513 46.933z" fill="#FAFCFE" fill-opacity=".981" stroke="#0FB3E9" stroke-width="1.5" stroke-linecap="round" stroke-linejoin="round"/><path d="M10.544 117.666l5.562-3.722v16.168l-5.562 3.722v-16.168z" fill="#FAFCFE" fill-opacity=".981" stroke="#0FB3E9" stroke-linecap="round" stroke-linejoin="round"/><path d="M131.175 19.655L116.33 11.08 66.765 39.709l14.845 8.574 49.565-28.628z" fill="#CCEFFA" stroke="#0FB3E9" stroke-linecap="round" stroke-linejoin="round"/><path d="M67.667 138.199l-14.845-8.574-35.081 33.062 14.845 8.574 35.08-33.062z" fill="#FAFCFE" stroke="#0FB3E9" stroke-linecap="round" stroke-linejoin="round"/><path d="M153.969 59.116l-5.563 3.213v67.783l5.563 3.722V59.116z" fill="#FAFCFE" fill-opacity=".981" stroke="#0FB3E9" stroke-linecap="round" stroke-linejoin="round"/><path d="M27.688 98.093l-8.747 5.133v14.994l8.747 5.132 8.747-5.132v-10.265l-8.747-9.862z" fill="#FAFCFE" stroke="#0FB3E9" stroke-linecap="round" stroke-linejoin="round"/><path d="M27.688 113.088l-8.747-9.862v14.994l8.747 5.133v-10.265zm0 0l8.747-5.133v10.265l-8.747 5.132v-10.264zm39.9 13.713l-14.845-8.574-35.08 33.062 14.844 8.574 35.081-33.062z" fill="#FAFCFE" stroke="#0FB3E9" stroke-linecap="round" stroke-linejoin="round"/></svg>