<svg width="162" height="192" fill="none" xmlns="http://www.w3.org/2000/svg"><path d="M80.984 1L57.323 14.704v6.972L1.983 53.729v91.513l79 45.758 79.001-45.758V46.757L80.984 1z" fill="#FAFCFE" fill-opacity=".938" stroke="#0FB3E9" stroke-width="2" stroke-linecap="round" stroke-linejoin="round"/><path d="M81.347 7.973L57.613 21.68 2.103 53.743v91.539l79.244 45.77 79.244-45.77v-91.54L81.347 7.973z" fill="#FAFCFE" fill-opacity=".938" stroke="#0FB3E9" stroke-width="1.5" stroke-linecap="round" stroke-linejoin="round"/><path d="M80.984 99.667c-10.057 5.804-20.146 11.282-30.757 11.539-8.794-10.743-15.523-25.617-29.005-26.976C10.29 78.224 7.875 64.547 1.984 54v91.333l79 45.667V99.667z" fill="#FAFCFE" fill-opacity=".938" stroke="#0FB3E9" stroke-width="1.058" stroke-linecap="round" stroke-linejoin="round"/><path d="M81.347 100c18.533-10.997 36.557-24.764 55.808-32.55l23.861-13.708v91.54l-79.67 45.77V100z" fill="#FAFCFE" fill-opacity=".938" stroke="#0FB3E9" stroke-width="1.5" stroke-linecap="round" stroke-linejoin="round"/><path d="M136.857 67.451c-11.451 1.826-24.173-.303-30.852 11.565-8.266-10.767-10.496-28.078-25.037-29.44-10.966-6.02-17.446-17.325-23.355-27.895" fill="#CCEFFA"/><path d="M136.857 67.451c-11.451 1.826-24.173-.303-30.852 11.565-8.266-10.767-10.496-28.078-25.037-29.44-10.966-6.02-17.446-17.325-23.355-27.895" stroke="#0FB3E9" stroke-width="1.058" stroke-linecap="round" stroke-linejoin="round"/><path d="M81.445 1L57.613 14.708v6.973l79.571 45.77 23.832-13.708V46.77L81.445 1z" fill="#FAFCFE" fill-opacity=".938" stroke="#0FB3E9" stroke-width="1.5" stroke-linecap="round" stroke-linejoin="round"/><path d="M91.058 41.689l-24.3-14.46v17.304c2.995 2.102 5.628 3.47 8.632 5.557 2.96 2.055 6.3 4.816 8.225 8.422l7.25-4.367.193-12.456z" fill="#FAFCFE" fill-opacity=".996" stroke="#0FB3E9" stroke-width="1.058" stroke-linecap="round" stroke-linejoin="round"/><path d="M41.872 44.8l-7.442 4.484v17.304s3.968.336 5.732 1.167c4.312 2.031 11.123 8.988 11.123 8.988l7.444-4.484V54.954L41.872 44.8z" fill="#FAFCFE" fill-opacity=".938" stroke="#0FB3E9" stroke-width="1.058" stroke-linecap="round" stroke-linejoin="round"/><path d="M51.285 59.438l7.444-4.484V72.26l-7.444 4.484V59.438z" stroke="#0FB3E9" stroke-width=".6" stroke-linecap="round" stroke-linejoin="round"/><path d="M83.615 37.383l7.443 4.306v12.34l-7.443 4.483V37.383z" stroke="#0FB3E9" stroke-width=".658" stroke-linecap="round" stroke-linejoin="round"/><path d="M34.429 49.284l7.443-4.484 16.856 10.154-7.443 4.484L34.43 49.284z" stroke="#0FB3E9" stroke-width=".6" stroke-linecap="round" stroke-linejoin="round"/><path d="M57.613 14.708L81.347 1l79.244 45.77-23.734 13.708-79.244-45.77z" fill="#FAFCFE" fill-opacity=".938" stroke="#0FB3E9" stroke-width="1.5" stroke-linecap="round" stroke-linejoin="round"/><path d="M16.262 103.771c2.282-1.022 2.53-4 .553-6.654-1.975-2.654-5.427-3.977-7.708-2.955-2.282 1.021-2.53 4-.554 6.653 1.976 2.654 5.427 3.977 7.709 2.956z" fill="#CCEFFA" stroke="#0FB3E9" stroke-width=".607" stroke-linecap="round" stroke-linejoin="round"/><path d="M34.19 125.42c1.307-.6 1.45-2.352.318-3.912s-3.11-2.338-4.416-1.738c-1.307.601-1.45 2.352-.317 3.913 1.132 1.56 3.108 2.338 4.416 1.737zm62.836-14.065c-1.306-.6-1.448-2.352-.316-3.912 1.131-1.56 3.108-2.338 4.415-1.738 1.307.601 1.449 2.353.317 3.913-1.132 1.56-3.108 2.338-4.415 1.737z" fill="#FAFCFE" fill-opacity=".938" stroke="#0FB3E9" stroke-width=".606" stroke-linecap="round" stroke-linejoin="round"/><path d="M81.198 149.584c17.497-12.479 37.867-36.774 58.092-40.376 12.099-2.155 21.374-33.796 21.374-33.796v70.084l-79.466 45.77-79.466-45.77.372-29.445c25.144 16.775 48.662 41.013 79.094 33.533z" fill="#CCEFFA" fill-opacity=".504" stroke="#0FB3E9" stroke-width=".7" stroke-linecap="round" stroke-linejoin="round"/><path fill-rule="evenodd" clip-rule="evenodd" d="M160.59 99.825c-3.182-.857-8.526-.248-7.531 3.072 1.517-.485 6.189-1.539 7.531-2.024v-1.048zm0 2.015c-.382.159-.744.312-1.084.452-2.649 1.091-3.996 1.283-6.379 2.225-1.519.646-4.73 2.329-7.671 4.009l-.591.342c-3.636 2.102-6.636 4.093-5.108 3.912 2.987-.354 12.994-4.688 20.833-8.049v-2.891zm-2.076 5.908h-.001c-.708-.034-1.875.203-3.988.815-5.43 1.58-26.373 12.855-21.432 11.77 3.692-.814 3.901 1.161 12.439-2.97 5.165-2.49 9.028-3.923 14.147-6.397h.002c.93-.581.359-1.919.061-2.422-.273-.462-.521-.764-1.228-.797v.001zm1.81 4.646c-.722 0-2.203.48-5.375 1.947-2.786 1.284-3.968 1.698-7.071 3.2-3.273 1.58-3.954 2.235-6.293 3.257-2.986 2.257-5.223 4.093-7.035 5.788-.938.881 6.014.143 8.374-.998 5.662-2.736 11.966-6.376 17.666-9.281v-3.883a1.19 1.19 0 00-.266-.03v0zm-21.492.931c-.452-.006-1.413.199-2.594.507-9.332 1.16-16.924 7.835-24.625 14.16 3.117-1.049 14.237-4.837 15.45-6.486.174-.235 9.484-6.04 11.3-7.419.862-.538.921-.755.469-.762zm21.758 4.605c-4.411 1.76-8.905 3.669-10.065 4.418-1.353.875-6.914 4.584-6.369 4.981.388.283 4.309-.269 6.077-.85 2.87-.944 2.151-.172 6.645-2.435a85.152 85.152 0 003.712-2.004v-4.11zm-27.206 4.897c-.889-.065-2.556.556-4.92 1.047-1.764.367-5.729 1.613-8.307 2.381-2.79 1.349-17.032 9.912-17.491 10.846-.137.275 2.496.427 2.743.847.47.793-1.394 2.741 5.021-.359l17.43-8.42c5.691-2.748 1.764-1.127 4.298-2.836 1.36-.919 2.043-2.862 1.853-3.183-.121-.204-.33-.302-.627-.323zm25.741 2.355c-.853-.062-3.946.964-6.693 1.951-2.148.779-4.949 1.767-7.08 2.556-2.192.811-6.199 2.75-7.776 3.268-3.359 2.008-11.263 7.523-9.235 7.127 2.188-.428 11.542-4.144 15.224-5.835 5.678-2.607 7.152-3.449 12.267-6.415 3.263-1.896 3.956-2.603 3.293-2.652zm1.465 1.136c-3.063 1.569-6.45 3.457-8.909 4.751-2.637 1.389-5.08 2.315-7.563 3.586-3.346 1.819-10.163 7.305-4.82 5.323 5.389-2.001 14.093-6.75 21.292-10.679v-2.981zm-19.886.632c-.955.028-2.706.439-5.201 1.245-1.5-.354-38.205 17.786-29.233 14.994 3.923-1.221 8.409-1.717 13.503-3.695 7.057-2.746 8.138-3.329 15.109-7.298 6.17-3.516 7.923-5.308 5.822-5.246zm19.886 3.91c-2.257.956-5.5 2.497-10.218 4.776-4.974 2.406-10.196 5.169-13.124 6.941-2.627 1.591-1.073 2.231-.809 2.682.472.793 15.829-6.846 24.151-11.564v-2.835zm0 5.476c-2.11.548-4.554 1.245-6.333 1.677-7.973 3.606-18.354 9.234-22.245 11.525-4.701 2.769 1.799 2.225 6.664.102 6.031-2.624 17.931-9.146 21.7-11.329l.215-.124-.001-1.851zm-36.25 2.696c-1.624-.081-11.262 3.989-14.599 4.978-.086-.149-3.805 1.454-6.539 2.837-2.139 1.078-4.965 2.974-6.576 4.042-3.88 2.572-9.343 6.755-1.552 3.688 5.232-2.06 9.664-3.906 16.042-6.986 7.843-3.792 7.921-4.261 11.649-6.826 1.769-1.217 2.117-1.706 1.575-1.733zm36.25.975c-3.984 2.645-8.051 5.536-7.942 5.926.052.199 3.872-.229 4.59-.015.528.157.72.487 1.114.653l2.238-1.289v-5.275zm-25.747.226c-1.727-.098-6.728 1.685-11.711 4.034-2.31 1.387-3.664 1.728-6.44 3.319l-8.358 4.786c-5.721 3.279-5.727 4.882-.617 3.477 4.619-1.274 7.292-2.917 12.845-5.868 6.48-3.443 14.06-7.645 14.794-8.977.274-.499.062-.739-.513-.771zm25.972-48.508v4.424c1.314-.414-5.425 3.39-7.079 1.623-.586-.625.359-.822.736-2.46 2.401-2.283 3.271-1.51 6.343-3.587zm-11.194 54.557h-.001c-.708-.033-1.876.203-3.989.818-5.43 1.575-26.373 12.851-21.429 11.766 3.692-.812 3.899 1.16 12.442-2.966 5.162-2.497 9.026-3.927 14.145-6.401h.002c.925-.581.358-1.922.06-2.421-.273-.462-.522-.764-1.23-.797v.001zm-50.445.807c-.387-.006-1.441.313-3.416 1.067-2.786 1.068-7.294 2.452-9.518 2.861-.277.009-2.066.673-4.465 1.622v4.407c3.82-1.616 7.495-3.299 9.754-4.669 3.97-2.411 8.807-5.278 7.645-5.288zm27.385 2.68c-.488-.025-1.656.347-3.986 1.417-4.948 2.274-5.079 2.175-8.559 3.211-4.433 2.037-10.784 4.997-12.366 6.247-1.399 1.106-4.405 3.871-1.537 3.084 5.362-1.473 22.956-9.015 25.449-11.916.735-.856 1.812-2.001.999-2.043zm25.402.474c-1.451.046-4.363 1.377-10.982 4.574-3.883 1.877-7.935 4.074-10.182 5.517-1.855 1.192-.864 1.906-.486 2.361l21.65-12.452zm-46.664 1.106a1.35 1.35 0 00-.516.061c-3.185.877-3.433 1.346-7.543 3.045-5.276 2.182-8.867 3.206-14.111 5.189-.222.073-.75.338-1.352.654v4.641c5.347-1.849 22.539-10.084 23.257-11.204.347-.538 1.199-2.273.265-2.384v-.002zm24.238 1.406c-1.675.007-12.41 4.367-15.626 5.881-6.224 2.954-12.11 5.925-13.878 8.119-3.416 4.244 12.675-3.95 22.211-8.557 5.24-2.53 6.235-3.852 7.408-5.157.179-.198.124-.286-.115-.286h0zm-29.378 5.968c-.084 0-.178.001-.283.012h-.002c-1.849.176-6.884 2.275-11.431 4.213-.311-.115-3.407 1.362-6.665 3.003v3.955c3.177-1.395 7.28-3.443 9.82-4.785 5.441-2.878 6.807-3.385 8.479-5.239.718-.797.669-1.138.082-1.158v-.001zm21.448.851c-1.457.055-4.378 1.387-10.968 4.569-3.883 1.878-7.935 4.079-10.184 5.522-2.016 1.292-.668 2.031-.399 2.48.65 1.101 23.447-10.882 22.839-11.907-.265-.449-.625-.689-1.288-.664zm6.367.378c-.377 0-.91.124-1.628.417-4.328 1.907-23.529 11.54-25.215 12.943-1.037.86-5.038 4.366-2.917 3.91 1.523-.331 9.012-3.112 11.639-4.316 4.26-1.958 4.407-1.548 9.297-4.494 3.996-2.406 7.821-5.29 8.879-6.461.816-.909 1.077-2.003-.054-1.999h-.001zm-33.067 7.222c-1.067-.031-3.24.291-4.66.454-1.11.463-4.614 2.223-8.47 4.226v6.153l3.706-1.546c5.515-2.301 2.213-1.201 5.567-3.108 1.804-1.024 5.432-4.194 6.007-4.859 1.474-1.704-.316-.994-1.768-1.283a2.255 2.255 0 00-.382-.036v-.001zm19.788 4.507c-1.026.275-2.008.536-2.845.735-7.972 3.611-18.352 9.24-22.245 11.531-2.723 1.607-1.687 2.094.614 1.81l24.476-14.076zM96.5 173.697c-.853-.062-3.945.965-6.69 1.952-2.15.776-4.95 1.768-7.084 2.554-.271.101-.63.257-.948.387v3.779c4.912-2.274 6.612-3.225 11.432-6.023 3.262-1.894 3.954-2.601 3.29-2.649zm-1.922 3.953c-1.478-.056-4.903 1.471-12.8 5.273v3.46c7.207-3.721 14.145-7.636 13.847-8.143-.213-.359-.519-.57-1.047-.59zm-8.815 9.259c-.921-.025-2.614.203-3.986.373v3.33l6.21-3.572c-.463-.037-1.185.036-1.84-.096a2.405 2.405 0 00-.384-.035v0z" fill="#FAFCFE" stroke="#0FB3E9" stroke-width=".4" stroke-linecap="round" stroke-linejoin="round"/><path d="M97.365 144.729c-1.307-.6-1.45-2.352-.317-3.912 1.132-1.56 3.108-2.338 4.415-1.738 1.307.601 1.449 2.353.317 3.913-1.131 1.56-3.108 2.338-4.415 1.737z" fill="#FAFCFE" fill-opacity=".938" stroke="#0FB3E9" stroke-width=".404" stroke-linecap="round" stroke-linejoin="round"/><path fill-rule="evenodd" clip-rule="evenodd" d="M1.354 118.762l-.04 2.817c1.14.645 2.3 1.272 3.382 1.82 4.494 2.263 3.775 1.491 6.645 2.435.024.009.06.016.085.026-3.342-2.437-6.692-4.836-10.072-7.098h0zm1.095 5.775c-.663.049.03.756 3.293 2.652 5.114 2.966 6.589 3.808 12.267 6.415 2.132.979 6.148 2.626 9.59 3.931-4.11-2.825-8.184-5.817-12.258-8.81-1.994-.728-4.318-1.555-6.199-2.237-2.747-.987-5.84-2.013-6.693-1.951zm-1.196 1.276l-.042 2.964c7.157 3.906 15.73 8.575 21.065 10.556 5.343 1.982-1.474-3.504-4.82-5.323-2.484-1.271-4.926-2.197-7.563-3.586-2.388-1.257-5.648-3.07-8.64-4.611zm-.064 4.493l-.04 2.835c8.355 4.724 23.518 12.262 23.987 11.473.264-.451 1.816-1.091-.81-2.682-2.929-1.772-8.15-4.535-13.124-6.941-4.589-2.216-7.764-3.724-10.013-4.685h0zm-.077 5.419l-.027 1.876.112.066c3.77 2.184 15.67 8.704 21.7 11.328 4.866 2.123 11.366 2.667 6.665-.102-3.892-2.291-14.272-7.919-22.245-11.525-1.745-.424-4.124-1.1-6.206-1.643h0zm-.054 3.689l-.074 5.224 2.238 1.288c.394-.165.585-.495 1.114-.653.717-.214 4.537.214 4.59.016.108-.388-3.909-3.244-7.868-5.875h0zm25.673.174c-.575.032-.788.272-.513.771.734 1.332 8.314 5.534 14.794 8.977 5.553 2.951 8.226 4.594 12.845 5.868 5.11 1.405 5.104-.198-.617-3.477l-2.78-1.593c-5.735-2.15-11.29-5.13-16.746-8.562-3.142-1.246-5.816-2.05-6.983-1.984zm-14.777 6.049c-.708.033-.957.335-1.23.797-.298.499-.865 1.841.06 2.422 5.119 2.473 8.982 3.904 14.145 6.4 8.542 4.126 8.75 2.155 12.442 2.967 4.944 1.084-16-10.191-21.429-11.767-2.113-.614-3.281-.851-3.989-.818l.001-.001zm23.059 3.487c-.813.042.265 1.187 1 2.043 2.492 2.901 20.086 10.444 25.448 11.916 2.868.787-.138-1.978-1.537-3.084-1.582-1.25-7.932-4.21-12.365-6.247-3.48-1.036-3.612-.937-8.56-3.211-2.33-1.069-3.499-1.442-3.986-1.417zm-25.403.474l21.65 12.452c.378-.455 1.37-1.169-.485-2.361-2.247-1.443-6.3-3.64-10.183-5.517-6.618-3.197-9.53-4.527-10.982-4.574zm46.382 2.331c.153.459.396.924.548 1.16.79 1.233 21.622 11.129 24.53 11.578.103.016.18.02.276.034v-4.211c-1.17-.651-2.494-1.358-2.901-1.491-5.245-1.982-8.835-3.007-14.111-5.188-.447-.185-.707-.306-1.07-.464a51.607 51.607 0 01-7.272-1.418v0zm-23.955.181c-.238 0-.293.088-.115.286 1.172 1.305 2.167 2.627 7.408 5.157 9.536 4.607 25.626 12.801 22.211 8.557-1.768-2.194-7.655-5.165-13.879-8.119-3.215-1.514-13.946-5.872-15.624-5.881h-.001zm41.27 1.368c2.351 1.156 5.2 2.398 8.04 3.574v-4.43c-.324-.131-.716-.296-2.09-.023a63.73 63.73 0 01-5.95.879v0zm-11.891 4.601c-.587.02-.637.361.081 1.157 1.672 1.854 3.038 2.361 8.48 5.239 2.981 1.576 8.117 4.125 11.37 5.441V166.1c-3.782-1.935-7.853-3.932-8.216-3.798-4.547-1.938-9.582-4.037-11.432-4.213-.105-.009-.2-.014-.283-.009v-.001zm-21.45.85c-.662-.025-1.022.215-1.287.664-.608 1.025 22.189 13.008 22.84 11.907.268-.449 1.617-1.188-.4-2.48-2.248-1.443-6.301-3.644-10.184-5.522-6.59-3.182-9.511-4.514-10.969-4.569zm-6.366.378c-1.131-.007-.871 1.09-.055 2 1.057 1.17 4.883 4.054 8.88 6.46 4.889 2.946 5.036 2.537 9.296 4.494 2.627 1.204 10.116 3.985 11.639 4.317 2.12.455-1.88-3.05-2.917-3.911-1.686-1.403-20.887-11.036-25.215-12.943-.718-.293-1.25-.417-1.627-.417H33.6zm33.068 7.222a2.498 2.498 0 00-.383.036c-1.452.29-3.243-.42-1.768 1.283.575.665 4.202 3.836 6.007 4.86 3.354 1.907.052.807 5.567 3.108l5.255 2.193v-5.994c-4.438-2.325-8.762-4.508-10.018-5.032-1.421-.164-3.593-.485-4.66-.455v.001zm-19.789 4.507l24.475 14.076c2.302.284 3.338-.203.615-1.81-3.893-2.291-14.274-7.92-22.245-11.53-.837-.2-1.819-.461-2.845-.736zm18.195 2.016c-.664.048.028.755 3.29 2.649 5.118 2.971 6.59 3.807 12.269 6.415.203.093.479.211.713.316v-3.838a52.386 52.386 0 00-2.498-1.036c-2.133-.786-4.934-1.778-7.085-2.554-2.744-.987-5.836-2.014-6.69-1.952zm1.922 3.953c-.529.02-.833.231-1.046.59-.32.543 7.666 4.995 15.396 8.932v-3.507c-9.169-4.431-12.768-6.076-14.35-6.015v0zm8.815 9.259a2.39 2.39 0 00-.385.036c-.654.132-1.376.059-1.84.096l6.809 3.916.951-.549v-2.638c-.328-.155-.691-.328-.88-.407-1.416-.163-3.589-.482-4.655-.453v-.001z" fill="#FAFCFE" stroke="#0FB3E9" stroke-width=".4" stroke-linecap="round" stroke-linejoin="round"/></svg>