<svg width="162" height="187" fill="none" xmlns="http://www.w3.org/2000/svg"><path d="M81 1L1 47.206l80 46.207 80-46.206L81 1z" fill="#FAFCFE" stroke="#0FB3E9" stroke-linecap="round" stroke-linejoin="round"/><path d="M81 1L1 47.207v92.413l80 46.207 80-46.207V47.207L81 1z" fill="#FAFCFE" fill-opacity=".542" stroke="#0FB3E9" stroke-width="1.5" stroke-linecap="round" stroke-linejoin="round"/><path d="M81 93.413L1 47.206v92.413l80 46.207V93.413zm0 0l80-46.207v92.413l-80 46.207V93.413z" fill="#FAFCFE" stroke="#0FB3E9" stroke-width="1.5" stroke-linecap="round" stroke-linejoin="round"/><path d="M74.536 97.147L7.464 58.407v77.479l67.072 38.739V97.147zm12.928 0l56.847-32.834 10.225-5.905v77.478l-67.072 38.739V97.147z" fill="#fff" stroke="#0FB3E9" stroke-linecap="round" stroke-linejoin="round"/><path d="M7.464 58.408l5.652 3.264v68.864l-5.652 3.781v-75.91z" fill="#FAFCFE" fill-opacity=".981" stroke="#0FB3E9" stroke-linecap="round" stroke-linejoin="round"/><path d="M74.536 122.888C53.772 121.757 51.513 109.59 40 102.941c-10.845-6.264-18.45 3.087-32.537-18.793v51.738l67.072 38.739v-51.737z" fill="#CCEFFA" fill-opacity=".673" stroke="#0FB3E9" stroke-linecap="round" stroke-linejoin="round"/><path d="M137.874 68.031l16.662-9.623v25.74l-5.652-10.834c-6.478-2.725-3.133-5.006-11.01-5.283z" fill="#FBFDFF" stroke="#0FB3E9" stroke-linecap="round" stroke-linejoin="round"/><path d="M154.536 58.408l-5.652 3.264v68.864l5.652 3.781v-75.91z" fill="#FAFCFE" fill-opacity=".981" stroke="#0FB3E9" stroke-linecap="round" stroke-linejoin="round"/><path d="M87.464 122.888c20.764-1.131 23.023-13.298 34.535-19.947 10.845-6.264 18.45 3.087 32.537-18.793v51.738l-67.072 38.739v-51.737z" fill="#CCEFFA" fill-opacity=".685" stroke="#0FB3E9" stroke-linecap="round" stroke-linejoin="round"/><path d="M136.995 116.689c-1.037-.646-1.15-2.532-.251-4.212.898-1.68 2.467-2.518 3.505-1.871 1.037.646 1.15 2.532.251 4.212-.898 1.68-2.467 2.518-3.505 1.871zm-3.888 9.582c-1.037-.646-1.15-2.532-.251-4.212.898-1.68 2.467-2.518 3.505-1.871 1.037.646 1.15 2.532.251 4.212-.898 1.68-2.467 2.518-3.505 1.871zm6.328 7.669c-1.037-.647-1.15-2.533-.251-4.213.898-1.68 2.467-2.517 3.505-1.871 1.037.647 1.15 2.533.251 4.213-.898 1.68-2.467 2.518-3.505 1.871z" fill="#FAFCFE" stroke="#0FB3E9" stroke-linecap="round" stroke-linejoin="round"/><path d="M24.126 68.031L7.464 58.408v25.74l5.652-10.834c6.478-2.725 3.134-5.006 11.01-5.283z" fill="#FBFDFF" stroke="#0FB3E9" stroke-linecap="round" stroke-linejoin="round"/><path d="M7.464 58.408l5.652 3.264v18.695L7.464 84.15V58.408zm147.072 0l-5.652 3.264v18.695l5.652 3.782V58.408z" fill="#FAFCFE" fill-opacity=".981" stroke="#0FB3E9" stroke-linecap="round" stroke-linejoin="round"/></svg>