<svg width="137" height="141" fill="none" xmlns="http://www.w3.org/2000/svg"><path d="M1 49.724c44.744-29.062 86.044 7.887 135.054 0" stroke="#0FB3E9" stroke-width="1.5" stroke-linecap="round" stroke-linejoin="round"/><path d="M92.633 16.05h-44.5a5.22 5.22 0 00-5.22 5.22v48.297a5.22 5.22 0 005.22 5.22h44.5a5.22 5.22 0 005.22-5.22V21.27a5.22 5.22 0 00-5.22-5.22z" fill="#fff" stroke="#0FB3E9" stroke-width="1.5" stroke-linecap="round" stroke-linejoin="round"/><path d="M95.76 136.173l-8.26-30.306h6.363l7.703 28.75" fill="#fff"/><path d="M95.76 136.173l-8.26-30.306h6.363l7.703 28.75" stroke="#0FB3E9" stroke-width="1.5"/><path d="M47.903 92.113v13.754h44.96V92.113h-44.96z" fill="#fff" stroke="#0FB3E9" stroke-width="1.5"/><path d="M73.974 141v-40.594h-7.182V141" fill="#fff"/><path d="M73.974 141v-40.594h-7.182V141" stroke="#0FB3E9" stroke-width="1.5"/><path d="M83.687 1H57.079a4.946 4.946 0 00-4.946 4.946v86.77a4.946 4.946 0 004.946 4.945h26.608a4.946 4.946 0 004.945-4.946V5.945A4.946 4.946 0 0083.687 1z" fill="#fff" stroke="#0FB3E9" stroke-width="1.5" stroke-linecap="round" stroke-linejoin="round"/><path d="M83.126 60.522H57.642c-5.84 0-10.59-8.175-10.59-18.226v-1.448c0-10.051 4.75-18.228 10.59-18.228h25.484c5.839 0 10.589 8.177 10.589 18.228v1.448c0 10.05-4.75 18.226-10.589 18.226z" fill="#fff" stroke="#0FB3E9" stroke-width="1.5"/><path d="M80.688 41.571c0-5.423-4.613-9.821-10.304-9.821S60.08 36.148 60.08 41.57c0 5.424 4.614 9.821 10.305 9.821s10.304-4.398 10.304-9.82z" fill="#fff" stroke="#0FB3E9" stroke-width="1.5"/><path d="M75.04 40.839c0-2.45-2.085-4.438-4.656-4.438-2.573 0-4.658 1.988-4.658 4.438 0 2.452 2.085 4.439 4.658 4.439 2.57 0 4.656-1.987 4.656-4.44z" fill="#fff" stroke="#0FB3E9" stroke-width="1.5"/><path d="M44.856 134.616l7.703-28.75-5.806-1.555-7.703 28.749" fill="#fff"/><path d="M44.856 134.616l7.703-28.75-5.806-1.555-7.703 28.749" stroke="#0FB3E9" stroke-width="1.5"/><path d="M52.56 105.866c0-2.45-2.085-4.437-4.656-4.437-2.573 0-4.658 1.987-4.658 4.437 0 2.452 2.085 4.44 4.658 4.44 2.57 0 4.656-1.988 4.656-4.44zm44.96 0c0-2.45-2.085-4.437-4.656-4.437-2.573 0-4.658 1.987-4.658 4.437 0 2.452 2.085 4.44 4.658 4.44 2.571 0 4.656-1.988 4.656-4.44z" fill="#fff" stroke="#0FB3E9" stroke-width="1.5"/><path d="M88.632 68.225H52.133v11.977h36.5V68.225z" fill="#fff" stroke="#0FB3E9" stroke-width="1.5" stroke-linecap="round" stroke-linejoin="round"/></svg>