<svg width="130" height="122" fill="none" xmlns="http://www.w3.org/2000/svg"><path d="M1 14.67L38.788 1v106.33L1 121V14.67zm89.996 0L128.784 1v106.33L90.996 121V14.67zm-7.21 0L45.998 1v106.33L83.786 121V14.67z" fill="#fff" stroke="#0FB3E9" stroke-width="1.5" stroke-linecap="round" stroke-linejoin="round"/><path d="M91.5 78.5c5.536.82 12.751-4.668 14.065-10.108.754-3.123-1.589-6.746-4.135-8.705-2.33-1.793-6.28-3.86-10.43-5.52m-7.5-2.43c-5.5-1.298-9.651-.934-8.365 3.046C77.062 60.748 79.662 68.043 83.6 73" stroke="#0FB3E9" stroke-width="1.5"/><path d="M83.609 43c-9.791-3.627-19.45-4.34-24.11 2.84-8.188 12.617 8.6 33.49 24.001 39.372M91 46.24c5.263 2.639 10.191 5.78 13.969 8.587 4.454 3.312 8.707 9.197 7.427 14.464-2.102 8.648-12.08 17.026-21.165 17.422M19.082 33.39c8.076-.07 12.594 1.965 19.418 2.088m45.767-3.982A26.72 26.72 0 0083.57 31c-13.942-9.573-27.588.954-37.569 3.706m74.593 23.374c-1.757-2.438-3.786-4.712-5.668-6.714C109.021 45.086 99.268 40.576 91 35.8m23.289 47.369c-6.261 6.12-15.094 10.37-23.289 11.534M9.356 58.683C15.363 69.988 26.944 80.64 38.5 87.072m7.5 3.57c.94.368 1.871.702 2.79 1 6.678 2.158 11.958-6.21 18.405-5.984 5.953.208 11.189 5.45 16.589 7.942M22.032 44.708c-1.692-.284-3.935.471-4.75 1.98-1.42 2.63-.192 6.458 1.648 8.813 5.944 7.607 14.284 11.748 11.932-2.934-.753-4.701-4.944-7.208-8.83-7.86v0z" stroke="#0FB3E9" stroke-width="1.5"/></svg>