<svg width="145" height="142" fill="none" xmlns="http://www.w3.org/2000/svg"><path d="M69.687 7.374v117.718L61.26 141l-8.428-15.908V7.374" fill="#fff"/><path d="M69.687 7.374v117.718L61.26 141l-8.428-15.908V7.374" stroke="#0FB3E9" stroke-width="1.5" stroke-linecap="round" stroke-linejoin="round"/><path d="M57.148 57.236l8.223-8.222M57.148 70.74l8.223-8.222m-8.223 21.726l8.223-8.222M57.148 30.23l8.223-8.223m-8.223 21.726l8.223-8.222m-8.223 62.237l8.223-8.223m-8.223 21.726l8.223-8.222" stroke="#0FB3E9" stroke-width="1.5" stroke-linecap="round"/><path d="M61.26 107.14V1v106.14z" fill="#fff"/><path d="M61.26 107.14V1" stroke="#0FB3E9" stroke-width="1.5" stroke-linecap="round" stroke-linejoin="round"/><path d="M31.966 67.968c1.78.36 3.71 1.957 3.944 3.758.408 3.136-2.257 6.454-4.968 8.084-8.757 5.265-18.567 6.197-10.68-7.42 2.526-4.362 7.617-5.25 11.704-4.422z" fill="#fff" stroke="#0FB3E9" stroke-width="1.5"/><path d="M79.118 4.566H134.4 79.118z" fill="#fff"/><path d="M79.118 4.566H134.4" stroke="#0FB3E9" stroke-width="1.5" stroke-linecap="round" stroke-linejoin="round"/><path d="M2.168 4.566h37.31-37.31z" fill="#fff"/><path d="M2.168 4.566h37.31" stroke="#0FB3E9" stroke-width="1.5" stroke-linecap="round" stroke-linejoin="round"/><path d="M6.5 49c8.167-4.167 27.9-9.6 41.5 2m21 61.5c4 7.667 18 21.7 42 16.5 6.333-2 20-10.3 24-27.5M1 39c18.5-9 29-20 52.5 0M70 44.5c10.667 8 27 21 19.5 39.5-3.5 8.633 5.5 27 18 17.5 3-3.167 9.5-11.5 11.5-19.5s12.833-11.667 18-12.5" stroke="#0FB3E9" stroke-width="1.5"/><path d="M70 64c3.333 4.167 8 10.5 6 27-.5 9.5 3.8 28.5 25 28.5 4.5-.167 14.4-3.4 18-15 1.833-6.5 8.1-19.9 18.5-21.5M94 38c6.5 5.167 24.1 12.7 42.5 1.5m-49 7.5c4.333 6.333 17.5 17.7 35.5 12.5 3.667-1.167 13-4.9 21-10.5" stroke="#0FB3E9" stroke-width="1.5"/></svg>