<svg width="166" height="122" fill="none" xmlns="http://www.w3.org/2000/svg"><path d="M138.784 1H27.038v86.794h111.746V1zM27.037 87.794h111.746l26.037 23.562H1l26.037-23.561z" fill="#fff" stroke="#0FB3E9" stroke-width="1.5" stroke-linecap="round" stroke-linejoin="round"/><path d="M133.391 5.951H32.428v76.892h100.963V5.951zM40.64 87.794l-13.58 12.29h111.703L125.18 87.795H40.64zm124.18 23.562H1V121h163.82v-9.644z" fill="#fff" stroke="#0FB3E9" stroke-width="1.5" stroke-linecap="round" stroke-linejoin="round"/><path d="M56.163 28.176c-2.513.75-5.358 2.827-5.696 5.427-.59 4.53 2.716 10.683 7.175 11.675 7.788 1.733 21.58-5.335 19.995-13.154-1.446-7.133-14.5-6.027-21.474-3.948z" fill="#fff" stroke="#0FB3E9" stroke-width="1.5"/><path d="M54.885 23.438c-4.363 1.222-9.324 4.465-9.888 8.852-1.03 8.014 5.464 18.62 13.387 20.208 13.288 2.664 36.601-9.365 33.783-22.621-2.623-12.335-25.173-9.831-37.282-6.44v0z" stroke="#0FB3E9" stroke-width="1.5"/><path d="M126.611 32.2c-7.439-2.926-11.494-2.628-18.946-5.63-7.954-3.202-20.867-11.138-32.345-12.456-9.032-1.037-18.825-.178-27.011 3.777-2.02.975-4.23 2.116-6.282 3.46m-2.528 20.965c3.117 6.786 8.974 12.838 15.18 16.025 5.648 2.9 13.685-2.531 19.986-.365 4.98 1.712 6.558 9.633 12.278 9.94 12.3.659 29.43-4.667 39.689-13.595" stroke="#0FB3E9" stroke-width="1.5"/><path d="M118.224 37.214c1.961.397 4.087 2.156 4.345 4.14.449 3.456-2.487 7.112-5.474 8.907-9.648 5.801-20.457 6.828-11.767-8.176 2.783-4.804 8.392-5.784 12.896-4.87z" fill="#fff" stroke="#0FB3E9" stroke-width="1.5"/></svg>