<svg width="98" height="92" viewBox="0 0 98 92" fill="none" xmlns="http://www.w3.org/2000/svg">
<path d="M34.6794 41.6194V17.4786C34.6794 16.3675 35.582 15.4669 36.6955 15.4669H46.272V32.5666L47.28 33.5724L50.3041 32.5666H61.8967V41.6194C61.8967 42.7304 60.9941 43.6311 59.8806 43.6311H51.3122L50.3041 42.6252H34.9491C34.7776 42.3293 34.6794 41.9858 34.6794 41.6194Z" fill="#00CECB"/>
<path d="M34.6794 67.269V63.7484C34.6794 62.6374 35.582 61.7367 36.6955 61.7367H59.8806C60.9941 61.7367 61.8967 62.6374 61.8967 63.7484V67.269H34.6794Z" fill="#00CECB"/>
<path d="M37.1995 8.42578C38.5913 8.42578 39.7196 9.55164 39.7196 10.9404C39.7196 12.3293 38.5913 13.4551 37.1995 13.4551C35.8077 13.4551 34.6794 12.3293 34.6794 10.9404C34.6794 9.55164 35.8077 8.42578 37.1995 8.42578Z" fill="#00CECB"/>
<path d="M11.998 81.3511L18.5503 87.8892L25.1027 81.3511C28.5725 77.2126 21.0705 72.2982 18.5506 78.8364C16.0307 72.2982 8.52819 77.2126 11.998 81.3511Z" fill="#00CECB"/>
<path d="M80.6505 48.3832L85.0818 52.6839L89.5131 48.3832C91.8598 45.661 86.7862 42.4284 85.082 46.7292C83.3778 42.4284 78.3039 45.661 80.6505 48.3832Z" fill="#00CECB"/>
<path d="M61.4467 49.1649C61.7229 49.1649 61.9467 48.9411 61.9467 48.6649C61.9467 48.3888 61.7229 48.1649 61.4467 48.1649V49.1649ZM53.8909 57.7124C54.167 57.7124 54.3909 57.4885 54.3909 57.2124C54.3909 56.9363 54.167 56.7124 53.8909 56.7124V57.7124ZM41.8016 10.4554C41.5254 10.4554 41.3016 10.6793 41.3016 10.9554C41.3016 11.2316 41.5254 11.4554 41.8016 11.4554V10.4554ZM53.8909 11.4554C54.167 11.4554 54.3909 11.2316 54.3909 10.9554C54.3909 10.6793 54.167 10.4554 53.8909 10.4554V11.4554ZM7.04467 48.1649C6.76853 48.1649 6.54467 48.3888 6.54467 48.6649C6.54467 48.9411 6.76853 49.1649 7.04467 49.1649V48.1649ZM41.2978 49.1649C41.574 49.1649 41.7978 48.9411 41.7978 48.6649C41.7978 48.3888 41.574 48.1649 41.2978 48.1649V49.1649ZM7.04467 51.1817C6.76853 51.1817 6.54467 51.4055 6.54467 51.6817C6.54467 51.9578 6.76853 52.1817 7.04467 52.1817V51.1817ZM41.2978 52.1817C41.574 52.1817 41.7978 51.9578 41.7978 51.6817C41.7978 51.4055 41.574 51.1817 41.2978 51.1817V52.1817ZM7.04467 54.1984C6.76853 54.1984 6.54467 54.4223 6.54467 54.6984C6.54467 54.9746 6.76853 55.1984 7.04467 55.1984V54.1984ZM41.2978 55.1984C41.574 55.1984 41.7978 54.9746 41.7978 54.6984C41.7978 54.4223 41.574 54.1984 41.2978 54.1984V55.1984ZM67.783 12.4638C67.783 12.7399 68.0068 12.9638 68.283 12.9638C68.5591 12.9638 68.783 12.7399 68.783 12.4638H67.783ZM68.783 6.38608C68.783 6.10993 68.5591 5.88608 68.283 5.88608C68.0068 5.88608 67.783 6.10993 67.783 6.38608H68.783ZM28.2048 33.7966C28.2048 34.0727 28.4286 34.2966 28.7048 34.2966C28.9809 34.2966 29.2048 34.0727 29.2048 33.7966H28.2048ZM29.2048 27.7189C29.2048 27.4427 28.9809 27.2189 28.7048 27.2189C28.4286 27.2189 28.2048 27.4427 28.2048 27.7189H29.2048ZM46.3351 15.4806H45.8351H46.3351ZM48.8498 32.9133L48.5728 32.497L48.5728 32.497L48.8498 32.9133ZM47.9013 33.5444L47.6243 33.1282L47.6243 33.1282L47.9013 33.5444ZM46.3351 32.7077H46.8351H46.3351ZM53.8909 19.0029C53.6148 19.0029 53.3909 19.2268 53.3909 19.5029C53.3909 19.779 53.6148 20.0029 53.8909 20.0029V19.0029ZM88.6478 20.0029C88.9239 20.0029 89.1478 19.779 89.1478 19.5029C89.1478 19.2268 88.9239 19.0029 88.6478 19.0029V20.0029ZM53.8909 22.0197C53.6148 22.0197 53.3909 22.2435 53.3909 22.5197C53.3909 22.7958 53.6148 23.0197 53.8909 23.0197V22.0197ZM88.6478 23.0197C88.9239 23.0197 89.1478 22.7958 89.1478 22.5197C89.1478 22.2435 88.9239 22.0197 88.6478 22.0197V23.0197ZM53.8909 25.0364C53.6148 25.0364 53.3909 25.2603 53.3909 25.5364C53.3909 25.8126 53.6148 26.0364 53.8909 26.0364V25.0364ZM88.6478 26.0364C88.9239 26.0364 89.1478 25.8126 89.1478 25.5364C89.1478 25.2603 88.9239 25.0364 88.6478 25.0364V26.0364ZM46.3351 89.3912L45.8351 89.3912L46.3351 89.3912ZM48.8498 71.9584L49.1268 71.5422L49.1268 71.5422L48.8498 71.9584ZM47.9013 71.3273L47.6243 71.7435L47.6243 71.7435L47.9013 71.3273ZM46.3351 72.164L46.8351 72.164L46.3351 72.164ZM53.8909 84.8688C53.6148 84.8688 53.3909 85.0927 53.3909 85.3688C53.3909 85.645 53.6148 85.8688 53.8909 85.8688V84.8688ZM88.6478 85.8688C88.9239 85.8688 89.1478 85.645 89.1478 85.3688C89.1478 85.0927 88.9239 84.8688 88.6478 84.8688V85.8688ZM53.8909 81.8521C53.6148 81.8521 53.3909 82.0759 53.3909 82.3521C53.3909 82.6282 53.6148 82.8521 53.8909 82.8521V81.8521ZM88.6478 82.8521C88.9239 82.8521 89.1478 82.6282 89.1478 82.3521C89.1478 82.0759 88.9239 81.8521 88.6478 81.8521V82.8521ZM53.8909 78.8353C53.6148 78.8353 53.3909 79.0592 53.3909 79.3353C53.3909 79.6114 53.6148 79.8353 53.8909 79.8353V78.8353ZM88.6478 79.8353C88.9239 79.8353 89.1478 79.6114 89.1478 79.3353C89.1478 79.0592 88.9239 78.8353 88.6478 78.8353V79.8353ZM41.8016 11.4554H53.8909V10.4554H41.8016V11.4554ZM1.5 44.6426C1.5 43.8088 2.17737 43.1314 3.01489 43.1314V42.1314C1.62683 42.1314 0.5 43.2548 0.5 44.6426H1.5ZM49.8611 43.1314C50.6986 43.1314 51.376 43.8088 51.376 44.6426H52.376C52.376 43.2548 51.2492 42.1314 49.8611 42.1314V43.1314ZM51.376 59.7264C51.376 60.5601 50.6986 61.2375 49.8611 61.2375V62.2375C51.2492 62.2375 52.376 61.1141 52.376 59.7264H51.376ZM3.01489 61.2375C2.17737 61.2375 1.5 60.5601 1.5 59.7264H0.5C0.5 61.1141 1.62683 62.2375 3.01489 62.2375V61.2375ZM1.5 59.7264V44.6426H0.5V59.7264H1.5ZM7.04467 49.1649H41.2978V48.1649H7.04467V49.1649ZM7.04467 52.1817H41.2978V51.1817H7.04467V52.1817ZM7.04467 55.1984H41.2978V54.1984H7.04467V55.1984ZM33.2649 68.2711H63.7229V67.2711H33.2649V68.2711ZM35.8288 0.902344H33.2649V1.90234H35.8288V0.902344ZM35.3288 1.40234V4.20469H36.3288V1.40234H35.3288ZM38.0143 6.88608H58.9735V5.88608H38.0143V6.88608ZM63.7229 0.902344H61.1589V1.90234H63.7229V0.902344ZM61.1589 0.902344H35.8288V1.90234H61.1589V0.902344ZM61.6589 4.20469V1.40234H60.6589V4.20469H61.6589ZM68.783 12.4638V6.38608H67.783V12.4638H68.783ZM29.2048 33.7966V27.7189H28.2048V33.7966H29.2048ZM58.9735 6.88608C60.4557 6.88608 61.6589 5.68645 61.6589 4.20469H60.6589C60.6589 5.13242 59.9052 5.88608 58.9735 5.88608V6.88608ZM66.4083 3.58373C66.4083 2.10197 65.2051 0.902344 63.7229 0.902344V1.90234C64.6546 1.90234 65.4083 2.65599 65.4083 3.58373H66.4083ZM63.7229 68.2711C65.2051 68.2711 66.4083 67.0714 66.4083 65.5897H65.4083C65.4083 66.5174 64.6546 67.2711 63.7229 67.2711V68.2711ZM30.5795 65.5897C30.5795 67.0714 31.7826 68.2711 33.2649 68.2711V67.2711C32.3332 67.2711 31.5795 66.5174 31.5795 65.5897H30.5795ZM35.3288 4.20469C35.3288 5.68645 36.532 6.88608 38.0143 6.88608V5.88608C37.0826 5.88608 36.3288 5.13242 36.3288 4.20469H35.3288ZM31.5795 3.58373C31.5795 2.65599 32.3332 1.90234 33.2649 1.90234V0.902344C31.7826 0.902344 30.5795 2.10197 30.5795 3.58373H31.5795ZM46.8351 15.4806C46.8351 14.6468 47.5124 13.9694 48.35 13.9694V12.9694C46.9619 12.9694 45.8351 14.0928 45.8351 15.4806L46.8351 15.4806ZM94.6925 13.9694C95.53 13.9694 96.2074 14.6468 96.2074 15.4806H97.2074C97.2074 14.0928 96.0805 12.9694 94.6925 12.9694V13.9694ZM96.2074 15.4806V30.5644H97.2074V15.4806H96.2074ZM96.2074 30.5644C96.2074 31.3981 95.53 32.0755 94.6925 32.0755V33.0755C96.0805 33.0755 97.2074 31.9521 97.2074 30.5644H96.2074ZM49.9675 32.0755C49.4712 32.0755 48.9859 32.2222 48.5728 32.497L49.1268 33.3296C49.3757 33.164 49.6682 33.0755 49.9675 33.0755V32.0755ZM48.5728 32.497L47.6243 33.1282L48.1783 33.9607L49.1268 33.3296L48.5728 32.497ZM47.6243 33.1282C47.2857 33.3535 46.8351 33.1101 46.8351 32.7077L45.8351 32.7077C45.8351 33.9117 47.1779 34.6264 48.1783 33.9607L47.6243 33.1282ZM46.8351 32.7077V15.4806H45.8351V32.7077H46.8351ZM53.8909 20.0029H88.6478V19.0029H53.8909V20.0029ZM53.8909 23.0197H88.6478V22.0197H53.8909V23.0197ZM53.8909 26.0364H88.6478V25.0364H53.8909V26.0364ZM45.8351 89.3912C45.8351 90.7789 46.9619 91.9023 48.35 91.9023V90.9023C47.5124 90.9023 46.8351 90.2249 46.8351 89.3912L45.8351 89.3912ZM48.35 91.9023H94.6925V90.9023H48.35V91.9023ZM94.6925 91.9023C96.0805 91.9023 97.2074 90.7789 97.2074 89.3912H96.2074C96.2074 90.2249 95.53 90.9023 94.6925 90.9023V91.9023ZM97.2074 89.3912V74.3074H96.2074V89.3912H97.2074ZM97.2074 74.3074C97.2074 72.9196 96.0805 71.7962 94.6925 71.7962V72.7962C95.53 72.7962 96.2074 73.4736 96.2074 74.3074H97.2074ZM94.6925 71.7962H49.9675V72.7962H94.6925V71.7962ZM49.9675 71.7962C49.6682 71.7962 49.3757 71.7078 49.1268 71.5422L48.5728 72.3747C48.9859 72.6496 49.4712 72.7962 49.9675 72.7962V71.7962ZM49.1268 71.5422L48.1783 70.911L47.6243 71.7435L48.5728 72.3747L49.1268 71.5422ZM48.1783 70.911C47.1779 70.2453 45.8351 70.96 45.8351 72.164L46.8351 72.164C46.8351 71.7617 47.2857 71.5182 47.6243 71.7435L48.1783 70.911ZM45.8351 72.164V89.3912H46.8351V72.164H45.8351ZM53.8909 85.8688H88.6478V84.8688H53.8909V85.8688ZM53.8909 82.8521H88.6478V81.8521H53.8909V82.8521ZM53.8909 79.8353H88.6478V78.8353H53.8909V79.8353ZM30.5795 3.58373V42.6314H31.5795V3.58373H30.5795ZM3.01489 43.1314H31.0795V42.1314H3.01489V43.1314ZM31.0795 43.1314H49.8611V42.1314H31.0795V43.1314ZM30.5795 61.7375V65.5897H31.5795V61.7375H30.5795ZM49.8611 61.2375H31.0795V62.2375H49.8611V61.2375ZM31.0795 61.2375H3.01489V62.2375H31.0795V61.2375ZM51.376 57.2124V59.7264H52.376V57.2124H51.376ZM51.876 57.7124H53.8909V56.7124H51.876V57.7124ZM51.376 48.6649V57.2124H52.376V48.6649H51.376ZM51.876 49.1649H61.4467V48.1649H51.876V49.1649ZM51.376 44.6426V46.6537H52.376V44.6426H51.376ZM51.376 46.6537V48.6649H52.376V46.6537H51.376ZM48.35 13.9694H65.9083V12.9694H48.35V13.9694ZM65.9083 13.9694H94.6925V12.9694H65.9083V13.9694ZM66.4083 13.4694V3.58373H65.4083V13.4694H66.4083ZM66.4083 65.5897V32.5755H65.4083V65.5897H66.4083ZM94.6925 32.0755H65.9083V33.0755H94.6925V32.0755ZM65.9083 32.0755H49.9675V33.0755H65.9083V32.0755Z" fill="#86A4C1"/>
</svg>
