<svg width="100" height="98" viewBox="0 0 100 98" fill="none" xmlns="http://www.w3.org/2000/svg">
<path d="M31.25 83.9023C30.7322 83.9023 30.3125 84.3221 30.3125 84.8398C30.3125 85.3576 30.7322 85.7773 31.25 85.7773H62.1875C62.7053 85.7773 63.125 85.3576 63.125 84.8398C63.125 84.3221 62.7053 83.9023 62.1875 83.9023H31.25Z" fill="white"/>
<path d="M54.6875 15.9336C54.6875 15.4158 55.1072 14.9961 55.625 14.9961H62.1875C62.7053 14.9961 63.125 15.4158 63.125 15.9336V30.465C63.125 30.9827 62.7053 31.4025 62.1875 31.4025H55.625C55.1072 31.4025 54.6875 30.9827 54.6875 30.465V15.9336Z" fill="#FF5C52"/>
<path d="M83.75 39.8399C84.2678 39.8399 84.6875 40.2596 84.6875 40.7773V87.6524H15.3125V51.0899H19.0625V81.7733C19.0625 82.8088 19.902 83.6483 20.9375 83.6483H79.0625C80.098 83.6483 80.9375 82.8088 80.9375 81.7733V46.4024C80.9375 45.3668 80.098 44.5273 79.0625 44.5273H43.4375V39.8399H83.75Z" fill="#FF5C52"/>
<path d="M44.375 71.373V57.0305C44.375 56.2851 45.2028 55.8378 45.8263 56.2463L56.7718 63.4175C57.3368 63.7877 57.3368 64.6157 56.7718 64.9859L45.8263 72.1571C45.2028 72.5656 44.375 72.1183 44.375 71.373Z" fill="#FF5C52"/>
<path d="M11.0938 33.2773C11.0938 32.2418 11.9332 31.4023 12.9687 31.4023H37.3437C38.3793 31.4023 39.2187 32.2418 39.2187 33.2773V43.5899C39.2187 44.6254 38.3793 45.4649 37.3437 45.4649H12.9687C11.9332 45.4649 11.0938 44.6254 11.0938 43.5899V33.2773Z" fill="#FF5C52"/>
<path d="M82.1096 22.6992C81.8334 22.6992 81.6096 22.9231 81.6096 23.1992C81.6096 23.4754 81.8334 23.6992 82.1096 23.6992V22.6992ZM91.4846 23.6992C91.7607 23.6992 91.9846 23.4754 91.9846 23.1992C91.9846 22.9231 91.7607 22.6992 91.4846 22.6992V23.6992ZM81.9082 18.9916C81.6554 19.1028 81.5407 19.3978 81.6519 19.6506C81.7631 19.9033 82.0582 20.0181 82.3109 19.9069L81.9082 18.9916ZM88.1703 17.3287C88.4231 17.2175 88.5378 16.9225 88.4266 16.6697C88.3154 16.417 88.0203 16.3022 87.7676 16.4134L88.1703 17.3287ZM82.3109 26.4916C82.0582 26.3803 81.7631 26.4951 81.6519 26.7478C81.5407 27.0006 81.6554 27.2957 81.9082 27.4069L82.3109 26.4916ZM87.7676 29.985C88.0203 30.0962 88.3154 29.9815 88.4266 29.7287C88.5378 29.4759 88.4231 29.1809 88.1703 29.0697L87.7676 29.985ZM75.2215 6.58897L74.9471 6.17094H74.9471L75.2215 6.58897ZM63.9715 13.9718L64.2458 14.3898L63.9715 13.9718ZM63.9715 32.4262L63.6971 32.8443L63.9715 32.4262ZM75.2215 39.8091L75.4958 39.391L75.2215 39.8091ZM11.5627 8.87109C11.2866 8.87109 11.0627 9.09495 11.0627 9.37109C11.0627 9.64723 11.2866 9.87109 11.5627 9.87109V8.87109ZM38.7502 9.87109C39.0264 9.87109 39.2502 9.64723 39.2502 9.37109C39.2502 9.09495 39.0264 8.87109 38.7502 8.87109V9.87109ZM11.5627 12.6211C11.2866 12.6211 11.0627 12.8449 11.0627 13.1211C11.0627 13.3972 11.2866 13.6211 11.5627 13.6211V12.6211ZM38.7502 13.6211C39.0264 13.6211 39.2502 13.3972 39.2502 13.1211C39.2502 12.8449 39.0264 12.6211 38.7502 12.6211V13.6211ZM11.5627 16.3711C11.2866 16.3711 11.0627 16.5949 11.0627 16.8711C11.0627 17.1472 11.2866 17.3711 11.5627 17.3711V16.3711ZM38.7502 17.3711C39.0264 17.3711 39.2502 17.1472 39.2502 16.8711C39.2502 16.5949 39.0264 16.3711 38.7502 16.3711V17.3711ZM11.5627 20.1211C11.2866 20.1211 11.0627 20.3449 11.0627 20.6211C11.0627 20.8972 11.2866 21.1211 11.5627 21.1211V20.1211ZM38.7502 21.1211C39.0264 21.1211 39.2502 20.8972 39.2502 20.6211C39.2502 20.3449 39.0264 20.1211 38.7502 20.1211V21.1211ZM11.5627 23.8711C11.2866 23.8711 11.0627 24.0949 11.0627 24.3711C11.0627 24.6472 11.2866 24.8711 11.5627 24.8711V23.8711ZM38.7502 24.8711C39.0264 24.8711 39.2502 24.6472 39.2502 24.3711C39.2502 24.0949 39.0264 23.8711 38.7502 23.8711V24.8711ZM5.93772 5.58984C5.66158 5.58984 5.43772 5.8137 5.43772 6.08984C5.43772 6.36598 5.66158 6.58984 5.93772 6.58984V5.58984ZM8.75022 6.58984C9.02636 6.58984 9.25022 6.36598 9.25022 6.08984C9.25022 5.8137 9.02636 5.58984 8.75022 5.58984V6.58984ZM5.93772 11.2148C5.66158 11.2148 5.43772 11.4387 5.43772 11.7148C5.43772 11.991 5.66158 12.2148 5.93772 12.2148V11.2148ZM8.75022 12.2148C9.02636 12.2148 9.25022 11.991 9.25022 11.7148C9.25022 11.4387 9.02636 11.2148 8.75022 11.2148V12.2148ZM5.93772 16.8398C5.66158 16.8398 5.43772 17.0637 5.43772 17.3398C5.43772 17.616 5.66158 17.8398 5.93772 17.8398V16.8398ZM8.75022 17.8398C9.02636 17.8398 9.25022 17.616 9.25022 17.3398C9.25022 17.0637 9.02636 16.8398 8.75022 16.8398V17.8398ZM5.93772 22.4648C5.66158 22.4648 5.43772 22.6887 5.43772 22.9648C5.43772 23.241 5.66158 23.4648 5.93772 23.4648V22.4648ZM8.75022 23.4648C9.02636 23.4648 9.25022 23.241 9.25022 22.9648C9.25022 22.6887 9.02636 22.4648 8.75022 22.4648V23.4648ZM5.93772 28.0898C5.66158 28.0898 5.43772 28.3137 5.43772 28.5898C5.43772 28.866 5.66158 29.0898 5.93772 29.0898V28.0898ZM8.75022 29.0898C9.02636 29.0898 9.25022 28.866 9.25022 28.5898C9.25022 28.3137 9.02636 28.0898 8.75022 28.0898V29.0898ZM5.93772 33.7148C5.66158 33.7148 5.43772 33.9387 5.43772 34.2148C5.43772 34.491 5.66158 34.7148 5.93772 34.7148V33.7148ZM8.75022 34.7148C9.02636 34.7148 9.25022 34.491 9.25022 34.2148C9.25022 33.9387 9.02636 33.7148 8.75022 33.7148V34.7148ZM5.93772 39.3398C5.66158 39.3398 5.43772 39.5637 5.43772 39.8398C5.43772 40.116 5.66158 40.3398 5.93772 40.3398V39.3398ZM8.75022 40.3398C9.02636 40.3398 9.25022 40.116 9.25022 39.8398C9.25022 39.5637 9.02636 39.3398 8.75022 39.3398V40.3398ZM5.93772 44.9648C5.66158 44.9648 5.43772 45.1887 5.43772 45.4648C5.43772 45.741 5.66158 45.9648 5.93772 45.9648V44.9648ZM8.75022 45.9648C9.02636 45.9648 9.25022 45.741 9.25022 45.4648C9.25022 45.1887 9.02636 44.9648 8.75022 44.9648V45.9648ZM78.367 36.0586C78.0909 36.0586 77.867 36.2824 77.867 36.5586C77.867 36.8347 78.0909 37.0586 78.367 37.0586V36.0586ZM82.1096 23.6992H91.4846V22.6992H82.1096V23.6992ZM82.3109 19.9069L88.1703 17.3287L87.7676 16.4134L81.9082 18.9916L82.3109 19.9069ZM81.9082 27.4069L87.7676 29.985L88.1703 29.0697L82.3109 26.4916L81.9082 27.4069ZM87.8407 38.4336V87.6919H88.8407V38.4336H87.8407ZM88.3407 87.1919H11.5627V88.1919H88.3407V87.1919ZM88.3407 88.1919H98.2198V87.1919H88.3407V88.1919ZM98.1885 88.1607V94.9464H99.1885V88.1607H98.1885ZM96.8135 96.3214H3.08985V97.3214H96.8135V96.3214ZM1.71484 94.9464V88.1607H0.714844V94.9464H1.71484ZM1.68359 88.1919H11.5627V87.1919H1.68359V88.1919ZM12.0627 87.6919V51.0898H11.0627V87.6919H12.0627ZM1.71484 88.1607C1.71484 88.1779 1.70086 88.1919 1.68359 88.1919V87.1919C1.14856 87.1919 0.714844 87.6257 0.714844 88.1607H1.71484ZM3.08985 96.3214C2.33045 96.3214 1.71484 95.7058 1.71484 94.9464H0.714844C0.714844 96.2581 1.77817 97.3214 3.08985 97.3214V96.3214ZM98.2198 88.1919C98.2025 88.1919 98.1885 88.1779 98.1885 88.1607H99.1885C99.1885 87.6257 98.7548 87.1919 98.2198 87.1919V88.1919ZM98.1885 94.9464C98.1885 95.7058 97.5729 96.3214 96.8135 96.3214V97.3214C98.1252 97.3214 99.1885 96.2581 99.1885 94.9464H98.1885ZM88.8407 38.4336C88.8407 37.1219 87.7773 36.0586 86.4657 36.0586V37.0586C87.2251 37.0586 87.8407 37.6742 87.8407 38.4336H88.8407ZM74.9471 6.17094L63.6971 13.5538L64.2458 14.3898L75.4958 7.00699L74.9471 6.17094ZM63.6971 13.5538C63.0281 13.9928 62.6252 14.7392 62.6252 15.5394H63.6252C63.6252 15.0761 63.8585 14.644 64.2458 14.3898L63.6971 13.5538ZM62.6252 15.5394V30.8587H63.6252V15.5394H62.6252ZM62.6252 30.8587C62.6252 31.6588 63.0281 32.4052 63.6971 32.8443L64.2458 32.0082C63.8585 31.754 63.6252 31.3219 63.6252 30.8587H62.6252ZM74.9471 40.2271C76.5265 41.2635 78.6252 40.1306 78.6252 38.2415H77.6252C77.6252 39.3352 76.4102 39.9911 75.4958 39.391L74.9471 40.2271ZM78.6252 8.15655C78.6252 6.26744 76.5265 5.13447 74.9471 6.17094L75.4958 7.00699C76.4102 6.40692 77.6252 7.06286 77.6252 8.15655H78.6252ZM8.75022 1.90234H41.5627V0.902344H8.75022V1.90234ZM42.9377 3.27734V49.2148H43.9377V3.27734H42.9377ZM41.5627 50.5898H8.75022V51.5898H41.5627V50.5898ZM7.37522 49.2148V3.27734H6.37522V49.2148H7.37522ZM11.5627 9.87109H38.7502V8.87109H11.5627V9.87109ZM11.5627 13.6211H38.7502V12.6211H11.5627V13.6211ZM11.5627 17.3711H38.7502V16.3711H11.5627V17.3711ZM11.5627 21.1211H38.7502V20.1211H11.5627V21.1211ZM11.5627 24.8711H38.7502V23.8711H11.5627V24.8711ZM8.75022 50.5898C7.99083 50.5898 7.37522 49.9742 7.37522 49.2148H6.37522C6.37522 50.5265 7.43855 51.5898 8.75022 51.5898V50.5898ZM42.9377 49.2148C42.9377 49.9742 42.3221 50.5898 41.5627 50.5898V51.5898C42.8744 51.5898 43.9377 50.5265 43.9377 49.2148H42.9377ZM41.5627 1.90234C42.3221 1.90234 42.9377 2.51795 42.9377 3.27734H43.9377C43.9377 1.96567 42.8744 0.902344 41.5627 0.902344V1.90234ZM8.75022 0.902344C7.43855 0.902344 6.37522 1.96567 6.37522 3.27734H7.37522C7.37522 2.51795 7.99083 1.90234 8.75022 1.90234V0.902344ZM5.93772 6.58984H8.75022V5.58984H5.93772V6.58984ZM5.93772 12.2148H8.75022V11.2148H5.93772V12.2148ZM5.93772 17.8398H8.75022V16.8398H5.93772V17.8398ZM5.93772 23.4648H8.75022V22.4648H5.93772V23.4648ZM5.93772 29.0898H8.75022V28.0898H5.93772V29.0898ZM5.93772 34.7148H8.75022V33.7148H5.93772V34.7148ZM5.93772 40.3398H8.75022V39.3398H5.93772V40.3398ZM5.93772 45.9648H8.75022V44.9648H5.93772V45.9648ZM78.6252 38.2415V8.15655H77.6252V38.2415H78.6252ZM63.6971 32.8443L69.994 36.9766L70.5427 36.1406L64.2458 32.0082L63.6971 32.8443ZM69.994 36.9766L74.9471 40.2271L75.4958 39.391L70.5427 36.1406L69.994 36.9766ZM43.4377 37.0586H70.2684V36.0586H43.4377V37.0586ZM78.367 37.0586H86.4657V36.0586H78.367V37.0586Z" fill="#86A4C1"/>
</svg>
