<svg width="91" height="92" viewBox="0 0 91 92" fill="none" xmlns="http://www.w3.org/2000/svg">
<path d="M43.625 15.4648C43.625 15.741 43.8489 15.9648 44.125 15.9648C44.4011 15.9648 44.625 15.741 44.625 15.4648H43.625ZM44.625 10.7773C44.625 10.5012 44.4011 10.2773 44.125 10.2773C43.8489 10.2773 43.625 10.5012 43.625 10.7773H44.625ZM47.8438 15.4648C47.8438 15.741 48.0676 15.9648 48.3438 15.9648C48.6199 15.9648 48.8438 15.741 48.8438 15.4648H47.8438ZM48.8438 10.7773C48.8438 10.5012 48.6199 10.2773 48.3438 10.2773C48.0676 10.2773 47.8438 10.5012 47.8438 10.7773H48.8438ZM52.0625 15.4648C52.0625 15.741 52.2864 15.9648 52.5625 15.9648C52.8386 15.9648 53.0625 15.741 53.0625 15.4648H52.0625ZM53.0625 10.7773C53.0625 10.5012 52.8386 10.2773 52.5625 10.2773C52.2864 10.2773 52.0625 10.5012 52.0625 10.7773H53.0625ZM56.2812 15.4648C56.2812 15.741 56.5051 15.9648 56.7812 15.9648C57.0574 15.9648 57.2812 15.741 57.2812 15.4648H56.2812ZM57.2812 10.7773C57.2812 10.5012 57.0574 10.2773 56.7812 10.2773C56.5051 10.2773 56.2812 10.5012 56.2812 10.7773H57.2812ZM60.5 15.4648C60.5 15.741 60.7239 15.9648 61 15.9648C61.2761 15.9648 61.5 15.741 61.5 15.4648H60.5ZM61.5 10.7773C61.5 10.5012 61.2761 10.2773 61 10.2773C60.7239 10.2773 60.5 10.5012 60.5 10.7773H61.5ZM64.7188 15.4648C64.7188 15.741 64.9426 15.9648 65.2188 15.9648C65.4949 15.9648 65.7188 15.741 65.7188 15.4648H64.7188ZM65.7188 10.7773C65.7188 10.5012 65.4949 10.2773 65.2188 10.2773C64.9426 10.2773 64.7188 10.5012 64.7188 10.7773H65.7188ZM68.9375 15.4648C68.9375 15.741 69.1614 15.9648 69.4375 15.9648C69.7136 15.9648 69.9375 15.741 69.9375 15.4648H68.9375ZM69.9375 10.7773C69.9375 10.5012 69.7136 10.2773 69.4375 10.2773C69.1614 10.2773 68.9375 10.5012 68.9375 10.7773H69.9375ZM44.125 23.8711C43.8489 23.8711 43.625 24.095 43.625 24.3711C43.625 24.6472 43.8489 24.8711 44.125 24.8711V23.8711ZM69.9062 24.8711C70.1824 24.8711 70.4062 24.6472 70.4062 24.3711C70.4062 24.095 70.1824 23.8711 69.9062 23.8711V24.8711ZM44.125 26.6836C43.8489 26.6836 43.625 26.9075 43.625 27.1836C43.625 27.4597 43.8489 27.6836 44.125 27.6836V26.6836ZM61.9375 27.6836C62.2136 27.6836 62.4375 27.4597 62.4375 27.1836C62.4375 26.9075 62.2136 26.6836 61.9375 26.6836V27.6836ZM44.125 29.4961C43.8489 29.4961 43.625 29.72 43.625 29.9961C43.625 30.2722 43.8489 30.4961 44.125 30.4961V29.4961ZM66.625 30.4961C66.9011 30.4961 67.125 30.2722 67.125 29.9961C67.125 29.72 66.9011 29.4961 66.625 29.4961V30.4961ZM44.125 32.3086C43.8489 32.3086 43.625 32.5325 43.625 32.8086C43.625 33.0847 43.8489 33.3086 44.125 33.3086V32.3086ZM69.9062 33.3086C70.1824 33.3086 70.4062 33.0847 70.4062 32.8086C70.4062 32.5325 70.1824 32.3086 69.9062 32.3086V33.3086ZM44.125 35.1211C43.8489 35.1211 43.625 35.345 43.625 35.6211C43.625 35.8972 43.8489 36.1211 44.125 36.1211V35.1211ZM61.9375 36.1211C62.2136 36.1211 62.4375 35.8972 62.4375 35.6211C62.4375 35.345 62.2136 35.1211 61.9375 35.1211V36.1211ZM44.125 37.9336C43.8489 37.9336 43.625 38.1575 43.625 38.4336C43.625 38.7097 43.8489 38.9336 44.125 38.9336V37.9336ZM66.625 38.9336C66.9011 38.9336 67.125 38.7097 67.125 38.4336C67.125 38.1575 66.9011 37.9336 66.625 37.9336V38.9336ZM13.1863 32.6529L13.4938 33.0472C13.5092 33.0351 13.5239 33.0222 13.5377 33.0085L13.1863 32.6529ZM30.995 15.0502L31.3506 14.6987V14.6987L30.995 15.0502ZM31.4979 15.559L31.1423 15.9105L31.4979 15.559ZM31.4861 17.5825L31.1346 17.2269L31.4861 17.5825ZM26.0464 22.2563C25.85 22.4504 25.8482 22.767 26.0423 22.9634C26.2364 23.1598 26.553 23.1616 26.7494 22.9675L26.0464 22.2563ZM29.9891 14.0326L29.6335 14.3841H29.6335L29.9891 14.0326ZM27.9656 14.0208L27.6141 13.6652L27.9656 14.0208ZM11.1745 30.6176L10.823 30.262C10.8091 30.2758 10.7961 30.2903 10.7839 30.3055L11.1745 30.6176ZM7.3263 35.4342L7.71693 35.7463L7.3263 35.4342ZM8.32528 36.4448L8.01774 36.0506L8.32528 36.4448ZM38 47.0997C38 47.3758 38.2239 47.5997 38.5 47.5997C38.7761 47.5997 39 47.3758 39 47.0997H38ZM70.9196 52.4961V51.9961C70.6435 51.9961 70.4196 52.22 70.4196 52.4961H70.9196ZM8.32528 47.5997C8.60142 47.5997 8.82528 47.3758 8.82528 47.0997C8.82528 46.8235 8.60142 46.5997 8.32528 46.5997V47.5997ZM65.2188 46.5997C64.9426 46.5997 64.7188 46.8235 64.7188 47.0997C64.7188 47.3758 64.9426 47.5997 65.2188 47.5997V46.5997ZM75.5625 50.6211V14.9961H74.5625V50.6211H75.5625ZM73.1875 12.6211H69.4375V13.6211H73.1875V12.6211ZM69.4375 12.6211H65.2188V13.6211H69.4375V12.6211ZM65.2188 12.6211H61V13.6211H65.2188V12.6211ZM61 12.6211H56.7812V13.6211H61V12.6211ZM56.7812 12.6211H52.5625V13.6211H56.7812V12.6211ZM52.5625 12.6211H48.3438V13.6211H52.5625V12.6211ZM48.3438 12.6211H44.125V13.6211H48.3438V12.6211ZM44.125 12.6211H40.375V13.6211H44.125V12.6211ZM75.5625 14.9961C75.5625 13.6844 74.4992 12.6211 73.1875 12.6211V13.6211C73.9469 13.6211 74.5625 14.2367 74.5625 14.9961H75.5625ZM73.1875 52.9961C74.4992 52.9961 75.5625 51.9328 75.5625 50.6211H74.5625C74.5625 51.3805 73.9469 51.9961 73.1875 51.9961V52.9961ZM39 14.9961C39 14.2367 39.6156 13.6211 40.375 13.6211V12.6211C39.0633 12.6211 38 13.6844 38 14.9961H39ZM44.625 15.4648V13.1211H43.625V15.4648H44.625ZM44.625 13.1211V10.7773H43.625V13.1211H44.625ZM48.8438 15.4648V13.1211H47.8438V15.4648H48.8438ZM48.8438 13.1211V10.7773H47.8438V13.1211H48.8438ZM53.0625 15.4648V13.1211H52.0625V15.4648H53.0625ZM53.0625 13.1211V10.7773H52.0625V13.1211H53.0625ZM57.2812 15.4648V13.1211H56.2812V15.4648H57.2812ZM57.2812 13.1211V10.7773H56.2812V13.1211H57.2812ZM61.5 15.4648V13.1211H60.5V15.4648H61.5ZM61.5 13.1211V10.7773H60.5V13.1211H61.5ZM65.7188 15.4648V13.1211H64.7188V15.4648H65.7188ZM65.7188 13.1211V10.7773H64.7188V13.1211H65.7188ZM69.9375 15.4648V13.1211H68.9375V15.4648H69.9375ZM69.9375 13.1211V10.7773H68.9375V13.1211H69.9375ZM44.125 24.8711H69.9062V23.8711H44.125V24.8711ZM44.125 27.6836H61.9375V26.6836H44.125V27.6836ZM44.125 30.4961H66.625V29.4961H44.125V30.4961ZM44.125 33.3086H69.9062V32.3086H44.125V33.3086ZM44.125 36.1211H61.9375V35.1211H44.125V36.1211ZM44.125 38.9336H66.625V37.9336H44.125V38.9336ZM3.74583 46.5997C2.21209 46.5997 0.96875 47.843 0.96875 49.3768H1.96875C1.96875 48.3953 2.76438 47.5997 3.74583 47.5997V46.5997ZM0.96875 49.3768V86.9486H1.96875V49.3768H0.96875ZM0.96875 86.9486C0.96875 88.4823 2.21209 89.7256 3.74583 89.7256V88.7256C2.76438 88.7256 1.96875 87.93 1.96875 86.9486H0.96875ZM3.74583 89.7256H31.9247V88.7256H3.74583V89.7256ZM31.9247 89.7256C32.1201 89.7256 32.2786 89.8841 32.2786 90.0796H33.2786C33.2786 89.3318 32.6724 88.7256 31.9247 88.7256V89.7256ZM32.2786 90.0796C32.2786 90.8273 32.8847 91.4335 33.6325 91.4335V90.4335C33.437 90.4335 33.2786 90.275 33.2786 90.0796H32.2786ZM33.6325 91.4335H38.7559V90.4335H33.6325V91.4335ZM38.7559 91.4335C39.5037 91.4335 40.1098 90.8273 40.1098 90.0796H39.1098C39.1098 90.275 38.9514 90.4335 38.7559 90.4335V91.4335ZM40.1098 90.0796C40.1098 89.8841 40.2683 89.7256 40.4637 89.7256V88.7256C39.716 88.7256 39.1098 89.3318 39.1098 90.0796H40.1098ZM40.4637 89.7256H68.6426V88.7256H40.4637V89.7256ZM68.6426 89.7256C70.1763 89.7256 71.4196 88.4823 71.4196 86.9486H70.4196C70.4196 87.93 69.624 88.7256 68.6426 88.7256V89.7256ZM13.5377 33.0085L31.3465 15.4058L30.6435 14.6946L12.8348 32.2973L13.5377 33.0085ZM30.6394 15.4017L31.1423 15.9105L31.8535 15.2075L31.3506 14.6987L30.6394 15.4017ZM31.1346 17.2269L26.0464 22.2563L26.7494 22.9675L31.8376 17.9381L31.1346 17.2269ZM31.3506 14.6987L30.3447 13.6811L29.6335 14.3841L30.6394 15.4017L31.3506 14.6987ZM27.6141 13.6652L10.823 30.262L11.526 30.9732L28.3171 14.3764L27.6141 13.6652ZM10.7839 30.3055L6.93567 35.1221L7.71693 35.7463L11.5651 30.9297L10.7839 30.3055ZM12.8787 32.2587L8.01774 36.0506L8.63281 36.8391L13.4938 33.0472L12.8787 32.2587ZM10.8189 30.9691L12.8307 33.0044L13.5419 32.3014L11.5301 30.2661L10.8189 30.9691ZM6.93567 35.1221C6.03614 36.2479 7.49654 37.7254 8.63281 36.8391L8.01774 36.0506C7.95112 36.1026 7.90163 36.1071 7.86788 36.1033C7.826 36.0986 7.7756 36.0763 7.73202 36.0322C7.68844 35.9881 7.66667 35.9374 7.6625 35.8955C7.65913 35.8617 7.66419 35.8123 7.71693 35.7463L6.93567 35.1221ZM30.3447 13.6811C29.5951 12.9227 28.3725 12.9155 27.6141 13.6652L28.3171 14.3764C28.6827 14.015 29.2721 14.0184 29.6335 14.3841L30.3447 13.6811ZM31.1423 15.9105C31.5037 16.2762 31.5003 16.8655 31.1346 17.2269L31.8376 17.9381C32.596 17.1885 32.6032 15.966 31.8535 15.2075L31.1423 15.9105ZM38 14.9961V47.0997H39V14.9961H38ZM71.4196 86.9486V52.4961H70.4196V86.9486H71.4196ZM70.9196 52.9961H73.1875V51.9961H70.9196V52.9961ZM68.6426 47.5997C69.624 47.5997 70.4196 48.3953 70.4196 49.3768H71.4196C71.4196 47.843 70.1763 46.5997 68.6426 46.5997V47.5997ZM70.4196 49.3768V86.9486H71.4196V49.3768H70.4196ZM3.74583 47.5997H8.32528V46.5997H3.74583V47.5997ZM68.6426 46.5997H65.2188V47.5997H68.6426V46.5997Z" fill="#86A4C1"/>
<path d="M6.41133 38.067C5.63008 39.1608 4.81758 41.2545 7.81758 40.8795C11.5676 40.4108 26.5676 27.7545 32.6613 32.442C38.7551 37.1295 32.1926 42.2855 32.1926 42.2855" stroke="#EAF5FF" stroke-linecap="round" stroke-linejoin="round"/>
<path d="M4.3125 46.1934C4.3125 45.3765 4.84301 44.6512 5.62447 44.4133C17.0523 40.9344 23.9441 40.9605 35.7273 44.8216V86.9475C24.2836 82.6684 17.4582 82.1511 6.907 85.9564C5.65813 86.4069 4.3125 85.5016 4.3125 84.174V46.1934Z" fill="#FFD02C"/>
<path d="M36.6583 44.8216C48.2643 40.7552 55.1458 40.7446 66.7753 44.4053C67.5485 44.6487 68.0707 45.3697 68.0707 46.1803V84.4082C68.0707 85.6699 66.8475 86.5696 65.6324 86.2301C54.8654 83.2222 48.0521 83.6088 36.6583 86.9475V44.8216Z" fill="#FFD02C"/>
<path d="M81.3139 41.7135C76.2247 41.7135 72.0992 37.5976 72.0992 32.5204C72.0992 28.9223 74.1712 25.8069 77.1899 24.2972C77.7688 24.0077 78.0994 23.441 78.0994 22.7937V20.9805L84.5283 20.9805V22.7937C84.5283 23.441 84.8589 24.0077 85.4378 24.2972C88.4565 25.8069 90.5285 28.9223 90.5285 32.5204C90.5285 37.5976 86.403 41.7135 81.3139 41.7135Z" fill="#FFD02C"/>
<path d="M78.0924 20.7823H77.5924C77.5924 21.0585 77.8163 21.2823 78.0924 21.2823V20.7823ZM78.0924 17.4036H78.5924H78.0924ZM78.9858 16.5103V16.0103V16.5103ZM79.1601 16.5103V17.0103V16.5103ZM79.8603 15.9346L79.3698 15.8379V15.8379L79.8603 15.9346ZM79.8959 15.7543L80.3864 15.8509V15.8509L79.8959 15.7543ZM84.5212 20.7823V21.2823C84.7974 21.2823 85.0212 21.0585 85.0212 20.7823H84.5212ZM84.5212 17.4036H85.0212H84.5212ZM83.6279 16.5103V17.0103V16.5103ZM83.3438 16.5103V16.0103V16.5103ZM82.6436 15.9346L82.1531 16.0312L82.1531 16.0312L82.6436 15.9346ZM82.6081 15.7543L83.0987 15.6576V15.6576L82.6081 15.7543ZM77.1396 31.9074L76.6566 31.7782V31.7782L77.1396 31.9074ZM85.3784 31.9024L85.8614 31.7732V31.7732L85.3784 31.9024ZM77.2796 32.6708L77.6853 32.3786L77.2796 32.6708ZM77.6596 33.1985L77.2538 33.4907L77.6596 33.1985ZM78.4967 33.1469L78.9352 33.3871L78.9352 33.3871L78.4967 33.1469ZM78.5485 33.0523L78.1099 32.8122V32.8122L78.5485 33.0523ZM83.1687 33.0745L82.7216 32.8508L82.7215 32.8509L83.1687 33.0745ZM83.1778 33.0564L83.625 33.28L83.625 33.28L83.1778 33.0564ZM83.9571 33.0441L84.3971 32.8065L84.3971 32.8065L83.9571 33.0441ZM84.0104 33.1428L83.5704 33.3803L83.5704 33.3804L84.0104 33.1428ZM84.8499 33.1998L84.4461 32.9049V32.9049L84.8499 33.1998ZM85.2344 32.6733L85.6382 32.9682L85.2344 32.6733ZM81.6366 33.078L81.1907 32.8519L81.6366 33.078ZM82.4025 33.0767L82.8484 32.8506V32.8506L82.4025 33.0767ZM79.3285 33.072L79.7744 32.8458V32.8458L79.3285 33.072ZM81.6846 1.40234C81.6846 1.1262 81.4607 0.902344 81.1846 0.902344C80.9085 0.902344 80.6846 1.1262 80.6846 1.40234H81.6846ZM42.1232 55.7324C41.8561 55.8024 41.6963 56.0757 41.7663 56.3428C41.8362 56.6099 42.1095 56.7697 42.3767 56.6997L42.1232 55.7324ZM62.0415 56.7011C62.3093 56.7682 62.5809 56.6055 62.648 56.3376C62.7152 56.0698 62.5525 55.7982 62.2846 55.7311L62.0415 56.7011ZM29.2239 56.6997C29.491 56.7697 29.7643 56.6099 29.8343 56.3428C29.9043 56.0757 29.7445 55.8024 29.4773 55.7324L29.2239 56.6997ZM9.31594 55.7311C9.04808 55.7982 8.88537 56.0698 8.9525 56.3376C9.01964 56.6055 9.29121 56.7682 9.55906 56.7011L9.31594 55.7311ZM78.9858 17.0103H79.1601V16.0103H78.9858V17.0103ZM80.3509 16.0312L80.3864 15.8509L79.4053 15.6576L79.3698 15.8379L80.3509 16.0312ZM83.6279 16.0103H83.3438V17.0103H83.6279V16.0103ZM83.1342 15.8379L83.0987 15.6576L82.1176 15.8509L82.1531 16.0312L83.1342 15.8379ZM84.5212 20.2823H82.4038V21.2823H84.5212V20.2823ZM82.4038 20.2823H80.1155V21.2823H82.4038V20.2823ZM80.1155 20.2823H78.0924V21.2823H80.1155V20.2823ZM79.6325 20.6531L76.6566 31.7782L77.6226 32.0366L80.5985 20.9115L79.6325 20.6531ZM81.9208 20.9115L84.8954 32.0316L85.8614 31.7732L82.8868 20.6531L81.9208 20.9115ZM76.8738 32.963L77.2538 33.4907L78.0653 32.9063L77.6853 32.3786L76.8738 32.963ZM78.9352 33.3871L78.987 33.2925L78.1099 32.8122L78.0581 32.9068L78.9352 33.3871ZM83.6159 33.2982L83.625 33.28L82.7306 32.8327L82.7216 32.8508L83.6159 33.2982ZM83.5171 33.2816L83.5704 33.3803L84.4504 32.9052L84.3971 32.8065L83.5171 33.2816ZM85.2537 33.4947L85.6382 32.9682L84.8306 32.3785L84.4461 32.9049L85.2537 33.4947ZM82.0826 33.3042C82.0783 33.3127 82.0685 33.3243 82.0543 33.3327C82.0418 33.34 82.0301 33.3424 82.0206 33.3424C82.0112 33.3425 81.9991 33.3401 81.986 33.3325C81.9711 33.3238 81.961 33.3117 81.9565 33.3029L82.8484 32.8506C82.5029 32.1693 81.5333 32.1764 81.1907 32.8519L82.0826 33.3042ZM80.5461 33.3055C80.5419 33.3138 80.5323 33.3254 80.5179 33.3339C80.5053 33.3413 80.4935 33.3436 80.4841 33.3436C80.4747 33.3436 80.4629 33.3413 80.4503 33.3339C80.4359 33.3254 80.4263 33.3138 80.4221 33.3055L81.314 32.8532C80.9694 32.1737 79.9988 32.1737 79.6542 32.8532L80.5461 33.3055ZM78.8826 33.2981C79.2191 33.9616 80.1934 34.001 80.5461 33.3055L79.6542 32.8532C79.6592 32.8433 79.6704 32.8303 79.6861 32.8212C79.7 32.8133 79.7121 32.8114 79.7204 32.8115C79.7287 32.8116 79.7385 32.8137 79.7492 32.82C79.7614 32.8273 79.7703 32.8377 79.7744 32.8458L78.8826 33.2981ZM78.987 33.2925C78.9824 33.3009 78.9723 33.3122 78.9581 33.3199C78.9457 33.3266 78.9353 33.328 78.9284 33.3278C78.9216 33.3276 78.9133 33.3258 78.9042 33.3203C78.8936 33.3138 78.8859 33.3048 78.8826 33.2981L79.7744 32.8458C79.4405 32.1874 78.4807 32.1352 78.1099 32.8122L78.987 33.2925ZM84.8954 32.0316C84.9274 32.1511 84.9035 32.2786 84.8306 32.3785L85.6382 32.9682C85.8895 32.6241 85.9715 32.1848 85.8614 31.7732L84.8954 32.0316ZM76.6566 31.7782C76.5475 32.1858 76.6273 32.6207 76.8738 32.963L77.6853 32.3786C77.6142 32.2798 77.5911 32.1543 77.6226 32.0366L76.6566 31.7782ZM83.0987 15.6576C83.013 15.2225 82.7663 14.7997 82.4479 14.4845C82.1318 14.1717 81.6887 13.9114 81.1846 13.9114V14.9114C81.3409 14.9114 81.5457 14.9985 81.7444 15.1952C81.9407 15.3895 82.0756 15.6381 82.1176 15.8509L83.0987 15.6576ZM83.3438 16.0103C83.2418 16.0103 83.1539 15.9381 83.1342 15.8379L82.1531 16.0312C82.2651 16.6001 82.764 17.0103 83.3438 17.0103V16.0103ZM77.2538 33.4907C77.6818 34.085 78.5834 34.0295 78.9352 33.3871L78.0581 32.9068C78.0572 32.9084 78.057 32.9083 78.0579 32.9075C78.0586 32.9067 78.0596 32.9059 78.0606 32.9053C78.0624 32.9042 78.0627 32.9045 78.0616 32.9046C78.0605 32.9046 78.0608 32.9043 78.0627 32.9051C78.0637 32.9056 78.0648 32.9063 78.0657 32.907C78.0666 32.9077 78.0664 32.9078 78.0653 32.9063L77.2538 33.4907ZM85.0212 17.4036C85.0212 16.6341 84.3974 16.0103 83.6279 16.0103V17.0103C83.8451 17.0103 84.0212 17.1864 84.0212 17.4036H85.0212ZM83.5704 33.3804C83.9189 34.0257 84.8212 34.0869 85.2537 33.4947L84.4461 32.9049C84.4449 32.9066 84.4446 32.9066 84.4455 32.9059C84.4462 32.9053 84.4472 32.9047 84.4481 32.9043C84.4497 32.9036 84.4497 32.904 84.4483 32.9039C84.4469 32.9038 84.447 32.9034 84.4485 32.9044C84.4494 32.9049 84.4502 32.9056 84.4509 32.9063C84.4516 32.9071 84.4513 32.907 84.4503 32.9052L83.5704 33.3804ZM80.3864 15.8509C80.4344 15.6073 80.5547 15.3537 80.7162 15.1698C80.8774 14.9862 81.0411 14.9114 81.1846 14.9114V13.9114C80.6677 13.9114 80.2509 14.1841 79.9647 14.5099C79.6788 14.8355 79.4849 15.2533 79.4053 15.6576L80.3864 15.8509ZM83.625 33.28C83.6217 33.2867 83.6133 33.2971 83.6007 33.3047C83.5897 33.3113 83.5795 33.3135 83.5716 33.3136C83.5637 33.3137 83.5535 33.3119 83.5423 33.3056C83.5294 33.2984 83.5207 33.2883 83.5172 33.2817L84.3971 32.8065C84.0358 32.1375 83.0707 32.1526 82.7306 32.8328L83.625 33.28ZM79.1601 17.0103C79.74 17.0103 80.2388 16.6001 80.3509 16.0312L79.3698 15.8379C79.35 15.9381 79.2622 16.0103 79.1601 16.0103V17.0103ZM81.9565 33.3029C82.3017 33.9834 83.2747 33.9806 83.616 33.2981L82.7215 32.8509C82.7258 32.8424 82.7356 32.8304 82.7502 32.8218C82.7631 32.8141 82.7752 32.8117 82.7849 32.8117C82.7945 32.8116 82.8066 32.814 82.8195 32.8216C82.8342 32.8301 82.8441 32.8421 82.8484 32.8506L81.9565 33.3029ZM78.5924 17.4036C78.5924 17.1864 78.7685 17.0103 78.9858 17.0103V16.0103C78.2162 16.0103 77.5924 16.6341 77.5924 17.4036H78.5924ZM80.4221 33.3055C80.7682 33.9879 81.7394 33.9808 82.0826 33.3042L81.1907 32.8519C81.1948 32.8437 81.2044 32.8322 81.2183 32.824C81.2306 32.8168 81.242 32.8145 81.2512 32.8145C81.2604 32.8145 81.2723 32.8167 81.2851 32.8243C81.2997 32.8328 81.3097 32.8447 81.314 32.8532L80.4221 33.3055ZM78.5924 20.7823V17.4036H77.5924V20.7823H78.5924ZM85.0212 20.7823V17.4036H84.0212V20.7823H85.0212ZM42.3767 56.6997C49.3691 54.8677 54.8865 54.9077 62.0415 56.7011L62.2846 55.7311C54.9759 53.8992 49.2875 53.8553 42.1232 55.7324L42.3767 56.6997ZM29.4773 55.7324C22.3131 53.8553 16.6246 53.8992 9.31594 55.7311L9.55906 56.7011C16.7141 54.9077 22.2314 54.8677 29.2239 56.6997L29.4773 55.7324ZM81.6846 14.4114V1.40234H80.6846V14.4114H81.6846Z" fill="#86A4C1"/>
<path d="M42.2499 60.9026C49.3283 59.048 54.9312 59.09 62.1631 60.9026M29.3506 60.9026C22.2722 59.048 16.6693 59.09 9.4375 60.9026M42.2499 63.7151C49.3283 61.8605 54.9312 61.9025 62.1631 63.7151M29.3506 63.7151C22.2722 61.8605 16.6693 61.9025 9.4375 63.7151M42.2499 66.5276C49.3283 64.673 54.9312 64.715 62.1631 66.5276M29.3506 66.5276C22.2722 64.673 16.6693 64.715 9.4375 66.5276M42.2499 69.3401C49.3283 67.4855 54.9312 67.5275 62.1631 69.3401M29.3506 69.3401C22.2722 67.4855 16.6693 67.5275 9.4375 69.3401" stroke="white" stroke-linecap="round" stroke-linejoin="round"/>
</svg>
