<svg width="157" height="38" viewBox="0 0 157 38" fill="none" xmlns="http://www.w3.org/2000/svg"><g clip-path="url(#clip0)"><path fill-rule="evenodd" clip-rule="evenodd" d="M14.8 30l.5.2 7.7-4.4v-7.2a4.5 4.5 0 112.4 0v8.6l-9 5.2c.1.2.1.5 0 .8l2.5 1.4 13.5-7.8V11L18.9 3.3 5.4 11.1v15.7l4.6 2.7c-.5.5-.8 1.2-1 1.9L3 28V10L19 .8l15.7 9V28L19 37.1l-3.5-2a3 3 0 11-3-5.2v-8a4.6 4.6 0 112.4-.2V30zm9.4-18a2.2 2.2 0 110 4.4c-1.2 0-2.2-1-2.2-2.2 0-1.2 1-2.2 2.2-2.2zm-10.8 3.2a2.2 2.2 0 110 4.4 2.2 2.2 0 010-4.4zm0 16a1.4 1.4 0 110 3 1.4 1.4 0 010-3z" fill="#DB3A35"/></g><path d="M52 22.4c0-.2-.1-.5-.3-.7 0-.2-.2-.4-.5-.6l-.8-.4-1-.4-1.4-.5-1.2-.8a2.8 2.8 0 01-1.2-2.4c0-.5 0-1 .3-1.4.2-.4.5-.8 1-1 .3-.3.7-.6 1.2-.7a5.3 5.3 0 013.2 0c.6.2 1 .5 1.4.8a3.5 3.5 0 011.2 2.7h-2c0-.3 0-.6-.2-.9a1.8 1.8 0 00-1-1c-.3-.2-.7-.2-1-.2l-.8.1a2 2 0 00-.7.3l-.4.6-.2.7c0 .3 0 .5.2.8l.6.5.8.4 1 .3c.4.2 1 .3 1.4.6.5.2.9.5 1.2.8a3 3 0 011.1 2.5 2.9 2.9 0 01-1.2 2.4c-.4.3-.8.5-1.3.6a6 6 0 01-3.8-.2l-1-.5a3.6 3.6 0 01-1.5-2.8h2.1l.3.9a2 2 0 001.3 1 3.5 3.5 0 001.8.1c.3 0 .5-.2.7-.3l.5-.5.1-.8zM58.2 21.6l-1.1 1v3h-2V12.8h2v7.5l.8-1 2.7-2.8H63l-3.5 3.8 4 5.3H61l-2.8-4zM65 16.5h4.7V24h2.7v1.7H65v-1.7h2.8v-5.7H65v-1.7zm2.6-2.3c0-.3 0-.6.3-.8.2-.2.4-.3.8-.3s.7.1.9.3c.2.2.3.5.3.8 0 .3-.1.6-.3.8-.2.2-.5.3-.9.3s-.6-.1-.8-.3a1 1 0 01-.3-.8zM74.3 12.8H79v11.1H82v1.7h-7.6v-1.7H77v-9.5h-2.8v-1.6zM83.7 12.8h4.9v11.1h2.7v1.7h-7.6v-1.7h2.8v-9.5h-2.8v-1.6zM100.2 21h-6.7v-1.6h6.7V21zM102 25.6V13.4h4a7 7 0 011.6.2c.5.1 1 .3 1.3.6a2.8 2.8 0 011.2 2.5c0 .6-.1 1.1-.5 1.6-.3.4-.7.7-1.3 1a3 3 0 011.6 1l.4.8.1 1c0 .5 0 1-.3 1.5a3 3 0 01-.9 1 4 4 0 01-1.3.7 6 6 0 01-1.7.3h-4.1zm2-5.5v3.8h2.3l.8-.1.7-.4c.2-.2.4-.3.5-.6l.1-.8-.1-.8a1.6 1.6 0 00-1-1l-1-.1h-2.2zm0-1.6h2.8l.7-.4c.2-.2.4-.3.5-.6l.1-.7-.1-.8-.5-.5c-.2-.2-.4-.3-.7-.3l-.8-.1h-2v3.4zM117.7 16.4a7 7 0 011.7.2l-.3 2c-.6-.2-1.2-.2-1.8-.2-.7 0-1.2 0-1.6.4-.4.2-.7.6-1 1.1v5.7h-2v-9h2V18c.4-.5.9-1 1.4-1.2.5-.3 1-.4 1.6-.4zM126.7 25.6a2 2 0 01-.1-.4l-.1-.5a3.5 3.5 0 01-1 .7 3.6 3.6 0 01-1.6.3c-.4 0-.9 0-1.3-.2l-1-.5a2.6 2.6 0 01-.8-2c0-1 .3-1.7 1-2.2.8-.5 1.8-.7 3.2-.7h1.4v-.6c0-.5-.1-.9-.5-1.2a2 2 0 00-1.3-.4l-.7.1c-.2 0-.4.2-.5.3a1 1 0 00-.4.8h-2c0-.3 0-.7.2-1l.7-.9 1.2-.6a5.3 5.3 0 013 0c.5.1 1 .3 1.2.6.4.2.6.5.8 1 .2.3.3.8.3 1.3v4l.1 1c0 .4.1.7.3 1h-2zm-2.4-1.5a2.7 2.7 0 001.3-.3 2 2 0 00.8-.8v-1.7h-1.2c-.9 0-1.5.2-1.9.4-.3.3-.5.7-.5 1.1v.6l.3.4.5.2.7.1zM132.2 16.5v1.3c.4-.5.8-.8 1.3-1 .4-.3 1-.4 1.5-.4s1 0 1.3.2c.4.1.7.3 1 .6.3.3.5.7.6 1.1.2.5.3 1 .3 1.6v5.7h-2V20c0-.4 0-.7-.2-1l-.3-.6-.6-.3h-.8c-.4 0-.8 0-1.1.2-.4.2-.6.5-.8.8v6.5h-2v-9h1.8zM143.7 24.2a2.2 2.2 0 001.4-.5l.4-.5.1-.6h2c0 .4-.2.8-.4 1.2l-.8 1a4 4 0 01-2.7 1c-.7 0-1.3-.2-1.8-.4-.5-.3-1-.6-1.3-1l-.8-1.4c-.2-.6-.2-1.2-.2-1.8V21c0-.6 0-1.2.2-1.7.2-.6.5-1 .8-1.5l1.3-1c.5-.2 1.1-.3 1.8-.3.6 0 1 0 1.5.2s1 .4 1.2.7c.4.3.6.7.8 1.1.2.4.3.9.3 1.4h-1.9l-.1-.7-.4-.6a2 2 0 00-1.4-.5 2 2 0 00-1 .2 2 2 0 00-.7.7 3 3 0 00-.4 1v2.3c.1.4.2.8.4 1l.7.7c.3.2.6.3 1 .3zM151.2 17.8c.3-.5.7-.8 1.1-1a3 3 0 011.5-.4c.5 0 1 0 1.3.2.4.1.7.3 1 .6.3.3.5.7.7 1.2l.2 1.6v5.6h-2V20l-.1-.9c-.1-.2-.2-.5-.4-.6l-.6-.4h-.7a2.4 2.4 0 00-2 1v6.5h-2V12.8h2v5z" fill="#010101"/><defs><clipPath id="clip0"><path fill="#fff" d="M0 0h37.8v37.8H0z"/></clipPath></defs></svg>