<svg width="13" height="12" viewBox="0 0 13 12" fill="none" xmlns="http://www.w3.org/2000/svg">
<path d="M10.8502 6.44498C10.819 6.42923 10.7877 6.42137 10.7562 6.42137C10.6884 6.42137 10.6286 6.44741 10.5765 6.4996L10.0762 6.99986C10.0294 7.04681 10.0059 7.10406 10.0059 7.17189V9.15728C10.0059 9.50131 9.88373 9.79562 9.63862 10.0407C9.39371 10.2856 9.09921 10.4081 8.75523 10.4081H2.25134C1.90734 10.4081 1.61287 10.2856 1.36796 10.0407C1.12299 9.79565 1.00057 9.50134 1.00057 9.15728V2.65355C1.00057 2.3096 1.12299 2.01516 1.36796 1.77016C1.61287 1.52522 1.90734 1.40278 2.25134 1.40278H8.75529C8.86995 1.40278 8.9872 1.41841 9.10704 1.44971C9.13833 1.46006 9.16177 1.46534 9.17721 1.46534C9.24506 1.46534 9.30502 1.43936 9.3571 1.38725L9.74014 1.00421C9.80262 0.941755 9.82617 0.866132 9.8104 0.777612C9.79477 0.694213 9.74781 0.634251 9.66964 0.597809C9.38839 0.4677 9.08338 0.402344 8.75507 0.402344H2.25134C1.63119 0.402344 1.10089 0.622533 0.660514 1.06291C0.22019 1.50334 0 2.03356 0 2.65374V9.15764C0 9.77771 0.22019 10.308 0.660541 10.7484C1.10092 11.1888 1.63122 11.409 2.25137 11.409H8.75523C9.37531 11.409 9.90565 11.1888 10.346 10.7484C10.7864 10.308 11.0068 9.77774 11.0068 9.15764V6.67163C11.0068 6.56227 10.9544 6.48676 10.8502 6.44498Z" fill="#00CECB"/>
<path d="M12.8134 1.95824L11.9534 1.09826C11.8283 0.973217 11.6797 0.910682 11.5077 0.910682C11.3359 0.910682 11.1871 0.973217 11.0622 1.09826L6.00439 6.15601L3.9486 4.10008C3.8235 3.97496 3.67493 3.9125 3.50301 3.9125C3.33107 3.9125 3.18256 3.97496 3.05743 4.10008L2.19757 4.95995C2.07249 5.08502 2.0099 5.23358 2.0099 5.40561C2.0099 5.57756 2.07249 5.72607 2.19757 5.85119L5.55892 9.21254C5.68402 9.33769 5.83258 9.40012 6.0045 9.40012C6.17642 9.40012 6.32496 9.33772 6.45008 9.21254L12.8133 2.84937C12.9383 2.72433 13.001 2.57574 13.001 2.40379C13.001 2.23184 12.9384 2.08328 12.8134 1.95824Z" fill="#00CECB"/>
</svg>
