<svg width="156" height="181" viewBox="0 0 156 181" fill="none" xmlns="http://www.w3.org/2000/svg">
<path d="M26.5889 29.1995C26.5889 13.2953 39.4982 0.402344 55.4227 0.402344H59.5094C75.4339 0.402344 88.3432 13.2953 88.3432 29.1995C88.3432 45.1038 75.4339 57.9967 59.5094 57.9967H55.4227C39.4982 57.9967 26.5889 45.1038 26.5889 29.1995Z" fill="white"/>
<path d="M27.0841 58.8468C27.0711 58.8506 27.0657 58.8517 27.052 58.8542C26.4719 58.9591 25.7764 58.2569 25.8965 57.681C25.8976 57.6755 25.8973 57.6763 25.8987 57.671C25.9422 57.4987 29.121 44.8877 27.9856 38.3233C26.8423 31.7138 53.8721 58.0659 46.2809 56.7562C38.828 55.4704 27.4947 58.7276 27.0841 58.8468Z" fill="white"/>
<path d="M49.4956 30.5596C49.4956 33.1894 47.4626 35.3213 44.9548 35.3213C42.447 35.3213 40.4141 33.1894 40.4141 30.5596C40.4141 27.9298 42.447 25.7979 44.9548 25.7979C47.4626 25.7979 49.4956 27.9298 49.4956 30.5596Z" fill="#86A4C1"/>
<path d="M61.7556 30.5596C61.7556 33.1894 59.621 35.3213 56.9878 35.3213C54.3546 35.3213 52.22 33.1894 52.22 30.5596C52.22 27.9298 54.3546 25.7979 56.9878 25.7979C59.621 25.7979 61.7556 27.9298 61.7556 30.5596Z" fill="#86A4C1"/>
<path d="M73.5616 30.5596C73.5616 33.1894 71.5286 35.3213 69.0208 35.3213C66.513 35.3213 64.4801 33.1894 64.4801 30.5596C64.4801 27.9298 66.513 25.7979 69.0208 25.7979C71.5286 25.7979 73.5616 27.9298 73.5616 30.5596Z" fill="#86A4C1"/>
<path d="M0.706077 150.737C0.706077 134.832 13.6154 121.939 29.5399 121.939H33.6266C49.551 121.939 62.4604 134.832 62.4604 150.737C62.4604 166.641 49.551 179.534 33.6266 179.534H29.5399C13.6154 179.534 0.706077 166.641 0.706077 150.737Z" fill="white"/>
<path d="M1.2013 180.384C1.18826 180.388 1.18293 180.389 1.16921 180.391C0.589073 180.496 -0.106398 179.794 0.0136506 179.218C0.014791 179.213 0.0145309 179.213 0.0158856 179.208C0.0594279 179.036 3.23816 166.425 2.10276 159.86C0.959534 153.251 27.9893 179.603 20.3981 178.293C12.9452 177.008 1.61185 180.265 1.2013 180.384Z" fill="white"/>
<path d="M23.6128 152.098C23.6128 154.728 21.5798 156.859 19.072 156.859C16.5642 156.859 14.5312 154.728 14.5312 152.098C14.5312 149.468 16.5642 147.336 19.072 147.336C21.5798 147.336 23.6128 149.468 23.6128 152.098Z" fill="#86A4C1"/>
<path d="M35.8728 152.098C35.8728 154.728 33.7382 156.859 31.105 156.859C28.4718 156.859 26.3372 154.728 26.3372 152.098C26.3372 149.468 28.4718 147.336 31.105 147.336C33.7382 147.336 35.8728 149.468 35.8728 152.098Z" fill="#86A4C1"/>
<path d="M47.6788 152.098C47.6788 154.728 45.6458 156.859 43.138 156.859C40.6302 156.859 38.5973 154.728 38.5973 152.098C38.5973 149.468 40.6302 147.336 43.138 147.336C45.6458 147.336 47.6788 149.468 47.6788 152.098Z" fill="#86A4C1"/>
<path d="M2.06924 92.4301L29.0633 102.419L39.5117 135.734C40.1803 137.868 42.8119 138.657 44.5586 137.241L59.6056 125.079C61.1828 123.805 63.4294 123.741 65.0777 124.928L92.2171 144.463C94.0857 145.81 96.7329 144.795 97.2015 142.556L117.083 47.7403C117.594 45.2949 115.171 43.2549 112.822 44.1555L2.03761 86.5283C-0.696316 87.5737 -0.672496 91.4114 2.06924 92.4301ZM37.8279 97.1017L90.5844 64.886C91.5325 64.3087 92.508 65.5798 91.6938 66.3286L48.1544 106.455C46.624 107.868 45.6368 109.758 45.3572 111.81L43.874 122.707C43.6776 124.162 41.6161 124.307 41.2112 122.898L35.5071 103.027C34.8538 100.76 35.8058 98.3391 37.8279 97.1017Z" fill="#32BCFF"/>
<path d="M94.2451 92.2356C94.2451 76.3314 107.154 63.4385 123.079 63.4385H127.166C143.09 63.4385 155.999 76.3314 155.999 92.2356C155.999 108.14 143.09 121.033 127.166 121.033H123.079C107.154 121.033 94.2451 108.14 94.2451 92.2356Z" fill="#86A4C1"/>
<path d="M94.7404 121.883C94.7273 121.887 94.722 121.888 94.7083 121.89C94.1281 121.995 93.4327 121.293 93.5527 120.717C93.5539 120.712 93.5536 120.712 93.5549 120.707C93.5985 120.535 96.7772 107.924 95.6418 101.359C94.4986 94.7499 121.528 121.102 113.937 119.792C106.484 118.507 95.1509 121.764 94.7404 121.883Z" fill="#86A4C1"/>
<path d="M117.152 92.2363C117.152 94.8662 115.119 96.9981 112.611 96.9981C110.103 96.9981 108.07 94.8662 108.07 92.2363C108.07 89.6065 110.103 87.4746 112.611 87.4746C115.119 87.4746 117.152 89.6065 117.152 92.2363Z" fill="white"/>
<path d="M129.412 92.2363C129.412 94.8662 127.277 96.9981 124.644 96.9981C122.011 96.9981 119.876 94.8662 119.876 92.2363C119.876 89.6065 122.011 87.4746 124.644 87.4746C127.277 87.4746 129.412 89.6065 129.412 92.2363Z" fill="white"/>
<path d="M141.218 92.2363C141.218 94.8662 139.185 96.9981 136.677 96.9981C134.169 96.9981 132.136 94.8662 132.136 92.2363C132.136 89.6065 134.169 87.4746 136.677 87.4746C139.185 87.4746 141.218 89.6065 141.218 92.2363Z" fill="white"/>
</svg>
