<svg width="49" height="43" viewBox="0 0 49 43" fill="none" xmlns="http://www.w3.org/2000/svg">
<g clip-path="url(#clip0)">
<path d="M47.8621 3.80541H37.6529V1.06997C37.6529 0.484522 37.1839 0.0202026 36.615 0.0202026C36.0362 0.0202026 35.5771 0.494615 35.5771 1.06997V3.80541H13.3226V1.06997C13.3226 0.484522 12.8535 0.0202026 12.2847 0.0202026C11.7158 0.0202026 11.2468 0.494615 11.2468 1.06997V3.80541H1.03764C0.458819 3.80541 -0.000244141 4.27983 -0.000244141 4.85518V13.2028V41.9301C-0.000244141 42.5155 0.468799 42.9798 1.03764 42.9798H36.3256C36.7847 42.9697 37.0342 42.6972 37.0641 42.6669L48.5906 31.0085C48.9199 30.6855 48.9 30.2615 48.9 30.2615V13.2028V4.85518C48.9 4.26973 48.4309 3.80541 47.8621 3.80541ZM2.0855 5.90494H11.2468V8.58992C11.2468 9.17537 11.7158 9.63969 12.2847 9.63969C12.8535 9.63969 13.3226 9.16527 13.3226 8.58992V5.90494H35.5672V8.58992C35.5672 9.17537 36.0362 9.63969 36.605 9.63969C37.1839 9.63969 37.6429 9.16527 37.6429 8.58992V5.90494H46.8042V12.1531H2.0855V5.90494ZM2.0855 14.2526H46.8242V29.2117H36.3256C35.7468 29.2117 35.2877 29.6862 35.2877 30.2615V40.8803H2.0855V14.2526ZM45.3472 31.3214L37.3635 39.3965V31.3214H45.3472Z" fill="white"/>
<path d="M19.9658 28.654C19.9658 29.1393 19.8724 29.5967 19.6858 30.026C19.4991 30.446 19.2424 30.8147 18.9158 31.132C18.5891 31.44 18.2018 31.6873 17.7538 31.874C17.3058 32.0513 16.8204 32.14 16.2978 32.14C15.7191 32.14 15.2011 32.0327 14.7438 31.818C14.2864 31.6033 13.8991 31.2953 13.5818 30.894C13.2644 30.4927 13.0218 30.0027 12.8538 29.424C12.6858 28.836 12.6018 28.1687 12.6018 27.422C12.6018 26.554 12.6904 25.784 12.8678 25.112C13.0544 24.4307 13.3158 23.8613 13.6518 23.404C13.9878 22.9373 14.3984 22.5827 14.8838 22.34C15.3691 22.0973 15.9151 21.976 16.5218 21.976C17.1378 21.976 17.7071 22.102 18.2298 22.354C18.7618 22.606 19.2284 22.97 19.6298 23.446L18.3698 24.874C18.1364 24.5753 17.8564 24.342 17.5298 24.174C17.2031 24.006 16.8531 23.922 16.4798 23.922C15.9291 23.922 15.4904 24.118 15.1638 24.51C14.8464 24.902 14.6784 25.4573 14.6598 26.176C14.8464 25.924 15.0938 25.728 15.4018 25.588C15.7191 25.448 16.0831 25.378 16.4938 25.378C16.9884 25.378 17.4458 25.462 17.8658 25.63C18.2951 25.798 18.6638 26.0313 18.9718 26.33C19.2798 26.6193 19.5224 26.9647 19.6998 27.366C19.8771 27.758 19.9658 28.1873 19.9658 28.654ZM16.2978 30.25C16.5031 30.25 16.6991 30.208 16.8858 30.124C17.0724 30.04 17.2358 29.928 17.3758 29.788C17.5158 29.6387 17.6278 29.466 17.7118 29.27C17.7958 29.074 17.8378 28.8687 17.8378 28.654C17.8378 28.4487 17.7958 28.2527 17.7118 28.066C17.6278 27.8793 17.5158 27.7207 17.3758 27.59C17.2358 27.45 17.0724 27.3427 16.8858 27.268C16.6991 27.184 16.5031 27.142 16.2978 27.142C16.0831 27.142 15.8824 27.184 15.6958 27.268C15.5091 27.3427 15.3458 27.45 15.2058 27.59C15.0658 27.7207 14.9538 27.8793 14.8698 28.066C14.7951 28.2527 14.7578 28.4487 14.7578 28.654C14.7578 28.8687 14.7998 29.074 14.8838 29.27C14.9678 29.466 15.0798 29.6387 15.2198 29.788C15.3598 29.928 15.5231 30.04 15.7098 30.124C15.8964 30.208 16.0924 30.25 16.2978 30.25Z" fill="#FFC700"/>
</g>
<defs>
<clipPath id="clip0">
<rect x="-0.000244141" width="49" height="43" fill="white"/>
</clipPath>
</defs>
</svg>
