<svg viewBox="0 0 398 280" fill="none" xmlns="http://www.w3.org/2000/svg">
<g style="mix-blend-mode:color-dodge" opacity="0.5">
<g style="mix-blend-mode:luminosity" opacity="0.3">
<path d="M238.903 102.037C239.367 102.289 239.829 102.552 240.297 102.827C249.335 108.16 254.19 114.404 254.733 121.389C255.349 129.294 250.064 135.66 247.1 137.314C241.937 140.188 220.213 158.316 218.512 171.964C217.598 179.305 211.003 186.69 201.302 191.24C191.021 196.062 178.344 197.315 165.611 194.775C149.99 191.654 140.522 187.654 132.939 180.964C124.805 173.791 118.367 163.083 111.418 145.154C107.94 136.203 107.647 127.781 110.522 120.108C113.015 113.336 118.108 107.381 125.266 102.87C137.272 95.3836 153.567 93.3002 167.802 97.4177C182.321 101.628 194.049 99.964 204.385 98.5045C215.817 96.894 226.641 95.3653 238.903 102.037ZM141.966 186.473C148.531 190.044 156.222 192.273 165.764 194.182C178.262 196.677 190.689 195.445 200.781 190.713C210.294 186.251 216.76 179.021 217.646 171.852C219.368 158.033 241.308 139.72 246.518 136.82C249.377 135.228 254.464 129.061 253.866 121.365C253.338 114.58 248.603 108.502 239.793 103.303C239.32 103.024 238.855 102.761 238.393 102.509C226.51 96.0444 216.346 97.4818 204.645 99.133C194.195 100.614 182.335 102.285 167.556 98.0094C153.624 93.9784 137.654 96.0365 125.883 103.373C110.856 112.74 105.759 128.33 112.254 145.063C121.226 168.192 129.563 179.725 141.966 186.473Z" fill="white"/>
<path opacity="0.9" d="M245.65 100.088C246.701 100.659 247.759 101.284 248.832 101.973C258.337 108.065 263.215 114.986 263.335 122.551C263.463 131.108 257.247 137.781 253.903 139.459C248.731 142.028 224.667 160.593 220.235 175.886C217.765 184.437 209.21 192.429 197.925 196.751C190.179 199.718 177.476 202.423 160.841 198.539C143.98 194.591 133.908 189.92 126.079 182.414C117.691 174.365 111.392 162.547 105.01 142.922C101.915 133.388 101.989 124.559 105.246 116.668C108.085 109.67 113.583 103.559 121.178 98.9599C134.627 90.902 153.292 88.7887 169.889 93.4412C185.839 97.9139 198.522 96.6906 209.714 95.6127C222.258 94.4001 233.235 93.3353 245.65 100.088ZM219.366 175.696C223.833 160.265 248.128 141.538 253.336 138.937C256.575 137.32 262.575 130.834 262.449 122.487C262.33 115.122 257.572 108.374 248.279 102.417C234.859 93.8204 223.305 94.9347 209.924 96.2261C198.627 97.3156 185.822 98.5516 169.651 94.0178C153.35 89.4451 135.007 91.5292 121.78 99.4544C105.812 109.021 100.005 124.835 105.853 142.847C118.437 181.602 131.248 190.976 161.025 197.948C177.355 201.772 189.835 199.11 197.431 196.197C208.528 191.948 216.932 184.092 219.366 175.696Z" fill="white"/>
<path opacity="0.8" d="M252.097 97.9117C253.798 98.8404 255.424 99.8405 256.966 100.905C266.901 107.735 271.768 115.316 271.432 123.44C271.05 132.637 263.916 139.623 260.182 141.32C254.259 144.014 228.473 163.222 221.425 179.511C217.678 188.166 209.309 195.703 198.465 200.189C189.613 203.85 175.003 207.146 155.678 202.065C137.634 197.319 127 191.997 118.966 183.699C110.35 174.795 104.226 161.908 98.5134 140.625C95.8049 130.532 96.2774 121.288 99.8993 113.178C103.087 105.946 108.992 99.6625 117.023 94.9565C124.304 90.7286 133.158 87.9863 142.791 86.9749C152.317 85.9733 162.333 86.7985 171.857 89.3696C189.075 94.0598 202.653 93.2384 214.63 92.5129C227.814 91.7184 239.415 91.017 252.097 97.9117ZM132.112 192.773C138.711 196.361 146.495 199.009 155.895 201.482C186.847 209.624 213.096 196.58 220.597 179.27C224.427 170.398 233.442 161.197 240.324 155.044C248.113 148.077 256.268 142.326 259.657 140.784C263.275 139.14 270.186 132.337 270.555 123.356C270.888 115.426 266.12 108.02 256.396 101.338C254.897 100.297 253.315 99.3205 251.66 98.4138C239.226 91.6541 227.794 92.3468 214.782 93.134C202.71 93.8645 189.028 94.6931 171.612 89.9493C152.932 84.8629 132.234 86.9779 117.605 95.462C100.903 105.138 94.2643 121.585 99.3652 140.574C107.336 170.238 116.318 184.187 132.112 192.773Z" fill="white"/>
<path opacity="0.7" d="M258.948 95.9607C261.298 97.2507 263.518 98.6641 265.587 100.187C271.119 104.224 275.136 108.525 277.53 112.97C279.602 116.814 280.489 120.841 280.125 124.755C279.253 134.609 271.191 141.905 267.062 143.618C259.798 146.64 232.671 166.451 223.17 183.563C217.981 192.906 208.379 200.785 196.827 205.178C183.092 210.401 167.21 210.665 150.902 205.942C131.602 200.361 120.362 194.357 112.075 185.23C103.187 175.44 97.2091 161.448 92.0797 138.447C89.7116 127.78 90.533 118.124 94.533 109.745C98.1979 102.064 104.355 95.7543 112.83 90.9904C120.966 86.4423 130.816 83.5632 141.486 82.6149C152.17 81.6596 163.334 82.6419 173.988 85.4748C192.446 90.4041 206.915 89.993 219.682 89.6319C227.817 89.4025 235.503 89.1839 242.95 90.4518C248.668 91.418 254.146 93.3044 258.948 95.9607V95.9607ZM222.362 183.279C231.916 166.06 259.249 146.118 266.565 143.069C270.568 141.403 278.401 134.286 279.252 124.642C280.004 116.133 275.211 108.044 265.008 100.6C249.677 89.4115 236.506 89.7863 219.827 90.2591C206.975 90.6229 192.41 91.0359 173.776 86.0603C152.586 80.4029 129.461 82.4863 113.425 91.5009C95.7015 101.464 88.4355 118.129 92.9601 138.427C103.089 183.885 117.01 195.484 151.144 205.368C186.034 215.471 212.514 200.999 222.353 183.276L222.362 183.279Z" fill="white"/>
<path opacity="0.6" d="M265.879 94.0205C268.909 95.6897 271.74 97.5458 274.332 99.5631C280.124 104.011 284.269 108.704 286.657 113.515C288.723 117.671 289.503 121.994 288.942 126.166C287.588 136.678 278.59 144.283 274.075 146.018C266.683 148.86 237.349 169.11 225.027 187.715C218.292 197.886 207.729 205.893 195.286 210.265C180.524 215.455 163.547 215.328 146.19 209.89C125.631 203.452 113.764 196.767 105.23 186.816C96.0695 176.132 90.2178 161.025 85.6643 136.302C81.6989 114.754 89.8455 97.2418 108.602 86.9949C117.394 82.1862 128.308 79.1697 140.176 78.255C152.039 77.3621 164.373 78.5141 176.178 81.6178C195.803 86.7769 211.142 86.7681 224.677 86.7611C239.935 86.7592 252.533 86.754 265.879 94.0205ZM122.671 199.796C129.367 203.442 137.207 206.429 146.468 209.328C185.131 221.435 212.52 205.077 224.238 187.393C229.566 179.36 238.916 169.838 250.582 160.593C260.685 152.585 269.802 146.917 273.595 145.464C277.99 143.775 286.749 136.342 288.078 126.038C289.25 116.949 284.424 108.175 273.732 99.9595C271.19 97.9853 268.418 96.1675 265.452 94.531C252.309 87.3751 239.866 87.3836 224.787 87.3992C211.178 87.408 195.744 87.4095 175.963 82.2219C151.846 75.8669 126.882 77.8472 109.207 87.5138C90.672 97.6402 82.6293 114.968 86.5543 136.302C93.2549 172.747 103.04 189.107 122.671 199.796Z" fill="white"/>
<path opacity="0.55" d="M272.912 92.0987C276.603 94.1395 280.018 96.4363 283.097 98.9481C289.144 103.809 293.419 108.895 295.804 114.069C297.864 118.539 298.542 123.159 297.787 127.591C295.943 138.759 286.006 146.67 281.104 148.427C272.667 151.444 241.905 172.026 226.894 191.853C218.686 202.697 206.915 211.036 193.754 215.339C186.431 217.774 178.258 218.984 169.789 218.888C160.665 218.763 151.145 217.064 141.492 213.84C130.781 210.261 122.717 206.842 116.139 203.081C108.975 199.016 102.923 194.012 98.3865 188.398C88.9517 176.825 83.2309 160.602 79.262 134.16C77.4905 122.346 78.9861 111.825 83.7095 102.888C88.0503 94.6683 95.0042 87.9658 104.37 82.976C113.906 77.8945 125.84 74.7524 138.883 73.8932C151.663 73.0509 165.325 74.3953 178.396 77.785C199.105 83.1611 215.281 83.5315 229.551 83.863C245.661 84.2317 259.044 84.5426 272.912 92.0987ZM118.024 203.426C124.761 207.096 132.605 210.214 141.776 213.276C181.71 226.614 211.524 210.776 226.111 191.506C241.188 171.591 272.141 150.899 280.639 147.859C285.421 146.149 295.108 138.405 296.922 127.437C298.519 117.767 293.659 108.31 282.481 99.3243C279.465 96.8627 276.118 94.6117 272.501 92.6112C258.823 85.1581 245.597 84.8445 229.655 84.483C215.316 84.1514 199.067 83.7753 178.215 78.3634C151.417 71.4126 124.036 73.3266 104.976 83.4859C85.6172 93.8005 76.8057 111.797 80.1602 134.162C86.1254 174.067 96.3455 191.614 118.024 203.426Z" fill="white"/>
<path opacity="0.5" d="M279.936 90.1338C283.873 92.2804 287.823 94.9638 291.857 98.3351C298.16 103.607 302.555 109.094 304.945 114.62C307.001 119.404 307.575 124.322 306.626 129.015C304.292 140.839 293.424 149.059 288.125 150.832C283.22 152.472 272.321 159.003 261.624 166.713C253.794 172.354 239.113 183.657 228.739 195.985C221.89 204.126 209.987 214.969 192.187 220.399C175.121 225.604 156.47 224.717 136.757 217.759C125.425 213.762 116.923 209.983 110.009 205.869C102.486 201.422 96.1838 195.997 91.5197 189.954C81.812 177.487 76.2245 160.152 72.8341 131.99C71.35 119.606 73.1699 108.655 78.2424 99.4196C82.9238 90.9146 90.271 84.0108 100.083 78.8991C120.726 68.1576 150.82 66.3053 180.615 73.9309C202.338 79.4978 219.311 80.2384 234.287 80.8927C251.289 81.639 265.494 82.2597 279.936 90.1338ZM227.972 195.616C238.379 183.246 253.122 171.908 260.957 166.251C271.708 158.501 282.693 151.928 287.669 150.263C292.842 148.532 303.454 140.476 305.75 128.857C307.772 118.607 302.883 108.465 291.216 98.7096C272.663 83.1985 255.749 82.4602 234.324 81.5208C219.288 80.8658 202.246 80.1221 180.39 74.5246C150.894 66.9564 121.087 68.7906 100.681 79.4348C86.3951 86.8796 70.1214 102.045 73.7207 132.025C80.3926 187.734 96.1265 202.78 137.058 217.211C187.69 235.063 217.497 208.062 227.972 195.616Z" fill="white"/>
<path opacity="0.45" d="M286.866 88.0588C291.597 90.64 296.123 93.8306 300.615 97.7202C307.174 103.399 311.705 109.271 314.08 115.166C316.131 120.263 316.601 125.478 315.455 130.429C312.632 142.909 300.828 151.433 295.136 153.225C289.894 154.874 278.502 161.43 266.774 169.533C252.326 179.534 239.463 190.387 230.557 200.096C219.244 212.433 205.42 221.195 190.589 225.437C172.507 230.622 152.783 229.349 132.002 221.681C120.043 217.263 111.106 213.129 103.86 208.659C95.9763 203.833 89.4212 197.99 84.6298 191.517C74.6483 178.161 69.1959 159.713 66.4021 129.838C64.0681 104.863 74.232 85.8416 95.7963 74.8276C117.755 63.6122 150.288 61.844 182.818 70.0958C205.481 75.8469 223.222 76.9347 238.875 77.8935C250.869 78.6278 261.228 79.2632 271.187 81.8781C276.756 83.333 282.057 85.4227 286.866 88.0588V88.0588ZM108.832 210.829C115.61 214.527 123.394 217.835 132.332 221.134C182.927 239.812 215.127 215.732 229.818 199.715C249.672 178.071 284.252 155.935 294.697 152.649C300.264 150.899 311.815 142.525 314.585 130.255C317.037 119.427 312.118 108.602 299.965 98.08C295.318 94.0666 290.808 90.929 286.314 88.4769C271.737 80.5248 257.276 79.6371 238.921 78.5126C223.209 77.5485 205.412 76.4597 182.638 70.6826C150.376 62.498 118.131 64.2438 96.3757 75.3581C75.0297 86.2595 64.9723 105.113 67.2878 129.881C71.6677 176.764 82.8417 196.651 108.832 210.829Z" fill="white"/>
<path opacity="0.3" d="M293.747 85.9014C298.919 88.7243 304.086 92.3651 309.379 97.0976C316.193 103.187 320.85 109.45 323.219 115.711C325.267 121.12 325.633 126.631 324.29 131.841C320.977 144.976 308.235 153.805 302.151 155.616C296.642 157.254 284.511 163.977 271.959 172.356C256.587 182.613 242.532 193.922 232.404 204.208C219.417 217.384 204.82 226.221 189.019 230.477C169.894 235.629 149.111 233.98 127.248 225.581C114.67 220.749 105.282 216.251 97.7121 211.432C89.4693 206.225 82.6602 199.963 77.7366 193.062C67.484 178.817 62.1768 159.264 59.9677 127.67C58.1574 101.665 69.0555 81.9691 91.4829 70.7176C103.251 64.8192 118.261 61.348 134.876 60.6971C150.759 60.0704 168.11 61.995 185.043 66.2466C208.576 72.1665 227.064 73.5875 243.352 74.8306C262.883 76.3284 278.366 77.5069 293.747 85.9014ZM231.654 203.813C241.816 193.504 255.898 182.163 271.306 171.881C283.912 163.468 296.135 156.698 301.717 155.041C307.669 153.267 320.152 144.595 323.419 131.663C326.296 120.259 321.349 108.752 308.712 97.4582C287.916 78.8722 269.234 77.4391 243.379 75.459C227.026 74.205 208.495 72.785 184.853 66.8403C149.802 58.0277 115.12 59.6781 92.0586 71.2462C69.848 82.3869 59.0589 101.915 60.8547 127.721C63.0451 159.21 68.3269 178.685 78.4999 192.831C87.9416 205.949 102.153 215.278 127.57 225.034C177.42 244.199 211.686 224.069 231.654 203.813Z" fill="white"/>
<path opacity="0.24" d="M300.734 83.8317C306.515 86.9886 312.254 91.0909 318.134 96.4952C325.205 102.997 329.989 109.649 332.356 116.273C334.396 121.994 334.657 127.801 333.119 133.269C329.311 147.058 315.633 156.193 309.156 158.023C298.073 161.148 259.711 183.997 234.22 208.325C219.73 222.157 203.98 231.307 187.417 235.52C167.269 240.645 145.416 238.614 122.475 229.491C109.277 224.242 99.4532 219.386 91.5462 214.213C82.945 208.622 75.8862 201.938 70.8385 194.606C60.311 179.47 55.1388 158.804 53.5304 125.501C52.8525 111.445 55.6255 99.1703 61.7773 89.0211C67.4615 79.6421 75.9999 72.0951 87.156 66.5914C99.8514 60.3259 115.455 56.8561 133.527 56.2777C150.424 55.7379 169.004 57.8595 187.259 62.412C211.613 68.4852 230.794 70.213 247.716 71.7374C268.297 73.5887 284.676 75.0635 300.734 83.8317ZM233.854 208.118L233.483 207.915C259.046 183.518 297.583 160.585 308.736 157.439C315.092 155.651 328.498 146.663 332.248 133.078C335.556 121.094 330.578 108.903 317.46 96.8425C311.662 91.5143 305.999 87.4659 300.29 84.3482C284.385 75.6637 268.138 74.2019 247.712 72.3562C230.741 70.8272 211.502 69.1 187.059 62.9977C149.205 53.5586 112.065 55.0986 87.7075 67.1193C64.6359 78.5108 53.1137 98.7255 54.4114 125.563C56.0165 158.766 61.1623 179.351 71.6216 194.39C81.3145 208.33 96.1482 218.345 122.824 228.955C164.333 245.458 201.562 238.383 233.488 207.91L233.854 208.118Z" fill="white"/>
<path opacity="0.2" d="M307.716 81.7307C314.117 85.2275 320.439 89.8003 326.895 95.8913C334.223 102.801 339.133 109.845 341.493 116.83C343.529 122.863 343.684 128.967 341.95 134.694C337.659 149.127 323.038 158.574 316.166 160.42C305.09 163.394 265.267 185.965 236.039 212.433C219.822 227.116 203.392 236.315 185.811 240.554C175.641 243.004 165.006 243.736 154.196 242.747C142.483 241.668 130.207 238.52 117.706 233.395C103.89 227.729 93.6182 222.515 85.3836 216.986C76.4241 211.014 69.1147 203.911 63.9411 196.15C53.1459 180.126 48.1084 158.35 47.0955 123.334C46.6722 108.721 49.7572 96.004 56.2649 85.5392C62.281 75.8611 71.2152 68.0927 82.818 62.4503C96.2738 55.9091 112.88 52.3438 132.177 51.8541C150.081 51.4017 169.903 53.7229 189.491 58.5745C214.602 64.7914 234.46 66.8144 251.982 68.5994C273.637 70.8027 290.947 72.5704 307.716 81.7307ZM235.677 212.22L235.317 212.006C247.959 200.558 264.413 188.309 281.649 177.519C296.137 168.447 309.527 161.503 315.764 159.828C322.502 158.018 336.85 148.726 341.087 134.484C344.824 121.924 339.823 109.051 326.22 96.2204C319.849 90.2129 313.616 85.6933 307.281 82.233C290.661 73.154 273.474 71.409 251.974 69.2113C234.41 67.4229 214.49 65.3885 189.303 59.1552C148.011 48.9272 109.399 50.3239 83.3818 62.9752C59.4174 74.6273 47.1756 95.5208 47.979 123.395C48.9895 158.313 54.0055 180.012 64.7272 195.936C74.6729 210.699 90.1231 221.397 118.065 232.853C161.703 250.754 200.057 243.934 235.317 212.006L235.677 212.22Z" fill="white"/>
<path opacity="0.18" d="M314.587 79.5151C321.983 83.557 328.884 88.7333 335.664 95.2772C343.247 102.597 348.283 110.033 350.637 117.379C352.665 123.722 352.713 130.12 350.778 136.102C345.988 151.2 330.432 160.946 323.167 162.809C316.717 164.464 302.692 171.535 287.434 180.828C269.32 191.858 251.71 204.537 237.844 216.53C220.115 231.866 202.564 241.366 184.189 245.575C173.502 248.022 162.354 248.67 151.04 247.496C138.806 246.237 125.985 242.792 112.914 237.284C98.4761 231.2 87.7583 225.624 79.1983 219.745C69.8804 213.392 62.3206 205.869 57.0212 197.678C45.9579 180.769 41.0603 157.882 40.6448 121.155C40.4741 105.988 43.8668 92.8279 50.7257 82.0451C57.0723 72.0625 66.404 64.0712 78.459 58.2881C105.967 45.0915 147.235 43.7893 191.707 54.7295C217.527 61.0797 238.036 63.384 256.12 65.4088C272.197 67.215 286.079 68.7733 298.838 72.8202C304.392 74.5794 309.688 76.8309 314.587 79.5151ZM237.488 216.31L237.133 216.094C251.022 204.077 268.665 191.377 286.809 180.329C302.13 170.999 316.247 163.889 322.774 162.215C329.906 160.385 345.186 150.786 349.914 135.889C354.083 122.753 349.056 109.197 334.971 95.6012C327.891 88.7729 321.035 83.7217 314.055 79.9076C297.087 70.6352 279.399 68.6498 256.11 66.0347C237.977 63.9978 217.425 61.6901 191.523 55.3193C147.324 44.4499 106.32 45.7259 79.0198 58.8215C54.1682 70.7444 41.2047 92.3252 41.5304 121.234C41.945 157.862 46.8127 180.664 57.8124 197.479C68.0109 213.067 84.0777 224.444 113.286 236.752C159.144 256.075 198.496 249.511 237.133 216.094L237.488 216.31Z" fill="white"/>
<path opacity="0.15" d="M321.491 77.3061C329.576 81.7257 337.075 87.4208 344.416 94.6624C352.248 102.397 357.418 110.218 359.763 117.923C361.791 124.577 361.739 131.27 359.613 137.511C354.323 153.267 337.817 163.312 330.171 165.199C316.557 168.544 272.551 193.29 239.648 220.624L239.297 220.402L239.648 220.624C220.408 236.609 201.737 246.41 182.565 250.595C171.36 253.039 159.691 253.595 147.886 252.245C135.15 250.792 121.767 247.066 108.124 241.174C93.0658 234.67 81.9085 228.741 73.0208 222.511C63.3446 215.774 55.5331 207.831 50.105 199.21C38.7724 181.41 34.0165 157.416 34.2006 118.982C34.2742 103.26 37.9711 89.6565 45.1855 78.5482C51.8612 68.2629 61.5911 60.0441 74.0873 54.1121C89.0516 47.0205 107.674 43.273 129.43 42.9726C149.325 42.698 171.625 45.4353 193.921 50.8863C220.402 57.3594 241.534 59.9266 260.18 62.191C277.354 64.2776 292.186 66.08 305.682 70.4972C311.248 72.3165 316.561 74.6045 321.491 77.3061V77.3061ZM87.0726 230.328C93.3451 233.757 100.443 237.161 108.506 240.643C170.914 267.586 212.84 241.868 238.942 220.181C271.931 192.792 316.094 167.965 329.784 164.602C333.054 163.8 339.036 161.08 345.125 156.057C349.745 152.247 355.862 145.892 358.743 137.299C363.343 123.585 358.289 109.35 343.716 94.9805C336.064 87.4354 328.622 81.9024 321.001 77.7366C303.279 68.0492 284.617 65.7812 260.14 62.8085C241.471 60.541 220.308 57.9741 193.751 51.4814C146.63 39.9619 103.221 41.1175 74.6531 54.6533C48.5499 67.0251 35.2309 88.6964 35.0863 119.066C34.9046 157.406 39.6305 181.314 50.9026 199.017C58.584 211.085 69.6457 220.802 87.0726 230.328Z" fill="white"/>
<path opacity="0.13" d="M328.416 75.0457C336.752 79.604 344.858 85.6867 353.169 94.0477C361.269 102.177 366.551 110.401 368.89 118.47C370.909 125.441 370.748 132.434 368.418 138.936C362.645 155.33 345.212 165.688 337.162 167.585C323.368 170.839 278.154 195.272 241.444 224.713C231.549 232.643 222.196 238.905 212.842 243.861C202.166 249.516 191.73 253.358 180.932 255.605C169.211 258.046 157.031 258.509 144.725 256.984C131.47 255.341 117.541 251.327 103.326 245.055C87.6485 238.136 76.0521 231.847 66.8289 225.26C56.7958 218.143 48.7352 209.783 43.1826 200.735C31.5787 182.054 26.9695 156.947 27.7542 116.804C28.0722 100.532 32.0705 86.4814 39.638 75.0464C46.6463 64.4554 56.771 56.0051 69.7297 49.9332C85.451 42.5692 105.082 38.732 128.071 38.5322C148.945 38.3496 172.489 41.2954 196.157 47.0494C223.257 53.6391 244.985 56.4551 264.15 58.9384C289.998 62.2923 309.784 64.8581 328.416 75.0457ZM241.095 224.485L240.746 224.261C277.537 194.77 322.916 170.256 336.785 166.984C340.23 166.171 346.549 163.387 353.001 158.185C357.901 154.243 364.407 147.663 367.562 138.7C372.596 124.412 367.518 109.494 352.471 94.364C344.247 86.0927 336.221 80.0686 327.967 75.5551C309.466 65.4395 289.804 62.8921 264.111 59.5607C244.908 57.0721 223.142 54.2477 195.974 47.6426C145.914 35.471 100.102 36.505 70.2877 50.4678C43.2701 63.1275 29.2565 85.4756 28.6439 116.893C27.8687 156.93 32.4527 181.955 43.9977 200.536C54.691 217.779 71.9905 230.529 103.72 244.528C167.598 272.715 210.503 248.504 240.746 224.261L241.095 224.485Z" fill="white"/>
<path opacity="0.1" d="M335.367 72.8459C344.355 77.762 353.05 84.3409 361.935 93.4394C370.281 101.987 375.7 110.591 378.03 119.022C380.042 126.302 379.777 133.588 377.253 140.346C370.983 157.398 352.609 168.059 344.167 169.976C330.019 173.189 282.551 198.289 243.246 228.804L242.9 228.576L243.246 228.804C220.682 246.321 200.376 256.422 179.321 260.623C153.735 265.708 127.316 261.887 98.5356 248.942C82.2375 241.607 70.1926 234.956 60.6469 228.02C50.2533 220.521 41.9399 211.741 36.2587 202.262C24.3886 182.692 19.9192 156.482 21.3037 114.627C21.8614 97.8019 26.1598 83.3066 34.0782 71.5438C41.4174 60.6413 51.9476 51.9527 65.3524 45.7421C81.8312 38.1059 102.464 34.1904 126.701 34.0864C148.548 33.9981 173.336 37.1545 198.385 43.2149C226.063 49.9112 248.364 52.9655 268.049 55.6527C295.131 59.3681 315.936 62.2189 335.367 72.8459ZM78.6075 238.398C85.1797 241.964 91.9631 245.308 98.9305 248.418C164.625 277.981 208.401 254.862 242.557 228.346C260.204 214.639 281.419 200.582 302.274 188.759C320.339 178.521 336.255 171.087 343.796 169.373C347.408 168.553 354.052 165.69 360.876 160.314C366.074 156.248 372.956 149.431 376.375 140.101C381.838 125.238 376.724 109.631 361.21 93.739C352.414 84.7332 343.802 78.2143 334.893 73.3417C315.594 62.7868 294.911 59.956 267.972 56.2669C248.264 53.5675 225.929 50.5091 198.186 43.7971C144.389 30.7835 97.4041 31.6622 65.8767 46.2731C37.9453 59.2234 23.2391 82.2496 22.1646 114.715C20.7822 156.468 25.2322 182.593 37.0472 202.064C45.5187 216.022 58.124 227.2 78.6044 238.401L78.6075 238.398Z" fill="white"/>
<path opacity="0.08" d="M342.304 70.625C351.956 75.9048 361.239 82.9847 370.703 92.824C379.304 101.779 384.846 110.776 387.166 119.563C389.179 127.158 388.811 134.744 386.087 141.764C379.325 159.47 360.004 170.438 351.173 172.369C336.297 175.621 287.564 200.818 245.038 232.891L244.697 232.658L245.038 232.891C220.971 251.046 199.564 261.448 177.683 265.619C151.096 270.697 123.63 266.501 93.7397 252.804C76.8202 245.051 64.3401 238.046 54.4594 230.756C43.708 222.881 35.1425 213.688 29.3315 203.786C17.1954 183.326 12.8668 156.009 14.851 112.446C15.6431 95.0709 20.2383 80.1263 28.511 68.0326C36.1797 56.8203 47.0986 47.9067 60.9671 41.5397C78.2001 33.6272 99.8518 29.6177 125.322 29.6272C148.463 29.6359 173.792 32.9144 200.61 39.3721C228.835 46.1748 251.681 49.4478 271.842 52.3398C300.208 56.4112 322.058 59.549 342.304 70.625ZM74.4324 242.489C80.3537 245.728 86.8914 248.974 94.1375 252.296C162.047 283.413 208.181 259.713 244.35 232.423C286.96 200.293 335.859 175.033 350.803 171.76C354.587 170.932 361.565 167.997 368.769 162.454C374.233 158.249 381.523 151.205 385.223 141.519C391.12 126.082 385.995 109.803 369.987 93.1335C360.623 83.3833 351.417 76.3652 341.85 71.1317C321.731 60.1252 300.005 57.0088 271.785 52.9606C251.598 50.0611 228.714 46.7798 200.432 39.9683C143.622 26.2889 94.2874 27.0401 61.5153 42.0864C32.6694 55.3319 17.2656 79.0406 15.7392 112.555C13.757 156.015 18.0736 183.251 30.1471 203.608C38.9738 218.501 52.3707 230.42 74.4324 242.489Z" fill="white"/>
<path opacity="0.03" d="M349.018 68.1955C359.813 74.1026 369.517 81.8199 379.21 92.0688C388.068 101.436 393.74 110.827 396.062 119.977C398.07 127.883 397.601 135.764 394.69 143.043C387.448 161.412 367.214 172.686 357.988 174.645C349.779 176.381 332.976 183.919 313.016 194.805C290.399 207.15 266.861 222.109 246.734 236.922C221.176 255.737 198.698 266.44 175.995 270.609C148.398 275.674 119.914 271.116 88.9204 256.677C71.3994 248.509 58.4759 241.14 48.2672 233.497C37.1583 225.239 28.3416 215.623 22.4025 205.287C9.99155 183.932 5.78516 155.501 8.33977 110.207C10.3019 75.4388 26.4921 50.8879 56.4436 37.2298C90.6308 21.6463 142.55 20.9971 202.625 35.4085C231.347 42.2944 254.715 45.7811 275.334 48.8567C298.078 52.2467 316.023 54.9205 332.582 60.8595C338.337 62.9102 343.848 65.3698 349.018 68.1955ZM246.414 236.688L246.074 236.452C266.222 221.621 289.789 206.646 312.436 194.286C332.454 183.367 349.339 175.794 357.621 174.042C361.576 173.205 368.876 170.196 376.447 164.476C382.187 160.137 389.859 152.855 393.824 142.803C400.13 126.775 394.981 109.813 378.487 92.3743C368.555 81.8709 358.756 74.3461 348.522 68.7458C327.564 57.2766 304.783 53.8766 275.271 49.4739C254.626 46.3937 231.231 42.8996 202.451 36.0019C142.627 21.659 90.9667 22.2917 56.982 37.7836C27.2369 51.3423 11.1667 75.7491 9.21795 110.33C6.66234 155.504 10.8609 183.862 23.2166 205.118C34.6742 224.832 53.8314 239.62 89.3453 256.164C159.477 288.834 207.93 264.531 246.074 236.452L246.414 236.688Z" fill="white"/>
</g>
</g>
</svg>
