<svg width="79" height="83" viewBox="0 0 79 83" fill="none" xmlns="http://www.w3.org/2000/svg">
<path d="M5.07469 43.6625C4.58869 43.6625 4.26469 43.2585 4.26469 42.8545V33.4817C4.26469 33.3201 4.26469 33.2393 4.34569 33.0777L13.9847 14.5745C14.7947 12.9585 16.1717 11.6657 17.7917 10.7769L36.3407 1.16169C36.9887 0.838493 37.7177 0.919293 38.2037 1.48489C38.6897 1.96969 38.8517 2.69689 38.5277 3.34329L28.8077 21.8465C27.9977 23.4625 26.6207 24.7553 25.0007 25.6441L10.2587 33.3201C9.85369 33.5625 9.36769 33.4009 9.12469 32.9969C8.88169 32.5929 9.04369 32.1081 9.44869 31.8657L24.2717 24.1897C25.5677 23.4625 26.7017 22.4121 27.3497 21.1193L36.9077 2.77769L18.6017 12.3121C17.3057 13.0393 16.1717 14.0897 15.5237 15.3825L5.96569 33.6433V42.8545C5.96569 43.3393 5.56069 43.6625 5.07469 43.6625Z" fill="#FF3531"/>
<path d="M22.0038 39.5417C21.1938 39.5417 20.3838 39.2185 19.8168 38.6529L12.6888 31.5425C12.3648 31.2193 12.3648 30.7345 12.6888 30.4113C13.0128 30.0881 13.4988 30.0881 13.8228 30.4113L20.9508 37.5217C21.3558 37.9257 21.9228 38.0873 22.4898 37.8449C31.0758 34.6129 37.8798 27.9065 41.0388 19.3417C41.2008 18.7761 41.1198 18.2105 40.7148 17.8065L33.5868 10.6961C33.2628 10.3729 33.2628 9.88809 33.5868 9.56489C33.9108 9.24169 34.3968 9.24169 34.7208 9.56489L41.8488 16.6753C42.7398 17.5641 42.9828 18.8569 42.5778 19.9881C39.1758 29.0377 32.0478 36.1481 23.0568 39.4609C22.7328 39.4609 22.4088 39.5417 22.0038 39.5417Z" fill="#FF3531"/>
<path d="M72.1425 59.9033H26.7015C24.0285 59.9033 21.9225 57.7217 21.9225 55.1361V41.9657C21.9225 41.4809 22.3275 41.1577 22.7325 41.1577C23.2185 41.1577 23.5425 41.5617 23.5425 41.9657V55.1361C23.5425 56.8329 24.9195 58.2873 26.7015 58.2873H72.1425C73.8435 58.2873 75.3015 56.9137 75.3015 55.1361V23.4625C75.3015 21.7657 73.9245 20.3113 72.1425 20.3113H45.4935C45.0075 20.3113 44.6835 19.9073 44.6835 19.5033C44.6835 19.0993 45.0885 18.6953 45.4935 18.6953H72.1425C74.8155 18.6953 76.9215 20.8769 76.9215 23.4625V55.0553C76.9215 57.7217 74.8155 59.9033 72.1425 59.9033Z" fill="#FF3531"/>
<path d="M65.4198 65.9633H33.3438C33.1008 65.9633 32.7768 65.8017 32.6958 65.6401C32.5338 65.3977 32.5338 65.1553 32.6148 64.8321L35.0448 58.6913C35.2068 58.2873 35.6928 58.0449 36.0978 58.2065C36.5028 58.3681 36.7458 58.8529 36.5838 59.2569L34.6398 64.2665H64.2858L62.3418 59.2569C62.1798 58.8529 62.3418 58.3681 62.8278 58.2065C63.2328 58.0449 63.7188 58.2065 63.8808 58.6913L66.3108 64.8321C66.3918 65.0745 66.3918 65.3977 66.2298 65.6401C65.9868 65.8825 65.7438 65.9633 65.4198 65.9633Z" fill="#FF3531"/>
<path d="M74.8158 81.8001H23.9478C22.9758 81.8001 22.0848 81.3153 21.5988 80.4265C21.1128 79.6185 21.1128 78.5681 21.5988 77.7601L26.2158 69.3569C26.3778 69.1145 26.6208 68.9529 26.9448 68.9529H71.8188C72.1428 68.9529 72.3858 69.1145 72.5478 69.3569L77.2458 77.7601C77.7318 78.6489 77.7318 79.6185 77.2458 80.4265C76.6788 81.3153 75.7878 81.8001 74.8158 81.8001ZM27.4308 70.6497L23.0568 78.5681C22.8948 78.8913 22.8948 79.2953 23.0568 79.6185C23.2188 79.9417 23.6238 80.1033 23.9478 80.1033H74.8158C75.2208 80.1033 75.5448 79.9417 75.7068 79.6185C75.8688 79.2953 75.8688 78.8913 75.7068 78.5681L71.3328 70.6497H27.4308Z" fill="#FF3531"/>
<path d="M29.2936 76.2249C29.0506 76.2249 28.8886 76.1441 28.7266 75.9825C28.5646 75.8209 28.4836 75.5785 28.4836 75.4169C28.4836 75.1745 28.5646 75.0129 28.7266 74.8513C29.0506 74.5281 29.6176 74.5281 29.8606 74.8513C30.0226 75.0129 30.1036 75.1745 30.1036 75.4169C30.1036 75.6593 30.0226 75.8209 29.8606 75.9825C29.6986 76.1441 29.4556 76.2249 29.2936 76.2249Z" fill="#FF3531"/>
<path d="M63.7997 76.2249C63.3137 76.2249 62.9897 75.8209 62.9897 75.4169C62.9897 74.9321 63.3947 74.6089 63.7997 74.6089C64.2857 74.6089 64.6097 75.0129 64.6097 75.4169C64.6097 75.8209 64.2857 76.2249 63.7997 76.2249ZM58.0487 76.2249C57.5627 76.2249 57.2387 75.8209 57.2387 75.4169C57.2387 74.9321 57.6437 74.6089 58.0487 74.6089C58.5347 74.6089 58.8587 75.0129 58.8587 75.4169C58.8587 75.8209 58.4537 76.2249 58.0487 76.2249ZM52.2977 76.2249C51.8117 76.2249 51.4877 75.8209 51.4877 75.4169C51.4877 74.9321 51.8927 74.6089 52.2977 74.6089C52.7837 74.6089 53.1077 75.0129 53.1077 75.4169C53.1077 75.8209 52.7027 76.2249 52.2977 76.2249ZM46.5467 76.2249C46.0607 76.2249 45.7367 75.8209 45.7367 75.4169C45.7367 74.9321 46.1417 74.6089 46.5467 74.6089C47.0327 74.6089 47.3567 75.0129 47.3567 75.4169C47.3567 75.8209 46.9517 76.2249 46.5467 76.2249ZM40.7957 76.2249C40.3097 76.2249 39.9857 75.8209 39.9857 75.4169C39.9857 74.9321 40.3907 74.6089 40.7957 74.6089C41.2817 74.6089 41.6057 75.0129 41.6057 75.4169C41.6057 75.8209 41.2007 76.2249 40.7957 76.2249ZM35.0447 76.2249C34.5587 76.2249 34.2347 75.8209 34.2347 75.4169C34.2347 74.9321 34.6397 74.6089 35.0447 74.6089C35.5307 74.6089 35.8547 75.0129 35.8547 75.4169C35.8547 75.8209 35.4497 76.2249 35.0447 76.2249Z" fill="#FF3531"/>
<path d="M69.5508 76.2249C69.3078 76.2249 69.1458 76.1441 68.9838 75.9825C68.8218 75.8209 68.7408 75.5785 68.7408 75.4169C68.7408 75.1745 68.8218 75.0129 68.9838 74.8513C69.3078 74.5281 69.8748 74.5281 70.1178 74.8513C70.2798 75.0129 70.3608 75.2553 70.3608 75.4169C70.3608 75.6593 70.2798 75.8209 70.1178 75.9825C69.9558 76.1441 69.7938 76.2249 69.5508 76.2249Z" fill="#FF3531"/>
<path d="M5.07469 46.5713C3.04969 46.5713 1.42969 44.9553 1.42969 42.9353C1.42969 42.4505 1.83469 42.1273 2.23969 42.1273C2.72569 42.1273 3.04969 42.5313 3.04969 42.9353C3.04969 44.0665 3.94069 44.9553 5.07469 44.9553C6.20869 44.9553 7.09969 44.0665 7.09969 42.9353C7.09969 42.4505 7.50469 42.1273 7.90969 42.1273C8.39569 42.1273 8.71969 42.5313 8.71969 42.9353C8.80069 44.8745 7.18069 46.5713 5.07469 46.5713Z" fill="#FF3531"/>
<path d="M5.07469 43.6625C4.58869 43.6625 4.26469 43.2585 4.26469 42.8545V33.4817C4.26469 33.3201 4.26469 33.2393 4.34569 33.0777L13.9847 14.5745C14.7947 12.9585 16.1717 11.6657 17.7917 10.7769L36.3407 1.16169C36.9887 0.838493 37.7177 0.919293 38.2037 1.48489C38.6897 1.96969 38.8517 2.69689 38.5277 3.34329L28.8077 21.8465C27.9977 23.4625 26.6207 24.7553 25.0007 25.6441L10.2587 33.3201C9.85369 33.5625 9.36769 33.4009 9.12469 32.9969C8.88169 32.5929 9.04369 32.1081 9.44869 31.8657L24.2717 24.1897C25.5677 23.4625 26.7017 22.4121 27.3497 21.1193L36.9077 2.77769L18.6017 12.3121C17.3057 13.0393 16.1717 14.0897 15.5237 15.3825L5.96569 33.6433V42.8545C5.96569 43.3393 5.56069 43.6625 5.07469 43.6625Z" stroke="#FF3531"/>
<path d="M22.0038 39.5417C21.1938 39.5417 20.3838 39.2185 19.8168 38.6529L12.6888 31.5425C12.3648 31.2193 12.3648 30.7345 12.6888 30.4113C13.0128 30.0881 13.4988 30.0881 13.8228 30.4113L20.9508 37.5217C21.3558 37.9257 21.9228 38.0873 22.4898 37.8449C31.0758 34.6129 37.8798 27.9065 41.0388 19.3417C41.2008 18.7761 41.1198 18.2105 40.7148 17.8065L33.5868 10.6961C33.2628 10.3729 33.2628 9.88809 33.5868 9.56489C33.9108 9.24169 34.3968 9.24169 34.7208 9.56489L41.8488 16.6753C42.7398 17.5641 42.9828 18.8569 42.5778 19.9881C39.1758 29.0377 32.0478 36.1481 23.0568 39.4609C22.7328 39.4609 22.4088 39.5417 22.0038 39.5417Z" stroke="#FF3531"/>
<path d="M72.1425 59.9033H26.7015C24.0285 59.9033 21.9225 57.7217 21.9225 55.1361V41.9657C21.9225 41.4809 22.3275 41.1577 22.7325 41.1577C23.2185 41.1577 23.5425 41.5617 23.5425 41.9657V55.1361C23.5425 56.8329 24.9195 58.2873 26.7015 58.2873H72.1425C73.8435 58.2873 75.3015 56.9137 75.3015 55.1361V23.4625C75.3015 21.7657 73.9245 20.3113 72.1425 20.3113H45.4935C45.0075 20.3113 44.6835 19.9073 44.6835 19.5033C44.6835 19.0993 45.0885 18.6953 45.4935 18.6953H72.1425C74.8155 18.6953 76.9215 20.8769 76.9215 23.4625V55.0553C76.9215 57.7217 74.8155 59.9033 72.1425 59.9033Z" stroke="#FF3531"/>
<path d="M65.4198 65.9633H33.3438C33.1008 65.9633 32.7768 65.8017 32.6958 65.6401C32.5338 65.3977 32.5338 65.1553 32.6148 64.8321L35.0448 58.6913C35.2068 58.2873 35.6928 58.0449 36.0978 58.2065C36.5028 58.3681 36.7458 58.8529 36.5838 59.2569L34.6398 64.2665H64.2858L62.3418 59.2569C62.1798 58.8529 62.3418 58.3681 62.8278 58.2065C63.2328 58.0449 63.7188 58.2065 63.8808 58.6913L66.3108 64.8321C66.3918 65.0745 66.3918 65.3977 66.2298 65.6401C65.9868 65.8825 65.7438 65.9633 65.4198 65.9633Z" stroke="#FF3531"/>
<path d="M74.8158 81.8001H23.9478C22.9758 81.8001 22.0848 81.3153 21.5988 80.4265C21.1128 79.6185 21.1128 78.5681 21.5988 77.7601L26.2158 69.3569C26.3778 69.1145 26.6208 68.9529 26.9448 68.9529H71.8188C72.1428 68.9529 72.3858 69.1145 72.5478 69.3569L77.2458 77.7601C77.7318 78.6489 77.7318 79.6185 77.2458 80.4265C76.6788 81.3153 75.7878 81.8001 74.8158 81.8001ZM27.4308 70.6497L23.0568 78.5681C22.8948 78.8913 22.8948 79.2953 23.0568 79.6185C23.2188 79.9417 23.6238 80.1033 23.9478 80.1033H74.8158C75.2208 80.1033 75.5448 79.9417 75.7068 79.6185C75.8688 79.2953 75.8688 78.8913 75.7068 78.5681L71.3328 70.6497H27.4308Z" stroke="#FF3531"/>
<path d="M29.2936 76.2249C29.0506 76.2249 28.8886 76.1441 28.7266 75.9825C28.5646 75.8209 28.4836 75.5785 28.4836 75.4169C28.4836 75.1745 28.5646 75.0129 28.7266 74.8513C29.0506 74.5281 29.6176 74.5281 29.8606 74.8513C30.0226 75.0129 30.1036 75.1745 30.1036 75.4169C30.1036 75.6593 30.0226 75.8209 29.8606 75.9825C29.6986 76.1441 29.4556 76.2249 29.2936 76.2249Z" stroke="#FF3531"/>
<path d="M63.7997 76.2249C63.3137 76.2249 62.9897 75.8209 62.9897 75.4169C62.9897 74.9321 63.3947 74.6089 63.7997 74.6089C64.2857 74.6089 64.6097 75.0129 64.6097 75.4169C64.6097 75.8209 64.2857 76.2249 63.7997 76.2249ZM58.0487 76.2249C57.5627 76.2249 57.2387 75.8209 57.2387 75.4169C57.2387 74.9321 57.6437 74.6089 58.0487 74.6089C58.5347 74.6089 58.8587 75.0129 58.8587 75.4169C58.8587 75.8209 58.4537 76.2249 58.0487 76.2249ZM52.2977 76.2249C51.8117 76.2249 51.4877 75.8209 51.4877 75.4169C51.4877 74.9321 51.8927 74.6089 52.2977 74.6089C52.7837 74.6089 53.1077 75.0129 53.1077 75.4169C53.1077 75.8209 52.7027 76.2249 52.2977 76.2249ZM46.5467 76.2249C46.0607 76.2249 45.7367 75.8209 45.7367 75.4169C45.7367 74.9321 46.1417 74.6089 46.5467 74.6089C47.0327 74.6089 47.3567 75.0129 47.3567 75.4169C47.3567 75.8209 46.9517 76.2249 46.5467 76.2249ZM40.7957 76.2249C40.3097 76.2249 39.9857 75.8209 39.9857 75.4169C39.9857 74.9321 40.3907 74.6089 40.7957 74.6089C41.2817 74.6089 41.6057 75.0129 41.6057 75.4169C41.6057 75.8209 41.2007 76.2249 40.7957 76.2249ZM35.0447 76.2249C34.5587 76.2249 34.2347 75.8209 34.2347 75.4169C34.2347 74.9321 34.6397 74.6089 35.0447 74.6089C35.5307 74.6089 35.8547 75.0129 35.8547 75.4169C35.8547 75.8209 35.4497 76.2249 35.0447 76.2249Z" stroke="#FF3531"/>
<path d="M69.5508 76.2249C69.3078 76.2249 69.1458 76.1441 68.9838 75.9825C68.8218 75.8209 68.7408 75.5785 68.7408 75.4169C68.7408 75.1745 68.8218 75.0129 68.9838 74.8513C69.3078 74.5281 69.8748 74.5281 70.1178 74.8513C70.2798 75.0129 70.3608 75.2553 70.3608 75.4169C70.3608 75.6593 70.2798 75.8209 70.1178 75.9825C69.9558 76.1441 69.7938 76.2249 69.5508 76.2249Z" stroke="#FF3531"/>
<path d="M5.07469 46.5713C3.04969 46.5713 1.42969 44.9553 1.42969 42.9353C1.42969 42.4505 1.83469 42.1273 2.23969 42.1273C2.72569 42.1273 3.04969 42.5313 3.04969 42.9353C3.04969 44.0665 3.94069 44.9553 5.07469 44.9553C6.20869 44.9553 7.09969 44.0665 7.09969 42.9353C7.09969 42.4505 7.50469 42.1273 7.90969 42.1273C8.39569 42.1273 8.71969 42.5313 8.71969 42.9353C8.80069 44.8745 7.18069 46.5713 5.07469 46.5713Z" stroke="#FF3531"/>
</svg>
