<svg width="83" height="79" viewBox="0 0 83 79" fill="none" xmlns="http://www.w3.org/2000/svg">
<path d="M41.338 39.5618C41.095 39.5618 40.933 39.481 40.771 39.3194L35.02 34.3906C34.615 34.0674 34.615 33.5018 34.939 33.0978C35.263 32.6938 35.83 32.6938 36.235 33.017L41.986 37.9458C42.391 38.269 42.391 38.8346 42.067 39.2386C41.824 39.4002 41.581 39.5618 41.338 39.5618Z" fill="#FF3531"/>
<path d="M24.2469 35.3602C16.4709 35.3602 10.2339 27.9266 10.2339 18.7962C10.2339 9.66583 16.5519 2.23223 24.2469 2.23223C32.0229 2.23223 38.2599 9.66583 38.2599 18.7962C38.3409 27.9266 32.0229 35.3602 24.2469 35.3602ZM24.2469 4.09063C17.5239 4.09063 12.0159 10.7162 12.0159 18.877C12.0159 27.0378 17.5239 33.6634 24.2469 33.6634C30.9699 33.6634 36.4779 27.0378 36.4779 18.877C36.4779 10.7162 31.0509 4.09063 24.2469 4.09063Z" fill="#FF3531"/>
<path d="M46.9271 29.6235C46.8461 29.6235 46.6841 29.6235 46.6031 29.5427C46.2791 29.3811 46.0361 29.0579 46.0361 28.7347V7.16105C46.0361 3.76745 48.7901 0.939453 52.2731 0.939453H70.4981C73.9001 0.939453 76.7351 3.68665 76.7351 7.16105V18.4731C76.7351 21.8667 73.9001 24.6947 70.4981 24.6947H52.4351L47.5751 29.4619C47.4131 29.5427 47.1701 29.6235 46.9271 29.6235ZM52.2731 2.71705C49.8431 2.71705 47.8181 4.73705 47.8181 7.16105V26.6339L51.4631 23.0787C51.6251 22.9171 51.8681 22.8363 52.1111 22.8363H70.4981C72.9281 22.8363 74.9531 20.8163 74.9531 18.3923V7.08025C74.9531 4.65625 72.9281 2.63625 70.4981 2.63625H52.2731V2.71705Z" fill="#FF3531"/>
<path d="M69.526 13.8675C69.04 13.8675 68.635 13.4635 68.635 12.9787C68.635 12.4939 69.04 12.0899 69.526 12.0899C70.012 12.0899 70.417 12.4939 70.417 12.9787C70.417 13.4635 70.012 13.8675 69.526 13.8675ZM63.613 13.8675C63.127 13.8675 62.722 13.4635 62.722 12.9787C62.722 12.4939 63.127 12.0899 63.613 12.0899C64.099 12.0899 64.504 12.4939 64.504 12.9787C64.504 13.4635 64.099 13.8675 63.613 13.8675ZM57.619 13.8675C57.133 13.8675 56.728 13.4635 56.728 12.9787C56.728 12.4939 57.133 12.0899 57.619 12.0899C58.105 12.0899 58.51 12.4939 58.51 12.9787C58.51 13.4635 58.105 13.8675 57.619 13.8675ZM51.706 13.8675C51.22 13.8675 50.815 13.4635 50.815 12.9787C50.815 12.4939 51.22 12.0899 51.706 12.0899C52.192 12.0899 52.597 12.4939 52.597 12.9787C52.597 13.4635 52.192 13.8675 51.706 13.8675Z" fill="#FF3531"/>
<path d="M63.694 65.0947H49.276C48.79 65.0947 48.385 64.6907 48.385 64.2059C48.385 63.7211 48.79 63.3171 49.276 63.3171H63.208L76.411 38.2691H46.927L31.537 64.6099C31.375 64.8523 31.051 65.0139 30.727 65.0139H8.695C4.483 65.0139 1 61.5395 1 57.3379V43.0363C1 42.7939 1.081 42.5515 1.324 42.3899L12.178 32.7747C12.583 32.4515 13.15 32.4515 13.474 32.8555C13.798 33.2595 13.798 33.8251 13.393 34.1483L2.782 43.4403V57.4187C2.782 60.6507 5.455 63.3171 8.695 63.3171H30.241L45.631 36.9763C45.793 36.7339 46.117 36.5723 46.441 36.5723H77.869C78.193 36.5723 78.436 36.7339 78.598 36.9763C78.76 37.2187 78.76 37.5419 78.598 37.8651L64.504 64.6099C64.342 64.9331 64.018 65.0947 63.694 65.0947Z" fill="#FF3531"/>
<path d="M24.2469 55.7218C23.9229 55.7218 23.6799 55.5602 23.5179 55.3178L17.4429 45.6218C17.2809 45.3794 17.2809 45.0562 17.3619 44.8138L20.4399 38.3498C20.6829 37.865 21.1689 37.7034 21.6549 37.9458C22.1409 38.1882 22.3029 38.673 22.0599 39.1578L19.2249 45.0562L24.3279 53.1362L29.3499 45.0562L26.5149 38.9962C26.2719 38.5114 26.5149 38.0266 26.9199 37.7842C27.4059 37.5418 27.8919 37.7842 28.1349 38.1882L31.2129 44.6522C31.3749 44.8946 31.2939 45.2178 31.1319 45.4602L25.0569 55.1562C24.8949 55.5602 24.5709 55.7218 24.2469 55.7218Z" fill="#FF3531"/>
<path d="M81.109 77.861H1.891C1.405 77.861 1 77.457 1 76.9722C1 76.4874 1.405 76.0834 1.891 76.0834H79.813L73.738 58.9538H66.934C66.448 58.9538 66.043 58.5498 66.043 58.065C66.043 57.5802 66.448 57.1762 66.934 57.1762H74.386C74.791 57.1762 75.115 57.4186 75.196 57.7418L81.919 76.649C82 76.8914 82 77.2146 81.838 77.457C81.676 77.6994 81.433 77.861 81.109 77.861Z" fill="#FF3531"/>
<path d="M41.338 39.5618C41.095 39.5618 40.933 39.481 40.771 39.3194L35.02 34.3906C34.615 34.0674 34.615 33.5018 34.939 33.0978C35.263 32.6938 35.83 32.6938 36.235 33.017L41.986 37.9458C42.391 38.269 42.391 38.8346 42.067 39.2386C41.824 39.4002 41.581 39.5618 41.338 39.5618Z" stroke="#FF3531"/>
<path d="M24.2469 35.3602C16.4709 35.3602 10.2339 27.9266 10.2339 18.7962C10.2339 9.66583 16.5519 2.23223 24.2469 2.23223C32.0229 2.23223 38.2599 9.66583 38.2599 18.7962C38.3409 27.9266 32.0229 35.3602 24.2469 35.3602ZM24.2469 4.09063C17.5239 4.09063 12.0159 10.7162 12.0159 18.877C12.0159 27.0378 17.5239 33.6634 24.2469 33.6634C30.9699 33.6634 36.4779 27.0378 36.4779 18.877C36.4779 10.7162 31.0509 4.09063 24.2469 4.09063Z" stroke="#FF3531"/>
<path d="M46.9271 29.6235C46.8461 29.6235 46.6841 29.6235 46.6031 29.5427C46.2791 29.3811 46.0361 29.0579 46.0361 28.7347V7.16105C46.0361 3.76745 48.7901 0.939453 52.2731 0.939453H70.4981C73.9001 0.939453 76.7351 3.68665 76.7351 7.16105V18.4731C76.7351 21.8667 73.9001 24.6947 70.4981 24.6947H52.4351L47.5751 29.4619C47.4131 29.5427 47.1701 29.6235 46.9271 29.6235ZM52.2731 2.71705C49.8431 2.71705 47.8181 4.73705 47.8181 7.16105V26.6339L51.4631 23.0787C51.6251 22.9171 51.8681 22.8363 52.1111 22.8363H70.4981C72.9281 22.8363 74.9531 20.8163 74.9531 18.3923V7.08025C74.9531 4.65625 72.9281 2.63625 70.4981 2.63625H52.2731V2.71705Z" stroke="#FF3531"/>
<path d="M69.526 13.8675C69.04 13.8675 68.635 13.4635 68.635 12.9787C68.635 12.4939 69.04 12.0899 69.526 12.0899C70.012 12.0899 70.417 12.4939 70.417 12.9787C70.417 13.4635 70.012 13.8675 69.526 13.8675ZM63.613 13.8675C63.127 13.8675 62.722 13.4635 62.722 12.9787C62.722 12.4939 63.127 12.0899 63.613 12.0899C64.099 12.0899 64.504 12.4939 64.504 12.9787C64.504 13.4635 64.099 13.8675 63.613 13.8675ZM57.619 13.8675C57.133 13.8675 56.728 13.4635 56.728 12.9787C56.728 12.4939 57.133 12.0899 57.619 12.0899C58.105 12.0899 58.51 12.4939 58.51 12.9787C58.51 13.4635 58.105 13.8675 57.619 13.8675ZM51.706 13.8675C51.22 13.8675 50.815 13.4635 50.815 12.9787C50.815 12.4939 51.22 12.0899 51.706 12.0899C52.192 12.0899 52.597 12.4939 52.597 12.9787C52.597 13.4635 52.192 13.8675 51.706 13.8675Z" stroke="#FF3531"/>
<path d="M63.694 65.0947H49.276C48.79 65.0947 48.385 64.6907 48.385 64.2059C48.385 63.7211 48.79 63.3171 49.276 63.3171H63.208L76.411 38.2691H46.927L31.537 64.6099C31.375 64.8523 31.051 65.0139 30.727 65.0139H8.695C4.483 65.0139 1 61.5395 1 57.3379V43.0363C1 42.7939 1.081 42.5515 1.324 42.3899L12.178 32.7747C12.583 32.4515 13.15 32.4515 13.474 32.8555C13.798 33.2595 13.798 33.8251 13.393 34.1483L2.782 43.4403V57.4187C2.782 60.6507 5.455 63.3171 8.695 63.3171H30.241L45.631 36.9763C45.793 36.7339 46.117 36.5723 46.441 36.5723H77.869C78.193 36.5723 78.436 36.7339 78.598 36.9763C78.76 37.2187 78.76 37.5419 78.598 37.8651L64.504 64.6099C64.342 64.9331 64.018 65.0947 63.694 65.0947Z" stroke="#FF3531"/>
<path d="M24.2469 55.7218C23.9229 55.7218 23.6799 55.5602 23.5179 55.3178L17.4429 45.6218C17.2809 45.3794 17.2809 45.0562 17.3619 44.8138L20.4399 38.3498C20.6829 37.865 21.1689 37.7034 21.6549 37.9458C22.1409 38.1882 22.3029 38.673 22.0599 39.1578L19.2249 45.0562L24.3279 53.1362L29.3499 45.0562L26.5149 38.9962C26.2719 38.5114 26.5149 38.0266 26.9199 37.7842C27.4059 37.5418 27.8919 37.7842 28.1349 38.1882L31.2129 44.6522C31.3749 44.8946 31.2939 45.2178 31.1319 45.4602L25.0569 55.1562C24.8949 55.5602 24.5709 55.7218 24.2469 55.7218Z" stroke="#FF3531"/>
<path d="M81.109 77.861H1.891C1.405 77.861 1 77.457 1 76.9722C1 76.4874 1.405 76.0834 1.891 76.0834H79.813L73.738 58.9538H66.934C66.448 58.9538 66.043 58.5498 66.043 58.065C66.043 57.5802 66.448 57.1762 66.934 57.1762H74.386C74.791 57.1762 75.115 57.4186 75.196 57.7418L81.919 76.649C82 76.8914 82 77.2146 81.838 77.457C81.676 77.6994 81.433 77.861 81.109 77.861Z" stroke="#FF3531"/>
</svg>
