<svg width="83" height="81" viewBox="0 0 83 81" fill="none" xmlns="http://www.w3.org/2000/svg">
<path d="M23.437 31.6232C20.845 31.6232 18.415 30.4112 16.876 28.3912C16.633 28.068 16.714 27.5832 17.038 27.26C17.362 27.0176 17.848 27.0984 18.172 27.4216C19.468 29.1184 21.412 30.088 23.437 30.088C27.082 30.088 30.079 27.0984 30.079 23.4624C30.079 19.8264 27.082 16.8368 23.437 16.8368C23.032 16.8368 22.627 16.5136 22.627 16.0288C22.627 15.544 22.951 15.2208 23.437 15.2208C27.973 15.2208 31.699 18.9376 31.699 23.4624C31.699 27.9872 27.973 31.6232 23.437 31.6232Z" fill="#FF3531"/>
<path d="M11.9349 28.3104C11.6109 28.3104 11.2869 28.1488 11.2059 27.7448C10.6389 26.1288 10.3959 24.432 10.4769 22.6544C10.8009 17.0792 14.6079 12.3928 19.9539 10.8576C20.3589 10.7768 20.8449 11.0192 20.9259 11.4232C21.0069 11.8272 20.7639 12.312 20.3589 12.3928C15.6609 13.6856 12.2589 17.8872 12.0159 22.7352C11.9349 24.2704 12.1779 25.7248 12.6639 27.1792C12.8259 27.5832 12.5829 28.068 12.1779 28.1488C12.1779 28.2296 12.0969 28.3104 11.9349 28.3104Z" fill="#FF3531"/>
<path d="M23.437 24.7552C22.708 24.7552 22.06 24.1088 22.06 23.3816C22.06 22.6544 22.708 22.008 23.437 22.008C24.166 22.008 24.814 22.6544 24.814 23.3816C24.814 24.1088 24.247 24.7552 23.437 24.7552ZM23.437 23.22C23.275 23.22 23.194 23.3008 23.194 23.4624C23.194 23.624 23.275 23.7048 23.437 23.7048C23.599 23.7048 23.68 23.624 23.68 23.4624C23.68 23.3008 23.599 23.22 23.437 23.22Z" fill="#FF3531"/>
<path d="M12.4211 32.512C12.1781 32.512 11.9351 32.4312 11.7731 32.1888C11.5301 31.8656 11.6111 31.3808 11.9351 31.0576L22.7081 22.9776V9.40322C22.7081 8.99922 23.0321 8.59522 23.5181 8.59522C23.9231 8.59522 24.3281 8.91842 24.3281 9.40322V23.3816C24.3281 23.624 24.2471 23.8664 24.0041 24.028L12.9071 32.3504C12.7451 32.512 12.5831 32.512 12.4211 32.512Z" fill="#FF3531"/>
<path d="M23.437 45.844C11.044 45.844 1 35.744 1 23.3816C1 11.0192 11.044 1 23.437 1C35.83 1 45.874 11.0192 45.874 23.3816C45.874 24.3512 45.793 25.4016 45.712 26.3712C45.631 26.7752 45.226 27.0984 44.821 27.0176C44.416 26.9368 44.092 26.5328 44.173 26.1288C44.254 25.24 44.335 24.2704 44.335 23.3816C44.335 11.908 35.02 2.616 23.437 2.616C11.935 2.616 2.62 11.908 2.62 23.3816C2.62 34.8552 12.016 44.228 23.518 44.228C24.733 44.228 25.948 44.1472 27.082 43.9048C27.487 43.824 27.892 44.1472 27.973 44.5512C28.054 44.9552 27.73 45.3592 27.325 45.44C26.11 45.6824 24.733 45.844 23.437 45.844Z" fill="#FF3531"/>
<path d="M4.726 24.1896H1.81C1.405 24.1896 1 23.8664 1 23.3816C1 22.8968 1.324 22.5736 1.81 22.5736H4.726C5.131 22.5736 5.536 22.8968 5.536 23.3816C5.536 23.8664 5.131 24.1896 4.726 24.1896Z" fill="#FF3531"/>
<path d="M23.4371 5.5248C23.0321 5.5248 22.6271 5.2016 22.6271 4.7168V1.808C22.6271 1.404 22.951 1 23.437 1C23.842 1 24.2472 1.3232 24.2472 1.808V4.7168C24.2472 5.1208 23.9231 5.5248 23.4371 5.5248Z" fill="#FF3531"/>
<path d="M43.9301 59.176C37.0451 59.176 31.4561 52.6312 31.4561 44.4704C31.4561 36.3904 37.0451 29.7648 43.9301 29.7648C50.8151 29.7648 56.4041 36.3096 56.4041 44.4704C56.4041 52.5504 50.8151 59.176 43.9301 59.176ZM43.9301 31.3808C37.9361 31.3808 33.0761 37.2792 33.0761 44.4704C33.0761 51.6616 37.9361 57.56 43.9301 57.56C49.9241 57.56 54.7841 51.6616 54.7841 44.4704C54.7841 37.2792 49.9241 31.3808 43.9301 31.3808Z" fill="#FF3531"/>
<path d="M24.0039 79.5376C23.5989 79.5376 23.1939 79.2144 23.1939 78.7296V65.9632C23.1939 65.7208 23.2749 65.5592 23.4369 65.3976L33.0759 56.8328C33.3999 56.5096 33.8859 56.5904 34.2099 56.9136C34.5339 57.2368 34.4529 57.7216 34.1289 58.0448L24.8139 66.3672V78.8104C24.8139 79.2144 24.4899 79.5376 24.0039 79.5376Z" fill="#FF3531"/>
<path d="M64.018 79.5376C63.613 79.5376 63.208 79.2144 63.208 78.7296V66.3672L53.893 58.0448C53.569 57.7216 53.569 57.2368 53.812 56.9136C54.136 56.5904 54.622 56.5904 54.946 56.8328L64.585 65.3976C64.747 65.5592 64.828 65.8016 64.828 65.9632V78.7296C64.828 79.2144 64.504 79.5376 64.018 79.5376Z" fill="#FF3531"/>
<path d="M43.9301 77.2752C43.6871 77.2752 43.3631 77.1136 43.2821 76.8712L37.8551 68.2256C37.6931 67.9832 37.6931 67.7408 37.7741 67.4984L40.4471 61.7616C40.6091 61.3576 41.0951 61.196 41.5001 61.3576C41.9051 61.5192 42.0671 62.004 41.9051 62.408L39.3941 67.7408L43.9301 74.932L48.4661 67.7408L45.9551 62.408C45.7931 62.004 45.9551 61.5192 46.3601 61.3576C46.7651 61.196 47.2511 61.3576 47.4131 61.7616L50.0861 67.4984C50.1671 67.7408 50.1671 68.064 50.0051 68.2256L44.5781 76.8712C44.4161 77.1136 44.1731 77.2752 43.9301 77.2752Z" fill="#FF3531"/>
<path d="M53.5689 30.492C53.4879 30.492 53.3259 30.492 53.2449 30.4112C52.9209 30.2496 52.7589 30.0072 52.7589 29.684V9.07996C52.7589 5.84796 55.4319 3.18156 58.6719 3.18156H76.0869C79.3269 3.18156 81.9999 5.84796 81.9999 9.07996V19.9072C81.9999 23.1392 79.3269 25.8056 76.0869 25.8056H58.8339L54.1359 30.3304C53.9739 30.4112 53.8119 30.492 53.5689 30.492ZM58.6719 4.71676C56.3229 4.71676 54.3789 6.65596 54.3789 8.99916V27.7448L57.9429 24.2704C58.1049 24.1088 58.2669 24.028 58.5099 24.028H76.0869C78.4359 24.028 80.3799 22.0888 80.3799 19.7456V9.07996C80.3799 6.65596 78.5169 4.71676 76.0869 4.71676H58.6719Z" fill="#FF3531"/>
<path d="M67.42 20.8768C65.395 20.8768 63.775 19.2608 63.775 17.2408C63.775 16.8368 64.099 16.4328 64.585 16.4328C65.071 16.4328 65.395 16.756 65.395 17.2408C65.395 18.372 66.286 19.2608 67.42 19.2608C68.554 19.2608 69.445 18.372 69.445 17.2408C69.445 16.4328 69.04 15.7864 67.177 15.14C66.367 14.8976 63.775 14.0088 63.775 11.5848C63.775 9.56478 65.395 7.94878 67.42 7.94878C69.445 7.94878 71.065 9.56478 71.065 11.5848C71.065 11.9888 70.741 12.3928 70.255 12.3928C69.85 12.3928 69.445 12.0696 69.445 11.5848C69.445 10.4536 68.554 9.56478 67.42 9.56478C66.286 9.56478 65.395 10.4536 65.395 11.5848C65.395 12.2312 65.638 12.9584 67.663 13.6856C69.202 14.1704 71.065 15.0592 71.065 17.2408C71.065 19.2608 69.364 20.8768 67.42 20.8768Z" fill="#FF3531"/>
<path d="M67.42 9.56478C67.015 9.56478 66.61 9.24158 66.61 8.75678V7.14078C66.61 6.73678 66.934 6.33278 67.42 6.33278C67.825 6.33278 68.23 6.65598 68.23 7.14078V8.75678C68.23 9.24158 67.825 9.56478 67.42 9.56478Z" fill="#FF3531"/>
<path d="M67.42 22.4928C67.015 22.4928 66.61 22.1696 66.61 21.6848V20.0688C66.61 19.6648 66.934 19.2608 67.42 19.2608C67.825 19.2608 68.23 19.584 68.23 20.0688V21.6848C68.23 22.0888 67.825 22.4928 67.42 22.4928Z" fill="#FF3531"/>
<path d="M1 23.3816C1 35.744 11.044 45.844 23.437 45.844C24.733 45.844 26.11 45.6824 27.325 45.44C27.73 45.3592 28.054 44.9552 27.973 44.5512C27.892 44.1472 27.487 43.824 27.082 43.9048C25.948 44.1472 24.733 44.228 23.518 44.228C12.016 44.228 2.62 34.8552 2.62 23.3816C2.62 11.908 11.935 2.616 23.437 2.616C35.02 2.616 44.335 11.908 44.335 23.3816C44.335 24.2704 44.254 25.24 44.173 26.1288C44.092 26.5328 44.416 26.9368 44.821 27.0176C45.226 27.0984 45.631 26.7752 45.712 26.3712C45.793 25.4016 45.874 24.3512 45.874 23.3816C45.874 11.0192 35.83 1 23.437 1M1 23.3816C1 11.0192 11.044 1 23.437 1M1 23.3816C1 23.8664 1.405 24.1896 1.81 24.1896H4.726C5.131 24.1896 5.536 23.8664 5.536 23.3816C5.536 22.8968 5.131 22.5736 4.726 22.5736H1.81C1.324 22.5736 1 22.8968 1 23.3816ZM23.437 1C22.951 1 22.6271 1.404 22.6271 1.808V4.7168C22.6271 5.2016 23.0321 5.5248 23.4371 5.5248C23.9231 5.5248 24.2472 5.1208 24.2472 4.7168V1.808C24.2472 1.3232 23.842 1 23.437 1ZM67.42 19.2608C66.286 19.2608 65.395 18.372 65.395 17.2408C65.395 16.756 65.071 16.4328 64.585 16.4328C64.099 16.4328 63.775 16.8368 63.775 17.2408C63.775 19.2608 65.395 20.8768 67.42 20.8768C69.364 20.8768 71.065 19.2608 71.065 17.2408C71.065 15.0592 69.202 14.1704 67.663 13.6856C65.638 12.9584 65.395 12.2312 65.395 11.5848C65.395 10.4536 66.286 9.56478 67.42 9.56478M67.42 19.2608C68.554 19.2608 69.445 18.372 69.445 17.2408C69.445 16.4328 69.04 15.7864 67.177 15.14C66.367 14.8976 63.775 14.0088 63.775 11.5848C63.775 9.56478 65.395 7.94878 67.42 7.94878C69.445 7.94878 71.065 9.56478 71.065 11.5848C71.065 11.9888 70.741 12.3928 70.255 12.3928C69.85 12.3928 69.445 12.0696 69.445 11.5848C69.445 10.4536 68.554 9.56478 67.42 9.56478M67.42 19.2608C66.934 19.2608 66.61 19.6648 66.61 20.0688V21.6848C66.61 22.1696 67.015 22.4928 67.42 22.4928C67.825 22.4928 68.23 22.0888 68.23 21.6848V20.0688C68.23 19.584 67.825 19.2608 67.42 19.2608ZM67.42 9.56478C67.015 9.56478 66.61 9.24158 66.61 8.75678V7.14078C66.61 6.73678 66.934 6.33278 67.42 6.33278C67.825 6.33278 68.23 6.65598 68.23 7.14078V8.75678C68.23 9.24158 67.825 9.56478 67.42 9.56478ZM23.437 31.6232C20.845 31.6232 18.415 30.4112 16.876 28.3912C16.633 28.068 16.714 27.5832 17.038 27.26C17.362 27.0176 17.848 27.0984 18.172 27.4216C19.468 29.1184 21.412 30.088 23.437 30.088C27.082 30.088 30.079 27.0984 30.079 23.4624C30.079 19.8264 27.082 16.8368 23.437 16.8368C23.032 16.8368 22.627 16.5136 22.627 16.0288C22.627 15.544 22.951 15.2208 23.437 15.2208C27.973 15.2208 31.699 18.9376 31.699 23.4624C31.699 27.9872 27.973 31.6232 23.437 31.6232ZM11.9349 28.3104C11.6109 28.3104 11.2869 28.1488 11.2059 27.7448C10.6389 26.1288 10.3959 24.432 10.4769 22.6544C10.8009 17.0792 14.6079 12.3928 19.9539 10.8576C20.3589 10.7768 20.8449 11.0192 20.9259 11.4232C21.0069 11.8272 20.7639 12.312 20.3589 12.3928C15.6609 13.6856 12.2589 17.8872 12.0159 22.7352C11.9349 24.2704 12.1779 25.7248 12.6639 27.1792C12.8259 27.5832 12.5829 28.068 12.1779 28.1488C12.1779 28.2296 12.0969 28.3104 11.9349 28.3104ZM23.437 24.7552C22.708 24.7552 22.06 24.1088 22.06 23.3816C22.06 22.6544 22.708 22.008 23.437 22.008C24.166 22.008 24.814 22.6544 24.814 23.3816C24.814 24.1088 24.247 24.7552 23.437 24.7552ZM23.437 23.22C23.275 23.22 23.194 23.3008 23.194 23.4624C23.194 23.624 23.275 23.7048 23.437 23.7048C23.599 23.7048 23.68 23.624 23.68 23.4624C23.68 23.3008 23.599 23.22 23.437 23.22ZM12.4211 32.512C12.1781 32.512 11.9351 32.4312 11.7731 32.1888C11.5301 31.8656 11.6111 31.3808 11.9351 31.0576L22.7081 22.9776V9.40322C22.7081 8.99922 23.0321 8.59522 23.5181 8.59522C23.9231 8.59522 24.3281 8.91842 24.3281 9.40322V23.3816C24.3281 23.624 24.2471 23.8664 24.0041 24.028L12.9071 32.3504C12.7451 32.512 12.5831 32.512 12.4211 32.512ZM43.9301 59.176C37.0451 59.176 31.4561 52.6312 31.4561 44.4704C31.4561 36.3904 37.0451 29.7648 43.9301 29.7648C50.8151 29.7648 56.4041 36.3096 56.4041 44.4704C56.4041 52.5504 50.8151 59.176 43.9301 59.176ZM43.9301 31.3808C37.9361 31.3808 33.0761 37.2792 33.0761 44.4704C33.0761 51.6616 37.9361 57.56 43.9301 57.56C49.9241 57.56 54.7841 51.6616 54.7841 44.4704C54.7841 37.2792 49.9241 31.3808 43.9301 31.3808ZM24.0039 79.5376C23.5989 79.5376 23.1939 79.2144 23.1939 78.7296V65.9632C23.1939 65.7208 23.2749 65.5592 23.4369 65.3976L33.0759 56.8328C33.3999 56.5096 33.8859 56.5904 34.2099 56.9136C34.5339 57.2368 34.4529 57.7216 34.1289 58.0448L24.8139 66.3672V78.8104C24.8139 79.2144 24.4899 79.5376 24.0039 79.5376ZM64.018 79.5376C63.613 79.5376 63.208 79.2144 63.208 78.7296V66.3672L53.893 58.0448C53.569 57.7216 53.569 57.2368 53.812 56.9136C54.136 56.5904 54.622 56.5904 54.946 56.8328L64.585 65.3976C64.747 65.5592 64.828 65.8016 64.828 65.9632V78.7296C64.828 79.2144 64.504 79.5376 64.018 79.5376ZM43.9301 77.2752C43.6871 77.2752 43.3631 77.1136 43.2821 76.8712L37.8551 68.2256C37.6931 67.9832 37.6931 67.7408 37.7741 67.4984L40.4471 61.7616C40.6091 61.3576 41.0951 61.196 41.5001 61.3576C41.9051 61.5192 42.0671 62.004 41.9051 62.408L39.3941 67.7408L43.9301 74.932L48.4661 67.7408L45.9551 62.408C45.7931 62.004 45.9551 61.5192 46.3601 61.3576C46.7651 61.196 47.2511 61.3576 47.4131 61.7616L50.0861 67.4984C50.1671 67.7408 50.1671 68.064 50.0051 68.2256L44.5781 76.8712C44.4161 77.1136 44.1731 77.2752 43.9301 77.2752ZM53.5689 30.492C53.4879 30.492 53.3259 30.492 53.2449 30.4112C52.9209 30.2496 52.7589 30.0072 52.7589 29.684V9.07996C52.7589 5.84796 55.4319 3.18156 58.6719 3.18156H76.0869C79.3269 3.18156 81.9999 5.84796 81.9999 9.07996V19.9072C81.9999 23.1392 79.3269 25.8056 76.0869 25.8056H58.8339L54.1359 30.3304C53.9739 30.4112 53.8119 30.492 53.5689 30.492ZM58.6719 4.71676C56.3229 4.71676 54.3789 6.65596 54.3789 8.99916V27.7448L57.9429 24.2704C58.1049 24.1088 58.2669 24.028 58.5099 24.028H76.0869C78.4359 24.028 80.3799 22.0888 80.3799 19.7456V9.07996C80.3799 6.65596 78.5169 4.71676 76.0869 4.71676H58.6719Z" stroke="#FF3531"/>
</svg>
