<svg width="97" height="46" viewBox="0 0 97 46" fill="none" xmlns="http://www.w3.org/2000/svg"><g clip-path="url(#clip0)"><path d="M18.8 35.4H12.4c-1 0-1.9.8-1.9 1.8s.8 1.8 1.9 1.8h2.5c0 .3-.2.6-.5 1-.7 1-2.4 2.2-4 2.2-4 0-5.8-3.2-5.8-7.2s2.6-7 6.6-7a7 7 0 013.3.7l1 .7 1.1.8c.8.6 2 .5 2.6-.3.6-.7.4-1.7-.1-2.4-.8-1-1.8-1.6-1.8-1.6A11 11 0 000 35c0 6 3.6 11 9.8 11 2.4 0 5.4-1 7.1-3.5v1.7a1.8 1.8 0 003.7 0v-7c0-1-.8-1.8-1.8-1.8zm15.7 6c-.3.1-2 1-4.2 1a3.5 3.5 0 01-3.8-3.4v-.4h8.3c2.5 0 2.3-2.5 2.3-2.5 0-3.1-2-7.1-7.2-7.1a7.4 7.4 0 00-7.4 6c-.3 1.6-1.2 7 3.3 9.8 4.5 2.7 9 0 9 0 1.4-.7 2.5-2 1.8-3-.6-1-1.8-.5-2.1-.4zm-8-5.8c0-1.9 1.5-3.2 3.3-3.2 2 0 3.4 1.3 3.4 3.2h-6.7z" fill="#010101"/><path d="M47.8 43.3l-.6-.6-.6-.2h-.7l-.7-.2-.4-.3-.2-.5v-8.9h.7c.9 0 1.6-.8 1.6-1.7 0-1-.7-1.6-1.6-1.6h-.8v-3.1a2.1 2.1 0 00-4.2 0v3h-.8c-.9 0-1.6.8-1.6 1.7 0 1 .7 1.7 1.6 1.7h.8v8.6c0 .6 0 1.2.3 1.8a4.2 4.2 0 002.3 2.6c.7.3 1.4.4 2.3.4h1.2l.8-.3.6-.6.2-.9c0-.4 0-.7-.2-1zm10.2 0a.9.9 0 00-.6-.6l-.6-.2h-.7l-.6-.2-.5-.3-.2-.5v-8.9h.7c1 0 1.7-.8 1.7-1.7 0-1-.8-1.6-1.7-1.6h-.7v-3.1a2.1 2.1 0 00-4.3 0v3h-.7c-1 0-1.7.8-1.7 1.7 0 1 .8 1.7 1.7 1.7h.7v8.6l.3 1.8a4.2 4.2 0 002.4 2.6c.6.3 1.3.4 2.2.4h1.3l.7-.3c.2-.1.5-.3.6-.6.2-.2.2-.5.2-.9s0-.7-.2-1z" fill="#020202"/><path d="M94.5 18.5a2.5 2.5 0 100 5 2.5 2.5 0 000-5zm0 4.6a2.1 2.1 0 112.1-2c0 1-1 2-2.1 2zm.7-1.8l-.3-.2c.2 0 .4-.1.5-.3l.2-.5-.1-.4-.3-.2a2 2 0 00-.6 0h-1.2v2.5h.6v-1h.5l.3.5.4.5h.6l-.3-.5a3 3 0 00-.3-.4zm-.8-.6H94v-.6h1v.5h-.2l-.4.1z" fill="#010101"/><path d="M90.7 42.3c0 2-1.7 3.7-3.7 3.7H66.9c-2 0-3.8-1.7-3.8-3.7v-20c0-2.1 1.7-3.8 3.8-3.8h20c2.1 0 3.8 1.7 3.8 3.7v20z" fill="#FBB725"/><path d="M71.1 26.6l.4-.1v-.3h.1c.3 1.8.4 3 .4 4.1 0 5.3-1.1 10.3-1.2 15.7H76c.5-1.3.8-3 1.4-4 .5 1.1 1 2.6 1.2 4H84c-.3-3.7-.4-6.3-1-11h.9a47 47 0 01-.4-17c.2-.5 1.2-2.9 1.2-4.5l.3-1.3 1-3c.4-1.3.6-2.7.6-2.7l.4-1.1.5-.6.4-.7s0-.2.3-.3l.4-.2 1.1-.2s.4 0 .4-.2c-.1-.2-.6-.2-.6-.2h-1.3l1.4-1s.4-.4.2-.6c-.1-.2-.6.1-.6.1l-1.5 1 1-1.6s.4-.5.2-.7c-.2-.2-.6.3-.6.3L87 2c0 .1-.1 0-.2 0v-.3L87 .4s0-.3-.3-.4c-.2 0-.3.3-.3.3l-.5 1.9s-.3.4-.6.5l-.7-.1-.5-.5a1 1 0 00-.4-.1s-.5 0-.7.2l.3.2.5.4.2.4.2.5.5.7s.2.2.2.5v.6l-1 2.5-.7 1.6L82 12l-.6 1c-.3.5-1 1-1.1 1.1 0 0-.9.2-1.4.9-.5.6-1 .7-1 .7h-.2l-.3-1v-.4l.4-.7c0-.2 0-1.8-.3-2.1-.3-.4-.4-.9-.4-1 0-.3-.3-.7-.4-.9l-.6-.5-.5-.5c-.2-.1-.2-.3-.3-.4L75 8s.2.1.1.2l-.5.1a2 2 0 00-.3.2s-.2-.3-.5-.1h.1v.2l-.5.2c-.2 0-.4.2-.4.3h-.3l-.2-.2V9s.1.1 0 .2c0 .2-.1.2-.2.3 0 .2-.2.5-.3.4v-.2h.1s-.2-.1-.2.2c0 0-.4.1-.4.3 0 0 .1-.2.2 0l-.1.4c0 .2-.1 0-.1 0l-.3.9c0 .1 0 0 0 0l-.1.3.1.3-.2.4h.1v.1h.1l.2.5c0 .2 0 0 0 0l.7 1c.5.5 1.5 1 1.6 1.4 0 0 .2 1.4 0 1.6h-.5v.2l-.2.3-.4.3-.3.2-.2.2c-.9.6-1.8 1-2.5 1.7-1 1.1-1.2 2.5-1.9 4.4.2.4.5.4.6.8l-.6 4c-.2 1-.7 2.2-.6 3.3a45.5 45.5 0 00.2 6.7c0 .5.8 1.2.8 1.2l1.4.4s.2.1.2 0l-.1-.4v-.2l-.7-.4-.2-.2-.3-.5v-1l.5.3s.3.5.6.5c.3.1.3 0 .2-.2 0-.2-.5-.7-.5-1 0-.3-.2-.7-.3-.8l-.3-.3-.2-.1 1.2-3.9.3-2.6s0-.3.2-.5c.4-.8 1-3 1-3z" fill="#010101"/></g><defs><clipPath id="clip0"><path fill="#fff" d="M0 0h97v46H0z"/></clipPath></defs></svg>