<svg width="48" height="48" viewBox="0 0 48 48" fill="none" xmlns="http://www.w3.org/2000/svg">
<path d="M47.406 22.8506L42.2701 19.2297C41.3396 18.5738 40.0534 19.2417 40.0534 20.3791V22.5937H19.3934C18.6168 22.5937 17.9871 23.2233 17.9871 24C17.9871 24.7767 18.6168 25.4063 19.3934 25.4063H40.0532V27.6207C40.0532 28.7656 41.3462 29.4211 42.2698 28.7701L47.4057 25.1493C48.1901 24.5967 48.2059 23.4157 47.406 22.8506Z" fill="#FFC700"/>
<path d="M40.3567 33.0297C39.6846 32.641 38.8241 32.8705 38.4352 33.5429C35.1318 39.2538 28.9568 43.0877 21.9003 43.0877C11.3753 43.0877 2.81259 34.5249 2.81259 24C2.81259 13.4751 11.3753 4.91232 21.9003 4.91232C28.9614 4.91232 35.1337 8.74979 38.4351 14.4569C38.8239 15.1293 39.6846 15.3587 40.3566 14.9701C41.0288 14.5812 41.2585 13.7209 40.8698 13.0486C37.0704 6.48067 29.9746 2.09973 21.9003 2.09973C9.79594 2.09973 0 11.8946 0 24C0 36.1044 9.79491 45.9003 21.9003 45.9003C29.9781 45.9003 37.0721 41.5163 40.8698 34.9512C41.2586 34.2789 41.0289 33.4187 40.3567 33.0297Z" fill="white"/>
</svg>
