<svg width="1203" height="619" viewBox="0 0 1203 619" fill="none" xmlns="http://www.w3.org/2000/svg">
<circle opacity="0.08" cx="309.5" cy="309.5" r="309" stroke="#CACACA"/>
<g opacity="0.2">
<mask id="path-2-inside-1" fill="white">
<path d="M122 324C122 361.974 133.261 399.095 154.358 430.669C175.455 462.244 205.441 486.853 240.525 501.385C275.608 515.917 314.213 519.719 351.457 512.311C388.702 504.902 422.913 486.616 449.765 459.764C476.616 432.913 494.902 398.702 502.311 361.457C509.719 324.213 505.917 285.608 491.385 250.525C476.853 215.441 452.244 185.455 420.669 164.358C389.095 143.261 351.974 132 314 132V225.619C333.458 225.619 352.479 231.389 368.657 242.199C384.836 253.01 397.446 268.375 404.892 286.351C412.338 304.328 414.286 324.109 410.49 343.193C406.694 362.277 397.325 379.807 383.566 393.566C369.807 407.325 352.277 416.694 333.193 420.49C314.109 424.286 294.328 422.338 276.351 414.892C258.375 407.446 243.01 394.836 232.199 378.657C221.389 362.479 215.619 343.458 215.619 324H122Z"/>
</mask>
<path d="M122 324C122 361.974 133.261 399.095 154.358 430.669C175.455 462.244 205.441 486.853 240.525 501.385C275.608 515.917 314.213 519.719 351.457 512.311C388.702 504.902 422.913 486.616 449.765 459.764C476.616 432.913 494.902 398.702 502.311 361.457C509.719 324.213 505.917 285.608 491.385 250.525C476.853 215.441 452.244 185.455 420.669 164.358C389.095 143.261 351.974 132 314 132V225.619C333.458 225.619 352.479 231.389 368.657 242.199C384.836 253.01 397.446 268.375 404.892 286.351C412.338 304.328 414.286 324.109 410.49 343.193C406.694 362.277 397.325 379.807 383.566 393.566C369.807 407.325 352.277 416.694 333.193 420.49C314.109 424.286 294.328 422.338 276.351 414.892C258.375 407.446 243.01 394.836 232.199 378.657C221.389 362.479 215.619 343.458 215.619 324H122Z" stroke="#3C3764" stroke-width="196" mask="url(#path-2-inside-1)"/>
<path d="M122 324C122 361.974 133.261 399.095 154.358 430.669C175.455 462.244 205.441 486.853 240.525 501.385C275.608 515.917 314.213 519.719 351.457 512.311C388.702 504.902 422.913 486.616 449.765 459.764C476.616 432.913 494.902 398.702 502.311 361.457C509.719 324.213 505.917 285.608 491.385 250.525C476.853 215.441 452.244 185.455 420.669 164.358C389.095 143.261 351.974 132 314 132V225.619C333.458 225.619 352.479 231.389 368.657 242.199C384.836 253.01 397.446 268.375 404.892 286.351C412.338 304.328 414.286 324.109 410.49 343.193C406.694 362.277 397.325 379.807 383.566 393.566C369.807 407.325 352.277 416.694 333.193 420.49C314.109 424.286 294.328 422.338 276.351 414.892C258.375 407.446 243.01 394.836 232.199 378.657C221.389 362.479 215.619 343.458 215.619 324H122Z" stroke="url(#paint0_linear)" stroke-width="196" mask="url(#path-2-inside-1)"/>
</g>
<g style="mix-blend-mode:color-dodge" opacity="0.1">
<path d="M318 320.5C317.724 320.5 317.5 320.724 317.5 321C317.5 321.276 317.724 321.5 318 321.5V320.5ZM1203 320.5L318 320.5V321.5L1203 321.5V320.5Z" fill="url(#paint1_linear)"/>
</g>
<ellipse cx="316.5" cy="320.5" rx="17.5" ry="17.5" transform="rotate(-180 316.5 320.5)" fill="url(#paint2_linear)"/>
<defs>
<linearGradient id="paint0_linear" x1="-25.0825" y1="761.725" x2="434.661" y2="-107.56" gradientUnits="userSpaceOnUse">
<stop stop-color="#0B0F1C"/>
<stop offset="1" stop-color="#544D92"/>
</linearGradient>
<linearGradient id="paint1_linear" x1="318" y1="320.634" x2="318.005" y2="318.386" gradientUnits="userSpaceOnUse">
<stop stop-color="white"/>
<stop offset="1" stop-color="#1C0C45"/>
</linearGradient>
<linearGradient id="paint2_linear" x1="345.948" y1="298.293" x2="310.948" y2="345.362" gradientUnits="userSpaceOnUse">
<stop stop-color="#F89249"/>
<stop offset="1" stop-color="#3C139C"/>
</linearGradient>
</defs>
</svg>
