<svg width="150" height="137" viewBox="0 0 150 137" fill="none" xmlns="http://www.w3.org/2000/svg">
<path d="M71.6223 135.112C91.6414 131.423 98.2735 127.745 105.083 123.385C109.316 120.68 113.935 117.048 117.759 113.42M71.6223 135.112C53.0143 131.927 42.2206 119.837 28.1329 126.239C24.0053 128.12 20.9147 130.934 18.6531 133.646C17.0929 135.516 14.5631 136.462 12.4437 135.262C9.28578 133.473 5.04129 130.14 2.98649 124.46C1.67203 120.825 1.70927 117.482 2.00506 115.167C2.16926 113.882 2.92271 112.768 3.98067 112.021C14.0984 104.869 32.9761 93.6988 57.0862 91.3934C82.2698 88.9869 105.98 96.2053 109.728 97.6332C113.476 99.0611 112.25 103.777 110.271 106.104C108.467 108.225 105.517 108.364 95.7184 107.727C91.4323 107.448 86.2026 107.124 79.8248 106.478M71.6223 135.112C73.7906 135.484 76.065 135.734 78.4631 135.82C104.988 136.803 131.562 120.771 137.317 112.261M117.759 113.42C123.211 108.248 127.046 103.086 125.841 100.643C125.059 99.0571 122.099 98.5177 120.227 98.6198C116.813 98.8052 114.6 101.243 114.032 101.907C110.045 106.79 105.636 111.005 100.626 114.082M117.759 113.42C117.759 113.42 131.224 104.001 136.847 107.158M100.626 114.082C95.5414 117.206 89.8382 119.158 83.3293 119.451C74.1354 119.668 67.4609 113.698 62.1178 106.806C61.9335 106.569 61.7334 106.345 61.5088 106.145C59.9498 104.757 56.8505 102.421 52.3183 101.551C44.4978 100.031 38.4675 104.031 37.24 104.885M100.626 114.082C95.492 113.487 89.6471 112.009 85.3225 110.614C83.3843 109.988 81.4542 108.332 79.8248 106.478M100.626 114.082C100.678 114.088 100.73 114.094 100.781 114.1M79.8248 106.478C77.7819 104.154 76.2116 101.519 75.6906 100.215M137.317 112.261C138.227 110.914 138.616 109.756 138.402 108.883C138.235 108.228 137.747 107.815 137.433 107.558C137.249 107.407 137.053 107.274 136.847 107.158M137.317 112.261C137.699 112.036 142.263 109.44 145.744 111.646C145.979 111.792 148.289 113.303 148.158 115.278C148.061 116.841 146.467 118.136 144.009 119.341C136.027 123.227 109.842 130.488 105.613 131.655M137.317 112.261C137.31 112.264 137.305 112.268 137.301 112.27M136.847 107.158C138.795 105.788 141.28 105.829 142.862 107.151C144.517 108.526 144.47 110.694 144.463 110.984M136.847 107.158C136.843 107.161 136.839 107.163 136.835 107.166M126.648 16C126.734 19.1698 126.943 20.4428 128.155 22.0884C128.629 22.7324 128.629 23.6113 128.155 24.2553C126.943 25.9009 126.734 27.174 126.648 30.3437C126.561 27.174 126.352 25.9009 125.14 24.2553C124.666 23.6113 124.666 22.7324 125.14 22.0884C126.352 20.4428 126.561 19.1698 126.648 16ZM31.0225 47.875C31.1093 51.0448 31.3182 52.3178 32.5298 53.9634C33.0039 54.6074 33.0039 55.4863 32.5298 56.1303C31.3182 57.7759 31.1093 59.049 31.0225 62.2187C30.9358 59.049 30.7268 57.7759 29.5153 56.1303C29.0412 55.4863 29.0412 54.6074 29.5153 53.9634C30.7268 52.3178 30.9358 51.0448 31.0225 47.875Z" stroke="black" stroke-width="2" stroke-miterlimit="10" stroke-linecap="round" stroke-linejoin="round"/>
<path d="M136.124 39.6327C134.912 37.987 134.703 36.714 134.617 33.5442C134.53 36.714 134.321 37.987 133.109 39.6327C132.635 40.2766 132.635 41.1556 133.109 41.7995C134.321 43.4452 134.53 44.7182 134.617 47.888C134.703 44.7182 134.912 43.4452 136.124 41.7995C136.598 41.1556 136.598 40.2766 136.124 39.6327Z" fill="#6BCFFF"/>
<path d="M43.3919 30.5059C41.7765 28.3117 41.4979 26.6144 41.3822 22.388C41.2666 26.6144 40.988 28.3117 39.3725 30.5059C38.7404 31.3645 38.7404 32.5365 39.3725 33.3951C40.988 35.5893 41.2666 37.2866 41.3822 41.513C41.4979 37.2866 41.7765 35.5893 43.3919 33.3951C44.0241 32.5365 44.0241 31.3645 43.3919 30.5059Z" fill="#6BCFFF"/>
<path d="M102.281 62.7541L82.3078 1.784C81.9653 0.738666 80.4866 0.738666 80.1441 1.784L60.1712 62.7541C59.8362 63.7767 60.2628 64.8941 61.1941 65.4333L80.0852 76.3703C80.7908 76.7788 81.6611 76.7788 82.3667 76.3703L101.258 65.4333C102.189 64.8941 102.616 63.7767 102.281 62.7541Z" fill="#6BCFFF"/>
<path d="M82.3667 84.339L93.4944 77.8967C95.6262 76.6625 97.9268 79.2216 96.4734 81.2104L83.0642 99.5598C82.1547 100.804 80.2972 100.804 79.3877 99.5598L65.9785 81.2104C64.5251 79.2216 66.8257 76.6625 68.9575 77.8967L80.0852 84.339C80.7908 84.7475 81.6611 84.7475 82.3667 84.339Z" fill="#6BCFFF"/>
<path d="M136.124 39.6327C134.912 37.987 134.703 36.714 134.617 33.5442C134.53 36.714 134.321 37.987 133.109 39.6327C132.635 40.2766 132.635 41.1556 133.109 41.7995C134.321 43.4452 134.53 44.7182 134.617 47.888C134.703 44.7182 134.912 43.4452 136.124 41.7995C136.598 41.1556 136.598 40.2766 136.124 39.6327Z" stroke="black" stroke-width="1.59375" stroke-linecap="round" stroke-linejoin="round"/>
<path d="M43.3919 30.5059C41.7765 28.3117 41.4979 26.6144 41.3822 22.388C41.2666 26.6144 40.988 28.3117 39.3725 30.5059C38.7404 31.3645 38.7404 32.5365 39.3725 33.3951C40.988 35.5893 41.2666 37.2866 41.3822 41.513C41.4979 37.2866 41.7765 35.5893 43.3919 33.3951C44.0241 32.5365 44.0241 31.3645 43.3919 30.5059Z" stroke="black" stroke-width="1.59375" stroke-linecap="round" stroke-linejoin="round"/>
<path d="M102.281 62.7541L82.3078 1.784C81.9653 0.738666 80.4866 0.738666 80.1441 1.784L60.1712 62.7541C59.8362 63.7767 60.2628 64.8941 61.1941 65.4333L80.0852 76.3703C80.7908 76.7788 81.6611 76.7788 82.3667 76.3703L101.258 65.4333C102.189 64.8941 102.616 63.7767 102.281 62.7541Z" stroke="black" stroke-width="1.59375" stroke-linecap="round" stroke-linejoin="round"/>
<path d="M82.3667 84.339L93.4944 77.8967C95.6262 76.6625 97.9268 79.2216 96.4734 81.2104L83.0642 99.5598C82.1547 100.804 80.2972 100.804 79.3877 99.5598L65.9785 81.2104C64.5251 79.2216 66.8257 76.6625 68.9575 77.8967L80.0852 84.339C80.7908 84.7475 81.6611 84.7475 82.3667 84.339Z" stroke="black" stroke-width="1.59375" stroke-linecap="round" stroke-linejoin="round"/>
<path d="M81.2294 99.7985V86.1378M81.2294 74.7539V53.1244M81.2294 53.1244V3.03516M81.2294 53.1244L100.582 63.37M81.2294 53.1244L61.8767 63.37" stroke="black" stroke-width="2" stroke-linecap="round" stroke-linejoin="round"/>
</svg>
