<svg width="271" height="271" viewBox="0 0 271 271" fill="none" xmlns="http://www.w3.org/2000/svg">
<path d="M81.2978 55.4811C99.8707 42.7988 122.294 37.0119 144.685 39.1226C167.075 41.2334 188.023 51.1089 203.898 67.0386C219.774 82.9683 229.578 103.949 231.612 126.347C233.647 148.744 227.784 171.148 215.038 189.678C202.293 208.207 183.468 221.695 161.824 227.806C140.181 233.917 117.081 232.265 96.5272 223.137C75.9732 214.009 59.259 197.979 49.2798 177.825C39.3005 157.67 36.6846 134.66 41.8853 112.78L92.7799 124.877C90.4024 134.88 91.5983 145.399 96.1603 154.612C100.722 163.826 108.363 171.154 117.76 175.327C127.156 179.5 137.716 180.255 147.61 177.462C157.505 174.668 166.111 168.502 171.937 160.031C177.764 151.56 180.444 141.318 179.514 131.079C178.584 120.84 174.102 111.248 166.845 103.966C159.587 96.6838 150.011 92.1692 139.775 91.2043C129.539 90.2393 119.288 92.8848 110.798 98.6826L81.2978 55.4811Z" fill="#FF5C52"/>
<path d="M138.874 48.583V16.8331H224.996" stroke="#FF5C52" stroke-width="2.38125"/>
<rect x="201.82" y="0.402344" width="61.9124" height="31.75" rx="15.875" fill="#EAF5FF"/>
<path d="M222.52 16.7373H243.554" stroke="#86A4C1" stroke-width="4.76249" stroke-linecap="round"/>
<path d="M125.619 117.282L129.829 113.073L125.619 108.863L121.41 113.073L125.619 117.282ZM147.646 139.309L143.437 143.518L147.646 147.728L151.856 143.518L147.646 139.309ZM191.302 95.6525L195.512 91.443L191.302 87.2335L187.093 91.443L191.302 95.6525ZM205.59 109.94L201.38 114.149L205.59 118.359L209.799 114.149L205.59 109.94ZM94.7056 156.615L129.829 121.492L121.41 113.073L86.2866 148.196L94.7056 156.615ZM121.41 121.492L143.437 143.518L151.856 135.099L129.829 113.073L121.41 121.492ZM151.856 143.518L195.512 99.862L187.093 91.443L143.437 135.099L151.856 143.518ZM187.093 99.862L201.38 114.149L209.799 105.73L195.512 91.443L187.093 99.862ZM209.799 114.149L250.082 73.8667L241.663 65.4477L201.38 105.73L209.799 114.149Z" fill="#32BCFF"/>
<path fill-rule="evenodd" clip-rule="evenodd" d="M49.28 177.825C59.2593 197.979 75.9734 214.009 96.5275 223.137L117.76 175.327C108.364 171.154 100.723 163.826 96.1606 154.613C91.5985 145.399 90.4027 134.88 92.7802 124.877L41.8855 112.78C36.6849 134.66 39.3007 157.67 49.28 177.825Z" fill="#FF5C52"/>
<g filter="url(#filter0_d)">
<g clip-path="url(#clip0)">
<rect x="114.508" y="143.674" width="103.187" height="69.453" rx="7.93749" fill="#91FFFD"/>
<path d="M105.773 140.499H126.808V216.302H105.773V140.499Z" fill="#00CECB"/>
<path d="M138.317 140.499H159.351V216.302H138.317V140.499Z" fill="#00CECB"/>
<path d="M170.861 140.499H191.895V216.302H170.861V140.499Z" fill="#00CECB"/>
<path d="M203.405 140.499H224.439V216.302H203.405V140.499Z" fill="#00CECB"/>
<path d="M124.645 195.318L112.254 204.244C109.431 206.277 107.758 209.544 107.758 213.023C107.758 218.999 112.602 223.843 118.577 223.843H210.548C217.343 223.843 222.851 218.334 222.851 211.54V160.343L205.65 183.179C202.236 187.711 196.164 189.321 190.953 187.075L184.263 184.191C179.744 182.243 174.499 183.176 170.928 186.562L160.143 196.789C156.343 200.393 150.677 201.196 146.025 198.789L137.488 194.374C133.371 192.244 128.406 192.609 124.645 195.318Z" fill="#EAF5FF" stroke="#32BCFF" stroke-width="4.36562"/>
<g filter="url(#filter1_d)">
<circle cx="177.212" cy="180.98" r="5.55624" fill="white"/>
</g>
</g>
</g>
<mask id="path-12-inside-1" fill="white">
<path d="M51.7082 104.607C57.0573 89.813 66.2279 76.6989 78.288 66.5978L104.032 97.3351C97.3993 102.891 92.3554 110.103 89.4134 118.24L51.7082 104.607Z"/>
</mask>
<path d="M51.7082 104.607C57.0573 89.813 66.2279 76.6989 78.288 66.5978L104.032 97.3351C97.3993 102.891 92.3554 110.103 89.4134 118.24L51.7082 104.607Z" fill="#00CECB" stroke="#00CECB" stroke-width="0.283797" mask="url(#path-12-inside-1)"/>
<path d="M81.7218 99.9775V247.813H44.8125" stroke="#00CECB" stroke-width="2.38125"/>
<rect x="75.6133" y="264.086" width="61.9124" height="31.75" rx="15.875" transform="rotate(-180 75.6133 264.086)" fill="#EAF5FF"/>
<path d="M34.3984 248.512H55.4328" stroke="#86A4C1" stroke-width="4.76249" stroke-linecap="round"/>
<path d="M258.775 56.7854L249.396 87.9855L227.574 66.1637L258.775 56.7854Z" fill="#32BCFF"/>
<defs>
<filter id="filter0_d" x="104.586" y="136.133" width="123.031" height="89.2968" filterUnits="userSpaceOnUse" color-interpolation-filters="sRGB">
<feFlood flood-opacity="0" result="BackgroundImageFix"/>
<feColorMatrix in="SourceAlpha" type="matrix" values="0 0 0 0 0 0 0 0 0 0 0 0 0 0 0 0 0 0 127 0"/>
<feOffset dy="2.38125"/>
<feGaussianBlur stdDeviation="4.96093"/>
<feColorMatrix type="matrix" values="0 0 0 0 0 0 0 0 0 0 0 0 0 0 0 0 0 0 0.17 0"/>
<feBlend mode="normal" in2="BackgroundImageFix" result="effect1_dropShadow"/>
<feBlend mode="normal" in="SourceGraphic" in2="effect1_dropShadow" result="shape"/>
</filter>
<filter id="filter1_d" x="167.688" y="173.043" width="19.05" height="19.05" filterUnits="userSpaceOnUse" color-interpolation-filters="sRGB">
<feFlood flood-opacity="0" result="BackgroundImageFix"/>
<feColorMatrix in="SourceAlpha" type="matrix" values="0 0 0 0 0 0 0 0 0 0 0 0 0 0 0 0 0 0 127 0"/>
<feOffset dy="1.5875"/>
<feGaussianBlur stdDeviation="1.98437"/>
<feColorMatrix type="matrix" values="0 0 0 0 0 0 0 0 0 0 0 0 0 0 0 0 0 0 0.33 0"/>
<feBlend mode="normal" in2="BackgroundImageFix" result="effect1_dropShadow"/>
<feBlend mode="normal" in="SourceGraphic" in2="effect1_dropShadow" result="shape"/>
</filter>
<clipPath id="clip0">
<rect x="114.508" y="143.674" width="103.187" height="69.453" rx="7.93749" fill="white"/>
</clipPath>
</defs>
</svg>
