<svg width="93" height="93" viewBox="0 0 93 93" fill="none" xmlns="http://www.w3.org/2000/svg">
<path d="M52.2218 3.57693H75.1141C75.9725 3.57693 76.5449 3.00462 76.5449 2.14616C76.5449 1.2877 75.9725 0.715393 75.1141 0.715393H52.2218C51.3633 0.715393 50.791 1.2877 50.791 2.14616C50.791 3.00462 51.3633 3.57693 52.2218 3.57693Z" fill="#361984"/>
<path d="M80.837 3.57693H83.6986C84.557 3.57693 85.1293 3.00462 85.1293 2.14616C85.1293 1.2877 84.557 0.715393 83.6986 0.715393H80.837C79.9786 0.715393 79.4062 1.2877 79.4062 2.14616C79.4062 3.00462 79.9786 3.57693 80.837 3.57693Z" fill="#361984"/>
<path d="M90.8526 65.1C89.9942 65.1 89.4219 65.6723 89.4219 66.5307V76.5461C89.4219 77.4046 89.9942 77.9769 90.8526 77.9769C91.7111 77.9769 92.2834 77.4046 92.2834 76.5461V66.5307C92.2834 65.6723 91.7111 65.1 90.8526 65.1Z" fill="#361984"/>
<path d="M90.8526 80.8385C89.9942 80.8385 89.4219 81.4108 89.4219 82.2693V83.7C89.4219 84.5585 89.9942 85.1308 90.8526 85.1308C91.7111 85.1308 92.2834 84.5585 92.2834 83.7V82.2693C92.2834 81.4108 91.7111 80.8385 90.8526 80.8385Z" fill="#361984"/>
<path d="M66.5308 86.5616H65.1V85.1308C65.1 84.2723 64.5277 83.7 63.6693 83.7C62.8108 83.7 62.2385 84.2723 62.2385 85.1308V86.5616H60.8077C59.9493 86.5616 59.377 87.1339 59.377 87.9923C59.377 88.8508 59.9493 89.4231 60.8077 89.4231H62.2385V90.8539C62.2385 91.7123 62.8108 92.2846 63.6693 92.2846C64.5277 92.2846 65.1 91.7123 65.1 90.8539V89.4231H66.5308C67.3893 89.4231 67.9616 88.8508 67.9616 87.9923C67.9616 87.1339 67.3893 86.5616 66.5308 86.5616Z" fill="#361984"/>
<path d="M3.57638 16.4539V17.8846C3.57638 18.7431 4.14869 19.3154 5.00715 19.3154C5.86561 19.3154 6.43792 18.7431 6.43792 17.8846V16.4539H7.86869C8.72715 16.4539 9.29946 15.8815 9.29946 15.0231C9.29946 14.1646 8.72715 13.5923 7.86869 13.5923H6.43792V12.1615C6.43792 11.3031 5.86561 10.7308 5.00715 10.7308C4.14869 10.7308 3.57638 11.3031 3.57638 12.1615V13.5923H2.14561C1.28715 13.5923 0.714844 14.1646 0.714844 15.0231C0.714844 15.8815 1.28715 16.4539 2.14561 16.4539H3.57638Z" fill="#361984"/>
<path d="M62.2388 69.3923V67.2462L55.5142 62.2385H30.7619C26.0403 62.2385 22.1773 58.3754 22.1773 53.6539V32.1923H7.86956C4.72187 32.1923 2.14648 34.7677 2.14648 37.9154V69.3923C2.14648 72.54 4.72187 75.1154 7.86956 75.1154H19.3157V87.9923L36.4849 75.1154H56.5157C59.6634 75.1154 62.2388 72.54 62.2388 69.3923Z" fill="#FF3531"/>
<path d="M90.8525 16.4539C90.8525 13.3062 88.2771 10.7308 85.1294 10.7308H30.7602C27.6125 10.7308 25.0371 13.3062 25.0371 16.4539V53.6539C25.0371 56.8015 27.6125 59.3769 30.7602 59.3769H56.514L73.6833 72.2538V59.3769H85.1294C88.2771 59.3769 90.8525 56.8015 90.8525 53.6539V16.4539ZM40.7756 39.3462C38.3433 39.3462 36.4833 37.4862 36.4833 35.0539C36.4833 32.6215 38.3433 30.7615 40.7756 30.7615C43.2079 30.7615 45.0679 32.6215 45.0679 35.0539C45.0679 37.4862 43.2079 39.3462 40.7756 39.3462ZM57.9448 39.3462C55.5125 39.3462 53.6525 37.4862 53.6525 35.0539C53.6525 32.6215 55.5125 30.7615 57.9448 30.7615C60.3771 30.7615 62.2371 32.6215 62.2371 35.0539C62.2371 37.4862 60.3771 39.3462 57.9448 39.3462ZM75.114 39.3462C72.6817 39.3462 70.8217 37.4862 70.8217 35.0539C70.8217 32.6215 72.6817 30.7615 75.114 30.7615C77.5463 30.7615 79.4063 32.6215 79.4063 35.0539C79.4063 37.4862 77.5463 39.3462 75.114 39.3462Z" fill="white"/>
</svg>
