<svg width="24" height="19" viewBox="0 0 24 19" fill="none" xmlns="http://www.w3.org/2000/svg">
<path d="M5.70297 0.474999C6.12541 0.158333 6.60066 0 7.12871 0C7.70957 0 8.21122 0.211112 8.63366 0.633335C9.05611 1.00278 9.26733 1.47778 9.26733 2.05834C9.26733 2.58611 9.0297 3.0875 8.55446 3.5625C6.38944 5.72639 5.14852 7.81111 4.83168 9.81667C5.14852 9.71111 5.57096 9.65834 6.09901 9.65834C7.31353 9.65834 8.31683 10.0806 9.10891 10.925C9.90099 11.7694 10.297 12.8514 10.297 14.1708C10.297 15.4903 9.82178 16.625 8.87129 17.575C7.9736 18.525 6.83828 19 5.46535 19C3.93399 19 2.64026 18.3931 1.58416 17.1792C0.528053 15.9653 0 14.3556 0 12.35C0 10.1333 0.50165 7.99583 1.50495 5.9375C2.56106 3.87917 3.9604 2.05833 5.70297 0.474999ZM19.4059 0.474999C19.7228 0.158333 20.198 0 20.8317 0C21.4125 0 21.9142 0.211112 22.3366 0.633335C22.7591 1.00278 22.9703 1.47778 22.9703 2.05834C22.9703 2.58611 22.7327 3.0875 22.2574 3.5625C21.2013 4.56528 20.33 5.62083 19.6436 6.72917C19.0099 7.78472 18.6403 8.81389 18.5347 9.81667C18.7459 9.71111 19.1419 9.65834 19.7228 9.65834C20.9373 9.65834 21.9406 10.0806 22.7327 10.925C23.5776 11.7694 24 12.8514 24 14.1708C24 15.4903 23.5248 16.625 22.5743 17.575C21.6238 18.525 20.4885 19 19.1683 19C17.637 19 16.3432 18.3931 15.2871 17.1792C14.231 15.9653 13.703 14.3556 13.703 12.35C13.703 10.1333 14.2046 7.99583 15.2079 5.9375C16.264 3.87917 17.6634 2.05833 19.4059 0.474999Z" fill="#32BCFF"/>
</svg>
