<svg width="59" height="40" viewBox="0 0 59 40" fill="none" xmlns="http://www.w3.org/2000/svg">
<g clip-path="url(#clip0)">
<path d="M57.7706 32.1795H54.0831V5.38459C54.0831 2.69776 51.878 0.512756 49.1663 0.512756H9.83305C7.12147 0.512756 4.91635 2.69764 4.91635 5.38459V32.1795H1.22885C0.549539 32.1795 -0.000244141 32.7241 -0.000244141 33.3974V34.6154C-0.000244141 37.3022 2.20477 39.4872 4.91646 39.4872H54.0832C56.7947 39.4872 58.9998 37.3022 58.9998 34.6154V33.3974C58.9998 32.7241 58.45 32.1795 57.7706 32.1795ZM7.37476 5.38459C7.37476 4.0418 8.47789 2.94873 9.83305 2.94873H49.1663C50.5215 2.94873 51.6246 4.0418 51.6246 5.38459V32.1795H35.6456H23.354H7.37476V5.38459ZM54.0831 37.0512H4.91646C3.5613 37.0512 2.45817 35.9581 2.45817 34.6154H6.14567H22.845L23.7141 35.4765C23.9445 35.7049 24.2566 35.8333 24.5832 35.8333H34.4165C34.7429 35.8333 35.0551 35.7049 35.2856 35.4765L36.1545 34.6154H52.854H56.5415C56.5415 35.9581 55.4383 37.0512 54.0831 37.0512Z" fill="white"/>
<path d="M33.3652 16.9864C33.633 17.1401 33.633 17.5264 33.3652 17.6802L27.1936 21.2232C26.927 21.3763 26.5945 21.1838 26.5945 20.8763L26.5945 13.7902C26.5945 13.4828 26.927 13.2903 27.1936 13.4433L33.3652 16.9864Z" fill="#FFC700"/>
</g>
<defs>
<clipPath id="clip0">
<rect x="-0.000244141" width="59" height="40" fill="white"/>
</clipPath>
</defs>
</svg>
