<svg width="738" height="437" viewBox="0 0 738 437" fill="none" xmlns="http://www.w3.org/2000/svg">
<path fill-rule="evenodd" clip-rule="evenodd" d="M0.140625 532.444L248.174 284.41C270.687 288.623 294.04 288.678 317.002 284.244C271.776 331.233 254.58 399.359 272.448 462.37L101.257 633.561L0.140625 532.444ZM500.203 234.614L272.448 462.37C276.526 476.752 282.431 490.867 290.246 504.404C341.194 592.647 454.029 622.881 542.273 571.934C630.516 520.987 660.75 408.151 609.803 319.908C584.782 276.57 544.834 247.224 500.203 234.614ZM415.048 230.954C403.305 243.155 389.672 253.93 374.273 262.821C355.982 273.381 336.635 280.453 317.002 284.244C328.745 272.044 342.377 261.268 357.777 252.377C376.067 241.817 395.414 234.745 415.048 230.954ZM463.432 69.1524L635.942 -103.357L737.059 -2.24115L500.203 234.614C472.793 226.87 443.617 225.438 415.048 230.954C456.391 188 474.311 127.38 463.432 69.1524ZM463.432 69.1524C459.695 49.1464 452.558 29.4227 441.803 10.7949C390.856 -77.4482 278.02 -107.683 189.777 -56.7354C101.534 -5.78818 71.2992 107.048 122.246 195.291C150.284 243.853 197.064 274.847 248.174 284.41L463.432 69.1524ZM324.273 176.219C364.686 152.886 378.533 101.209 355.2 60.7949C331.867 20.3811 280.19 6.53426 239.777 29.8672C199.363 53.2001 185.516 104.877 208.849 145.291C232.182 185.705 283.859 199.552 324.273 176.219ZM523.2 369.908C546.533 410.321 532.686 461.998 492.273 485.331C451.859 508.664 400.182 494.817 376.849 454.404C353.516 413.99 367.363 362.313 407.777 338.98C448.19 315.647 499.867 329.494 523.2 369.908Z" fill="black" fill-opacity="0.1"/>
<path d="M415.048 230.954C403.305 243.155 389.672 253.93 374.273 262.821C355.982 273.381 336.635 280.453 317.002 284.244C271.776 331.233 254.58 399.359 272.448 462.37L500.203 234.614C472.793 226.87 443.617 225.438 415.048 230.954Z" fill="black" fill-opacity="0.1"/>
<path d="M248.174 284.41C270.687 288.623 294.04 288.678 317.002 284.244C328.745 272.044 342.377 261.268 357.777 252.377C376.067 241.817 395.414 234.745 415.048 230.954C456.391 188 474.311 127.38 463.432 69.1524L248.174 284.41Z" fill="black" fill-opacity="0.1"/>
</svg>
