<svg width="40" height="40" viewBox="0 0 40 40" fill="none" xmlns="http://www.w3.org/2000/svg">
<path d="M37.6562 22.832V3.59375C37.6562 2.94647 37.1317 2.42188 36.4844 2.42188H30.5469V1.17188C30.5469 0.524597 30.0223 0 29.375 0C28.7277 0 28.2031 0.524597 28.2031 1.17188V2.42188H23.5156V1.17188C23.5156 0.524597 22.991 0 22.3438 0C21.6965 0 21.1719 0.524597 21.1719 1.17188V2.42188H16.4844V1.17188C16.4844 0.524597 15.9598 0 15.3125 0C14.6652 0 14.1406 0.524597 14.1406 1.17188V2.42188H9.45312V1.17188C9.45312 0.524597 8.92853 0 8.28125 0C7.63397 0 7.10938 0.524597 7.10938 1.17188V2.42188H1.17188C0.524597 2.42188 0 2.94647 0 3.59375V34.1406C0 34.7879 0.524597 35.3125 1.17188 35.3125H20.6879C22.5824 38.1369 25.8041 40 29.4531 40C35.2686 40 40 35.2686 40 29.4531C40 26.9476 39.1211 24.6436 37.6562 22.832ZM7.10938 4.76562V5.9375C7.10938 6.58478 7.63397 7.10938 8.28125 7.10938C8.92853 7.10938 9.45312 6.58478 9.45312 5.9375V4.76562H14.1406V5.9375C14.1406 6.58478 14.6652 7.10938 15.3125 7.10938C15.9598 7.10938 16.4844 6.58478 16.4844 5.9375V4.76562H21.1719V5.9375C21.1719 6.58478 21.6965 7.10938 22.3438 7.10938C22.991 7.10938 23.5156 6.58478 23.5156 5.9375V4.76562H28.2031V5.9375C28.2031 6.58478 28.7277 7.10938 29.375 7.10938C30.0223 7.10938 30.5469 6.58478 30.5469 5.9375V4.76562H35.3125V9.45312H2.34375V4.76562H7.10938ZM2.34375 32.9688V11.7969H35.3125V20.6879C33.6356 19.5633 31.6196 18.9062 29.4531 18.9062C25.7501 18.9062 22.4872 20.8249 20.6049 23.7198C20.4465 23.6398 20.2679 23.5938 20.0781 23.5938H17.7344C17.0871 23.5938 16.5625 24.1183 16.5625 24.7656C16.5625 25.4129 17.0871 25.9375 17.7344 25.9375H19.5096C19.245 26.684 19.0619 27.4689 18.9719 28.2812H17.7344C17.0871 28.2812 16.5625 28.8058 16.5625 29.4531C16.5625 30.1004 17.0871 30.625 17.7344 30.625H18.9719C19.0619 31.4374 19.2447 32.2223 19.5096 32.9688H2.34375ZM29.4531 37.6562C24.9298 37.6562 21.25 33.9764 21.25 29.4531C21.25 24.9298 24.9298 21.25 29.4531 21.25C33.9764 21.25 37.6562 24.9298 37.6562 29.4531C37.6562 33.9764 33.9764 37.6562 29.4531 37.6562Z" fill="#32BCFF"/>
<path d="M34.1406 28.2812H30.625V24.7656C30.625 24.1183 30.1004 23.5938 29.4531 23.5938C28.8058 23.5938 28.2812 24.1183 28.2812 24.7656V29.4531C28.2812 30.1004 28.8058 30.625 29.4531 30.625H34.1406C34.7879 30.625 35.3125 30.1004 35.3125 29.4531C35.3125 28.8058 34.7879 28.2812 34.1406 28.2812Z" fill="#32BCFF"/>
<path d="M10.625 14.2188H8.28125C7.63397 14.2188 7.10938 14.7433 7.10938 15.3906C7.10938 16.0379 7.63397 16.5625 8.28125 16.5625H10.625C11.2723 16.5625 11.7969 16.0379 11.7969 15.3906C11.7969 14.7433 11.2723 14.2188 10.625 14.2188Z" fill="#32BCFF"/>
<path d="M10.625 18.9062H8.28125C7.63397 18.9062 7.10938 19.4308 7.10938 20.0781C7.10938 20.7254 7.63397 21.25 8.28125 21.25H10.625C11.2723 21.25 11.7969 20.7254 11.7969 20.0781C11.7969 19.4308 11.2723 18.9062 10.625 18.9062Z" fill="#32BCFF"/>
<path d="M10.625 23.5938H8.28125C7.63397 23.5938 7.10938 24.1183 7.10938 24.7656C7.10938 25.4129 7.63397 25.9375 8.28125 25.9375H10.625C11.2723 25.9375 11.7969 25.4129 11.7969 24.7656C11.7969 24.1183 11.2723 23.5938 10.625 23.5938Z" fill="#32BCFF"/>
<path d="M17.7344 16.5625H20.0781C20.7254 16.5625 21.25 16.0379 21.25 15.3906C21.25 14.7433 20.7254 14.2188 20.0781 14.2188H17.7344C17.0871 14.2188 16.5625 14.7433 16.5625 15.3906C16.5625 16.0379 17.0871 16.5625 17.7344 16.5625Z" fill="#32BCFF"/>
<path d="M17.7344 21.25H20.0781C20.7254 21.25 21.25 20.7254 21.25 20.0781C21.25 19.4308 20.7254 18.9062 20.0781 18.9062H17.7344C17.0871 18.9062 16.5625 19.4308 16.5625 20.0781C16.5625 20.7254 17.0871 21.25 17.7344 21.25Z" fill="#32BCFF"/>
<path d="M10.625 28.2812H8.28125C7.63397 28.2812 7.10938 28.8058 7.10938 29.4531C7.10938 30.1004 7.63397 30.625 8.28125 30.625H10.625C11.2723 30.625 11.7969 30.1004 11.7969 29.4531C11.7969 28.8058 11.2723 28.2812 10.625 28.2812Z" fill="#32BCFF"/>
<path d="M27.1094 16.5625H29.4531C30.1004 16.5625 30.625 16.0379 30.625 15.3906C30.625 14.7433 30.1004 14.2188 29.4531 14.2188H27.1094C26.4621 14.2188 25.9375 14.7433 25.9375 15.3906C25.9375 16.0379 26.4621 16.5625 27.1094 16.5625Z" fill="#32BCFF"/>
</svg>
