<svg width="40" height="40" viewBox="0 0 40 40" fill="none" xmlns="http://www.w3.org/2000/svg">
<g clip-path="url(#clip0)">
<path d="M31.5451 11.5561C31.5451 5.18402 26.3608 0 19.989 0C13.6169 0 8.43292 5.18402 8.43292 11.5561C8.43292 15.5029 10.4224 18.9935 13.4503 21.0791C10.6232 22.0547 8.03162 23.6664 5.85449 25.8435C2.07916 29.6188 0 34.6387 0 39.9777H3.12317C3.12317 30.6781 10.6891 23.1122 19.989 23.1122C26.3608 23.1122 31.5451 17.9282 31.5451 11.5561ZM19.989 19.989C15.3391 19.989 11.5561 16.2061 11.5561 11.5561C11.5561 6.90613 15.3391 3.12317 19.989 3.12317C24.6387 3.12317 28.4216 6.90613 28.4216 11.5561C28.4216 16.2061 24.6387 19.989 19.989 19.989ZM40 28.7341L32.6492 36.0849L30.4407 33.8763L34.0994 30.2176H31.3907C27.6486 30.2176 24.6014 33.2623 24.5984 37.0044L24.5956 39.9789L21.4725 39.9765L21.4749 37.0016C21.4795 31.5387 25.9277 27.0941 31.3907 27.0941H33.9432L30.4407 23.5916L32.6492 21.3834L40 28.7341Z" fill="#32BCFF"/>
</g>
<defs>
<clipPath id="clip0">
<rect width="40" height="40" fill="white"/>
</clipPath>
</defs>
</svg>
