<svg width="40" height="40" viewBox="0 0 40 40" fill="none" xmlns="http://www.w3.org/2000/svg">
<path d="M37.5 11.2244H29.59C30.1575 10.8369 30.645 10.4519 30.985 10.1069C33 8.07938 33 4.77938 30.985 2.75188C29.0275 0.781875 25.6125 0.779375 23.6525 2.75188C22.57 3.83938 19.6925 8.26688 20.09 11.2244H19.91C20.305 8.26688 17.43 3.83938 16.3475 2.75188C14.3875 0.779375 10.9725 0.781875 9.015 2.75188C7 4.77938 7 8.07938 9.0125 10.1069C9.355 10.4519 9.8425 10.8369 10.41 11.2244H2.5C1.1225 11.2244 0 12.3469 0 13.7244V19.9744C0 20.6644 0.56 21.2244 1.25 21.2244H2.5V36.2244C2.5 37.6019 3.6225 38.7244 5 38.7244H35C36.3775 38.7244 37.5 37.6019 37.5 36.2244V21.2244H38.75C39.44 21.2244 40 20.6644 40 19.9744V13.7244C40 12.3469 38.8775 11.2244 37.5 11.2244ZM10.7875 4.51438C11.295 4.00438 11.9675 3.72438 12.6825 3.72438C13.395 3.72438 14.0675 4.00438 14.575 4.51438C16.26 6.20938 17.935 10.5394 17.3525 11.1419C17.3525 11.1419 17.2475 11.2244 16.89 11.2244C15.1625 11.2244 11.865 9.42938 10.7875 8.34438C9.74 7.28938 9.74 5.56938 10.7875 4.51438ZM18.75 36.2244H5V21.2244H18.75V36.2244ZM18.75 18.7244H2.5V13.7244H16.89H18.75V18.7244ZM25.425 4.51438C26.44 3.49688 28.2 3.49938 29.2125 4.51438C30.26 5.56938 30.26 7.28938 29.2125 8.34438C28.135 9.42938 24.8375 11.2244 23.11 11.2244C22.7525 11.2244 22.6475 11.1444 22.645 11.1419C22.065 10.5394 23.74 6.20938 25.425 4.51438ZM35 36.2244H21.25V21.2244H35V36.2244ZM37.5 18.7244H21.25V13.7244H23.11H37.5V18.7244Z" fill="#32BCFF"/>
</svg>
