<svg width="40" height="40" viewBox="0 0 40 40" fill="none" xmlns="http://www.w3.org/2000/svg">
<g clip-path="url(#clip0)">
<path d="M31.4286 22.8571C28.5932 22.8571 26.0946 24.2568 24.5335 26.3841L16.7329 22.4829C16.9744 21.6917 17.1429 20.8691 17.1429 20C17.1429 19.1308 16.9744 18.3081 16.7329 17.517L24.5335 13.6158C26.0946 15.7431 28.5932 17.1428 31.4286 17.1428C36.1551 17.1428 40 13.2979 40 8.57135C40 3.84482 36.1552 0 31.4286 0C26.7019 0 22.8571 3.8449 22.8571 8.57143C22.8571 9.44055 23.0258 10.2631 23.2673 11.0542L15.4664 14.9556C13.9053 12.8282 11.4067 11.4286 8.57135 11.4286C3.84482 11.4286 0 15.2734 0 20C0 24.7267 3.84482 28.5715 8.57143 28.5715C11.4068 28.5715 13.9054 27.1718 15.4665 25.0445L23.2671 28.9459C23.0256 29.7369 22.8571 30.5595 22.8571 31.4286C22.8571 36.1552 26.7019 40.0001 31.4286 40.0001C36.1552 40.0001 40 36.1552 40 31.4286C40 26.7021 36.1551 22.8571 31.4286 22.8571ZM31.4286 2.85717C34.5801 2.85717 37.1428 5.42138 37.1428 8.57143C37.1428 11.7216 34.58 14.2857 31.4286 14.2857C28.277 14.2857 25.7143 11.7215 25.7143 8.57143C25.7143 5.42138 28.2771 2.85717 31.4286 2.85717ZM8.57143 25.7143C5.41988 25.7143 2.85717 23.1501 2.85717 20C2.85717 16.8499 5.41997 14.2858 8.57143 14.2858C11.723 14.2858 14.2857 16.85 14.2857 20C14.2857 23.1501 11.723 25.7143 8.57143 25.7143ZM31.4286 37.1428C28.277 37.1428 25.7143 34.5786 25.7143 31.4286C25.7143 28.2785 28.2771 25.7143 31.4286 25.7143C34.5801 25.7143 37.1428 28.2785 37.1428 31.4286C37.1428 34.5787 34.5801 37.1428 31.4286 37.1428Z" fill="#32BCFF"/>
</g>
<defs>
<clipPath id="clip0">
<rect width="40" height="40" fill="white"/>
</clipPath>
</defs>
</svg>
