<svg width="40" height="40" viewBox="0 0 40 40" fill="none" xmlns="http://www.w3.org/2000/svg">
<g clip-path="url(#clip0)">
<path d="M36.018 9.06972H27.399V5.59665C27.399 3.94295 26.0536 2.59766 24.3999 2.59766H15.6C13.9463 2.59766 12.6009 3.94295 12.6009 5.59665V9.06972H3.98199C1.78627 9.06972 0 10.8561 0 13.0517V33.4183C0 35.614 1.78627 37.4002 3.98199 37.4002H36.018C38.2137 37.4002 40 35.614 40 33.4183V13.0517C40 10.8561 38.2137 9.06972 36.018 9.06972ZM15.1412 5.59665C15.1412 5.34366 15.347 5.1379 15.6 5.1379H24.3999C24.6529 5.1379 24.8587 5.34374 24.8587 5.59665V9.06972H15.1412V5.59665ZM2.54024 13.0517C2.54024 12.2567 3.18697 11.61 3.98199 11.61H36.018C36.8129 11.61 37.4598 12.2567 37.4598 13.0517V14.9316C37.4598 16.6948 36.2774 18.2705 34.5845 18.7634L21.3002 22.6311C20.4497 22.8789 19.5504 22.8789 18.6997 22.6311L5.41548 18.7633C3.72257 18.2704 2.54024 16.6948 2.54024 14.9316V13.0517ZM36.018 34.8601H3.98199C3.18705 34.8601 2.54024 34.2134 2.54024 33.4184V20.1033C3.1803 20.598 3.90991 20.9707 4.70532 21.2023C19.3799 25.4748 18.6257 25.3573 20 25.3573C21.3924 25.3573 20.6029 25.4798 35.2946 21.2023C36.0901 20.9707 36.8197 20.598 37.4597 20.1033V33.4183C37.4598 34.2133 36.8129 34.8601 36.018 34.8601Z" fill="#32BCFF"/>
</g>
<defs>
<clipPath id="clip0">
<rect width="40" height="40" fill="white"/>
</clipPath>
</defs>
</svg>
