<svg width="134" height="161" viewBox="0 0 134 161" fill="none" xmlns="http://www.w3.org/2000/svg">
<path d="M109.071 127.756L109.175 128.245L109.175 128.245L109.071 127.756ZM84.6395 120.275L84.892 119.844L84.8916 119.843L84.6395 120.275ZM75.225 113.465L75.5544 113.089L75.5544 113.089L75.225 113.465ZM69.0374 104.497L69.4943 104.7L69.4944 104.7L69.0374 104.497ZM73.0214 102.879L73.0142 103.378L73.0143 103.378L73.0214 102.879ZM77.577 105.067L77.9515 104.735L77.9436 104.727L77.577 105.067ZM100.19 116.816L100.188 117.316L100.199 117.316L100.19 116.816ZM115.1 107.1L115.507 107.39L115.507 107.39L115.1 107.1ZM115.519 106.606L115.172 106.247L115.172 106.247L115.519 106.606ZM122.005 103.033L122.119 103.52L122.12 103.52L122.005 103.033ZM132.69 105.422C132.923 105.57 133.232 105.502 133.38 105.269C133.529 105.036 133.46 104.727 133.227 104.578L132.69 105.422ZM102.34 107.374L102.729 107.688L102.729 107.688L102.34 107.374ZM90.9317 108.731L90.984 109.228L90.9841 109.228L90.9317 108.731ZM80.4058 107.981L80.0381 108.32L80.0381 108.32L80.4058 107.981ZM80.553 101.866L80.3564 101.406L80.3564 101.406L80.553 101.866ZM118.279 95.8568L118.307 95.3576L118.307 95.3576L118.279 95.8568ZM157.113 109.181L157.385 108.761L157.385 108.761L157.113 109.181ZM158.626 111.389L159.119 111.306L159.119 111.306L158.626 111.389ZM158.187 118.109L158.664 118.26L158.664 118.26L158.187 118.109ZM151.689 126.16L151.425 125.735L151.425 125.735L151.689 126.16ZM147.171 125.175L147.542 124.839L147.542 124.839L147.171 125.175ZM140.131 120.115L140.32 119.652L140.32 119.652L140.131 120.115ZM104.166 128.463L104.128 127.964L104.127 127.964L104.166 128.463ZM60.2298 110.792L59.7406 110.689L59.7398 110.692L60.2298 110.792ZM60.8891 109.81L61.2211 110.184L61.2211 110.184L60.8891 109.81ZM105.608 102.912C105.7 102.651 105.564 102.365 105.304 102.273C105.043 102.181 104.758 102.317 104.665 102.578L105.608 102.912ZM98.5006 110.51L98.673 110.979L98.5006 110.51ZM87.3937 112.971C87.1207 113.013 86.9334 113.269 86.9753 113.542C87.0172 113.814 87.2725 114.002 87.5454 113.96L87.3937 112.971ZM84.382 126.732C84.6509 126.795 84.9198 126.628 84.9825 126.359C85.0453 126.09 84.8782 125.821 84.6093 125.758L84.382 126.732ZM56.4935 118.484L56.2915 118.941L56.2928 118.942L56.4935 118.484ZM53.3889 115.678L53.8863 115.627L53.8861 115.625L53.3889 115.678ZM55.0222 112.993L55.3034 113.407L55.3065 113.404L55.0222 112.993ZM60.8822 113.639C61.125 113.77 61.4284 113.68 61.5599 113.437C61.6913 113.194 61.601 112.891 61.3581 112.76L60.8822 113.639ZM55.4268 112.512C55.4446 112.787 55.6825 112.996 55.9581 112.978C56.2336 112.961 56.4425 112.723 56.4247 112.447L55.4268 112.512ZM56.9679 109.673L57.3026 110.045L57.3036 110.044L56.9679 109.673ZM61.0364 109.93C61.2681 110.081 61.5777 110.014 61.7279 109.783C61.8781 109.551 61.812 109.241 61.5802 109.091L61.0364 109.93ZM109.142 127.261C94.6785 125.189 89.8597 122.752 84.892 119.844L84.3869 120.707C89.4767 123.686 94.4209 126.163 109 128.251L109.142 127.261ZM84.8916 119.843C81.794 118.035 78.3893 115.571 75.5544 113.089L74.8957 113.841C77.7759 116.363 81.232 118.864 84.3873 120.707L84.8916 119.843ZM75.5544 113.089C73.5303 111.317 71.815 109.552 70.7089 108.023C70.1551 107.257 69.769 106.572 69.5669 105.99C69.3629 105.402 69.3679 104.985 69.4943 104.7L68.5806 104.294C68.3081 104.907 68.3777 105.613 68.6222 106.318C68.8688 107.028 69.3154 107.803 69.8988 108.609C71.0671 110.224 72.8445 112.045 74.8957 113.841L75.5544 113.089ZM69.4944 104.7C69.6654 104.315 70.1515 103.966 70.8791 103.717C71.5819 103.476 72.3907 103.369 73.0142 103.378L73.0287 102.379C72.3013 102.368 71.3767 102.489 70.5546 102.771C69.7572 103.044 68.9267 103.515 68.5805 104.294L69.4944 104.7ZM73.0143 103.378C75.2572 103.411 76.7954 104.959 77.2104 105.407L77.9436 104.727C77.5018 104.251 75.7131 102.417 73.0286 102.379L73.0143 103.378ZM77.2026 105.398C80.2392 108.828 83.5777 111.778 87.3364 113.884L87.8254 113.012C84.192 110.975 80.9381 108.109 77.9514 104.735L77.2026 105.398ZM87.3364 113.884C91.1552 116.025 95.4008 117.292 100.188 117.316L100.193 116.316C95.5892 116.293 91.5088 115.077 87.8254 113.012L87.3364 113.884ZM100.199 117.316C107.076 117.204 111.838 112.536 115.507 107.39L114.693 106.81C111.065 111.897 106.558 116.212 100.182 116.316L100.199 117.316ZM115.867 106.966C116.914 105.955 119.001 104.249 122.119 103.52L121.891 102.547C118.532 103.332 116.29 105.168 115.172 106.247L115.867 106.966ZM122.12 103.52C127.501 102.25 131.807 104.859 132.69 105.422L133.227 104.578C132.294 103.983 127.685 101.179 121.89 102.547L122.12 103.52ZM102.27 106.879C97.7064 107.526 93.9587 107.909 90.8792 108.233L90.9841 109.228C94.0611 108.904 97.8263 108.519 102.41 107.869L102.27 106.879ZM90.8793 108.233C87.3515 108.605 85.1028 108.781 83.5699 108.688C82.0644 108.597 81.3357 108.252 80.7734 107.642L80.0381 108.32C80.836 109.185 81.8516 109.586 83.5096 109.686C85.1403 109.785 87.4744 109.597 90.984 109.228L90.8793 108.233ZM80.7735 107.642C80.0914 106.902 79.5188 105.757 79.4213 104.697C79.3731 104.173 79.4428 103.696 79.6445 103.3C79.8422 102.912 80.1844 102.567 80.7495 102.325L80.3564 101.406C79.5927 101.732 79.0656 102.234 78.7535 102.846C78.4454 103.45 78.3647 104.127 78.4255 104.788C78.5459 106.097 79.2286 107.441 80.0381 108.32L80.7735 107.642ZM80.7495 102.325C83.3639 101.208 100.15 95.354 118.252 96.3561L118.307 95.3576C100.002 94.3442 83.0574 100.251 80.3564 101.406L80.7495 102.325ZM118.252 96.3561C135.555 97.315 149.384 104.764 156.841 109.6L157.385 108.761C149.86 103.881 135.858 96.3302 118.307 95.3576L118.252 96.3561ZM158.133 111.473C158.404 113.079 158.522 115.4 157.711 117.958L158.664 118.26C159.537 115.508 159.408 113.018 159.119 111.306L158.133 111.473ZM157.711 117.958C156.444 121.952 153.591 124.391 151.425 125.735L151.952 126.585C154.231 125.171 157.298 122.566 158.664 118.26L157.711 117.958ZM147.542 124.839C145.8 122.914 143.434 120.923 140.32 119.652L139.942 120.578C142.881 121.777 145.128 123.662 146.8 125.51L147.542 124.839ZM140.32 119.652C134.965 117.472 130.367 118.741 125.52 120.839C120.649 122.947 115.556 125.866 108.967 127.267L109.175 128.245C115.894 126.817 121.166 123.813 125.917 121.756C130.691 119.69 134.969 118.553 139.943 120.578L140.32 119.652ZM108.967 127.267C107.437 127.593 105.829 127.835 104.128 127.964L104.204 128.961C105.951 128.829 107.604 128.579 109.175 128.245L108.967 127.267ZM104.127 127.964C94.6919 128.692 85.1052 126.389 77.3228 123.154C73.434 121.537 70.0055 119.692 67.2819 117.885C64.5492 116.072 62.5574 114.318 61.5111 112.897L60.7057 113.489C61.8536 115.049 63.9572 116.879 66.7291 118.718C69.5103 120.563 72.9959 122.438 76.9389 124.077C84.8201 127.354 94.5678 129.705 104.204 128.961L104.127 127.964ZM61.5111 112.897C60.8321 111.974 60.6354 111.305 60.7197 110.892L59.7398 110.692C59.5654 111.548 59.9961 112.525 60.7057 113.489L61.5111 112.897ZM60.7189 110.896C60.7824 110.596 61.0001 110.38 61.2211 110.184L60.557 109.436C60.3405 109.628 59.8788 110.036 59.7406 110.689L60.7189 110.896ZM61.2211 110.184C61.3269 110.09 61.4406 110.006 61.5618 109.931L61.0377 109.079C60.8684 109.184 60.7077 109.302 60.557 109.436L61.2211 110.184ZM61.5618 109.931C62.3944 109.419 63.6086 109.339 65.0602 109.589C66.4957 109.837 68.0715 110.391 69.5477 111.031C71.0201 111.669 72.3735 112.383 73.3603 112.939C73.8531 113.217 74.2532 113.455 74.5296 113.622C74.6677 113.706 74.7748 113.773 74.8471 113.818C74.8832 113.84 74.9105 113.858 74.9287 113.869C74.9378 113.875 74.9446 113.879 74.949 113.882C74.9512 113.883 74.9528 113.884 74.9538 113.885C74.9543 113.885 74.9547 113.886 74.9549 113.886C74.955 113.886 74.955 113.886 74.9551 113.886C74.9551 113.886 74.955 113.886 75.225 113.465C75.495 113.044 75.4949 113.044 75.4948 113.044C75.4947 113.044 75.4945 113.044 75.4943 113.044C75.4939 113.043 75.4933 113.043 75.4926 113.043C75.4912 113.042 75.4892 113.04 75.4866 113.039C75.4814 113.035 75.4738 113.031 75.4639 113.024C75.4441 113.012 75.415 112.993 75.3772 112.97C75.3014 112.922 75.1906 112.854 75.0484 112.767C74.7642 112.595 74.3547 112.352 73.8512 112.068C72.8453 111.501 71.4595 110.769 69.9453 110.113C68.4349 109.458 66.7767 108.87 65.2301 108.604C63.6998 108.34 62.1839 108.374 61.0377 109.079L61.5618 109.931ZM104.665 102.578C104.351 103.466 103.329 105.36 101.952 107.059L102.729 107.688C104.16 105.922 105.247 103.931 105.608 102.912L104.665 102.578ZM101.952 107.059C100.848 108.421 99.5762 109.582 98.3281 110.041L98.673 110.979C100.18 110.425 101.593 109.09 102.729 107.688L101.952 107.059ZM98.3281 110.041C95.2743 111.163 91.141 112.384 87.5035 112.954L87.6583 113.942C91.38 113.359 95.5792 112.116 98.673 110.979L98.3281 110.041ZM87.5035 112.954C87.4668 112.96 87.4302 112.966 87.3937 112.971L87.5454 113.96C87.583 113.954 87.6206 113.948 87.6583 113.942L87.5035 112.954ZM84.6093 125.758C83.0712 125.399 77.5403 124.102 71.6631 122.574C65.7688 121.042 59.58 119.291 56.6943 118.026L56.2928 118.942C59.2662 120.245 65.5393 122.016 71.4115 123.542C77.301 125.073 82.8416 126.373 84.382 126.732L84.6093 125.758ZM56.6955 118.027C55.8121 117.637 55.1158 117.239 54.6336 116.824C54.1534 116.411 53.926 116.016 53.8863 115.627L52.8915 115.729C52.9664 116.462 53.389 117.072 53.9813 117.582C54.5716 118.09 55.3703 118.535 56.2915 118.941L56.6955 118.027ZM53.8861 115.625C53.8321 115.12 54.0932 114.612 54.4685 114.169C54.8343 113.737 55.2398 113.45 55.3034 113.406L54.7411 112.58C54.6399 112.648 54.153 112.994 53.7055 113.522C53.2674 114.04 52.7942 114.818 52.8917 115.731L53.8861 115.625ZM55.3065 113.404C56.3666 112.672 57.655 112.663 58.7753 112.893C59.8886 113.121 60.7508 113.569 60.8727 113.634L61.3441 112.752C61.184 112.666 60.2247 112.17 58.9762 111.914C57.7347 111.659 56.1209 111.626 54.7379 112.582L55.3065 113.404ZM60.8727 113.634C60.8768 113.636 60.88 113.638 60.8822 113.639L61.3581 112.76C61.3543 112.758 61.3496 112.755 61.3441 112.752L60.8727 113.634ZM56.4247 112.447C56.4113 112.241 56.3419 110.91 57.3026 110.045L56.6332 109.302C55.2897 110.512 55.4131 112.301 55.4268 112.512L56.4247 112.447ZM57.3036 110.044C58.214 109.219 59.7489 109.1 61.0288 109.925L61.5707 109.085C59.9653 108.05 57.924 108.132 56.6322 109.303L57.3036 110.044ZM61.0288 109.925C61.0314 109.927 61.0339 109.929 61.0364 109.93L61.5802 109.091C61.577 109.089 61.5739 109.087 61.5707 109.085L61.0288 109.925ZM156.841 109.6C157.525 110.044 158.005 110.71 158.133 111.473L159.119 111.306C158.938 110.228 158.268 109.334 157.385 108.761L156.841 109.6ZM151.425 125.735C150.211 126.488 148.622 126.034 147.542 124.839L146.8 125.51C148.074 126.92 150.183 127.683 151.952 126.585L151.425 125.735ZM115.507 107.39C115.62 107.233 115.738 107.091 115.867 106.966L115.172 106.247C114.989 106.423 114.832 106.615 114.693 106.81L115.507 107.39Z" fill="#FFD02C"/>
<path d="M59.2155 73.6341C59.2155 73.3579 58.9917 73.1341 58.7155 73.1341C58.4394 73.1341 58.2155 73.3579 58.2155 73.6341L59.2155 73.6341ZM75.464 73.6341C75.464 73.3579 75.2402 73.1341 74.964 73.1341C74.6879 73.1341 74.464 73.3579 74.464 73.6341L75.464 73.6341ZM39.7116 75.57C39.965 75.4602 40.0814 75.1658 39.9716 74.9124C39.8618 74.659 39.5674 74.5426 39.314 74.6524L39.7116 75.57ZM17.157 84.2538C16.9036 84.3636 16.7872 84.658 16.897 84.9114C17.0068 85.1648 17.3012 85.2812 17.5546 85.1714L17.157 84.2538ZM34.2215 65.2563C34.4894 65.3233 34.7609 65.1604 34.8279 64.8925C34.8949 64.6246 34.732 64.3532 34.4641 64.2862L34.2215 65.2563ZM16.7385 59.8548C16.4706 59.7878 16.1991 59.9507 16.1321 60.2186C16.0651 60.4865 16.228 60.7579 16.4959 60.8249L16.7385 59.8548ZM92.8885 74.6524C92.6351 74.5426 92.3407 74.659 92.2309 74.9124C92.1211 75.1658 92.2375 75.4602 92.4909 75.57L92.8885 74.6524ZM114.648 85.1714C114.901 85.2812 115.196 85.1648 115.305 84.9114C115.415 84.658 115.299 84.3636 115.046 84.2538L114.648 85.1714ZM97.7384 64.2862C97.4705 64.3532 97.3076 64.6246 97.3746 64.8925C97.4415 65.1604 97.713 65.3233 97.9809 65.2563L97.7384 64.2862ZM115.707 60.8249C115.974 60.7579 116.137 60.4865 116.07 60.2186C116.003 59.9507 115.732 59.7878 115.464 59.8548L115.707 60.8249ZM58.2155 73.6341L58.2155 80.2812L59.2155 80.2812L59.2155 73.6341L58.2155 73.6341ZM58.2155 80.2812L58.2155 84.7126L59.2155 84.7126L59.2155 80.2812L58.2155 80.2812ZM64.6241 91.1211L69.0555 91.1211L69.0555 90.1211L64.6241 90.1211L64.6241 91.1211ZM75.464 84.7126L75.464 80.2812L74.464 80.2812L74.464 84.7126L75.464 84.7126ZM75.464 80.2812L75.464 73.6341L74.464 73.6341L74.464 80.2812L75.464 80.2812ZM58.7155 85.2126L74.964 85.2126L74.964 84.2126L58.7155 84.2126L58.7155 85.2126ZM58.7155 80.7812L74.964 80.7812L74.964 79.7812L58.7155 79.7812L58.7155 80.7812ZM69.0555 91.1211C72.5948 91.1211 75.464 88.2519 75.464 84.7126L74.464 84.7126C74.464 87.6996 72.0426 90.1211 69.0555 90.1211L69.0555 91.1211ZM58.2155 84.7126C58.2155 88.2519 61.0848 91.1211 64.6241 91.1211L64.6241 90.1211C61.637 90.1211 59.2155 87.6996 59.2155 84.7126L58.2155 84.7126ZM39.314 74.6524L17.157 84.2538L17.5546 85.1714L39.7116 75.57L39.314 74.6524ZM34.4641 64.2862L16.7385 59.8548L16.4959 60.8249L34.2215 65.2563L34.4641 64.2862ZM92.4909 75.57L114.648 85.1714L115.046 84.2538L92.8885 74.6524L92.4909 75.57ZM97.9809 65.2563L115.707 60.8249L115.464 59.8548L97.7384 64.2862L97.9809 65.2563Z" fill="#FFD02C"/>
<path d="M66.9043 17.416C53.0357 17.416 41.793 28.6587 41.793 42.5273C41.793 49.9287 44.9951 56.5823 50.0895 61.1781C50.9315 61.9377 51.7519 62.7249 52.4599 63.6106L56.3656 68.4965C57.21 69.5528 57.7552 70.8083 57.9554 72.1322C58.0503 72.7596 58.5559 73.2769 59.1904 73.2769L74.6182 73.2769C75.2527 73.2769 75.7583 72.7596 75.8531 72.1322C76.0533 70.8083 76.5985 69.5528 77.443 68.4965L81.3486 63.6106C82.0567 62.7249 82.8771 61.9377 83.719 61.1781C88.8135 56.5823 92.0156 49.9287 92.0156 42.5273C92.0156 28.6587 80.7729 17.416 66.9043 17.416Z" fill="#EAF5FF"/>
<path d="M62.4728 63.9478L52.1328 42.5293M71.3356 63.9478L81.6755 42.5293" stroke="white" stroke-linecap="round" stroke-linejoin="round"/>
<path d="M53.6094 38.0974L58.0408 33.666L62.4722 38.0974L66.9036 33.666L71.335 38.0974L75.7664 33.666L80.1978 38.0974" stroke="#FF5C52" stroke-linecap="round" stroke-linejoin="round"/>
</svg>
