<svg width="105" height="121" viewBox="0 0 105 121" fill="none" xmlns="http://www.w3.org/2000/svg">
<path d="M55.4687 84.7973C55.4687 87.3249 53.4121 89.3739 50.875 89.3739C48.3379 89.3739 46.2812 87.3249 46.2812 84.7973C46.2812 84.2624 46.3734 83.7489 46.5426 83.2718C47.1733 81.4942 48.8748 80.2207 50.875 80.2207C52.8751 80.2207 54.5767 81.4942 55.2074 83.2718C55.3766 83.7489 55.4687 84.2624 55.4687 84.7973Z" fill="white"/>
<path d="M67.7187 84.7973C67.7187 87.3249 65.662 89.3739 63.125 89.3739C60.5879 89.3739 58.5312 87.3249 58.5312 84.7973C58.5312 84.2624 58.6234 83.7489 58.7926 83.2718C59.4233 81.4942 61.1248 80.2207 63.125 80.2207C65.1251 80.2207 66.8267 81.4942 67.4573 83.2718C67.6266 83.7489 67.7187 84.2624 67.7187 84.7973Z" fill="white"/>
<path d="M46.7133 90.8133L47.1909 90.6654C47.1261 90.4561 46.9325 90.3133 46.7133 90.3133V90.8133ZM45.7097 83.5196V84.0196C45.8549 84.0196 45.993 83.9565 46.0879 83.8467C46.1829 83.7368 46.2254 83.5911 46.2045 83.4474L45.7097 83.5196ZM67.2867 90.8133V90.3133C67.0675 90.3133 66.8739 90.4561 66.809 90.6654L67.2867 90.8133ZM63.3977 96.5783L63.0773 96.1944L63.0773 96.1944L63.3977 96.5783ZM68.2903 83.5196L67.7955 83.4474C67.7745 83.5911 67.8171 83.7368 67.912 83.8467C68.007 83.9565 68.1451 84.0196 68.2903 84.0196V83.5196ZM34.8908 107.769L34.6528 107.329L34.6342 107.339L34.6165 107.351L34.8908 107.769ZM79.1091 107.769L79.3835 107.351L79.3658 107.339L79.3472 107.329L79.1091 107.769ZM46.0097 80.9665C46 80.6905 45.7684 80.4746 45.4925 80.4843C45.2165 80.494 45.0006 80.7256 45.0103 81.0016L46.0097 80.9665ZM68.9897 81.0016C68.9994 80.7256 68.7835 80.494 68.5075 80.4843C68.2315 80.4746 68 80.6905 67.9903 80.9665L68.9897 81.0016ZM42.7242 103.527L42.9622 103.967L42.9622 103.967L42.7242 103.527ZM46.5426 83.2718L46.0714 83.1046L46.5426 83.2718ZM67.4573 83.2718L67.9286 83.1046L67.4573 83.2718ZM57 106.844L57.0078 106.344L57 106.844ZM46.2357 90.9612C46.6748 92.3797 47.7298 94.4794 49.4835 96.232C51.2456 97.9931 53.7294 99.4174 57 99.4174V98.4174C54.0484 98.4174 51.807 97.1404 50.1904 95.5247C48.5654 93.9007 47.5881 91.9483 47.1909 90.6654L46.2357 90.9612ZM46.7133 90.3133C45.958 90.3133 45.3761 89.956 44.9474 89.3764C44.5095 88.7842 44.2419 87.9674 44.1694 87.1236C44.0967 86.278 44.2247 85.4636 44.5146 84.8824C44.7989 84.3123 45.202 84.0196 45.7097 84.0196V83.0196C44.7121 83.0196 44.0175 83.6386 43.6197 84.4361C43.2275 85.2225 43.089 86.2315 43.1731 87.2093C43.2573 88.189 43.5699 89.1956 44.1434 89.971C44.7261 90.7589 45.5869 91.3133 46.7133 91.3133V90.3133ZM66.809 90.6654C66.354 92.1354 65.1418 94.4719 63.0773 96.1944L63.718 96.9622C65.958 95.0933 67.2636 92.5785 67.7643 90.9612L66.809 90.6654ZM63.0773 96.1944C61.5388 97.478 59.5323 98.4174 57 98.4174V99.4174C59.8011 99.4174 62.0281 98.3721 63.718 96.9622L63.0773 96.1944ZM67.2867 91.3133C68.4131 91.3133 69.2739 90.7589 69.8566 89.971C70.43 89.1956 70.7427 88.189 70.8269 87.2093C70.911 86.2315 70.7725 85.2225 70.3803 84.4361C69.9825 83.6386 69.2879 83.0196 68.2903 83.0196V84.0196C68.798 84.0196 69.2011 84.3123 69.4854 84.8824C69.7753 85.4636 69.9033 86.278 69.8306 87.1236C69.758 87.9674 69.4905 88.7842 69.0526 89.3764C68.6238 89.956 68.042 90.3133 67.2867 90.3133V91.3133ZM34.6165 107.351C33.4571 108.111 32.7656 109.459 32.7656 110.893H33.7656C33.7656 109.772 34.3066 108.75 35.1651 108.187L34.6165 107.351ZM50.6023 96.5783C50.1225 96.4378 50.1225 96.4377 50.1225 96.4376C50.1225 96.4376 50.1225 96.4376 50.1225 96.4375C50.1226 96.4375 50.1225 96.4375 50.1225 96.4376C50.1225 96.4377 50.1224 96.438 50.1223 96.4385C50.122 96.4394 50.1215 96.4411 50.1208 96.4434C50.1194 96.448 50.1172 96.4554 50.1141 96.4654C50.108 96.4854 50.0986 96.5156 50.0859 96.555C50.0605 96.6338 50.0222 96.7488 49.9713 96.8906C49.8694 97.1748 49.7182 97.5632 49.5214 97.9806C49.1158 98.8411 48.5615 99.7255 47.9157 100.149L48.4643 100.985C49.3587 100.398 50.0105 99.2884 50.426 98.407C50.6398 97.9535 50.8029 97.5341 50.9126 97.2283C50.9676 97.075 51.0094 96.9495 51.0378 96.8615C51.052 96.8174 51.0628 96.7827 51.0702 96.7585C51.0739 96.7465 51.0768 96.737 51.0787 96.7303C51.0797 96.727 51.0805 96.7244 51.0811 96.7224C51.0814 96.7215 51.0816 96.7207 51.0818 96.7201C51.0819 96.7198 51.082 96.7195 51.082 96.7193C51.0821 96.7192 51.0821 96.7191 51.0821 96.719C51.0821 96.7189 51.0822 96.7188 50.6023 96.5783ZM65.5719 101.007L78.8711 108.208L79.3472 107.329L66.0481 100.128L65.5719 101.007ZM78.8348 108.187C79.6934 108.75 80.2344 109.772 80.2344 110.893H81.2344C81.2344 109.459 80.5428 108.111 79.3835 107.351L78.8348 108.187ZM63.3977 96.5783C62.9178 96.7188 62.9178 96.7189 62.9179 96.719C62.9179 96.7191 62.9179 96.7192 62.918 96.7193C62.918 96.7195 62.9181 96.7198 62.9182 96.7201C62.9184 96.7207 62.9186 96.7215 62.9189 96.7224C62.9194 96.7244 62.9202 96.727 62.9212 96.7303C62.9232 96.737 62.9261 96.7465 62.9298 96.7585C62.9372 96.7827 62.948 96.8174 62.9622 96.8615C62.9906 96.9495 63.0324 97.075 63.0874 97.2283C63.1971 97.5341 63.3602 97.9535 63.574 98.407C63.9895 99.2884 64.6413 100.398 65.5357 100.985L66.0843 100.149C65.4385 99.7255 64.8842 98.8411 64.4785 97.9806C64.2818 97.5632 64.1306 97.1748 64.0286 96.8906C63.9778 96.7488 63.9394 96.6338 63.9141 96.555C63.9014 96.5156 63.892 96.4854 63.8859 96.4654C63.8828 96.4554 63.8806 96.448 63.8792 96.4434C63.8785 96.4411 63.878 96.4394 63.8777 96.4385C63.8776 96.438 63.8775 96.4377 63.8775 96.4376C63.8774 96.4375 63.8774 96.4375 63.8774 96.4375C63.8774 96.4376 63.8775 96.4376 63.8775 96.4376C63.8775 96.4377 63.8775 96.4378 63.3977 96.5783ZM45.7097 83.5196C46.2045 83.4474 46.2045 83.4475 46.2045 83.4475C46.2045 83.4475 46.2045 83.4475 46.2045 83.4475C46.2045 83.4476 46.2045 83.4476 46.2045 83.4476C46.2045 83.4475 46.2045 83.4475 46.2045 83.4473C46.2044 83.4471 46.2044 83.4466 46.2042 83.4458C46.204 83.4443 46.2037 83.4419 46.2032 83.4385C46.2022 83.4317 46.2008 83.4211 46.1989 83.4069C46.195 83.3784 46.1894 83.3353 46.1824 83.2785C46.1683 83.1648 46.1489 82.9962 46.1278 82.7798C46.0855 82.3469 46.0363 81.7234 46.0097 80.9665L45.0103 81.0016C45.0378 81.7822 45.0885 82.4265 45.1325 82.877C45.1545 83.1024 45.1749 83.2794 45.1899 83.4008C45.1974 83.4616 45.2035 83.5085 45.2078 83.5406C45.21 83.5567 45.2117 83.5691 45.2129 83.5776C45.2135 83.5819 45.214 83.5853 45.2144 83.5876C45.2145 83.5888 45.2147 83.5898 45.2148 83.5905C45.2148 83.5908 45.2149 83.5911 45.2149 83.5913C45.2149 83.5914 45.2149 83.5915 45.2149 83.5916C45.2149 83.5917 45.2149 83.5917 45.2149 83.5917C45.215 83.5918 45.215 83.5918 45.7097 83.5196ZM68.2903 83.5196C68.785 83.5918 68.785 83.5918 68.785 83.5917C68.785 83.5917 68.785 83.5917 68.7851 83.5916C68.7851 83.5915 68.7851 83.5914 68.7851 83.5913C68.7851 83.5911 68.7852 83.5908 68.7852 83.5905C68.7853 83.5898 68.7855 83.5888 68.7856 83.5876C68.786 83.5853 68.7864 83.5819 68.787 83.5776C68.7883 83.5691 68.79 83.5567 68.7921 83.5406C68.7965 83.5085 68.8026 83.4616 68.8101 83.4008C68.8251 83.2794 68.8455 83.1024 68.8675 82.877C68.9115 82.4265 68.9622 81.7822 68.9897 81.0016L67.9903 80.9665C67.9637 81.7234 67.9145 82.3469 67.8722 82.7798C67.8511 82.9962 67.8316 83.1648 67.8176 83.2785C67.8106 83.3353 67.805 83.3784 67.8011 83.4069C67.7992 83.4211 67.7977 83.4317 67.7968 83.4385C67.7963 83.4419 67.796 83.4443 67.7957 83.4458C67.7956 83.4466 67.7956 83.4471 67.7955 83.4473C67.7955 83.4475 67.7955 83.4475 67.7955 83.4476C67.7955 83.4476 67.7955 83.4476 67.7955 83.4475C67.7955 83.4475 67.7955 83.4475 67.7955 83.4475C67.7955 83.4475 67.7955 83.4474 68.2903 83.5196ZM47.9261 100.992C51.2286 103.045 53.9266 104.155 56.7493 104.174C59.5689 104.193 62.431 103.122 66.0623 100.999L65.5576 100.136C61.9805 102.227 59.307 103.191 56.756 103.174C54.2079 103.157 51.7002 102.161 48.454 100.143L47.9261 100.992ZM47.9519 100.128L42.4861 103.087L42.9622 103.967L48.4281 101.007L47.9519 100.128ZM42.4861 103.087L34.6528 107.329L35.1289 108.208L42.9622 103.967L42.4861 103.087ZM54.9687 84.7973C54.9687 87.0469 53.1377 88.8739 50.875 88.8739V89.8739C53.6864 89.8739 55.9687 87.6028 55.9687 84.7973H54.9687ZM50.875 88.8739C48.6123 88.8739 46.7812 87.0469 46.7812 84.7973H45.7812C45.7812 87.6028 48.0636 89.8739 50.875 89.8739V88.8739ZM67.2187 84.7973C67.2187 87.0469 65.3877 88.8739 63.125 88.8739V89.8739C65.9364 89.8739 68.2187 87.6028 68.2187 84.7973H67.2187ZM63.125 88.8739C60.8623 88.8739 59.0312 87.0469 59.0312 84.7973H58.0312C58.0312 87.6028 60.3136 89.8739 63.125 89.8739V88.8739ZM50.875 80.7207C52.6578 80.7207 54.1744 81.8556 54.7361 83.4389L55.6786 83.1046C54.9791 81.1329 53.0924 79.7207 50.875 79.7207V80.7207ZM54.7361 83.4389C54.8866 83.8632 54.9687 84.3201 54.9687 84.7973H55.9687C55.9687 84.2046 55.8666 83.6346 55.6786 83.1046L54.7361 83.4389ZM59.0312 84.7973C59.0312 84.3201 59.1133 83.8632 59.2639 83.4389L58.3214 83.1046C58.1334 83.6346 58.0312 84.2046 58.0312 84.7973H59.0312ZM59.2639 83.4389C59.8256 81.8556 61.3422 80.7207 63.125 80.7207V79.7207C60.9075 79.7207 59.0209 81.1329 58.3214 83.1046L59.2639 83.4389ZM55.2074 83.7718H58.7926V82.7718H55.2074V83.7718ZM46.7812 84.7973C46.7812 84.3201 46.8634 83.8632 47.0139 83.4389L46.0714 83.1046C45.8834 83.6346 45.7812 84.2046 45.7812 84.7973H46.7812ZM47.0139 83.4389C47.5756 81.8556 49.0922 80.7207 50.875 80.7207V79.7207C48.6575 79.7207 46.7709 81.1329 46.0714 83.1046L47.0139 83.4389ZM63.125 80.7207C64.9078 80.7207 66.4244 81.8556 66.9861 83.4389L67.9286 83.1046C67.2291 81.1329 65.3424 79.7207 63.125 79.7207V80.7207ZM66.9861 83.4389C67.1366 83.8632 67.2187 84.3201 67.2187 84.7973H68.2187C68.2187 84.2046 68.1166 83.6346 67.9286 83.1046L66.9861 83.4389ZM44.6092 102.737C48.5027 105.742 52.8502 107.278 56.9921 107.344L57.0078 106.344C53.1028 106.282 48.9604 104.832 45.2202 101.945L44.6092 102.737ZM56.9921 107.344C61.4923 107.414 65.7395 105.745 68.8579 102.357L68.1221 101.68C65.2103 104.844 61.2435 106.41 57.0078 106.344L56.9921 107.344ZM56.5 106.844V110.893H57.5V106.844H56.5Z" fill="#86A4C1"/>
<path d="M1 3.72695V35.1092C1 36.393 2.04467 37.4338 3.33333 37.4338H62.8333C64.122 37.4338 65.1667 36.393 65.1667 35.1092V3.72695C65.1667 2.44311 64.122 1.40234 62.8333 1.40234H3.33333C2.04467 1.40234 1 2.44311 1 3.72695Z" fill="#EAF5FF"/>
<path d="M100.167 108.334H91.4167V74.6275H100.167V108.334Z" fill="#EAF5FF"/>
<path d="M23.1667 62.4233C23.1667 61.7814 23.689 61.261 24.3333 61.261H57V49.0568H15C14.3557 49.0568 13.8333 49.5772 13.8333 50.2191V108.334H23.1667V62.4233Z" fill="#EAF5FF"/>
<path d="M43.9844 80.9839C43.9844 80.9839 43.9844 67.2542 57 67.2542V72.3028C57 72.884 57.35 74.1625 58.75 74.6275H62.9843C61.5849 77.079 59.614 78.7934 54.2602 80.2974V75.492C51.3542 78.5802 48.6206 80.3867 43.9844 80.9839Z" fill="#EAF5FF"/>
<path d="M65.1667 42.083V44.4076C65.1667 45.6915 66.2113 46.7322 67.5 46.7322H102.5C103.789 46.7322 104.833 45.6915 104.833 44.4076V42.083C104.833 40.7992 103.789 39.7584 102.5 39.7584H67.5C66.2113 39.7584 65.1667 40.7992 65.1667 42.083Z" fill="#EAF5FF"/>
<path d="M66.3333 53.706H103.667C104.311 53.706 104.833 53.1857 104.833 52.5437C104.833 51.9018 104.311 51.3814 103.667 51.3814H66.3333C65.689 51.3814 65.1667 51.9018 65.1667 52.5437C65.1667 53.1857 65.689 53.706 66.3333 53.706Z" fill="#EAF5FF"/>
<path d="M66.3333 58.3553H103.667C104.311 58.3553 104.833 57.8349 104.833 57.193C104.833 56.551 104.311 56.0307 103.667 56.0307H66.3333C65.689 56.0307 65.1667 56.551 65.1667 57.193C65.1667 57.8349 65.689 58.3553 66.3333 58.3553Z" fill="#EAF5FF"/>
<path d="M66.3333 63.0045H103.667C104.311 63.0045 104.833 62.4841 104.833 61.8422C104.833 61.2002 104.311 60.6799 103.667 60.6799H66.3333C65.689 60.6799 65.1667 61.2002 65.1667 61.8422C65.1667 62.4841 65.689 63.0045 66.3333 63.0045Z" fill="#EAF5FF"/>
<path d="M66.3333 67.6537H103.667C104.311 67.6537 104.833 67.1333 104.833 66.4914C104.833 65.8495 104.311 65.3291 103.667 65.3291H66.3333C65.689 65.3291 65.1667 65.8495 65.1667 66.4914C65.1667 67.1333 65.689 67.6537 66.3333 67.6537Z" fill="#EAF5FF"/>
<path d="M70.0156 80.2974C66.8856 80.2974 65.8414 77.8811 65.1432 74.6275H68.7786C70.0156 77.581 70.0156 80.2974 70.0156 80.2974Z" fill="#EAF5FF"/>
<path d="M91.4167 108.334H90.9167V108.834H91.4167V108.334ZM100.167 108.334V108.834H100.667V108.334H100.167ZM23.1667 108.334V108.834H23.6667V108.334H23.1667ZM13.8333 108.334H13.3333V108.834H13.8333V108.334ZM57 67.2542H57.5C57.5 66.978 57.2761 66.7542 57 66.7542V67.2542ZM43.9844 80.9839L43.4844 80.9839C43.4844 81.1276 43.5462 81.2644 43.6542 81.3593C43.7621 81.4543 43.9057 81.4981 44.0482 81.4798L43.9844 80.9839ZM54.2602 75.492H54.7602C54.7602 75.287 54.635 75.1028 54.4445 75.0272C54.2539 74.9516 54.0365 75 53.896 75.1493L54.2602 75.492ZM54.2602 80.2974H53.7602C53.7602 80.4539 53.8334 80.6014 53.9582 80.6959C54.0829 80.7904 54.2447 80.8211 54.3954 80.7788L54.2602 80.2974ZM57 49.0568H57.5V48.5568H57V49.0568ZM57 61.261V61.761H57.5V61.261H57ZM91.4167 74.6275V74.1275H90.9167V74.6275H91.4167ZM100.167 74.6275H100.667V74.1275H100.167V74.6275ZM58.75 74.6275L58.5924 75.102L58.6691 75.1275H58.75V74.6275ZM62.9843 74.6275L63.4185 74.8753L63.8454 74.1275H62.9843V74.6275ZM65.1432 74.6275V74.1275H64.5245L64.6543 74.7324L65.1432 74.6275ZM70.0156 80.2974V80.7974C70.1482 80.7974 70.2754 80.7447 70.3692 80.6509C70.4629 80.5572 70.5156 80.43 70.5156 80.2974L70.0156 80.2974ZM68.7786 74.6275L69.2398 74.4343L69.1112 74.1275H68.7786V74.6275ZM1.5 35.1092V3.72695H0.5V35.1092H1.5ZM1.5 3.72695C1.5 2.72101 2.31905 1.90234 3.33333 1.90234V0.902344C1.7703 0.902344 0.5 2.1652 0.5 3.72695H1.5ZM3.33333 1.90234H62.8333V0.902344H3.33333V1.90234ZM62.8333 1.90234C63.8476 1.90234 64.6667 2.72101 64.6667 3.72695H65.6667C65.6667 2.1652 64.3964 0.902344 62.8333 0.902344V1.90234ZM64.6667 3.72695V35.1092H65.6667V3.72695H64.6667ZM64.6667 35.1092C64.6667 36.1151 63.8476 36.9338 62.8333 36.9338V37.9338C64.3964 37.9338 65.6667 36.6709 65.6667 35.1092H64.6667ZM62.8333 36.9338H3.33333V37.9338H62.8333V36.9338ZM3.33333 36.9338C2.31904 36.9338 1.5 36.1151 1.5 35.1092H0.5C0.5 36.6709 1.7703 37.9338 3.33333 37.9338V36.9338ZM91.4167 108.834H100.167V107.834H91.4167V108.834ZM24.3333 60.761C23.4146 60.761 22.6667 61.5035 22.6667 62.4233H23.6667C23.6667 62.0593 23.9634 61.761 24.3333 61.761V60.761ZM22.6667 62.4233V108.334H23.6667V62.4233H22.6667ZM13.8333 108.834H23.1667V107.834H13.8333V108.834ZM13.3333 50.2191V108.334H14.3333V50.2191H13.3333ZM15 48.5568C14.0813 48.5568 13.3333 49.2993 13.3333 50.2191H14.3333C14.3333 49.8551 14.63 49.5568 15 49.5568V48.5568ZM57 66.7542C53.6529 66.7542 51.11 67.6387 49.1877 68.9904C47.27 70.3391 46.0001 72.1315 45.1595 73.9049C44.3196 75.6769 43.9021 77.4425 43.6939 78.7606C43.5896 79.4209 43.5372 79.9721 43.5109 80.3601C43.4978 80.5542 43.4912 80.7077 43.4878 80.8139C43.4861 80.867 43.4853 80.9082 43.4848 80.9368C43.4846 80.9512 43.4845 80.9623 43.4844 80.9702C43.4844 80.9741 43.4844 80.9772 43.4844 80.9795C43.4844 80.9807 43.4844 80.9816 43.4844 80.9823C43.4844 80.9827 43.4844 80.9831 43.4844 80.9833C43.4844 80.9836 43.4844 80.9839 43.9844 80.9839C44.4844 80.9839 44.4844 80.9841 44.4844 80.9842C44.4844 80.9842 44.4844 80.9842 44.4844 80.9842C44.4844 80.9841 44.4844 80.9838 44.4844 80.9832C44.4844 80.9822 44.4844 80.9804 44.4844 80.9777C44.4845 80.9724 44.4845 80.9638 44.4847 80.9521C44.4851 80.9288 44.4858 80.893 44.4873 80.8455C44.4903 80.7505 44.4964 80.609 44.5087 80.4277C44.5332 80.0649 44.5826 79.5435 44.6816 78.9166C44.8801 77.6604 45.2761 75.9936 46.0632 74.3332C46.8496 72.6741 48.0201 71.0341 49.763 69.8084C51.5014 68.5859 53.8393 67.7542 57 67.7542V66.7542ZM44.0482 81.4798C48.8254 80.8645 51.6592 78.9857 54.6243 75.8346L53.896 75.1493C51.0493 78.1746 48.4158 79.909 43.9205 80.488L44.0482 81.4798ZM53.7602 75.492V80.2974H54.7602V75.492H53.7602ZM65.6667 44.4076V42.083H64.6667V44.4076H65.6667ZM65.6667 42.083C65.6667 41.0771 66.4857 40.2584 67.5 40.2584V39.2584C65.937 39.2584 64.6667 40.5212 64.6667 42.083H65.6667ZM67.5 40.2584H102.5V39.2584H67.5V40.2584ZM102.5 40.2584C103.514 40.2584 104.333 41.0771 104.333 42.083H105.333C105.333 40.5212 104.063 39.2584 102.5 39.2584V40.2584ZM104.333 42.083V44.4076H105.333V42.083H104.333ZM104.333 44.4076C104.333 45.4136 103.514 46.2322 102.5 46.2322V47.2322C104.063 47.2322 105.333 45.9694 105.333 44.4076H104.333ZM102.5 46.2322H67.5V47.2322H102.5V46.2322ZM67.5 46.2322C66.4857 46.2322 65.6667 45.4135 65.6667 44.4076H64.6667C64.6667 45.9694 65.937 47.2322 67.5 47.2322V46.2322ZM103.667 53.206H66.3333V54.206H103.667V53.206ZM66.3333 53.206C65.9634 53.206 65.6667 52.9078 65.6667 52.5437H64.6667C64.6667 53.4636 65.4146 54.206 66.3333 54.206V53.206ZM65.6667 52.5437C65.6667 52.1797 65.9634 51.8814 66.3333 51.8814V50.8814C65.4146 50.8814 64.6667 51.6239 64.6667 52.5437H65.6667ZM66.3333 51.8814H103.667V50.8814H66.3333V51.8814ZM103.667 51.8814C104.037 51.8814 104.333 52.1797 104.333 52.5437H105.333C105.333 51.6239 104.585 50.8814 103.667 50.8814V51.8814ZM104.333 52.5437C104.333 52.9078 104.037 53.206 103.667 53.206V54.206C104.585 54.206 105.333 53.4636 105.333 52.5437H104.333ZM103.667 57.8553H66.3333V58.8553H103.667V57.8553ZM66.3333 57.8553C65.9634 57.8553 65.6667 57.557 65.6667 57.193H64.6667C64.6667 58.1128 65.4146 58.8553 66.3333 58.8553V57.8553ZM65.6667 57.193C65.6667 56.8289 65.9634 56.5307 66.3333 56.5307V55.5307C65.4146 55.5307 64.6667 56.2731 64.6667 57.193H65.6667ZM66.3333 56.5307H103.667V55.5307H66.3333V56.5307ZM103.667 56.5307C104.037 56.5307 104.333 56.8289 104.333 57.193H105.333C105.333 56.2731 104.585 55.5307 103.667 55.5307V56.5307ZM104.333 57.193C104.333 57.557 104.037 57.8553 103.667 57.8553V58.8553C104.585 58.8553 105.333 58.1128 105.333 57.193H104.333ZM103.667 62.5045H66.3333V63.5045H103.667V62.5045ZM66.3333 62.5045C65.9634 62.5045 65.6667 62.2062 65.6667 61.8422H64.6667C64.6667 62.762 65.4146 63.5045 66.3333 63.5045V62.5045ZM65.6667 61.8422C65.6667 61.4782 65.9634 61.1799 66.3333 61.1799V60.1799C65.4146 60.1799 64.6667 60.9223 64.6667 61.8422H65.6667ZM66.3333 61.1799H103.667V60.1799H66.3333V61.1799ZM103.667 61.1799C104.037 61.1799 104.333 61.4781 104.333 61.8422H105.333C105.333 60.9223 104.585 60.1799 103.667 60.1799V61.1799ZM104.333 61.8422C104.333 62.2062 104.037 62.5045 103.667 62.5045V63.5045C104.585 63.5045 105.333 62.762 105.333 61.8422H104.333ZM103.667 67.1537H66.3333V68.1537H103.667V67.1537ZM66.3333 67.1537C65.9634 67.1537 65.6667 66.8554 65.6667 66.4914H64.6667C64.6667 67.4112 65.4146 68.1537 66.3333 68.1537V67.1537ZM65.6667 66.4914C65.6667 66.1274 65.9634 65.8291 66.3333 65.8291V64.8291C65.4146 64.8291 64.6667 65.5716 64.6667 66.4914H65.6667ZM66.3333 65.8291H103.667V64.8291H66.3333V65.8291ZM103.667 65.8291C104.037 65.8291 104.333 66.1274 104.333 66.4914H105.333C105.333 65.5716 104.585 64.8291 103.667 64.8291V65.8291ZM104.333 66.4914C104.333 66.8554 104.037 67.1537 103.667 67.1537V68.1537C104.585 68.1537 105.333 67.4112 105.333 66.4914H104.333ZM57 48.5568H15V49.5568H57V48.5568ZM57 60.761H24.3333V61.761H57V60.761ZM56.5 49.0568V61.261H57.5V49.0568H56.5ZM91.9167 108.334V74.6275H90.9167V108.334H91.9167ZM100.667 108.334V74.6275H99.6667V108.334H100.667ZM91.4167 75.1275H100.167V74.1275H91.4167V75.1275ZM56.5 67.2542V72.3028H57.5V67.2542H56.5ZM56.5 72.3028C56.5 73.0141 56.9172 74.5457 58.5924 75.102L58.9076 74.1529C57.7828 73.7794 57.5 72.7539 57.5 72.3028H56.5ZM54.3954 80.7788C57.1004 80.0188 58.9896 79.1956 60.3892 78.2292C61.7992 77.2557 62.6892 76.153 63.4185 74.8753L62.55 74.3796C61.88 75.5535 61.0849 76.5337 59.8211 77.4063C58.5469 78.286 56.7737 79.0719 54.1249 79.816L54.3954 80.7788ZM58.75 75.1275H62.9843V74.1275H58.75V75.1275ZM64.6543 74.7324C65.005 76.3668 65.4573 77.8754 66.2639 78.9778C67.0984 80.1183 68.2924 80.7974 70.0156 80.7974V79.7974C68.6088 79.7974 67.7156 79.2683 67.071 78.3873C66.3984 77.4682 65.9795 76.1417 65.632 74.5226L64.6543 74.7324ZM70.0156 80.2974C70.5156 80.2974 70.5156 80.2973 70.5156 80.2971C70.5156 80.2971 70.5156 80.2969 70.5156 80.2968C70.5156 80.2966 70.5156 80.2963 70.5156 80.296C70.5156 80.2954 70.5156 80.2946 70.5156 80.2936C70.5156 80.2917 70.5156 80.2891 70.5156 80.2859C70.5155 80.2795 70.5154 80.2704 70.5153 80.2588C70.5149 80.2357 70.5143 80.2025 70.513 80.1598C70.5104 80.0745 70.5053 79.9511 70.4953 79.7947C70.4752 79.4821 70.4352 79.0364 70.3556 78.497C70.1967 77.4199 69.8786 75.9597 69.2398 74.4343L68.3174 74.8206C68.9156 76.2488 69.216 77.6235 69.3663 78.643C69.4414 79.1518 69.4788 79.5699 69.4973 79.8589C69.5066 80.0033 69.5112 80.1153 69.5134 80.19C69.5146 80.2274 69.5151 80.2554 69.5154 80.2735C69.5155 80.2825 69.5156 80.2891 69.5156 80.2931C69.5156 80.2951 69.5156 80.2965 69.5156 80.2972C69.5156 80.2976 69.5156 80.2978 69.5156 80.2978C69.5156 80.2978 69.5156 80.2978 69.5156 80.2977C69.5156 80.2977 69.5156 80.2976 69.5156 80.2976C69.5156 80.2975 69.5156 80.2974 70.0156 80.2974ZM65.1432 75.1275H68.7786V74.1275H65.1432V75.1275Z" fill="#EAF5FF"/>
<path d="M43.9844 80.9837C43.9844 80.9837 43.9844 67.254 57 67.254V72.3027C57 72.8838 57.35 74.1623 58.75 74.6273H62.9843C61.5849 77.0789 59.614 78.7932 54.2602 80.2972V75.4918C51.3542 78.58 48.6206 80.3865 43.9844 80.9837Z" fill="#FF5C52"/>
<path d="M70.0156 80.2972C66.8856 80.2972 65.8414 77.8809 65.1432 74.6273H68.7786C70.0156 77.5808 70.0156 80.2972 70.0156 80.2972Z" fill="#FF5C52"/>
<path d="M57 67.254H57.5C57.5 66.9778 57.2761 66.754 57 66.754V67.254ZM43.9844 80.9837L43.4844 80.9837C43.4844 81.1274 43.5462 81.2642 43.6542 81.3591C43.7621 81.4541 43.9057 81.498 44.0482 81.4796L43.9844 80.9837ZM54.2602 75.4918H54.7602C54.7602 75.2868 54.635 75.1026 54.4445 75.027C54.2539 74.9514 54.0365 74.9999 53.896 75.1492L54.2602 75.4918ZM54.2602 80.2972H53.7602C53.7602 80.4537 53.8334 80.6012 53.9582 80.6957C54.0829 80.7902 54.2447 80.8209 54.3954 80.7786L54.2602 80.2972ZM58.75 74.6273L58.5924 75.1018L58.6692 75.1273H58.75V74.6273ZM62.9843 74.6273L63.4185 74.8751L63.8454 74.1273H62.9843V74.6273ZM65.1432 74.6273V74.1273H64.5245L64.6543 74.7322L65.1432 74.6273ZM70.0156 80.2972V80.7972C70.1482 80.7972 70.2754 80.7445 70.3692 80.6508C70.463 80.557 70.5156 80.4298 70.5156 80.2972L70.0156 80.2972ZM68.7786 74.6273L69.2398 74.4341L69.1112 74.1273H68.7786V74.6273ZM57 66.754C53.653 66.754 51.11 67.6385 49.1877 68.9902C47.27 70.3389 46.0001 72.1313 45.1595 73.9047C44.3196 75.6767 43.9021 77.4423 43.6939 78.7604C43.5896 79.4207 43.5372 79.9719 43.5109 80.36C43.4978 80.5541 43.4912 80.7076 43.4878 80.8137C43.4861 80.8668 43.4853 80.9081 43.4848 80.9367C43.4846 80.951 43.4845 80.9621 43.4844 80.97C43.4844 80.9739 43.4844 80.977 43.4844 80.9793C43.4844 80.9805 43.4844 80.9814 43.4844 80.9821C43.4844 80.9825 43.4844 80.9829 43.4844 80.9831C43.4844 80.9834 43.4844 80.9837 43.9844 80.9837C44.4844 80.9837 44.4844 80.9839 44.4844 80.984C44.4844 80.984 44.4844 80.984 44.4844 80.984C44.4844 80.9839 44.4844 80.9836 44.4844 80.9831C44.4844 80.982 44.4844 80.9802 44.4844 80.9775C44.4845 80.9722 44.4845 80.9636 44.4847 80.9519C44.4851 80.9286 44.4858 80.8928 44.4873 80.8453C44.4903 80.7503 44.4964 80.6088 44.5087 80.4275C44.5332 80.0647 44.5826 79.5433 44.6816 78.9165C44.8801 77.6602 45.2761 75.9934 46.0632 74.333C46.8496 72.6739 48.0201 71.0339 49.763 69.8082C51.5014 68.5857 53.8393 67.754 57 67.754V66.754ZM44.0482 81.4796C48.8254 80.8643 51.6592 78.9855 54.6243 75.8344L53.896 75.1492C51.0493 78.1744 48.4158 79.9088 43.9205 80.4878L44.0482 81.4796ZM53.7602 75.4918V80.2972H54.7602V75.4918H53.7602ZM66.3333 67.1535C65.9634 67.1535 65.6667 66.8552 65.6667 66.4912H64.6667C64.6667 67.411 65.4146 68.1535 66.3333 68.1535V67.1535ZM56.5 67.254V72.3027H57.5V67.254H56.5ZM56.5 72.3027C56.5 73.0139 56.9172 74.5455 58.5924 75.1018L58.9076 74.1527C57.7828 73.7792 57.5 72.7537 57.5 72.3027H56.5ZM54.3954 80.7786C57.1004 80.0187 58.9896 79.1954 60.3892 78.229C61.7992 77.2555 62.6892 76.1528 63.4185 74.8751L62.55 74.3794C61.88 75.5533 61.0849 76.5335 59.8211 77.4061C58.5469 78.2858 56.7737 79.0717 54.1249 79.8158L54.3954 80.7786ZM58.75 75.1273H62.9843V74.1273H58.75V75.1273ZM64.6543 74.7322C65.005 76.3666 65.4573 77.8752 66.2639 78.9776C67.0984 80.1181 68.2924 80.7972 70.0156 80.7972V79.7972C68.6088 79.7972 67.7156 79.2682 67.071 78.3871C66.3984 77.468 65.9795 76.1415 65.632 74.5224L64.6543 74.7322ZM70.0156 80.2972C70.5156 80.2972 70.5156 80.2971 70.5156 80.2969C70.5156 80.2969 70.5156 80.2967 70.5156 80.2966C70.5156 80.2964 70.5156 80.2961 70.5156 80.2958C70.5156 80.2952 70.5156 80.2944 70.5156 80.2934C70.5156 80.2915 70.5156 80.2889 70.5156 80.2857C70.5155 80.2793 70.5154 80.2702 70.5153 80.2587C70.5149 80.2355 70.5143 80.2023 70.513 80.1596C70.5104 80.0743 70.5053 79.951 70.4953 79.7946C70.4752 79.4819 70.4352 79.0363 70.3556 78.4968C70.1968 77.4197 69.8786 75.9595 69.2398 74.4341L68.3174 74.8204C68.9156 76.2486 69.216 77.6233 69.3664 78.6428C69.4414 79.1517 69.4788 79.5697 69.4973 79.8587C69.5066 80.0031 69.5112 80.1151 69.5134 80.1898C69.5146 80.2272 69.5151 80.2552 69.5154 80.2733C69.5155 80.2824 69.5156 80.2889 69.5156 80.2929C69.5156 80.2949 69.5156 80.2963 69.5156 80.297C69.5156 80.2974 69.5156 80.2976 69.5156 80.2976C69.5156 80.2976 69.5156 80.2976 69.5156 80.2975C69.5156 80.2975 69.5156 80.2974 69.5156 80.2974C69.5156 80.2973 69.5156 80.2972 70.0156 80.2972ZM65.1432 75.1273H68.7786V74.1273H65.1432V75.1273Z" fill="#FF5C52"/>
<ellipse cx="50.8789" cy="84.797" rx="1.53125" ry="1.52553" fill="#86A4C1"/>
<ellipse cx="63.125" cy="84.797" rx="1.53125" ry="1.52553" fill="#86A4C1"/>
<path d="M9.16711 108.385H104.713H111.857C112.133 108.385 112.357 108.609 112.357 108.885V118.402C112.357 119.507 111.461 120.402 110.357 120.402H3.52344C2.41887 120.402 1.52344 119.507 1.52344 118.402V108.885C1.52344 108.609 1.7473 108.385 2.02344 108.385H9.16711Z" fill="white" stroke="#86A4C1"/>
<path d="M104.713 108.383H9.16711M104.713 108.383H111.773C112.096 108.383 112.357 108.643 112.357 108.964V118.076C112.357 119.36 111.312 120.401 110.023 120.401H3.85677C2.56811 120.401 1.52344 119.36 1.52344 118.076V108.964C1.52344 108.643 1.7846 108.383 2.10677 108.383H9.16711M104.713 108.383V74.6271M9.16711 108.383V47.313C9.16711 46.0291 10.2118 44.9884 11.5004 44.9884H56.9401M57.0005 38.0145V72.3025C57.0005 73.5864 58.0451 74.6271 59.3338 74.6271H110.084C111.372 74.6271 112.417 73.5864 112.417 72.3025V35.1088C112.417 33.8249 111.372 32.7842 110.084 32.7842H65.7505" stroke="#86A4C1"/>
<path d="M1 8.37598H65.1667M6.83333 33.9467H24.3333C25.622 33.9467 26.6667 32.9059 26.6667 31.6221V14.1875C26.6667 12.9037 25.622 11.8629 24.3333 11.8629H6.83333C5.54467 11.8629 4.5 12.9037 4.5 14.1875V31.6221C4.5 32.9059 5.54467 33.9467 6.83333 33.9467ZM34.25 17.6744H59.9167C60.8832 17.6744 61.6667 16.8938 61.6667 15.931C61.6667 14.9681 60.8832 14.1875 59.9167 14.1875H34.25C33.2835 14.1875 32.5 14.9681 32.5 15.931C32.5 16.8938 33.2835 17.6744 34.25 17.6744ZM34.25 24.6482H59.9167C60.8832 24.6482 61.6667 23.8677 61.6667 22.9048C61.6667 21.9419 60.8832 21.1613 59.9167 21.1613H34.25C33.2835 21.1613 32.5 21.9419 32.5 22.9048C32.5 23.8677 33.2835 24.6482 34.25 24.6482ZM34.25 31.6221H59.9167C60.8832 31.6221 61.6667 30.8415 61.6667 29.8786C61.6667 28.9157 60.8832 28.1351 59.9167 28.1351H34.25C33.2835 28.1351 32.5 28.9157 32.5 29.8786C32.5 30.8415 33.2835 31.6221 34.25 31.6221Z" stroke="white"/>
</svg>
