<svg width="115" height="107" viewBox="0 0 115 107" fill="none" xmlns="http://www.w3.org/2000/svg">
<path d="M82.3095 63.5442C81.8151 64.9778 84.9107 68.5092 87.3642 69.9417C87.7909 70.5179 88.4012 71.1721 88.8274 71.7481L87.9252 71.442C85.521 70.5994 83.2605 69.3945 81.0088 68.193L81.0576 66.4983C80.6595 64.5432 78.0476 63.0927 77.949 62.884C77.9401 62.8652 77.63 62.4287 77.0741 61.6494L81.5512 62.2015C81.8407 62.5794 82.124 62.9478 82.4007 63.306L82.3095 63.5442Z" fill="#EAF5FF"/>
<path d="M93.3555 77.8715L92.5256 76.679C92.3401 77.0101 92.0962 77.2556 91.7689 77.4788C92.336 77.609 92.8105 77.727 93.3555 77.8715Z" fill="#EAF5FF"/>
<path d="M82.3095 63.5442L81.8368 63.3812C81.8387 63.3758 81.8406 63.3705 81.8426 63.3653L82.3095 63.5442ZM87.3642 69.9417L87.6163 69.5099C87.6747 69.544 87.7257 69.5897 87.766 69.6441L87.3642 69.9417ZM88.8274 71.7481L89.2293 71.4507C89.3593 71.6264 89.3601 71.8663 89.2312 72.0428C89.1023 72.2194 88.8737 72.2918 88.6667 72.2216L88.8274 71.7481ZM87.9252 71.442L87.7645 71.9155L87.7598 71.9138L87.9252 71.442ZM81.0088 68.193L80.7735 68.6341C80.606 68.5448 80.5036 68.3683 80.5091 68.1786L81.0088 68.193ZM81.0576 66.4983L81.5476 66.3986C81.5552 66.4361 81.5585 66.4744 81.5574 66.5127L81.0576 66.4983ZM77.949 62.884L78.4011 62.6704L78.4011 62.6704L77.949 62.884ZM77.0741 61.6494L76.667 61.9398C76.5519 61.7783 76.543 61.5641 76.6444 61.3937C76.7459 61.2233 76.9385 61.1289 77.1353 61.1532L77.0741 61.6494ZM81.5512 62.2015L81.6124 61.7053C81.7456 61.7217 81.8666 61.7909 81.9482 61.8975L81.5512 62.2015ZM82.4007 63.306L82.7964 63.0003C82.9031 63.1383 82.9301 63.322 82.8677 63.4849L82.4007 63.306ZM93.3555 77.8715L93.7659 77.5859C93.8857 77.7581 93.8853 77.9866 93.765 78.1584C93.6447 78.3301 93.43 78.4086 93.2273 78.3548L93.3555 77.8715ZM92.5256 76.679L92.0894 76.4346C92.1736 76.2843 92.3292 76.1879 92.5013 76.1796C92.6733 76.1712 92.8376 76.252 92.936 76.3934L92.5256 76.679ZM91.7689 77.4788L91.657 77.9661C91.4633 77.9217 91.3144 77.7667 91.2775 77.5715C91.2407 77.3762 91.323 77.1777 91.4872 77.0657L91.7689 77.4788ZM82.7822 63.7072C82.7254 63.8718 82.7513 64.2053 82.9988 64.7357C83.234 65.2398 83.624 65.8245 84.1179 66.4261C85.1072 67.6314 86.4508 68.8295 87.6163 69.5099L87.1121 70.3735C85.824 69.6215 84.3932 68.3376 83.3449 67.0606C82.82 66.4211 82.3754 65.7646 82.0926 65.1586C81.8221 64.5789 81.6464 63.9333 81.8368 63.3812L82.7822 63.7072ZM87.766 69.6441C87.9682 69.9171 88.2165 70.2121 88.4783 70.5228C88.735 70.8273 89.005 71.1475 89.2293 71.4507L88.4254 72.0454C88.2236 71.7726 87.9754 71.4778 87.7136 71.1672C87.457 70.8627 87.1869 70.5424 86.9623 70.2393L87.766 69.6441ZM88.6667 72.2216L87.7645 71.9154L88.0859 70.9685L88.988 71.2746L88.6667 72.2216ZM87.7598 71.9138C85.3134 71.0565 83.0195 69.8327 80.7735 68.6341L81.2442 67.7519C83.5016 68.9564 85.7285 70.1423 88.0906 70.9701L87.7598 71.9138ZM80.5091 68.1786L80.5578 66.484L81.5574 66.5127L81.5086 68.2074L80.5091 68.1786ZM80.5677 66.5981C80.4029 65.7887 79.7587 65.0296 79.0596 64.4106C78.7191 64.1092 78.3854 63.8578 78.1231 63.6639C77.9958 63.5698 77.8756 63.4822 77.7877 63.4138C77.7436 63.3795 77.6977 63.3426 77.6581 63.3063C77.6379 63.2878 77.5502 63.2104 77.4969 63.0976L78.4011 62.6704C78.3601 62.5837 78.3043 62.5421 78.3334 62.5687C78.3431 62.5776 78.3638 62.5951 78.4014 62.6243C78.4767 62.6828 78.5799 62.758 78.7176 62.8598C78.9852 63.0576 79.3478 63.3302 79.7224 63.6619C80.4534 64.3091 81.3143 65.2528 81.5476 66.3986L80.5677 66.5981ZM77.4969 63.0976C77.5052 63.1151 77.5126 63.1281 77.5147 63.1318C77.5179 63.1373 77.5205 63.1415 77.5217 63.1435C77.5231 63.1458 77.5241 63.1474 77.5246 63.1482C77.5252 63.149 77.5255 63.1495 77.5255 63.1495C77.5256 63.1496 77.5254 63.1494 77.5251 63.1489C77.5248 63.1484 77.5243 63.1477 77.5237 63.1468C77.5225 63.145 77.5208 63.1425 77.5187 63.1394C77.5099 63.1266 77.4962 63.1068 77.477 63.0794C77.439 63.025 77.3827 62.9453 77.3088 62.8411C77.1611 62.6328 76.945 62.3294 76.667 61.9398L77.4811 61.359C77.7591 61.7487 77.9759 62.0531 78.1245 62.2626C78.1987 62.3673 78.2564 62.449 78.2963 62.5061C78.3162 62.5344 78.3325 62.5579 78.3446 62.5756C78.3505 62.5842 78.3566 62.5933 78.3621 62.6016C78.3647 62.6056 78.3686 62.6117 78.3728 62.6185C78.3731 62.6189 78.3874 62.6416 78.4011 62.6704L77.4969 63.0976ZM77.1353 61.1532L81.6124 61.7053L81.49 62.6977L77.0129 62.1457L77.1353 61.1532ZM81.9482 61.8975C82.2372 62.2749 82.5201 62.6427 82.7964 63.0003L82.0051 63.6117C81.7279 63.2529 81.4441 62.884 81.1543 62.5055L81.9482 61.8975ZM82.8677 63.4849L82.7764 63.723L81.8426 63.3653L81.9338 63.1271L82.8677 63.4849ZM92.9451 78.1571L92.1152 76.9646L92.936 76.3934L93.7659 77.5859L92.9451 78.1571ZM92.9618 76.9233C92.7315 77.3345 92.4287 77.634 92.0506 77.8919L91.4872 77.0657C91.7638 76.8771 91.9487 76.6858 92.0894 76.4346L92.9618 76.9233ZM91.8808 76.9915C92.4536 77.123 92.9336 77.2423 93.4837 77.3882L93.2273 78.3548C92.6875 78.2116 92.2185 78.095 91.657 77.9661L91.8808 76.9915Z" fill="#EAF5FF"/>
<path d="M3.21441 85.2591H21.4729C22.3897 85.2591 23.1328 84.5176 23.1328 83.6029C23.1328 82.6881 22.3897 81.9466 21.4729 81.9466H5.42756C4.81642 81.9466 4.32099 81.4523 4.32099 80.8424V64.832C4.32099 63.9173 3.57784 63.1758 2.66112 63.1758C1.7444 63.1758 1.00125 63.9173 1.00125 64.832V83.0508C1.00125 84.2704 1.99212 85.2591 3.21441 85.2591Z" fill="#EAF5FF"/>
<path d="M3.21441 84.7591H21.4729V85.7591H3.21441V84.7591ZM21.4729 84.7591C22.1146 84.7591 22.6328 84.2404 22.6328 83.6029H23.6328C23.6328 84.7948 22.6648 85.7591 21.4729 85.7591V84.7591ZM22.6328 83.6029C22.6328 82.9653 22.1146 82.4466 21.4729 82.4466V81.4466C22.6648 81.4466 23.6328 82.411 23.6328 83.6029H22.6328ZM21.4729 82.4466H5.42756V81.4466H21.4729V82.4466ZM5.42756 82.4466C4.5413 82.4466 3.82099 81.7294 3.82099 80.8424H4.82099C4.82099 81.1751 5.09153 81.4466 5.42756 81.4466V82.4466ZM3.82099 80.8424V64.832H4.82099V80.8424H3.82099ZM3.82099 64.832C3.82099 64.1945 3.30272 63.6758 2.66112 63.6758V62.6758C3.85295 62.6758 4.82099 63.6401 4.82099 64.832H3.82099ZM2.66112 63.6758C2.01951 63.6758 1.50125 64.1945 1.50125 64.832H0.501251C0.501251 63.6401 1.46929 62.6758 2.66112 62.6758V63.6758ZM1.50125 64.832V83.0508H0.501251V64.832H1.50125ZM1.50125 83.0508C1.50125 83.9932 2.26723 84.7591 3.21441 84.7591V85.7591C1.717 85.7591 0.501251 84.5476 0.501251 83.0508H1.50125Z" fill="#EAF5FF"/>
<path d="M37.7412 30.8654C36.6074 30.3454 35.335 31.0381 34.9952 32.2362L33.7908 36.4822C33.4715 37.6082 34.1078 38.7652 35.1042 39.3823C35.7119 39.7586 36.2862 40.21 36.8138 40.7365C40.5148 44.4294 40.5148 50.4169 36.8138 54.1098C36.1027 54.8194 35.3066 55.3927 34.4583 55.8296C33.416 56.3664 32.6906 57.4701 32.9206 58.6177L33.7878 62.944C34.0325 64.1649 35.2464 64.9549 36.4177 64.5258C38.8277 63.6429 41.0886 62.2362 43.0233 60.3057C50.1537 53.1909 50.1537 41.6554 43.0233 34.5405C41.4472 32.9678 39.6546 31.7428 37.7412 30.8654Z" fill="#EAF5FF"/>
<path d="M111.526 31.3193L111.237 30.9113L111.746 30.5504L111.987 31.1267L111.526 31.3193ZM94.3735 43.4652L94.6625 43.8732L94.172 44.2205L93.9197 43.6751L94.3735 43.4652ZM84.4143 21.9339L84.1176 21.5315L84.6108 21.1677L84.8682 21.724L84.4143 21.9339ZM71.6887 31.3193L71.9855 31.7217L71.5528 32.0409L71.2658 31.5862L71.6887 31.3193ZM62.2828 16.4131L62.0225 15.9862L62.4429 15.7298L62.7056 16.1463L62.2828 16.4131ZM95.2905 83.9492C95.017 83.9869 94.7646 83.7957 94.727 83.5221C94.6893 83.2486 94.8805 82.9963 95.1541 82.9586L95.2905 83.9492ZM99.3188 84.9469L99.7886 84.7758L99.7889 84.7766L99.3188 84.9469ZM97.8101 87.6441L98.0699 88.0713L98.0697 88.0715L97.8101 87.6441ZM88.9355 89.9845C88.6606 89.9581 88.4592 89.7139 88.4855 89.439C88.5118 89.1642 88.756 88.9627 89.0309 88.989L88.9355 89.9845ZM100.547 80.699C100.758 80.8771 100.785 81.1925 100.606 81.4036C100.428 81.6146 100.113 81.6413 99.9019 81.4632L100.547 80.699ZM94.1785 73.0391L93.811 73.3782C93.8024 73.3688 93.7941 73.3591 93.7862 73.3491L94.1785 73.0391ZM82.3046 63.5439L81.832 63.3809L82.3046 63.5439ZM84.7249 62.0573L84.6141 62.5449C84.6031 62.5424 84.5922 62.5395 84.5814 62.5363L84.7249 62.0573ZM93.1758 65.2075L93.0948 65.7009C93.0848 65.6992 93.0749 65.6973 93.065 65.695L93.1758 65.2075ZM108.413 68.5363L108.734 68.153C108.74 68.1578 108.745 68.1628 108.751 68.1679L108.413 68.5363ZM118.852 83.1383L119.169 82.7514L118.852 83.1383ZM109.187 97.8194L109.038 98.2967L109.038 98.2966L109.187 97.8194ZM88.1257 90.682L87.7822 91.0453L87.7821 91.0451L88.1257 90.682ZM85.3473 83.6823C85.5571 83.5028 85.8727 83.5274 86.0522 83.7372C86.2317 83.9471 86.2071 84.2627 85.9973 84.4422L85.3473 83.6823ZM96.799 62.1828L96.9483 61.7057L96.799 62.1828ZM91.5285 60.9785L91.4533 61.4729L91.5285 60.9785ZM80.6452 61.4084C80.3733 61.4564 80.1139 61.2749 80.0658 61.003C80.0178 60.7311 80.1993 60.4717 80.4712 60.4236L80.6452 61.4084ZM80.7686 68.6338C80.525 68.5038 80.4329 68.201 80.5629 67.9573C80.6929 67.7137 80.9958 67.6216 81.2394 67.7516L80.7686 68.6338ZM87.9203 71.4417L87.7558 71.9138L87.755 71.9135L87.9203 71.4417ZM91.4185 72.9945L91.1141 73.3912L91.1128 73.3901L91.4185 72.9945ZM92.6845 76.3379L93.1527 76.5133L93.1523 76.5146L92.6845 76.3379ZM87.4178 77.8996L87.5014 77.4067L87.5016 77.4067L87.4178 77.8996ZM77.77 74.8057L78.0382 74.3837L78.0383 74.3838L77.77 74.8057ZM76.7431 73.8031L77.1971 73.5936L77.1974 73.5944L76.7431 73.8031ZM76.5848 72.675L77.0844 72.6953L77.0844 72.696L76.5848 72.675ZM76.8558 69.319C76.9663 69.0659 77.261 68.9503 77.5141 69.0608C77.7672 69.1713 77.8828 69.466 77.7723 69.7191L76.8558 69.319ZM79.6167 75.7266C79.7418 75.4804 80.0428 75.3823 80.289 75.5074C80.5352 75.6325 80.6333 75.9335 80.5082 76.1797L79.6167 75.7266ZM79.1744 79.93L79.6547 79.7911L79.6551 79.7923L79.1744 79.93ZM81.2342 82.3247L81.5054 81.9046L81.5056 81.9047L81.2342 82.3247ZM93.6126 83.8679L93.7133 84.3576L93.7129 84.3577L93.6126 83.8679ZM97.2221 79.5138L96.8155 79.8047L97.2221 79.5138ZM95.1937 78.3825L95.3316 77.9019L95.3327 77.9022L95.1937 78.3825ZM91.6389 77.975C91.3698 77.9132 91.2017 77.645 91.2635 77.3758C91.3253 77.1067 91.5936 76.9386 91.8627 77.0004L91.6389 77.975ZM81.0528 66.4981L80.5629 66.598L80.5628 66.5978L81.0528 66.4981ZM80.3294 69.2614L80.6472 69.6474L80.6463 69.6481L80.3294 69.2614ZM77.453 69.5598L77.5889 69.0786L77.5895 69.0787L77.453 69.5598ZM76.0461 68.9089L76.35 68.5118L76.35 68.5118L76.0461 68.9089ZM77.492 63.0973C77.3741 62.8476 77.4809 62.5496 77.7305 62.4316C77.9802 62.3137 78.2782 62.4204 78.3962 62.6701L77.492 63.0973ZM76.5455 60.8928C76.7743 60.7382 77.0851 60.7985 77.2396 61.0274C77.3941 61.2563 77.3338 61.5671 77.105 61.7216L76.5455 60.8928ZM111.191 71.1251C111.366 71.3388 111.334 71.6538 111.12 71.8287C110.907 72.0035 110.592 71.972 110.417 71.7583L111.191 71.1251ZM123.859 104.391L124.256 104.696L123.859 104.391ZM120.694 104.862L120.987 104.456L120.694 104.862ZM129.092 87.3406L129.195 86.8512L129.092 87.3406ZM130.837 89.1401L131.334 89.0936L130.837 89.1401ZM87.5299 70.0046L87.3608 70.4751L87.5299 70.0046ZM87.2039 69.8484L87.4651 69.4221L87.2039 69.8484ZM39.3507 57.3393C39.1552 57.1442 39.1549 56.8276 39.3499 56.6322C39.545 56.4367 39.8616 56.4364 40.0571 56.6314L39.3507 57.3393ZM47.4499 64.7145V65.2145C47.3175 65.2145 47.1905 65.162 47.0968 65.0684L47.4499 64.7145ZM56.8558 64.2145C57.132 64.2145 57.3558 64.4384 57.3558 64.7145C57.3558 64.9907 57.132 65.2145 56.8558 65.2145V64.2145ZM24.0117 31.7876C24.2071 31.9827 24.2075 32.2993 24.0124 32.4948C23.8174 32.6902 23.5008 32.6906 23.3053 32.4955L24.0117 31.7876ZM15.9125 24.4124V23.9124C16.0449 23.9124 16.1719 23.9649 16.2656 24.0585L15.9125 24.4124ZM7.05983 24.9124C6.78368 24.9124 6.55983 24.6886 6.55983 24.4124C6.55983 24.1363 6.78368 23.9124 7.05983 23.9124V24.9124ZM18.4788 52.7668C18.6742 52.9619 18.6746 53.2784 18.4795 53.4739C18.2845 53.6694 17.9679 53.6697 17.7724 53.4747L18.4788 52.7668ZM12.5927 47.5999V47.0999C12.7251 47.0999 12.8521 47.1524 12.9459 47.246L12.5927 47.5999ZM7.05983 48.0999C6.78368 48.0999 6.55983 47.8761 6.55983 47.5999C6.55983 47.3238 6.78368 47.0999 7.05983 47.0999V48.0999ZM124.896 64.637L111.064 31.512L111.987 31.1267L125.819 64.2517L124.896 64.637ZM111.814 31.7274L94.6625 43.8732L94.0846 43.0571L111.237 30.9113L111.814 31.7274ZM93.9197 43.6751L83.9605 22.1438L84.8682 21.724L94.8274 43.2553L93.9197 43.6751ZM84.7111 22.3363L71.9855 31.7217L71.3919 30.9169L84.1176 21.5315L84.7111 22.3363ZM71.2658 31.5862L61.8599 16.6799L62.7056 16.1463L72.1115 31.0525L71.2658 31.5862ZM62.5431 16.84L52.5839 22.9129L52.0633 22.0591L62.0225 15.9862L62.5431 16.84ZM95.1541 82.9586C95.897 82.8562 96.8488 82.8281 97.7106 83.0506C98.5782 83.2745 99.4243 83.7756 99.7886 84.7758L98.849 85.118C98.6377 84.538 98.1435 84.1951 97.4606 84.0188C96.772 83.8411 95.9632 83.8566 95.2905 83.9492L95.1541 82.9586ZM99.7889 84.7766C100.08 85.5813 99.9047 86.2765 99.5114 86.8339C99.138 87.3631 98.573 87.7654 98.0699 88.0713L97.5503 87.2169C98.0258 86.9277 98.4438 86.6124 98.6943 86.2573C98.925 85.9304 99.0143 85.5745 98.8487 85.1172L99.7889 84.7766ZM98.0697 88.0715C95.4702 89.6504 91.9085 90.2693 88.9355 89.9845L89.0309 88.989C91.8305 89.2572 95.1679 88.664 97.5505 87.2168L98.0697 88.0715ZM99.9019 81.4632C98.4701 80.2547 97.4549 78.762 96.5474 77.3224C95.6266 75.8615 94.8317 74.4843 93.811 73.3782L94.5459 72.7C95.6467 73.8929 96.5061 75.3814 97.3934 76.7891C98.2941 78.2181 99.2411 79.5969 100.547 80.699L99.9019 81.4632ZM93.7862 73.3491C93.0521 72.42 92.0367 71.8964 90.8898 71.508C90.3154 71.3135 89.7229 71.1576 89.1223 70.9979C88.5287 70.84 87.925 70.6779 87.3608 70.4751L87.699 69.534C88.2168 69.7201 88.78 69.872 89.3793 70.0314C89.9717 70.189 90.5984 70.3536 91.2105 70.5608C92.4365 70.976 93.6635 71.5807 94.5708 72.7291L93.7862 73.3491ZM86.9427 70.2747C85.6732 69.4969 84.2858 68.2309 83.274 66.9792C82.7677 66.3528 82.3405 65.7118 82.07 65.1198C81.8108 64.5527 81.6452 63.9223 81.832 63.3809L82.7773 63.7069C82.722 63.8672 82.7445 64.1899 82.9795 64.7042C83.2031 65.1935 83.576 65.7621 84.0517 66.3506C85.0039 67.5285 86.308 68.7131 87.4651 69.4221L86.9427 70.2747ZM81.832 63.3809C82.1108 62.5722 82.5639 62.0175 83.1327 61.7196C83.6991 61.423 84.3185 61.4137 84.8683 61.5783L84.5814 62.5363C84.2366 62.433 83.8931 62.4502 83.5966 62.6055C83.3026 62.7594 82.9928 63.0819 82.7773 63.7069L81.832 63.3809ZM84.8357 61.5697C86.5046 61.9491 87.8562 62.5756 89.1602 63.1785C90.4706 63.7845 91.7336 64.3669 93.2867 64.7199L93.065 65.695C91.3961 65.3157 90.0445 64.6892 88.7405 64.0862C87.4301 63.4803 86.1671 62.8979 84.6141 62.5449L84.8357 61.5697ZM108.751 68.1679C110.671 69.931 112.298 72.8259 113.914 75.6014C115.56 78.4268 117.201 81.1411 119.169 82.7514L118.535 83.5253C116.401 81.779 114.673 78.8915 113.05 76.1047C111.398 73.2679 109.856 70.5399 108.075 68.9046L108.751 68.1679ZM119.169 82.7514C122.035 85.0969 126.755 86.3403 129.195 86.8512L128.99 87.8299C126.551 87.3193 121.609 86.0407 118.535 83.5253L119.169 82.7514ZM131.334 89.0936C131.627 92.2238 130.753 94.9519 129.362 97.4794C127.98 99.9918 126.063 102.344 124.256 104.696L123.463 104.087C125.299 101.697 127.151 99.4244 128.486 96.9973C129.813 94.5853 130.607 92.0588 130.339 89.1866L131.334 89.0936ZM120.402 105.267C118.924 104.2 116.736 102.658 114.581 101.278C112.408 99.8869 110.326 98.6991 109.038 98.2967L109.336 97.3421C110.772 97.7907 112.962 99.0542 115.121 100.436C117.298 101.83 119.502 103.384 120.987 104.456L120.402 105.267ZM109.038 98.2966C107.39 97.7818 105.615 97.4136 103.772 97.0661C101.938 96.7203 100.03 96.3938 98.159 95.9653C94.4132 95.1076 90.7192 93.8222 87.7822 91.0453L88.4693 90.3186C91.211 92.911 94.694 94.146 98.3822 94.9905C100.228 95.4132 102.101 95.7333 103.958 96.0834C105.805 96.4318 107.629 96.8088 109.336 97.3422L109.038 98.2966ZM87.7821 91.0451C87.4998 90.778 87.1696 90.491 86.8118 90.1739C86.4585 89.8609 86.0843 89.5237 85.734 89.1718C85.0506 88.4849 84.3842 87.6715 84.1833 86.787L85.1584 86.5655C85.2918 87.1524 85.7726 87.7928 86.4429 88.4664C86.7696 88.7947 87.1239 89.1144 87.4749 89.4255C87.8214 89.7325 88.1715 90.0368 88.4694 90.3188L87.7821 91.0451ZM84.1833 86.787C83.9758 85.8736 84.2923 85.0828 84.6217 84.5533C84.7882 84.2856 84.9656 84.0719 85.1013 83.9248C85.1695 83.8508 85.2281 83.7927 85.271 83.7519C85.2924 83.7315 85.31 83.7154 85.323 83.7037C85.3294 83.6979 85.3348 83.6932 85.3388 83.6896C85.3409 83.6878 85.3426 83.6863 85.344 83.6851C85.3447 83.6845 85.3454 83.6839 85.3459 83.6835C85.3462 83.6832 85.3464 83.683 85.3466 83.6828C85.3468 83.6827 85.3469 83.6826 85.347 83.6825C85.3471 83.6824 85.3473 83.6823 85.6723 84.0622C85.9973 84.4422 85.9974 84.4421 85.9976 84.442C85.9976 84.4419 85.9977 84.4418 85.9978 84.4417C85.998 84.4416 85.9981 84.4415 85.9982 84.4414C85.9984 84.4412 85.9986 84.4411 85.9986 84.4411C85.9987 84.4409 85.9986 84.4411 85.9981 84.4415C85.9971 84.4424 85.995 84.4442 85.9918 84.4471C85.9853 84.4529 85.9745 84.4628 85.9601 84.4765C85.9313 84.504 85.8881 84.5466 85.8364 84.6027C85.7321 84.7158 85.5964 84.8797 85.4708 85.0815C85.2159 85.4912 85.0317 86.0074 85.1584 86.5655L84.1833 86.787ZM108.092 68.9196C106.311 67.4284 100.976 64.0138 96.6497 62.66L96.9483 61.7057C101.428 63.1075 106.878 66.5983 108.734 68.153L108.092 68.9196ZM96.6497 62.66C94.6616 62.0379 93.5183 61.7869 91.4533 61.4729L91.6036 60.4842C93.7135 60.8051 94.9068 61.0668 96.9483 61.7057L96.6497 62.66ZM91.4533 61.4729C87.306 60.8422 82.9954 60.993 80.6452 61.4084L80.4712 60.4236C82.9368 59.9879 87.3573 59.8385 91.6036 60.4842L91.4533 61.4729ZM81.2394 67.7516C83.4967 68.9561 85.7237 70.142 88.0857 70.9698L87.755 71.9135C85.3085 71.0562 83.0147 69.8324 80.7686 68.6338L81.2394 67.7516ZM88.0849 70.9695C89.2431 71.3733 90.6261 71.7504 91.7242 72.5989L91.1128 73.3901C90.18 72.6694 89.0165 72.3533 87.7558 71.9138L88.0849 70.9695ZM91.7228 72.5978C92.8324 73.4491 93.7087 75.0297 93.1527 76.5133L92.2163 76.1624C92.5559 75.2563 92.0386 74.1005 91.1141 73.3912L91.7228 72.5978ZM93.1523 76.5146C92.7193 77.6607 91.5739 78.3317 90.4867 78.5338L90.304 77.5506C91.1778 77.3882 91.948 76.8729 92.2168 76.1612L93.1523 76.5146ZM90.4867 78.5338C89.4062 78.7346 88.3106 78.5586 87.334 78.3926L87.5016 77.4067C88.498 77.5761 89.4236 77.7142 90.304 77.5506L90.4867 78.5338ZM87.3341 78.3926C83.9826 77.8237 80.4651 77.112 77.5017 75.2276L78.0383 74.3838C80.8125 76.1479 84.1439 76.8368 87.5014 77.4067L87.3341 78.3926ZM77.5019 75.2277C77.0926 74.9676 76.5581 74.5982 76.2887 74.0118L77.1974 73.5944C77.3319 73.8871 77.6266 74.1221 78.0382 74.3837L77.5019 75.2277ZM76.2891 74.0126C76.0747 73.548 76.0688 73.0477 76.0853 72.6541L77.0844 72.696C77.0689 73.0649 77.0889 73.3591 77.1971 73.5936L76.2891 74.0126ZM76.0852 72.6548C76.1334 71.4669 76.3817 70.4051 76.8558 69.319L77.7723 69.7191C77.3469 70.6935 77.1275 71.6335 77.0844 72.6953L76.0852 72.6548ZM80.5082 76.1797C80.1934 76.799 79.8949 77.4203 79.7177 78.0412C79.5417 78.6579 79.4956 79.241 79.6547 79.7911L78.6941 80.0689C78.4657 79.2793 78.5487 78.4937 78.7561 77.7668C78.9623 77.0441 79.3015 76.3469 79.6167 75.7266L80.5082 76.1797ZM79.6551 79.7923C79.8994 80.6453 80.6326 81.3412 81.5054 81.9046L80.963 82.7448C80.0306 82.1428 79.0402 81.2774 78.6937 80.0676L79.6551 79.7923ZM81.5056 81.9047C84.9286 84.1169 89.3942 84.2218 93.5122 83.3781L93.7129 84.3577C89.4798 85.2251 84.7029 85.1617 80.9628 82.7446L81.5056 81.9047ZM93.5118 83.3781C94.6193 83.1503 95.6364 82.8571 96.3444 82.1927L97.0287 82.9219C96.0961 83.7971 94.822 84.1296 93.7133 84.3576L93.5118 83.3781ZM96.3444 82.1927C96.6793 81.8784 96.9254 81.4385 97.0178 80.9894C97.1098 80.5424 97.0441 80.1242 96.8155 79.8047L97.6287 79.2228C98.0551 79.8186 98.1318 80.5374 97.9973 81.1909C97.8633 81.8423 97.514 82.4665 97.0287 82.9219L96.3444 82.1927ZM96.8155 79.8047C96.4711 79.3235 95.8338 79.0884 95.0546 78.8627L95.3327 77.9022C96.0669 78.1148 97.054 78.4198 97.6287 79.2228L96.8155 79.8047ZM95.0557 78.8631C93.9041 78.5324 92.806 78.243 91.6389 77.975L91.8627 77.0004C93.0504 77.2731 94.1661 77.5672 95.3316 77.9019L95.0557 78.8631ZM81.5427 66.3981C81.759 67.4584 81.63 68.838 80.6472 69.6474L80.0115 68.8754C80.5784 68.4086 80.7464 67.4979 80.5629 66.598L81.5427 66.3981ZM80.6463 69.6481C79.6737 70.4453 78.3197 70.3254 77.3165 70.0408L77.5895 69.0787C78.5179 69.3422 79.4386 69.345 80.0124 68.8747L80.6463 69.6481ZM77.3172 70.0409C76.7889 69.8918 76.2283 69.678 75.7423 69.306L76.35 68.5118C76.692 68.7735 77.1147 68.9447 77.5889 69.0786L77.3172 70.0409ZM75.7423 69.306C74.4626 68.3269 73.9237 66.6807 74.301 64.4576L75.2869 64.6249C74.9501 66.6094 75.455 67.8271 76.35 68.5118L75.7423 69.306ZM78.3962 62.6701C78.3552 62.5834 78.2995 62.5418 78.3286 62.5685C78.3382 62.5773 78.359 62.5948 78.3965 62.624C78.4718 62.6825 78.575 62.7577 78.7127 62.8595C78.9803 63.0574 79.343 63.3299 79.7176 63.6616C80.4486 64.3088 81.3094 65.2526 81.5427 66.3983L80.5628 66.5978C80.398 65.7884 79.7539 65.0293 79.0547 64.4103C78.7142 64.1089 78.3805 63.8575 78.1182 63.6636C77.991 63.5695 77.8708 63.4819 77.7828 63.4135C77.7388 63.3793 77.6929 63.3423 77.6532 63.306C77.633 63.2875 77.5453 63.2101 77.492 63.0973L78.3962 62.6701ZM74.301 64.4576C74.4988 63.2918 75.0601 62.4031 75.5623 61.8117C75.8141 61.5151 76.0542 61.2894 76.2333 61.1365C76.323 61.0599 76.3978 61.0011 76.4517 60.9605C76.4787 60.9402 76.5005 60.9243 76.5163 60.913C76.5243 60.9074 76.5307 60.9029 76.5356 60.8995C76.5381 60.8978 76.5401 60.8964 76.5417 60.8953C76.5426 60.8947 76.5433 60.8942 76.5439 60.8938C76.5442 60.8936 76.5445 60.8934 76.5448 60.8932C76.5449 60.8931 76.5451 60.893 76.5451 60.893C76.5453 60.8929 76.5455 60.8928 76.8252 61.3072C77.105 61.7216 77.1051 61.7215 77.1053 61.7214C77.1053 61.7213 77.1054 61.7213 77.1055 61.7212C77.1057 61.7211 77.1058 61.721 77.1059 61.7209C77.1061 61.7208 77.1062 61.7207 77.1063 61.7207C77.1063 61.7207 77.1059 61.7209 77.1052 61.7214C77.1037 61.7225 77.1007 61.7245 77.0963 61.7277C77.0875 61.734 77.0729 61.7445 77.0534 61.7592C77.0144 61.7886 76.9556 61.8346 76.8828 61.8968C76.7367 62.0216 76.536 62.2099 76.3246 62.4589C75.9003 62.9586 75.446 63.6869 75.2869 64.6249L74.301 64.4576ZM93.2568 64.7141C95.7972 65.1312 99.2042 65.3681 102.428 66.1548C105.683 66.9494 108.904 68.3304 111.191 71.1251L110.417 71.7583C108.327 69.204 105.348 67.8971 102.191 67.1263C99.001 66.3478 95.7821 66.1421 93.0948 65.7009L93.2568 64.7141ZM124.256 104.696C123.34 105.888 121.627 106.152 120.402 105.267L120.987 104.456C121.769 105.021 122.872 104.856 123.463 104.087L124.256 104.696ZM129.195 86.8512C130.266 87.0755 131.224 87.9097 131.334 89.0936L130.339 89.1866C130.278 88.5315 129.73 87.9849 128.99 87.8299L129.195 86.8512ZM87.3608 70.4751C87.2153 70.4228 87.0757 70.3563 86.9427 70.2747L87.4651 69.4221C87.5387 69.4672 87.6164 69.5043 87.699 69.534L87.3608 70.4751ZM40.0571 56.6314L47.8031 64.3606L47.0968 65.0684L39.3507 57.3393L40.0571 56.6314ZM47.4499 64.2145H56.8558V65.2145H47.4499V64.2145ZM23.3053 32.4955L15.5593 24.7664L16.2656 24.0585L24.0117 31.7876L23.3053 32.4955ZM15.9125 24.9124H7.05983V23.9124H15.9125V24.9124ZM17.7724 53.4747L12.2395 47.9539L12.9459 47.246L18.4788 52.7668L17.7724 53.4747ZM12.5927 48.0999H7.05983V47.0999H12.5927V48.0999Z" fill="#32BCFF"/>
<path d="M39.5503 9.23576C39.5503 10.1782 40.3162 10.9441 41.2634 10.9441C42.2106 10.9441 42.9766 10.1782 42.9766 9.23576C42.9766 8.2933 42.2106 7.52743 41.2634 7.52743C40.3162 7.52743 39.5503 8.2933 39.5503 9.23576Z" fill="white" stroke="#32BCFF"/>
<path d="M81.5508 62.2009C68.689 45.4067 43.6993 9.69907 42.1884 10.3486C40.7827 10.9529 71.4599 53.7792 77.0736 61.6489L81.5508 62.2009Z" fill="#EAF5FF" stroke="#EAF5FF" stroke-miterlimit="10" stroke-linecap="round" stroke-linejoin="round"/>
<path d="M78.4883 63.3057L76.2751 61.6494L75.1685 63.3057" stroke="#32BCFF" stroke-linecap="round" stroke-linejoin="round"/>
<path d="M123.648 64.4438C123.648 65.3863 124.414 66.1522 125.361 66.1522C126.308 66.1522 127.074 65.3863 127.074 64.4438C127.074 63.5014 126.308 62.7355 125.361 62.7355C124.414 62.7355 123.648 63.5014 123.648 64.4438ZM109.581 31.1749C109.581 32.1174 110.347 32.8833 111.295 32.8833C112.242 32.8833 113.008 32.1174 113.008 31.1749C113.008 30.2325 112.242 29.4666 111.295 29.4666C110.347 29.4666 109.581 30.2325 109.581 31.1749ZM92.6637 43.4647C92.6637 44.4072 93.4297 45.173 94.3769 45.173C95.3241 45.173 96.09 44.4072 96.09 43.4647C96.09 42.5223 95.3241 41.7564 94.3769 41.7564C93.4297 41.7564 92.6637 42.5223 92.6637 43.4647ZM82.7045 21.3814C82.7045 22.3238 83.4705 23.0897 84.4177 23.0897C85.3649 23.0897 86.1308 22.3238 86.1308 21.3814C86.1308 20.4389 85.3649 19.673 84.4177 19.673C83.4705 19.673 82.7045 20.4389 82.7045 21.3814ZM60.573 16.6693C60.573 17.6117 61.3389 18.3776 62.2861 18.3776C63.2333 18.3776 63.9993 17.6117 63.9993 16.6693C63.9993 15.7268 63.2333 14.9609 62.2861 14.9609C61.3389 14.9609 60.573 15.7268 60.573 16.6693ZM69.9789 31.3885C69.9789 32.3309 70.7449 33.0968 71.692 33.0968C72.6392 33.0968 73.4052 32.3309 73.4052 31.3885C73.4052 30.446 72.6392 29.6801 71.692 29.6801C70.7449 29.6801 69.9789 30.446 69.9789 31.3885Z" fill="white" stroke="#32BCFF"/>
<path d="M26.4287 35.6426L26.924 35.5744L26.4287 35.6426L25.8275 31.2722C25.6937 30.2993 24.7986 29.687 23.9371 29.9441C21.21 30.7581 18.6403 32.2395 16.4854 34.3897C14.5328 36.3381 13.1307 38.626 12.2779 41.0623C11.9826 41.906 12.552 42.8264 13.5226 43.0043L17.8713 43.8013C18.7461 43.9616 19.6511 43.4012 20.103 42.4924C20.5726 41.5481 21.2014 40.6632 21.9885 39.8778C22.8882 38.9801 23.9179 38.289 25.0175 37.8056C25.9489 37.3961 26.5493 36.5197 26.4287 35.6426ZM29.911 64.5005C30.8105 64.463 31.4564 63.5918 31.2633 62.6281L30.3962 58.3023C30.2223 57.4347 29.3687 56.8028 28.3562 56.7212C26.0792 56.5376 23.8521 55.5763 22.11 53.838C20.4078 52.1395 19.4487 49.9786 19.2339 47.7603C19.1364 46.7532 18.4907 45.9108 17.6169 45.7506L13.2688 44.9537C12.2969 44.7756 11.4354 45.4362 11.412 46.3313C11.2891 51.0205 13.0206 55.7476 16.6068 59.326C20.2642 62.9754 25.1193 64.7004 29.911 64.5005Z" stroke="#32BCFF"/>
<path d="M27.5192 31.3252C27.3494 30.0904 28.239 28.9466 29.4879 28.9701C30.1054 28.9817 30.7225 29.0243 31.3365 29.0981C32.5769 29.247 33.2991 30.5032 32.9589 31.7028L31.5678 36.6071C31.3538 37.3617 30.5856 37.8062 29.8015 37.752C29.0172 37.6978 28.3206 37.151 28.2137 36.3737L27.5192 31.3252Z" fill="#FF5C52"/>
</svg>
