<svg width="325" height="312" viewBox="0 0 325 312" fill="none" xmlns="http://www.w3.org/2000/svg">
<path d="M238.773 293.678L238.981 294.656L238.773 293.678ZM185.453 277.351L185.958 276.488L185.958 276.488L185.453 277.351ZM164.907 262.489L165.566 261.736L164.907 262.489ZM151.404 242.918L152.317 243.324L152.317 243.324L151.404 242.918ZM160.098 239.385L160.084 240.385L160.084 240.385L160.098 239.385ZM170.04 244.161L170.789 243.498C170.784 243.492 170.779 243.486 170.773 243.481L170.04 244.161ZM219.391 269.802L219.386 270.802C219.393 270.802 219.401 270.802 219.408 270.802L219.391 269.802ZM251.93 248.598L252.744 249.179V249.179L251.93 248.598ZM252.846 247.521L252.151 246.801V246.801L252.846 247.521ZM267 239.723L267.227 240.697L267.229 240.696L267 239.723ZM290.367 244.858C290.833 245.155 291.451 245.018 291.748 244.552C292.045 244.087 291.908 243.469 291.442 243.172L290.367 244.858ZM224.083 249.195L224.86 249.825L224.083 249.195ZM199.185 252.157L199.29 253.151L199.29 253.151L199.185 252.157ZM176.214 250.52L175.478 251.198L175.478 251.198L176.214 250.52ZM176.535 237.175L176.142 236.255L176.535 237.175ZM258.869 224.061L258.924 223.062L258.924 223.062L258.869 224.061ZM343.619 253.139L344.164 252.3V252.3L343.619 253.139ZM346.922 257.959L347.908 257.793V257.793L346.922 257.959ZM345.964 272.624L346.917 272.926L346.917 272.926L345.964 272.624ZM331.781 290.194L331.253 289.344L331.781 290.194ZM321.921 288.044L322.663 287.374L321.921 288.044ZM306.558 277.001L306.936 276.076L306.935 276.075L306.558 277.001ZM228.067 295.22L227.991 294.223L227.99 294.223L228.067 295.22ZM132.182 256.656L131.203 256.448L131.202 256.456L132.182 256.656ZM133.621 254.512L134.285 255.259V255.259L133.621 254.512ZM231.129 239.427C231.313 238.906 231.041 238.334 230.52 238.15C230 237.966 229.428 238.239 229.244 238.759L231.129 239.427ZM215.704 256.04L216.049 256.978L215.704 256.04ZM191.478 261.502C190.932 261.586 190.557 262.096 190.641 262.642C190.725 263.188 191.235 263.562 191.781 263.479L191.478 261.502ZM184.912 291.354C185.45 291.48 185.988 291.146 186.113 290.608C186.239 290.07 185.904 289.532 185.367 289.407L184.912 291.354ZM124.028 273.442L123.624 274.357L123.626 274.358L124.028 273.442ZM117.252 267.318L118.247 267.217L118.247 267.212L117.252 267.318ZM120.817 261.459L121.379 262.286L121.385 262.281L120.817 261.459ZM133.649 262.788C134.135 263.051 134.741 262.871 135.004 262.385C135.267 261.899 135.087 261.292 134.601 261.03L133.649 262.788ZM121.791 260.403C121.826 260.954 122.302 261.372 122.853 261.336C123.404 261.3 123.822 260.824 123.786 260.273L121.791 260.403ZM125.063 254.213L125.732 254.956L125.735 254.954L125.063 254.213ZM133.992 254.698C134.455 254.999 135.074 254.866 135.375 254.403C135.675 253.939 135.543 253.32 135.079 253.02L133.992 254.698ZM238.915 292.688C207.339 288.165 196.811 282.841 185.958 276.488L184.948 278.214C196.045 284.71 206.824 290.111 238.631 294.668L238.915 292.688ZM185.958 276.488C179.192 272.537 171.757 267.156 165.566 261.736L164.249 263.241C170.53 268.741 178.068 274.197 184.949 278.215L185.958 276.488ZM165.566 261.736C161.146 257.867 157.397 254.009 154.977 250.665C153.766 248.991 152.918 247.486 152.473 246.204C152.024 244.911 152.028 243.974 152.317 243.324L150.49 242.511C149.908 243.819 150.054 245.334 150.584 246.86C151.118 248.399 152.087 250.082 153.357 251.838C155.901 255.354 159.775 259.324 164.249 263.241L165.566 261.736ZM152.317 243.324C152.707 242.447 153.799 241.675 155.393 241.128C156.938 240.598 158.714 240.365 160.084 240.385L160.113 238.385C158.535 238.362 156.527 238.624 154.744 239.236C153.01 239.831 151.229 240.846 150.49 242.512L152.317 243.324ZM160.084 240.385C165.019 240.455 168.399 243.862 169.307 244.841L170.773 243.481C169.812 242.444 165.931 238.468 160.112 238.385L160.084 240.385ZM169.291 244.824C175.914 252.304 183.192 258.733 191.384 263.325L192.362 261.58C184.421 257.129 177.312 250.866 170.789 243.498L169.291 244.824ZM191.384 263.325C199.705 267.99 208.956 270.75 219.386 270.802L219.396 268.802C209.333 268.752 200.413 266.093 192.362 261.58L191.384 263.325ZM219.408 270.802C234.371 270.558 244.74 260.403 252.744 249.179L251.116 248.018C243.194 259.126 233.335 268.574 219.375 268.802L219.408 270.802ZM253.54 248.24C255.833 246.028 260.402 242.293 267.227 240.697L266.772 238.749C259.462 240.459 254.584 244.454 252.151 246.801L253.54 248.24ZM267.229 240.696C279.01 237.915 288.435 243.626 290.367 244.858L291.442 243.172C289.409 241.875 279.378 235.773 266.77 238.75L267.229 240.696ZM223.943 248.205C213.981 249.618 205.801 250.454 199.08 251.162L199.29 253.151C206.006 252.443 214.221 251.604 224.224 250.185L223.943 248.205ZM199.081 251.162C191.383 251.972 186.468 252.357 183.114 252.154C179.814 251.955 178.198 251.197 176.949 249.843L175.478 251.198C177.198 253.064 179.388 253.933 182.993 254.151C186.543 254.365 191.629 253.958 199.29 253.151L199.081 251.162ZM176.949 249.843C175.449 248.215 174.189 245.698 173.974 243.361C173.868 242.206 174.021 241.146 174.471 240.263C174.913 239.396 175.677 238.629 176.928 238.094L176.142 236.255C174.493 236.96 173.36 238.039 172.689 239.355C172.026 240.655 171.851 242.115 171.983 243.544C172.243 246.377 173.723 249.294 175.478 251.198L176.949 249.843ZM176.928 238.094C182.641 235.652 219.29 222.871 258.813 225.059L258.924 223.062C218.993 220.852 182.028 233.739 176.142 236.255L176.928 238.094ZM258.813 225.059C296.599 227.153 326.794 243.42 343.075 253.978L344.164 252.3C327.746 241.653 297.206 225.184 258.924 223.062L258.813 225.059ZM345.936 258.125C346.528 261.64 346.786 266.722 345.01 272.322L346.917 272.926C348.816 266.938 348.536 261.518 347.908 257.793L345.936 258.125ZM345.01 272.322C342.237 281.066 335.991 286.405 331.253 289.344L332.308 291.044C337.27 287.965 343.946 282.294 346.917 272.926L345.01 272.322ZM322.663 287.374C318.868 283.177 313.716 278.843 306.936 276.076L306.18 277.927C312.609 280.552 317.525 284.674 321.179 288.715L322.663 287.374ZM306.935 276.075C295.283 271.332 285.278 274.089 274.706 278.665C264.088 283.261 252.956 289.64 238.565 292.7L238.981 294.656C253.632 291.541 265.122 284.993 275.501 280.5C285.926 275.988 295.292 273.494 306.181 277.928L306.935 276.075ZM238.565 292.7C235.222 293.411 231.707 293.94 227.991 294.223L228.143 296.217C231.953 295.927 235.556 295.384 238.981 294.656L238.565 292.7ZM227.99 294.223C207.38 295.813 186.444 290.783 169.45 283.718C160.958 280.188 153.471 276.157 147.522 272.21C141.554 268.251 137.197 264.418 134.905 261.302L133.294 262.488C135.79 265.879 140.37 269.866 146.416 273.877C152.481 277.9 160.082 281.989 168.683 285.565C185.873 292.712 207.132 297.838 228.144 296.217L227.99 294.223ZM134.905 261.302C133.42 259.285 132.969 257.798 133.162 256.855L131.202 256.456C130.829 258.283 131.748 260.388 133.294 262.488L134.905 261.302ZM133.16 256.863C133.305 256.175 133.803 255.688 134.285 255.259L132.956 253.764C132.484 254.184 131.498 255.056 131.203 256.448L133.16 256.863ZM134.285 255.259C134.52 255.051 134.772 254.864 135.041 254.699L133.993 252.995C133.628 253.22 133.281 253.476 132.956 253.764L134.285 255.259ZM135.041 254.699C136.887 253.563 139.564 253.393 142.739 253.94C145.882 254.482 149.329 255.695 152.553 257.092C155.771 258.487 158.727 260.048 160.882 261.262C161.959 261.869 162.833 262.388 163.437 262.754C163.739 262.938 163.973 263.083 164.131 263.181C164.21 263.231 164.27 263.268 164.309 263.294C164.329 263.306 164.344 263.316 164.354 263.322C164.359 263.325 164.362 263.327 164.364 263.329C164.366 263.329 164.366 263.33 164.367 263.33C164.367 263.33 164.367 263.33 164.367 263.33C164.367 263.33 164.367 263.33 164.907 262.489C165.447 261.647 165.447 261.647 165.447 261.647C165.447 261.647 165.446 261.646 165.446 261.646C165.445 261.646 165.444 261.645 165.442 261.644C165.439 261.642 165.435 261.639 165.429 261.635C165.418 261.628 165.401 261.618 165.38 261.604C165.337 261.577 165.273 261.537 165.191 261.485C165.026 261.382 164.784 261.233 164.475 261.045C163.855 260.669 162.962 260.139 161.864 259.52C159.671 258.284 156.649 256.688 153.349 255.257C150.055 253.83 146.444 252.55 143.079 251.97C139.746 251.395 136.466 251.474 133.993 252.995L135.041 254.699ZM229.244 238.759C228.553 240.71 226.317 244.851 223.306 248.565L224.86 249.825C227.979 245.977 230.346 241.639 231.129 239.427L229.244 238.759ZM223.306 248.565C220.895 251.541 218.106 254.091 215.359 255.101L216.049 256.978C219.314 255.778 222.384 252.88 224.86 249.825L223.306 248.565ZM215.359 255.101C208.69 257.551 199.664 260.219 191.718 261.465L192.028 263.44C200.142 262.168 209.3 259.458 216.049 256.978L215.359 255.101ZM191.718 261.465C191.638 261.477 191.558 261.49 191.478 261.502L191.781 263.479C191.863 263.466 191.945 263.453 192.028 263.44L191.718 261.465ZM185.367 289.407C182.01 288.623 169.938 285.792 157.111 282.457C144.249 279.114 130.735 275.291 124.429 272.527L123.626 274.358C130.107 277.199 143.79 281.061 156.608 284.393C169.46 287.734 181.551 290.57 184.912 291.354L185.367 289.407ZM124.432 272.528C122.5 271.675 120.971 270.803 119.909 269.889C118.851 268.978 118.337 268.097 118.247 267.217L116.257 267.42C116.418 268.99 117.322 270.301 118.605 271.405C119.883 272.505 121.617 273.471 123.624 274.357L124.432 272.528ZM118.247 267.212C118.125 266.073 118.714 264.939 119.539 263.966C120.345 263.015 121.237 262.382 121.379 262.286L120.255 260.632C120.037 260.78 118.982 261.529 118.013 262.673C117.062 263.795 116.049 265.469 116.258 267.425L118.247 267.212ZM121.385 262.281C123.728 260.662 126.57 260.648 129.026 261.151C131.468 261.652 133.358 262.633 133.628 262.777L134.571 261.013C134.225 260.828 132.14 259.749 129.428 259.192C126.729 258.639 123.237 258.571 120.248 260.636L121.385 262.281ZM133.628 262.777C133.637 262.782 133.644 262.786 133.649 262.788L134.601 261.03C134.593 261.025 134.583 261.02 134.571 261.013L133.628 262.777ZM123.786 260.273C123.757 259.824 123.601 256.877 125.732 254.956L124.394 253.47C121.496 256.081 121.761 259.943 121.791 260.403L123.786 260.273ZM125.735 254.954C127.756 253.123 131.152 252.868 133.975 254.688L135.059 253.007C131.585 250.767 127.176 250.95 124.392 253.472L125.735 254.954ZM133.975 254.687C133.981 254.691 133.986 254.695 133.992 254.698L135.079 253.02C135.072 253.015 135.066 253.011 135.059 253.007L133.975 254.687ZM343.075 253.978C344.586 254.957 345.65 256.432 345.936 258.125L347.908 257.793C347.516 255.468 346.072 253.538 344.164 252.3L343.075 253.978ZM331.253 289.344C328.554 291.019 325.038 290 322.663 287.374L321.179 288.715C323.943 291.771 328.497 293.408 332.308 291.044L331.253 289.344ZM252.744 249.179C252.992 248.831 253.253 248.517 253.54 248.24L252.151 246.801C251.757 247.182 251.417 247.595 251.116 248.018L252.744 249.179Z" fill="#FFD02C"/>
<path d="M129.871 175.561C129.871 175.009 129.424 174.561 128.871 174.561C128.319 174.561 127.871 175.009 127.871 175.561H129.871ZM165.332 175.561C165.332 175.009 164.884 174.561 164.332 174.561C163.78 174.561 163.332 175.009 163.332 175.561H165.332ZM87.3609 179.702C87.8676 179.483 88.1004 178.894 87.8808 178.387C87.6612 177.88 87.0724 177.648 86.5657 177.867L87.3609 179.702ZM38.2103 198.821C37.7036 199.041 37.4708 199.63 37.6904 200.136C37.91 200.643 38.4988 200.876 39.0055 200.656L38.2103 198.821ZM75.4378 157.189C75.9736 157.323 76.5166 156.997 76.6505 156.461C76.7845 155.926 76.4587 155.383 75.9229 155.249L75.4378 157.189ZM37.2386 145.578C36.7028 145.444 36.1599 145.77 36.026 146.305C35.892 146.841 36.2178 147.384 36.7536 147.518L37.2386 145.578ZM203.414 177.867C202.907 177.648 202.318 177.88 202.099 178.387C201.879 178.894 202.112 179.483 202.618 179.702L203.414 177.867ZM250.974 200.656C251.481 200.876 252.069 200.643 252.289 200.136C252.509 199.63 252.276 199.041 251.769 198.821L250.974 200.656ZM214.056 155.249C213.521 155.383 213.195 155.926 213.329 156.461C213.463 156.997 214.006 157.323 214.542 157.189L214.056 155.249ZM253.226 147.518C253.762 147.384 254.087 146.841 253.953 146.305C253.819 145.77 253.277 145.444 252.741 145.578L253.226 147.518ZM127.871 175.561V190.068H129.871V175.561H127.871ZM127.871 190.068V199.739H129.871V190.068H127.871ZM141.766 213.633H151.437V211.633H141.766V213.633ZM165.332 199.739V190.068H163.332V199.739H165.332ZM165.332 190.068V175.561H163.332V190.068H165.332ZM128.871 200.739L164.332 200.739V198.739L128.871 198.739V200.739ZM128.871 191.068H164.332V189.068H128.871V191.068ZM151.437 213.633C159.111 213.633 165.332 207.413 165.332 199.739H163.332C163.332 206.308 158.006 211.633 151.437 211.633V213.633ZM127.871 199.739C127.871 207.413 134.092 213.633 141.766 213.633V211.633C135.197 211.633 129.871 206.308 129.871 199.739H127.871ZM86.5657 177.867L38.2103 198.821L39.0055 200.656L87.3609 179.702L86.5657 177.867ZM75.9229 155.249L37.2386 145.578L36.7536 147.518L75.4378 157.189L75.9229 155.249ZM202.618 179.702L250.974 200.656L251.769 198.821L203.414 177.867L202.618 179.702ZM214.542 157.189L253.226 147.518L252.741 145.578L214.056 155.249L214.542 157.189Z" fill="#FFD02C"/>
<path d="M146.744 52.873C116.477 52.873 91.9414 77.4091 91.9414 107.676C91.9414 123.829 98.9297 138.349 110.048 148.379C111.885 150.037 113.676 151.755 115.221 153.688L123.745 164.351C125.872 167.012 127.13 170.254 127.363 173.635C127.406 174.268 127.916 174.783 128.551 174.783H164.937C165.572 174.783 166.082 174.268 166.126 173.635C166.359 170.254 167.616 167.012 169.744 164.351L178.267 153.688C179.813 151.755 181.603 150.037 183.441 148.379C194.559 138.349 201.547 123.829 201.547 107.676C201.547 77.4091 177.011 52.873 146.744 52.873Z" fill="#EAF5FF"/>
<path d="M137.078 154.422L114.512 107.679M156.42 154.422L178.985 107.679" stroke="white" stroke-width="2" stroke-linecap="round" stroke-linejoin="round"/>
<path d="M117.73 98.006L127.402 88.335L137.073 98.006L146.744 88.335L156.415 98.006L166.086 88.335L175.757 98.006" stroke="#FF5C52" stroke-width="2" stroke-linecap="round" stroke-linejoin="round"/>
</svg>
