<svg width="338" height="283" viewBox="0 0 338 283" fill="none" xmlns="http://www.w3.org/2000/svg">
<path d="M120.916 168.108C122.229 171.922 114.011 181.317 107.498 185.128C106.365 186.661 104.745 188.401 103.614 189.934L106.009 189.119C112.391 186.878 118.392 183.672 124.369 180.476L124.239 175.967C125.296 170.766 132.23 166.907 132.492 166.352C132.515 166.302 133.338 165.141 134.814 163.067L122.929 164.536C122.161 165.542 121.409 166.522 120.674 167.474L120.916 168.108Z" fill="#EAF5FF"/>
<path d="M91.5938 206.224L93.7967 203.052C94.2892 203.933 94.9364 204.586 95.8055 205.18C94.2999 205.526 93.0403 205.84 91.5938 206.224Z" fill="#EAF5FF"/>
<path d="M120.916 168.108L121.862 167.783C121.858 167.772 121.854 167.762 121.85 167.751L120.916 168.108ZM107.498 185.128L106.993 184.265C106.876 184.333 106.774 184.425 106.694 184.534L107.498 185.128ZM103.614 189.934L102.809 189.34C102.55 189.691 102.549 190.171 102.807 190.524C103.065 190.877 103.522 191.021 103.936 190.88L103.614 189.934ZM106.009 189.119L106.331 190.066L106.34 190.063L106.009 189.119ZM124.369 180.476L124.84 181.358C125.175 181.179 125.379 180.826 125.368 180.447L124.369 180.476ZM124.239 175.967L123.259 175.768C123.244 175.843 123.238 175.92 123.24 175.996L124.239 175.967ZM132.492 166.352L131.587 165.925L131.587 165.925L132.492 166.352ZM134.814 163.067L135.629 163.647C135.859 163.324 135.876 162.896 135.673 162.555C135.47 162.215 135.085 162.026 134.691 162.075L134.814 163.067ZM122.929 164.536L122.806 163.544C122.54 163.577 122.298 163.715 122.135 163.929L122.929 164.536ZM120.674 167.474L119.882 166.864C119.669 167.14 119.616 167.506 119.74 167.832L120.674 167.474ZM91.5938 206.224L90.7723 205.654C90.5332 205.998 90.5343 206.455 90.7752 206.799C91.016 207.142 91.4454 207.298 91.8507 207.191L91.5938 206.224ZM93.7967 203.052L94.6696 202.564C94.5013 202.263 94.1898 202.07 93.8453 202.053C93.5008 202.036 93.172 202.198 92.9753 202.481L93.7967 203.052ZM95.8055 205.18L96.0297 206.154C96.4167 206.065 96.7144 205.755 96.7881 205.365C96.8618 204.975 96.6976 204.578 96.3697 204.354L95.8055 205.18ZM119.971 168.433C120.166 169 120.047 169.991 119.383 171.418C118.742 172.793 117.689 174.372 116.368 175.986C113.722 179.216 110.127 182.431 106.993 184.265L108.003 185.991C111.382 184.014 115.152 180.627 117.915 177.253C119.298 175.564 120.461 173.841 121.196 172.263C121.906 170.737 122.323 169.123 121.862 167.783L119.971 168.433ZM106.694 184.534C106.15 185.27 105.483 186.063 104.79 186.887C104.107 187.7 103.397 188.543 102.809 189.34L104.419 190.528C104.962 189.792 105.628 188.999 106.321 188.175C107.004 187.362 107.714 186.519 108.302 185.722L106.694 184.534ZM103.936 190.88L106.331 190.066L105.687 188.172L103.292 188.987L103.936 190.88ZM106.34 190.063C112.807 187.792 118.874 184.548 124.84 181.358L123.897 179.594C117.909 182.797 111.975 185.964 105.677 188.176L106.34 190.063ZM125.368 180.447L125.239 175.939L123.24 175.996L123.369 180.504L125.368 180.447ZM125.219 176.166C125.679 173.901 127.461 171.821 129.327 170.165C130.242 169.353 131.138 168.678 131.836 168.161C132.177 167.908 132.49 167.679 132.72 167.5C132.834 167.41 132.948 167.318 133.043 167.231C133.1 167.179 133.286 167.012 133.396 166.778L131.587 165.925C131.665 165.761 131.765 165.689 131.691 165.757C131.656 165.79 131.592 165.843 131.491 165.922C131.286 166.081 131.007 166.285 130.645 166.554C129.936 167.079 128.983 167.797 128 168.669C126.07 170.382 123.856 172.832 123.259 175.768L125.219 176.166ZM133.396 166.778C133.361 166.852 133.32 166.911 133.342 166.877C133.345 166.873 133.352 166.863 133.364 166.844C133.388 166.809 133.426 166.755 133.477 166.682C133.578 166.536 133.728 166.323 133.925 166.046C134.317 165.491 134.891 164.684 135.629 163.647L133.999 162.487C133.261 163.524 132.686 164.334 132.292 164.891C132.095 165.169 131.942 165.386 131.837 165.537C131.785 165.612 131.742 165.673 131.711 165.718C131.696 165.741 131.681 165.763 131.668 165.782C131.662 165.792 131.653 165.805 131.644 165.82C131.643 165.821 131.614 165.867 131.587 165.925L133.396 166.778ZM134.691 162.075L122.806 163.544L123.052 165.529L134.937 164.06L134.691 162.075ZM122.135 163.929C121.367 164.933 120.616 165.912 119.882 166.864L121.466 168.085C122.202 167.131 122.954 166.15 123.724 165.143L122.135 163.929ZM119.74 167.832L119.982 168.465L121.85 167.751L121.608 167.117L119.74 167.832ZM92.4152 206.795L94.6181 203.622L92.9753 202.481L90.7723 205.654L92.4152 206.795ZM92.9238 203.54C93.5057 204.581 94.2706 205.342 95.2412 206.005L96.3697 204.354C95.6023 203.829 95.0727 203.285 94.6696 202.564L92.9238 203.54ZM95.5813 204.205C94.0642 204.554 92.7938 204.871 91.3368 205.258L91.8507 207.191C93.2869 206.809 94.5355 206.498 96.0297 206.154L95.5813 204.205Z" fill="#EAF5FF"/>
<path d="M330.875 225.878H282.406C279.973 225.878 278 223.905 278 221.472C278 219.038 279.973 217.065 282.406 217.065H325C326.622 217.065 327.938 215.75 327.938 214.128V171.534C327.938 169.101 329.91 167.128 332.344 167.128C334.777 167.128 336.75 169.101 336.75 171.534V220.003C336.75 223.248 334.12 225.878 330.875 225.878Z" fill="#EAF5FF"/>
<path d="M330.875 224.878H282.406V226.878H330.875V224.878ZM282.406 224.878C280.525 224.878 279 223.353 279 221.472H277C277 224.457 279.42 226.878 282.406 226.878V224.878ZM279 221.472C279 219.59 280.525 218.065 282.406 218.065V216.065C279.42 216.065 277 218.486 277 221.472H279ZM282.406 218.065H325V216.065H282.406V218.065ZM325 218.065C327.175 218.065 328.938 216.303 328.938 214.128H326.938C326.938 215.198 326.07 216.065 325 216.065V218.065ZM328.938 214.128V171.534H326.938V214.128H328.938ZM328.938 171.534C328.938 169.653 330.463 168.128 332.344 168.128V166.128C329.358 166.128 326.938 168.548 326.938 171.534H328.938ZM332.344 168.128C334.225 168.128 335.75 169.653 335.75 171.534H337.75C337.75 168.548 335.33 166.128 332.344 166.128V168.128ZM335.75 171.534V220.003H337.75V171.534H335.75ZM335.75 220.003C335.75 222.695 333.567 224.878 330.875 224.878V226.878C334.672 226.878 337.75 223.8 337.75 220.003H335.75Z" fill="#EAF5FF"/>
<path d="M239.218 81.1714C242.228 79.7882 245.605 81.631 246.507 84.8183L249.704 96.1143C250.552 99.1098 248.863 102.188 246.218 103.83C244.605 104.831 243.08 106.032 241.68 107.432C231.855 117.257 231.855 133.186 241.68 143.01C243.568 144.898 245.681 146.423 247.933 147.586C250.699 149.014 252.625 151.95 252.015 155.003L249.713 166.513C249.063 169.761 245.841 171.862 242.731 170.721C236.334 168.372 230.332 164.63 225.196 159.494C206.268 140.566 206.268 109.877 225.196 90.9488C229.38 86.7648 234.139 83.5057 239.218 81.1714Z" fill="#EAF5FF"/>
<path d="M239.218 81.1714L239.635 82.0801L239.218 81.1714ZM246.507 84.8183L245.545 85.0906V85.0906L246.507 84.8183ZM249.704 96.1143L250.667 95.842V95.842L249.704 96.1143ZM246.218 103.83L245.691 102.98L246.218 103.83ZM247.933 147.586L247.474 148.474L247.933 147.586ZM252.015 155.003L252.995 155.199V155.199L252.015 155.003ZM249.713 166.513L248.732 166.317V166.317L249.713 166.513ZM242.731 170.721L243.076 169.782L242.731 170.721ZM239.635 82.0801C242.009 80.9894 244.786 82.4072 245.545 85.0906L247.47 84.5459C246.425 80.8547 242.447 78.5869 238.8 80.2628L239.635 82.0801ZM245.545 85.0906L248.742 96.3867L250.667 95.842L247.47 84.5459L245.545 85.0906ZM248.742 96.3867C249.435 98.8353 248.072 101.502 245.691 102.98L246.745 104.679C249.654 102.874 251.669 99.3844 250.667 95.842L248.742 96.3867ZM245.691 102.98C244.013 104.021 242.428 105.27 240.973 106.725L242.387 108.139C243.733 106.793 245.197 105.64 246.745 104.679L245.691 102.98ZM240.973 106.725C230.757 116.94 230.757 133.502 240.973 143.718L242.387 142.303C232.953 132.869 232.953 117.573 242.387 108.139L240.973 106.725ZM240.973 143.718C242.934 145.679 245.131 147.265 247.474 148.474L248.391 146.697C246.23 145.581 244.201 144.117 242.387 142.303L240.973 143.718ZM247.474 148.474C249.965 149.76 251.533 152.311 251.034 154.807L252.995 155.199C253.717 151.589 251.434 148.268 248.391 146.697L247.474 148.474ZM251.034 154.807L248.732 166.317L250.693 166.709L252.995 155.199L251.034 154.807ZM248.732 166.317C248.185 169.051 245.528 170.682 243.076 169.782L242.387 171.66C246.153 173.042 249.941 170.47 250.693 166.709L248.732 166.317ZM243.076 169.782C236.812 167.482 230.934 163.818 225.903 158.787L224.489 160.201C229.73 165.442 235.856 169.262 242.387 171.66L243.076 169.782ZM225.903 158.787C207.366 140.249 207.366 110.194 225.903 91.6559L224.489 90.2417C205.17 109.56 205.17 140.882 224.489 160.201L225.903 158.787ZM225.903 91.6559C230.002 87.557 234.662 84.3656 239.635 82.0801L238.8 80.2628C233.615 82.6458 228.758 85.9727 224.489 90.2417L225.903 91.6559Z" fill="#EAF5FF"/>
<path d="M43.3438 82.3779L43.9225 81.5624L42.902 80.8382L42.4207 81.9933L43.3438 82.3779ZM88.875 114.69L88.2962 115.506L89.2783 116.203L89.783 115.109L88.875 114.69ZM115.312 57.4092L115.907 56.605L114.919 55.875L114.405 56.9901L115.312 57.4092ZM149.094 82.3779L148.499 83.1821L149.366 83.8226L149.94 82.9107L149.094 82.3779ZM174.062 42.7217L174.584 41.8684L173.742 41.3539L173.216 42.1889L174.062 42.7217ZM86.4852 222.066C87.0323 222.142 87.537 221.759 87.6125 221.212C87.6881 220.665 87.3058 220.16 86.7587 220.085L86.4852 222.066ZM75.7475 225.048L74.8076 224.706L74.8071 224.708L75.7475 225.048ZM79.7524 232.223L79.2319 233.077L79.2324 233.077L79.7524 232.223ZM103.28 238.121C103.829 238.068 104.232 237.579 104.179 237.03C104.127 236.48 103.638 236.077 103.088 236.13L103.28 238.121ZM72.6978 213.999C72.2761 214.356 72.2234 214.987 72.5801 215.409C72.9368 215.83 73.5677 215.883 73.9894 215.526L72.6978 213.999ZM89.3928 193.368L90.1285 194.046C90.1457 194.027 90.1623 194.007 90.1781 193.987L89.3928 193.368ZM120.913 168.107L121.858 167.782L120.913 168.107ZM114.488 164.152L114.71 165.128C114.732 165.123 114.754 165.117 114.776 165.11L114.488 164.152ZM92.0544 172.533L92.2168 173.52C92.2368 173.517 92.2568 173.513 92.2766 173.508L92.0544 172.533ZM51.6068 181.389L50.9638 180.623C50.9522 180.633 50.9408 180.643 50.9297 180.653L51.6068 181.389ZM23.8953 220.236L23.2611 219.463L23.8953 220.236ZM49.552 259.293L49.8507 260.247L49.8509 260.247L49.552 259.293ZM105.46 240.305L106.148 241.031L106.148 241.03L105.46 240.305ZM112.624 221.935C112.205 221.575 111.573 221.624 111.214 222.043C110.855 222.462 110.903 223.094 111.322 223.453L112.624 221.935ZM82.4365 164.486L82.1373 163.532L82.4365 164.486ZM96.4275 161.283L96.5782 162.271L96.4275 161.283ZM125.375 162.101C125.918 162.197 126.437 161.834 126.534 161.291C126.63 160.747 126.267 160.228 125.723 160.131L125.375 162.101ZM124.837 181.357C125.324 181.096 125.508 180.49 125.247 180.003C124.987 179.516 124.381 179.333 123.894 179.593L124.837 181.357ZM106.006 189.118L106.335 190.063L106.337 190.062L106.006 189.118ZM96.7195 193.25L97.329 194.042L97.3317 194.04L96.7195 193.25ZM93.3587 202.144L92.422 202.494L92.4229 202.497L93.3587 202.144ZM107.34 206.299L107.172 205.313L107.172 205.313L107.34 206.299ZM132.95 198.068L132.413 197.225L132.413 197.225L132.95 198.068ZM135.676 195.401L134.768 194.983L134.767 194.984L135.676 195.401ZM136.097 192.4L135.097 192.44L135.097 192.441L136.097 192.4ZM135.078 183.604C134.857 183.098 134.268 182.866 133.761 183.087C133.255 183.307 133.023 183.897 133.244 184.403L135.078 183.604ZM127.757 200.668C127.507 200.176 126.905 199.979 126.413 200.229C125.92 200.479 125.723 201.08 125.973 201.573L127.757 200.668ZM129.222 211.701L128.262 211.423L128.261 211.426L129.222 211.701ZM123.754 218.071L123.211 217.232L123.211 217.232L123.754 218.071ZM90.8951 222.177L90.6932 223.156L90.6939 223.156L90.8951 222.177ZM81.3133 210.593L82.1271 211.174L81.3133 210.593ZM86.698 207.584L86.4214 206.623L86.4193 206.623L86.698 207.584ZM96.0615 206.178C96.5997 206.054 96.9356 205.517 96.8118 204.979C96.688 204.441 96.1512 204.105 95.613 204.229L96.0615 206.178ZM124.236 175.967L125.216 176.166L125.216 176.166L124.236 175.967ZM126.156 183.318L125.52 184.089L125.522 184.091L126.156 183.318ZM133.792 184.112L133.52 183.15L133.518 183.15L133.792 184.112ZM137.527 182.38L136.918 181.587L136.918 181.587L137.527 182.38ZM133.393 166.777C133.628 166.278 133.414 165.682 132.915 165.447C132.415 165.211 131.819 165.425 131.584 165.925L133.393 166.777ZM136.019 161.329C135.561 161.019 134.94 161.139 134.63 161.596C134.321 162.054 134.441 162.676 134.898 162.985L136.019 161.329ZM44.4848 188.486C44.1356 188.914 44.1992 189.544 44.6271 189.893C45.0549 190.242 45.6848 190.179 46.0341 189.751L44.4848 188.486ZM10.6026 276.777L9.80895 277.385L10.6026 276.777ZM19.0043 278.028L18.418 277.218L19.0043 278.028ZM-3.28811 231.415L-3.49348 230.437L-3.28811 231.415ZM-7.91884 236.203L-8.91453 236.11L-7.91884 236.203ZM107.042 185.295L107.381 186.236L107.042 185.295ZM107.907 184.88L107.384 184.028L107.907 184.88ZM234.707 151.366C235.098 150.976 235.098 150.343 234.707 149.952C234.317 149.562 233.683 149.562 233.293 149.952L234.707 151.366ZM213.438 171.222V172.222C213.703 172.222 213.957 172.116 214.145 171.929L213.438 171.222ZM188.469 170.222C187.916 170.222 187.469 170.669 187.469 171.222C187.469 171.774 187.916 172.222 188.469 172.222V170.222ZM275.887 83.8583C275.496 84.2488 275.496 84.882 275.887 85.2725C276.277 85.6631 276.91 85.6631 277.301 85.2725L275.887 83.8583ZM297.156 64.0029V63.0029C296.891 63.0029 296.637 63.1083 296.449 63.2958L297.156 64.0029ZM320.656 65.0029C321.209 65.0029 321.656 64.5552 321.656 64.0029C321.656 63.4506 321.209 63.0029 320.656 63.0029V65.0029ZM290.574 139.671C290.184 140.061 290.184 140.694 290.574 141.085C290.965 141.476 291.598 141.476 291.988 141.085L290.574 139.671ZM305.969 125.69V124.69C305.704 124.69 305.449 124.796 305.262 124.983L305.969 125.69ZM320.656 126.69C321.209 126.69 321.656 126.243 321.656 125.69C321.656 125.138 321.209 124.69 320.656 124.69V126.69ZM7.54808 170.888L44.2668 82.7625L42.4207 81.9933L5.70192 170.118L7.54808 170.888ZM42.765 83.1934L88.2962 115.506L89.4538 113.875L43.9225 81.5624L42.765 83.1934ZM89.783 115.109L116.22 57.8282L114.405 56.9901L87.967 114.271L89.783 115.109ZM114.718 58.2134L148.499 83.1821L149.688 81.5737L115.907 56.605L114.718 58.2134ZM149.94 82.9107L174.909 43.2545L173.216 42.1889L148.248 81.8451L149.94 82.9107ZM173.541 43.575L199.979 59.7312L201.021 58.0246L174.584 41.8684L173.541 43.575ZM86.7587 220.085C84.8092 219.816 82.3292 219.745 80.0979 220.322C77.8544 220.903 75.7241 222.184 74.8076 224.706L76.6874 225.389C77.2986 223.707 78.7265 222.743 80.5988 222.259C82.4833 221.771 84.6766 221.816 86.4852 222.066L86.7587 220.085ZM74.8071 224.708C74.0748 226.733 74.5126 228.47 75.503 229.876C76.4539 231.227 77.9055 232.269 79.2319 233.077L80.2728 231.369C79.0016 230.594 77.8439 229.727 77.1383 228.725C76.4723 227.779 76.2064 226.719 76.6879 225.387L74.8071 224.708ZM79.2324 233.077C86.0621 237.235 95.4439 238.873 103.28 238.121L103.088 236.13C95.6005 236.849 86.668 235.262 80.2723 231.369L79.2324 233.077ZM73.9894 215.526C77.7488 212.346 80.4213 208.413 82.8279 204.586C85.2614 200.717 87.3926 197.017 90.1285 194.046L88.6571 192.691C85.7614 195.836 83.5015 199.759 81.135 203.522C78.7416 207.327 76.2053 211.032 72.6978 213.999L73.9894 215.526ZM90.1781 193.987C92.1836 191.444 94.9483 190.024 98.0186 188.982C99.5557 188.46 101.14 188.043 102.731 187.618C104.309 187.198 105.898 186.77 107.381 186.236L106.703 184.354C105.313 184.855 103.805 185.262 102.216 185.686C100.641 186.106 98.9884 186.541 97.3759 187.088C94.1469 188.184 90.9592 189.766 88.6075 192.749L90.1781 193.987ZM108.431 185.732C111.764 183.685 115.42 180.344 118.086 177.038C119.42 175.384 120.536 173.703 121.239 172.162C121.918 170.671 122.311 169.096 121.858 167.782L119.967 168.433C120.158 168.986 120.05 169.947 119.419 171.332C118.81 172.668 117.802 174.205 116.529 175.783C113.982 178.941 110.492 182.119 107.384 184.028L108.431 185.732ZM121.858 167.782C121.139 165.692 119.984 164.292 118.564 163.547C117.148 162.804 115.594 162.777 114.201 163.195L114.776 165.11C115.758 164.816 116.759 164.859 117.634 165.318C118.505 165.775 119.374 166.709 119.967 168.433L121.858 167.782ZM114.266 163.177C109.873 164.178 106.315 165.83 102.851 167.435C99.3743 169.047 95.9928 170.61 91.8323 171.558L92.2766 173.508C96.6692 172.507 100.228 170.855 103.692 169.25C107.168 167.639 110.55 166.075 114.71 165.128L114.266 163.177ZM50.9297 180.653C45.8774 185.301 41.5874 192.948 37.2846 200.352C32.9236 207.856 28.5393 215.134 23.2611 219.463L24.5294 221.009C30.1397 216.408 34.6978 208.783 39.0138 201.357C43.3879 193.83 47.5095 186.518 52.2838 182.125L50.9297 180.653ZM23.2611 219.463C15.5843 225.759 2.98317 229.078 -3.49348 230.437L-3.08274 232.394C3.39158 231.036 16.4373 227.646 24.5294 221.009L23.2611 219.463ZM-8.91453 236.11C-9.68239 244.352 -7.39027 251.543 -3.71954 258.229C-0.0653434 264.884 5.00198 271.115 9.80895 277.385L11.3962 276.168C6.53136 269.823 1.59412 263.751 -1.96638 257.266C-5.51035 250.811 -7.64305 244.023 -6.92315 236.296L-8.91453 236.11ZM19.5906 278.838C23.5165 275.997 29.3286 271.892 35.056 268.217C40.8209 264.518 46.3831 261.333 49.8507 260.247L49.2532 258.339C45.4901 259.517 39.7109 262.854 33.976 266.534C28.2035 270.237 22.3572 274.367 18.418 277.218L19.5906 278.838ZM49.8509 260.247C54.2427 258.872 58.9717 257.889 63.865 256.965C68.7408 256.043 73.795 255.177 78.7537 254.039C88.6786 251.761 98.4155 248.358 106.148 241.031L104.772 239.579C97.4303 246.536 88.1156 249.838 78.3064 252.089C73.398 253.216 68.4145 254.069 63.4936 254.999C58.5903 255.926 53.7638 256.926 49.253 258.339L49.8509 260.247ZM106.148 241.03C106.903 240.315 107.786 239.546 108.732 238.705C109.669 237.873 110.656 236.982 111.578 236.053C113.388 234.23 115.096 232.124 115.607 229.869L113.656 229.427C113.28 231.087 111.942 232.848 110.159 234.644C109.284 235.525 108.337 236.382 107.404 237.21C106.481 238.03 105.558 238.834 104.772 239.579L106.148 241.03ZM115.607 229.869C116.131 227.557 115.335 225.545 114.485 224.176C114.056 223.485 113.599 222.933 113.249 222.553C113.074 222.362 112.923 222.212 112.814 222.108C112.759 222.056 112.715 222.015 112.682 221.986C112.666 221.972 112.653 221.96 112.643 221.952C112.638 221.947 112.634 221.944 112.631 221.941C112.63 221.939 112.628 221.938 112.627 221.937C112.626 221.937 112.626 221.936 112.625 221.936C112.625 221.936 112.625 221.935 112.625 221.935C112.624 221.935 112.624 221.935 111.973 222.694C111.322 223.453 111.322 223.453 111.322 223.453C111.322 223.453 111.322 223.452 111.321 223.452C111.321 223.452 111.321 223.452 111.321 223.452C111.32 223.451 111.32 223.451 111.32 223.451C111.321 223.452 111.322 223.452 111.323 223.454C111.327 223.457 111.334 223.463 111.343 223.472C111.362 223.489 111.393 223.517 111.434 223.556C111.515 223.633 111.635 223.752 111.778 223.907C112.065 224.219 112.439 224.672 112.785 225.23C113.487 226.36 114.02 227.824 113.656 229.427L115.607 229.869ZM52.2497 182.155C57.0008 178.167 71.2016 169.058 82.7358 165.441L82.1373 163.532C70.2954 167.246 55.8666 176.508 50.9638 180.623L52.2497 182.155ZM82.7358 165.441C88.0306 163.78 91.0818 163.109 96.5782 162.271L96.2769 160.294C90.6907 161.145 87.5393 161.838 82.1373 163.532L82.7358 165.441ZM96.5782 162.271C107.62 160.589 119.098 160.989 125.375 162.101L125.723 160.131C119.216 158.979 107.517 158.581 96.2769 160.294L96.5782 162.271ZM123.894 179.593C117.905 182.796 111.972 185.963 105.674 188.175L106.337 190.062C112.804 187.791 118.871 184.547 124.837 181.357L123.894 179.593ZM105.676 188.174C102.568 189.26 98.968 190.244 96.1072 192.459L97.3317 194.04C99.8618 192.081 103.022 191.22 106.335 190.063L105.676 188.174ZM96.11 192.457C93.2247 194.675 91.018 198.74 92.422 202.494L94.2953 201.794C93.3221 199.191 94.8146 195.976 97.329 194.042L96.11 192.457ZM92.4229 202.497C93.518 205.402 96.4351 207.137 99.2522 207.661L99.6185 205.695C97.23 205.25 95.0622 203.829 94.2944 201.792L92.4229 202.497ZM99.2522 207.661C102.056 208.183 104.909 207.728 107.508 207.285L107.172 205.313C104.533 205.763 102.021 206.143 99.6185 205.695L99.2522 207.661ZM107.507 207.285C116.406 205.771 125.683 203.885 133.488 198.911L132.413 197.225C124.987 201.957 116.083 203.797 107.172 205.313L107.507 207.285ZM133.488 198.911C134.575 198.219 135.915 197.28 136.586 195.817L134.767 194.984C134.366 195.86 133.505 196.529 132.413 197.225L133.488 198.911ZM136.585 195.819C137.119 194.659 137.139 193.397 137.096 192.358L135.097 192.441C135.139 193.431 135.091 194.282 134.768 194.983L136.585 195.819ZM137.096 192.359C136.97 189.241 136.32 186.457 135.078 183.604L133.244 184.403C134.389 187.032 134.981 189.574 135.097 192.44L137.096 192.359ZM125.973 201.573C126.809 203.221 127.615 204.899 128.095 206.585C128.572 208.262 128.707 209.88 128.262 211.423L130.183 211.978C130.766 209.957 130.558 207.934 130.018 206.037C129.48 204.148 128.593 202.318 127.757 200.668L125.973 201.573ZM128.261 211.426C127.579 213.813 125.547 215.72 123.211 217.232L124.298 218.911C126.754 217.322 129.298 215.076 130.184 211.975L128.261 211.426ZM123.211 217.232C114.021 223.184 102.065 223.45 91.0962 221.197L90.6939 223.156C101.894 225.456 114.473 225.274 124.298 218.911L123.211 217.232ZM91.0969 221.197C88.1568 220.591 85.3729 219.798 83.42 217.962L82.0499 219.419C84.452 221.678 87.7504 222.55 90.6932 223.156L91.0969 221.197ZM83.42 217.962C82.4815 217.079 81.7942 215.848 81.535 214.586C81.2767 213.328 81.4549 212.116 82.1271 211.174L80.4995 210.012C79.4328 211.506 79.233 213.318 79.5759 214.988C79.9179 216.654 80.8109 218.254 82.0499 219.419L83.42 217.962ZM82.1271 211.174C83.117 209.788 84.9232 209.14 86.9766 208.544L86.4193 206.623C84.4554 207.193 81.9494 207.982 80.4995 210.012L82.1271 211.174ZM86.9745 208.545C90.0359 207.664 92.9566 206.892 96.0615 206.178L95.613 204.229C92.4669 204.953 89.5108 205.734 86.4214 206.623L86.9745 208.545ZM123.256 175.767C122.693 178.534 123.048 182.049 125.52 184.089L126.793 182.547C125.151 181.192 124.718 178.614 125.216 176.166L123.256 175.767ZM125.522 184.091C127.973 186.105 131.427 185.824 134.065 185.074L133.518 183.15C131.03 183.858 128.444 183.904 126.791 182.545L125.522 184.091ZM134.064 185.074C135.449 184.682 136.892 184.127 138.135 183.174L136.918 181.587C135.963 182.319 134.796 182.788 133.52 183.15L134.064 185.074ZM138.135 183.174C141.406 180.666 142.825 176.428 141.837 170.594L139.865 170.928C140.772 176.287 139.42 179.668 136.918 181.587L138.135 183.174ZM131.584 165.925C131.661 165.76 131.762 165.689 131.688 165.757C131.652 165.789 131.589 165.842 131.487 165.921C131.283 166.08 131.004 166.285 130.642 166.553C129.933 167.078 128.98 167.796 127.997 168.669C126.066 170.381 123.853 172.831 123.256 175.768L125.216 176.166C125.676 173.901 127.458 171.82 129.324 170.165C130.239 169.353 131.134 168.677 131.832 168.16C132.174 167.907 132.487 167.678 132.716 167.499C132.831 167.41 132.945 167.318 133.04 167.23C133.097 167.178 133.282 167.012 133.393 166.777L131.584 165.925ZM141.837 170.594C141.324 167.568 139.87 165.257 138.562 163.714C137.907 162.94 137.283 162.352 136.818 161.954C136.585 161.755 136.392 161.603 136.254 161.499C136.185 161.447 136.129 161.406 136.089 161.378C136.069 161.364 136.053 161.353 136.042 161.344C136.036 161.34 136.031 161.337 136.027 161.334C136.025 161.333 136.023 161.332 136.022 161.331C136.021 161.33 136.021 161.33 136.02 161.33C136.02 161.329 136.02 161.329 136.019 161.329C136.019 161.329 136.019 161.329 135.458 162.157C134.898 162.985 134.898 162.985 134.898 162.985C134.897 162.985 134.897 162.984 134.897 162.984C134.897 162.984 134.897 162.984 134.896 162.984C134.896 162.984 134.896 162.984 134.896 162.984C134.897 162.984 134.898 162.985 134.901 162.987C134.906 162.99 134.915 162.997 134.928 163.006C134.954 163.024 134.995 163.054 135.049 163.095C135.157 163.177 135.318 163.304 135.517 163.474C135.916 163.815 136.462 164.328 137.036 165.006C138.188 166.366 139.429 168.357 139.865 170.928L141.837 170.594ZM91.8921 171.546C85.1007 172.664 76.1176 173.284 67.5718 175.374C58.9622 177.48 50.4898 181.13 44.4848 188.486L46.0341 189.751C51.6462 182.876 59.6327 179.375 68.047 177.317C76.525 175.243 85.1309 174.686 92.2168 173.52L91.8921 171.546ZM9.80895 277.385C12.1345 280.418 16.4827 281.088 19.5906 278.838L18.418 277.218C16.1991 278.824 13.0715 278.353 11.3962 276.168L9.80895 277.385ZM-3.49348 230.437C-6.2306 231.011 -8.63747 233.136 -8.91453 236.11L-6.92315 236.296C-6.74439 234.377 -5.15455 232.829 -3.08274 232.394L-3.49348 230.437ZM107.381 186.236C107.747 186.104 108.097 185.937 108.431 185.732L107.384 184.028C107.169 184.16 106.943 184.268 106.703 184.354L107.381 186.236ZM233.293 149.952L212.73 170.515L214.145 171.929L234.707 151.366L233.293 149.952ZM213.438 170.222H188.469V172.222H213.438V170.222ZM277.301 85.2725L297.863 64.71L296.449 63.2958L275.887 83.8583L277.301 85.2725ZM297.156 65.0029H320.656V63.0029H297.156V65.0029ZM291.988 141.085L306.676 126.398L305.262 124.983L290.574 139.671L291.988 141.085ZM305.969 126.69H320.656V124.69H305.969V126.69Z" fill="#32BCFF"/>
<path d="M234.75 23.6282C234.75 26.3205 232.567 28.5032 229.875 28.5032C227.183 28.5032 225 26.3205 225 23.6282C225 20.9358 227.183 18.7532 229.875 18.7532C232.567 18.7532 234.75 20.9358 234.75 23.6282Z" fill="white" stroke="#32BCFF" stroke-width="2"/>
<path d="M122.926 164.535C157.068 119.857 223.406 24.8607 227.416 26.5887C231.148 28.1963 149.713 142.131 134.811 163.067L122.926 164.535Z" fill="#EAF5FF" stroke="#EAF5FF" stroke-width="2" stroke-miterlimit="10" stroke-linecap="round" stroke-linejoin="round"/>
<path d="M131.055 167.474L136.93 163.067L139.867 167.474" stroke="#32BCFF" stroke-width="2" stroke-linecap="round" stroke-linejoin="round"/>
<path d="M11.5 170.502C11.5 173.194 9.31739 175.377 6.625 175.377C3.93261 175.377 1.75 173.194 1.75 170.502C1.75 167.809 3.93261 165.627 6.625 165.627C9.31739 165.627 11.5 167.809 11.5 170.502ZM48.8405 81.9938C48.8405 84.6862 46.6579 86.8688 43.9655 86.8688C41.2732 86.8688 39.0905 84.6862 39.0905 81.9938C39.0905 79.3014 41.2732 77.1188 43.9655 77.1188C46.6579 77.1188 48.8405 79.3014 48.8405 81.9938ZM93.75 114.689C93.75 117.382 91.5674 119.564 88.875 119.564C86.1826 119.564 84 117.382 84 114.689C84 111.997 86.1826 109.814 88.875 109.814C91.5674 109.814 93.75 111.997 93.75 114.689ZM120.188 55.9393C120.188 58.6317 118.005 60.8143 115.313 60.8143C112.62 60.8143 110.438 58.6317 110.438 55.9393C110.438 53.2469 112.62 51.0643 115.313 51.0643C118.005 51.0643 120.188 53.2469 120.188 55.9393ZM178.937 43.4033C178.937 46.0957 176.755 48.2783 174.062 48.2783C171.37 48.2783 169.187 46.0957 169.187 43.4033C169.187 40.7109 171.37 38.5283 174.062 38.5283C176.755 38.5283 178.937 40.7109 178.937 43.4033ZM153.969 82.5619C153.969 85.2543 151.786 87.4369 149.094 87.4369C146.401 87.4369 144.219 85.2543 144.219 82.5619C144.219 79.8695 146.401 77.6869 149.094 77.6869C151.786 77.6869 153.969 79.8695 153.969 82.5619Z" fill="white" stroke="#32BCFF" stroke-width="2"/>
<path d="M259.985 170.983C257.371 170.874 255.54 168.344 256.088 165.606L258.389 154.098C258.888 151.605 261.312 149.853 264.1 149.628C270.07 149.146 275.909 146.62 280.476 142.052C284.939 137.59 287.453 131.913 288.016 126.086C288.285 123.302 290.075 120.906 292.575 120.447L304.118 118.327C306.863 117.822 309.364 119.692 309.433 122.308C309.761 134.87 305.132 147.535 295.546 157.122C285.769 166.898 272.791 171.519 259.985 170.983ZM272.857 99.9373C270.293 98.8074 268.572 96.3564 268.918 93.8349L270.514 82.2081C270.893 79.4455 273.446 77.6549 275.949 78.4036C283.239 80.5841 290.108 84.5529 295.868 90.3127C301.087 95.5317 304.835 101.661 307.116 108.189C307.977 110.655 306.304 113.286 303.561 113.79L292.017 115.91C289.514 116.37 286.988 114.762 285.742 112.251C284.511 109.771 282.863 107.446 280.799 105.382C278.44 103.023 275.74 101.207 272.857 99.9373Z" stroke="#32BCFF" stroke-width="2"/>
<path d="M266.351 82.3944C266.802 79.1094 264.44 76.0665 261.125 76.1289C259.486 76.1597 257.847 76.2732 256.218 76.4694C252.925 76.8657 251.008 80.2076 251.911 83.3989L255.603 96.4461C256.172 98.4536 258.211 99.6362 260.292 99.492C262.374 99.3478 264.224 97.8931 264.507 95.8254L266.351 82.3944Z" fill="#FF5C52"/>
</svg>
