<svg width="101" height="117" viewBox="0 0 101 117" fill="none" xmlns="http://www.w3.org/2000/svg">
<path d="M16.9166 30.6123C15.582 30.6123 14.5 31.6943 14.5 33.029V36.654C14.5 37.9887 15.5819 39.0706 16.9166 39.0706H53.7698L59.2072 34.2372H99.0812C101.014 34.2372 101.498 36.6539 101.498 37.8622C103.431 37.8622 104.72 38.6678 105.123 39.0706H109.956C111.291 39.0706 112.373 37.9887 112.373 36.654V33.029C112.373 31.6943 111.291 30.6123 109.956 30.6123H16.9166Z" fill="#EAF5FF"/>
<path d="M16.9166 58.404C15.582 58.404 14.5 59.486 14.5 60.8206V64.4456C14.5 65.7803 15.5819 66.8623 16.9166 66.8623H49.5408V58.404H16.9166Z" fill="#EAF5FF"/>
<path d="M112.373 60.8206C112.373 59.486 111.291 58.404 109.956 58.404H105.123V66.8623H109.956C111.291 66.8623 112.373 65.7803 112.373 64.4456V60.8206Z" fill="#EAF5FF"/>
<path d="M56.793 57.1924H95.4586M56.793 66.859H95.4586M56.793 76.5257H95.4586M56.793 62.0257H95.4586M56.793 71.6924H95.4586M56.793 81.359H95.4586" stroke="#EAF5FF" stroke-linecap="round" stroke-linejoin="round"/>
<path d="M43.8816 8.53228L39.8793 12.484H51.9623C51.9623 11.9502 51.5295 10.7676 50.9956 10.7676H47.1759C46.4827 10.7676 45.9208 10.2056 45.9208 9.51239C45.9208 8.45994 44.7034 7.87482 43.8816 8.53228Z" fill="#00CECB"/>
<path d="M84.209 8.53228L88.2114 12.484H76.1283C76.1283 11.9502 76.5611 10.7676 77.095 10.7676H80.9147C81.6079 10.7676 82.1698 10.2056 82.1698 9.51239C82.1698 8.45994 83.3872 7.87482 84.209 8.53228Z" fill="#00CECB"/>
<path d="M45.3166 8.25488L48.3196 5.25184C51.0388 2.53256 54.7268 1.00488 58.5724 1.00488H69.5182C73.3638 1.00488 77.0518 2.53256 79.771 5.25184L82.774 8.25488M49.5457 10.6715L50.7362 9.481C53.4554 6.76172 57.1434 5.23405 60.989 5.23405H67.1016C70.9472 5.23405 74.6352 6.76172 77.3544 9.481L78.5449 10.6715M19.3381 101.297C19.3381 108.971 15.5513 115.192 10.88 115.192C6.2087 115.192 2.42188 108.971 2.42188 101.297M19.3381 101.297C19.3381 93.6221 15.5513 87.4007 10.88 87.4007C6.2087 87.4007 2.42188 93.6221 2.42188 101.297M19.3381 101.297H26.5879M19.3381 101.297H2.42188M2.42188 101.297H33.2336M43.5042 101.297C43.5042 93.6221 39.7173 87.4007 35.046 87.4007C30.3748 87.4007 26.5879 93.6221 26.5879 101.297M43.5042 101.297H49.5457M43.5042 101.297C43.5042 102.736 43.3709 104.125 43.1234 105.431M26.5879 101.297C26.5879 108.971 30.3748 115.192 35.046 115.192C38.8409 115.192 42.0521 111.087 43.1234 105.431M26.5879 101.297H33.2336M47.1291 115.192C47.1291 111.388 45.6002 107.941 43.1234 105.431M33.2336 101.297C37.1035 101.297 40.6039 102.879 43.1234 105.431M49.5457 84.9841H13.2966C11.9619 84.9841 10.88 83.9021 10.88 82.5674V14.9007C10.88 13.566 11.9619 12.484 13.2966 12.484H113.586C114.92 12.484 116.002 13.566 116.002 14.9007V82.5674C116.002 83.9021 114.92 84.9841 113.586 84.9841H105.128H106.336V87.4007C106.336 88.1899 105.832 88.8613 105.128 89.1101M49.5457 101.297H74.3159C77.9213 101.297 81.2059 102.67 83.6755 104.922M49.5457 101.297V102.505M86.5221 108.546C87.5992 110.521 88.2114 112.785 88.2114 115.192C88.2114 111.123 86.4625 107.463 83.6755 104.922M49.5457 102.505C49.5457 103.84 50.6276 104.922 51.9623 104.922H53.1706M49.5457 102.505V44.2976C49.5457 43.6566 49.8003 43.0419 50.2535 42.5887L57.9001 34.9419C58.3533 34.4887 58.968 34.2341 59.6089 34.2341H99.0861C100.421 34.2341 101.503 35.316 101.503 36.6507V37.8591M53.1706 104.922V106.13C53.1706 107.465 54.2525 108.547 55.5872 108.547H102.711C104.046 108.547 105.128 107.465 105.128 106.13V40.2757C105.128 38.941 104.046 37.8591 102.711 37.8591H101.503M53.1706 104.922H83.6755M101.503 37.8591V102.505C101.503 103.84 100.421 104.922 99.0861 104.922H83.6755M39.8793 12.484L43.8816 8.53228C44.7034 7.87482 45.9208 8.45994 45.9208 9.5124C45.9208 10.2056 46.4827 10.7676 47.1759 10.7676H50.9956C51.5295 10.7676 51.9623 11.9502 51.9623 12.484H39.8793ZM88.2114 12.484L84.209 8.53228C83.3872 7.87482 82.1698 8.45994 82.1698 9.5124C82.1698 10.2056 81.6079 10.7676 80.9147 10.7676H77.095C76.5611 10.7676 76.1283 11.9502 76.1283 12.484H88.2114ZM23.5672 10.6715H28.4004C29.4014 10.6715 30.2128 11.483 30.2128 12.484H21.7547C21.7547 11.483 22.5662 10.6715 23.5672 10.6715ZM99.6902 10.6715H104.523C105.524 10.6715 106.336 11.483 106.336 12.484H97.8778C97.8778 11.483 98.6892 10.6715 99.6902 10.6715Z" stroke="#00CECB"/>
<path fill-rule="evenodd" clip-rule="evenodd" d="M94.0947 86.6471C94.0947 90.9849 90.5783 94.5013 86.2407 94.5013C81.9031 94.5013 78.3867 90.9849 78.3867 86.6471C78.3867 82.3094 81.9031 78.793 86.2407 78.793C90.5783 78.793 94.0947 82.3094 94.0947 86.6471ZM86.2407 92.0846C89.2437 92.0846 91.678 89.6502 91.678 86.6471C91.678 83.6441 89.2437 81.2096 86.2407 81.2096C83.2377 81.2096 80.8033 83.6441 80.8033 86.6471C80.8033 89.6502 83.2377 92.0846 86.2407 92.0846Z" fill="#FF5C52" stroke="#FF5C52"/>
<path d="M56.793 92.4274L57.8018 95.4541C57.826 95.5269 57.9199 95.5464 57.9711 95.4893L62.8839 90.0119C62.9451 89.9436 63.0583 89.9869 63.0583 90.0786V96.7759C63.0583 96.8711 63.1788 96.9125 63.2373 96.8373L66.7459 92.3262C66.7835 92.2778 66.8555 92.2744 66.8976 92.3191L69.3694 94.945C69.4137 94.9921 69.4904 94.9853 69.5259 94.9312L72.1144 90.9774M72.1144 94.7474H73.7092" stroke="#86A4C1" stroke-linecap="round" stroke-linejoin="round"/>
</svg>
