<svg width="295" height="287" viewBox="0 0 295 287" fill="none" xmlns="http://www.w3.org/2000/svg">
<path d="M43.5794 76.1729C40.2197 76.1729 37.4961 78.8965 37.4961 82.2562V91.3812C37.4961 94.7409 40.2197 97.4645 43.5794 97.4645H136.35L150.038 85.2977H250.413C255.279 85.2977 256.496 91.381 256.496 94.4227C261.363 94.4227 264.607 96.4506 265.621 97.4645H277.788C281.147 97.4645 283.871 94.7409 283.871 91.3812V82.2562C283.871 78.8965 281.147 76.1729 277.788 76.1729H43.5794Z" fill="#EAF5FF"/>
<path d="M43.5794 146.131C40.2197 146.131 37.4961 148.855 37.4961 152.215V161.34C37.4961 164.699 40.2197 167.423 43.5794 167.423H125.704V146.131H43.5794Z" fill="#EAF5FF"/>
<path d="M283.871 152.215C283.871 148.855 281.147 146.131 277.788 146.131H265.621V167.423H277.788C281.147 167.423 283.871 164.699 283.871 161.34V152.215Z" fill="#EAF5FF"/>
<path d="M143.961 143.083H241.294M143.961 167.416H241.294M143.961 191.75H241.294M143.961 155.25H241.294M143.961 179.583H241.294M143.961 203.916H241.294" stroke="#EAF5FF" stroke-width="2" stroke-linecap="round" stroke-linejoin="round"/>
<path d="M111.453 20.5938L101.378 30.5413H131.794C131.794 29.1974 130.705 26.2205 129.361 26.2205H119.745C118.001 26.2205 116.586 24.8059 116.586 23.061C116.586 20.4117 113.521 18.9388 111.453 20.5938Z" fill="#00CECB"/>
<path d="M212.969 20.5938L223.044 30.5413H192.628C192.628 29.1974 193.717 26.2205 195.061 26.2205H204.676C206.421 26.2205 207.836 24.8059 207.836 23.061C207.836 20.4117 210.9 18.9388 212.969 20.5938Z" fill="#00CECB"/>
<path d="M115.065 19.8955L122.625 12.3361C129.47 5.49104 138.753 1.64551 148.434 1.64551H175.988C185.668 1.64551 194.952 5.49104 201.797 12.3361L209.357 19.8955M125.711 25.9788L128.708 22.9819C135.553 16.1369 144.837 12.2913 154.517 12.2913H169.905C179.585 12.2913 188.869 16.1369 195.714 22.9819L198.711 25.9788M49.6693 254.104C49.6693 273.422 40.1367 289.083 28.3776 289.083C16.6185 289.083 7.08594 273.422 7.08594 254.104M49.6693 254.104C49.6693 234.785 40.1367 219.125 28.3776 219.125C16.6185 219.125 7.08594 234.785 7.08594 254.104M49.6693 254.104H67.9193M49.6693 254.104H7.08594M7.08594 254.104H84.6484M110.503 254.104C110.503 234.785 100.97 219.125 89.2109 219.125C77.4519 219.125 67.9193 234.785 67.9193 254.104M110.503 254.104H125.711M110.503 254.104C110.503 257.728 110.167 261.224 109.544 264.512M67.9193 254.104C67.9193 273.422 77.4519 289.083 89.2109 289.083C98.7638 289.083 106.847 278.748 109.544 264.512M67.9193 254.104H84.6484M119.628 289.083C119.628 279.506 115.779 270.829 109.544 264.512M84.6484 254.104C94.3902 254.104 103.202 258.086 109.544 264.512M125.711 213.041H34.4609C31.1012 213.041 28.3776 210.318 28.3776 206.958V36.6247C28.3776 33.2649 31.1012 30.5413 34.4609 30.5413H286.919C290.279 30.5413 293.003 33.2649 293.003 36.6247V206.958C293.003 210.318 290.279 213.041 286.919 213.041H265.628H268.669V219.125C268.669 221.111 267.4 222.801 265.628 223.428M125.711 254.104H188.065C197.141 254.104 205.409 257.56 211.626 263.229M125.711 254.104V257.146M218.792 272.354C221.503 277.323 223.044 283.023 223.044 289.083C223.044 278.84 218.642 269.626 211.626 263.229M125.711 257.146C125.711 260.505 128.435 263.229 131.794 263.229H134.836M125.711 257.146V110.624C125.711 109.01 126.352 107.463 127.493 106.322L146.742 87.0731C147.883 85.9323 149.43 85.2913 151.043 85.2913H250.419C253.779 85.2913 256.503 88.0149 256.503 91.3747V94.4163M134.836 263.229V266.271C134.836 269.63 137.56 272.354 140.919 272.354H259.544C262.904 272.354 265.628 269.63 265.628 266.271V100.5C265.628 97.1399 262.904 94.4163 259.544 94.4163H256.503M134.836 263.229H211.626M256.503 94.4163V257.146C256.503 260.505 253.779 263.229 250.419 263.229H211.626M101.378 30.5413L111.453 20.5938C113.521 18.9388 116.586 20.4117 116.586 23.061C116.586 24.8059 118.001 26.2205 119.745 26.2205H129.361C130.705 26.2205 131.794 29.1974 131.794 30.5413H101.378ZM223.044 30.5413L212.969 20.5938C210.9 18.9388 207.836 20.4117 207.836 23.061C207.836 24.8059 206.421 26.2205 204.676 26.2205H195.061C193.717 26.2205 192.628 29.1974 192.628 30.5413H223.044ZM60.3151 25.9788H72.4818C75.0016 25.9788 77.0443 28.0215 77.0443 30.5413H55.7526C55.7526 28.0215 57.7953 25.9788 60.3151 25.9788ZM251.94 25.9788H264.107C266.627 25.9788 268.669 28.0215 268.669 30.5413H247.378C247.378 28.0215 249.42 25.9788 251.94 25.9788Z" stroke="#00CECB" stroke-width="2"/>
<path fill-rule="evenodd" clip-rule="evenodd" d="M237.866 217.227C237.866 228.146 229.014 236.998 218.095 236.998C207.176 236.998 198.324 228.146 198.324 217.227C198.324 206.308 207.176 197.456 218.095 197.456C229.014 197.456 237.866 206.308 237.866 217.227ZM218.095 230.914C225.654 230.914 231.783 224.786 231.783 217.227C231.783 209.668 225.654 203.539 218.095 203.539C210.536 203.539 204.408 209.668 204.408 217.227C204.408 224.786 210.536 230.914 218.095 230.914Z" fill="#FF5C52" stroke="#FF5C52" stroke-width="2"/>
<path d="M143.961 231.778L146.583 239.645C146.607 239.718 146.701 239.737 146.752 239.68L159.558 225.402C159.62 225.334 159.733 225.378 159.733 225.469V243.167C159.733 243.262 159.853 243.303 159.912 243.228L169.124 231.384C169.162 231.335 169.234 231.332 169.276 231.376L175.752 238.256C175.796 238.303 175.873 238.296 175.908 238.242L182.53 228.128M182.53 237.618H186.544" stroke="#86A4C1" stroke-width="2" stroke-linecap="round" stroke-linejoin="round"/>
</svg>
