<svg width="79" height="123" viewBox="0 0 79 123" fill="none" xmlns="http://www.w3.org/2000/svg">
<path d="M16.2109 11.4902L39.671 1.98351C41.7055 1.20847 43.9539 1.20847 45.9884 1.98351L69.4484 11.4902" stroke="#FF5C52" stroke-linecap="round" stroke-linejoin="round"/>
<path fill-rule="evenodd" clip-rule="evenodd" d="M9.87292 9.58984C8.47282 9.58984 7.3378 10.7249 7.3378 12.125V94.5163C7.3378 95.9165 8.47281 97.0515 9.87292 97.0515H75.786C77.1861 97.0515 78.3212 95.9165 78.3212 94.5163V12.125C78.3212 10.7249 77.1861 9.58984 75.786 9.58984H9.87292ZM15.5769 15.2939C14.1768 15.2939 13.0418 16.4289 13.0418 17.829V88.8123C13.0418 90.2124 14.1768 91.3475 15.5769 91.3475H70.082C71.4821 91.3475 72.6171 90.2124 72.6171 88.8123V17.829C72.6171 16.4289 71.4821 15.2939 70.082 15.2939H15.5769Z" fill="#EAF5FF"/>
<path d="M65.6455 107.192V107.826C65.6455 109.226 64.5105 110.361 63.1104 110.361H3.53512C2.13501 110.361 1 109.226 1 107.826V107.192C1 105.792 2.13501 104.657 3.53512 104.657H63.1104C64.5105 104.657 65.6455 105.792 65.6455 107.192Z" fill="#EAF5FF"/>
<path d="M9.87292 9.08984C8.19667 9.08984 6.8378 10.4487 6.8378 12.125H7.8378C7.8378 11.001 8.74896 10.0898 9.87292 10.0898V9.08984ZM6.8378 12.125V94.5163H7.8378V12.125H6.8378ZM6.8378 94.5163C6.8378 96.1926 8.19667 97.5515 9.87292 97.5515V96.5515C8.74896 96.5515 7.8378 95.6403 7.8378 94.5163H6.8378ZM9.87292 97.5515H75.786V96.5515H9.87292V97.5515ZM75.786 97.5515C77.4623 97.5515 78.8212 96.1926 78.8212 94.5163H77.8212C77.8212 95.6403 76.91 96.5515 75.786 96.5515V97.5515ZM78.8212 94.5163V12.125H77.8212V94.5163H78.8212ZM78.8212 12.125C78.8212 10.4487 77.4623 9.08984 75.786 9.08984V10.0898C76.91 10.0898 77.8212 11.001 77.8212 12.125H78.8212ZM75.786 9.08984H9.87292V10.0898H75.786V9.08984ZM15.5769 14.7939C13.9007 14.7939 12.5418 16.1527 12.5418 17.829H13.5418C13.5418 16.705 14.453 15.7939 15.5769 15.7939V14.7939ZM12.5418 17.829V88.8123H13.5418V17.829H12.5418ZM12.5418 88.8123C12.5418 90.4886 13.9007 91.8475 15.5769 91.8475V90.8475C14.453 90.8475 13.5418 89.9363 13.5418 88.8123H12.5418ZM15.5769 91.8475H70.082V90.8475H15.5769V91.8475ZM70.082 91.8475C71.7583 91.8475 73.1171 90.4886 73.1171 88.8123H72.1171C72.1171 89.9363 71.206 90.8475 70.082 90.8475V91.8475ZM73.1171 88.8123V17.829H72.1171V88.8123H73.1171ZM73.1171 17.829C73.1171 16.1527 71.7583 14.7939 70.082 14.7939V15.7939C71.206 15.7939 72.1171 16.705 72.1171 17.829H73.1171ZM70.082 14.7939H15.5769V15.7939H70.082V14.7939ZM66.1455 107.826V107.192H65.1455V107.826H66.1455ZM0.5 107.192V107.826H1.5V107.192H0.5ZM3.53512 110.861H63.1104V109.861H3.53512V110.861ZM0.5 107.826C0.5 109.502 1.85887 110.861 3.53512 110.861V109.861C2.41115 109.861 1.5 108.95 1.5 107.826H0.5ZM1.5 107.192C1.5 106.068 2.41115 105.157 3.53512 105.157V104.157C1.85887 104.157 0.5 105.516 0.5 107.192H1.5ZM66.1455 107.192C66.1455 105.516 64.7867 104.157 63.1104 104.157V105.157C64.2344 105.157 65.1455 106.068 65.1455 107.192H66.1455ZM65.1455 107.826C65.1455 108.95 64.2344 109.861 63.1104 109.861V110.861C64.7867 110.861 66.1455 109.502 66.1455 107.826H65.1455ZM63.1104 104.157H3.53512V105.157H63.1104V104.157Z" fill="#EAF5FF"/>
<path d="M44.0976 3.25193C44.0976 3.95199 43.5301 4.51949 42.8301 4.51949C42.13 4.51949 41.5625 3.95199 41.5625 3.25193C41.5625 2.55188 42.13 1.98438 42.8301 1.98438C43.5301 1.98438 44.0976 2.55188 44.0976 3.25193Z" fill="#EAF5FF"/>
<path d="M37.3974 50.9576C37.4923 50.6983 37.3591 50.4111 37.0998 50.3161C36.8405 50.2212 36.5533 50.3544 36.4584 50.6137L37.3974 50.9576ZM29.6153 70.7527L29.1458 70.5808L29.6153 70.7527ZM31.7744 72.5592L31.5277 72.1243L31.7744 72.5592ZM34.3747 71.0839L34.128 70.649H34.128L34.3747 71.0839ZM36.5028 71.792L36.9618 71.5939L36.5028 71.792ZM37.4404 73.9643L36.9813 74.1624L37.4404 73.9643ZM50.4684 50.6137C50.3734 50.3544 50.0862 50.2212 49.8269 50.3161C49.5676 50.4111 49.4344 50.6983 49.5294 50.9576L50.4684 50.6137ZM57.3114 70.7527L57.781 70.5808L57.3114 70.7527ZM55.1523 72.5592L54.9056 72.9941L55.1523 72.5592ZM52.5521 71.0839L52.7988 70.649L52.5521 71.0839ZM50.424 71.792L50.883 71.9902L50.424 71.792ZM49.4864 73.9643L49.9454 74.1624V74.1624L49.4864 73.9643ZM46.6585 73.7863L47.139 73.648L46.6585 73.7863ZM40.2682 73.7863L40.7487 73.9246L40.2682 73.7863ZM43.9634 57.2748C43.9634 56.9987 43.7395 56.7748 43.4634 56.7748C43.1872 56.7748 42.9634 56.9987 42.9634 57.2748H43.9634ZM23.1824 21.1317C22.9063 21.1317 22.6824 21.3556 22.6824 21.6317C22.6824 21.9079 22.9063 22.1317 23.1824 22.1317V21.1317ZM62.4768 22.1317C62.7529 22.1317 62.9768 21.9079 62.9768 21.6317C62.9768 21.3556 62.7529 21.1317 62.4768 21.1317V22.1317ZM23.1824 85.7773C22.9063 85.7773 22.6824 86.0012 22.6824 86.2773C22.6824 86.5534 22.9063 86.7773 23.1824 86.7773V85.7773ZM34.5905 86.7773C34.8666 86.7773 35.0905 86.5534 35.0905 86.2773C35.0905 86.0012 34.8666 85.7773 34.5905 85.7773V86.7773ZM51.0687 85.7773C50.7926 85.7773 50.5687 86.0012 50.5687 86.2773C50.5687 86.5534 50.7926 86.7773 51.0687 86.7773V85.7773ZM62.4768 86.7773C62.7529 86.7773 62.9768 86.5534 62.9768 86.2773C62.9768 86.0012 62.7529 85.7773 62.4768 85.7773V86.7773ZM23.1824 24.9344C22.9063 24.9344 22.6824 25.1583 22.6824 25.4344C22.6824 25.7106 22.9063 25.9344 23.1824 25.9344V24.9344ZM62.4768 25.9344C62.7529 25.9344 62.9768 25.7106 62.9768 25.4344C62.9768 25.1583 62.7529 24.9344 62.4768 24.9344V25.9344ZM36.4584 50.6137L29.1458 70.5808L30.0848 70.9247L37.3974 50.9576L36.4584 50.6137ZM32.0212 72.9941L34.6214 71.5188L34.128 70.649L31.5277 72.1243L32.0212 72.9941ZM36.0437 71.9902L36.9813 74.1624L37.8994 73.7661L36.9618 71.5939L36.0437 71.9902ZM49.5294 50.9576L56.8419 70.9247L57.781 70.5808L50.4684 50.6137L49.5294 50.9576ZM55.399 72.1243L52.7988 70.649L52.3053 71.5188L54.9056 72.9941L55.399 72.1243ZM49.9649 71.5939L49.0273 73.7661L49.9454 74.1624L50.883 71.9902L49.9649 71.5939ZM47.139 73.648L43.9439 62.5443L42.9829 62.8208L46.178 73.9246L47.139 73.648ZM40.7487 73.9246L43.9439 62.8208L42.9829 62.5443L39.7877 73.648L40.7487 73.9246ZM43.9634 62.6825V57.2748H42.9634V62.6825H43.9634ZM49.0273 73.7661C48.6553 74.628 47.3975 74.5463 47.139 73.648L46.178 73.9246C46.697 75.7281 49.2026 75.8833 49.9454 74.1624L49.0273 73.7661ZM56.8419 70.9247C57.1563 71.7831 56.2204 72.5904 55.399 72.1243L54.9056 72.9941C56.5158 73.9077 58.4236 72.3357 57.781 70.5808L56.8419 70.9247ZM36.9813 74.1624C37.7241 75.8833 40.2298 75.7281 40.7487 73.9246L39.7877 73.648C39.5292 74.5463 38.2714 74.628 37.8994 73.7661L36.9813 74.1624ZM34.6214 71.5188C35.1446 71.2219 35.8087 71.4457 36.0437 71.9902L36.9618 71.5939C36.4891 70.4986 35.1647 70.0608 34.128 70.649L34.6214 71.5188ZM52.7988 70.649C51.762 70.0608 50.4377 70.4986 49.9649 71.5939L50.883 71.9902C51.118 71.4457 51.7821 71.2219 52.3053 71.5188L52.7988 70.649ZM29.1458 70.5808C28.5031 72.3357 30.411 73.9077 32.0212 72.9941L31.5277 72.1243C30.7063 72.5904 29.7704 71.7831 30.0848 70.9247L29.1458 70.5808ZM23.1824 22.1317H62.4768V21.1317H23.1824V22.1317ZM23.1824 86.7773H34.5905V85.7773H23.1824V86.7773ZM51.0687 86.7773H62.4768V85.7773H51.0687V86.7773ZM23.1824 25.9344H62.4768V24.9344H23.1824V25.9344ZM15.5771 15.7939H70.0821V14.7939H15.5771V15.7939ZM72.1173 17.8291V88.8124H73.1173V17.8291H72.1173ZM70.0821 90.8475H15.5771V91.8475H70.0821V90.8475ZM13.5419 88.8124V17.8291H12.5419V88.8124H13.5419ZM15.5771 90.8475C14.4531 90.8475 13.5419 89.9364 13.5419 88.8124H12.5419C12.5419 90.4887 13.9008 91.8475 15.5771 91.8475V90.8475ZM72.1173 88.8124C72.1173 89.9364 71.2061 90.8475 70.0821 90.8475V91.8475C71.7584 91.8475 73.1173 90.4887 73.1173 88.8124H72.1173ZM70.0821 15.7939C71.2061 15.7939 72.1173 16.7051 72.1173 17.8291H73.1173C73.1173 16.1528 71.7584 14.7939 70.0821 14.7939V15.7939ZM15.5771 14.7939C13.9008 14.7939 12.5419 16.1528 12.5419 17.8291H13.5419C13.5419 16.7051 14.4531 15.7939 15.5771 15.7939V14.7939ZM57.5403 104.023V110.995H58.5403V104.023H57.5403ZM55.0052 104.023V110.995H56.0052V104.023H55.0052ZM8.10547 104.023V110.995H9.10547V104.023H8.10547ZM78.8213 119.868V112.896H77.8213V119.868H78.8213ZM13.1757 112.896V119.868H14.1757V112.896H13.1757ZM23.1824 109.861H16.2108V110.861H23.1824V109.861ZM16.2108 122.903H23.1824V121.903H16.2108V122.903ZM22.6824 110.361V122.403H23.6824V110.361H22.6824ZM70.7159 109.861H26.3513V110.861H70.7159V109.861ZM26.3513 109.861H23.1824V110.861H26.3513V109.861ZM23.1824 122.903H26.3513V121.903H23.1824V122.903ZM26.3513 122.903H70.7159V121.903H26.3513V122.903ZM70.7159 122.903H75.7861V121.903H70.7159V122.903ZM25.8513 110.361V122.403H26.8513V110.361H25.8513ZM70.2159 110.361V122.403H71.2159V110.361H70.2159ZM13.1757 119.868C13.1757 121.544 14.5346 122.903 16.2108 122.903V121.903C15.0869 121.903 14.1757 120.992 14.1757 119.868H13.1757ZM14.1757 112.896C14.1757 111.772 15.0869 110.861 16.2108 110.861V109.861C14.5346 109.861 13.1757 111.22 13.1757 112.896H14.1757ZM78.8213 112.896C78.8213 111.22 77.4624 109.861 75.7861 109.861V110.861C76.9101 110.861 77.8213 111.772 77.8213 112.896H78.8213ZM77.8213 119.868C77.8213 120.992 76.9101 121.903 75.7861 121.903V122.903C77.4624 122.903 78.8213 121.544 78.8213 119.868H77.8213ZM75.7861 109.861H70.7159V110.861H75.7861V109.861Z" fill="#FF5C52"/>
<path fill-rule="evenodd" clip-rule="evenodd" d="M31.751 48.6885C32.6708 49.2404 32.9875 50.4221 32.4668 51.36C31.7379 52.6731 32.6713 54.2895 34.173 54.3147C35.2454 54.3328 36.1106 55.1978 36.1286 56.2703C36.1539 57.7719 37.7703 58.705 39.0833 57.9761C40.0212 57.4554 41.203 57.7721 41.7549 58.6919C42.5276 59.9797 44.394 59.9798 45.1667 58.6921C45.7185 57.7723 46.9003 57.4557 47.8382 57.9763C49.1514 58.7053 50.768 57.772 50.7933 56.2702C50.8113 55.1977 51.6764 54.3325 52.7489 54.3145C54.2505 54.2892 55.1837 52.6729 54.4548 51.3598C53.9342 50.422 54.2508 49.2403 55.1706 48.6884C56.4584 47.9157 56.4582 46.0493 55.1705 45.2766C54.2506 44.7247 53.934 43.5429 54.4546 42.605C55.1835 41.2919 54.2504 39.6755 52.7488 39.6502C51.6763 39.6322 50.8112 38.7669 50.7931 37.6944C50.7679 36.1927 49.1514 35.2593 47.8383 35.9882C46.9004 36.5089 45.7187 36.1922 45.1668 35.2724C44.3941 33.9846 42.5275 33.9848 41.7548 35.2726C41.2029 36.1924 40.0194 36.5082 39.0816 35.9876C37.7707 35.2599 36.1541 36.1898 36.1289 37.6888C36.1109 38.7575 35.2458 39.6203 34.1772 39.6411C32.675 39.6704 31.7371 41.29 32.4664 42.6037C32.9871 43.5416 32.671 44.7246 31.7511 45.2765C30.4632 46.0493 30.4631 47.9158 31.751 48.6885ZM43.4608 54.5876C47.6611 54.5876 51.0661 51.1826 51.0661 46.9822C51.0661 42.7819 47.6611 39.3769 43.4608 39.3769C39.2604 39.3769 35.8554 42.7819 35.8554 46.9822C35.8554 51.1826 39.2604 54.5876 43.4608 54.5876Z" fill="#EAF5FF"/>
<path d="M50.5701 46.9823C50.5701 50.9065 47.3889 54.0877 43.4647 54.0877C39.5406 54.0877 36.3594 50.9065 36.3594 46.9823C36.3594 43.0581 39.5406 39.877 43.4647 39.877C47.3889 39.877 50.5701 43.0581 50.5701 46.9823Z" stroke="#FFD02C" stroke-linecap="round" stroke-linejoin="round"/>
</svg>
