<svg width="280" height="288" viewBox="0 0 280 288" fill="none" xmlns="http://www.w3.org/2000/svg">
<path d="M136.685 209.65C136.685 215.97 131.561 221.094 125.241 221.094C118.921 221.094 113.798 215.97 113.798 209.65C113.798 208.313 114.027 207.029 114.449 205.836C116.02 201.391 120.259 198.207 125.241 198.207C130.224 198.207 134.462 201.391 136.033 205.836C136.455 207.029 136.685 208.313 136.685 209.65Z" fill="white"/>
<path d="M167.2 209.65C167.2 215.97 162.077 221.094 155.757 221.094C149.437 221.094 144.313 215.97 144.313 209.65C144.313 208.313 144.543 207.029 144.965 205.836C146.536 201.391 150.774 198.207 155.757 198.207C160.739 198.207 164.978 201.391 166.549 205.836C166.971 207.029 167.2 208.313 167.2 209.65Z" fill="white"/>
<path d="M114.874 224.693L115.83 224.398C115.7 223.979 115.313 223.693 114.874 223.693V224.693ZM112.374 206.456V207.456C112.664 207.456 112.94 207.33 113.13 207.11C113.32 206.89 113.406 206.599 113.364 206.312L112.374 206.456ZM166.124 224.693V223.693C165.685 223.693 165.298 223.979 165.168 224.398L166.124 224.693ZM156.436 239.108L155.794 238.341L156.436 239.108ZM168.624 206.456L167.634 206.312C167.593 206.599 167.678 206.89 167.868 207.11C168.058 207.33 168.334 207.456 168.624 207.456V206.456ZM85.4235 267.088L84.946 266.21L84.9088 266.23L84.8735 266.253L85.4235 267.088ZM195.575 267.088L196.125 266.253L196.089 266.23L196.052 266.21L195.575 267.088ZM112.876 200.081C112.857 199.529 112.394 199.097 111.842 199.116C111.29 199.136 110.858 199.599 110.877 200.151L112.876 200.081ZM170.121 200.151C170.14 199.599 169.708 199.136 169.156 199.116C168.604 199.097 168.141 199.529 168.122 200.081L170.121 200.151ZM104.937 256.482L105.414 257.361L104.937 256.482ZM114.449 205.836L113.506 205.503L114.449 205.836ZM166.549 205.836L167.492 205.503L166.549 205.836ZM140.499 264.775L140.515 263.775L140.499 264.775ZM113.919 224.988C115.002 228.5 117.61 233.713 121.947 238.064C126.301 242.431 132.429 245.957 140.499 245.957V243.957C133.069 243.957 127.427 240.728 123.364 236.652C119.284 232.559 116.83 227.64 115.83 224.398L113.919 224.988ZM114.874 223.693C112.903 223.693 111.385 222.752 110.279 221.25C109.154 219.724 108.476 217.633 108.292 215.489C108.108 213.341 108.43 211.255 109.178 209.75C109.915 208.267 110.991 207.456 112.374 207.456V205.456C110.007 205.456 108.349 206.924 107.387 208.86C106.436 210.775 106.093 213.248 106.3 215.66C106.507 218.075 107.274 220.544 108.669 222.437C110.082 224.354 112.158 225.693 114.874 225.693V223.693ZM165.168 224.398C164.023 228.111 160.98 233.998 155.794 238.341L157.078 239.875C162.615 235.238 165.844 228.994 167.079 224.988L165.168 224.398ZM155.794 238.341C151.924 241.582 146.872 243.957 140.499 243.957V245.957C147.412 245.957 152.906 243.369 157.078 239.875L155.794 238.341ZM166.124 225.693C168.84 225.693 170.916 224.354 172.329 222.437C173.724 220.544 174.491 218.075 174.698 215.66C174.905 213.248 174.563 210.775 173.611 208.86C172.649 206.924 170.991 205.456 168.624 205.456V207.456C170.007 207.456 171.083 208.267 171.82 209.75C172.568 211.255 172.89 213.341 172.706 215.489C172.522 217.633 171.844 219.724 170.719 221.25C169.613 222.752 168.095 223.693 166.124 223.693V225.693ZM84.8735 266.253C82.0593 268.107 80.375 271.394 80.375 274.9H82.375C82.375 272.017 83.761 269.381 85.9736 267.923L84.8735 266.253ZM124.562 239.108C123.602 238.828 123.602 238.828 123.602 238.828C123.602 238.827 123.602 238.827 123.602 238.827C123.602 238.827 123.602 238.827 123.602 238.828C123.602 238.828 123.602 238.829 123.601 238.83C123.6 238.833 123.599 238.837 123.597 238.843C123.594 238.855 123.588 238.874 123.58 238.9C123.565 238.951 123.541 239.028 123.509 239.127C123.445 239.327 123.349 239.617 123.221 239.974C122.965 240.69 122.585 241.669 122.091 242.722C121.078 244.879 119.673 247.147 118.003 248.247L119.103 249.917C121.269 248.49 122.869 245.771 123.901 243.572C124.429 242.448 124.833 241.407 125.104 240.648C125.24 240.267 125.343 239.956 125.413 239.738C125.448 239.629 125.475 239.544 125.493 239.484C125.502 239.455 125.509 239.431 125.514 239.415C125.516 239.407 125.518 239.401 125.52 239.396C125.52 239.394 125.521 239.392 125.521 239.391C125.521 239.39 125.522 239.389 125.522 239.389C125.522 239.389 125.522 239.388 125.522 239.388C125.522 239.388 125.522 239.388 124.562 239.108ZM161.968 249.961L195.097 267.967L196.052 266.21L162.923 248.203L161.968 249.961ZM195.024 267.923C197.237 269.381 198.623 272.017 198.623 274.9H200.623C200.623 271.394 198.939 268.107 196.125 266.253L195.024 267.923ZM156.436 239.108C155.476 239.388 155.476 239.388 155.476 239.388C155.476 239.388 155.476 239.389 155.476 239.389C155.477 239.389 155.477 239.39 155.477 239.391C155.477 239.392 155.478 239.394 155.479 239.396C155.48 239.401 155.482 239.407 155.484 239.415C155.489 239.431 155.496 239.455 155.505 239.484C155.523 239.544 155.55 239.629 155.585 239.738C155.655 239.956 155.758 240.267 155.894 240.648C156.165 241.407 156.569 242.448 157.097 243.572C158.129 245.771 159.729 248.49 161.895 249.917L162.995 248.247C161.325 247.147 159.92 244.879 158.907 242.722C158.413 241.669 158.033 240.69 157.777 239.974C157.649 239.617 157.553 239.327 157.489 239.127C157.457 239.028 157.433 238.951 157.418 238.9C157.41 238.874 157.404 238.855 157.401 238.843C157.399 238.837 157.398 238.833 157.397 238.83C157.396 238.829 157.396 238.828 157.396 238.828C157.396 238.827 157.396 238.827 157.396 238.827C157.396 238.827 157.396 238.827 157.396 238.828C157.396 238.828 157.396 238.828 156.436 239.108ZM112.374 206.456C113.364 206.312 113.364 206.312 113.364 206.312C113.364 206.312 113.364 206.312 113.364 206.312C113.364 206.312 113.364 206.312 113.364 206.312C113.364 206.312 113.364 206.312 113.364 206.311C113.364 206.311 113.363 206.309 113.363 206.307C113.362 206.303 113.362 206.297 113.36 206.288C113.358 206.271 113.354 206.244 113.349 206.208C113.34 206.136 113.325 206.027 113.308 205.884C113.273 205.598 113.224 205.174 113.171 204.63C113.065 203.544 112.943 201.979 112.876 200.081L110.877 200.151C110.945 202.096 111.071 203.702 111.181 204.824C111.235 205.385 111.286 205.826 111.323 206.128C111.341 206.279 111.357 206.395 111.367 206.474C111.373 206.514 111.377 206.544 111.38 206.565C111.381 206.576 111.382 206.584 111.383 206.59C111.384 206.593 111.384 206.595 111.384 206.596C111.384 206.597 111.384 206.598 111.384 206.599C111.384 206.599 111.384 206.599 111.384 206.599C111.384 206.599 111.385 206.599 111.385 206.599C111.385 206.6 111.385 206.6 112.374 206.456ZM168.624 206.456C169.614 206.6 169.614 206.6 169.614 206.599C169.614 206.599 169.614 206.599 169.614 206.599C169.614 206.599 169.614 206.599 169.614 206.599C169.614 206.598 169.614 206.597 169.614 206.596C169.614 206.595 169.615 206.593 169.615 206.59C169.616 206.584 169.617 206.576 169.618 206.565C169.621 206.544 169.626 206.514 169.631 206.474C169.642 206.395 169.657 206.279 169.675 206.128C169.712 205.826 169.763 205.385 169.817 204.824C169.927 203.702 170.053 202.096 170.121 200.151L168.122 200.081C168.056 201.979 167.933 203.544 167.827 204.63C167.774 205.174 167.725 205.598 167.69 205.884C167.673 206.027 167.658 206.136 167.649 206.208C167.644 206.244 167.64 206.271 167.638 206.288C167.636 206.297 167.636 206.303 167.635 206.307C167.635 206.309 167.634 206.311 167.634 206.311C167.634 206.312 167.634 206.312 167.634 206.312C167.634 206.312 167.634 206.312 167.634 206.312C167.634 206.312 167.634 206.312 167.634 206.312C167.634 206.312 167.634 206.312 168.624 206.456ZM118.023 249.93C126.236 255.055 132.911 257.804 139.876 257.851C146.835 257.897 153.919 255.245 162.951 249.944L161.939 248.22C153.015 253.457 146.309 255.894 139.89 255.851C133.476 255.808 127.183 253.288 119.082 248.234L118.023 249.93ZM118.075 248.203L104.459 255.604L105.414 257.361L119.03 249.961L118.075 248.203ZM104.459 255.604L84.946 266.21L85.9011 267.967L105.414 257.361L104.459 255.604ZM135.685 209.65C135.685 215.418 131.009 220.094 125.241 220.094V222.094C132.113 222.094 137.685 216.523 137.685 209.65H135.685ZM125.241 220.094C119.473 220.094 114.798 215.418 114.798 209.65H112.798C112.798 216.523 118.369 222.094 125.241 222.094V220.094ZM166.2 209.65C166.2 215.418 161.525 220.094 155.757 220.094V222.094C162.629 222.094 168.2 216.523 168.2 209.65H166.2ZM155.757 220.094C149.989 220.094 145.313 215.418 145.313 209.65H143.313C143.313 216.523 148.885 222.094 155.757 222.094V220.094ZM125.241 199.207C129.787 199.207 133.656 202.112 135.091 206.169L136.976 205.503C135.269 200.671 130.661 197.207 125.241 197.207V199.207ZM135.091 206.169C135.475 207.257 135.685 208.428 135.685 209.65H137.685C137.685 208.198 137.435 206.801 136.976 205.503L135.091 206.169ZM145.313 209.65C145.313 208.428 145.523 207.257 145.907 206.169L144.022 205.503C143.563 206.801 143.313 208.198 143.313 209.65H145.313ZM145.907 206.169C147.342 202.112 151.211 199.207 155.757 199.207V197.207C150.337 197.207 145.73 200.671 144.022 205.503L145.907 206.169ZM136.033 206.836H144.965V204.836H136.033V206.836ZM114.798 209.65C114.798 208.428 115.007 207.257 115.392 206.169L113.506 205.503C113.047 206.801 112.798 208.198 112.798 209.65H114.798ZM115.392 206.169C116.826 202.112 120.696 199.207 125.241 199.207V197.207C119.822 197.207 115.214 200.671 113.506 205.503L115.392 206.169ZM155.757 199.207C160.302 199.207 164.172 202.112 165.606 206.169L167.492 205.503C165.784 200.671 161.176 197.207 155.757 197.207V199.207ZM165.606 206.169C165.991 207.257 166.2 208.428 166.2 209.65H168.2C168.2 208.198 167.951 206.801 167.492 205.503L165.606 206.169ZM109.781 254.307C119.442 261.792 130.223 265.614 140.483 265.775L140.515 263.775C130.73 263.621 120.361 259.973 111.006 252.726L109.781 254.307ZM140.483 265.775C151.63 265.951 162.141 261.803 169.858 253.386L168.384 252.035C161.08 260.002 151.13 263.943 140.515 263.775L140.483 265.775ZM139.499 264.775V274.9H141.499V264.775H139.499Z" fill="#86A4C1"/>
<path d="M1 6.94043V85.4092C1 88.6193 3.60235 91.2217 6.8125 91.2217H155.031C158.241 91.2217 160.844 88.6193 160.844 85.4092V6.94043C160.844 3.73027 158.241 1.12793 155.031 1.12793H6.8125C3.60235 1.12793 1 3.73027 1 6.94043Z" fill="#EAF5FF"/>
<path d="M248.031 268.503H226.234V184.222H248.031V268.503Z" fill="#EAF5FF"/>
<path d="M56.2188 153.706C56.2188 152.101 57.5199 150.8 59.125 150.8H140.5V120.284H35.875C34.2699 120.284 32.9688 121.585 32.9688 123.19V268.503H56.2188V153.706Z" fill="#EAF5FF"/>
<path d="M108.077 200.115C108.077 200.115 108.077 165.785 140.5 165.785V178.409C140.5 179.862 141.372 183.059 144.859 184.222H155.407C151.921 190.352 147.012 194.638 133.675 198.399V186.383C126.436 194.105 119.626 198.622 108.077 200.115Z" fill="#EAF5FF"/>
<path d="M160.844 102.847V108.659C160.844 111.869 163.446 114.472 166.656 114.472H253.844C257.054 114.472 259.656 111.869 259.656 108.659V102.847C259.656 99.6365 257.054 97.0342 253.844 97.0342H166.656C163.446 97.0342 160.844 99.6365 160.844 102.847Z" fill="#EAF5FF"/>
<path d="M163.75 131.909H256.75C258.355 131.909 259.656 130.608 259.656 129.003C259.656 127.398 258.355 126.097 256.75 126.097H163.75C162.145 126.097 160.844 127.398 160.844 129.003C160.844 130.608 162.145 131.909 163.75 131.909Z" fill="#EAF5FF"/>
<path d="M163.75 143.534H256.75C258.355 143.534 259.656 142.233 259.656 140.628C259.656 139.023 258.355 137.722 256.75 137.722H163.75C162.145 137.722 160.844 139.023 160.844 140.628C160.844 142.233 162.145 143.534 163.75 143.534Z" fill="#EAF5FF"/>
<path d="M163.75 155.159H256.75C258.355 155.159 259.656 153.858 259.656 152.253C259.656 150.648 258.355 149.347 256.75 149.347H163.75C162.145 149.347 160.844 150.648 160.844 152.253C160.844 153.858 162.145 155.159 163.75 155.159Z" fill="#EAF5FF"/>
<path d="M163.75 166.784H256.75C258.355 166.784 259.656 165.483 259.656 163.878C259.656 162.273 258.355 160.972 256.75 160.972H163.75C162.145 160.972 160.844 162.273 160.844 163.878C160.844 165.483 162.145 166.784 163.75 166.784Z" fill="#EAF5FF"/>
<path d="M172.923 198.399C165.126 198.399 162.524 192.357 160.785 184.222H169.841C172.923 191.607 172.923 198.399 172.923 198.399Z" fill="#EAF5FF"/>
<path d="M226.234 268.503H225.234V269.503H226.234V268.503ZM248.031 268.503V269.503H249.031V268.503H248.031ZM56.2188 268.503V269.503H57.2188V268.503H56.2188ZM32.9688 268.503H31.9688V269.503H32.9688V268.503ZM140.5 165.785H141.5C141.5 165.233 141.052 164.785 140.5 164.785V165.785ZM108.077 200.115H107.077C107.077 200.403 107.201 200.676 107.417 200.866C107.633 201.056 107.92 201.144 108.205 201.107L108.077 200.115ZM133.675 186.383H134.675C134.675 185.973 134.424 185.604 134.043 185.453C133.661 185.302 133.226 185.4 132.945 185.699L133.675 186.383ZM133.675 198.399H132.675C132.675 198.712 132.822 199.007 133.071 199.196C133.321 199.385 133.645 199.446 133.946 199.361L133.675 198.399ZM140.5 120.284H141.5V119.284H140.5V120.284ZM140.5 150.8V151.8H141.5V150.8H140.5ZM226.234 184.222V183.222H225.234V184.222H226.234ZM248.031 184.222H249.031V183.222H248.031V184.222ZM144.859 184.222L144.543 185.17L144.697 185.222H144.859V184.222ZM155.407 184.222L156.277 184.716L157.126 183.222H155.407V184.222ZM160.785 184.222V183.222H159.549L159.807 184.431L160.785 184.222ZM172.923 198.399V199.399C173.188 199.399 173.442 199.293 173.63 199.106C173.817 198.918 173.923 198.664 173.923 198.399H172.923ZM169.841 184.222L170.764 183.836L170.508 183.222H169.841V184.222ZM2 85.4092V6.94043H0V85.4092H2ZM2 6.94043C2 4.28256 4.15463 2.12793 6.8125 2.12793V0.12793C3.05007 0.12793 0 3.17799 0 6.94043H2ZM6.8125 2.12793H155.031V0.12793H6.8125V2.12793ZM155.031 2.12793C157.689 2.12793 159.844 4.28256 159.844 6.94043H161.844C161.844 3.17799 158.794 0.12793 155.031 0.12793V2.12793ZM159.844 6.94043V85.4092H161.844V6.94043H159.844ZM159.844 85.4092C159.844 88.0671 157.689 90.2217 155.031 90.2217V92.2217C158.794 92.2217 161.844 89.1716 161.844 85.4092H159.844ZM155.031 90.2217H6.8125V92.2217H155.031V90.2217ZM6.8125 90.2217C4.15463 90.2217 2 88.0671 2 85.4092H0C0 89.1716 3.05006 92.2217 6.8125 92.2217V90.2217ZM226.234 269.503H248.031V267.503H226.234V269.503ZM59.125 149.8C56.9676 149.8 55.2188 151.549 55.2188 153.706H57.2188C57.2188 152.653 58.0722 151.8 59.125 151.8V149.8ZM55.2188 153.706V268.503H57.2188V153.706H55.2188ZM32.9688 269.503H56.2188V267.503H32.9688V269.503ZM31.9688 123.19V268.503H33.9688V123.19H31.9688ZM35.875 119.284C33.7176 119.284 31.9688 121.033 31.9688 123.19H33.9688C33.9688 122.138 34.8222 121.284 35.875 121.284V119.284ZM140.5 164.785C132.207 164.785 125.922 166.984 121.179 170.332C116.445 173.674 113.306 178.118 111.226 182.523C109.147 186.926 108.112 191.316 107.596 194.596C107.337 196.238 107.208 197.609 107.143 198.573C107.11 199.055 107.094 199.436 107.086 199.698C107.081 199.83 107.079 199.931 107.078 200.002C107.078 200.037 107.077 200.064 107.077 200.083C107.077 200.092 107.077 200.1 107.077 200.105C107.077 200.108 107.077 200.11 107.077 200.112C107.077 200.113 107.077 200.114 107.077 200.114C107.077 200.115 107.077 200.115 108.077 200.115C109.077 200.115 109.077 200.116 109.077 200.116C109.077 200.116 109.077 200.116 109.077 200.116C109.077 200.115 109.077 200.114 109.077 200.113C109.077 200.11 109.077 200.105 109.077 200.098C109.077 200.084 109.078 200.062 109.078 200.032C109.079 199.972 109.081 199.881 109.085 199.761C109.092 199.521 109.107 199.164 109.138 198.707C109.2 197.794 109.324 196.483 109.572 194.907C110.069 191.75 111.06 187.557 113.034 183.377C115.007 179.2 117.948 175.061 122.332 171.966C126.708 168.878 132.581 166.785 140.5 166.785V164.785ZM108.205 201.107C120.037 199.577 127.048 194.915 134.404 187.067L132.945 185.699C125.824 193.295 119.215 197.667 107.949 199.124L108.205 201.107ZM132.675 186.383V198.399H134.675V186.383H132.675ZM161.844 108.659V102.847H159.844V108.659H161.844ZM161.844 102.847C161.844 100.189 163.998 98.0342 166.656 98.0342V96.0342C162.894 96.0342 159.844 99.0842 159.844 102.847H161.844ZM166.656 98.0342H253.844V96.0342H166.656V98.0342ZM253.844 98.0342C256.502 98.0342 258.656 100.189 258.656 102.847H260.656C260.656 99.0843 257.606 96.0342 253.844 96.0342V98.0342ZM258.656 102.847V108.659H260.656V102.847H258.656ZM258.656 108.659C258.656 111.317 256.502 113.472 253.844 113.472V115.472C257.606 115.472 260.656 112.422 260.656 108.659H258.656ZM253.844 113.472H166.656V115.472H253.844V113.472ZM166.656 113.472C163.998 113.472 161.844 111.317 161.844 108.659H159.844C159.844 112.422 162.894 115.472 166.656 115.472V113.472ZM256.75 130.909H163.75V132.909H256.75V130.909ZM163.75 130.909C162.697 130.909 161.844 130.056 161.844 129.003H159.844C159.844 131.16 161.593 132.909 163.75 132.909V130.909ZM161.844 129.003C161.844 127.95 162.697 127.097 163.75 127.097V125.097C161.593 125.097 159.844 126.846 159.844 129.003H161.844ZM163.75 127.097H256.75V125.097H163.75V127.097ZM256.75 127.097C257.803 127.097 258.656 127.95 258.656 129.003H260.656C260.656 126.846 258.907 125.097 256.75 125.097V127.097ZM258.656 129.003C258.656 130.056 257.803 130.909 256.75 130.909V132.909C258.907 132.909 260.656 131.16 260.656 129.003H258.656ZM256.75 142.534H163.75V144.534H256.75V142.534ZM163.75 142.534C162.697 142.534 161.844 141.681 161.844 140.628H159.844C159.844 142.785 161.593 144.534 163.75 144.534V142.534ZM161.844 140.628C161.844 139.575 162.697 138.722 163.75 138.722V136.722C161.593 136.722 159.844 138.471 159.844 140.628H161.844ZM163.75 138.722H256.75V136.722H163.75V138.722ZM256.75 138.722C257.803 138.722 258.656 139.575 258.656 140.628H260.656C260.656 138.471 258.907 136.722 256.75 136.722V138.722ZM258.656 140.628C258.656 141.681 257.803 142.534 256.75 142.534V144.534C258.907 144.534 260.656 142.785 260.656 140.628H258.656ZM256.75 154.159H163.75V156.159H256.75V154.159ZM163.75 154.159C162.697 154.159 161.844 153.306 161.844 152.253H159.844C159.844 154.41 161.593 156.159 163.75 156.159V154.159ZM161.844 152.253C161.844 151.2 162.697 150.347 163.75 150.347V148.347C161.593 148.347 159.844 150.096 159.844 152.253H161.844ZM163.75 150.347H256.75V148.347H163.75V150.347ZM256.75 150.347C257.803 150.347 258.656 151.2 258.656 152.253H260.656C260.656 150.096 258.907 148.347 256.75 148.347V150.347ZM258.656 152.253C258.656 153.306 257.803 154.159 256.75 154.159V156.159C258.907 156.159 260.656 154.41 260.656 152.253H258.656ZM256.75 165.784H163.75V167.784H256.75V165.784ZM163.75 165.784C162.697 165.784 161.844 164.931 161.844 163.878H159.844C159.844 166.035 161.593 167.784 163.75 167.784V165.784ZM161.844 163.878C161.844 162.825 162.697 161.972 163.75 161.972V159.972C161.593 159.972 159.844 161.721 159.844 163.878H161.844ZM163.75 161.972H256.75V159.972H163.75V161.972ZM256.75 161.972C257.803 161.972 258.656 162.825 258.656 163.878H260.656C260.656 161.721 258.907 159.972 256.75 159.972V161.972ZM258.656 163.878C258.656 164.931 257.803 165.784 256.75 165.784V167.784C258.907 167.784 260.656 166.035 260.656 163.878H258.656ZM140.5 119.284H35.875V121.284H140.5V119.284ZM140.5 149.8H59.125V151.8H140.5V149.8ZM139.5 120.284V150.8H141.5V120.284H139.5ZM227.234 268.503V184.222H225.234V268.503H227.234ZM249.031 268.503V184.222H247.031V268.503H249.031ZM226.234 185.222H248.031V183.222H226.234V185.222ZM139.5 165.785V178.409H141.5V165.785H139.5ZM139.5 178.409C139.5 180.12 140.505 183.824 144.543 185.17L145.176 183.273C142.239 182.294 141.5 179.604 141.5 178.409H139.5ZM133.946 199.361C140.671 197.465 145.349 195.416 148.805 193.021C152.281 190.611 154.475 187.884 156.277 184.716L154.538 183.727C152.854 186.689 150.85 189.17 147.666 191.377C144.461 193.598 140.015 195.572 133.403 197.436L133.946 199.361ZM144.859 185.222H155.407V183.222H144.859V185.222ZM159.807 184.431C160.68 188.513 161.798 192.24 163.774 194.95C165.806 197.737 168.706 199.399 172.923 199.399V197.399C169.342 197.399 167.044 196.04 165.39 193.772C163.682 191.428 162.63 188.065 161.763 184.012L159.807 184.431ZM172.923 198.399C173.923 198.399 173.923 198.398 173.923 198.398C173.923 198.398 173.923 198.398 173.923 198.398C173.923 198.397 173.923 198.396 173.923 198.396C173.923 198.394 173.923 198.392 173.923 198.39C173.923 198.386 173.923 198.38 173.923 198.372C173.923 198.356 173.922 198.334 173.922 198.306C173.921 198.25 173.92 198.168 173.916 198.062C173.91 197.852 173.897 197.546 173.873 197.158C173.823 196.382 173.724 195.275 173.527 193.934C173.133 191.255 172.345 187.626 170.764 183.836L168.918 184.607C170.419 188.202 171.172 191.661 171.548 194.225C171.736 195.505 171.83 196.557 171.877 197.286C171.9 197.65 171.912 197.933 171.917 198.123C171.92 198.217 171.922 198.289 171.922 198.335C171.923 198.359 171.923 198.376 171.923 198.386C171.923 198.392 171.923 198.395 171.923 198.397C171.923 198.398 171.923 198.399 171.923 198.399C171.923 198.399 171.923 198.399 171.923 198.399C171.923 198.399 171.923 198.399 171.923 198.399C171.923 198.399 171.923 198.399 172.923 198.399ZM160.785 185.222H169.841V183.222H160.785V185.222Z" fill="#EAF5FF"/>
<path d="M108.078 200.114C108.078 200.114 108.078 165.784 140.501 165.784V178.408C140.501 179.861 141.373 183.058 144.86 184.221H155.408C151.922 190.351 147.013 194.637 133.676 198.398V186.382C126.437 194.104 119.627 198.621 108.078 200.114Z" fill="#FF5C52"/>
<path d="M172.924 198.398C165.127 198.398 162.525 192.356 160.786 184.221H169.842C172.924 191.606 172.924 198.398 172.924 198.398Z" fill="#FF5C52"/>
<path d="M140.501 165.784H141.501C141.501 165.232 141.053 164.784 140.501 164.784V165.784ZM108.078 200.114L107.078 200.114C107.078 200.402 107.202 200.675 107.418 200.865C107.634 201.055 107.921 201.143 108.206 201.106L108.078 200.114ZM133.676 186.382H134.676C134.676 185.972 134.425 185.603 134.044 185.452C133.662 185.301 133.227 185.399 132.946 185.698L133.676 186.382ZM133.676 198.398H132.676C132.676 198.711 132.823 199.006 133.072 199.195C133.322 199.384 133.646 199.445 133.947 199.36L133.676 198.398ZM144.86 184.221L144.544 185.169L144.698 185.221H144.86V184.221ZM155.408 184.221L156.278 184.715L157.127 183.221H155.408V184.221ZM160.786 184.221V183.221H159.55L159.808 184.43L160.786 184.221ZM172.924 198.398V199.398C173.189 199.398 173.443 199.292 173.631 199.105C173.818 198.917 173.924 198.663 173.924 198.398L172.924 198.398ZM169.842 184.221L170.765 183.835L170.509 183.221H169.842V184.221ZM140.501 164.784C132.208 164.784 125.923 166.983 121.18 170.331C116.446 173.673 113.307 178.117 111.227 182.522C109.148 186.925 108.113 191.315 107.597 194.595C107.338 196.237 107.209 197.608 107.144 198.572C107.111 199.054 107.095 199.435 107.087 199.697C107.082 199.829 107.08 199.93 107.079 200.001C107.079 200.036 107.078 200.063 107.078 200.082C107.078 200.091 107.078 200.099 107.078 200.104C107.078 200.107 107.078 200.109 107.078 200.111C107.078 200.112 107.078 200.113 107.078 200.113C107.078 200.114 107.078 200.114 108.078 200.114C109.078 200.114 109.078 200.115 109.078 200.115C109.078 200.115 109.078 200.115 109.078 200.115C109.078 200.114 109.078 200.113 109.078 200.112C109.078 200.109 109.078 200.104 109.078 200.097C109.078 200.083 109.079 200.061 109.079 200.031C109.08 199.971 109.082 199.88 109.086 199.76C109.093 199.52 109.108 199.163 109.139 198.706C109.201 197.793 109.325 196.482 109.573 194.906C110.069 191.749 111.061 187.556 113.035 183.376C115.008 179.199 117.949 175.06 122.333 171.965C126.709 168.877 132.582 166.784 140.501 166.784V164.784ZM108.206 201.106C120.038 199.576 127.048 194.914 134.405 187.066L132.946 185.698C125.825 193.294 119.216 197.666 107.95 199.123L108.206 201.106ZM132.676 186.382V198.398H134.676V186.382H132.676ZM163.751 165.783C162.698 165.783 161.845 164.93 161.845 163.877H159.845C159.845 166.034 161.594 167.783 163.751 167.783V165.783ZM139.501 165.784V178.408H141.501V165.784H139.501ZM139.501 178.408C139.501 180.119 140.505 183.823 144.544 185.169L145.177 183.272C142.24 182.293 141.501 179.603 141.501 178.408H139.501ZM133.947 199.36C140.672 197.464 145.35 195.415 148.806 193.02C152.282 190.61 154.476 187.883 156.278 184.715L154.539 183.726C152.855 186.688 150.851 189.169 147.666 191.376C144.462 193.597 140.016 195.571 133.404 197.435L133.947 199.36ZM144.86 185.221H155.408V183.221H144.86V185.221ZM159.808 184.43C160.681 188.512 161.799 192.239 163.775 194.949C165.807 197.736 168.707 199.398 172.924 199.398V197.398C169.343 197.398 167.045 196.039 165.391 193.771C163.682 191.427 162.63 188.064 161.764 184.011L159.808 184.43ZM172.924 198.398C173.924 198.398 173.924 198.398 173.924 198.397C173.924 198.397 173.924 198.397 173.924 198.397C173.924 198.396 173.924 198.395 173.924 198.395C173.924 198.393 173.924 198.391 173.924 198.389C173.924 198.385 173.924 198.379 173.924 198.371C173.924 198.355 173.923 198.333 173.923 198.305C173.922 198.249 173.921 198.167 173.917 198.061C173.911 197.851 173.898 197.545 173.874 197.157C173.824 196.381 173.725 195.274 173.528 193.933C173.134 191.254 172.346 187.625 170.765 183.835L168.919 184.606C170.42 188.201 171.172 191.66 171.549 194.224C171.737 195.504 171.831 196.556 171.878 197.285C171.901 197.649 171.913 197.932 171.918 198.122C171.921 198.216 171.922 198.288 171.923 198.334C171.924 198.358 171.924 198.375 171.924 198.385C171.924 198.391 171.924 198.394 171.924 198.396C171.924 198.397 171.924 198.398 171.924 198.398C171.924 198.398 171.924 198.398 171.924 198.398C171.924 198.398 171.924 198.398 171.924 198.398C171.924 198.398 171.924 198.398 172.924 198.398ZM160.786 185.221H169.842V183.221H160.786V185.221Z" fill="#FF5C52"/>
<circle cx="125.248" cy="209.65" r="3.81445" fill="#86A4C1"/>
<circle cx="155.756" cy="209.65" r="3.81445" fill="#86A4C1"/>
<path d="M21.3456 268.629H259.357H277.898C278.175 268.629 278.398 268.853 278.398 269.129V296.678C278.398 297.783 277.503 298.678 276.398 298.678H4.30469C3.20012 298.678 2.30469 297.783 2.30469 296.678V269.129C2.30469 268.853 2.52855 268.629 2.80469 268.629H21.3456Z" fill="white" stroke="#86A4C1" stroke-width="2"/>
<path d="M259.357 268.626H21.3456M259.357 268.626H276.945C277.748 268.626 278.398 269.276 278.398 270.079V292.862C278.398 296.072 275.796 298.675 272.586 298.675H8.11719C4.90704 298.675 2.30469 296.072 2.30469 292.862V270.079C2.30469 269.276 2.95527 268.626 3.75781 268.626H21.3456M259.357 268.626V184.222M21.3456 268.626V115.925C21.3456 112.715 23.948 110.112 27.1581 110.112H140.352M140.502 92.6746V178.409C140.502 181.619 143.104 184.222 146.314 184.222H272.736C275.946 184.222 278.549 181.619 278.549 178.409V85.4092C278.549 82.199 275.946 79.5967 272.736 79.5967H162.299" stroke="#86A4C1" stroke-width="2"/>
<path d="M1 18.5654H160.844M15.5313 82.5029H59.125C62.3352 82.5029 64.9375 79.9006 64.9375 76.6904V33.0967C64.9375 29.8865 62.3352 27.2842 59.125 27.2842H15.5312C12.3211 27.2842 9.71875 29.8865 9.71875 33.0967V76.6904C9.71875 79.9006 12.3211 82.5029 15.5313 82.5029ZM83.8281 41.8154H147.766C150.173 41.8154 152.125 39.8637 152.125 37.456C152.125 35.0484 150.173 33.0967 147.766 33.0967H83.8281C81.4205 33.0967 79.4688 35.0484 79.4688 37.456C79.4688 39.8637 81.4205 41.8154 83.8281 41.8154ZM83.8281 59.2529H147.766C150.173 59.2529 152.125 57.3012 152.125 54.8935C152.125 52.4859 150.173 50.5342 147.766 50.5342H83.8281C81.4205 50.5342 79.4688 52.4859 79.4688 54.8935C79.4688 57.3012 81.4205 59.2529 83.8281 59.2529ZM83.8281 76.6904H147.766C150.173 76.6904 152.125 74.7387 152.125 72.331C152.125 69.9234 150.173 67.9717 147.766 67.9717H83.8281C81.4205 67.9717 79.4688 69.9234 79.4688 72.331C79.4688 74.7387 81.4205 76.6904 83.8281 76.6904Z" stroke="white" stroke-width="2"/>
</svg>
