<svg width="264" height="214" viewBox="0 0 264 214" fill="none" xmlns="http://www.w3.org/2000/svg">
<g clip-path="url(#clip0)">
<path d="M205.791 213.652L212.427 87.4251C212.485 86.3221 211.638 85.3809 210.535 85.3229L21.9975 75.4109C20.8944 75.3529 19.9532 76.2001 19.8952 77.3031L13.2591 203.53M205.791 213.652L13.2591 203.53M205.791 213.652L220.695 214.436C220.97 214.45 221.182 214.686 221.168 214.961L220.871 220.594C220.814 221.697 219.872 222.544 218.769 222.486L-0.57364 210.954C-1.67669 210.896 -2.52387 209.955 -2.46588 208.852L-2.16977 203.22C-2.15528 202.944 -1.91998 202.732 -1.64421 202.747L13.2591 203.53" stroke="#32BCFF" stroke-width="2"/>
<path d="M150.73 142.293L188.345 144.271" stroke="#32BCFF" stroke-width="2" stroke-linecap="round" stroke-linejoin="round"/>
<path d="M150.359 149.346L187.974 151.323" stroke="#32BCFF" stroke-width="2" stroke-linecap="round" stroke-linejoin="round"/>
<path d="M149.988 156.398L187.603 158.376" stroke="#32BCFF" stroke-width="2" stroke-linecap="round" stroke-linejoin="round"/>
<path d="M149.617 163.451L187.232 165.429" stroke="#32BCFF" stroke-width="2" stroke-linecap="round" stroke-linejoin="round"/>
<rect x="40.4805" y="86.9902" width="98.875" height="98.875" rx="2" transform="rotate(3.00946 40.4805 86.9902)" fill="#32BCFF"/>
<path d="M28.418 92.25L22.9612 196.044C22.9032 197.147 23.7504 198.088 24.8534 198.146L197.178 207.206C198.281 207.264 199.222 206.417 199.28 205.314L201.894 155.591" stroke="#32BCFF" stroke-width="2"/>
<path d="M218.767 155.299L102.865 149.206C101.762 149.148 100.914 148.207 100.972 147.104L105.055 69.4439L105.459 61.7632C105.517 60.6602 106.458 59.813 107.561 59.871L205.978 65.045L223.464 65.9643C224.567 66.0223 225.414 66.9635 225.356 68.0666L224.952 75.7473L224.443 85.4253L220.869 153.407C220.811 154.51 219.87 155.357 218.767 155.299Z" fill="white"/>
<path d="M224.952 75.7473L225.356 68.0666C225.414 66.9635 224.567 66.0223 223.464 65.9643L205.978 65.045L107.561 59.871C106.458 59.813 105.517 60.6602 105.459 61.7632L105.055 69.4439M224.952 75.7473L224.443 85.4253L220.869 153.407C220.811 154.51 219.87 155.357 218.767 155.299L102.865 149.206C101.762 149.148 100.914 148.207 100.972 147.104L105.055 69.4439M224.952 75.7473L105.055 69.4439" stroke="#32BCFF" stroke-width="2"/>
<path d="M179.434 89.5811L217.048 91.5586" stroke="#32BCFF" stroke-width="2" stroke-linecap="round" stroke-linejoin="round"/>
<path d="M179.062 96.6338L216.677 98.6113" stroke="#32BCFF" stroke-width="2" stroke-linecap="round" stroke-linejoin="round"/>
<path d="M178.691 103.687L216.306 105.664" stroke="#32BCFF" stroke-width="2" stroke-linecap="round" stroke-linejoin="round"/>
<path d="M178.32 110.739L215.935 112.717" stroke="#32BCFF" stroke-width="2" stroke-linecap="round" stroke-linejoin="round"/>
<rect x="116.207" y="81.542" width="56.5" height="56.5" rx="2" transform="rotate(3.00946 116.207 81.542)" fill="#32BCFF"/>
<rect x="100.692" y="-7.85415" width="132.188" height="45.0833" rx="1" transform="rotate(3.00946 100.692 -7.85415)" fill="#32BCFF" stroke="#32BCFF" stroke-width="2"/>
<rect x="5.91487" y="46.099" width="132.188" height="45.0833" rx="1" transform="rotate(3.00946 5.91487 46.099)" fill="white" stroke="#32BCFF" stroke-width="2"/>
<path d="M147.195 7.7334L222.425 11.6885" stroke="white" stroke-width="2" stroke-linecap="round" stroke-linejoin="round"/>
<path d="M52.4219 61.6865L127.651 65.6416" stroke="#32BCFF" stroke-width="2" stroke-linecap="round" stroke-linejoin="round"/>
<path d="M146.703 17.1377L221.933 21.0928" stroke="white" stroke-width="2" stroke-linecap="round" stroke-linejoin="round"/>
<path d="M51.9258 71.0898L127.155 75.0449" stroke="#32BCFF" stroke-width="2" stroke-linecap="round" stroke-linejoin="round"/>
<path d="M146.27 25.3662L221.499 29.3213" stroke="white" stroke-width="2" stroke-linecap="round" stroke-linejoin="round"/>
<path d="M51.4922 79.3184L126.722 83.2734" stroke="#32BCFF" stroke-width="2" stroke-linecap="round" stroke-linejoin="round"/>
<path d="M103.21 14.8513C103.757 4.46429 112.62 -3.51337 123.007 -2.96729C133.394 -2.42121 141.371 6.44181 140.825 16.8288C140.279 27.2159 131.416 35.1935 121.029 34.6474C110.642 34.1013 102.664 25.2383 103.21 14.8513Z" fill="#00CECB"/>
<path d="M9.33772 51.5967C9.3842 50.7127 10.1385 50.0338 11.0225 50.0802L45.436 51.8895C46.32 51.9359 46.9989 52.6902 46.9524 53.5742L45.1432 87.9877C45.0967 88.8717 44.3424 89.5507 43.4584 89.5042L9.04497 87.695C8.16097 87.6485 7.48202 86.8942 7.5285 86.0102L9.33772 51.5967Z" fill="#FF5C52"/>
<path d="M114.098 9.53027L121.646 22.8929L130.554 10.3954" stroke="white" stroke-width="2" stroke-linecap="round" stroke-linejoin="round"/>
<path d="M14.9922 56.1826L39.4928 83.4023M13.6326 82.0427L40.8523 57.5422" stroke="white" stroke-width="2" stroke-linecap="round" stroke-linejoin="round"/>
<path d="M50.1311 37.9922C54.4887 12.1403 64.3339 6.50374 92.8789 9.59321" stroke="#32BCFF" stroke-width="2" stroke-linecap="round" stroke-linejoin="round"/>
</g>
<defs>
<clipPath id="clip0">
<path d="M0 0H264V214H0V0Z" fill="white"/>
</clipPath>
</defs>
</svg>
