<svg width="264" height="214" viewBox="0 0 264 214" fill="none" xmlns="http://www.w3.org/2000/svg">
<g clip-path="url(#clip0)">
<path d="M128.404 22.5284C128.669 23.0129 129.277 23.1908 129.761 22.9258C130.246 22.6607 130.424 22.053 130.159 21.5685L128.404 22.5284ZM127.477 16.6658C127.212 16.1812 126.604 16.0033 126.119 16.2684C125.635 16.5334 125.457 17.1411 125.722 17.6256L127.477 16.6658ZM139.514 22.3918C139.435 22.9385 139.814 23.4454 140.361 23.5241C140.908 23.6027 141.415 23.2233 141.493 22.6767L139.514 22.3918ZM142.13 18.2516C142.209 17.7049 141.829 17.198 141.283 17.1193C140.736 17.0406 140.229 17.42 140.151 17.9667L142.13 18.2516ZM149.702 24.2728C149.26 24.6037 149.169 25.2304 149.5 25.6726C149.831 26.1148 150.458 26.205 150.9 25.874L149.702 24.2728ZM155.962 22.0857C156.404 21.7548 156.494 21.1281 156.163 20.6859C155.833 20.2438 155.206 20.1536 154.764 20.4845L155.962 22.0857ZM13.1283 53.0615L13.0377 52.0656L13.1283 53.0615ZM27.9409 43.344L28.551 44.1364L28.5539 44.1341L27.9409 43.344ZM49.4419 32.1579L49.1889 31.1905L49.1884 31.1906L49.4419 32.1579ZM76.0403 29.1275L76.1632 30.1199L76.1633 30.1199L76.0403 29.1275ZM98.2477 33.3878C97.8047 33.7176 97.7129 34.3441 98.0427 34.7871C98.3724 35.2301 98.9989 35.3219 99.4419 34.9921L98.2477 33.3878ZM111.52 57.7698C111.876 58.1919 112.507 58.2454 112.929 57.8892C113.351 57.5331 113.405 56.9022 113.048 56.4801L111.52 57.7698ZM103.337 34.3497L103.473 33.359L103.472 33.3588L103.337 34.3497ZM92.9978 34.9229L92.8215 33.9386L92.8198 33.9389L92.9978 34.9229ZM88.2003 36.3676L87.7245 35.4881L87.7207 35.4902L88.2003 36.3676ZM85.1303 40.1406L84.151 39.9384L84.1501 39.9427L85.1303 40.1406ZM94.6765 47.5963L94.7371 46.5981L94.7357 46.598L94.6765 47.5963ZM100.682 47.5732L100.617 46.5752L100.617 46.5752L100.682 47.5732ZM102.956 48.6264C103.49 48.7691 104.038 48.4523 104.181 47.9188C104.323 47.3852 104.006 46.837 103.473 46.6944L102.956 48.6264ZM106.586 52.4866C106.124 52.7898 105.996 53.4098 106.299 53.8714C106.602 54.333 107.222 54.4615 107.684 54.1583L106.586 52.4866ZM91.1395 86.7606C91.6789 86.8795 92.2124 86.5386 92.3313 85.9992C92.4501 85.4599 92.1092 84.9263 91.5699 84.8075L91.1395 86.7606ZM84.4157 82.87L83.7059 83.5745L83.7086 83.5771L84.4157 82.87ZM82.7334 81.5835L82.4243 82.5345L82.429 82.536L82.7334 81.5835ZM80.8076 81.6021L80.9474 82.5923L80.9488 82.5921L80.8076 81.6021ZM86.8694 70.4032L86.7126 71.3908L86.7126 71.3908L86.8694 70.4032ZM97.6928 77.1831L98.5552 76.6769L98.552 76.6716L97.6928 77.1831ZM98.836 80.5364L97.8378 80.5964L97.8381 80.6014L98.836 80.5364ZM91.0587 88.8145L90.86 87.8344L90.8587 87.8347L91.0587 88.8145ZM36.1428 94.7415L35.7914 95.6778L35.7941 95.6788L36.1428 94.7415ZM24.8965 89.2225L25.1821 88.2642L25.181 88.2639L24.8965 89.2225ZM96.4817 50.6107L96.3254 51.5984L96.3255 51.5984L96.4817 50.6107ZM96.8177 64.2666C97.1221 64.7274 97.7424 64.8542 98.2033 64.5498C98.6641 64.2454 98.7909 63.6251 98.4865 63.1643L96.8177 64.2666ZM82.0933 70.9417C82.6038 71.1524 83.1885 70.9093 83.3992 70.3988C83.6098 69.8883 83.3668 69.3036 82.8563 69.0929L82.0933 70.9417ZM85.6683 61.255L85.5259 62.2448L85.528 62.2451L85.6683 61.255ZM108.445 71.0306L107.637 71.6195L107.638 71.6209L108.445 71.0306ZM110.063 79.0275L110.983 79.4192L110.983 79.4177L110.063 79.0275ZM104.68 83.1147L104.446 82.1425L104.445 82.1429L104.68 83.1147ZM98.518 82.2523C97.9672 82.2123 97.4882 82.6264 97.4482 83.1772C97.4082 83.728 97.8222 84.207 98.3731 84.247L98.518 82.2523ZM117.737 69.743C118.182 69.4158 118.278 68.7899 117.95 68.345C117.623 67.9 116.997 67.8045 116.552 68.1316L117.737 69.743ZM113.62 71.5442L114.084 72.4302L113.62 71.5442ZM109.356 71.7571C108.807 71.8084 108.402 72.2957 108.454 72.8456C108.505 73.3955 108.992 73.7997 109.542 73.7484L109.356 71.7571ZM65.3824 45.9116C64.8309 45.941 64.4076 46.4119 64.437 46.9634C64.4664 47.5149 64.9373 47.9382 65.4888 47.9088L65.3824 45.9116ZM86.5692 45.4839C87.1156 45.4037 87.4935 44.8956 87.4133 44.3492C87.333 43.8028 86.825 43.4249 86.2786 43.5051L86.5692 45.4839ZM36.139 59.7654C35.6111 59.6032 35.0517 59.8997 34.8895 60.4277C34.7273 60.9556 35.0238 61.5151 35.5518 61.6772L36.139 59.7654ZM73.9657 49.8014C74.3089 49.3687 74.2363 48.7397 73.8037 48.3965C73.3709 48.0533 72.742 48.1259 72.3988 48.5586L73.9657 49.8014ZM96.8391 47.6751L96.8263 48.675L96.8391 47.6751ZM98.7593 50.9878L98.9329 50.0029L98.7593 50.9878ZM104.356 52.2823L104.652 51.3273L104.356 52.2823ZM3.25292 93.9118L2.85259 92.9954L3.25292 93.9118ZM-2.87282 91.4753L-1.93386 91.1312L-2.87282 91.4753ZM0.386795 53.568L0.376886 52.5681L0.386795 53.568ZM-3.95411 56.984L-2.98159 57.2168L-3.95411 56.984ZM130.159 21.5685L127.477 16.6658L125.722 17.6256L128.404 22.5284L130.159 21.5685ZM141.493 22.6767L142.13 18.2516L140.151 17.9667L139.514 22.3918L141.493 22.6767ZM150.9 25.874L155.962 22.0857L154.764 20.4845L149.702 24.2728L150.9 25.874ZM0.396704 54.568C3.85799 54.5337 9.2272 54.4205 13.2189 54.0574L13.0377 52.0656C9.13386 52.4207 3.83559 52.5338 0.376886 52.5681L0.396704 54.568ZM13.2189 54.0574C16.6998 53.7408 19.9656 51.633 22.5901 49.4949C23.9178 48.4134 25.1189 47.2919 26.1334 46.3325C27.1714 45.351 27.968 44.5852 28.551 44.1364L27.3309 42.5516C26.6444 43.0801 25.7467 43.9456 24.7593 44.8793C23.7484 45.8352 22.593 46.9129 21.3269 47.9443C18.7638 50.0324 15.8928 51.806 13.0377 52.0656L13.2189 54.0574ZM28.5539 44.1341C34.9063 39.2056 41.987 35.1451 49.6954 33.1253L49.1884 31.1906C41.1404 33.2994 33.8184 37.5182 27.3279 42.5539L28.5539 44.1341ZM49.6949 33.1254C53.9257 32.0189 58.2847 31.5411 62.7295 31.2045C67.1457 30.87 71.6959 30.673 76.1632 30.1199L75.9174 28.1351C71.512 28.6805 67.0832 28.869 62.5784 29.2102C58.1023 29.5492 53.5984 30.0373 49.1889 31.1905L49.6949 33.1254ZM76.1633 30.1199C84.4046 29.0987 92.393 26.6686 96.1664 25.4197L95.538 23.521C91.8076 24.7557 83.9648 27.1379 75.9173 28.1351L76.1633 30.1199ZM96.1664 25.4197C97.0796 25.1174 97.9011 24.8937 98.6147 24.7737C99.3372 24.6523 99.8875 24.6482 100.285 24.7348C100.655 24.8155 100.861 24.9652 100.995 25.1675C101.147 25.3959 101.288 25.8142 101.271 26.5687L103.27 26.6138C103.292 25.6251 103.12 24.7515 102.661 24.0613C102.186 23.3451 101.486 22.9496 100.711 22.7807C99.9625 22.6176 99.1281 22.6594 98.2831 22.8014C97.4293 22.9449 96.5007 23.2023 95.538 23.521L96.1664 25.4197ZM101.271 26.5687C101.197 29.8408 100.296 31.8631 98.2477 33.3878L99.4419 34.9921C102.118 33.0004 103.186 30.3143 103.27 26.6138L101.271 26.5687ZM103.472 33.3588C99.8756 32.8703 96.2495 33.3244 92.8215 33.9386L93.1742 35.9073C96.5551 35.3015 99.9278 34.8958 103.202 35.3406L103.472 33.3588ZM92.8198 33.9389C91.1729 34.2369 89.3514 34.6079 87.7245 35.4881L88.6762 37.2472C89.9912 36.5357 91.5222 36.2062 93.1759 35.907L92.8198 33.9389ZM87.7207 35.4902C86.0822 36.3859 84.5659 37.9288 84.151 39.9384L86.1097 40.3428C86.3694 39.085 87.374 37.9591 88.68 37.2451L87.7207 35.4902ZM84.1501 39.9427C83.5885 42.7251 85.3428 45.4048 87.5249 46.762L88.5812 45.0637C86.8577 43.9918 85.7657 42.0471 86.1106 40.3384L84.1501 39.9427ZM87.5249 46.762C89.7035 48.1171 92.2978 48.457 94.6173 48.5945L94.7357 46.598C92.4676 46.4635 90.308 46.1378 88.5812 45.0637L87.5249 46.762ZM100.746 48.5711C101.648 48.5132 102.327 48.4581 102.956 48.6264L103.473 46.6944C102.456 46.4225 101.403 46.5248 100.617 46.5752L100.746 48.5711ZM107.684 54.1583C107.604 54.2109 107.543 54.2306 107.578 54.2166C107.596 54.2099 107.626 54.1993 107.684 54.1792C107.792 54.1419 107.957 54.0858 108.155 54.0093C108.555 53.8546 109.088 53.6167 109.7 53.2344C110.93 52.4665 112.431 51.1456 113.823 48.8297L112.109 47.799C110.878 49.8459 109.602 50.9381 108.641 51.538C108.158 51.8397 107.743 52.0244 107.433 52.144C107.276 52.2048 107.147 52.2488 107.031 52.2887C106.978 52.3072 106.913 52.3294 106.856 52.3516C106.817 52.3666 106.701 52.4113 106.586 52.4866L107.684 54.1583ZM113.823 48.8297C115.391 46.2232 114.939 42.6062 113.135 39.6116C111.304 36.5704 107.986 33.9786 103.473 33.359L103.201 35.3404C107.07 35.8716 109.879 38.0807 111.422 40.6434C112.994 43.2527 113.166 46.0426 112.109 47.799L113.823 48.8297ZM91.5699 84.8075C88.9528 84.2308 86.7123 83.7524 85.1228 82.1629L83.7086 83.5771C85.7901 85.6586 88.6778 86.2182 91.1395 86.7606L91.5699 84.8075ZM85.1254 82.1656C84.7049 81.7419 84.0123 80.9424 83.0378 80.6309L82.429 82.536C82.8223 82.6617 83.1203 82.9845 83.7059 83.5745L85.1254 82.1656ZM83.0425 80.6324C82.1573 80.3447 81.2123 80.5342 80.6663 80.6121L80.9488 82.5921C81.6929 82.4859 82.0847 82.4241 82.4243 82.5345L83.0425 80.6324ZM80.6678 80.6119C78.6396 80.8983 75.6342 80.2745 73.272 78.9848C72.101 78.3455 71.1645 77.5828 70.5906 76.7684C70.0316 75.9751 69.8289 75.159 70.0346 74.3006L68.0897 73.8345C67.7248 75.3569 68.1336 76.7537 68.9557 77.9204C69.7629 79.066 70.977 80.0104 72.3136 80.7402C74.9668 82.1888 78.4046 82.9513 80.9474 82.5923L80.6678 80.6119ZM70.0346 74.3006C70.2149 73.548 70.8649 72.8665 72.1246 72.3016C73.371 71.7426 75.036 71.3839 76.873 71.1853C80.5397 70.7891 84.6166 71.058 86.7126 71.3908L87.0263 69.4156C84.7806 69.0589 80.5244 68.7791 76.6581 69.1969C74.7286 69.4054 72.8272 69.7945 71.3062 70.4767C69.7984 71.1529 68.4799 72.2061 68.0897 73.8345L70.0346 74.3006ZM86.7126 71.3908C90.8499 72.0478 94.7778 74.2411 96.8335 77.6946L98.552 76.6716C96.1187 72.5838 91.5905 70.1403 87.0263 69.4156L86.7126 71.3908ZM96.8303 77.6892C97.3923 78.6468 97.7797 79.6298 97.8378 80.5964L99.8342 80.4765C99.75 79.0749 99.2019 77.7789 98.5552 76.6769L96.8303 77.6892ZM97.8381 80.6014C98.0715 84.1837 94.874 87.0206 90.86 87.8344L91.2574 89.7946C95.7222 88.8893 100.162 85.5105 99.8339 80.4714L97.8381 80.6014ZM90.8587 87.8347C86.3568 88.7534 83.0437 90.5383 73.4478 91.5365L73.6547 93.5257C83.2949 92.5229 87.2608 90.6101 91.2586 89.7943L90.8587 87.8347ZM73.4478 91.5365C68.6124 92.0395 60.4695 93.0256 52.9177 93.6709C49.145 93.9932 45.5442 94.2281 42.6024 94.2747C41.1311 94.298 39.8395 94.2738 38.7818 94.1926C37.7038 94.1098 36.9434 93.9724 36.4915 93.8043L35.7941 95.6788C36.5173 95.9478 37.5066 96.1005 38.6286 96.1867C39.7708 96.2744 41.1295 96.2982 42.6341 96.2744C45.6443 96.2268 49.2984 95.9874 53.088 95.6636C60.661 95.0166 68.8722 94.0232 73.6547 93.5257L73.4478 91.5365ZM36.4942 93.8053C34.6314 93.1061 32.905 92.0757 31.0571 91.0133C29.2398 89.9685 27.3154 88.9 25.1821 88.2642L24.6108 90.1809C26.4952 90.7425 28.2372 91.6991 30.0602 92.7471C31.8527 93.7776 33.7406 94.908 35.7914 95.6778L36.4942 93.8053ZM25.181 88.2639C22.0825 87.3442 17.8862 87.9553 13.8876 89.0233C9.8368 90.1053 5.77963 91.7167 2.85259 92.9954L3.65326 94.8281C6.53714 93.5683 10.4909 92.0007 14.4037 90.9556C18.3688 89.8965 22.0887 89.4323 24.6119 90.1812L25.181 88.2639ZM-1.93386 91.1312C-4.33792 84.57 -5.33682 79.222 -5.37546 73.9765C-5.41419 68.7182 -4.489 63.5132 -2.98159 57.2168L-4.92662 56.7511C-6.44574 63.0964 -7.41594 68.4885 -7.37541 73.9912C-7.33478 79.5067 -6.27977 85.0835 -3.81178 91.8193L-1.93386 91.1312ZM96.6379 49.6229C95.6437 49.4657 92.7826 49.0803 90.0431 49.4027C88.676 49.5636 87.2525 49.9097 86.0953 50.6167C84.9029 51.3451 83.9906 52.464 83.7587 54.0756L85.7383 54.3605C85.8716 53.4344 86.3655 52.7952 87.1379 52.3234C87.9454 51.8301 89.045 51.534 90.2769 51.389C92.7355 51.0996 95.3757 51.4481 96.3254 51.5984L96.6379 49.6229ZM83.7587 54.0756C83.508 55.8176 84.4228 57.2414 85.6181 58.333C86.8144 59.4256 88.4499 60.3395 90.0567 61.1092C91.6616 61.8779 93.3615 62.5579 94.6408 63.1162C95.297 63.4026 95.8394 63.655 96.2455 63.8815C96.6993 64.1346 96.8197 64.2695 96.8177 64.2666L98.4865 63.1643C98.1928 62.7195 97.6682 62.385 97.2197 62.1348C96.7235 61.8581 96.1061 61.5735 95.4408 61.2832C94.0772 60.6881 92.4872 60.0558 90.9207 59.3054C89.3563 58.556 87.939 57.7441 86.9668 56.8562C85.9935 55.9673 85.6238 55.156 85.7383 54.3605L83.7587 54.0756ZM82.8563 69.0929C81.3955 68.4901 79.8131 67.5705 78.7767 66.4673C77.7571 65.382 77.3896 64.2818 77.8715 63.1105L76.022 62.3494C75.1302 64.5168 75.9963 66.4287 77.319 67.8367C78.6249 69.2267 80.4934 70.2814 82.0933 70.9417L82.8563 69.0929ZM77.8715 63.1105C78.3067 62.053 79.426 61.627 81.1312 61.6421C82.829 61.6573 84.4552 62.0907 85.5259 62.2448L85.8108 60.2652C85.0611 60.1573 83.0134 59.6588 81.149 59.6422C79.2919 59.6257 76.9607 60.0681 76.022 62.3494L77.8715 63.1105ZM85.528 62.2451C89.7496 62.8433 93.8923 63.443 97.7969 64.8231L98.4634 62.9374C94.3404 61.4801 90.0001 60.8589 85.8087 60.2649L85.528 62.2451ZM97.7969 64.8231C101.692 66.1998 105.295 68.4067 107.637 71.6195L109.253 70.4417C106.598 66.7981 102.596 64.3981 98.4634 62.9374L97.7969 64.8231ZM107.638 71.6209C109.235 73.8054 110.051 76.491 109.142 78.6372L110.983 79.4177C112.296 76.3195 111.024 72.863 109.252 70.4403L107.638 71.6209ZM109.143 78.6357C108.395 80.3911 106.538 81.6384 104.446 82.1425L104.915 84.0868C107.385 83.4913 109.906 81.9487 110.983 79.4192L109.143 78.6357ZM104.445 82.1429C102.361 82.6483 100.921 82.4269 98.518 82.2523L98.3731 84.247C100.641 84.4119 102.456 84.6833 104.916 84.0865L104.445 82.1429ZM116.552 68.1316C116.096 68.4672 115.444 69.0143 114.86 69.4752C114.233 69.9705 113.637 70.4068 113.157 70.6582L114.084 72.4302C114.746 72.0836 115.471 71.5412 116.1 71.0448C116.772 70.5141 117.31 70.0567 117.737 69.743L116.552 68.1316ZM113.157 70.6582C111.8 71.3682 110.395 71.6602 109.356 71.7571L109.542 73.7484C110.764 73.6345 112.437 73.292 114.084 72.4302L113.157 70.6582ZM65.4888 47.9088C72.3392 47.5439 79.8363 46.4728 86.5692 45.4839L86.2786 43.5051C79.534 44.4957 72.1261 45.5524 65.3824 45.9116L65.4888 47.9088ZM35.5518 61.6772C49.1914 65.8669 65.1279 60.9437 73.9657 49.8014L72.3988 48.5586C64.0755 59.0522 48.9955 63.7145 36.139 59.7654L35.5518 61.6772ZM94.6159 48.5944C95.3523 48.6391 96.0894 48.6655 96.8263 48.675L96.8519 46.6751C96.1457 46.6661 95.4404 46.6408 94.7371 46.5981L94.6159 48.5944ZM96.8263 48.675C98.1353 48.6917 99.4438 48.6548 100.746 48.5711L100.617 46.5752C99.3634 46.6559 98.1064 46.6912 96.8519 46.6751L96.8263 48.675ZM98.9329 50.0029C98.161 49.8669 97.393 49.7423 96.6378 49.6229L96.3255 51.5984C97.0761 51.717 97.8308 51.8395 98.5857 51.9726L98.9329 50.0029ZM113.048 56.4801C110.755 53.7621 107.935 52.3467 104.652 51.3273L104.059 53.2373C107.139 54.1938 109.563 55.4507 111.52 57.7698L113.048 56.4801ZM104.652 51.3273C102.782 50.7465 100.837 50.3386 98.9329 50.0029L98.5857 51.9726C100.453 52.3016 102.304 52.6923 104.059 53.2373L104.652 51.3273ZM2.85259 92.9954C0.938839 93.8315 -1.26174 92.9657 -1.93386 91.1312L-3.81178 91.8193C-2.69763 94.8601 0.809095 96.0707 3.65326 94.8281L2.85259 92.9954ZM0.376886 52.5681C-2.12353 52.5929 -4.33757 54.2907 -4.92662 56.7511L-2.98159 57.2168C-2.61304 55.6774 -1.21556 54.584 0.396704 54.568L0.376886 52.5681Z" fill="#32BCFF"/>
<path d="M100.444 47.5404C99.166 47.6227 97.8833 47.6588 96.6016 47.6424C96.8039 48.4745 97.4711 50.302 98.5218 50.955C100.408 51.2874 102.306 51.6867 104.118 52.2496C102.757 51.7773 101.102 48.9134 100.444 47.5404Z" fill="#00CECB"/>
<path d="M114.217 30.5199C115.146 30.977 115.995 31.5982 116.704 32.3474L115.318 40.1224C114.246 40.2732 112.859 39.1421 112.611 38.0897C112.363 37.0373 112.101 35.7195 110.601 33.722C109.102 31.7245 103.338 34.3519 103.338 34.3519C101.774 34.1395 100.421 34.1006 98.846 34.1922C100.367 33.0598 101.248 31.9657 101.753 30.1957C104.106 29.536 108.769 28.9317 111.14 29.5039C112.19 29.7567 113.245 30.0471 114.217 30.5199Z" fill="#00CECB"/>
<path d="M110.91 62.4916C110.312 61.2225 110.545 59.7309 110.791 58.343L115.394 32.5338L116.249 28.1676C117.317 22.1766 161.265 28.5014 160.601 34.5504C159.403 45.4512 158.525 54.1394 157.328 65.0401C157.172 66.4412 156.976 67.938 156.044 68.987C155.278 69.8565 154.131 70.2737 153.114 70.8206C150.073 72.4534 147.847 75.5252 147.239 78.913C146.66 82.9388 116.119 78.5437 116.559 74.4977C116.93 71.0759 115.661 67.501 113.204 65.077C112.383 64.2656 111.4 63.5418 110.91 62.4916Z" fill="#00CECB"/>
<path d="M100.444 47.5404C99.166 47.6227 97.8833 47.6588 96.6016 47.6424C96.8039 48.4745 97.4711 50.302 98.5218 50.955C100.408 51.2874 102.306 51.6867 104.118 52.2496C102.757 51.7773 101.102 48.9134 100.444 47.5404Z" stroke="#32BCFF" stroke-width="2" stroke-miterlimit="10"/>
<path d="M114.217 30.5199C115.146 30.977 115.995 31.5982 116.704 32.3474L115.318 40.1224C114.246 40.2732 112.859 39.1421 112.611 38.0897C112.363 37.0373 112.101 35.7195 110.601 33.722C109.102 31.7245 103.338 34.3519 103.338 34.3519C101.774 34.1395 100.421 34.1006 98.846 34.1922C100.367 33.0598 101.248 31.9657 101.753 30.1957C104.106 29.536 108.769 28.9317 111.14 29.5039C112.19 29.7567 113.245 30.0471 114.217 30.5199Z" stroke="#32BCFF" stroke-width="2" stroke-miterlimit="10"/>
<path d="M110.91 62.4916C110.312 61.2225 110.545 59.7309 110.791 58.343L115.394 32.5338L116.249 28.1676C117.317 22.1766 161.265 28.5014 160.601 34.5504C159.403 45.4512 158.525 54.1394 157.328 65.0401C157.172 66.4412 156.976 67.938 156.044 68.987C155.278 69.8565 154.131 70.2737 153.114 70.8206C150.073 72.4534 147.847 75.5252 147.239 78.913C146.66 82.9388 116.119 78.5437 116.559 74.4977C116.93 71.0759 115.661 67.501 113.204 65.077C112.383 64.2656 111.4 63.5418 110.91 62.4916Z" stroke="#32BCFF" stroke-width="2" stroke-miterlimit="10"/>
<path d="M115.168 65.1846C128.955 69.5848 137.626 71.1923 150.569 70.2793" stroke="#32BCFF" stroke-width="2" stroke-linecap="round" stroke-linejoin="round"/>
<path d="M60.5208 157.766C60.0615 155.34 61.6558 153.001 64.0818 152.542L119.552 142.039C121.978 141.58 124.317 143.174 124.777 145.6L130.789 177.358C131.249 179.784 129.654 182.123 127.228 182.583L71.758 193.085C69.332 193.544 66.993 191.95 66.5337 189.524L60.5208 157.766Z" fill="#A8ABFF" stroke="#A8ABFF" stroke-width="2" stroke-miterlimit="10"/>
<path d="M151.061 124.961C150.601 122.535 152.196 120.196 154.622 119.736L180.978 114.746C183.404 114.287 185.743 115.881 186.202 118.307L191.192 144.664C191.652 147.09 190.057 149.429 187.631 149.888L161.275 154.878C158.849 155.337 156.51 153.743 156.051 151.317L151.061 124.961Z" fill="#00CECB" stroke="#00CECB" stroke-width="2" stroke-miterlimit="10"/>
<path d="M124.325 126.409C124.868 126.306 125.225 125.783 125.122 125.24C125.019 124.698 124.496 124.341 123.953 124.444L124.325 126.409ZM75.7616 133.568C75.2189 133.671 74.8623 134.194 74.965 134.737C75.0678 135.279 75.591 135.636 76.1336 135.533L75.7616 133.568ZM243.093 105.116C243.638 105.026 244.007 104.512 243.917 103.967C243.827 103.422 243.312 103.053 242.768 103.143L243.093 105.116ZM212.695 108.099C212.15 108.189 211.781 108.704 211.871 109.248C211.961 109.793 212.475 110.162 213.02 110.073L212.695 108.099ZM267.113 110.831C267.658 110.741 268.026 110.227 267.937 109.682C267.847 109.137 267.332 108.768 266.787 108.858L267.113 110.831ZM236.715 113.814C236.17 113.904 235.801 114.419 235.891 114.964C235.981 115.509 236.495 115.878 237.04 115.788L236.715 113.814ZM86.8191 120.773C86.2764 120.875 85.9198 121.399 86.0226 121.941C86.1253 122.484 86.6485 122.84 87.1911 122.738L86.8191 120.773ZM119.319 116.655C119.862 116.552 120.218 116.029 120.116 115.486C120.013 114.944 119.49 114.587 118.947 114.69L119.319 116.655ZM163.952 192.308L164.935 192.122L163.952 192.308ZM167.513 187.084L167.327 186.101L167.513 187.084ZM193.869 182.093L194.055 183.076L193.869 182.093ZM199.094 185.654L198.111 185.84L199.094 185.654ZM199.305 186.773L200.288 186.587L199.305 186.773ZM195.744 191.997L195.93 192.98L195.744 191.997ZM169.388 196.987L169.202 196.005L169.388 196.987ZM164.164 193.426L163.181 193.612L164.164 193.426ZM198.115 141.731C197.782 141.29 197.155 141.202 196.714 141.535C196.273 141.867 196.185 142.494 196.518 142.935L198.115 141.731ZM203.411 150.411L202.612 151.013C202.826 151.297 203.174 151.445 203.527 151.404C203.88 151.363 204.184 151.138 204.327 150.812L203.411 150.411ZM225.966 156.755L225.002 157.021L225.002 157.023L225.966 156.755ZM230.796 180.192L231.681 179.727L230.796 180.192ZM143.639 122.287C144.069 122.633 144.699 122.565 145.045 122.135C145.391 121.705 145.323 121.075 144.892 120.729L143.639 122.287ZM146.233 135.685C146.704 135.972 147.32 135.824 147.608 135.352C147.895 134.881 147.747 134.265 147.275 133.978L146.233 135.685ZM150.649 155.77L151.632 155.586C151.582 155.32 151.426 155.085 151.201 154.936C150.975 154.786 150.698 154.735 150.433 154.793L150.649 155.77ZM149.248 171.628L149.93 170.897L149.248 171.628ZM151.46 160.114L150.477 160.298C150.534 160.604 150.731 160.866 151.01 161.007L151.46 160.114ZM154.026 173.85L155.009 173.666C154.959 173.4 154.803 173.165 154.578 173.016C154.352 172.866 154.075 172.815 153.81 172.873L154.026 173.85ZM152.803 190.66L153.485 189.929L152.803 190.66ZM155.015 179.146L154.032 179.33C154.089 179.636 154.286 179.898 154.564 180.039L155.015 179.146ZM147.45 138.641L148.433 138.457C148.383 138.191 148.227 137.956 148.001 137.807C147.775 137.657 147.498 137.606 147.234 137.664L147.45 138.641ZM146.049 154.499L146.731 153.768L146.049 154.499ZM148.261 142.985L147.278 143.169C147.335 143.475 147.532 143.738 147.81 143.878L148.261 142.985ZM145.228 105.572L145.045 104.589L145.045 104.589L145.228 105.572ZM185.119 98.1214L184.936 97.1384L184.936 97.1384L185.119 98.1214ZM189.032 102.019L188.049 102.202L188.051 102.21L189.032 102.019ZM206.504 191.524L207.487 191.34L207.486 191.332L206.504 191.524ZM203.409 196.041L203.592 197.024L203.409 196.041ZM163.518 203.492L163.334 202.509L163.518 203.492ZM159 200.397L158.017 200.58L159 200.397ZM142.133 110.09L143.116 109.906L142.133 110.09ZM180.901 99.8944L181.884 99.7108L181.884 99.7108L180.901 99.8944ZM150.45 105.582L149.467 105.766L149.467 105.766L150.45 105.582ZM157.226 110.225L157.042 109.242L157.226 110.225ZM176.258 106.67L176.441 107.653L176.258 106.67ZM205.559 207.556L205.463 206.56L205.559 207.556ZM227.483 232.853L227.514 231.853L227.483 232.853ZM223.047 229.17L222.087 229.448L223.047 229.17ZM253.448 212.924L254.252 212.328L253.448 212.924ZM253.857 217.47L254.748 217.925L253.857 217.47ZM87.1911 122.738L119.319 116.655L118.947 114.69L86.8191 120.773L87.1911 122.738ZM164.935 192.122C164.578 190.238 165.816 188.423 167.699 188.066L167.327 186.101C164.358 186.663 162.407 189.525 162.969 192.494L164.935 192.122ZM167.699 188.066L194.055 183.076L193.683 181.111L167.327 186.101L167.699 188.066ZM194.055 183.076C195.939 182.719 197.754 183.957 198.111 185.84L200.076 185.468C199.514 182.5 196.652 180.549 193.683 181.111L194.055 183.076ZM198.111 185.84L198.323 186.959L200.288 186.587L200.076 185.468L198.111 185.84ZM198.323 186.959C198.679 188.842 197.442 190.658 195.558 191.015L195.93 192.98C198.899 192.418 200.85 189.556 200.288 186.587L198.323 186.959ZM195.558 191.015L169.202 196.005L169.574 197.97L195.93 192.98L195.558 191.015ZM169.202 196.005C167.319 196.361 165.503 195.124 165.146 193.24L163.181 193.612C163.743 196.581 166.606 198.532 169.574 197.97L169.202 196.005ZM165.146 193.24L164.935 192.122L162.969 192.494L163.181 193.612L165.146 193.24ZM196.518 142.935L202.612 151.013L204.209 149.809L198.115 141.731L196.518 142.935ZM204.327 150.812C205.237 148.735 204.951 146.111 204.231 143.758C203.5 141.372 202.256 139.049 200.978 137.454L199.417 138.704C200.527 140.09 201.657 142.184 202.318 144.344C202.991 146.538 203.117 148.59 202.495 150.009L204.327 150.812ZM200.978 137.454C198.692 134.601 195.792 128.724 194.836 123.609L192.87 123.976C193.886 129.414 196.925 135.595 199.417 138.704L200.978 137.454ZM194.836 123.609C194.373 121.13 194.7 119.417 195.431 118.243C196.161 117.071 197.394 116.276 199.077 115.836L198.571 113.901C196.555 114.428 194.81 115.456 193.733 117.186C192.657 118.913 192.348 121.178 192.87 123.976L194.836 123.609ZM199.077 115.836C199.399 115.752 199.885 115.861 200.626 116.775C201.338 117.653 202.038 118.987 202.738 120.546C203.439 122.107 204.079 123.75 204.736 125.298C205.368 126.786 206.025 128.214 206.716 129.126L208.31 127.918C207.793 127.235 207.223 126.038 206.577 124.516C205.956 123.054 205.269 121.302 204.562 119.727C203.854 118.15 203.067 116.609 202.18 115.515C201.322 114.459 200.099 113.501 198.571 113.901L199.077 115.836ZM206.716 129.126C207.949 130.753 211.98 135.774 216.006 141.423C218.016 144.242 220.01 147.198 221.634 149.936C223.27 152.693 224.489 155.161 225.002 157.021L226.93 156.49C226.343 154.36 225.008 151.703 223.354 148.916C221.69 146.11 219.661 143.104 217.635 140.262C213.589 134.586 209.493 129.479 208.31 127.918L206.716 129.126ZM225.002 157.023C225.387 158.409 225.616 160.027 225.808 161.847C225.994 163.612 226.153 165.682 226.383 167.709C226.853 171.845 227.669 176.381 229.91 180.656L231.681 179.727C229.614 175.783 228.831 171.542 228.37 167.484C228.135 165.415 227.997 163.534 227.797 161.638C227.603 159.796 227.36 158.042 226.93 156.488L225.002 157.023ZM229.91 180.656C231.731 184.13 236.236 190.751 240.842 197.257C245.465 203.787 250.241 210.276 252.645 213.519L254.252 212.328C251.852 209.09 247.085 202.615 242.474 196.101C237.846 189.563 233.428 183.059 231.681 179.727L229.91 180.656ZM144.266 121.508C144.892 120.729 144.892 120.729 144.892 120.729C144.892 120.728 144.891 120.728 144.891 120.728C144.891 120.728 144.89 120.727 144.889 120.726C144.888 120.725 144.886 120.724 144.884 120.722C144.879 120.718 144.873 120.713 144.865 120.707C144.849 120.695 144.827 120.677 144.799 120.655C144.742 120.612 144.661 120.55 144.558 120.474C144.353 120.323 144.061 120.117 143.709 119.889C143.013 119.439 142.041 118.882 141.012 118.525C140.017 118.179 138.77 117.95 137.653 118.427C136.446 118.943 135.722 120.123 135.485 121.842L137.466 122.116C137.647 120.803 138.106 120.408 138.438 120.267C138.86 120.087 139.509 120.12 140.356 120.414C141.17 120.697 141.989 121.159 142.623 121.569C142.936 121.771 143.194 121.954 143.373 122.085C143.462 122.151 143.531 122.203 143.576 122.238C143.599 122.256 143.616 122.269 143.626 122.277C143.632 122.282 143.635 122.285 143.637 122.286C143.639 122.287 143.639 122.288 143.639 122.288C143.64 122.288 143.64 122.288 143.639 122.288C143.639 122.288 143.639 122.288 143.639 122.288C143.639 122.287 143.639 122.287 144.266 121.508ZM135.485 121.842C135.23 123.684 135.893 125.486 136.879 127.073C137.87 128.67 139.253 130.157 140.625 131.416C142.002 132.68 143.4 133.744 144.451 134.491C144.978 134.865 145.42 135.161 145.731 135.365C145.887 135.467 146.011 135.545 146.096 135.599C146.139 135.626 146.172 135.647 146.195 135.661C146.207 135.668 146.216 135.674 146.222 135.678C146.225 135.68 146.228 135.681 146.229 135.682C146.23 135.683 146.231 135.683 146.232 135.684C146.232 135.684 146.232 135.684 146.232 135.684C146.233 135.684 146.233 135.685 146.754 134.831C147.275 133.978 147.275 133.978 147.275 133.978C147.275 133.978 147.276 133.978 147.275 133.978C147.275 133.978 147.275 133.978 147.275 133.977C147.274 133.977 147.272 133.976 147.27 133.974C147.266 133.972 147.259 133.967 147.249 133.962C147.23 133.95 147.201 133.932 147.163 133.907C147.086 133.859 146.971 133.786 146.825 133.69C146.532 133.499 146.112 133.218 145.61 132.861C144.602 132.145 143.274 131.133 141.977 129.943C140.674 128.747 139.435 127.4 138.578 126.018C137.714 124.627 137.302 123.306 137.466 122.116L135.485 121.842ZM150.433 154.793C147.836 155.367 145.989 156.436 144.836 157.903C143.678 159.378 143.316 161.135 143.464 162.893C143.756 166.347 146.022 169.987 148.566 172.359L149.93 170.897C147.615 168.737 145.694 165.527 145.457 162.725C145.341 161.355 145.629 160.132 146.409 159.139C147.195 158.138 148.574 157.252 150.865 156.746L150.433 154.793ZM148.566 172.359C150.063 173.755 152.146 174.133 154.039 173.871C155.929 173.609 157.811 172.687 158.977 171.235C160.191 169.722 160.571 167.69 159.462 165.514C158.395 163.424 156.001 161.286 151.911 159.221L151.01 161.007C154.946 162.993 156.896 164.886 157.68 166.423C158.42 167.873 158.155 169.063 157.417 169.983C156.631 170.962 155.253 171.683 153.765 171.89C152.279 172.095 150.864 171.767 149.93 170.897L148.566 172.359ZM152.443 159.93L151.632 155.586L149.666 155.953L150.477 160.298L152.443 159.93ZM153.81 172.873C151.191 173.452 149.347 174.595 148.216 176.166C147.088 177.733 146.76 179.6 146.931 181.456C147.267 185.121 149.556 188.999 152.121 191.391L153.485 189.929C151.191 187.789 149.204 184.341 148.922 181.274C148.784 179.764 149.062 178.413 149.839 177.334C150.613 176.259 151.973 175.327 154.241 174.826L153.81 172.873ZM152.121 191.391C153.618 192.787 155.701 193.165 157.594 192.903C159.484 192.641 161.366 191.719 162.531 190.267C163.745 188.754 164.126 186.722 163.016 184.546C161.95 182.456 159.556 180.318 155.466 178.253L154.564 180.039C158.501 182.025 160.451 183.918 161.235 185.455C161.975 186.906 161.71 188.095 160.972 189.015C160.185 189.994 158.808 190.715 157.319 190.922C155.834 191.127 154.419 190.799 153.485 189.929L152.121 191.391ZM155.998 178.962L155.009 173.666L153.043 174.033L154.032 179.33L155.998 178.962ZM147.234 137.664C144.637 138.238 142.789 139.307 141.637 140.775C140.479 142.249 140.116 144.006 140.265 145.764C140.557 149.218 142.823 152.858 145.367 155.23L146.731 153.768C144.416 151.608 142.495 148.398 142.258 145.596C142.142 144.226 142.43 143.003 143.21 142.01C143.996 141.009 145.374 140.123 147.665 139.617L147.234 137.664ZM145.367 155.23C146.864 156.626 148.947 157.004 150.84 156.742C152.73 156.48 154.611 155.558 155.777 154.106C156.991 152.594 157.372 150.561 156.262 148.385C155.196 146.295 152.802 144.157 148.711 142.092L147.81 143.878C151.747 145.865 153.697 147.758 154.481 149.294C155.22 150.745 154.956 151.934 154.218 152.854C153.431 153.834 152.054 154.555 150.565 154.761C149.08 154.967 147.665 154.638 146.731 153.768L145.367 155.23ZM149.244 142.802L148.433 138.457L146.467 138.824L147.278 143.169L149.244 142.802ZM148.448 138.454L143.116 109.906L141.15 110.273L146.482 138.821L148.448 138.454ZM163.334 202.509C161.775 202.8 160.275 201.772 159.983 200.213L158.017 200.58C158.511 203.225 161.056 204.969 163.701 204.475L163.334 202.509ZM205.521 191.707C205.812 193.267 204.784 194.767 203.225 195.058L203.592 197.024C206.237 196.53 207.981 193.985 207.487 191.34L205.521 191.707ZM185.303 99.1044C185.915 98.9901 186.462 99.2198 186.965 99.7934C187.486 100.388 187.877 101.282 188.049 102.202L190.015 101.835C189.795 100.653 189.281 99.4021 188.469 98.4754C187.639 97.5278 186.426 96.86 184.936 97.1384L185.303 99.1044ZM145.045 104.589C142.4 105.083 140.656 107.628 141.15 110.273L143.116 109.906C142.825 108.347 143.853 106.846 145.412 106.555L145.045 104.589ZM179.74 99.1265L179.918 100.078L181.884 99.7108L181.706 98.7593L179.74 99.1265ZM180.539 97.9599L150.088 103.648L150.456 105.614L180.907 99.9259L180.539 97.9599ZM149.289 104.815L149.467 105.766L151.433 105.398L151.255 104.447L149.289 104.815ZM157.409 111.208L176.441 107.653L176.074 105.687L157.042 109.242L157.409 111.208ZM149.467 105.766C150.157 109.462 153.713 111.899 157.409 111.208L157.042 109.242C154.432 109.73 151.92 108.009 151.433 105.398L149.467 105.766ZM179.918 100.078C180.405 102.688 178.684 105.2 176.074 105.687L176.441 107.653C180.137 106.963 182.574 103.407 181.884 99.7108L179.918 100.078ZM252.967 217.015C249.433 223.93 245.966 227.663 242.029 229.669C238.071 231.685 233.488 232.036 227.514 231.853L227.453 233.852C233.479 234.037 238.5 233.711 242.937 231.451C247.395 229.18 251.114 225.038 254.748 217.925L252.967 217.015ZM181.066 201.052C183.052 201.937 187.04 204.069 191.449 205.797C195.887 207.537 201.04 208.997 205.656 208.551L205.463 206.56C201.334 206.959 196.548 205.648 192.179 203.935C187.783 202.212 184.1 200.214 181.879 199.225L181.066 201.052ZM205.656 208.551C207.247 208.397 208.895 208.971 210.568 210.177C212.243 211.384 213.874 213.177 215.383 215.314C218.403 219.589 220.82 225.073 222.087 229.448L224.008 228.892C222.69 224.338 220.185 218.645 217.017 214.16C215.433 211.918 213.654 209.935 211.737 208.554C209.819 207.172 207.694 206.345 205.463 206.56L205.656 208.551ZM203.225 195.058L181.289 199.155L181.656 201.121L203.592 197.024L203.225 195.058ZM159.983 200.213L158.401 191.744L156.435 192.111L158.017 200.58L159.983 200.213ZM188.051 102.21L205.523 191.715L207.486 191.332L190.014 101.827L188.051 102.21ZM181.289 199.155L163.334 202.509L163.701 204.475L181.656 201.121L181.289 199.155ZM180.907 99.9259L185.303 99.1044L184.936 97.1384L180.539 97.9599L180.907 99.9259ZM150.089 103.648L145.045 104.589L145.412 106.555L150.455 105.614L150.089 103.648ZM227.514 231.853C225.912 231.804 224.497 230.58 224.008 228.892L222.087 229.448C222.772 231.816 224.834 233.772 227.453 233.852L227.514 231.853ZM252.645 213.519C253.409 214.55 253.536 215.901 252.967 217.015L254.748 217.925C255.677 216.106 255.449 213.944 254.252 212.328L252.645 213.519ZM76.1336 135.533L124.325 126.409L123.953 124.444L75.7616 133.568L76.1336 135.533ZM213.02 110.073L243.093 105.116L242.768 103.143L212.695 108.099L213.02 110.073ZM237.04 115.788L267.113 110.831L266.787 108.858L236.715 113.814L237.04 115.788Z" fill="#32BCFF"/>
<path d="M118.977 155.855C119.519 155.752 119.876 155.229 119.773 154.686C119.67 154.143 119.147 153.787 118.605 153.89L118.977 155.855ZM70.4128 163.014C69.8702 163.117 69.5136 163.64 69.6163 164.182C69.7191 164.725 70.2423 165.082 70.7849 164.979L70.4128 163.014ZM71.8881 172.259C71.3455 172.362 70.9888 172.885 71.0916 173.428C71.1943 173.971 71.7175 174.327 72.2601 174.224L71.8881 172.259ZM120.452 165.101C120.995 164.998 121.351 164.475 121.249 163.932C121.146 163.389 120.623 163.033 120.08 163.135L120.452 165.101ZM73.4323 181.265C72.8897 181.367 72.533 181.891 72.6358 182.433C72.7385 182.976 73.2617 183.333 73.8043 183.23L73.4323 181.265ZM121.996 174.106C122.539 174.003 122.896 173.48 122.793 172.937C122.69 172.395 122.167 172.038 121.624 172.141L121.996 174.106ZM157.872 126.97C157.5 126.562 156.868 126.532 156.459 126.904C156.051 127.276 156.022 127.909 156.394 128.317L157.872 126.97ZM171.146 143.023L170.407 143.697L171.146 143.023ZM174.919 142.227L173.97 141.91L174.919 142.227ZM182.587 122.454C182.762 121.93 182.479 121.363 181.956 121.188C181.432 121.013 180.865 121.296 180.69 121.819L182.587 122.454ZM72.2601 174.224L120.452 165.101L120.08 163.135L71.8881 172.259L72.2601 174.224ZM73.8043 183.23L121.996 174.106L121.624 172.141L73.4323 181.265L73.8043 183.23ZM156.394 128.317L170.407 143.697L171.885 142.35L157.872 126.97L156.394 128.317ZM175.867 142.544L182.587 122.454L180.69 121.819L173.97 141.91L175.867 142.544ZM170.407 143.697C172.07 145.523 175.083 144.886 175.867 142.544L173.97 141.91C173.671 142.804 172.521 143.047 171.885 142.35L170.407 143.697ZM70.7849 164.979L118.977 155.855L118.605 153.89L70.4128 163.014L70.7849 164.979Z" fill="white"/>
</g>
<defs>
<clipPath id="clip0">
<path d="M0 0H264V214H0V0Z" fill="white"/>
</clipPath>
</defs>
</svg>
