<svg width="264" height="214" viewBox="0 0 264 214" fill="none" xmlns="http://www.w3.org/2000/svg">
<g clip-path="url(#clip0)">
<path d="M206.699 30.9687L121.627 30.9687C119.335 30.9687 117.477 32.8267 117.477 35.1186L117.477 79.7295L133.039 79.7295C136.602 79.9161 137.895 80.8633 138.226 84.9168L138.226 124.34L206.699 124.34C208.99 124.34 210.848 122.482 210.848 120.19L210.848 35.1186C210.848 32.8267 208.99 30.9687 206.699 30.9687Z" fill="#EAF5FF"/>
<path d="M82.2031 107.741C82.2031 105.449 84.0611 103.591 86.353 103.591L129.926 103.591C132.218 103.591 134.076 105.449 134.076 107.741L134.076 163.764C134.076 166.056 132.218 167.914 129.926 167.914L86.353 167.914C84.0611 167.914 82.2031 166.056 82.2031 163.764L82.2031 107.741Z" fill="#EAF5FF"/>
<path d="M185.949 138.865C185.949 136.573 187.807 134.715 190.099 134.715L208.773 134.715C211.065 134.715 212.923 136.573 212.923 138.865L212.923 165.839C212.923 168.131 211.065 169.989 208.773 169.989L190.099 169.989C187.807 169.989 185.949 168.131 185.949 165.839L185.949 138.865Z" fill="#EAF5FF"/>
<path d="M206.699 30.9687L121.627 30.9687C119.335 30.9687 117.477 32.8267 117.477 35.1186L117.477 79.7295L133.039 79.7295C136.602 79.9161 137.895 80.8633 138.226 84.9168L138.226 124.34L206.699 124.34C208.99 124.34 210.848 122.482 210.848 120.19L210.848 35.1186C210.848 32.8267 208.99 30.9687 206.699 30.9687Z" stroke="#EAF5FF" stroke-width="2"/>
<path d="M82.2031 107.741C82.2031 105.449 84.0611 103.591 86.353 103.591L129.926 103.591C132.218 103.591 134.076 105.449 134.076 107.741L134.076 163.764C134.076 166.056 132.218 167.914 129.926 167.914L86.353 167.914C84.0611 167.914 82.2031 166.056 82.2031 163.764L82.2031 107.741Z" stroke="#EAF5FF" stroke-width="2"/>
<path d="M185.949 138.865C185.949 136.573 187.807 134.715 190.099 134.715L208.773 134.715C211.065 134.715 212.923 136.573 212.923 138.865L212.923 165.839C212.923 168.131 211.065 169.989 208.773 169.989L190.099 169.989C187.807 169.989 185.949 168.131 185.949 165.839L185.949 138.865Z" stroke="#EAF5FF" stroke-width="2"/>
<path d="M37.5052 -3L226.494 -3C228.788 -3 230.647 -0.694626 230.647 2.1492L230.647 15.0222L33.3516 15.0222L33.3516 2.1492C33.3516 -0.694625 35.2112 -3 37.5052 -3Z" fill="#32BCFF" stroke="#32BCFF" stroke-width="2"/>
<path d="M135.15 79.7308C135.15 80.2831 135.598 80.7308 136.15 80.7308C136.702 80.7308 137.15 80.2831 137.15 79.7308L135.15 79.7308ZM138.225 92.2178C137.673 92.2178 137.225 92.6656 137.225 93.2178C137.225 93.7701 137.673 94.2178 138.225 94.2178L138.225 92.2178ZM138.225 96.3677C137.673 96.3677 137.225 96.8154 137.225 97.3677C137.225 97.92 137.673 98.3677 138.225 98.3677L138.225 96.3677ZM49.0033 79.7683C48.451 79.7683 48.0033 80.216 48.0033 80.7683C48.0033 81.3206 48.451 81.7683 49.0033 81.7683L49.0033 79.7683ZM49.0033 85.9931C48.451 85.9931 48.0033 86.4408 48.0033 86.9931C48.0033 87.5454 48.451 87.9931 49.0033 87.9931L49.0033 85.9931ZM49.0033 63.1689C48.451 63.1689 48.0033 63.6166 48.0033 64.1689C48.0033 64.7212 48.451 65.1689 49.0033 65.1689L49.0033 63.1689ZM100.876 65.1689C101.429 65.1689 101.876 64.7212 101.876 64.1689C101.876 63.6166 101.429 63.1689 100.876 63.1689L100.876 65.1689ZM49.0033 92.2178C48.451 92.2178 48.0033 92.6656 48.0033 93.2178C48.0033 93.7701 48.451 94.2178 49.0033 94.2178L49.0033 92.2178ZM49.0033 98.4426C48.451 98.4426 48.0033 98.8903 48.0033 99.4426C48.0033 99.9949 48.451 100.443 49.0033 100.443L49.0033 98.4426ZM82.2021 83.9181C81.6498 83.9181 81.2021 84.3659 81.2021 84.9181C81.2021 85.4704 81.6498 85.9181 82.2021 85.9181L82.2021 83.9181ZM89.4643 85.9181C90.0166 85.9181 90.4643 85.4704 90.4643 84.9181C90.4643 84.3659 90.0166 83.9181 89.4643 83.9181L89.4643 85.9181ZM82.2021 87.0305C81.6498 87.0305 81.2021 87.4782 81.2021 88.0305C81.2021 88.5828 81.6498 89.0305 82.2021 89.0305L82.2021 87.0305ZM89.4643 89.0305C90.0166 89.0305 90.4643 88.5828 90.4643 88.0305C90.4643 87.4782 90.0166 87.0305 89.4643 87.0305L89.4643 89.0305ZM82.2021 90.1429C81.6498 90.1429 81.2021 90.5906 81.2021 91.1429C81.2021 91.6952 81.6498 92.1429 82.2021 92.1429L82.2021 90.1429ZM89.4643 92.1429C90.0166 92.1429 90.4643 91.6952 90.4643 91.1429C90.4643 90.5906 90.0166 90.1429 89.4643 90.1429L89.4643 92.1429ZM179.724 144.016C180.276 144.016 180.724 143.568 180.724 143.016C180.724 142.464 180.276 142.016 179.724 142.016L179.724 144.016ZM173.499 150.241C174.051 150.241 174.499 149.793 174.499 149.241C174.499 148.688 174.051 148.241 173.499 148.241L173.499 150.241ZM167.274 156.466C167.826 156.466 168.274 156.018 168.274 155.466C168.274 154.913 167.826 154.466 167.274 154.466L167.274 156.466ZM177.649 162.69C178.201 162.69 178.649 162.243 178.649 161.69C178.649 161.138 178.201 160.69 177.649 160.69L177.649 162.69ZM132 147.166L132 148.166C132.553 148.166 133 147.718 133 147.166L132 147.166ZM123.701 119.192C123.148 119.192 122.701 119.64 122.701 120.192C122.701 120.744 123.148 121.192 123.701 121.192L123.701 119.192ZM86.352 147.166L85.352 147.166C85.352 147.718 85.7997 148.166 86.352 148.166L86.352 147.166ZM95.6891 121.192C96.2414 121.192 96.6891 120.744 96.6891 120.192C96.6891 119.64 96.2414 119.192 95.6891 119.192L95.6891 121.192ZM201.51 92.2178L192.173 92.2178L192.173 94.2178L201.51 94.2178L201.51 92.2178ZM193.173 93.2178L193.173 79.7308L191.173 79.7308L191.173 93.2178L193.173 93.2178ZM137.15 79.7308C137.15 64.8128 149.244 52.7194 164.162 52.7194L164.162 50.7194C148.139 50.7194 135.15 63.7082 135.15 79.7308L137.15 79.7308ZM193.173 79.7308C193.173 63.7082 180.184 50.7194 164.162 50.7194L164.162 52.7194C179.08 52.7194 191.173 64.8128 191.173 79.7308L193.173 79.7308ZM204.585 95.2928C204.585 93.5945 203.208 92.2178 201.51 92.2178L201.51 94.2178C202.104 94.2178 202.585 94.6991 202.585 95.2928L204.585 95.2928ZM201.51 98.3677C203.208 98.3677 204.585 96.991 204.585 95.2928L202.585 95.2928C202.585 95.8864 202.104 96.3677 201.51 96.3677L201.51 98.3677ZM138.225 94.2178L192.173 94.2178L192.173 92.2178L138.225 92.2178L138.225 94.2178ZM138.225 98.3677L201.51 98.3677L201.51 96.3677L138.225 96.3677L138.225 98.3677ZM32.4414 15.4082L32.4414 139.904L34.4414 139.904L34.4414 15.4082L32.4414 15.4082ZM231.559 139.904L231.559 15.4082L229.559 15.4082L229.559 139.904L231.559 139.904ZM226.409 145.053C229.253 145.053 231.559 142.748 231.559 139.904L229.559 139.904C229.559 141.643 228.149 143.053 226.409 143.053L226.409 145.053ZM37.5913 143.053C35.8516 143.053 34.4414 141.643 34.4414 139.904L32.4414 139.904C32.4414 142.748 34.7471 145.053 37.5913 145.053L37.5913 143.053ZM49.0033 65.1689L100.876 65.1689L100.876 63.1689L49.0033 63.1689L49.0033 65.1689ZM96.7266 29.9701L53.1532 29.9701L53.1532 31.9701L96.7266 31.9701L96.7266 29.9701ZM53.1532 29.9701C50.309 29.9701 48.0033 32.2758 48.0033 35.12L50.0033 35.12C50.0033 33.3804 51.4136 31.9701 53.1532 31.9701L53.1532 29.9701ZM48.0033 35.12L48.0033 47.5695L50.0033 47.5695L50.0033 35.12L48.0033 35.12ZM48.0033 47.5695C48.0033 50.4137 50.309 52.7194 53.1532 52.7194L53.1532 50.7194C51.4136 50.7194 50.0033 49.3091 50.0033 47.5695L48.0033 47.5695ZM53.1532 52.7194L96.7266 52.7194L96.7266 50.7194L53.1532 50.7194L53.1532 52.7194ZM96.7266 52.7194C99.5708 52.7194 101.876 50.4137 101.876 47.5695L99.8764 47.5695C99.8764 49.3091 98.4662 50.7194 96.7266 50.7194L96.7266 52.7194ZM101.876 47.5695L101.876 35.12L99.8764 35.12L99.8764 47.5695L101.876 47.5695ZM101.876 35.12C101.876 32.2758 99.5708 29.9701 96.7266 29.9701L96.7266 31.9701C98.4662 31.9701 99.8764 33.3804 99.8764 35.12L101.876 35.12ZM53.1532 112.967C50.309 112.967 48.0033 115.273 48.0033 118.117L50.0033 118.117C50.0033 116.377 51.4136 114.967 53.1532 114.967L53.1532 112.967ZM48.0033 118.117L48.0033 119.154L50.0033 119.154L50.0033 118.117L48.0033 118.117ZM48.0033 119.154C48.0033 121.999 50.309 124.304 53.1532 124.304L53.1532 122.304C51.4136 122.304 50.0033 120.894 50.0033 119.154L48.0033 119.154ZM82.2021 80.7308L134.075 80.7308L134.075 78.7308L82.2021 78.7308L82.2021 80.7308ZM134.075 80.7308C135.815 80.7308 137.225 82.1411 137.225 83.8807L139.225 83.8807C139.225 81.0365 136.919 78.7308 134.075 78.7308L134.075 80.7308ZM137.225 193.852C137.225 195.591 135.815 197.001 134.075 197.001L134.075 199.001C136.919 199.001 139.225 196.696 139.225 193.852L137.225 193.852ZM134.075 197.001L82.2021 197.001L82.2021 199.001L134.075 199.001L134.075 197.001ZM82.2021 197.001C80.4625 197.001 79.0523 195.591 79.0523 193.852L77.0523 193.852C77.0523 196.696 79.3579 199.001 82.2021 199.001L82.2021 197.001ZM82.2021 85.9181L89.4643 85.9181L89.4643 83.9181L82.2021 83.9181L82.2021 85.9181ZM82.2021 89.0305L89.4643 89.0305L89.4643 87.0305L82.2021 87.0305L82.2021 89.0305ZM82.2021 92.1429L89.4643 92.1429L89.4643 90.1429L82.2021 90.1429L82.2021 92.1429ZM214.997 129.492C216.737 129.492 218.147 130.902 218.147 132.641L220.147 132.641C220.147 129.797 217.841 127.492 214.997 127.492L214.997 129.492ZM218.147 172.065C218.147 173.805 216.737 175.215 214.997 175.215L214.997 177.215C217.841 177.215 220.147 174.909 220.147 172.065L218.147 172.065ZM53.1532 124.304L78.0523 124.304L78.0523 122.304L53.1532 122.304L53.1532 124.304ZM79.0523 123.304L79.0523 113.967L77.0523 113.967L77.0523 123.304L79.0523 123.304ZM78.0523 112.967L53.1532 112.967L53.1532 114.967L78.0523 114.967L78.0523 112.967ZM79.0523 113.967L79.0523 99.4426L77.0523 99.4426L77.0523 113.967L79.0523 113.967ZM49.0033 100.443L78.0523 100.443L78.0523 98.4426L49.0033 98.4426L49.0033 100.443ZM79.0523 99.4426L79.0523 93.2178L77.0523 93.2178L77.0523 99.4426L79.0523 99.4426ZM49.0033 94.2178L78.0523 94.2178L78.0523 92.2178L49.0033 92.2178L49.0033 94.2178ZM79.0523 93.2178L79.0523 86.9931L77.0523 86.9931L77.0523 93.2178L79.0523 93.2178ZM79.0523 86.9931L79.0523 83.8807L77.0523 83.8807L77.0523 86.9931L79.0523 86.9931ZM49.0033 87.9931L78.0523 87.9931L78.0523 85.9931L49.0033 85.9931L49.0033 87.9931ZM79.0523 83.8807C79.0523 82.94 79.4633 82.0967 80.1189 81.518L78.7954 80.0186C77.728 80.9607 77.0523 82.3424 77.0523 83.8807L79.0523 83.8807ZM80.1189 81.518C80.6748 81.0274 81.4026 80.7308 82.2021 80.7308L82.2021 78.7308C80.8967 78.7308 79.7027 79.2178 78.7954 80.0186L80.1189 81.518ZM49.0033 81.7683L79.4572 81.7683L79.4572 79.7683L49.0033 79.7683L49.0033 81.7683ZM79.0523 193.852L79.0523 144.053L77.0523 144.053L77.0523 193.852L79.0523 193.852ZM79.0523 144.053L79.0523 123.304L77.0523 123.304L77.0523 144.053L79.0523 144.053ZM37.5913 145.053L78.0523 145.053L78.0523 143.053L37.5913 143.053L37.5913 145.053ZM214.997 175.215L138.225 175.215L138.225 177.215L214.997 177.215L214.997 175.215ZM137.225 176.215L137.225 193.852L139.225 193.852L139.225 176.215L137.225 176.215ZM137.225 161.69L137.225 176.215L139.225 176.215L139.225 161.69L137.225 161.69ZM138.225 162.69L177.649 162.69L177.649 160.69L138.225 160.69L138.225 162.69ZM137.225 155.466L137.225 161.69L139.225 161.69L139.225 155.466L137.225 155.466ZM138.225 156.466L167.274 156.466L167.274 154.466L138.225 154.466L138.225 156.466ZM137.225 149.241L137.225 155.466L139.225 155.466L139.225 149.241L137.225 149.241ZM138.225 150.241L173.499 150.241L173.499 148.241L138.225 148.241L138.225 150.241ZM138.225 144.016L179.724 144.016L179.724 142.016L138.225 142.016L138.225 144.016ZM137.225 83.8807L137.225 128.492L139.225 128.492L139.225 83.8807L137.225 83.8807ZM137.225 128.492L137.225 143.016L139.225 143.016L139.225 128.492L137.225 128.492ZM138.225 129.492L214.997 129.492L214.997 127.492L138.225 127.492L138.225 129.492ZM219.147 145.053L226.409 145.053L226.409 143.053L219.147 143.053L219.147 145.053ZM218.147 132.641L218.147 144.053L220.147 144.053L220.147 132.641L218.147 132.641ZM218.147 144.053L218.147 172.065L220.147 172.065L220.147 144.053L218.147 144.053ZM112.251 147.166C112.251 145.194 113.024 143.96 114.23 143.171C115.5 142.34 117.351 141.941 119.551 141.941L119.551 139.941C117.167 139.941 114.868 140.363 113.134 141.498C111.336 142.675 110.251 144.554 110.251 147.166L112.251 147.166ZM119.551 141.941C121.751 141.941 123.601 142.34 124.872 143.171C126.077 143.96 126.85 145.194 126.85 147.166L128.85 147.166C128.85 144.554 127.766 142.675 125.967 141.498C124.234 140.363 121.934 139.941 119.551 139.941L119.551 141.941ZM126.85 147.166C126.85 149.138 126.077 150.371 124.872 151.16C123.601 151.992 121.751 152.391 119.551 152.391L119.551 154.391C121.934 154.391 124.234 153.969 125.967 152.834C127.766 151.657 128.85 149.778 128.85 147.166L126.85 147.166ZM119.551 152.391C117.351 152.391 115.5 151.992 114.23 151.16C113.024 150.371 112.251 149.138 112.251 147.166L110.251 147.166C110.251 149.778 111.336 151.657 113.134 152.834C114.868 153.969 117.167 154.391 119.551 154.391L119.551 152.391ZM91.5018 147.166C91.5018 145.194 92.275 143.96 93.4804 143.171C94.7508 142.34 96.6013 141.941 98.8015 141.941L98.8015 139.941C96.4179 139.941 94.1185 140.363 92.385 141.498C90.5866 142.675 89.5018 144.554 89.5018 147.166L91.5018 147.166ZM98.8015 141.941C101.002 141.941 102.852 142.34 104.123 143.171C105.328 143.96 106.101 145.194 106.101 147.166L108.101 147.166C108.101 144.554 107.016 142.675 105.218 141.498C103.484 140.363 101.185 139.941 98.8015 139.941L98.8015 141.941ZM106.101 147.166C106.101 149.138 105.328 150.371 104.123 151.16C102.852 151.992 101.002 152.391 98.8015 152.391L98.8015 154.391C101.185 154.391 103.484 153.969 105.218 152.834C107.016 151.657 108.101 149.778 108.101 147.166L106.101 147.166ZM98.8015 152.391C96.6013 152.391 94.7508 151.992 93.4804 151.16C92.275 150.371 91.5018 149.138 91.5018 147.166L89.5018 147.166C89.5018 149.778 90.5866 151.657 92.385 152.834C94.1185 153.969 96.4179 154.391 98.8015 154.391L98.8015 152.391ZM111.251 146.166L107.101 146.166L107.101 148.166L111.251 148.166L111.251 146.166ZM127.85 148.166L132 148.166L132 146.166L127.85 146.166L127.85 148.166ZM133 147.166L133 126.417L131 126.417L131 147.166L133 147.166ZM125.776 119.192L123.701 119.192L123.701 121.192L125.776 121.192L125.776 119.192ZM90.5018 146.166L86.352 146.166L86.352 148.166L90.5018 148.166L90.5018 146.166ZM87.352 147.166L87.352 126.417L85.352 126.417L85.352 147.166L87.352 147.166ZM92.5767 121.192L95.6891 121.192L95.6891 119.192L92.5767 119.192L92.5767 121.192ZM87.352 126.417C87.352 123.531 89.6912 121.192 92.5767 121.192L92.5767 119.192C88.5866 119.192 85.352 122.426 85.352 126.417L87.352 126.417ZM133 126.417C133 122.426 129.766 119.192 125.776 119.192L125.776 121.192C128.661 121.192 131 123.531 131 126.417L133 126.417ZM129.925 179.365L86.352 179.365L86.352 181.365L129.925 181.365L129.925 179.365ZM86.352 179.365C83.5078 179.365 81.2021 181.67 81.2021 184.514L83.2021 184.514C83.2021 182.775 84.6123 181.365 86.352 181.365L86.352 179.365ZM81.2021 184.514L81.2021 186.589L83.2021 186.589L83.2021 184.514L81.2021 184.514ZM81.2021 186.589C81.2021 189.434 83.5078 191.739 86.352 191.739L86.352 189.739C84.6123 189.739 83.2021 188.329 83.2021 186.589L81.2021 186.589ZM86.352 191.739L129.925 191.739L129.925 189.739L86.352 189.739L86.352 191.739ZM129.925 191.739C132.77 191.739 135.075 189.434 135.075 186.589L133.075 186.589C133.075 188.329 131.665 189.739 129.925 189.739L129.925 191.739ZM135.075 186.589L135.075 184.514L133.075 184.514L133.075 186.589L135.075 186.589ZM135.075 184.514C135.075 181.67 132.77 179.365 129.925 179.365L129.925 181.365C131.665 181.365 133.075 182.775 133.075 184.514L135.075 184.514ZM137.225 143.016L137.225 149.241L139.225 149.241L139.225 143.016L137.225 143.016Z" fill="#32BCFF"/>
<path d="M42.5938 3.97098C42.2033 3.58046 41.5701 3.58046 41.1796 3.97098C40.7891 4.3615 40.7891 4.99467 41.1796 5.38519L42.5938 3.97098ZM47.4044 11.61C47.7949 12.0005 48.4281 12.0005 48.8186 11.61C49.2091 11.2194 49.2091 10.5863 48.8186 10.1958L47.4044 11.61ZM41.1796 10.1958C40.7891 10.5863 40.7891 11.2194 41.1796 11.61C41.5701 12.0005 42.2033 12.0005 42.5938 11.61L41.1796 10.1958ZM48.8186 5.38519C49.2091 4.99467 49.2091 4.3615 48.8186 3.97098C48.4281 3.58046 47.7949 3.58046 47.4044 3.97098L48.8186 5.38519ZM54.3363 6.79047C53.784 6.79047 53.3363 7.23819 53.3363 7.79047C53.3363 8.34276 53.784 8.79047 54.3363 8.79047L54.3363 6.79047ZM60.561 8.79047C61.1133 8.79047 61.561 8.34276 61.561 7.79047C61.561 7.23819 61.1133 6.79047 60.561 6.79047L60.561 8.79047ZM41.1796 5.38519L44.292 8.49758L45.7062 7.08337L42.5938 3.97098L41.1796 5.38519ZM44.292 8.49758L47.4044 11.61L48.8186 10.1958L45.7062 7.08337L44.292 8.49758ZM42.5938 11.61L45.7062 8.49758L44.292 7.08337L41.1796 10.1958L42.5938 11.61ZM45.7062 8.49758L48.8186 5.38519L47.4044 3.97098L44.292 7.08337L45.7062 8.49758ZM54.3363 8.79047L60.561 8.79047L60.561 6.79047L54.3363 6.79047L54.3363 8.79047ZM72.0106 7.79047C72.0106 9.53008 70.6003 10.9403 68.8607 10.9403L68.8607 12.9403C71.7049 12.9403 74.0106 10.6347 74.0106 7.79047L72.0106 7.79047ZM68.8607 10.9403C67.1211 10.9403 65.7109 9.53009 65.7109 7.79047L63.7109 7.79047C63.7109 10.6347 66.0165 12.9403 68.8607 12.9403L68.8607 10.9403ZM65.7109 7.79047C65.7109 6.05086 67.1211 4.64062 68.8607 4.64062L68.8607 2.64062C66.0165 2.64062 63.7109 4.94629 63.7109 7.79047L65.7109 7.79047ZM68.8607 4.64062C70.6003 4.64062 72.0106 6.05086 72.0106 7.79047L74.0106 7.79047C74.0106 4.94629 71.7049 2.64062 68.8607 2.64062L68.8607 4.64062Z" fill="white"/>
</g>
<defs>
<clipPath id="clip0">
<path d="M0 0H264V214H0V0Z" fill="white"/>
</clipPath>
</defs>
</svg>
