<svg width="264" height="214" viewBox="0 0 264 214" fill="none" xmlns="http://www.w3.org/2000/svg">
<g clip-path="url(#clip0)">
<path d="M189.512 17.7946C189.512 26.4236 182.517 33.4187 173.888 33.4187C165.259 33.4187 158.264 26.4236 158.264 17.7946C158.264 9.1657 165.259 2.17058 173.888 2.17058C182.517 2.17058 189.512 9.1657 189.512 17.7946Z" fill="#00CECB"/>
<path d="M187.419 25.6067C183.105 33.0795 173.549 35.6399 166.076 31.3255C158.603 27.011 156.043 17.4555 160.358 9.9826C164.672 2.50973 174.228 -0.0506592 181.7 4.2638C189.173 8.57827 191.734 18.1338 187.419 25.6067Z" fill="#00CECB"/>
<path d="M187.419 25.6067C183.105 33.0795 173.549 35.6399 166.076 31.3255C158.603 27.011 156.043 17.4555 160.358 9.9826C164.672 2.50973 174.228 -0.0506592 181.7 4.2638C189.173 8.57827 191.734 18.1338 187.419 25.6067Z" fill="#00CECB"/>
<path d="M181.7 31.3255C174.228 35.64 164.672 33.0796 160.358 25.6067C156.043 18.1338 158.604 8.57832 166.076 4.26385C173.549 -0.0506082 183.105 2.50979 187.419 9.98266C191.734 17.4555 189.173 27.011 181.7 31.3255Z" fill="#00CECB"/>
<path d="M185.169 63.6221C185.169 69.8541 180.117 74.9062 173.885 74.9062C167.653 74.9062 162.601 69.8541 162.601 63.6221C162.601 57.3901 167.653 52.3381 173.885 52.3381C180.117 52.3381 185.169 57.3901 185.169 63.6221Z" fill="#00CECB"/>
<circle cx="173.887" cy="17.7935" r="12.02" stroke="white" stroke-width="2"/>
<path d="M156.457 65.3738C156.848 64.9832 156.848 64.3501 156.457 63.9596L150.093 57.5956C149.703 57.2051 149.069 57.2051 148.679 57.5956C148.288 57.9861 148.288 58.6193 148.679 59.0098L154.336 64.6667L148.679 70.3235C148.288 70.714 148.288 71.3472 148.679 71.7377C149.069 72.1283 149.703 72.1283 150.093 71.7377L156.457 65.3738ZM155.75 17.75C156.302 17.75 156.75 17.3023 156.75 16.75C156.75 16.1977 156.302 15.75 155.75 15.75L155.75 17.75ZM190.46 16.0429C190.069 16.4334 190.069 17.0666 190.46 17.4571L196.824 23.8211C197.214 24.2116 197.847 24.2116 198.238 23.8211C198.628 23.4305 198.628 22.7974 198.238 22.4069L192.581 16.75L198.238 11.0931C198.628 10.7026 198.628 10.0695 198.238 9.67893C197.847 9.28841 197.214 9.28841 196.824 9.67893L190.46 16.0429ZM193.25 63.6667C192.698 63.6667 192.25 64.1144 192.25 64.6667C192.25 65.2189 192.698 65.6667 193.25 65.6667L193.25 63.6667ZM188.517 63.6234C188.517 71.7 181.969 78.2474 173.893 78.2474L173.893 80.2474C183.074 80.2474 190.517 72.8046 190.517 63.6234L188.517 63.6234ZM173.893 78.2474C165.816 78.2474 159.269 71.7 159.269 63.6234L157.269 63.6234C157.269 72.8046 164.712 80.2474 173.893 80.2474L173.893 78.2474ZM159.269 63.6234C159.269 55.5467 165.816 48.9993 173.893 48.9993L173.893 46.9993C164.712 46.9993 157.269 54.4421 157.269 63.6234L159.269 63.6234ZM173.893 48.9993C181.969 48.9993 188.517 55.5467 188.517 63.6234L190.517 63.6234C190.517 54.4421 183.074 46.9993 173.893 46.9993L173.893 48.9993ZM186.558 70.9354C182.519 77.93 173.575 80.3265 166.581 76.2882L165.581 78.0202C173.532 82.6108 183.699 79.8865 188.29 71.9354L186.558 70.9354ZM166.581 76.2882C159.586 72.2498 157.19 63.3059 161.228 56.3113L159.496 55.3113C154.905 63.2625 157.63 73.4296 165.581 78.0202L166.581 76.2882ZM161.228 56.3113C165.266 49.3167 174.21 46.9202 181.205 50.9586L182.205 49.2265C174.254 44.6359 164.087 47.3602 159.496 55.3113L161.228 56.3113ZM181.205 50.9586C188.199 54.9969 190.596 63.9408 186.558 70.9354L188.29 71.9354C192.88 63.9842 190.156 53.8171 182.205 49.2265L181.205 50.9586ZM181.205 76.2882C174.21 80.3265 165.266 77.93 161.228 70.9354L159.496 71.9354C164.087 79.8866 174.254 82.6109 182.205 78.0203L181.205 76.2882ZM161.228 70.9354C157.19 63.9409 159.586 54.9969 166.581 50.9586L165.581 49.2266C157.63 53.8172 154.905 63.9843 159.496 71.9354L161.228 70.9354ZM166.581 50.9586C173.575 46.9203 182.519 49.3168 186.558 56.3114L188.29 55.3114C183.699 47.3602 173.532 44.6359 165.581 49.2266L166.581 50.9586ZM186.558 56.3114C190.596 63.306 188.199 72.2499 181.205 76.2882L182.205 78.0203C190.156 73.4296 192.88 63.2625 188.29 55.3114L186.558 56.3114ZM136 34.5702L136 46.8464L138 46.8464L138 34.5702L136 34.5702ZM136 46.8464C136 57.2879 144.891 65.6667 155.75 65.6667L155.75 63.6667C145.898 63.6667 138 56.0887 138 46.8464L136 46.8464ZM155.75 15.75C144.891 15.75 136 24.1288 136 34.5702L138 34.5702C138 25.328 145.898 17.75 155.75 17.75L155.75 15.75ZM210.917 46.8464L210.917 34.5702L208.917 34.5702L208.917 46.8464L210.917 46.8464ZM210.917 34.5702C210.917 24.1288 202.026 15.75 191.167 15.75L191.167 17.75C201.018 17.75 208.917 25.328 208.917 34.5702L210.917 34.5702ZM193.25 65.6667C198.703 65.6667 203.145 63.5576 206.213 60.1123C209.271 56.6795 210.917 51.9771 210.917 46.8464L208.917 46.8464C208.917 51.5576 207.407 55.7653 204.72 58.7821C202.044 61.7866 198.152 63.6667 193.25 63.6667L193.25 65.6667Z" fill="#32BCFF"/>
<path d="M26.5869 78.125C26.5869 77.0204 27.4824 76.125 28.5869 76.125L195.205 76.125C196.309 76.125 197.205 77.0204 197.205 78.125L197.205 189.755L26.5869 189.755L26.5869 78.125Z" fill="white"/>
<path d="M26.5869 189.755L197.205 189.755L210.354 189.755C210.63 189.755 210.854 189.979 210.854 190.255L210.854 194.958C210.854 196.063 209.959 196.958 208.854 196.958L14.9375 196.958C13.8329 196.958 12.9375 196.063 12.9375 194.958L12.9375 190.255C12.9375 189.979 13.1614 189.755 13.4375 189.755L26.5869 189.755Z" fill="white"/>
<path d="M197.205 189.755L197.205 78.125C197.205 77.0204 196.309 76.125 195.205 76.125L28.5869 76.125C27.4824 76.125 26.5869 77.0204 26.5869 78.125L26.5869 189.755M197.205 189.755L26.5869 189.755M197.205 189.755L210.354 189.755C210.63 189.755 210.854 189.979 210.854 190.255L210.854 194.958C210.854 196.063 209.959 196.958 208.854 196.958L14.9375 196.958C13.8329 196.958 12.9375 196.063 12.9375 194.958L12.9375 190.255C12.9375 189.979 13.1614 189.755 13.4375 189.755L26.5869 189.755" stroke="#32BCFF" stroke-width="2"/>
<path d="M178.665 153.21C178.665 152.634 179.131 152.168 179.706 152.168C180.282 152.168 180.748 152.634 180.748 153.21L180.748 167.793C180.748 168.368 180.282 168.835 179.706 168.835C179.131 168.835 178.665 168.368 178.665 167.793L178.665 153.21Z" fill="#32BCFF"/>
<path fill-rule="evenodd" clip-rule="evenodd" d="M34.9141 85.5013C34.9141 84.3507 35.8468 83.418 36.9974 83.418L186.997 83.418C188.148 83.418 189.081 84.3507 189.081 85.5013L189.081 189.668L34.9141 189.668L34.9141 85.5013ZM179.706 95.918C177.98 95.918 176.581 97.3171 176.581 99.043C176.581 100.769 177.98 102.168 179.706 102.168C181.432 102.168 182.831 100.769 182.831 99.043C182.831 97.3171 181.432 95.918 179.706 95.918ZM179.706 108.418C177.98 108.418 176.581 109.817 176.581 111.543L176.581 167.793C176.581 169.519 177.98 170.918 179.706 170.918C181.432 170.918 182.831 169.519 182.831 167.793L182.831 111.543C182.831 109.817 181.432 108.418 179.706 108.418ZM179.706 177.168C177.98 177.168 176.581 178.567 176.581 180.293C176.581 182.019 177.98 183.418 179.706 183.418C181.432 183.418 182.831 182.019 182.831 180.293C182.831 178.567 181.432 177.168 179.706 177.168ZM46.3724 95.918C44.6465 95.918 43.2474 97.3171 43.2474 99.043C43.2474 100.769 44.6465 102.168 46.3724 102.168C48.0983 102.168 49.4974 100.769 49.4974 99.043C49.4974 97.3171 48.0983 95.918 46.3724 95.918ZM46.3724 106.335C44.6465 106.335 43.2474 107.734 43.2474 109.46C43.2474 111.186 44.6465 112.585 46.3724 112.585C48.0983 112.585 49.4974 111.186 49.4974 109.46C49.4974 107.734 48.0983 106.335 46.3724 106.335Z" fill="#32BCFF"/>
<path d="M43.25 124.043C43.25 122.317 44.6491 120.918 46.375 120.918C48.1009 120.918 49.5 122.317 49.5 124.043C49.5 125.769 48.1009 127.168 46.375 127.168C44.6491 127.168 43.25 125.769 43.25 124.043Z" fill="white"/>
<path d="M43.25 134.46C43.25 132.734 44.6491 131.335 46.375 131.335C48.1009 131.335 49.5 132.734 49.5 134.46C49.5 136.186 48.1009 137.585 46.375 137.585C44.6491 137.585 43.25 136.186 43.25 134.46Z" fill="white"/>
<path d="M26.5869 189.754L197.205 189.754L210.354 189.754C210.63 189.754 210.854 189.978 210.854 190.254L210.854 194.958C210.854 196.062 209.959 196.958 208.854 196.958L14.9375 196.958C13.8329 196.958 12.9375 196.062 12.9375 194.958L12.9375 190.254C12.9375 189.978 13.1614 189.754 13.4375 189.754L26.5869 189.754Z" fill="white" stroke="#32BCFF" stroke-width="2"/>
<path d="M197.205 189.755L197.205 78.125C197.205 77.0204 196.309 76.125 195.205 76.125L28.5869 76.125C27.4824 76.125 26.5869 77.0204 26.5869 78.125L26.5869 189.755M197.205 189.755L26.5869 189.755M197.205 189.755L210.354 189.755C210.63 189.755 210.854 189.979 210.854 190.255L210.854 194.958C210.854 196.063 209.959 196.958 208.854 196.958L14.9375 196.958C13.8329 196.958 12.9375 196.063 12.9375 194.958L12.9375 190.255C12.9375 189.979 13.1614 189.755 13.4375 189.755L26.5869 189.755" stroke="#32BCFF" stroke-width="2"/>
<path d="M163.044 189.668L59.9193 189.668L59.9195 61.543C59.9195 57.5159 56.6549 54.2513 52.6278 54.2513C48.6008 54.2513 45.3362 50.9867 45.3362 46.9596L45.3362 37.5847C45.3362 32.407 41.1388 28.2096 35.9612 28.2096C30.7835 28.2096 26.5862 24.0123 26.5861 18.8347L26.5859 -0.957031L129.711 -0.957032L129.711 18.8346C129.711 24.0123 133.908 28.2096 139.086 28.2096C144.264 28.2096 148.461 32.407 148.461 37.5846L148.461 46.9596C148.461 50.9867 151.726 54.2513 155.753 54.2513C159.78 54.2513 163.044 57.5159 163.044 61.543L163.044 189.668Z" fill="white"/>
<path d="M35.9612 28.2096C30.7835 28.2096 26.5862 24.0123 26.5861 18.8347L26.5859 -0.957031L129.711 -0.957032L129.711 18.8346C129.711 24.0123 133.908 28.2096 139.086 28.2096M35.9612 28.2096C41.1388 28.2096 45.3362 32.407 45.3362 37.5847L45.3362 46.9596C45.3362 50.9867 48.6008 54.2513 52.6278 54.2513M35.9612 28.2096L139.086 28.2096M52.6278 54.2513C56.6549 54.2513 59.9195 57.5159 59.9195 61.543L59.9193 189.668L163.044 189.668L163.044 61.543C163.044 57.5159 159.78 54.2513 155.753 54.2513M52.6278 54.2513L155.753 54.2513M139.086 28.2096C144.264 28.2096 148.461 32.407 148.461 37.5846L148.461 46.9596C148.461 50.9867 151.726 54.2513 155.753 54.2513M79.4071 86.5427L144.859 86.5427M79.4071 79.251L144.859 79.251M79.4071 71.9594L144.859 71.9594M65.3014 39.6677L130.753 39.6677M65.3014 45.9177L130.753 45.9177M45.5099 17.7927L110.961 17.7927M45.5099 10.501L110.961 10.501" stroke="#32BCFF" stroke-width="2" stroke-linecap="round" stroke-linejoin="round"/>
<path d="M75.2422 151.126L90.4028 133.987C91.4109 132.848 93.1423 132.716 94.3111 133.69C95.5682 134.738 97.4505 134.496 98.4016 133.164L101.723 128.515C103.01 126.713 105.482 126.232 107.35 127.421L108.91 128.414C110.734 129.575 113.143 129.147 114.456 127.429L119.087 121.374C120.527 119.492 123.244 119.187 125.064 120.704L126.604 121.987C128.648 123.69 131.742 123.069 132.969 120.709L138.281 110.493C139.33 108.474 141.806 107.671 143.841 108.689L149.027 111.282" stroke="#32BCFF" stroke-width="2"/>
<path d="M149.025 144.483L146.08 149.146C143.899 152.599 138.633 151.692 137.733 147.708L136.893 143.989C136.245 141.117 132.373 140.601 130.996 143.203C129.84 145.386 126.743 145.469 125.472 143.351L124.679 142.029C122.806 138.907 118.084 139.659 117.273 143.208L115.849 149.436C115.235 152.122 111.461 152.262 110.651 149.628L109.016 144.317C108.656 143.146 106.978 143.206 106.703 144.4C106.415 145.648 104.632 145.634 104.363 144.381L103.886 142.154C103.613 140.882 102.074 140.371 101.096 141.228L100.459 141.785C99.1379 142.941 97.0614 142.162 96.8259 140.423L94.0261 119.741C93.4753 115.672 87.996 114.762 86.1596 118.435C84.2895 122.175 78.6922 121.145 78.2761 116.984L76.5859 100.082" stroke="#FF5C52" stroke-width="2"/>
</g>
<defs>
<clipPath id="clip0">
<path d="M0 0H264V214H0V0Z" fill="white"/>
</clipPath>
</defs>
</svg>
