<svg width="264" height="214" viewBox="0 0 264 214" fill="none" xmlns="http://www.w3.org/2000/svg">
<g clip-path="url(#clip0)">
<rect x="87.25" y="86.75" width="88.4167" height="109.083" rx="1" fill="white" stroke="#32BCFF" stroke-width="2"/>
<path d="M150.832 116.166C150.832 115.061 151.727 114.166 152.832 114.166L159.165 114.166C160.27 114.166 161.165 115.061 161.165 116.166L161.165 178.749L150.832 178.749L150.832 116.166Z" fill="#00CECB"/>
<path d="M135.332 116.166C135.332 115.061 136.227 114.166 137.332 114.166L143.665 114.166C144.77 114.166 145.665 115.061 145.665 116.166L145.665 178.749L135.332 178.749L135.332 116.166Z" fill="#00CECB"/>
<path d="M119.832 116.166C119.832 115.061 120.727 114.166 121.832 114.166L128.165 114.166C129.27 114.166 130.165 115.061 130.165 116.166L130.165 178.749L119.832 178.749L119.832 116.166Z" fill="#00CECB"/>
<path d="M106.918 178.75L162.46 178.75" stroke="#32BCFF" stroke-width="2" stroke-linecap="round" stroke-linejoin="round"/>
<rect x="17.5" y="55.75" width="88.4167" height="109.083" rx="1" fill="white" stroke="#32BCFF" stroke-width="2"/>
<rect x="-3.16797" y="-1.08398" width="217.583" height="109.083" rx="1" fill="white" stroke="#32BCFF" stroke-width="2"/>
<path d="M135.74 45.9237C135.155 48.3549 135.449 51.1094 137.314 52.7748L143.985 58.7309C146.252 60.7544 149.804 60.4018 151.169 57.6876C153.434 53.1852 154.714 48.0717 154.714 42.6502C154.714 36.5643 153.102 30.8663 150.292 25.9853C148.735 23.2787 145.046 23.2188 142.947 25.5307L136.672 32.4405C135.119 34.1508 134.993 36.6677 135.614 38.8928C135.947 40.086 136.126 41.3467 136.126 42.6502C136.126 43.7789 135.992 44.8753 135.74 45.9237Z" fill="#00CECB"/>
<path d="M131.007 55.764C131.487 55.5152 132.004 55.5737 132.328 55.8426L144.536 65.9789C145.023 66.383 144.987 67.0599 144.566 67.3876C138.93 71.7804 131.735 74.4173 123.889 74.4173C105.753 74.4173 91.125 60.3428 91.125 43.0703C91.125 27.3592 103.223 14.2978 119.063 12.0609C119.575 11.9885 120.076 12.3976 120.076 12.9983L120.076 28.2778C120.076 28.7336 119.74 29.2008 119.178 29.3793C113.224 31.2698 108.885 36.6648 108.885 43.0703C108.885 51.0722 115.643 57.4866 123.889 57.4866C126.462 57.4866 128.887 56.8638 131.007 55.764ZM132.186 30.0949C131.868 30.4204 131.303 30.521 130.775 30.2585C130.08 29.913 129.353 29.6182 128.6 29.3792C128.038 29.2007 127.703 28.7338 127.703 28.2778L127.703 12.9983C127.703 12.3966 128.203 11.9885 128.714 12.0607C133.977 12.8037 138.83 14.7437 142.964 17.5807C143.394 17.8759 143.481 18.5275 143.052 18.9673L132.186 30.0949Z" fill="white" stroke="#32BCFF" stroke-width="2"/>
<rect x="144.082" y="55.75" width="88.4167" height="109.083" rx="1" fill="white" stroke="#32BCFF" stroke-width="2"/>
<path d="M20.3096 214.243C29.1997 204.278 52.8676 177.397 53.5386 172.937C54.5784 166.025 59.0324 142.021 65.3542 131.127C65.6591 130.602 65.8414 130.022 65.9257 129.421C66.3315 126.529 67.8856 121.676 71.7211 118.714C72.6586 117.991 73.3749 116.968 73.9537 115.939C77.0327 110.461 89.9234 100.659 96.8308 94.9403C97.3577 94.5041 97.7408 93.9419 97.9554 93.2949C103.995 75.082 116.642 40.2924 121.446 39.4102C127.021 38.3864 131.488 40.8861 116.981 89.1817C122.196 92.6692 133.04 101.188 134.692 107.362C136.344 113.537 136.128 120.106 135.813 122.618C140.517 110.689 153.04 113.226 150.494 122.157C147.949 131.089 147.198 135.66 142.88 141.655C138.563 147.651 127.986 161.611 118.647 172.816C109.308 184.02 90.129 194.406 80.3036 203.794L73.6024 225.884C73.0497 227.706 71.4711 229.045 69.5668 229.277C50.504 231.603 35.142 231.059 20.9315 221.021C18.6923 219.44 18.4881 216.285 20.3096 214.243Z" fill="white"/>
<path d="M135.813 122.618C140.517 110.689 153.04 113.226 150.494 122.157C147.949 131.089 147.198 135.66 142.88 141.655C138.563 147.651 127.986 161.611 118.647 172.816C109.308 184.02 90.129 194.406 80.3036 203.794L73.6024 225.884C73.0497 227.706 71.4711 229.045 69.5668 229.277C50.504 231.603 35.142 231.059 20.9315 221.021C18.6923 219.44 18.4881 216.285 20.3096 214.243C29.1997 204.278 52.8676 177.397 53.5386 172.937C54.5784 166.025 59.0324 142.021 65.3542 131.127C65.6591 130.602 65.8414 130.022 65.9257 129.421C66.3315 126.529 67.8856 121.676 71.7211 118.714C72.6586 117.991 73.3749 116.968 73.9537 115.939C77.0327 110.461 89.9234 100.659 96.8308 94.9403C97.3577 94.5041 97.7408 93.9419 97.9554 93.2949C103.995 75.082 116.642 40.2924 121.446 39.4102C127.021 38.3864 131.488 40.8861 116.981 89.1817M135.813 122.618C136.128 120.106 136.344 113.537 134.692 107.362C133.04 101.188 122.196 92.6692 116.981 89.1817M135.813 122.618C135.286 123.955 134.685 125.251 134.028 126.49M116.981 89.1817C115.577 93.8552 113.995 98.9576 112.22 104.527M112.22 104.527C114.671 106.312 120.293 111.831 123.169 119.627C124.38 122.91 126.066 124.815 127.795 125.849M112.22 104.527C111.11 108.527 110.69 113.913 110.895 119.254M134.028 126.49C128.82 136.304 120.041 142.583 115.773 138.096C112.897 135.072 111.201 127.213 110.895 119.254M134.028 126.49C132.626 127.046 130.171 127.271 127.795 125.849M127.795 125.849C128.81 127.8 129.987 131.829 126.57 132.34C124.156 132.7 121.547 132.335 119.261 130.845M110.895 119.254C111.322 119.208 112.7 120.341 114.798 125.231C115.938 127.888 117.504 129.699 119.261 130.845M119.261 130.845C118.662 132.293 116.624 134.636 113.268 132.422" stroke="#32BCFF" stroke-width="2" stroke-linecap="round" stroke-linejoin="round"/>
<path d="M101.749 50.875L75.7953 24.9216C75.0451 24.1714 74.0277 23.75 72.9668 23.75L39.7487 23.75M145.665 47L158.702 33.9632C159.452 33.2131 160.47 32.7917 161.531 32.7917L189.582 32.7917M135.332 19.875L141.91 13.2966C142.661 12.5464 143.678 12.125 144.739 12.125L168.915 12.125M42.332 78L7.45703 78M69.457 88.3333L7.45703 88.3333M215.415 70.25L159.874 70.25M220.582 78L159.874 78M220.582 150.333L159.874 150.333M199.915 87.0417L159.874 87.0417" stroke="#32BCFF" stroke-width="2" stroke-linecap="round" stroke-linejoin="round"/>
<rect x="166.332" y="98.666" width="46.5" height="38.75" rx="2" fill="#00CECB"/>
<path d="M25.543 154.208L40.1814 140.695C41.3334 139.632 43.1522 139.798 44.0929 141.052C45.1512 142.463 47.268 142.463 48.3264 141.052L51.4784 136.849C52.836 135.039 55.4219 134.711 57.1888 136.124C58.9557 137.538 61.5416 137.21 62.8992 135.399L64.293 133.541" stroke="#32BCFF" stroke-width="2" stroke-linecap="round" stroke-linejoin="round"/>
</g>
<defs>
<clipPath id="clip0">
<path d="M0 0H264V214H0V0Z" fill="white"/>
</clipPath>
</defs>
</svg>
