<svg width="264" height="215" viewBox="0 0 264 215" fill="none" xmlns="http://www.w3.org/2000/svg">
<g clip-path="url(#clip0)">
<path d="M147.099 24.0553L145.46 20.7896C145.27 20.4109 145.043 20.052 144.782 19.7181L143.89 18.5762C142.569 16.8848 140.5 15.9609 138.354 16.1201L80.3072 20.4267C76.3188 20.7226 74.1889 22.9757 73.3281 24.718C72.9528 25.4778 72.9328 26.2847 72.981 26.9327L73.3446 31.8165L2.57598 37.0669C0.133786 37.2481 -1.99016 35.4189 -2.17135 32.9852L-4.38535 3.24785C-4.56654 0.814149 -2.73681 -1.30837 -0.294615 -1.48956L140.529 -11.9374C142.971 -12.1186 145.095 -10.2894 145.276 -7.8557L147.49 21.8817C147.548 22.6553 147.403 23.397 147.099 24.0553ZM194.061 134.312C194.493 121.352 194.196 111.418 190.298 101.258L257.51 96.2719C259.952 96.0907 262.076 97.9199 262.257 100.354L264.069 124.684C264.25 127.118 262.42 129.24 259.978 129.422L194.061 134.312ZM170.828 212.149L65.2105 219.985C62.7683 220.166 60.6443 218.337 60.4631 215.903L58.6517 191.573C58.4705 189.139 60.3002 187.016 62.7424 186.835L137.002 181.326C141.74 183.05 145.763 183.939 149.23 184.704C149.384 184.738 149.538 184.772 149.691 184.806C153.334 185.612 156.275 186.301 158.91 187.699C164.017 190.409 168.216 195.93 173.232 211.221C172.564 211.744 171.74 212.081 170.828 212.149Z" fill="#32BCFF" stroke="#32BCFF" stroke-width="2"/>
<path d="M75.2776 45.3336C75.2776 45.3336 65.724 35.7491 63.4468 44.7415C61.1696 53.7339 76.8022 65.8119 76.8022 65.8119" fill="white"/>
<path d="M74.4081 121.64C67.8355 114.004 64.0667 99.6117 79.1741 97.9933L79.6711 104.671C102.533 119.553 80.9806 129.276 74.4081 121.64Z" fill="white"/>
<path d="M76.586 150.893C70.0134 143.257 66.1358 127.402 81.2431 125.784L81.8491 133.924C104.711 148.807 83.1586 158.53 76.586 150.893Z" fill="white"/>
<path d="M72.4479 95.3117C65.8753 87.6756 62.1065 73.2835 77.2139 71.665L77.711 78.3427C100.573 93.225 79.0205 102.948 72.4479 95.3117Z" fill="white"/>
<path d="M134.159 18.9052L134.05 17.4426L87.1621 20.922L87.2709 22.3839C87.6318 27.2308 91.8604 30.8679 96.7158 30.5077L126.021 28.3335C130.876 27.9733 134.52 23.7521 134.159 18.9052Z" fill="white"/>
<path d="M152.681 85.0431C152.398 84.5684 151.785 84.4124 151.31 84.6946C150.835 84.9769 150.679 85.5905 150.962 86.0652L152.681 85.0431ZM159.663 98.7362L158.804 99.2473C158.985 99.5523 159.314 99.7383 159.669 99.7362C160.024 99.7341 160.351 99.5442 160.529 99.2371L159.663 98.7362ZM192.626 112.058L191.639 112.216L191.639 112.217L192.626 112.058ZM195.991 148.156L196.922 147.792L195.991 148.156ZM74.5694 46.0395C74.9594 46.4307 75.5925 46.4318 75.9837 46.0419C76.3748 45.6521 76.3757 45.019 75.9858 44.6278L74.5694 46.0395ZM76.191 66.6031C76.6281 66.9408 77.2561 66.8603 77.5937 66.4233C77.9313 65.9864 77.8506 65.3583 77.4135 65.0206L76.191 66.6031ZM79.1741 97.9933L80.1714 97.9193C80.1512 97.6492 80.0224 97.3987 79.8143 97.2252C79.6062 97.0518 79.3367 96.9701 79.0673 96.999L79.1741 97.9933ZM74.4081 121.64L75.1659 120.988L75.1659 120.988L74.4081 121.64ZM79.6711 104.671L78.6739 104.745C78.697 105.056 78.8641 105.339 79.1257 105.509L79.6711 104.671ZM81.2431 125.784L82.2404 125.71C82.2203 125.44 82.0915 125.189 81.8834 125.016C81.6753 124.842 81.4057 124.761 81.1364 124.789L81.2431 125.784ZM76.586 150.893L77.3439 150.241L77.3439 150.241L76.586 150.893ZM81.8491 133.924L80.8519 133.998C80.875 134.31 81.0421 134.592 81.3037 134.762L81.8491 133.924ZM77.2139 71.665L78.2112 71.5911C78.1911 71.3209 78.0622 71.0705 77.8541 70.897C77.646 70.7235 77.3765 70.6419 77.1071 70.6707L77.2139 71.665ZM72.4479 95.3117L73.2057 94.6594L73.2057 94.6594L72.4479 95.3117ZM77.711 78.3427L76.7137 78.4167C76.7369 78.7278 76.904 79.0104 77.1655 79.1807L77.711 78.3427ZM134.05 17.4426L135.047 17.3686C135.028 17.1041 134.904 16.8582 134.703 16.6851C134.502 16.512 134.24 16.4257 133.976 16.4453L134.05 17.4426ZM87.1621 20.922L87.0878 19.9247C86.5371 19.9656 86.1238 20.4452 86.1648 20.9959L87.1621 20.922ZM153.343 185.148L153.329 186.148L153.343 185.148ZM181.094 226.746L180.948 227.735L181.094 226.746ZM176.285 221.705L177.273 221.553L176.285 221.705ZM225.086 201.916L224.222 202.42L224.222 202.42L225.086 201.916ZM224.989 207.463L225.828 208.008L225.828 208.008L224.989 207.463ZM150.962 86.0652L158.804 99.2473L160.522 98.2252L152.681 85.0431L150.962 86.0652ZM160.529 99.2371C162.158 96.4208 162.19 92.5727 161.504 88.9512C160.812 85.2952 159.347 81.6507 157.723 79.0932L156.035 80.165C157.515 82.4954 158.891 85.8996 159.539 89.3228C160.194 92.7805 160.066 96.042 158.797 98.2354L160.529 99.2371ZM157.723 79.0932C154.707 74.3445 151.288 64.9281 150.697 56.9819L148.702 57.1299C149.318 65.4041 152.842 75.1379 156.035 80.165L157.723 79.0932ZM150.697 56.9819C150.407 53.0891 151.197 50.4221 152.6 48.6444C154.003 46.8685 156.135 45.8312 158.836 45.4371L158.547 43.4581C155.505 43.9019 152.84 45.1136 151.03 47.4049C149.223 49.6943 148.388 52.9126 148.702 57.1299L150.697 56.9819ZM158.836 45.4371C159.656 45.3175 160.536 45.8026 161.527 47.3423C162.492 48.8425 163.341 51.0248 164.138 53.4938C164.935 55.9651 165.635 58.5753 166.36 60.9929C167.067 63.3489 167.804 65.5471 168.655 66.972L170.372 65.9464C169.668 64.7684 168.993 62.8089 168.276 60.4188C167.577 58.0902 166.843 55.3658 166.041 52.8802C165.239 50.3923 164.325 47.9954 163.208 46.2604C162.117 44.5649 160.598 43.1588 158.547 43.4581L158.836 45.4371ZM168.655 66.972C170.232 69.6105 175.487 77.8682 180.62 87.0543C183.184 91.6422 185.705 96.4401 187.705 100.853C189.715 105.286 191.165 109.258 191.639 112.216L193.614 111.9C193.096 108.666 191.551 104.493 189.527 100.028C187.494 95.5439 184.944 90.6922 182.366 86.0791C177.216 76.8635 171.906 68.5138 170.372 65.9464L168.655 66.972ZM191.639 112.217C191.994 114.413 192.07 116.923 192.054 119.701C192.039 122.424 191.932 125.519 191.941 128.621C191.957 134.907 192.43 141.799 195.059 148.52L196.922 147.792C194.429 141.419 193.957 134.824 193.941 128.617C193.932 125.472 194.038 122.568 194.054 119.713C194.07 116.913 193.996 114.266 193.614 111.898L191.639 112.217ZM195.059 148.52C197.258 154.141 203.138 165.194 209.144 176.004C215.165 186.841 221.358 197.515 224.222 202.42L225.949 201.412C223.088 196.512 216.903 185.852 210.892 175.033C204.866 164.187 199.062 153.262 196.922 147.792L195.059 148.52ZM75.2776 45.3336C75.9858 44.6278 75.9855 44.6275 75.9853 44.6272C75.9851 44.6271 75.9848 44.6268 75.9845 44.6265C75.984 44.6259 75.9833 44.6252 75.9824 44.6244C75.9807 44.6227 75.9784 44.6204 75.9755 44.6175C75.9698 44.6118 75.9618 44.6039 75.9515 44.5938C75.931 44.5736 75.9016 44.5449 75.8638 44.5084C75.7881 44.4355 75.6788 44.3316 75.5398 44.2036C75.2621 43.9481 74.8645 43.5951 74.3805 43.2011C73.4205 42.4197 72.0847 41.4473 70.6457 40.7625C69.238 40.0926 67.5448 39.608 65.9675 40.0828C64.2964 40.5859 63.0972 42.0481 62.4773 44.4958L64.4162 44.9872C64.935 42.9387 65.7839 42.2268 66.5445 41.9979C67.399 41.7407 68.5212 41.9661 69.7866 42.5683C71.0206 43.1556 72.2155 44.0173 73.1181 44.752C73.5652 45.116 73.9319 45.4416 74.1855 45.675C74.3122 45.7916 74.4103 45.8849 74.4757 45.9479C74.5084 45.9795 74.5329 46.0034 74.5487 46.019C74.5566 46.0267 74.5623 46.0324 74.5658 46.0359C74.5675 46.0376 74.5687 46.0387 74.5693 46.0394C74.5696 46.0397 74.5698 46.0398 74.5698 46.0398C74.5698 46.0398 74.5697 46.0397 74.5697 46.0398C74.5696 46.0396 74.5694 46.0395 75.2776 45.3336ZM62.4773 44.4958C61.8273 47.0629 62.4753 49.7569 63.6706 52.2584C64.8706 54.7697 66.6754 57.2001 68.5178 59.307C70.3653 61.4196 72.2804 63.2404 73.7304 64.5311C74.4564 65.1773 75.0683 65.6927 75.4999 66.0477C75.7158 66.2252 75.8868 66.3627 76.0047 66.4565C76.0637 66.5034 76.1093 66.5394 76.1407 66.5639C76.1564 66.5762 76.1685 66.5857 76.1769 66.5922C76.1811 66.5955 76.1844 66.5981 76.1868 66.5999C76.1879 66.6008 76.1889 66.6015 76.1896 66.6021C76.1899 66.6023 76.1903 66.6026 76.1904 66.6027C76.1907 66.6029 76.191 66.6031 76.8022 65.8119C77.4135 65.0206 77.4136 65.0207 77.4137 65.0208C77.4136 65.0207 77.4136 65.0207 77.4135 65.0206C77.4132 65.0204 77.4127 65.02 77.412 65.0195C77.4106 65.0183 77.4082 65.0165 77.4049 65.0139C77.3983 65.0088 77.388 65.0008 77.3742 64.99C77.3466 64.9683 77.3048 64.9354 77.2498 64.8916C77.1398 64.8041 76.9771 64.6733 76.77 64.503C76.3557 64.1623 75.764 63.6639 75.06 63.0373C73.6501 61.7824 71.7993 60.0216 70.0233 57.9907C68.2423 55.9541 66.5658 53.6789 65.4752 51.3965C64.3798 49.1042 63.9277 46.9163 64.4162 44.9872L62.4773 44.4958ZM79.0673 96.999C75.135 97.4202 72.295 98.6882 70.4187 100.596C68.5357 102.51 67.7289 104.961 67.6614 107.533C67.5282 112.616 70.262 118.356 73.6502 122.292L75.1659 120.988C71.9815 117.288 69.5447 112.014 69.6608 107.586C69.718 105.404 70.3908 103.476 71.8447 101.998C73.3054 100.513 75.6595 99.3755 79.2809 98.9875L79.0673 96.999ZM73.6502 122.292C75.5445 124.493 78.453 125.378 81.2455 125.302C84.0355 125.227 86.8924 124.191 88.7831 122.309C90.7282 120.372 91.5893 117.588 90.3532 114.321C89.1513 111.145 86.0043 107.601 80.2166 103.833L79.1257 105.509C84.7689 109.182 87.501 112.434 88.4826 115.028C89.4299 117.532 88.7787 119.491 87.3719 120.891C85.9107 122.345 83.5759 123.238 81.1908 123.303C78.8082 123.368 76.5579 122.605 75.1659 120.988L73.6502 122.292ZM80.6684 104.597L80.1714 97.9193L78.1768 98.0672L78.6739 104.745L80.6684 104.597ZM81.1364 124.789C77.1819 125.213 74.339 126.585 72.476 128.645C70.6162 130.701 69.8368 133.328 69.7848 136.063C69.6816 141.484 72.4211 147.587 75.8282 151.546L77.3439 150.241C74.1784 146.564 71.6927 140.921 71.7844 136.101C71.8298 133.715 72.5029 131.597 73.9595 129.987C75.4131 128.38 77.7507 127.164 81.3499 126.778L81.1364 124.789ZM75.8282 151.546C77.7224 153.746 80.6309 154.632 83.4235 154.556C86.2135 154.48 89.0703 153.444 90.9611 151.562C92.9062 149.626 93.7673 146.841 92.5311 143.575C91.3293 140.398 88.1823 136.854 82.3946 133.086L81.3037 134.762C86.9469 138.436 89.679 141.688 90.6606 144.282C91.6079 146.785 90.9567 148.744 89.5499 150.145C88.0887 151.599 85.7539 152.492 83.3688 152.557C80.9862 152.621 78.7359 151.859 77.3439 150.241L75.8282 151.546ZM82.8464 133.851L82.2404 125.71L80.2459 125.858L80.8519 133.998L82.8464 133.851ZM77.1071 70.6707C73.1749 71.092 70.3348 72.36 68.4585 74.2674C66.5755 76.1817 65.7687 78.6328 65.7012 81.2053C65.568 86.2875 68.3018 92.0274 71.69 95.9639L73.2057 94.6594C70.0214 90.9598 67.5845 85.6857 67.7006 81.2582C67.7578 79.0758 68.4306 77.1482 69.8846 75.6701C71.3452 74.1852 73.6993 73.0473 77.3207 72.6593L77.1071 70.6707ZM71.69 95.9639C73.5843 98.1646 76.4928 99.0499 79.2854 98.9742C82.0754 98.8985 84.9322 97.8624 86.8229 95.9804C88.768 94.0442 89.6291 91.2594 88.393 87.9927C87.1911 84.8167 84.0441 81.2723 78.2564 77.5047L77.1655 79.1807C82.8087 82.8542 85.5408 86.1061 86.5224 88.7001C87.4697 91.2035 86.8185 93.1625 85.4117 94.5628C83.9505 96.0172 81.6158 96.9102 79.2306 96.9749C76.848 97.0396 74.5978 96.2767 73.2057 94.6594L71.69 95.9639ZM78.7082 78.2687L78.2112 71.5911L76.2167 71.739L76.7137 78.4167L78.7082 78.2687ZM79.4705 22.4941L140.894 17.937L140.745 15.9426L79.322 20.4996L79.4705 22.4941ZM78.2351 71.5888L74.9681 27.7084L72.9736 27.8564L76.2406 71.7367L78.2351 71.5888ZM90.5278 171.009C87.84 171.209 85.5021 169.196 85.3027 166.517L83.3082 166.665C83.5898 170.448 86.8902 173.285 90.6762 173.004L90.5278 171.009ZM156.453 161.238C156.653 163.917 154.639 166.253 151.951 166.452L152.099 168.447C155.885 168.166 158.729 164.874 158.448 161.09L156.453 161.238ZM140.894 17.937C141.01 17.9284 141.197 17.9608 141.478 18.1494C141.762 18.3405 142.087 18.6569 142.44 19.1107C143.144 20.0184 143.844 21.3257 144.474 22.7951C145.742 25.7489 146.614 29.0766 146.723 30.5399L148.717 30.3919C148.585 28.6239 147.626 25.0684 146.312 22.007C145.652 20.4688 144.874 18.9854 144.019 17.8844C143.592 17.3338 143.116 16.8413 142.593 16.4896C142.066 16.1354 141.438 15.8911 140.745 15.9426L140.894 17.937ZM79.322 20.4996C75.5359 20.7805 72.6919 24.0727 72.9736 27.8564L74.9681 27.7084C74.7687 25.0295 76.7827 22.6935 79.4705 22.4941L79.322 20.4996ZM133.053 17.5166L133.162 18.9792L135.156 18.8312L135.047 17.3686L133.053 17.5166ZM133.976 16.4453L87.0878 19.9247L87.2364 21.9192L134.124 18.4398L133.976 16.4453ZM86.1648 20.9959L86.2737 22.4579L88.2682 22.3099L88.1594 20.848L86.1648 20.9959ZM96.7901 31.5049L126.095 29.3308L125.947 27.3363L96.6416 29.5105L96.7901 31.5049ZM86.2737 22.4579C86.6757 27.8571 91.3855 31.9059 96.7901 31.5049L96.6416 29.5105C92.3353 29.8299 88.5879 26.6044 88.2682 22.3099L86.2737 22.4579ZM133.162 18.9792C133.481 23.2737 130.253 27.0168 125.947 27.3363L126.095 29.3308C131.5 28.9298 135.558 24.2305 135.156 18.8312L133.162 18.9792ZM224.15 206.919C217.4 217.319 211.299 222.64 204.673 225.083C198.019 227.536 190.671 227.152 181.24 225.757L180.948 227.735C190.41 229.135 198.2 229.601 205.365 226.959C212.558 224.308 218.959 218.591 225.828 208.008L224.15 206.919ZM117.744 170.819C120.65 172.516 126.235 176.351 132.594 179.688C138.979 183.04 146.418 186.051 153.329 186.148L153.357 184.148C146.934 184.058 139.843 181.234 133.523 177.917C127.176 174.586 121.879 170.918 118.752 169.092L117.744 170.819ZM153.329 186.148C155.99 186.185 158.561 187.468 160.996 189.722C163.432 191.976 165.665 195.143 167.623 198.782C171.537 206.062 174.25 215.048 175.297 221.856L177.273 221.553C176.196 214.546 173.419 205.338 169.384 197.835C167.366 194.084 165.01 190.712 162.354 188.254C159.699 185.797 156.676 184.195 153.357 184.148L153.329 186.148ZM85.3027 166.517L84.8181 160.008L82.8235 160.156L83.3082 166.665L85.3027 166.517ZM84.8181 160.008L84.3335 153.499L82.3389 153.647L82.8235 160.156L84.8181 160.008ZM146.723 30.5399L155.969 154.729L157.963 154.581L148.717 30.3919L146.723 30.5399ZM155.969 154.729L156.453 161.238L158.448 161.09L157.963 154.581L155.969 154.729ZM83.8951 161.079L106.992 159.365L106.843 157.371L83.7466 159.084L83.8951 161.079ZM118.174 168.958L107.763 169.731L107.912 171.725L118.322 170.953L118.174 168.958ZM107.763 169.731L90.5278 171.009L90.6762 173.004L107.912 171.725L107.763 169.731ZM105.92 158.442L106.84 170.802L108.835 170.654L107.915 158.294L105.92 158.442ZM106.992 159.365L132.016 157.509L131.867 155.514L106.843 157.371L106.992 159.365ZM132.016 157.509L157.04 155.652L156.892 153.658L131.867 155.514L132.016 157.509ZM132.788 167.874L118.174 168.958L118.322 170.953L132.936 169.869L132.788 167.874ZM130.944 156.586L131.865 168.945L133.859 168.797L132.939 156.438L130.944 156.586ZM181.24 225.757C179.197 225.455 177.605 223.714 177.273 221.553L175.297 221.856C175.742 224.757 177.916 227.287 180.948 227.735L181.24 225.757ZM224.222 202.42C225.046 203.831 225.025 205.571 224.15 206.919L225.828 208.008C227.129 206.003 227.14 203.451 225.949 201.412L224.222 202.42ZM151.951 166.452L132.788 167.874L132.936 169.869L152.099 168.447L151.951 166.452Z" fill="#32BCFF"/>
<path d="M66.8702 193.286C66.6152 192.796 66.0114 192.605 65.5214 192.86C65.0315 193.115 64.841 193.718 65.096 194.208L66.8702 193.286ZM75.5164 212.068L74.6293 212.529C74.8139 212.884 75.192 213.095 75.5907 213.065C75.9894 213.036 76.3321 212.772 76.4621 212.394L75.5164 212.068ZM83.1776 192.867C83.3572 192.345 83.0794 191.776 82.5572 191.596C82.0349 191.416 81.4659 191.694 81.2863 192.216L83.1776 192.867ZM6.74256 7.46341C6.4876 6.97344 5.88375 6.78281 5.39383 7.03763C4.9039 7.29245 4.71342 7.89623 4.96838 8.3862L6.74256 7.46341ZM15.3888 26.2458L14.5017 26.7072C14.6863 27.0619 15.0644 27.2727 15.4631 27.2431C15.8618 27.2135 16.2045 26.9493 16.3345 26.5713L15.3888 26.2458ZM23.05 7.04471C23.2296 6.52249 22.9518 5.95346 22.4295 5.77374C21.9073 5.59401 21.3383 5.87165 21.1587 6.39386L23.05 7.04471ZM97.0525 190.439C96.5018 190.48 96.0885 190.96 96.1295 191.51C96.1705 192.061 96.6502 192.475 97.201 192.434L97.0525 190.439ZM158.134 187.913C158.685 187.872 159.098 187.393 159.057 186.842C159.016 186.291 158.537 185.878 157.986 185.919L158.134 187.913ZM97.6563 198.549C97.1056 198.59 96.6923 199.07 96.7333 199.621C96.7743 200.171 97.2541 200.585 97.8048 200.544L97.6563 198.549ZM153.322 196.425C153.873 196.384 154.286 195.905 154.245 195.354C154.204 194.803 153.724 194.39 153.173 194.431L153.322 196.425ZM98.2602 206.66C97.7094 206.7 97.2961 207.18 97.3371 207.731C97.3782 208.282 97.8579 208.695 98.4087 208.654L98.2602 206.66ZM134.969 205.942C135.519 205.901 135.933 205.421 135.892 204.87C135.851 204.32 135.371 203.906 134.82 203.947L134.969 205.942ZM193.073 108.561C192.522 108.602 192.109 109.082 192.15 109.633C192.191 110.183 192.671 110.597 193.222 110.556L193.073 108.561ZM254.155 106.035C254.706 105.994 255.119 105.515 255.078 104.964C255.037 104.413 254.557 104 254.006 104.041L254.155 106.035ZM193.677 116.671C193.126 116.712 192.713 117.192 192.754 117.743C192.795 118.293 193.275 118.707 193.825 118.666L193.677 116.671ZM249.342 114.547C249.893 114.506 250.306 114.027 250.265 113.476C250.224 112.925 249.745 112.512 249.194 112.553L249.342 114.547ZM194.281 124.782C193.73 124.823 193.317 125.302 193.358 125.853C193.399 126.404 193.878 126.817 194.429 126.776L194.281 124.782ZM230.989 124.064C231.54 124.023 231.953 123.543 231.912 122.993C231.871 122.442 231.391 122.028 230.841 122.069L230.989 124.064ZM43.8966 6.81808C43.3458 6.85895 42.9325 7.33855 42.9735 7.88931C43.0145 8.44007 43.4943 8.85343 44.045 8.81256L43.8966 6.81808ZM133.414 2.18221C133.965 2.14134 134.378 1.66174 134.337 1.11098C134.296 0.560217 133.816 0.146863 133.265 0.187725L133.414 2.18221ZM44.5004 14.9283C43.9496 14.9691 43.5364 15.4487 43.5774 15.9995C43.6184 16.5503 44.0981 16.9636 44.6489 16.9228L44.5004 14.9283ZM126.074 10.8818C126.625 10.8409 127.038 10.3613 126.997 9.81054C126.956 9.25978 126.476 8.84642 125.925 8.88729L126.074 10.8818ZM65.096 194.208L74.6293 212.529L76.4035 211.607L66.8702 193.286L65.096 194.208ZM81.2863 192.216L74.5708 211.743L76.4621 212.394L83.1776 192.867L81.2863 192.216ZM4.96838 8.3862L14.5017 26.7072L16.2759 25.7844L6.74256 7.46341L4.96838 8.3862ZM21.1587 6.39386L14.4432 25.9204L16.3345 26.5713L23.05 7.04471L21.1587 6.39386ZM97.201 192.434L158.134 187.913L157.986 185.919L97.0525 190.439L97.201 192.434ZM97.8048 200.544L153.322 196.425L153.173 194.431L97.6563 198.549L97.8048 200.544ZM98.4087 208.654L134.969 205.942L134.82 203.947L98.2602 206.66L98.4087 208.654ZM193.222 110.556L254.155 106.035L254.006 104.041L193.073 108.561L193.222 110.556ZM193.825 118.666L249.342 114.547L249.194 112.553L193.677 116.671L193.825 118.666ZM194.429 126.776L230.989 124.064L230.841 122.069L194.281 124.782L194.429 126.776ZM44.045 8.81256L133.414 2.18221L133.265 0.187725L43.8966 6.81808L44.045 8.81256ZM44.6489 16.9228L126.074 10.8818L125.925 8.88729L44.5004 14.9283L44.6489 16.9228Z" fill="white"/>
<path d="M104.582 58.3289C104.819 61.5091 102.428 64.2818 99.2376 64.5184C96.0476 64.7551 93.2724 62.3657 93.0356 59.1855C92.7988 56.0053 95.1897 53.2326 98.3798 52.9959C101.57 52.7592 104.345 55.1486 104.582 58.3289ZM138.086 69.4348C138.323 72.615 135.932 75.3877 132.742 75.6244C129.552 75.861 126.777 73.4717 126.54 70.2914C126.303 67.1112 128.694 64.3385 131.884 64.1019C135.074 63.8652 137.849 66.2546 138.086 69.4348ZM107.198 93.473C107.435 96.6533 105.044 99.4259 101.854 99.6626C98.6642 99.8993 95.8889 97.5099 95.6521 94.3297C95.4154 91.1494 97.8063 88.3768 100.996 88.1401C104.186 87.9034 106.962 90.2928 107.198 93.473ZM146.723 112.287C146.959 115.468 144.568 118.24 141.378 118.477C138.188 118.714 135.413 116.324 135.176 113.144C134.94 109.964 137.331 107.191 140.521 106.954C143.711 106.718 146.486 109.107 146.723 112.287Z" fill="#00CECB" stroke="#00CECB" stroke-width="2"/>
<path d="M210.442 13.5099C211.067 10.959 214.597 10.6972 215.593 13.1277L219.899 23.6347C220.344 24.7217 221.44 25.3987 222.614 25.3116L233.955 24.4702C236.578 24.2756 237.918 27.5458 235.911 29.2426L227.231 36.5777C226.333 37.3365 226.027 38.5862 226.472 39.6732L230.778 50.1802C231.775 52.6108 229.073 54.8938 226.836 53.5119L217.165 47.5382C216.165 46.9202 214.88 47.0156 213.982 47.7744L205.302 55.1095C203.294 56.8063 200.285 54.947 200.91 52.3962L203.613 41.3692C203.892 40.2284 203.404 39.0376 202.404 38.4197L192.733 32.446C190.496 31.0641 191.338 27.632 193.961 27.4374L205.302 26.596C206.475 26.5089 207.459 25.6777 207.739 24.5369L210.442 13.5099Z" fill="#00CECB"/>
<path d="M28.5642 137.223C28.9688 135.476 31.2839 135.305 31.9427 136.972L34.7906 144.181C35.0853 144.927 35.8057 145.393 36.5752 145.336L44.0134 144.784C45.734 144.657 46.6204 146.9 45.307 148.059L39.6289 153.066C39.0415 153.584 38.8433 154.44 39.1379 155.185L41.9858 162.394C42.6446 164.062 40.8774 165.62 39.4068 164.669L33.0496 160.554C32.392 160.129 31.549 160.191 30.9616 160.709L25.2835 165.716C23.97 166.875 21.9914 165.594 22.396 163.848L24.1451 156.298C24.3261 155.517 24.0033 154.7 23.3457 154.274L16.9885 150.16C15.5179 149.208 16.0623 146.858 17.783 146.73L25.2211 146.179C25.9906 146.121 26.6341 145.554 26.8151 144.773L28.5642 137.223Z" fill="#00CECB"/>
<path d="M114.114 134.756C114.392 138.489 111.586 141.739 107.847 142.017C104.108 142.294 100.851 139.493 100.573 135.761C100.295 132.028 103.101 128.777 106.84 128.5C110.579 128.222 113.836 131.023 114.114 134.756Z" fill="#00CECB"/>
<path d="M112.697 131.063C112.234 131.365 112.104 131.984 112.405 132.447C112.707 132.91 113.326 133.041 113.789 132.739L112.697 131.063ZM141.141 113.723L141.687 114.56C141.99 114.363 142.162 114.017 142.138 113.656C142.114 113.295 141.897 112.975 141.57 112.82L141.141 113.723ZM101.616 94.9082L101.002 94.119C100.728 94.332 100.585 94.6717 100.622 95.0165C100.66 95.3613 100.873 95.662 101.187 95.8111L101.616 94.9082ZM132.504 70.87L133.118 71.6592C133.409 71.4326 133.552 71.0639 133.489 70.7003C133.427 70.3366 133.169 70.037 132.818 69.9208L132.504 70.87ZM99.3142 58.8149C98.7899 58.6411 98.2241 58.9252 98.0504 59.4494C97.8768 59.9736 98.161 60.5394 98.6853 60.7132L99.3142 58.8149ZM113.789 132.739L141.687 114.56L140.594 112.885L112.697 131.063L113.789 132.739ZM141.57 112.82L102.046 94.0054L101.187 95.8111L140.711 114.625L141.57 112.82ZM102.231 95.6974L133.118 71.6592L131.89 70.0808L101.002 94.119L102.231 95.6974ZM132.818 69.9208L99.3142 58.8149L98.6853 60.7132L132.189 71.8192L132.818 69.9208ZM113.117 134.83C113.353 138.01 110.962 140.783 107.772 141.02L107.921 143.014C112.209 142.696 115.43 138.967 115.111 134.682L113.117 134.83ZM107.772 141.02C104.582 141.256 101.807 138.867 101.57 135.687L99.5759 135.835C99.8949 140.12 103.633 143.332 107.921 143.014L107.772 141.02ZM101.57 135.687C101.334 132.506 103.725 129.734 106.915 129.497L106.766 127.503C102.478 127.821 99.2569 131.55 99.5759 135.835L101.57 135.687ZM106.915 129.497C110.105 129.26 112.88 131.65 113.117 134.83L115.111 134.682C114.792 130.397 111.054 127.184 106.766 127.503L106.915 129.497Z" fill="#00CECB"/>
</g>
<defs>
<clipPath id="clip0">
<path d="M0 0.12793H264V214.128H0V0.12793Z" fill="white"/>
</clipPath>
</defs>
</svg>
