<svg width="264" height="214" viewBox="0 0 264 214" fill="none" xmlns="http://www.w3.org/2000/svg">
<g clip-path="url(#clip0)">
<path d="M7.99219 51.0063L-0.726635 59.7251C-1.51194 60.5104 -1.95312 61.5755 -1.95312 62.6861L-1.95312 71.8202C-1.95312 72.2457 -1.85406 72.6654 -1.66378 73.0459C-1.19951 73.9745 -0.250492 74.561 0.787629 74.561L58.7656 74.561L58.7656 49.4363L77.6094 30.5925L77.6094 27.0924C77.6094 23.3617 73.0988 21.4934 70.4609 24.1314L57.1953 37.3969C56.328 38.2642 54.9219 38.2642 54.0547 37.3969C53.1874 36.5297 51.7813 36.5297 50.9141 37.3969L48.1173 40.1937C46.4819 41.829 43.8306 41.8291 42.1952 40.1937L39.7423 37.7407C38.1069 36.1054 35.4556 36.1054 33.8202 37.7407L24.7422 46.8188C23.8749 47.6861 22.4688 47.6861 21.6016 46.8188C20.7343 45.9515 19.3282 45.9515 18.4609 46.8188L14.2734 51.0063C13.4062 51.8736 12.0001 51.8736 11.1328 51.0063C10.2656 50.139 8.85944 50.139 7.99219 51.0063Z" fill="#00CECB"/>
<path d="M76.5625 141.561C76.5625 139.249 78.4373 137.374 80.75 137.374C83.0627 137.374 84.9375 139.249 84.9375 141.561L84.9375 164.593C84.9375 166.905 83.0627 168.78 80.75 168.78C78.4373 168.78 76.5625 166.905 76.5625 164.593L76.5625 141.561Z" fill="#00CECB"/>
<path d="M89.125 135.28C89.125 132.967 90.9998 131.093 93.3125 131.093C95.6252 131.093 97.5 132.967 97.5 135.28L97.5 164.593C97.5 166.905 95.6252 168.78 93.3125 168.78C90.9998 168.78 89.125 166.905 89.125 164.593L89.125 135.28Z" fill="#00CECB"/>
<path d="M101.687 124.811C101.687 122.499 103.562 120.624 105.875 120.624C108.188 120.624 110.062 122.499 110.062 124.811L110.062 164.593C110.062 166.905 108.188 168.78 105.875 168.78C103.562 168.78 101.687 166.905 101.687 164.593L101.687 124.811Z" fill="#00CECB"/>
<path d="M114.25 116.436C114.25 114.124 116.125 112.249 118.437 112.249C120.75 112.249 122.625 114.124 122.625 116.436L122.625 164.593C122.625 166.905 120.75 168.78 118.437 168.78C116.125 168.78 114.25 166.905 114.25 164.593L114.25 116.436Z" fill="#00CECB"/>
<path d="M143.562 124.811C143.562 122.499 145.437 120.624 147.75 120.624C150.063 120.624 151.937 122.499 151.937 124.811L151.937 164.593C151.937 166.905 150.063 168.78 147.75 168.78C145.437 168.78 143.562 166.905 143.562 164.593L143.562 124.811Z" fill="#00CECB"/>
<path d="M110.121 70.9221C109.772 72.4665 111.028 73.8324 112.611 73.8324L118.677 73.8324C119.883 73.8324 120.892 72.9382 121.326 71.8136C121.76 70.6891 121.591 69.3823 120.695 68.576L116.187 64.5184C115.009 63.4587 113.162 63.6341 112.388 65.0165C111.367 66.8417 110.596 68.8257 110.121 70.9221Z" fill="#00CECB"/>
<path d="M118.893 61.5161C117.715 60.4561 117.696 58.5995 118.99 57.6852C122.611 55.1269 127.031 53.6239 131.802 53.6239C132.265 53.6239 132.726 53.6381 133.182 53.666C134.765 53.763 135.724 55.3543 135.277 56.8758L133.311 63.5588C133.119 64.2142 132.485 64.6289 131.802 64.6289C130.025 64.6289 128.344 65.0419 126.851 65.7772C125.683 66.3522 124.244 66.332 123.276 65.4612L118.893 61.5161Z" fill="#00CECB"/>
<path d="M-0.726635 59.7251L-0.0195282 60.4322H-0.0195279L-0.726635 59.7251ZM7.99219 51.0063L7.28508 50.2992L7.99219 51.0063ZM14.2734 51.0063L14.9805 51.7134L14.9805 51.7134L14.2734 51.0063ZM18.4609 46.8188L19.168 47.5259L18.4609 46.8188ZM24.7422 46.8188L25.4493 47.5259L24.7422 46.8188ZM33.8202 37.7407L33.1131 37.0336L33.8202 37.7407ZM39.7423 37.7407L40.4494 37.0336L39.7423 37.7407ZM42.1952 40.1937L41.4881 40.9008L41.4881 40.9008L42.1952 40.1937ZM48.1173 40.1937L47.4101 39.4866L48.1173 40.1937ZM57.1953 37.3969L57.9024 38.104L57.1953 37.3969ZM70.4609 24.1314L69.7537 23.4243V23.4243L70.4609 24.1314ZM-1.66378 73.0459L-2.5582 73.4931H-2.5582L-1.66378 73.0459ZM77.6094 30.5925L78.3165 31.2996L78.6094 31.0067L78.6094 30.5925L77.6094 30.5925ZM58.7656 49.4363L58.0585 48.7292L57.7656 49.0221L57.7656 49.4363L58.7656 49.4363ZM58.7656 74.561L58.7656 75.561L59.7656 75.561L59.7656 74.561L58.7656 74.561ZM110.121 70.9221L111.097 71.1429L110.121 70.9221ZM121.326 71.8136L122.259 72.1736L121.326 71.8136ZM120.695 68.576L120.026 69.3193L120.695 68.576ZM116.187 64.5184L116.856 63.7751L116.187 64.5184ZM112.388 65.0165L113.261 65.5047L112.388 65.0165ZM118.893 61.5161L118.224 62.2594L118.893 61.5161ZM118.99 57.6852L119.567 58.5019L118.99 57.6852ZM133.182 53.666L133.243 52.6679L133.182 53.666ZM135.277 56.8758L134.318 56.5937L135.277 56.8758ZM133.311 63.5588L132.352 63.2766L133.311 63.5588ZM126.851 65.7772L127.292 66.6744L126.851 65.7772ZM123.276 65.4612L122.607 66.2045L123.276 65.4612ZM-0.0195279 60.4322L8.69929 51.7134L7.28508 50.2992L-1.43374 59.018L-0.0195279 60.4322ZM14.9805 51.7134L19.168 47.5259L17.7538 46.1117L13.5663 50.2992L14.9805 51.7134ZM25.4493 47.5259L34.5273 38.4479L33.1131 37.0336L24.0351 46.1117L25.4493 47.5259ZM39.0351 38.4479L41.4881 40.9008L42.9023 39.4866L40.4494 37.0336L39.0351 38.4479ZM48.8244 40.9008L51.6212 38.104L50.207 36.6898L47.4101 39.4866L48.8244 40.9008ZM57.9024 38.104L71.168 24.8385L69.7537 23.4243L56.4882 36.6898L57.9024 38.104ZM-0.953125 71.8202L-0.953125 62.6861L-2.95312 62.6861L-2.95312 71.8202L-0.953125 71.8202ZM-0.769348 72.5987C-0.890205 72.357 -0.953125 72.0905 -0.953125 71.8202L-2.95312 71.8202C-2.95312 72.401 -2.81792 72.9737 -2.5582 73.4931L-0.769348 72.5987ZM0.787629 73.561C0.128279 73.561 -0.474479 73.1885 -0.769349 72.5987L-2.5582 73.4931C-1.92455 74.7605 -0.629264 75.561 0.787629 75.561L0.787629 73.561ZM71.168 24.8385C73.176 22.8305 76.6094 24.2526 76.6094 27.0924L78.6094 27.0924C78.6094 22.4708 73.0217 20.1563 69.7537 23.4243L71.168 24.8385ZM53.3476 38.104C54.6054 39.3618 56.6446 39.3618 57.9024 38.104L56.4882 36.6898C56.0115 37.1666 55.2385 37.1666 54.7618 36.6898L53.3476 38.104ZM51.6212 38.104C52.0979 37.6273 52.8708 37.6273 53.3476 38.104L54.7618 36.6898C53.504 35.432 51.4647 35.432 50.207 36.6898L51.6212 38.104ZM41.4881 40.9008C43.514 42.9267 46.7985 42.9267 48.8244 40.9008L47.4101 39.4866C46.1654 40.7314 44.1471 40.7314 42.9023 39.4866L41.4881 40.9008ZM34.5273 38.4479C35.7721 37.2031 37.7904 37.2031 39.0351 38.4479L40.4494 37.0336C38.4235 35.0078 35.139 35.0078 33.1131 37.0336L34.5273 38.4479ZM20.8945 47.5259C22.1522 48.7837 24.1915 48.7837 25.4493 47.5259L24.0351 46.1117C23.5583 46.5884 22.7854 46.5884 22.3087 46.1117L20.8945 47.5259ZM19.168 47.5259C19.6448 47.0492 20.4177 47.0492 20.8945 47.5259L22.3087 46.1117C21.0509 44.8539 19.0116 44.8539 17.7538 46.1117L19.168 47.5259ZM10.4257 51.7134C11.6835 52.9712 13.7228 52.9712 14.9805 51.7134L13.5663 50.2992C13.0896 50.7759 12.3167 50.7759 11.8399 50.2992L10.4257 51.7134ZM8.69929 51.7134C9.17603 51.2367 9.94897 51.2367 10.4257 51.7134L11.8399 50.2992C10.5821 49.0414 8.54286 49.0414 7.28508 50.2992L8.69929 51.7134ZM-1.43374 59.018C-2.40659 59.9909 -2.95312 61.3103 -2.95312 62.6861L-0.953125 62.6861C-0.953125 61.8408 -0.6173 61.03 -0.0195282 60.4322L-1.43374 59.018ZM76.6094 27.0924L76.6094 30.5925L78.6094 30.5925L78.6094 27.0924L76.6094 27.0924ZM76.9023 29.8854L58.0585 48.7292L59.4727 50.1434L78.3165 31.2996L76.9023 29.8854ZM58.7656 73.561L0.787629 73.561L0.787629 75.561L58.7656 75.561L58.7656 73.561ZM57.7656 49.4363L57.7656 74.561L59.7656 74.561L59.7656 49.4363L57.7656 49.4363ZM77.5625 141.561C77.5625 139.801 78.9896 138.374 80.75 138.374L80.75 136.374C77.885 136.374 75.5625 138.696 75.5625 141.561L77.5625 141.561ZM80.75 138.374C82.5104 138.374 83.9375 139.801 83.9375 141.561L85.9375 141.561C85.9375 138.696 83.615 136.374 80.75 136.374L80.75 138.374ZM83.9375 141.561L83.9375 164.593L85.9375 164.593L85.9375 141.561L83.9375 141.561ZM83.9375 164.593C83.9375 166.353 82.5104 167.78 80.75 167.78L80.75 169.78C83.615 169.78 85.9375 167.458 85.9375 164.593L83.9375 164.593ZM80.75 167.78C78.9896 167.78 77.5625 166.353 77.5625 164.593L75.5625 164.593C75.5625 167.458 77.885 169.78 80.75 169.78L80.75 167.78ZM77.5625 164.593L77.5625 141.561L75.5625 141.561L75.5625 164.593L77.5625 164.593ZM90.125 135.28C90.125 133.52 91.5521 132.093 93.3125 132.093L93.3125 130.093C90.4475 130.093 88.125 132.415 88.125 135.28L90.125 135.28ZM93.3125 132.093C95.0729 132.093 96.5 133.52 96.5 135.28L98.5 135.28C98.5 132.415 96.1775 130.093 93.3125 130.093L93.3125 132.093ZM96.5 135.28L96.5 164.593L98.5 164.593L98.5 135.28L96.5 135.28ZM96.5 164.593C96.5 166.353 95.0729 167.78 93.3125 167.78L93.3125 169.78C96.1775 169.78 98.5 167.458 98.5 164.593L96.5 164.593ZM93.3125 167.78C91.5521 167.78 90.125 166.353 90.125 164.593L88.125 164.593C88.125 167.458 90.4475 169.78 93.3125 169.78L93.3125 167.78ZM90.125 164.593L90.125 135.28L88.125 135.28L88.125 164.593L90.125 164.593ZM102.687 124.811C102.687 123.051 104.115 121.624 105.875 121.624L105.875 119.624C103.01 119.624 100.687 121.946 100.687 124.811L102.687 124.811ZM105.875 121.624C107.635 121.624 109.062 123.051 109.062 124.811L111.062 124.811C111.062 121.946 108.74 119.624 105.875 119.624L105.875 121.624ZM109.062 124.811L109.062 164.593L111.062 164.593L111.062 124.811L109.062 124.811ZM109.062 164.593C109.062 166.353 107.635 167.78 105.875 167.78L105.875 169.78C108.74 169.78 111.062 167.458 111.062 164.593L109.062 164.593ZM105.875 167.78C104.115 167.78 102.687 166.353 102.687 164.593L100.687 164.593C100.687 167.458 103.01 169.78 105.875 169.78L105.875 167.78ZM102.687 164.593L102.687 124.811L100.687 124.811L100.687 164.593L102.687 164.593ZM115.25 116.436C115.25 114.676 116.677 113.249 118.437 113.249L118.437 111.249C115.573 111.249 113.25 113.571 113.25 116.436L115.25 116.436ZM118.437 113.249C120.198 113.249 121.625 114.676 121.625 116.436L123.625 116.436C123.625 113.571 121.302 111.249 118.437 111.249L118.437 113.249ZM121.625 116.436L121.625 164.593L123.625 164.593L123.625 116.436L121.625 116.436ZM121.625 164.593C121.625 166.353 120.198 167.78 118.437 167.78L118.437 169.78C121.302 169.78 123.625 167.458 123.625 164.593L121.625 164.593ZM118.437 167.78C116.677 167.78 115.25 166.353 115.25 164.593L113.25 164.593C113.25 167.458 115.573 169.78 118.437 169.78L118.437 167.78ZM115.25 164.593L115.25 116.436L113.25 116.436L113.25 164.593L115.25 164.593ZM144.562 124.811C144.562 123.051 145.99 121.624 147.75 121.624L147.75 119.624C144.885 119.624 142.562 121.946 142.562 124.811L144.562 124.811ZM147.75 121.624C149.51 121.624 150.937 123.051 150.937 124.811L152.937 124.811C152.937 121.946 150.615 119.624 147.75 119.624L147.75 121.624ZM150.937 124.811L150.937 164.593L152.937 164.593L152.937 124.811L150.937 124.811ZM150.937 164.593C150.937 166.353 149.51 167.78 147.75 167.78L147.75 169.78C150.615 169.78 152.937 167.458 152.937 164.593L150.937 164.593ZM147.75 167.78C145.99 167.78 144.562 166.353 144.562 164.593L142.562 164.593C142.562 167.458 144.885 169.78 147.75 169.78L147.75 167.78ZM144.562 164.593L144.562 124.811L142.562 124.811L142.562 164.593L144.562 164.593ZM109.146 70.7012C108.634 72.964 110.485 74.8324 112.611 74.8324L112.611 72.8324C111.57 72.8324 110.91 71.969 111.097 71.1429L109.146 70.7012ZM112.611 74.8324L118.677 74.8324L118.677 72.8324L112.611 72.8324L112.611 74.8324ZM118.677 74.8324C120.405 74.8324 121.72 73.5711 122.259 72.1736L120.394 71.4536C120.065 72.3053 119.36 72.8324 118.677 72.8324L118.677 74.8324ZM122.259 72.1736C122.806 70.7574 122.638 68.979 121.364 67.8327L120.026 69.3193C120.544 69.7856 120.715 70.6208 120.394 71.4536L122.259 72.1736ZM121.364 67.8327L116.856 63.7751L115.518 65.2617L120.026 69.3193L121.364 67.8327ZM116.856 63.7751C115.275 62.3522 112.648 62.5032 111.516 64.5283L113.261 65.5047C113.675 64.7649 114.744 64.5653 115.518 65.2617L116.856 63.7751ZM111.516 64.5283C110.449 66.4358 109.642 68.5096 109.146 70.7012L111.097 71.1429C111.55 69.1417 112.286 67.2476 113.261 65.5047L111.516 64.5283ZM119.562 60.7728C118.788 60.0763 118.874 58.9915 119.567 58.5019L118.413 56.8685C116.518 58.2075 116.642 60.8359 118.224 62.2594L119.562 60.7728ZM119.567 58.5019C123.025 56.059 127.244 54.6239 131.802 54.6239L131.802 52.6239C126.818 52.6239 122.197 54.1948 118.413 56.8685L119.567 58.5019ZM131.802 54.6239C132.245 54.6239 132.685 54.6375 133.121 54.6642L133.243 52.6679C132.766 52.6387 132.286 52.6239 131.802 52.6239L131.802 54.6239ZM133.121 54.6642C133.968 54.716 134.612 55.5939 134.318 56.5937L136.236 57.158C136.837 55.1147 135.562 52.8099 133.243 52.6679L133.121 54.6642ZM134.318 56.5937L132.352 63.2766L134.271 63.841L136.236 57.158L134.318 56.5937ZM132.352 63.2766C132.301 63.4495 132.104 63.6289 131.802 63.6289L131.802 65.6289C132.866 65.6289 133.936 64.9788 134.271 63.841L132.352 63.2766ZM131.802 63.6289C129.868 63.6289 128.037 64.0786 126.409 64.8801L127.292 66.6744C128.651 66.0053 130.181 65.6289 131.802 65.6289L131.802 63.6289ZM126.409 64.8801C125.501 65.3273 124.528 65.2431 123.945 64.7179L122.607 66.2045C123.959 67.421 125.865 67.3771 127.292 66.6744L126.409 64.8801ZM123.945 64.7179L119.562 60.7728L118.224 62.2594L122.607 66.2045L123.945 64.7179Z" fill="#00CECB"/>
<path d="M58.7656 95.4531C59.3179 95.4531 59.7656 95.0054 59.7656 94.4531C59.7656 93.9008 59.3179 93.4531 58.7656 93.4531L58.7656 95.4531ZM58.7656 99.6406C59.3179 99.6406 59.7656 99.1929 59.7656 98.6406C59.7656 98.0883 59.3179 97.6406 58.7656 97.6406L58.7656 99.6406ZM58.7656 49.1422L58.0608 48.4329L57.7656 48.7262L57.7656 49.1422L58.7656 49.1422ZM78.4858 29.5469L78.4858 28.5469L78.0735 28.5469L77.781 28.8375L78.4858 29.5469ZM121.381 80.0339L122.309 79.6615L121.381 80.0339ZM137.49 63.678L136.53 63.3958L137.49 63.678ZM138.746 67.0363L138.126 67.8216L138.746 67.0363ZM110.121 80.7875L109.146 81.0084L110.121 80.7875ZM139.155 58.0148L140.115 58.297L139.155 58.0148ZM142.653 56.4501L142.164 57.3225L142.653 56.4501ZM100.641 67.1875C101.193 67.1875 101.641 66.7398 101.641 66.1875C101.641 65.6352 101.193 65.1875 100.641 65.1875L100.641 67.1875ZM77.6094 65.1875C77.0571 65.1875 76.6094 65.6352 76.6094 66.1875C76.6094 66.7398 77.0571 67.1875 77.6094 67.1875L77.6094 65.1875ZM100.641 76.6094C101.193 76.6094 101.641 76.1617 101.641 75.6094C101.641 75.0571 101.193 74.6094 100.641 74.6094L100.641 76.6094ZM66.0938 74.6094C65.5415 74.6094 65.0938 75.0571 65.0938 75.6094C65.0938 76.1617 65.5415 76.6094 66.0938 76.6094L66.0938 74.6094ZM100.641 86.0312C101.193 86.0312 101.641 85.5835 101.641 85.0312C101.641 84.479 101.193 84.0312 100.641 84.0312L100.641 86.0312ZM85.9844 84.0312C85.4321 84.0312 84.9844 84.479 84.9844 85.0312C84.9844 85.5835 85.4321 86.0312 85.9844 86.0312L85.9844 84.0312ZM90.1719 195.953L192.766 195.953L192.766 193.953L90.1719 193.953L90.1719 195.953ZM197.953 190.766L197.953 46.2969L195.953 46.2969L195.953 190.766L197.953 190.766ZM84.9844 188.672L84.9844 190.766L86.9844 190.766L86.9844 188.672L84.9844 188.672ZM192.766 41.1094L184.391 41.1094L184.391 43.1094L192.766 43.1094L192.766 41.1094ZM192.766 195.953C195.631 195.953 197.953 193.631 197.953 190.766L195.953 190.766C195.953 192.526 194.526 193.953 192.766 193.953L192.766 195.953ZM90.1719 193.953C88.4115 193.953 86.9844 192.526 86.9844 190.766L84.9844 190.766C84.9844 193.631 87.3069 195.953 90.1719 195.953L90.1719 193.953ZM197.953 46.2969C197.953 43.4319 195.631 41.1094 192.766 41.1094L192.766 43.1094C194.526 43.1094 195.953 44.5365 195.953 46.2969L197.953 46.2969ZM75.5156 189.672L180.203 189.672L180.203 187.672L75.5156 187.672L75.5156 189.672ZM185.391 184.484L185.391 40.0156L183.391 40.0156L183.391 184.484L185.391 184.484ZM70.3281 182.391L70.3281 184.484L72.3281 184.484L72.3281 182.391L70.3281 182.391ZM180.203 34.8281L171.828 34.8281L171.828 36.8281L180.203 36.8281L180.203 34.8281ZM180.203 189.672C183.068 189.672 185.391 187.349 185.391 184.484L183.391 184.484C183.391 186.245 181.964 187.672 180.203 187.672L180.203 189.672ZM75.5156 187.672C73.7552 187.672 72.3281 186.245 72.3281 184.484L70.3281 184.484C70.3281 187.349 72.6507 189.672 75.5156 189.672L75.5156 187.672ZM185.391 40.0156C185.391 37.1506 183.068 34.8281 180.203 34.8281L180.203 36.8281C181.964 36.8281 183.391 38.2552 183.391 40.0156L185.391 40.0156ZM45.1563 84.0312L4.32813 84.0312L4.32813 86.0312L45.1563 86.0312L45.1563 84.0312ZM4.32813 90.2187L45.1563 90.2187L45.1563 88.2187L4.32813 88.2187L4.32813 90.2187ZM58.7656 93.4531L4.32812 93.4531L4.32812 95.4531L58.7656 95.4531L58.7656 93.4531ZM4.32813 99.6406L58.7656 99.6406L58.7656 97.6406L4.32813 97.6406L4.32813 99.6406ZM1.23438 96.5469C1.23438 98.2555 2.61949 99.6406 4.32813 99.6406L4.32813 97.6406C3.72406 97.6406 3.23438 97.1509 3.23438 96.5469L1.23438 96.5469ZM4.32812 93.4531C2.61949 93.4531 1.23438 94.8382 1.23438 96.5469L3.23438 96.5469C3.23438 95.9428 3.72406 95.4531 4.32812 95.4531L4.32812 93.4531ZM45.1563 90.2187C46.8649 90.2187 48.25 88.8336 48.25 87.125L46.25 87.125C46.25 87.7291 45.7603 88.2187 45.1563 88.2187L45.1563 90.2187ZM1.23438 87.125C1.23438 88.8336 2.61949 90.2187 4.32813 90.2187L4.32813 88.2187C3.72406 88.2187 3.23438 87.7291 3.23438 87.125L1.23438 87.125ZM4.32813 84.0312C2.6195 84.0312 1.23438 85.4164 1.23438 87.125L3.23438 87.125C3.23438 86.5209 3.72406 86.0312 4.32813 86.0312L4.32813 84.0312ZM45.1563 86.0312C45.7603 86.0312 46.25 86.5209 46.25 87.125L48.25 87.125C48.25 85.4164 46.8649 84.0312 45.1563 84.0312L45.1563 86.0312ZM2.23438 -2.95313L73.4219 -2.95313L73.4219 -4.95313L2.23437 -4.95313L2.23438 -2.95313ZM-0.953125 71.4219L-0.953125 0.234373L-2.95312 0.234373L-2.95312 71.4219L-0.953125 71.4219ZM2.23437 74.6094C0.473967 74.6094 -0.953125 73.1823 -0.953125 71.4219L-2.95312 71.4219C-2.95312 74.2868 -0.630604 76.6094 2.23437 76.6094L2.23437 74.6094ZM73.4219 -2.95313C75.1823 -2.95313 76.6094 -1.52603 76.6094 0.234375L78.6094 0.234375C78.6094 -2.6306 76.2868 -4.95313 73.4219 -4.95313L73.4219 -2.95313ZM2.23437 -4.95313C-0.630601 -4.95313 -2.95312 -2.6306 -2.95312 0.234373L-0.953125 0.234373C-0.953125 -1.52603 0.473967 -2.95313 2.23438 -2.95313L2.23437 -4.95313ZM58.7656 74.6094L2.23437 74.6094L2.23437 76.6094L58.7656 76.6094L58.7656 74.6094ZM76.6094 0.234375L76.6094 30.5936L78.6094 30.5936L78.6094 0.234375L76.6094 0.234375ZM62.9531 183.391L167.641 183.391L167.641 181.391L62.9531 181.391L62.9531 183.391ZM172.828 178.203L172.828 33.7344L170.828 33.7344L170.828 178.203L172.828 178.203ZM74.2983 48.1422L58.7656 48.1422L58.7656 50.1422L74.2983 50.1422L74.2983 48.1422ZM57.7656 49.1422L57.7656 178.203L59.7656 178.203L59.7656 49.1422L57.7656 49.1422ZM167.641 28.5469L78.4858 28.5469L78.4858 30.5469L167.641 30.5469L167.641 28.5469ZM77.4858 29.5469L77.4858 44.9547L79.4858 44.9547L79.4858 29.5469L77.4858 29.5469ZM59.4705 49.8516L79.1907 30.2562L77.781 28.8375L58.0608 48.4329L59.4705 49.8516ZM167.641 183.391C170.506 183.391 172.828 181.068 172.828 178.203L170.828 178.203C170.828 179.964 169.401 181.391 167.641 181.391L167.641 183.391ZM62.9531 181.391C61.1927 181.391 59.7656 179.964 59.7656 178.203L57.7656 178.203C57.7656 181.068 60.0881 183.391 62.9531 183.391L62.9531 181.391ZM74.2983 50.1422C77.1633 50.1422 79.4858 47.8197 79.4858 44.9547L77.4858 44.9547C77.4858 46.7151 76.0587 48.1422 74.2983 48.1422L74.2983 50.1422ZM172.828 33.7344C172.828 30.8694 170.506 28.5469 167.641 28.5469L167.641 30.5469C169.401 30.5469 170.828 31.974 170.828 33.7344L172.828 33.7344ZM136.281 137.375L136.281 164.594L138.281 164.594L138.281 137.375L136.281 137.375ZM129.906 164.594L129.906 137.375L127.906 137.375L127.906 164.594L129.906 164.594ZM133.094 167.781C131.333 167.781 129.906 166.354 129.906 164.594L127.906 164.594C127.906 167.459 130.229 169.781 133.094 169.781L133.094 167.781ZM136.281 164.594C136.281 166.354 134.854 167.781 133.094 167.781L133.094 169.781C135.959 169.781 138.281 167.459 138.281 164.594L136.281 164.594ZM133.094 134.187C134.854 134.187 136.281 135.615 136.281 137.375L138.281 137.375C138.281 134.51 135.959 132.187 133.094 132.187L133.094 134.187ZM133.094 132.187C130.229 132.187 127.906 134.51 127.906 137.375L129.906 137.375C129.906 135.615 131.333 134.187 133.094 134.187L133.094 132.187ZM138.196 57.7327L136.53 63.3958L138.449 63.9602L140.115 58.297L138.196 57.7327ZM144.026 75.8556C144.026 71.9591 142.202 68.4879 139.365 66.251L138.126 67.8216C140.503 69.6955 142.026 72.5975 142.026 75.8556L144.026 75.8556ZM131.802 88.08C138.553 88.08 144.026 82.6069 144.026 75.8556L142.026 75.8556C142.026 81.5024 137.448 86.08 131.802 86.08L131.802 88.08ZM120.453 80.4064C122.257 84.9023 126.657 88.08 131.802 88.08L131.802 86.08C127.502 86.08 123.819 83.4251 122.309 79.6615L120.453 80.4064ZM118.51 76.8764L112.611 76.8764L112.611 78.8764L118.51 78.8764L118.51 76.8764ZM131.802 97.0849C121.697 97.0849 113.239 90.0242 111.097 80.5665L109.146 81.0084C111.49 91.3574 120.742 99.0849 131.802 99.0849L131.802 97.0849ZM153.031 75.8556C153.031 87.5802 143.526 97.0849 131.802 97.0849L131.802 99.0849C144.631 99.0849 155.031 88.6848 155.031 75.8556L153.031 75.8556ZM142.164 57.3225C148.651 60.9575 153.031 67.8956 153.031 75.8556L155.031 75.8556C155.031 67.143 150.234 59.5522 143.142 55.5778L142.164 57.3225ZM122.309 79.6615C121.717 78.1859 120.329 76.8764 118.51 76.8764L118.51 78.8764C119.295 78.8764 120.075 79.4649 120.453 80.4064L122.309 79.6615ZM136.53 63.3958C136.018 65.1381 136.878 66.8374 138.126 67.8216L139.365 66.251C138.571 65.6251 138.228 64.7127 138.449 63.9602L136.53 63.3958ZM112.611 76.8764C110.485 76.8764 108.634 78.7459 109.146 81.0084L111.097 80.5665C110.91 79.7401 111.571 78.8764 112.611 78.8764L112.611 76.8764ZM140.115 58.297C140.409 57.2976 141.425 56.9082 142.164 57.3225L143.142 55.5778C141.116 54.4423 138.797 55.6906 138.196 57.7327L140.115 58.297ZM100.641 65.1875L77.6094 65.1875L77.6094 67.1875L100.641 67.1875L100.641 65.1875ZM100.641 74.6094L66.0938 74.6094L66.0938 76.6094L100.641 76.6094L100.641 74.6094ZM100.641 84.0312L85.9844 84.0312L85.9844 86.0312L100.641 86.0312L100.641 84.0312Z" fill="#32BCFF"/>
</g>
<defs>
<clipPath id="clip0">
<path d="M0 0H264V214H0V0Z" fill="white"/>
</clipPath>
</defs>
</svg>
