<svg width="81" height="81" viewBox="0 0 81 81" fill="none" xmlns="http://www.w3.org/2000/svg">
<path d="M16.9259 32.2895L10.9554 23.2039C8.20018 19.0112 9.85618 13.3489 14.4366 11.3021C24.4114 6.84474 36.1908 1.57669 37.3238 1.05376C38.3716 0.570141 50.7282 3.43275 62.2391 6.28661C68.2834 7.78515 70.3853 15.2551 66.0582 19.7335L59.5868 26.4312C56.9522 29.1579 52.7839 29.7042 49.5356 27.7486L46.2764 25.7864C43.1241 23.8886 39.0907 24.3417 36.4381 26.8915L29.3681 33.6875C25.6967 37.2166 19.7227 36.5454 16.9259 32.2895Z" fill="#EAF5FF"/>
<path d="M52.3906 16.8848L46.4219 79.5562H64.328L58.3593 16.8848H52.3906Z" fill="#32BCFF"/>
<path fill-rule="evenodd" clip-rule="evenodd" d="M59.3625 28.4375H51.3872L50.7539 35.0801H59.9958L59.3625 28.4375Z" fill="#00CECB"/>
<path d="M0.5 66.9093V77.1144C0.5 78.4629 1.59319 79.5561 2.94171 79.5561H78.0583C79.4068 79.5561 80.5 78.4629 80.5 77.1144V55.6395C80.5 53.9763 78.8735 52.7998 77.2939 53.3205L44.7169 64.0588C43.1374 64.5795 41.5108 63.403 41.5108 61.7399V55.5877C41.5108 53.9396 39.9116 52.7648 38.339 53.2577L2.21154 64.5793C1.19313 64.8984 0.5 65.842 0.5 66.9093Z" fill="#FF5C52"/>
<path d="M19.9474 27.5713H24.9534L26.1022 39.5003L26.6463 45.1509L29.9595 79.5569H14.9414L18.2546 45.1509L18.7987 39.5003L19.9474 27.5713Z" fill="#FFD02C"/>
<path d="M25.9496 39.4121H18.6603L18.1172 45.1883H26.4926L25.9496 39.4121Z" fill="#32BCFF"/>
</svg>
