<svg width="81" height="81" viewBox="0 0 81 81" fill="none" xmlns="http://www.w3.org/2000/svg">
<path d="M0.556445 23.7173C0.0918275 20.2559 2.54727 17.0829 6.01453 16.6642L73.4793 8.51751C77.8941 7.9844 81.4434 12.0924 80.2751 16.3831L66.0473 68.6333C65.1996 71.7465 62.1261 73.7066 58.9459 73.1624L10.5164 64.875C7.8156 64.4129 5.72851 62.2491 5.36398 59.5334L0.556445 23.7173Z" fill="#EAF5FF"/>
<path d="M22.7598 63.2744C17.1801 63.2744 11.25 65.1206 11.25 68.5418C11.25 71.9631 17.1802 73.8094 22.7598 73.8094C28.3394 73.8094 34.2697 71.9631 34.2697 68.5418C34.2697 65.1206 28.3394 63.2744 22.7598 63.2744Z" fill="#FFD02C"/>
<path d="M22.7586 27.3633C13.7807 27.3633 6.47656 34.6674 6.47656 43.6453C6.47656 49.2195 9.12818 55.2128 14.3579 61.4587C18.2082 66.0572 22.0029 69.0123 22.1626 69.1359C22.338 69.2717 22.5484 69.3396 22.7586 69.3396C22.9689 69.3396 23.1791 69.2717 23.3546 69.1359C23.5143 69.0123 27.3092 66.0572 31.1594 61.4587C36.3891 55.2128 39.0407 49.2194 39.0407 43.6453C39.0407 34.6674 31.7365 27.3633 22.7586 27.3633ZM28.8643 43.6453C28.8643 47.0173 26.1307 49.7509 22.7586 49.7509C19.3866 49.7509 16.6531 47.0173 16.6531 43.6453C16.6531 40.2734 19.3866 37.5396 22.7586 37.5396C26.1307 37.5396 28.8643 40.2734 28.8643 43.6453Z" fill="#FF5C52"/>
<path d="M66.1769 36.0414C64.5336 35.3718 62.3694 35.0029 60.0834 35.0029C57.7976 35.0029 55.6334 35.3718 53.9899 36.0414C52.0694 36.8241 51.0117 37.9731 51.0117 39.2767C51.0117 40.5803 52.0693 41.7295 53.9899 42.512C55.6332 43.1816 57.7973 43.5505 60.0834 43.5505C62.3694 43.5505 64.5335 43.1816 66.1769 42.512C68.0973 41.7295 69.1549 40.5803 69.1549 39.2767C69.1549 37.9731 68.0973 36.8242 66.1769 36.0414Z" fill="#32BCFF"/>
<path d="M60.083 7.40234C53.0585 7.40234 47.3438 13.1172 47.3438 20.1416C47.3438 24.4801 49.3995 29.135 53.4537 33.9772C56.4284 37.53 59.3637 39.8157 59.4872 39.9113C59.6627 40.0471 59.8729 40.115 60.0831 40.115C60.2934 40.115 60.5035 40.0471 60.6791 39.9113C60.8026 39.8157 63.738 37.53 66.7126 33.9772C70.7668 29.1351 72.8224 24.4802 72.8224 20.1416C72.8222 13.1172 67.1074 7.40234 60.083 7.40234ZM64.7757 20.1416C64.7757 22.7333 62.6747 24.8343 60.083 24.8343C57.4913 24.8343 55.3903 22.7333 55.3903 20.1416C55.3903 17.5499 57.4913 15.449 60.083 15.449C62.6747 15.449 64.7757 17.5499 64.7757 20.1416Z" fill="#00CECB"/>
<path d="M37.8604 69.5162C37.3247 69.5162 36.8892 69.0832 36.8867 68.5468C36.8843 68.0089 37.3182 67.5709 37.8561 67.5686L39.1422 67.5627C39.1438 67.5627 39.1452 67.5627 39.1468 67.5627C39.6824 67.5627 40.1181 67.9957 40.1204 68.5321C40.1229 69.07 39.6889 69.508 39.1511 69.5103L37.8649 69.5162C37.8634 69.5162 37.8618 69.5162 37.8604 69.5162ZM43.005 69.4928C42.4693 69.4928 42.0338 69.0599 42.0313 68.5234C42.0289 67.9856 42.4628 67.5476 43.0007 67.5452L44.2868 67.5394C44.2884 67.5394 44.2898 67.5394 44.2914 67.5394C44.827 67.5394 45.2626 67.9723 45.265 68.5088C45.2675 69.0466 44.8335 69.4846 44.2957 69.487L43.0095 69.4928C43.008 69.4928 43.0064 69.4928 43.005 69.4928ZM48.1497 69.4693C47.6141 69.4693 47.1785 69.0364 47.1761 68.4999C47.1736 67.9622 47.6076 67.5241 48.1455 67.5217L49.4314 67.5159C49.433 67.5159 49.4344 67.5159 49.436 67.5159C49.9716 67.5159 50.4072 67.9488 50.4096 68.4853C50.412 69.0232 49.9781 69.4612 49.4403 69.4635L48.1543 69.4693C48.1527 69.4693 48.1512 69.4693 48.1497 69.4693ZM53.2945 69.446C52.7588 69.446 52.3233 69.013 52.3208 68.4766C52.3183 67.9389 52.7523 67.5007 53.2902 67.4984L54.5763 67.4926C54.5779 67.4926 54.5793 67.4926 54.5808 67.4926C55.1165 67.4926 55.552 67.9255 55.5545 68.4619C55.5568 68.9997 55.123 69.4378 54.5851 69.4402L53.299 69.446C53.2975 69.446 53.2959 69.446 53.2945 69.446ZM58.4391 69.4228C57.9034 69.4228 57.4679 68.9898 57.4654 68.4534C57.4629 67.9155 57.8969 67.4775 58.4348 67.4752L59.7209 67.4693C59.7225 67.4693 59.7239 67.4693 59.7254 67.4693C60.2611 67.4693 60.6966 67.9023 60.6991 68.4387C60.7016 68.9766 60.2676 69.4146 59.7297 69.4169L58.4436 69.4228C58.4421 69.4228 58.4406 69.4228 58.4391 69.4228ZM63.5838 69.3994C63.0483 69.3994 62.6127 68.9666 62.6101 68.4303C62.6074 67.8926 63.0413 67.4544 63.5793 67.4518L63.7615 67.4509C64.0873 67.4495 64.4138 67.4264 64.7327 67.3823C65.2645 67.3081 65.7568 67.6809 65.8306 68.2137C65.9042 68.7464 65.532 69.2379 64.9992 69.3116C64.5952 69.3674 64.1817 69.3967 63.7704 69.3985L63.5886 69.3994C63.587 69.3994 63.5854 69.3994 63.5838 69.3994ZM68.4283 67.9324C68.1197 67.9324 67.8162 67.7861 67.6271 67.5133C67.3209 67.0713 67.4306 66.4647 67.8726 66.1581C68.1829 65.9431 68.4785 65.702 68.7518 65.4417C69.1409 65.0706 69.7573 65.0856 70.1285 65.4749C70.4995 65.8642 70.4847 66.4806 70.0953 66.8517C69.7494 67.1814 69.375 67.4865 68.9825 67.7586C68.813 67.8761 68.6197 67.9324 68.4283 67.9324ZM71.5079 63.9168C71.3993 63.9168 71.2888 63.8985 71.1808 63.86C70.6742 63.6793 70.4101 63.1223 70.5905 62.6158C70.7171 62.2611 70.8165 61.8934 70.8862 61.5227C70.9859 60.9941 71.4956 60.6465 72.0233 60.746C72.5517 60.8455 72.8996 61.3547 72.8 61.8831C72.7114 62.3533 72.5853 62.8199 72.4248 63.2699C72.283 63.6683 71.9079 63.9168 71.5079 63.9168ZM71.6655 58.8585C71.2423 58.8585 70.8525 58.5803 70.7301 58.153C70.6262 57.7912 70.4926 57.4342 70.3331 57.0925C70.1057 56.605 70.3165 56.0255 70.8038 55.7982C71.2917 55.5709 71.8707 55.7816 72.098 56.2689C72.3006 56.7028 72.47 57.1559 72.6021 57.6157C72.7503 58.1325 72.4517 58.672 71.9348 58.8203C71.8449 58.8461 71.7545 58.8585 71.6655 58.8585ZM68.8412 54.6576C68.6298 54.6576 68.4173 54.5892 68.2384 54.4481C67.9423 54.2141 67.6254 54.0019 67.2973 53.817C66.8287 53.5532 66.6628 52.9591 66.9267 52.4907C67.1907 52.022 67.7848 51.856 68.253 52.1201C68.6689 52.3543 69.07 52.6232 69.4453 52.9193C69.8673 53.2525 69.9394 53.865 69.6061 54.287C69.414 54.5306 69.1291 54.6576 68.8412 54.6576ZM64.1009 52.8926C64.0864 52.8926 64.0717 52.8923 64.0571 52.8916C63.9483 52.8868 63.8387 52.8843 63.7287 52.8843H62.8142C62.2763 52.8843 61.8404 52.4485 61.8404 51.9105C61.8404 51.3728 62.2762 50.9367 62.8142 50.9367H63.7287C63.866 50.9367 64.0055 50.9397 64.1432 50.9459C64.6804 50.9696 65.0968 51.4245 65.0728 51.9617C65.0499 52.4846 64.6188 52.8926 64.1009 52.8926ZM58.9557 52.8844H57.6695C57.1317 52.8844 56.6958 52.4486 56.6958 51.9106C56.6958 51.3729 57.1317 50.9368 57.6695 50.9368H58.9557C59.4935 50.9368 59.9295 51.3729 59.9295 51.9106C59.9295 52.4485 59.4935 52.8844 58.9557 52.8844ZM53.8109 52.8844H52.5248C51.9869 52.8844 51.551 52.4486 51.551 51.9106C51.551 51.3729 51.9869 50.9368 52.5248 50.9368H53.8109C54.3488 50.9368 54.7847 51.3729 54.7847 51.9106C54.7847 52.4485 54.3488 52.8844 53.8109 52.8844ZM48.6661 52.8844H47.38C46.8421 52.8844 46.4062 52.4486 46.4062 51.9106C46.4062 51.3729 46.8421 50.9368 47.38 50.9368H48.6661C49.2039 50.9368 49.6399 51.3729 49.6399 51.9106C49.6399 52.4485 49.2041 52.8844 48.6661 52.8844ZM43.7051 51.9158C43.5276 51.9158 43.3478 51.8673 43.1866 51.7656C42.7691 51.5023 42.3769 51.1948 42.0204 50.8523C41.6329 50.4795 41.6208 49.863 41.9937 49.4755C42.3662 49.0882 42.9828 49.0759 43.3705 49.4488C43.6318 49.7 43.9195 49.9255 44.2256 50.1184C44.6806 50.4053 44.8168 51.0067 44.5298 51.4616C44.3444 51.755 44.0282 51.9158 43.7051 51.9158ZM40.8749 47.7905C40.4181 47.7905 40.0107 47.4678 39.9201 47.003C39.8308 46.5449 39.7856 46.0743 39.7856 45.604L39.7859 45.5272C39.7922 44.9934 40.2269 44.5647 40.7595 44.5647C40.7634 44.5647 40.7673 44.5647 40.771 44.5649C41.3089 44.5711 41.7398 45.0121 41.7334 45.5498L41.7331 45.6039C41.7331 45.9494 41.7664 46.2948 41.8317 46.6304C41.9346 47.1582 41.5901 47.6695 41.0622 47.7724C40.9993 47.7847 40.9365 47.7905 40.8749 47.7905ZM41.9391 42.9033C41.7422 42.9033 41.5438 42.8439 41.3718 42.7204C40.935 42.4066 40.8352 41.7982 41.1488 41.3614C41.437 40.9601 41.7673 40.5869 42.1303 40.2522C42.5259 39.8876 43.1417 39.9126 43.5063 40.3077C43.871 40.703 43.8461 41.3191 43.4508 41.6837C43.1845 41.9293 42.9422 42.2031 42.7308 42.4975C42.5405 42.7623 42.2421 42.9033 41.9391 42.9033ZM46.226 40.3263C45.7453 40.3263 45.3272 39.9704 45.2619 39.4808C45.191 38.9478 45.5657 38.458 46.0988 38.3871C46.4171 38.3448 46.7423 38.3232 47.0661 38.3232H47.5107C48.0486 38.3232 48.4845 38.7592 48.4845 39.297C48.4845 39.8349 48.0486 40.2708 47.5107 40.2708H47.0661C46.8279 40.2708 46.5889 40.2865 46.3556 40.3175C46.312 40.3236 46.2688 40.3263 46.226 40.3263Z" fill="#32BCFF"/>
</svg>
