<svg width="81" height="81" viewBox="0 0 81 81" fill="none" xmlns="http://www.w3.org/2000/svg">
<path d="M2.03358 42.9891C2.37287 40.124 4.616 37.8561 7.4772 37.4853L69.3898 29.462C72.7827 29.0224 75.9059 31.3724 76.4231 34.7544L80.426 60.9271C81.0411 64.9488 77.7376 68.4894 73.6829 68.1541L6.27827 62.5802C2.72565 62.2865 0.125153 59.1047 0.544365 55.5647L2.03358 42.9891Z" fill="#EAF5FF"/>
<rect x="33.6211" y="13.4023" width="33.0566" height="34.316" rx="7.30977" fill="#32BCFF"/>
<rect x="33.6211" y="49.6064" width="33.0566" height="6.61133" rx="3.30567" fill="#00CECB"/>
<ellipse cx="50.3052" cy="56.2182" rx="5.35203" ry="5.35203" fill="#FFD02C"/>
<path d="M14.0942 27.9875C14.7907 25.7474 16.52 23.9777 18.7434 23.2297L26.6753 20.561C29.3144 19.6731 32.0463 21.6363 32.0463 24.4208V49.9526C32.0463 53.4129 29.2412 56.2181 25.7808 56.2181H15.6444C12.1841 56.2181 9.37891 53.4129 9.37891 49.9526V44.263C9.37891 43.5271 9.49003 42.7955 9.70852 42.0927L14.0942 27.9875Z" fill="#FF5C52"/>
<path d="M13.9515 37.6658L15.2323 33.2064C15.6823 31.6398 17.1153 30.5605 18.7452 30.5605H19.6148C21.7957 30.5605 23.4913 32.4583 23.2466 34.6255L22.8341 38.2788C22.691 39.5464 21.8973 40.6477 20.74 41.1844L19.002 41.9905C16.161 43.3081 13.0869 40.6758 13.9515 37.6658Z" fill="#32BCFF"/>
<ellipse cx="23.2309" cy="56.2182" rx="5.35203" ry="5.35203" fill="#FFD02C"/>
</svg>
