<svg width="81" height="82" viewBox="0 0 81 82" fill="none" xmlns="http://www.w3.org/2000/svg">
<path d="M1.47888 49.5716C8.15365 38.5306 21.3195 16.9618 30.4853 3.29097C32.776 -0.125658 37.5538 -0.568618 40.5329 2.2679L78.3941 38.3172C80.4117 40.2383 81.0495 43.1976 80.0023 45.7791L67.2364 77.2509C65.7227 80.9827 61.3143 82.6021 57.6685 80.8915C42.1462 73.6088 17.3775 64.1147 4.92723 59.4432C0.943647 57.9485 -0.722334 53.2127 1.47888 49.5716Z" fill="#EAF5FF"/>
<path fill-rule="evenodd" clip-rule="evenodd" d="M63.6099 55.4027C68.6377 51.0734 69.204 43.488 64.8747 38.4602L55.4961 27.5684L37.2888 43.2461L46.6675 54.1379C50.9967 59.1657 58.5821 59.732 63.6099 55.4027Z" fill="#FFD02C"/>
<rect x="21.7188" y="35.4775" width="52.7735" height="24.027" rx="12.0135" transform="rotate(15 21.7188 35.4775)" fill="#32BCFF"/>
<path fill-rule="evenodd" clip-rule="evenodd" d="M69.5853 60.7402C71.3026 54.3314 67.4993 47.7439 61.0905 46.0267L47.207 42.3066L40.9884 65.5149L54.8719 69.235C61.2807 70.9522 67.8681 67.149 69.5853 60.7402Z" fill="#FF5C52"/>
<path fill-rule="evenodd" clip-rule="evenodd" d="M55.4948 27.5677L46.1162 16.6759C41.7869 11.6481 34.2015 11.0818 29.1737 15.4111C24.1459 19.7404 23.5797 27.3258 27.9089 32.3536L37.2876 43.2454L55.4948 27.5677Z" fill="#00CECB"/>
<g style="mix-blend-mode:color">
<path fill-rule="evenodd" clip-rule="evenodd" d="M63.6099 55.4027C68.6377 51.0734 69.204 43.488 64.8747 38.4602L55.4961 27.5684L37.2888 43.2461L46.6675 54.1379C50.9967 59.1657 58.5821 59.732 63.6099 55.4027Z" fill="#FFD02C"/>
</g>
</svg>
