<svg width="81" height="86" viewBox="0 0 81 86" fill="none" xmlns="http://www.w3.org/2000/svg">
<rect x="9.08594" y="12.9756" width="63.2195" height="63.2195" rx="10.4425" fill="#EAF5FF"/>
<circle cx="60.4022" cy="45.9511" r="20.0976" fill="#FFD02C"/>
<path fill-rule="evenodd" clip-rule="evenodd" d="M32.1591 22.4191L17.4609 7.72093L24.9035 0.27832L39.6018 14.9765L54.3 0.27832L61.7426 7.72093L47.0444 22.4191L61.7426 37.1174L54.3 44.56L39.6018 29.8617L24.9035 44.56L17.4609 37.1174L32.1591 22.4191Z" fill="#00CECB"/>
<g style="mix-blend-mode:color">
<circle cx="60.4022" cy="45.9511" r="20.0976" fill="#FFD02C"/>
</g>
<rect x="0.5" y="27.0244" width="37.8537" height="37.8537" rx="12.3193" fill="#32BCFF"/>
<path d="M59.8929 62.2128C60.64 62.6441 60.64 63.7224 59.8929 64.1537L22.8645 85.5321C22.1174 85.9634 21.1836 85.4243 21.1836 84.5616L21.1836 41.8049C21.1836 40.9423 22.1174 40.4031 22.8645 40.8344L59.8929 62.2128Z" fill="#FF5C52"/>
<g style="mix-blend-mode:soft-light">
<rect x="0.5" y="27.0244" width="37.8537" height="37.8537" rx="12.3193" fill="#32BCFF"/>
</g>
</svg>
