<svg width="84" height="81" viewBox="0 0 84 81" fill="none" xmlns="http://www.w3.org/2000/svg">
<path d="M8.76422 65.0967L3.54671 14.7223C3.06295 10.0516 6.52426 5.90059 11.2058 5.537L72.1946 0.800454C77.4976 0.388614 81.8293 4.9705 81.1225 10.2422C77.7163 35.6471 72.8436 72.7298 73.0706 74.1021C73.3044 75.5156 38.9691 73.859 16.5501 72.5575C12.4736 72.3209 9.18491 69.1583 8.76422 65.0967Z" fill="#EAF5FF"/>
<rect x="2.5" y="67.9023" width="78.374" height="12.0983" fill="#FF5C52"/>
<path d="M41.687 9.52832L80.874 28.5831H2.5L41.687 9.52832Z" fill="#32BCFF"/>
<rect x="12.9062" y="23.1377" width="10.7317" height="51.1153" fill="#FFD02C"/>
<rect x="28.5156" y="23.1377" width="10.7317" height="51.1153" fill="#FFD02C"/>
<rect x="44.1289" y="23.1377" width="10.7317" height="51.1153" fill="#FFD02C"/>
<rect x="59.7383" y="23.1377" width="10.7317" height="51.1153" fill="#FFD02C"/>
<g style="mix-blend-mode:color">
<path d="M41.687 9.52832L80.874 28.5831H2.5L41.687 9.52832Z" fill="#32BCFF"/>
</g>
<path fill-rule="evenodd" clip-rule="evenodd" d="M41.6882 4.5791L83.0599 24.6963L78.6904 32.4693L41.6882 14.4768L4.68593 32.4693L0.316406 24.6963L41.6882 4.5791Z" fill="#00CECB"/>
<g style="mix-blend-mode:color">
<rect x="2.5" y="67.9023" width="78.374" height="12.0983" fill="#FF5C52"/>
</g>
</svg>
