<svg width="81" height="81" viewBox="0 0 81 81" fill="none" xmlns="http://www.w3.org/2000/svg">
<path d="M12.2036 68.6159C4.70991 61.1222 0.500002 50.9586 0.5 40.3609C0.499998 29.7633 4.7099 19.5996 12.2036 12.1059C19.6973 4.61226 29.8609 0.402349 40.4586 0.402344C51.0562 0.402339 61.2198 4.61224 68.7135 12.1059L59.8702 20.9492C54.7219 15.801 47.7393 12.9087 40.4586 12.9087C33.1778 12.9087 26.1952 15.801 21.0469 20.9493C15.8986 26.0976 13.0063 33.0801 13.0063 40.3609C13.0063 47.6417 15.8986 54.6243 21.0469 59.7726L12.2036 68.6159Z" fill="#FFD02C"/>
<path d="M68.7951 12.1055C76.2888 19.5992 80.4987 29.7628 80.4987 40.3604C80.4987 50.9581 76.2888 61.1217 68.7951 68.6154C61.3014 76.1091 51.1378 80.319 40.5401 80.319C29.9425 80.319 19.7788 76.1091 12.2852 68.6154L21.1285 59.7721C26.2768 64.9204 33.2593 67.8127 40.5401 67.8127C47.8209 67.8127 54.8035 64.9204 59.9518 59.7721C65.1001 54.6238 67.9924 47.6412 67.9924 40.3604C67.9924 33.0797 65.1001 26.0971 59.9518 20.9488L68.7951 12.1055Z" fill="#FF5C52"/>
<path d="M7.42578 55.2676L30.743 60.2417L12.3999 78.5848L7.42578 55.2676Z" fill="#FF5C52"/>
<path d="M73.575 25.4539L50.2578 20.4797L68.6008 2.13672L73.575 25.4539Z" fill="#FFD02C"/>
<path fill-rule="evenodd" clip-rule="evenodd" d="M26.2667 49.0672C21.3063 40.4756 24.25 29.4896 32.8416 24.5292L38.8737 21.0466L42.9062 28.0311L36.8741 31.5137C33.3837 33.5289 31.585 37.349 31.9762 41.1144L42.0292 35.3103L46.0617 42.2949L36.0088 48.0989C39.0741 50.3205 43.2817 50.6728 46.7721 48.6576L52.8042 45.175L56.8367 52.1595L50.8046 55.6421C42.213 60.6025 31.227 57.6588 26.2667 49.0672Z" fill="#00CECB"/>
</svg>
