<svg width="81" height="81" viewBox="0 0 81 81" fill="none" xmlns="http://www.w3.org/2000/svg">
<path d="M0.5 11.3154L40.5 22.5832V75.8768L0.5 64.609V11.3154Z" fill="#FF5C52"/>
<path d="M7.16797 5L40.5013 16.4515V70.614L7.16797 59.1625V5Z" fill="#EAF5FF"/>
<path d="M80.5 11.3154L40.5 22.5832V75.8768L80.5 64.609V11.3154Z" fill="#32BCFF"/>
<path d="M73.4844 5L40.5019 16.4515V70.614L73.4844 59.1625V5Z" fill="#FFD02C"/>
<path d="M12.7812 15.5102C12.7812 14.1403 14.1273 13.1759 15.4244 13.6164L28.2665 17.9779C29.0777 18.2534 29.6234 19.015 29.6234 19.8717V34.2438C29.6234 35.6136 28.2773 36.578 26.9802 36.1375L14.1381 31.7761C13.3269 31.5005 12.7812 30.739 12.7812 29.8823V15.5102Z" fill="#32BCFF"/>
<path d="M69.7403 44.9421C70.054 45.1237 70.054 45.5778 69.7403 45.7594L54.1903 59.3219C53.8765 59.5035 53.4844 59.2765 53.4844 58.9133L53.4844 40.911C53.4844 40.5478 53.8765 40.3208 54.1903 40.5024L69.7403 44.9421Z" fill="#FF5C52"/>
</svg>
