<svg width="32" height="32" viewBox="0 0 32 32" fill="#1E9BAA" xmlns="http://www.w3.org/2000/svg">
<path d="M24.1581 10.7019H26.0956V6.82692C26.0971 6.56941 25.996 6.3219 25.8146 6.13911L20.0021 0.326607C19.8194 0.145269 19.5718 0.0442166 19.3143 0.0456698H3.81433C2.20923 0.0456698 0.908081 1.34688 0.908081 2.95192V28.1394C0.908081 29.7445 2.20923 31.0457 3.81433 31.0457H10.5956V29.1082H3.81433C3.27928 29.1082 2.84558 28.6745 2.84558 28.1394V2.95192C2.84558 2.41687 3.27928 1.98317 3.81433 1.98317H18.3456V5.85817C18.3456 6.92822 19.213 7.79567 20.2831 7.79567H24.1581V10.7019Z"/>
<path d="M27.0643 21.3584C27.0643 22.4046 25.5918 23.2959 25.1268 23.2959C24.6618 23.2959 23.1893 22.4046 23.1893 21.3584V15.5459H21.2518V21.3584C21.2518 23.4993 23.5962 25.2334 25.1268 25.2334C26.6575 25.2334 29.0018 23.4993 29.0018 21.3584V15.5459H27.0643V21.3584Z"/>
<path d="M18.3456 15.5459H14.4706C13.4005 15.5459 12.5331 16.4134 12.5331 17.4834V25.2334H14.4706V22.3271H18.3456V25.2334H20.2831V17.4834C20.2831 16.4134 19.4156 15.5459 18.3456 15.5459ZM18.3456 20.3896H14.4706V17.4834H18.3456V20.3896Z"/>
<path d="M31.9081 15.5459H29.9706V25.2334H31.9081V15.5459Z"/>
</svg>
