<svg width="32" height="31" viewBox="0 0 32 31" xmlns="http://www.w3.org/2000/svg">
<path d="M2.3916 28.0935V2.90602C2.3916 2.37097 2.8253 1.93727 3.36035 1.93727H17.8916V5.81227C17.8916 6.88232 18.7591 7.74977 19.8291 7.74977H23.7041V10.656H25.6416V6.78102C25.6431 6.52352 25.542 6.276 25.3607 6.09321L19.5482 0.280709C19.3654 0.0993709 19.1179 -0.00168181 18.8604 -0.000228683H3.36035C1.75525 -0.000228683 0.454102 1.30098 0.454102 2.90602V28.0935C0.454102 29.6986 1.75525 30.9998 3.36035 30.9998H10.1416V29.0623H3.36035C2.82536 29.0623 2.3916 28.6286 2.3916 28.0935Z"/>
<path d="M14.0166 15.5H9.17285C8.6378 15.5 8.2041 15.9337 8.2041 16.4687V25.1875H10.1416V21.3125H10.7132L14.3072 24.9066L15.6732 23.5406L13.445 21.3125H14.0166C15.0866 21.3125 15.9541 20.445 15.9541 19.375V17.4375C15.9541 16.3675 15.0866 15.5 14.0166 15.5ZM14.0166 19.375H10.1416V17.4375H14.0166V19.375Z"/>
<path d="M16.9229 17.4375H19.8291V25.1875H21.7666V17.4375H24.6729V15.5H16.9229V17.4375Z"/>
<path d="M31.4541 17.4375V15.5H26.6104C26.0753 15.5 25.6416 15.9337 25.6416 16.4687V25.1875H27.5791V21.3125H31.4541V19.375H27.5791V17.4375H31.4541Z"/>
</svg>
