<svg width="32" height="32" viewBox="0 0 32 32" xmlns="http://www.w3.org/2000/svg">
<path d="M10.0955 17.8452C11.1655 17.8452 12.033 18.7127 12.033 19.7827H13.9705C13.9705 17.6426 12.2356 15.9077 10.0955 15.9077C7.95537 15.9077 6.22046 17.6426 6.22046 19.7827V21.7202C6.22046 23.8603 7.95537 25.5952 10.0955 25.5952C12.2356 25.5952 13.9705 23.8603 13.9705 21.7202H12.033C12.033 22.7903 11.1655 23.6577 10.0955 23.6577C9.02542 23.6577 8.15796 22.7903 8.15796 21.7202V19.7827C8.15796 18.7127 9.02542 17.8452 10.0955 17.8452Z"/>
<path d="M2.34546 28.5012V3.31374C2.34546 2.77868 2.77916 2.34499 3.31421 2.34499H17.8455V6.21999C17.8455 7.29003 18.7129 8.15749 19.783 8.15749H23.658V11.0637H25.5955V7.18874C25.597 6.93123 25.4959 6.68371 25.3145 6.50092L19.502 0.688424C19.3192 0.507086 19.0717 0.406033 18.8142 0.407486H3.31421C1.70911 0.407486 0.407959 1.7087 0.407959 3.31374V28.5012C0.407959 30.1063 1.70911 31.4075 3.31421 31.4075H10.0955V29.47H3.31421C2.77922 29.47 2.34546 29.0363 2.34546 28.5012Z"/>
<path d="M28.5017 19.7827H26.5642C26.0292 19.7827 25.5955 19.349 25.5955 18.814C25.5955 18.2789 26.0292 17.8452 26.5642 17.8452H28.5017C29.0368 17.8452 29.4705 18.2789 29.4705 18.814H31.408C31.408 17.2089 30.1068 15.9077 28.5017 15.9077H26.5642C24.9591 15.9077 23.658 17.2089 23.658 18.814C23.658 20.4191 24.9591 21.7202 26.5642 21.7202H28.5017C29.0368 21.7202 29.4705 22.1539 29.4705 22.689C29.4705 23.224 29.0368 23.6577 28.5017 23.6577H26.5642C26.0292 23.6577 25.5955 23.224 25.5955 22.689H23.658C23.658 24.2941 24.9591 25.5952 26.5642 25.5952H28.5017C30.1068 25.5952 31.408 24.2941 31.408 22.689C31.408 21.0839 30.1068 19.7827 28.5017 19.7827Z"/>
<path d="M17.8455 17.8452H19.783C20.318 17.8452 20.7517 18.2789 20.7517 18.814H22.6892C22.6892 17.2089 21.3881 15.9077 19.783 15.9077H17.8455C16.2404 15.9077 14.9392 17.2089 14.9392 18.814C14.9392 20.4191 16.2404 21.7202 17.8455 21.7202H19.783C20.318 21.7202 20.7517 22.1539 20.7517 22.689C20.7517 23.224 20.318 23.6577 19.783 23.6577H17.8455C17.3104 23.6577 16.8767 23.224 16.8767 22.689H14.9392C14.9392 24.2941 16.2404 25.5952 17.8455 25.5952H19.783C21.3881 25.5952 22.6892 24.2941 22.6892 22.689C22.6892 21.0839 21.3881 19.7827 19.783 19.7827H17.8455C17.3104 19.7827 16.8767 19.349 16.8767 18.814C16.8767 18.2789 17.3105 17.8452 17.8455 17.8452Z"/>
</svg>
