<svg width="32" height="32" viewBox="0 0 32 32" xmlns="http://www.w3.org/2000/svg">
<path d="M2.48364 28.5012V3.31374C2.48364 2.77868 2.91734 2.34499 3.45239 2.34499H17.9836V6.21999C17.9836 7.29003 18.8511 8.15749 19.9211 8.15749H23.7961V11.0637H25.7336V7.18874C25.7352 6.93123 25.634 6.68371 25.4527 6.50092L19.6402 0.688424C19.4574 0.507086 19.2099 0.406033 18.9524 0.407486H3.45239C1.8473 0.407486 0.546143 1.7087 0.546143 3.31374V28.5012C0.546143 30.1063 1.8473 31.4075 3.45239 31.4075H10.2336V29.47H3.45239C2.9174 29.47 2.48364 29.0363 2.48364 28.5012Z"/>
<path d="M13.1399 15.9077H9.26489C8.72984 15.9077 8.29614 16.3414 8.29614 16.8765V25.5952H10.2336V22.689H13.1399C14.2099 22.689 15.0774 21.8215 15.0774 20.7515V17.8452C15.0774 16.7752 14.2099 15.9077 13.1399 15.9077ZM13.1399 20.7515H10.2336V17.8452H13.1399V20.7515Z"/>
<path d="M20.8899 15.9077H17.0149C16.4798 15.9077 16.0461 16.3414 16.0461 16.8765V25.5952H17.9836V22.689H20.8899C21.9599 22.689 22.8274 21.8215 22.8274 20.7515V17.8452C22.8274 16.7752 21.9599 15.9077 20.8899 15.9077ZM20.8899 20.7515H17.9836V17.8452H20.8899V20.7515Z"/>
<path d="M23.7961 15.9077V17.8452H26.7024V25.5952H28.6399V17.8452H31.5461V15.9077H23.7961Z"/>
</svg>
