<svg width="14" height="10" viewBox="0 0 14 10" fill="none" xmlns="http://www.w3.org/2000/svg">
<path d="M0.0119477 9.64216C0.0591979 5.93568 3.41406 2.91711 7.58855 2.78229L7.58855 0.833307C7.58855 0.373802 7.98071 -5.26223e-07 8.46284 -4.84074e-07C8.6797 -4.65115e-07 8.88915 0.0792182 9.05138 0.222968C9.05138 0.222968 12.7381 3.47372 13.7985 4.48742C13.9283 4.61221 14 4.79396 14 4.99984C14 5.20573 13.9283 5.38747 13.7985 5.51253C12.7381 6.52594 9.05138 9.77672 9.05138 9.77672C8.88915 9.92049 8.6797 9.99969 8.46283 9.99969C7.98074 9.99969 7.58855 9.62589 7.58855 9.16638L7.58855 7.22391C3.39185 7.28005 0.594233 8.54169 0.594233 9.72193C0.594233 9.87547 0.463885 9.99969 0.302803 9.99969C0.298237 10.0002 0.293697 9.99995 0.291428 9.99969C0.130345 9.99969 -1.81701e-06 9.87544 -1.80359e-06 9.72193C-1.80117e-06 9.69424 0.00399028 9.66739 0.0119477 9.64216Z" fill="#C8C8C8"/>
</svg>
