<svg width="32" height="32" viewBox="0 0 32 32" fill="#1E9BAA" xmlns="http://www.w3.org/2000/svg">
<path d="M2.52954 28.5012V3.31374C2.52954 2.77868 2.96324 2.34499 3.49829 2.34499H18.0295V6.21999C18.0295 7.29003 18.897 8.15749 19.967 8.15749H23.842V11.0637H25.7795V7.18874C25.7811 6.93123 25.6799 6.68371 25.4986 6.50092L19.6861 0.688424C19.5033 0.507086 19.2558 0.406033 18.9983 0.407486H3.49829C1.89319 0.407486 0.592041 1.7087 0.592041 3.31374V28.5012C0.592041 30.1063 1.89319 31.4075 3.49829 31.4075H10.2795V29.47H3.49829C2.9633 29.47 2.52954 29.0363 2.52954 28.5012Z"/>
<path d="M18.0295 17.8452H19.967C20.5021 17.8452 20.9358 18.2789 20.9358 18.814H22.8733C22.8733 17.2089 21.5721 15.9077 19.967 15.9077H18.0295C16.4244 15.9077 15.1233 17.2089 15.1233 18.814C15.1233 20.4191 16.4244 21.7202 18.0295 21.7202H19.967C20.5021 21.7202 20.9358 22.1539 20.9358 22.689C20.9358 23.224 20.5021 23.6577 19.967 23.6577H18.0295C17.4945 23.6577 17.0608 23.224 17.0608 22.689H15.1233C15.1233 24.2941 16.4244 25.5952 18.0295 25.5952H19.967C21.5721 25.5952 22.8733 24.2941 22.8733 22.689C22.8733 21.0839 21.5721 19.7827 19.967 19.7827H18.0295C17.4945 19.7827 17.0608 19.349 17.0608 18.814C17.0608 18.2789 17.4945 17.8452 18.0295 17.8452Z"/>
<path d="M8.34204 17.8452H10.2795V23.6577H8.34204V25.5952H14.1545V23.6577H12.217V17.8452H14.1545V15.9077H8.34204V17.8452Z"/>
<path d="M27.717 15.9077C25.577 15.9077 23.842 17.6426 23.842 19.7827V21.7202C23.842 23.8603 25.577 25.5952 27.717 25.5952C29.8571 25.5952 31.592 23.8603 31.592 21.7202V19.7827C31.592 17.6426 29.8571 15.9077 27.717 15.9077ZM29.6545 21.7202C29.6545 22.7903 28.7871 23.6577 27.717 23.6577C26.647 23.6577 25.7795 22.7903 25.7795 21.7202V19.7827C25.7795 18.7127 26.647 17.8452 27.717 17.8452C28.7871 17.8452 29.6545 18.7127 29.6545 19.7827V21.7202Z"/>
</svg>
