<svg width="32" height="32" viewBox="0 0 32 32" fill="#1E9BAA" xmlns="http://www.w3.org/2000/svg">
<path d="M25.6875 10.7019V6.82692C25.689 6.56941 25.5879 6.3219 25.4066 6.13911L19.5941 0.326607C19.4113 0.145269 19.1638 0.0442166 18.9063 0.0456698H3.40625C1.80115 0.0456698 0.5 1.34688 0.5 2.95192V28.1394C0.5 29.7445 1.80115 31.0457 3.40625 31.0457H10.1875V29.1082H3.40625C2.8712 29.1082 2.4375 28.6745 2.4375 28.1394V2.95192C2.4375 2.41687 2.8712 1.98317 3.40625 1.98317H17.9375V5.85817C17.9375 6.92822 18.805 7.79567 19.875 7.79567H23.75V10.7019H25.6875Z"/>
<path d="M21.8125 15.5459H17.9375C17.4024 15.5459 16.9688 15.9796 16.9688 16.5146V25.2334H18.9063V22.3271H21.8125C22.8825 22.3271 23.75 21.4597 23.75 20.3896V17.4834C23.75 16.4134 22.8825 15.5459 21.8125 15.5459ZM21.8125 20.3896H18.9063V17.4834H21.8125V20.3896Z"/>
<path d="M15.3994 15.6234C15.0367 15.4742 14.6198 15.5583 14.3435 15.8365L12.125 18.055L9.90658 15.8269C9.5298 15.447 8.91646 15.4444 8.53658 15.8212C8.3518 16.0045 8.2485 16.2544 8.25002 16.5147V25.2334H10.1875V18.8494L11.4372 20.099C11.8151 20.4747 12.4253 20.4747 12.8031 20.099L14.0625 18.8494V25.2334H16V16.5147C15.9981 16.1236 15.7612 15.7721 15.3994 15.6234Z"/>
<path d="M31.5 18.4521C31.5 16.8471 30.1988 15.5459 28.5938 15.5459H24.7188V17.4834H28.5938C29.1288 17.4834 29.5625 17.9171 29.5625 18.4521C29.5625 18.9872 29.1288 19.4209 28.5938 19.4209H24.7188V21.3584H28.5938C29.1288 21.3584 29.5625 21.7921 29.5625 22.3271C29.5625 22.8622 29.1288 23.2959 28.5938 23.2959H24.7188V25.2334H28.5938C30.1988 25.2248 31.493 23.9167 31.4844 22.3116C31.4806 21.6021 31.2174 20.9185 30.7444 20.3896C31.2266 19.8591 31.4958 19.1691 31.5 18.4521Z"/>
</svg>
