<svg width="27" height="31" viewBox="0 0 27 31" xmlns="http://www.w3.org/2000/svg">
<path d="M25.8128 6.09345L20.0003 0.280953C19.8175 0.0996151 19.57 -0.00143767 19.3125 1.54576e-05H3.8125C2.2074 1.54576e-05 0.90625 1.30117 0.90625 2.90627V28.0938C0.90625 29.6989 2.2074 31 3.8125 31H23.1875C24.7926 31 26.0938 29.6989 26.0938 28.0938V6.78127C26.0953 6.52376 25.9942 6.2763 25.8128 6.09345ZM24.1562 28.0938C24.1562 28.6288 23.7226 29.0625 23.1875 29.0625H3.8125C3.27745 29.0625 2.84375 28.6288 2.84375 28.0938V2.90627C2.84375 2.37121 3.27745 1.93752 3.8125 1.93752H18.3438V5.81252C18.3438 6.88256 19.2112 7.75002 20.2812 7.75002H24.1562V28.0938Z"/>
<path d="M4.78125 12.5937V26.1562C4.78125 26.6913 5.21495 27.125 5.75 27.125H21.25C21.7851 27.125 22.2188 26.6913 22.2188 26.1562V12.5937C22.2188 12.0587 21.7851 11.625 21.25 11.625H5.75C5.21495 11.625 4.78125 12.0588 4.78125 12.5937ZM12.5312 13.5625H20.2812V16.4687H12.5312V13.5625ZM12.5312 18.4062H20.2812V20.3437H12.5312V18.4062ZM12.5312 22.2812H20.2812V25.1875H12.5312V22.2812ZM6.71875 13.5625H10.5938V16.4687H6.71875V13.5625ZM6.71875 18.4062H10.5938V20.3437H6.71875V18.4062ZM6.71875 22.2812H10.5938V25.1875H6.71875V22.2812Z"/>
</svg>
