<svg width="32" height="32" viewBox="0 0 32 32" fill="#1E9BAA" xmlns="http://www.w3.org/2000/svg">
<path d="M2.02954 28.1853V2.99782C2.02954 2.46277 2.46324 2.02907 2.99829 2.02907H17.5295V5.90407C17.5295 6.97411 18.397 7.84157 19.467 7.84157H23.342V10.7478H25.2795V6.87282C25.2811 6.61531 25.1799 6.3678 24.9986 6.18501L19.1861 0.372506C19.0033 0.191168 18.7558 0.0901151 18.4983 0.0915682H2.99829C1.39319 0.0915682 0.092041 1.39278 0.092041 2.99782V28.1853C0.092041 29.7904 1.39319 31.0916 2.99829 31.0916H9.77954V29.1541H2.99829C2.4633 29.1541 2.02954 28.7204 2.02954 28.1853Z"/>
<path d="M16.5608 17.5293H19.467V25.2793H21.4045V17.5293H24.3108V15.5918H16.5608V17.5293Z"/>
<path d="M31.092 17.5293V15.5918H26.2483C25.7132 15.5918 25.2795 16.0255 25.2795 16.5605V25.2793H27.217V21.4043H31.092V19.4668H27.217V17.5293H31.092Z"/>
<path d="M11.717 15.5918C9.57695 15.5918 7.84204 17.3267 7.84204 19.4668V21.4043C7.84204 23.5444 9.57695 25.2793 11.717 25.2793C13.8571 25.2793 15.592 23.5444 15.592 21.4043V19.4668C15.592 17.3267 13.8571 15.5918 11.717 15.5918ZM13.6545 21.4043C13.6545 22.4743 12.7871 23.3418 11.717 23.3418C10.647 23.3418 9.77954 22.4743 9.77954 21.4043V19.4668C9.77954 18.3968 10.647 17.5293 11.717 17.5293C12.7871 17.5293 13.6545 18.3968 13.6545 19.4668V21.4043Z"/>
</svg>
