<svg width="32" height="31" viewBox="0 0 32 31" fill="#1E9BAA" xmlns="http://www.w3.org/2000/svg">
<path d="M2.84558 28.0935V2.90602C2.84558 2.37097 3.27928 1.93727 3.81433 1.93727H18.3456V5.81227C18.3456 6.88232 19.213 7.74977 20.2831 7.74977H24.1581V10.656H26.0956V6.78102C26.0971 6.52352 25.996 6.276 25.8146 6.09321L20.0021 0.280709C19.8194 0.0993709 19.5718 -0.00168181 19.3143 -0.000228683H3.81433C2.20923 -0.000228683 0.908081 1.30098 0.908081 2.90602V28.0935C0.908081 29.6986 2.20923 30.9998 3.81433 30.9998H10.5956V29.0623H3.81433C3.27934 29.0623 2.84558 28.6286 2.84558 28.0935Z"/>
<path d="M31.9081 19.375V17.4375C31.9081 16.3675 31.0406 15.5 29.9706 15.5H25.1268C24.5918 15.5 24.1581 15.9337 24.1581 16.4687V25.1875H26.0956V21.3125H26.6671L30.2612 24.9066L31.6271 23.5406L29.399 21.3125H29.9706C31.0406 21.3125 31.9081 20.445 31.9081 19.375ZM26.0956 19.375V17.4375H29.9706V19.375H26.0956Z"/>
<path d="M21.2518 15.5H17.3768C16.8418 15.5 16.4081 15.9337 16.4081 16.4687V24.2187C16.4081 24.7538 16.8418 25.1875 17.3768 25.1875H21.2518C22.3219 25.1875 23.1893 24.32 23.1893 23.25V17.4375C23.1893 16.3675 22.3219 15.5 21.2518 15.5ZM21.2518 23.25H18.3456V17.4375H21.2518V23.25Z"/>
<path d="M11.5643 17.4375C12.6344 17.4375 13.5018 18.305 13.5018 19.375H15.4393C15.4393 17.2349 13.7044 15.5 11.5643 15.5C9.42424 15.5 7.68933 17.2349 7.68933 19.375V21.3125C7.68933 23.4526 9.42424 25.1875 11.5643 25.1875C13.7044 25.1875 15.4393 23.4526 15.4393 21.3125H13.5018C13.5018 22.3825 12.6344 23.25 11.5643 23.25C10.4943 23.25 9.62683 22.3825 9.62683 21.3125V19.375C9.62683 18.305 10.4943 17.4375 11.5643 17.4375Z"/>
</svg>
