<svg width="32" height="32" viewBox="0 0 32 32" xmlns="http://www.w3.org/2000/svg">
<path d="M2.8916 28.1394V2.95192C2.8916 2.41687 3.3253 1.98317 3.86035 1.98317H18.3916V5.85817C18.3916 6.92822 19.2591 7.79567 20.3291 7.79567H24.2041V10.7019H26.1416V6.82692C26.1431 6.56941 26.042 6.3219 25.8607 6.13911L20.0482 0.326607C19.8654 0.145269 19.6179 0.0442166 19.3604 0.0456698H3.86035C2.25525 0.0456698 0.954102 1.34688 0.954102 2.95192V28.1394C0.954102 29.7445 2.25525 31.0457 3.86035 31.0457H10.6416V29.1082H3.86035C3.32536 29.1082 2.8916 28.6745 2.8916 28.1394Z"/>
<path d="M20.4357 16.0787L19.3604 18.2196L18.285 16.0787C18.1209 15.753 17.7876 15.547 17.4229 15.5459H15.4854V17.4834H16.8222L18.2754 20.3896L16.8222 23.2959H15.4854V25.2334H17.4229C17.7876 25.2323 18.1209 25.0263 18.285 24.7006L19.3604 22.5596L20.4357 24.7006C20.5998 25.0263 20.9331 25.2323 21.2979 25.2334H23.2354V23.2959H21.8985L20.4454 20.3896L21.8985 17.4834H23.2354V15.5459H21.2979C20.9331 15.547 20.5998 15.753 20.4357 16.0787Z"/>
<path d="M6.7666 17.4834H9.67285V25.2334H11.6104V17.4834H14.5166V15.5459H6.7666V17.4834Z"/>
<path d="M24.2041 15.5459V17.4834H27.1104V25.2334H29.0479V17.4834H31.9541V15.5459H24.2041Z"/>
</svg>
