<svg width="32" height="32" viewBox="0 0 32 32" xmlns="http://www.w3.org/2000/svg">
<path d="M1.9834 28.1853V2.99782C1.9834 2.46277 2.4171 2.02907 2.95215 2.02907H17.4834V5.90407C17.4834 6.97411 18.3509 7.84157 19.4209 7.84157H23.2959V10.7478H25.2334V6.87282C25.2349 6.61531 25.1338 6.3678 24.9525 6.18501L19.14 0.372506C18.9572 0.191168 18.7097 0.0901151 18.4522 0.0915682H2.95215C1.34705 0.0915682 0.0458984 1.39278 0.0458984 2.99782V28.1853C0.0458984 29.7904 1.34705 31.0916 2.95215 31.0916H9.7334V29.1541H2.95215C2.41716 29.1541 1.9834 28.7204 1.9834 28.1853Z"/>
<path d="M9.7334 16.5605V24.3106C9.7334 24.8456 10.1671 25.2793 10.7021 25.2793H15.5459V23.3418H11.6709V21.4043H15.5459V19.4668H11.6709V17.5293H15.5459V15.5918H10.7021C10.1672 15.5918 9.7334 16.0256 9.7334 16.5605Z"/>
<path d="M31.0459 17.5293V15.5918H26.2021C25.6671 15.5918 25.2334 16.0255 25.2334 16.5605V24.3106C25.2334 24.8456 25.6671 25.2793 26.2021 25.2793H31.0459V23.3418H27.1709V21.4043H31.0459V19.4668H27.1709V17.5293H31.0459Z"/>
<path d="M21.465 16.1246L20.3897 18.2655L19.3143 16.1246C19.1502 15.7989 18.8169 15.5929 18.4521 15.5918H16.5146V17.5293H17.8515L19.3046 20.4355L17.8515 23.3418H16.5146V25.2793H18.4521C18.8169 25.2782 19.1502 25.0722 19.3143 24.7465L20.3897 22.6056L21.465 24.7465C21.6291 25.0722 21.9624 25.2782 22.3272 25.2793H24.2647V23.3418H22.9278L21.4747 20.4355L22.9278 17.5293H24.2647V15.5918H22.3272C21.9624 15.5929 21.6291 15.7989 21.465 16.1246Z"/>
</svg>
