<svg width="32" height="32" viewBox="0 0 32 32" fill="#1E9BAA" xmlns="http://www.w3.org/2000/svg">
<path d="M26.0956 11.0637V7.18874C26.0971 6.93123 25.996 6.68371 25.8146 6.50092L20.0021 0.688424C19.8194 0.507086 19.5718 0.406033 19.3143 0.407486H3.81433C2.20923 0.407486 0.908081 1.7087 0.908081 3.31374V28.5012C0.908081 30.1063 2.20923 31.4075 3.81433 31.4075H10.5956V29.47H3.81433C3.27928 29.47 2.84558 29.0363 2.84558 28.5012V3.31374C2.84558 2.77868 3.27928 2.34499 3.81433 2.34499H18.3456V6.21999C18.3456 7.29003 19.213 8.15749 20.2831 8.15749H24.1581V11.0637H26.0956Z"/>
<path d="M13.5018 15.9077H9.62683C9.09178 15.9077 8.65808 16.3414 8.65808 16.8765V25.5952H10.5956V22.689H13.5018C14.5719 22.689 15.4393 21.8215 15.4393 20.7515V17.8452C15.4393 16.7752 14.5719 15.9077 13.5018 15.9077ZM13.5018 20.7515H10.5956V17.8452H13.5018V20.7515Z"/>
<path d="M19.3143 17.8452H21.2518C21.7869 17.8452 22.2206 18.2789 22.2206 18.814H24.1581C24.1581 17.2089 22.8569 15.9077 21.2518 15.9077H19.3143C17.7092 15.9077 16.4081 17.2089 16.4081 18.814C16.4081 20.4191 17.7092 21.7202 19.3143 21.7202H21.2518C21.7869 21.7202 22.2206 22.1539 22.2206 22.689C22.2206 23.224 21.7869 23.6577 21.2518 23.6577H19.3143C18.7793 23.6577 18.3456 23.224 18.3456 22.689H16.4081C16.4081 24.2941 17.7092 25.5952 19.3143 25.5952H21.2518C22.8569 25.5952 24.1581 24.2941 24.1581 22.689C24.1581 21.0839 22.8569 19.7827 21.2518 19.7827H19.3143C18.7793 19.7827 18.3456 19.349 18.3456 18.814C18.3456 18.2789 18.7793 17.8452 19.3143 17.8452Z"/>
<path d="M29.9706 15.9077H26.0956C25.5605 15.9077 25.1268 16.3414 25.1268 16.8765V24.6265C25.1268 25.1615 25.5605 25.5952 26.0956 25.5952H29.9706C31.0406 25.5952 31.9081 24.7278 31.9081 23.6577V17.8452C31.9081 16.7752 31.0406 15.9077 29.9706 15.9077ZM29.9706 23.6577H27.0643V17.8452H29.9706V23.6577Z"/>
</svg>
