<svg width="32" height="32" viewBox="0 0 32 32" fill="#1E9BAA" xmlns="http://www.w3.org/2000/svg">
<path d="M25.7795 10.7019V6.82692C25.7811 6.56941 25.6799 6.3219 25.4986 6.13911L19.6861 0.326607C19.5033 0.145269 19.2558 0.0442166 18.9983 0.0456698H3.49829C1.89319 0.0456698 0.592041 1.34688 0.592041 2.95192V28.1394C0.592041 29.7445 1.89319 31.0457 3.49829 31.0457H10.2795V29.1082H3.49829C2.96324 29.1082 2.52954 28.6745 2.52954 28.1394V2.95192C2.52954 2.41687 2.96324 1.98317 3.49829 1.98317H18.0295V5.85817C18.0295 6.92822 18.897 7.79567 19.967 7.79567H23.842V10.7019H25.7795Z"/>
<path d="M15.1233 15.5459H11.2483C10.1782 15.5459 9.31079 16.4134 9.31079 17.4834V25.2334H11.2483V22.3271H15.1233V25.2334H17.0608V17.4834C17.0608 16.4134 16.1933 15.5459 15.1233 15.5459ZM15.1233 20.3896H11.2483V17.4834H15.1233V20.3896Z"/>
<path d="M18.0295 16.5146V24.2646C18.0295 24.7997 18.4632 25.2334 18.9983 25.2334H23.842V23.2959H19.967V21.3584H23.842V19.4209H19.967V17.4834H23.842V15.5459H18.9983C18.4633 15.5459 18.0295 15.9797 18.0295 16.5146Z"/>
<path d="M29.6545 15.5459H25.7795C25.2445 15.5459 24.8108 15.9796 24.8108 16.5146V25.2334H26.7483V22.3271H29.6545C30.7246 22.3271 31.592 21.4597 31.592 20.3896V17.4834C31.592 16.4134 30.7246 15.5459 29.6545 15.5459ZM29.6545 20.3896H26.7483V17.4834H29.6545V20.3896Z"/>
</svg>
