<svg width="32" height="32" viewBox="0 0 32 32" fill="#1E9BAA" xmlns="http://www.w3.org/2000/svg">
<path d="M29.4705 15.5918H25.5955C25.0604 15.5918 24.6267 16.0255 24.6267 16.5605V24.3106C24.6267 24.8456 25.0604 25.2793 25.5955 25.2793H29.4705C30.5405 25.2793 31.408 24.4118 31.408 23.3418V17.5293C31.408 16.4593 30.5405 15.5918 29.4705 15.5918ZM29.4705 23.3418H26.5642V17.5293H29.4705V23.3418Z"/>
<path d="M11.0642 17.5293C12.1343 17.5293 13.0017 18.3968 13.0017 19.4668H14.9392C14.9392 17.3267 13.2043 15.5918 11.0642 15.5918C8.92412 15.5918 7.18921 17.3267 7.18921 19.4668V21.4043C7.18921 23.5444 8.92412 25.2793 11.0642 25.2793C13.2043 25.2793 14.9392 23.5444 14.9392 21.4043H13.0017C13.0017 22.4743 12.1343 23.3418 11.0642 23.3418C9.99416 23.3418 9.12671 22.4743 9.12671 21.4043V19.4668C9.12671 18.3968 9.99416 17.5293 11.0642 17.5293Z"/>
<path d="M25.5955 10.7478V6.87282C25.597 6.61531 25.4959 6.3678 25.3145 6.18501L19.502 0.372506C19.3192 0.191168 19.0717 0.0901151 18.8142 0.0915682H3.31421C1.70911 0.0915682 0.407959 1.39278 0.407959 2.99782V28.1853C0.407959 29.7904 1.70911 31.0916 3.31421 31.0916H10.0955V29.1541H3.31421C2.77916 29.1541 2.34546 28.7204 2.34546 28.1853V2.99782C2.34546 2.46277 2.77916 2.02907 3.31421 2.02907H17.8455V5.90407C17.8455 6.97411 18.7129 7.84157 19.783 7.84157H23.658V10.7478H25.5955Z"/>
<path d="M21.7205 15.5918H17.8455C16.7754 15.5918 15.908 16.4593 15.908 17.5293V25.2793H17.8455V22.3731H21.7205V25.2793H23.658V17.5293C23.658 16.4593 22.7905 15.5918 21.7205 15.5918ZM21.7205 20.4355H17.8455V17.5293H21.7205V20.4355Z"/>
</svg>
