<svg width="32" height="32" viewBox="0 0 32 32" fill="#1E9BAA" xmlns="http://www.w3.org/2000/svg">
<path d="M2.4375 28.5012V3.31374C2.4375 2.77868 2.8712 2.34499 3.40625 2.34499H17.9375V6.21999C17.9375 7.29003 18.805 8.15749 19.875 8.15749H23.75V11.0637H25.6875V7.18874C25.689 6.93123 25.5879 6.68371 25.4066 6.50092L19.5941 0.688424C19.4113 0.507086 19.1638 0.406033 18.9063 0.407486H3.40625C1.80115 0.407486 0.5 1.7087 0.5 3.31374V28.5012C0.5 30.1063 1.80115 31.4075 3.40625 31.4075H10.1875V29.47H3.40625C2.87126 29.47 2.4375 29.0363 2.4375 28.5012Z"/>
<path d="M28.5937 19.7827H26.6562C26.1212 19.7827 25.6875 19.349 25.6875 18.814C25.6875 18.2789 26.1212 17.8452 26.6562 17.8452H28.5937C29.1288 17.8452 29.5625 18.2789 29.5625 18.814H31.5C31.5 17.2089 30.1988 15.9077 28.5937 15.9077H26.6562C25.0512 15.9077 23.75 17.2089 23.75 18.814C23.75 20.4191 25.0512 21.7202 26.6562 21.7202H28.5937C29.1288 21.7202 29.5625 22.1539 29.5625 22.689C29.5625 23.224 29.1288 23.6577 28.5937 23.6577H26.6562C26.1212 23.6577 25.6875 23.224 25.6875 22.689H23.75C23.75 24.2941 25.0512 25.5952 26.6562 25.5952H28.5937C30.1988 25.5952 31.5 24.2941 31.5 22.689C31.5 21.0839 30.1988 19.7827 28.5937 19.7827Z"/>
<path d="M9.21875 16.8765V24.6265C9.21875 25.1615 9.65245 25.5952 10.1875 25.5952H15.0313V23.6577H11.1563V21.7202H15.0313V19.7827H11.1563V17.8452H15.0313V15.9077H10.1875C9.65251 15.9077 9.21875 16.3415 9.21875 16.8765Z"/>
<path d="M20.8438 15.9077H16.9688C16.4337 15.9077 16 16.3414 16 16.8765V25.5952H17.9375V22.689H20.8438C21.9138 22.689 22.7813 21.8215 22.7813 20.7515V17.8452C22.7813 16.7752 21.9138 15.9077 20.8438 15.9077ZM20.8438 20.7515H17.9375V17.8452H20.8438V20.7515Z"/>
</svg>
