<svg width="32" height="32" viewBox="0 0 32 32" fill="#1E9BAA" xmlns="http://www.w3.org/2000/svg">
<path d="M25.7336 10.7019V6.82692C25.7352 6.56941 25.634 6.3219 25.4527 6.13911L19.6402 0.326607C19.4574 0.145269 19.2099 0.0442166 18.9524 0.0456698H3.45239C1.8473 0.0456698 0.546143 1.34688 0.546143 2.95192V28.1394C0.546143 29.7445 1.8473 31.0457 3.45239 31.0457H10.2336V29.1082H3.45239C2.91734 29.1082 2.48364 28.6745 2.48364 28.1394V2.95192C2.48364 2.41687 2.91734 1.98317 3.45239 1.98317H17.9836V5.85817C17.9836 6.92822 18.8511 7.79567 19.9211 7.79567H23.7961V10.7019H25.7336Z"/>
<path d="M21.8586 15.5459H17.9836C17.4486 15.5459 17.0149 15.9796 17.0149 16.5146V25.2334H18.9524V22.3271H21.8586C22.9287 22.3271 23.7961 21.4597 23.7961 20.3896V17.4834C23.7961 16.4134 22.9287 15.5459 21.8586 15.5459ZM21.8586 20.3896H18.9524V17.4834H21.8586V20.3896Z"/>
<path d="M15.4455 15.6234C15.0829 15.4742 14.666 15.5583 14.3896 15.8365L12.1712 18.055L9.95272 15.8269C9.57594 15.447 8.9626 15.4444 8.58273 15.8212C8.39794 16.0045 8.29465 16.2544 8.29616 16.5147V25.2334H10.2337V18.8494L11.4833 20.099C11.8612 20.4747 12.4714 20.4747 12.8493 20.099L14.1087 18.8494V25.2334H16.0462V16.5147C16.0442 16.1236 15.8073 15.7721 15.4455 15.6234Z"/>
<path d="M30.5774 20.3896V15.5459H28.6399V20.3896H26.7024V15.5459H24.7649V21.3584C24.7649 21.8935 25.1986 22.3271 25.7336 22.3271H28.6399V25.2334H30.5774V22.3271H31.5461V20.3896H30.5774Z"/>
</svg>
