<svg width="32" height="31" viewBox="0 0 32 31" xmlns="http://www.w3.org/2000/svg">
<path d="M2.5896 28.0938V2.90627C2.5896 2.37121 3.0233 1.93752 3.55835 1.93752H18.0896V5.81252C18.0896 6.88256 18.9571 7.75002 20.0271 7.75002H23.9021V10.6563H25.8396V6.78127C25.8411 6.52376 25.74 6.27625 25.5587 6.09345L19.7462 0.280954C19.5634 0.0996164 19.3159 -0.00149692 19.0584 1.67532e-05H3.55835C1.95325 1.67532e-05 0.6521 1.30117 0.6521 2.90627V28.0938C0.6521 29.6989 1.95325 31 3.55835 31H10.3396V29.0625H3.55835C3.02336 29.0625 2.5896 28.6288 2.5896 28.0938Z"/>
<path d="M13.2463 15.5H9.37134C8.30129 15.5 7.43384 16.3675 7.43384 17.4375V25.1875H9.37134V22.2812H13.2463V25.1875H15.1838V17.4375C15.1838 16.3675 14.3164 15.5 13.2463 15.5ZM13.2463 20.3437H9.37134V17.4375H13.2463V20.3437Z"/>
<path d="M20.9963 15.5H17.1213C16.5863 15.5 16.1526 15.9337 16.1526 16.4687V25.1875H18.0901V22.2812H20.9963C22.0664 22.2812 22.9338 21.4138 22.9338 20.3437V17.4375C22.9338 16.3675 22.0664 15.5 20.9963 15.5ZM20.9963 20.3437H18.0901V17.4375H20.9963V20.3437Z"/>
<path d="M28.107 19.4428L30.4029 17.1566L29.0273 15.7809L25.8401 18.9778V15.5H23.9026V25.1875H25.8401V21.7097L26.7313 20.8281L29.9282 24.8291L31.4395 23.6181L28.107 19.4428Z"/>
</svg>
