<svg width="32" height="32" viewBox="0 0 32 32" xmlns="http://www.w3.org/2000/svg">
<path d="M26.1416 10.7478V6.87282C26.1431 6.61531 26.042 6.3678 25.8607 6.18501L20.0482 0.372506C19.8654 0.191168 19.6179 0.0901151 19.3604 0.0915682H3.86035C2.25525 0.0915682 0.954102 1.39278 0.954102 2.99782V28.1853C0.954102 29.7904 2.25525 31.0916 3.86035 31.0916H10.6416V29.1541H3.86035C3.3253 29.1541 2.8916 28.7204 2.8916 28.1853V2.99782C2.8916 2.46277 3.3253 2.02907 3.86035 2.02907H18.3916V5.90407C18.3916 6.97411 19.2591 7.84157 20.3291 7.84157H24.2041V10.7478H26.1416Z"/>
<path d="M30.0166 15.5918H26.1416C25.6065 15.5918 25.1729 16.0255 25.1729 16.5605V25.2793H27.1104V22.3731H30.0166C31.0866 22.3731 31.9541 21.5056 31.9541 20.4355V17.5293C31.9541 16.4593 31.0866 15.5918 30.0166 15.5918ZM30.0166 20.4355H27.1104V17.5293H30.0166V20.4355Z"/>
<path d="M24.2041 15.5918H22.2666V25.2793H24.2041V15.5918Z"/>
<path d="M20.8445 15.739C20.69 15.6425 20.5113 15.5914 20.3291 15.5918H14.5166V17.5293H18.5854L14.7104 23.7971C14.4262 24.2504 14.5633 24.8483 15.0167 25.1325C15.1577 25.2209 15.3191 25.2714 15.4854 25.2793H21.2978V23.3418H17.2291L21.1525 17.074C21.4361 16.6203 21.2982 16.0227 20.8445 15.739Z"/>
</svg>
