<svg width="32" height="32" viewBox="0 0 32 32" fill="#1E9BAA" xmlns="http://www.w3.org/2000/svg">
<path d="M2.3916 28.1394V2.95192C2.3916 2.41687 2.8253 1.98317 3.36035 1.98317H17.8916V5.85817C17.8916 6.92822 18.7591 7.79567 19.8291 7.79567H23.7041V10.7019H25.6416V6.82692C25.6431 6.56941 25.542 6.3219 25.3607 6.13911L19.5482 0.326607C19.3654 0.145269 19.1179 0.0442166 18.8604 0.0456698H3.36035C1.75525 0.0456698 0.454102 1.34688 0.454102 2.95192V28.1394C0.454102 29.7445 1.75525 31.0457 3.36035 31.0457H10.1416V29.1082H3.36035C2.82536 29.1082 2.3916 28.6745 2.3916 28.1394Z"/>
<path d="M20.7979 15.5459H16.9229C16.3878 15.5459 15.9541 15.9796 15.9541 16.5146V25.2334H17.8916V22.3271H20.7979C21.8679 22.3271 22.7354 21.4597 22.7354 20.3896V17.4834C22.7354 16.4134 21.8679 15.5459 20.7979 15.5459ZM20.7979 20.3896H17.8916V17.4834H20.7979V20.3896Z"/>
<path d="M14.3847 15.6234C14.0221 15.4742 13.6052 15.5583 13.3288 15.8365L11.1104 18.055L8.89193 15.8269C8.51515 15.447 7.90181 15.4444 7.52194 15.8212C7.33715 16.0045 7.23385 16.2544 7.23537 16.5147V25.2334H9.17287V18.8494L10.4226 20.099C10.8004 20.4747 11.4106 20.4747 11.7885 20.099L13.0479 18.8494V25.2334H14.9854V16.5147C14.9834 16.1236 14.7465 15.7721 14.3847 15.6234Z"/>
<path d="M29.5166 19.4209H27.5791V21.3584H29.5166V23.2959H25.6416V17.4834H31.4541C31.4541 16.4134 30.5866 15.5459 29.5166 15.5459H25.6416C24.5716 15.5459 23.7041 16.4134 23.7041 17.4834V23.2959C23.7041 24.3659 24.5716 25.2334 25.6416 25.2334H29.5166C30.5866 25.2334 31.4541 24.3659 31.4541 23.2959V21.3584C31.4541 20.2884 30.5866 19.4209 29.5166 19.4209Z"/>
</svg>
