<svg width="32" height="31" viewBox="0 0 32 31" fill="#1E9BAA" xmlns="http://www.w3.org/2000/svg">
<path d="M2.4375 28.0935V2.90602C2.4375 2.37097 2.8712 1.93727 3.40625 1.93727H17.9375V5.81227C17.9375 6.88232 18.805 7.74977 19.875 7.74977H23.75V10.656H25.6875V6.78102C25.689 6.52352 25.5879 6.276 25.4066 6.09321L19.5941 0.280709C19.4113 0.0993709 19.1638 -0.00168181 18.9063 -0.000228683H3.40625C1.80115 -0.000228683 0.5 1.30098 0.5 2.90602V28.0935C0.5 29.6986 1.80115 30.9998 3.40625 30.9998H10.1875V29.0623H3.40625C2.87126 29.0623 2.4375 28.6286 2.4375 28.0935Z"/>
<path d="M22.1806 15.5776C21.8179 15.4283 21.4011 15.5125 21.1247 15.7907L18.9063 18.0092L16.6878 15.7907C16.311 15.4108 15.6977 15.4083 15.3178 15.7851C15.1354 15.966 15.0323 16.2119 15.0312 16.4688V25.1876H16.9688V18.8035L18.2184 20.0532C18.5963 20.4289 19.2065 20.4289 19.5844 20.0532L20.8438 18.8035V25.1876H22.7813V16.4688C22.7793 16.0778 22.5424 15.7262 22.1806 15.5776Z"/>
<path d="M12.125 21.8841L10.8753 20.6344C10.4975 20.2587 9.88726 20.2587 9.50939 20.6344L8.25002 21.8841V15.5H6.31252V24.2187C6.30943 24.7537 6.74058 25.19 7.27564 25.1931C7.53593 25.1946 7.7858 25.0913 7.96908 24.9066L10.1875 22.6784L12.406 24.8969C12.7827 25.2767 13.3961 25.2793 13.7759 24.9025C13.9584 24.7216 14.0614 24.4756 14.0625 24.2187V15.5H12.125V21.8841Z"/>
<path d="M29.5625 15.5H25.6875C24.6175 15.5 23.75 16.3675 23.75 17.4375V25.1875H25.6875V22.2812H29.5625V25.1875H31.5V17.4375C31.5 16.3675 30.6325 15.5 29.5625 15.5ZM29.5625 20.3437H25.6875V17.4375H29.5625V20.3437Z"/>
</svg>
