<svg width="32" height="32" viewBox="0 0 32 32" xmlns="http://www.w3.org/2000/svg">
<path d="M1.9834 28.5012V3.31374C1.9834 2.77868 2.4171 2.34499 2.95215 2.34499H17.4834V6.21999C17.4834 7.29003 18.3509 8.15749 19.4209 8.15749H23.2959V11.0637H25.2334V7.18874C25.2349 6.93123 25.1338 6.68371 24.9525 6.50092L19.14 0.688424C18.9572 0.507086 18.7097 0.406033 18.4522 0.407486H2.95215C1.34705 0.407486 0.0458984 1.7087 0.0458984 3.31374V28.5012C0.0458984 30.1063 1.34705 31.4075 2.95215 31.4075H9.7334V29.47H2.95215C2.41716 29.47 1.9834 29.0363 1.9834 28.5012Z"/>
<path d="M29.1084 19.7827H27.1709V21.7202H29.1084V23.6577H25.2334V17.8452H31.0459C31.0459 16.7752 30.1784 15.9077 29.1084 15.9077H25.2334C24.1634 15.9077 23.2959 16.7752 23.2959 17.8452V23.6577C23.2959 24.7278 24.1634 25.5952 25.2334 25.5952H29.1084C30.1784 25.5952 31.0459 24.7278 31.0459 23.6577V21.7202C31.0459 20.6502 30.1784 19.7827 29.1084 19.7827Z"/>
<path d="M11.6709 15.9077H7.7959C7.26085 15.9077 6.82715 16.3414 6.82715 16.8765V25.5952H8.76465V22.689H11.6709C12.7409 22.689 13.6084 21.8215 13.6084 20.7515V17.8452C13.6084 16.7752 12.7409 15.9077 11.6709 15.9077ZM11.6709 20.7515H8.76465V17.8452H11.6709V20.7515Z"/>
<path d="M20.3896 21.7203L16.3209 16.2953C15.9999 15.8673 15.3927 15.7805 14.9646 16.1015C14.7207 16.2845 14.5771 16.5716 14.5771 16.8765V25.5953H16.5146V19.7828L20.5834 25.2078C20.7664 25.4517 21.0535 25.5953 21.3584 25.5953C21.4637 25.5961 21.5684 25.5797 21.6684 25.5468C22.063 25.4136 22.3282 25.043 22.3271 24.6265V15.9078H20.3896V21.7203Z"/>
</svg>
