<svg width="31" height="32" viewBox="0 0 31 32" xmlns="http://www.w3.org/2000/svg">
<path d="M1.9375 28.1394V2.95192C1.9375 2.41687 2.3712 1.98317 2.90625 1.98317H17.4375V5.85817C17.4375 6.92822 18.305 7.79567 19.375 7.79567H23.25V10.7019H25.1875V6.82692C25.189 6.56941 25.0879 6.3219 24.9066 6.13911L19.0941 0.326607C18.9113 0.145269 18.6638 0.0442166 18.4063 0.0456698H2.90625C1.30115 0.0456698 0 1.34688 0 2.95192V28.1394C0 29.7445 1.30115 31.0457 2.90625 31.0457H9.6875V29.1082H2.90625C2.37126 29.1082 1.9375 28.6745 1.9375 28.1394Z"/>
<path d="M20.3437 15.5459H16.4687C15.3987 15.5459 14.5312 16.4134 14.5312 17.4834V25.2334H16.4687V22.3271H20.3437V25.2334H22.2812V17.4834C22.2812 16.4134 21.4138 15.5459 20.3437 15.5459ZM20.3437 20.3896H16.4687V17.4834H20.3437V20.3896Z"/>
<path d="M11.625 15.5459H6.78125C6.2462 15.5459 5.8125 15.9796 5.8125 16.5146V25.2334H7.75V21.3584H8.32156L11.9156 24.9525L13.2816 23.5865L11.0534 21.3584H11.625C12.695 21.3584 13.5625 20.4909 13.5625 19.4209V17.4834C13.5625 16.4134 12.695 15.5459 11.625 15.5459ZM11.625 19.4209H7.75V17.4834H11.625V19.4209Z"/>
<path d="M29.0625 15.5459V21.93L27.8128 20.6803C27.435 20.3046 26.8248 20.3046 26.4469 20.6803L25.1875 21.93V15.5459H23.25V24.2646C23.2469 24.7996 23.6781 25.2359 24.2131 25.239C24.4734 25.2405 24.7233 25.1372 24.9066 24.9525L27.125 22.7243L29.3435 24.9428C29.7202 25.3226 30.3336 25.3252 30.7134 24.9484C30.8959 24.7675 30.9989 24.5215 31 24.2646V15.5459H29.0625Z"/>
</svg>
