<svg width="32" height="31" viewBox="0 0 32 31" xmlns="http://www.w3.org/2000/svg">
<path d="M2.52954 28.0935V2.90602C2.52954 2.37097 2.96324 1.93727 3.49829 1.93727H18.0295V5.81227C18.0295 6.88232 18.897 7.74977 19.967 7.74977H23.842V10.656H25.7795V6.78102C25.7811 6.52352 25.6799 6.276 25.4986 6.09321L19.6861 0.280709C19.5033 0.0993709 19.2558 -0.00168181 18.9983 -0.000228683H3.49829C1.89319 -0.000228683 0.592041 1.30098 0.592041 2.90602V28.0935C0.592041 29.6986 1.89319 30.9998 3.49829 30.9998H10.2795V29.0623H3.49829C2.9633 29.0623 2.52954 28.6286 2.52954 28.0935Z"/>
<path d="M13.2924 16.0328L12.217 18.1737L11.1417 16.0328C10.9776 15.7071 10.6443 15.5011 10.2795 15.5H8.34204V17.4375H9.67892L11.132 20.3437L9.67892 23.25H8.34204V25.1875H10.2795C10.6443 25.1864 10.9776 24.9804 11.1417 24.6547L12.217 22.5137L13.2924 24.6547C13.4565 24.9804 13.7897 25.1864 14.1545 25.1875H16.092V23.25H14.7552L13.302 20.3437L14.7552 17.4375H16.092V15.5H14.1545C13.7897 15.5012 13.4565 15.7071 13.2924 16.0328Z"/>
<path d="M27.717 23.25V15.5H25.7795V24.2187C25.7795 24.7538 26.2132 25.1875 26.7483 25.1875H31.592V23.25H27.717Z"/>
<path d="M24.2102 15.5776C23.8475 15.4283 23.4306 15.5125 23.1542 15.7907L20.9358 18.0092L18.7174 15.7907C18.3406 15.4108 17.7272 15.4083 17.3474 15.7851C17.1649 15.966 17.0619 16.2119 17.0608 16.4688V25.1876H18.9983V18.8035L20.248 20.0532C20.6259 20.4289 21.236 20.4289 21.6139 20.0532L22.8733 18.8035V25.1876H24.8108V16.4688C24.8089 16.0778 24.5719 15.7262 24.2102 15.5776Z"/>
</svg>
