<svg width="32" height="32" viewBox="0 0 32 32" fill="#1E9BAA" xmlns="http://www.w3.org/2000/svg">
<path d="M25.6416 11.0637V7.18874C25.6431 6.93123 25.542 6.68371 25.3607 6.50092L19.5482 0.688424C19.3654 0.507086 19.1179 0.406033 18.8604 0.407486H3.36035C1.75525 0.407486 0.454102 1.7087 0.454102 3.31374V28.5012C0.454102 30.1063 1.75525 31.4075 3.36035 31.4075H10.1416V29.47H3.36035C2.8253 29.47 2.3916 29.0363 2.3916 28.5012V3.31374C2.3916 2.77868 2.8253 2.34499 3.36035 2.34499H17.8916V6.21999C17.8916 7.29003 18.7591 8.15749 19.8291 8.15749H23.7041V11.0637H25.6416Z"/>
<path d="M13.0479 15.9077H9.17285C8.6378 15.9077 8.2041 16.3414 8.2041 16.8765V25.5952H10.1416V22.689H13.0479C14.1179 22.689 14.9854 21.8215 14.9854 20.7515V17.8452C14.9854 16.7752 14.1179 15.9077 13.0479 15.9077ZM13.0479 20.7515H10.1416V17.8452H13.0479V20.7515Z"/>
<path d="M29.5166 15.9077H25.6416C25.1065 15.9077 24.6729 16.3414 24.6729 16.8765V25.5952H26.6104V22.689H29.5166C30.5866 22.689 31.4541 21.8215 31.4541 20.7515V17.8452C31.4541 16.7752 30.5866 15.9077 29.5166 15.9077ZM29.5166 20.7515H26.6104V17.8452H29.5166V20.7515Z"/>
<path d="M21.7666 19.7827H17.8916V15.9077H15.9541V25.5952H17.8916V21.7202H21.7666V25.5952H23.7041V15.9077H21.7666V19.7827Z"/>
</svg>
