<svg width="32" height="31" viewBox="0 0 32 31" xmlns="http://www.w3.org/2000/svg">
<path d="M2.02954 28.0935V2.90602C2.02954 2.37097 2.46324 1.93727 2.99829 1.93727H17.5295V5.81227C17.5295 6.88232 18.397 7.74977 19.467 7.74977H23.342V10.656H25.2795V6.78102C25.2811 6.52352 25.1799 6.276 24.9986 6.09321L19.1861 0.280709C19.0033 0.0993709 18.7558 -0.00168181 18.4983 -0.000228683H2.99829C1.39319 -0.000228683 0.092041 1.30098 0.092041 2.90602V28.0935C0.092041 29.6986 1.39319 30.9998 2.99829 30.9998H9.77954V29.0623H2.99829C2.4633 29.0623 2.02954 28.6286 2.02954 28.0935Z"/>
<path d="M29.1545 19.375H27.217V21.3125H29.1545V23.25H25.2795V17.4375H31.092C31.092 16.3675 30.2246 15.5 29.1545 15.5H25.2795C24.2095 15.5 23.342 16.3675 23.342 17.4375V23.25C23.342 24.32 24.2095 25.1875 25.2795 25.1875H29.1545C30.2246 25.1875 31.092 24.32 31.092 23.25V21.3125C31.092 20.2425 30.2246 19.375 29.1545 19.375Z"/>
<path d="M18.4983 15.5C16.3582 15.5 14.6233 17.2349 14.6233 19.375V21.3125C14.6233 23.4526 16.3582 25.1875 18.4983 25.1875C20.6384 25.1875 22.3733 23.4526 22.3733 21.3125V19.375C22.3733 17.2349 20.6384 15.5 18.4983 15.5ZM20.4358 21.3125C20.4358 22.3825 19.5683 23.25 18.4983 23.25C17.4282 23.25 16.5608 22.3825 16.5608 21.3125V19.375C16.5608 18.305 17.4282 17.4375 18.4983 17.4375C19.5683 17.4375 20.4358 18.305 20.4358 19.375V21.3125Z"/>
<path d="M9.77954 15.5H7.84204V24.2187C7.84204 24.7538 8.27574 25.1875 8.81079 25.1875H13.6545V23.25H9.77954V15.5Z"/>
</svg>
