<svg width="32" height="32" viewBox="0 0 32 32" fill="#1E9BAA" xmlns="http://www.w3.org/2000/svg">
<path d="M2.34546 28.1394V2.95192C2.34546 2.41687 2.77916 1.98317 3.31421 1.98317H17.8455V5.85817C17.8455 6.92822 18.7129 7.79567 19.783 7.79567H23.658V10.7019H25.5955V6.82692C25.597 6.56941 25.4959 6.3219 25.3145 6.13911L19.502 0.326607C19.3192 0.145269 19.0717 0.0442166 18.8142 0.0456698H3.31421C1.70911 0.0456698 0.407959 1.34688 0.407959 2.95192V28.1394C0.407959 29.7445 1.70911 31.0457 3.31421 31.0457H10.0955V29.1082H3.31421C2.77922 29.1082 2.34546 28.6745 2.34546 28.1394Z"/>
<path d="M29.4705 19.4209H27.533V21.3584H29.4705V23.2959H25.5955V17.4834H31.408C31.408 16.4134 30.5405 15.5459 29.4705 15.5459H25.5955C24.5254 15.5459 23.658 16.4134 23.658 17.4834V23.2959C23.658 24.3659 24.5254 25.2334 25.5955 25.2334H29.4705C30.5405 25.2334 31.408 24.3659 31.408 23.2959V21.3584C31.408 20.2884 30.5405 19.4209 29.4705 19.4209Z"/>
<path d="M12.033 15.5459H8.15796C7.62291 15.5459 7.18921 15.9796 7.18921 16.5146V24.2646C7.18921 24.7997 7.62291 25.2334 8.15796 25.2334H12.033C13.103 25.2334 13.9705 24.3659 13.9705 23.2959V17.4834C13.9705 16.4134 13.103 15.5459 12.033 15.5459ZM12.033 23.2959H9.12671V17.4834H12.033V23.2959Z"/>
<path d="M22.0886 15.6235C21.7259 15.4742 21.309 15.5584 21.0326 15.8366L18.8142 18.0551L16.5958 15.8366C16.219 15.4567 15.6056 15.4542 15.2258 15.831C15.0433 16.0119 14.9403 16.2578 14.9392 16.5147V25.2335H16.8767V18.8494L18.1264 20.0991C18.5043 20.4748 19.1145 20.4748 19.4923 20.0991L20.7517 18.8494V25.2335H22.6892V16.5147C22.6873 16.1237 22.4503 15.7721 22.0886 15.6235Z"/>
</svg>
