<svg width="32" height="32" viewBox="0 0 32 32" xmlns="http://www.w3.org/2000/svg">
<path d="M1.9834 28.1394V2.95192C1.9834 2.41687 2.4171 1.98317 2.95215 1.98317H17.4834V5.85817C17.4834 6.92822 18.3509 7.79567 19.4209 7.79567H23.2959V10.7019H25.2334V6.82692C25.2349 6.56941 25.1338 6.3219 24.9525 6.13911L19.14 0.326607C18.9572 0.145269 18.7097 0.0442166 18.4522 0.0456698H2.95215C1.34705 0.0456698 0.0458984 1.34688 0.0458984 2.95192V28.1394C0.0458984 29.7445 1.34705 31.0457 2.95215 31.0457H9.7334V29.1082H2.95215C2.41716 29.1082 1.9834 28.6745 1.9834 28.1394Z"/>
<path d="M20.3896 15.5459H16.5146C15.4446 15.5459 14.5771 16.4134 14.5771 17.4834V25.2334H16.5146V22.3271H20.3896V25.2334H22.3271V17.4834C22.3271 16.4134 21.4597 15.5459 20.3896 15.5459ZM20.3896 20.3896H16.5146V17.4834H20.3896V20.3896Z"/>
<path d="M11.6709 15.5459H6.82715C6.2921 15.5459 5.8584 15.9796 5.8584 16.5146V25.2334H7.7959V21.3584H8.36746L11.9615 24.9525L13.3275 23.5865L11.0993 21.3584H11.6709C12.7409 21.3584 13.6084 20.4909 13.6084 19.4209V17.4834C13.6084 16.4134 12.7409 15.5459 11.6709 15.5459ZM11.6709 19.4209H7.7959V17.4834H11.6709V19.4209Z"/>
<path d="M31.0459 19.4209V17.4834C31.0459 16.4134 30.1784 15.5459 29.1084 15.5459H24.2646C23.7296 15.5459 23.2959 15.9796 23.2959 16.5146V25.2334H25.2334V21.3584H25.805L29.399 24.9525L30.765 23.5865L28.5368 21.3584H29.1084C30.1784 21.3584 31.0459 20.4909 31.0459 19.4209ZM25.2334 19.4209V17.4834H29.1084V19.4209H25.2334Z"/>
</svg>
