<svg width="27" height="31" viewBox="0 0 27 31" xmlns="http://www.w3.org/2000/svg">
<path d="M25.8128 6.09345L20.0003 0.280953C19.8175 0.0996151 19.57 -0.00143767 19.3125 1.54576e-05H3.8125C2.2074 1.54576e-05 0.90625 1.30117 0.90625 2.90627V28.0938C0.90625 29.6989 2.2074 31 3.8125 31H23.1875C24.7926 31 26.0937 29.6989 26.0937 28.0938V6.78127C26.0953 6.52376 25.9941 6.2763 25.8128 6.09345ZM24.1562 28.0938C24.1562 28.6288 23.7226 29.0625 23.1875 29.0625H3.8125C3.27745 29.0625 2.84375 28.6288 2.84375 28.0938V2.90627C2.84375 2.37121 3.27745 1.93752 3.8125 1.93752H9.625V4.84377H8.65625C8.1212 4.84377 7.6875 5.27746 7.6875 5.81252V9.68752C7.6875 10.2226 8.1212 10.6563 8.65625 10.6563H9.625V12.5938H8.65625C8.1212 12.5938 7.6875 13.0275 7.6875 13.5625V17.4375C7.6875 17.9726 8.1212 18.4063 8.65625 18.4063H12.5312C13.0663 18.4063 13.5 17.9726 13.5 17.4375V13.5625C13.5 13.0275 13.0663 12.5938 12.5312 12.5938H11.5625V9.68752C11.5625 9.15246 11.1288 8.71877 10.5937 8.71877H9.625V6.78127H10.5937C11.1288 6.78127 11.5625 6.34757 11.5625 5.81252V1.93752H18.3437V5.81252C18.3437 6.88256 19.2112 7.75002 20.2812 7.75002H24.1562V28.0938ZM11.5625 14.5313V16.4688H9.625V14.5313H11.5625Z"/>
</svg>
