<svg width="32" height="32" viewBox="0 0 32 32" fill="#1E9BAA" xmlns="http://www.w3.org/2000/svg">
<path d="M25.6416 10.7478V6.87282C25.6431 6.61531 25.542 6.3678 25.3607 6.18501L19.5482 0.372506C19.3654 0.191168 19.1179 0.0901151 18.8604 0.0915682H3.36035C1.75525 0.0915682 0.454102 1.39278 0.454102 2.99782V28.1853C0.454102 29.7904 1.75525 31.0916 3.36035 31.0916H10.1416V29.1541H3.36035C2.8253 29.1541 2.3916 28.7204 2.3916 28.1853V2.99782C2.3916 2.46277 2.8253 2.02907 3.36035 2.02907H17.8916V5.90407C17.8916 6.97411 18.7591 7.84157 19.8291 7.84157H23.7041V10.7478H25.6416Z"/>
<path d="M9.17285 17.5293H11.1104C11.6454 17.5293 12.0791 17.963 12.0791 18.498H14.0166C14.0166 16.8929 12.7155 15.5918 11.1104 15.5918H9.17285C7.56775 15.5918 6.2666 16.8929 6.2666 18.498C6.2666 20.1031 7.56775 21.4043 9.17285 21.4043H11.1104C11.6454 21.4043 12.0791 21.838 12.0791 22.3731C12.0791 22.9081 11.6454 23.3418 11.1104 23.3418H9.17285C8.6378 23.3418 8.2041 22.9081 8.2041 22.3731H6.2666C6.2666 23.9781 7.56775 25.2793 9.17285 25.2793H11.1104C12.7155 25.2793 14.0166 23.9781 14.0166 22.3731C14.0166 20.768 12.7155 19.4668 11.1104 19.4668H9.17285C8.6378 19.4668 8.2041 19.0331 8.2041 18.498C8.2041 17.963 8.63786 17.5293 9.17285 17.5293Z"/>
<path d="M22.7354 21.4043V19.4668C22.7354 17.3267 21.0004 15.5918 18.8604 15.5918C16.7203 15.5918 14.9854 17.3267 14.9854 19.4668V21.4043C14.9854 23.5444 16.7203 25.2793 18.8604 25.2793H23.7041V23.3418H22.1929C22.5411 22.755 22.7283 22.0867 22.7354 21.4043ZM20.7979 21.4043C20.7979 22.4743 19.9304 23.3418 18.8604 23.3418C17.7903 23.3418 16.9229 22.4743 16.9229 21.4043V19.4668C16.9229 18.3968 17.7903 17.5293 18.8604 17.5293C19.9304 17.5293 20.7979 18.3968 20.7979 19.4668V21.4043Z"/>
<path d="M26.6104 23.3418V15.5918H24.6729V24.3106C24.6729 24.8456 25.1065 25.2793 25.6416 25.2793H31.4541V23.3418H26.6104Z"/>
</svg>
