<svg width="31" height="32" viewBox="0 0 31 32" fill="#1E9BAA" xmlns="http://www.w3.org/2000/svg">
<path d="M1.9375 28.1853V2.99782C1.9375 2.46277 2.3712 2.02907 2.90625 2.02907H17.4375V5.90407C17.4375 6.97411 18.305 7.84157 19.375 7.84157H23.25V10.7478H25.1875V6.87282C25.189 6.61531 25.0879 6.3678 24.9066 6.18501L19.0941 0.372506C18.9113 0.191168 18.6638 0.0901151 18.4063 0.0915682H2.90625C1.30115 0.0915682 0 1.39278 0 2.99782V28.1853C0 29.7904 1.30115 31.0916 2.90625 31.0916H9.6875V29.1541H2.90625C2.37126 29.1541 1.9375 28.7204 1.9375 28.1853Z"/>
<path d="M27.125 15.5918C24.9849 15.5918 23.25 17.3267 23.25 19.4668V21.4043C23.25 23.5444 24.9849 25.2793 27.125 25.2793C29.2651 25.2793 31 23.5444 31 21.4043V19.4668C31 17.3267 29.2651 15.5918 27.125 15.5918ZM29.0625 21.4043C29.0625 22.4743 28.195 23.3418 27.125 23.3418C26.055 23.3418 25.1875 22.4743 25.1875 21.4043V19.4668C25.1875 18.3968 26.055 17.5293 27.125 17.5293C28.195 17.5293 29.0625 18.3968 29.0625 19.4668V21.4043Z"/>
<path d="M18.4062 17.5293C19.4763 17.5293 20.3437 18.3968 20.3437 19.4668H22.2812C22.2812 17.3267 20.5463 15.5918 18.4062 15.5918C16.2662 15.5918 14.5312 17.3267 14.5312 19.4668V21.4043C14.5312 23.5444 16.2662 25.2793 18.4062 25.2793C20.5463 25.2793 22.2812 23.5444 22.2812 21.4043H20.3437C20.3437 22.4743 19.4763 23.3418 18.4062 23.3418C17.3362 23.3418 16.4687 22.4743 16.4687 21.4043V19.4668C16.4687 18.3968 17.3362 17.5293 18.4062 17.5293Z"/>
<path d="M13.5625 15.5918H11.625V25.2793H13.5625V15.5918Z"/>
</svg>
