<svg width="29" height="32" viewBox="0 0 29 32" xmlns="http://www.w3.org/2000/svg">
<path d="M27.0937 14.1541H19.3437C18.8087 14.1541 18.375 14.5922 18.375 15.1326V23.1375C18.0643 23.0236 17.7367 22.964 17.4062 22.9614C15.8012 22.9614 14.5 24.2758 14.5 25.8972C14.5 27.5186 15.8012 28.833 17.4062 28.833C19.0113 28.833 20.3125 27.5186 20.3125 25.8972V16.1112H26.125V21.1804C25.8143 21.0664 25.4867 21.0068 25.1562 21.0042C23.5512 21.0042 22.25 22.3186 22.25 23.94C22.25 25.5614 23.5512 26.8758 25.1562 26.8758C26.7613 26.8758 28.0625 25.5614 28.0625 23.94V15.1326C28.0625 14.5922 27.6288 14.1541 27.0937 14.1541ZM17.4062 26.8758C16.8712 26.8758 16.4375 26.4377 16.4375 25.8972C16.4375 25.3567 16.8712 24.9186 17.4062 24.9186C17.9413 24.9186 18.375 25.3567 18.375 25.8972C18.375 26.4377 17.9413 26.8758 17.4062 26.8758ZM25.1562 24.9186C24.6212 24.9186 24.1875 24.4805 24.1875 23.94C24.1875 23.3995 24.6212 22.9614 25.1562 22.9614C25.6913 22.9614 26.125 23.3995 26.125 23.94C26.125 24.4805 25.6913 24.9186 25.1562 24.9186Z"/>
<path d="M2.875 28.8329V3.38941C2.875 2.84892 3.3087 2.41082 3.84375 2.41082H18.375V6.32519C18.375 7.40611 19.2425 8.28238 20.3125 8.28238H24.1875V11.2182H26.125V7.30379C26.1265 7.04366 26.0254 6.79363 25.8441 6.60898L20.0316 0.737421C19.8488 0.554241 19.6013 0.452161 19.3437 0.453629H3.84375C2.23865 0.453629 0.9375 1.768 0.9375 3.38941V28.8329C0.9375 30.4543 2.23865 31.7686 3.84375 31.7686H13.5312V29.8114H3.84375C3.30876 29.8114 2.875 29.3733 2.875 28.8329Z"/>
</svg>
