<svg width="31" height="32" viewBox="0 0 31 32" xmlns="http://www.w3.org/2000/svg">
<path d="M1.9375 28.5012V3.31374C1.9375 2.77868 2.3712 2.34499 2.90625 2.34499H17.4375V6.21999C17.4375 7.29003 18.305 8.15749 19.375 8.15749H23.25V11.0637H25.1875V7.18874C25.189 6.93123 25.0879 6.68371 24.9066 6.50092L19.0941 0.688424C18.9113 0.507086 18.6638 0.406033 18.4063 0.407486H2.90625C1.30115 0.407486 0 1.7087 0 3.31374V28.5012C0 30.1063 1.30115 31.4075 2.90625 31.4075H9.6875V29.47H2.90625C2.37126 29.47 1.9375 29.0363 1.9375 28.5012Z"/>
<path d="M28.0938 19.7827H26.1562C25.6212 19.7827 25.1875 19.349 25.1875 18.814C25.1875 18.2789 25.6212 17.8452 26.1562 17.8452H28.0938C28.6288 17.8452 29.0625 18.2789 29.0625 18.814H31C31 17.2089 29.6988 15.9077 28.0938 15.9077H26.1562C24.5512 15.9077 23.25 17.2089 23.25 18.814C23.25 20.4191 24.5512 21.7202 26.1562 21.7202H28.0938C28.6288 21.7202 29.0625 22.1539 29.0625 22.689C29.0625 23.224 28.6288 23.6577 28.0938 23.6577H26.1562C25.6212 23.6577 25.1875 23.224 25.1875 22.689H23.25C23.25 24.2941 24.5512 25.5952 26.1562 25.5952H28.0938C29.6988 25.5952 31 24.2941 31 22.689C31 21.0839 29.6988 19.7827 28.0938 19.7827Z"/>
<path d="M20.3438 15.9077H16.4688C15.9337 15.9077 15.5 16.3414 15.5 16.8765V25.5952H17.4375V22.689H20.3438C21.4138 22.689 22.2812 21.8215 22.2812 20.7515V17.8452C22.2812 16.7752 21.4138 15.9077 20.3438 15.9077ZM20.3438 20.7515H17.4375V17.8452H20.3438V20.7515Z"/>
</svg>
