<svg width="32" height="32" viewBox="0 0 32 32" fill="#1E9BAA" xmlns="http://www.w3.org/2000/svg">
<path d="M2.52954 28.1853V2.99782C2.52954 2.46277 2.96324 2.02907 3.49829 2.02907H18.0295V5.90407C18.0295 6.97411 18.897 7.84157 19.967 7.84157H23.842V10.7478H25.7795V6.87282C25.7811 6.61531 25.6799 6.3678 25.4986 6.18501L19.6861 0.372506C19.5033 0.191168 19.2558 0.0901151 18.9983 0.0915682H3.49829C1.89319 0.0915682 0.592041 1.39278 0.592041 2.99782V28.1853C0.592041 29.7904 1.89319 31.0916 3.49829 31.0916H10.2795V29.1541H3.49829C2.9633 29.1541 2.52954 28.7204 2.52954 28.1853Z"/>
<path d="M31.592 17.5293V15.5918H26.7483C26.2132 15.5918 25.7795 16.0255 25.7795 16.5605V25.2793H27.717V21.4043H31.592V19.4668H27.717V17.5293H31.592Z"/>
<path d="M24.8108 15.5918H22.8733V25.2793H24.8108V15.5918Z"/>
<path d="M21.9045 17.5293C21.9045 16.4593 21.0371 15.5918 19.967 15.5918H16.092C15.022 15.5918 14.1545 16.4593 14.1545 17.5293V23.3418C14.1545 24.4118 15.022 25.2793 16.092 25.2793H19.967C21.0371 25.2793 21.9045 24.4118 21.9045 23.3418V21.4043C21.9045 20.3343 21.0371 19.4668 19.967 19.4668H18.0295V21.4043H19.967V23.3418H16.092V17.5293H21.9045Z"/>
</svg>
