<svg width="32" height="31" viewBox="0 0 32 31" fill="#1E9BAA" xmlns="http://www.w3.org/2000/svg">
<path d="M23.2959 7.74977V10.656H25.2334V6.78102C25.2349 6.52352 25.1338 6.276 24.9525 6.09321L19.14 0.280709C18.9572 0.0993709 18.7097 -0.00168181 18.4522 -0.000228683H2.95215C1.34705 -0.000228683 0.0458984 1.30098 0.0458984 2.90602V28.0935C0.0458984 29.6986 1.34705 30.9998 2.95215 30.9998H9.7334V29.0623H2.95215C2.4171 29.0623 1.9834 28.6286 1.9834 28.0935V2.90602C1.9834 2.37097 2.4171 1.93727 2.95215 1.93727H17.4834V5.81227C17.4834 6.88232 18.3509 7.74977 19.4209 7.74977H23.2959Z"/>
<path d="M27.1709 23.25V15.5H25.2334V24.2187C25.2334 24.7538 25.6671 25.1875 26.2021 25.1875H31.0459V23.25H27.1709Z"/>
<path d="M20.3896 15.5H18.4521V24.2187C18.4521 24.7538 18.8858 25.1875 19.4209 25.1875H24.2646V23.25H20.3896V15.5Z"/>
<path d="M15.5459 15.5H11.6709C11.1358 15.5 10.7021 15.9337 10.7021 16.4687V24.2187C10.7021 24.7538 11.1358 25.1875 11.6709 25.1875H15.5459C16.6159 25.1875 17.4834 24.32 17.4834 23.25V17.4375C17.4834 16.3675 16.6159 15.5 15.5459 15.5ZM15.5459 23.25H12.6396V17.4375H15.5459V23.25Z"/>
</svg>
