<svg width="28" height="32" viewBox="0 0 28 32" xmlns="http://www.w3.org/2000/svg">
<path d="M2.375 28.1856V2.99806C2.375 2.46301 2.8087 2.02931 3.34375 2.02931H17.875V5.90431C17.875 6.97436 18.7425 7.84181 19.8125 7.84181H23.6875V10.7481H25.625V6.87306C25.6265 6.61556 25.5254 6.36804 25.3441 6.18525L19.5316 0.37275C19.3488 0.191412 19.1013 0.0903592 18.8437 0.0918123H3.34375C1.73865 0.0918123 0.4375 1.39296 0.4375 2.99806V28.1856C0.4375 29.7907 1.73865 31.0918 3.34375 31.0918H10.125V29.1543H3.34375C2.80876 29.1543 2.375 28.7206 2.375 28.1856Z"/>
<path d="M27.5625 15.5918H25.625V25.2793H27.5625V15.5918Z"/>
<path d="M22.7187 15.5918H18.8437C17.7737 15.5918 16.9062 16.4593 16.9062 17.5293V25.2793H18.8437V22.3731H22.7187V25.2793H24.6562V17.5293C24.6562 16.4593 23.7888 15.5918 22.7187 15.5918ZM22.7187 20.4355H18.8437V17.5293H22.7187V20.4355Z"/>
</svg>
