<svg width="31" height="31" viewBox="0 0 31 31" xmlns="http://www.w3.org/2000/svg">
<path d="M1.9375 28.0935V2.90602C1.9375 2.37097 2.3712 1.93727 2.90625 1.93727H17.4375V5.81227C17.4375 6.88232 18.305 7.74977 19.375 7.74977H23.25V10.656H25.1875V6.78102C25.189 6.52352 25.0879 6.276 24.9066 6.09321L19.0941 0.280709C18.9113 0.0993709 18.6638 -0.00168181 18.4063 -0.000228683H2.90625C1.30115 -0.000228683 0 1.30098 0 2.90602V28.0935C0 29.6986 1.30115 30.9998 2.90625 30.9998H9.6875V29.0623H2.90625C2.37126 29.0623 1.9375 28.6286 1.9375 28.0935Z"/>
<path d="M28.0938 19.375H26.1562C25.6212 19.375 25.1875 18.9413 25.1875 18.4062C25.1875 17.8712 25.6212 17.4375 26.1562 17.4375H28.0938C28.6288 17.4375 29.0625 17.8712 29.0625 18.4062H31C31 16.8012 29.6988 15.5 28.0938 15.5H26.1562C24.5512 15.5 23.25 16.8012 23.25 18.4062C23.25 20.0113 24.5512 21.3125 26.1562 21.3125H28.0938C28.6288 21.3125 29.0625 21.7462 29.0625 22.2812C29.0625 22.8163 28.6288 23.25 28.0938 23.25H26.1562C25.6212 23.25 25.1875 22.8163 25.1875 22.2812H23.25C23.25 23.8863 24.5512 25.1875 26.1562 25.1875H28.0938C29.6988 25.1875 31 23.8863 31 22.2812C31 20.6762 29.6988 19.375 28.0938 19.375Z"/>
<path d="M8.71875 17.4375H10.6563C11.1913 17.4375 11.625 17.8712 11.625 18.4062H13.5625C13.5625 16.8012 12.2614 15.5 10.6563 15.5H8.71875C7.11365 15.5 5.8125 16.8012 5.8125 18.4062C5.8125 20.0113 7.11365 21.3125 8.71875 21.3125H10.6563C11.1913 21.3125 11.625 21.7462 11.625 22.2812C11.625 22.8163 11.1913 23.25 10.6563 23.25H8.71875C8.1837 23.25 7.75 22.8163 7.75 22.2812H5.8125C5.8125 23.8863 7.11365 25.1875 8.71875 25.1875H10.6563C12.2614 25.1875 13.5625 23.8863 13.5625 22.2812C13.5625 20.6762 12.2614 19.375 10.6563 19.375H8.71875C8.1837 19.375 7.75 18.9413 7.75 18.4062C7.75 17.8712 8.18376 17.4375 8.71875 17.4375Z"/>
<path d="M18.4063 18.0091L15.2191 14.8123L13.8435 16.1879L17.4376 19.7723V25.1876H19.3751V19.7723L22.9691 16.1879L21.5935 14.8123L18.4063 18.0091Z"/>
</svg>
