<svg width="31" height="31" viewBox="0 0 31 31" fill="none" xmlns="http://www.w3.org/2000/svg">
<path d="M22.2812 15.5H18.4062C17.8712 15.5 17.4375 15.9337 17.4375 16.4688V24.2188C17.4375 24.7538 17.8712 25.1875 18.4062 25.1875H22.2812C23.3513 25.1875 24.2188 24.32 24.2188 23.25V17.4375C24.2188 16.3675 23.3513 15.5 22.2812 15.5ZM22.2812 23.25H19.375V17.4375H22.2812V23.25Z" fill="#1E9BAA"/>
<path d="M31 17.4375V15.5H26.1562C25.6212 15.5 25.1875 15.9337 25.1875 16.4688V25.1875H27.125V21.3125H31V19.375H27.125V17.4375H31Z" fill="#1E9BAA"/>
<path d="M1.9375 28.0938V2.90627C1.9375 2.37121 2.3712 1.93752 2.90625 1.93752H17.4375V5.81251C17.4375 6.88256 18.305 7.75002 19.375 7.75002H23.25V10.6563H25.1875V6.78126C25.189 6.52376 25.0879 6.27624 24.9066 6.09345L19.0941 0.280953C18.9113 0.099615 18.6638 -0.00143767 18.4062 1.54576e-05H2.90625C1.30115 1.54576e-05 0 1.30123 0 2.90627V28.0938C0 29.6989 1.30115 31 2.90625 31H9.6875V29.0625H2.90625C2.37126 29.0625 1.9375 28.6288 1.9375 28.0938Z" fill="#1E9BAA"/>
<path d="M14.5312 15.5H10.6562C10.1212 15.5 9.6875 15.9337 9.6875 16.4688V25.1875H11.625V22.2812H14.5312C15.6013 22.2812 16.4688 21.4138 16.4688 20.3438V17.4375C16.4688 16.3675 15.6013 15.5 14.5312 15.5ZM14.5312 20.3438H11.625V17.4375H14.5312V20.3438Z" fill="#1E9BAA"/>
</svg>
