<svg width="32" height="32" viewBox="0 0 32 32" fill="#1E9BAA" xmlns="http://www.w3.org/2000/svg">
<path d="M1.9834 28.5471V3.35963C1.9834 2.82458 2.4171 2.39088 2.95215 2.39088H17.4834V6.26588C17.4834 7.33593 18.3509 8.20339 19.4209 8.20339H23.2959V11.1096H25.2334V7.23463C25.2349 6.97713 25.1338 6.72961 24.9525 6.54682L19.14 0.734322C18.9572 0.552984 18.7097 0.451931 18.4522 0.453385H2.95215C1.34705 0.453385 0.0458984 1.7546 0.0458984 3.35963V28.5471C0.0458984 30.1522 1.34705 31.4534 2.95215 31.4534H10.7021V29.5159H2.95215C2.41716 29.5159 1.9834 29.0822 1.9834 28.5471Z"/>
<path d="M29.1084 14.0161H15.5459C14.4759 14.0161 13.6084 14.8836 13.6084 15.9536V29.5161C13.6084 30.5862 14.4759 31.4536 15.5459 31.4536H29.1084C30.1784 31.4536 31.0459 30.5862 31.0459 29.5161V15.9536C31.0459 14.8836 30.1784 14.0161 29.1084 14.0161ZM17.4834 29.5161H15.5459V27.5786H17.4834V29.5161ZM17.4834 25.6411H15.5459V23.7036H17.4834V25.6411ZM17.4834 21.7661H15.5459V19.8286H17.4834V21.7661ZM17.4834 17.8911H15.5459V15.9536H17.4834V17.8911ZM25.2334 29.5161H19.4209V23.7036H25.2334V29.5161ZM25.2334 21.7661H19.4209V15.9536H25.2334V21.7661ZM29.1084 29.5161H27.1709V27.5786H29.1084V29.5161ZM29.1084 25.6411H27.1709V23.7036H29.1084V25.6411ZM29.1084 21.7661H27.1709V19.8286H29.1084V21.7661ZM29.1084 17.8911H27.1709V15.9536H29.1084V17.8911Z"/>
</svg>
