<svg width="32" height="31" viewBox="0 0 32 31" fill="#1E9BAA" xmlns="http://www.w3.org/2000/svg">
<path d="M19.502 0.280709C19.3192 0.0993709 19.0717 -0.00168181 18.8142 -0.000228683H3.31421C1.70911 -0.000228683 0.407959 1.30098 0.407959 2.90602V28.0935C0.407959 29.6986 1.70911 30.9998 3.31421 30.9998H10.0955V29.0623H3.31421C2.77916 29.0623 2.34546 28.6286 2.34546 28.0935V2.90602C2.34546 2.37097 2.77916 1.93727 3.31421 1.93727H17.8455V5.81227C17.8455 6.88232 18.7129 7.74977 19.783 7.74977H23.658V10.656H25.5955V6.78102C25.597 6.52352 25.4959 6.276 25.3145 6.09321L19.502 0.280709Z"/>
<path d="M11.0642 17.4375H13.0017V25.1875H14.9392V17.4375H16.8767V15.5H11.0642V17.4375Z"/>
<path d="M8.15796 19.375H6.22046V15.5H4.28296V25.1875H6.22046V21.3125H8.15796V25.1875H10.0955V15.5H8.15796V19.375Z"/>
<path d="M24.9948 15.5776C24.6322 15.4283 24.2153 15.5125 23.9389 15.7907L21.7205 18.0092L19.502 15.7907C19.1252 15.4108 18.5119 15.4083 18.132 15.7851C17.9496 15.966 17.8465 16.2119 17.8455 16.4688V25.1876H19.783V18.8035L21.0326 20.0532C21.4105 20.4289 22.0207 20.4289 22.3986 20.0532L23.658 18.8035V25.1876H25.5955V16.4688C25.5935 16.0778 25.3566 15.7262 24.9948 15.5776Z"/>
<path d="M28.5017 23.25V15.5H26.5642V24.2187C26.5642 24.7538 26.9979 25.1875 27.533 25.1875H31.408V23.25H28.5017Z"/>
</svg>
