<svg width="32" height="32" viewBox="0 0 32 32" xmlns="http://www.w3.org/2000/svg">
<path d="M2.48364 28.1853V2.99782C2.48364 2.46277 2.91734 2.02907 3.45239 2.02907H17.9836V5.90407C17.9836 6.97411 18.8511 7.84157 19.9211 7.84157H23.7961V10.7478H25.7336V6.87282C25.7352 6.61531 25.634 6.3678 25.4527 6.18501L19.6402 0.372506C19.4574 0.191168 19.2099 0.0901151 18.9524 0.0915682H3.45239C1.8473 0.0915682 0.546143 1.39278 0.546143 2.99782V28.1853C0.546143 29.7904 1.8473 31.0916 3.45239 31.0916H10.2336V29.1541H3.45239C2.9174 29.1541 2.48364 28.7204 2.48364 28.1853Z"/>
<path d="M12.1711 15.5918H8.29614C7.76109 15.5918 7.32739 16.0255 7.32739 16.5605V24.3106C7.32739 24.8456 7.76109 25.2793 8.29614 25.2793H12.1711C13.2412 25.2793 14.1086 24.4118 14.1086 23.3418V17.5293C14.1086 16.4593 13.2412 15.5918 12.1711 15.5918ZM12.1711 23.3418H9.26489V17.5293H12.1711V23.3418Z"/>
<path d="M23.7961 15.5918V17.5293H26.7024V25.2793H28.6399V17.5293H31.5461V15.5918H23.7961Z"/>
<path d="M20.8899 15.5918H17.0149C15.9448 15.5918 15.0774 16.4593 15.0774 17.5293V25.2793H17.0149V22.3731H20.8899V25.2793H22.8274V17.5293C22.8274 16.4593 21.9599 15.5918 20.8899 15.5918ZM20.8899 20.4355H17.0149V17.5293H20.8899V20.4355Z"/>
</svg>
