<svg width="32" height="32" viewBox="0 0 32 32" fill="#1E9BAA" xmlns="http://www.w3.org/2000/svg">
<path d="M2.02954 28.1394V2.95192C2.02954 2.41687 2.46324 1.98317 2.99829 1.98317H17.5295V5.85817C17.5295 6.92822 18.397 7.79567 19.467 7.79567H23.342V10.7019H25.2795V6.82692C25.2811 6.56941 25.1799 6.3219 24.9986 6.13911L19.1861 0.326607C19.0033 0.145269 18.7558 0.0442166 18.4983 0.0456698H2.99829C1.39319 0.0456698 0.092041 1.34688 0.092041 2.95192V28.1394C0.092041 29.7445 1.39319 31.0457 2.99829 31.0457H9.77954V29.1082H2.99829C2.4633 29.1082 2.02954 28.6745 2.02954 28.1394Z"/>
<path d="M29.1545 15.5459V21.3584C29.1545 22.4046 27.682 23.2959 27.217 23.2959C26.752 23.2959 25.2795 22.4046 25.2795 21.3584V15.5459H23.342V21.3584C23.342 23.4993 25.6864 25.2334 27.217 25.2334C28.7477 25.2334 31.092 23.4993 31.092 21.3584V15.5459H29.1545Z"/>
<path d="M18.4983 15.5459C16.3582 15.5459 14.6233 17.2808 14.6233 19.4209V21.3584C14.6233 23.4985 16.3582 25.2334 18.4983 25.2334C20.6384 25.2334 22.3733 23.4985 22.3733 21.3584V19.4209C22.3733 17.2808 20.6384 15.5459 18.4983 15.5459ZM20.4358 21.3584C20.4358 22.4284 19.5683 23.2959 18.4983 23.2959C17.4282 23.2959 16.5608 22.4284 16.5608 21.3584V19.4209C16.5608 18.3509 17.4282 17.4834 18.4983 17.4834C19.5683 17.4834 20.4358 18.3509 20.4358 19.4209V21.3584Z"/>
<path d="M13.0539 15.6234C12.6913 15.4742 12.2744 15.5583 11.998 15.8365L9.77956 18.055L7.56112 15.8269C7.18434 15.447 6.571 15.4444 6.19113 15.8212C6.00634 16.0045 5.90304 16.2544 5.90456 16.5147V25.2334H7.84206V18.8494L9.09174 20.099C9.46962 20.4747 10.0798 20.4747 10.4577 20.099L11.7171 18.8494V25.2334H13.6546V16.5147C13.6526 16.1236 13.4157 15.7721 13.0539 15.6234Z"/>
</svg>
