<svg width="32" height="32" viewBox="0 0 32 32" xmlns="http://www.w3.org/2000/svg">
<path d="M2.8916 28.5012V3.31374C2.8916 2.77868 3.3253 2.34499 3.86035 2.34499H18.3916V6.21999C18.3916 7.29003 19.2591 8.15749 20.3291 8.15749H24.2041V11.0637H26.1416V7.18874C26.1431 6.93123 26.042 6.68371 25.8607 6.50092L20.0482 0.688424C19.8654 0.507086 19.6179 0.406033 19.3604 0.407486H3.86035C2.25525 0.407486 0.954102 1.7087 0.954102 3.31374V28.5012C0.954102 30.1063 2.25525 31.4075 3.86035 31.4075H10.6416V29.47H3.86035C3.32536 29.47 2.8916 29.0363 2.8916 28.5012Z"/>
<path d="M30.0166 19.7827H28.0791V21.7202H30.0166V23.6577H26.1416V17.8452H31.9541C31.9541 16.7752 31.0866 15.9077 30.0166 15.9077H26.1416C25.0716 15.9077 24.2041 16.7752 24.2041 17.8452V23.6577C24.2041 24.7278 25.0716 25.5952 26.1416 25.5952H30.0166C31.0866 25.5952 31.9541 24.7278 31.9541 23.6577V21.7202C31.9541 20.6502 31.0866 19.7827 30.0166 19.7827Z"/>
<path d="M21.2979 15.9077H17.4229C16.8878 15.9077 16.4541 16.3414 16.4541 16.8765V25.5952H18.3916V22.689H21.2979C22.3679 22.689 23.2354 21.8215 23.2354 20.7515V17.8452C23.2354 16.7752 22.3679 15.9077 21.2979 15.9077ZM21.2979 20.7515H18.3916V17.8452H21.2979V20.7515Z"/>
<path d="M13.5479 23.6577H9.67285V25.5952H13.5479C14.6179 25.5952 15.4854 24.7278 15.4854 23.6577V15.9077H13.5479V23.6577Z"/>
</svg>
