<svg width="32" height="32" viewBox="0 0 32 32" fill="#1E9BAA" xmlns="http://www.w3.org/2000/svg">
<path d="M2.84558 28.1853V2.99782C2.84558 2.46277 3.27928 2.02907 3.81433 2.02907H18.3456V5.90407C18.3456 6.97411 19.213 7.84157 20.2831 7.84157H24.1581V10.7478H26.0956V6.87282C26.0971 6.61531 25.996 6.3678 25.8146 6.18501L20.0021 0.372506C19.8194 0.191168 19.5718 0.0901151 19.3143 0.0915682H3.81433C2.20923 0.0915682 0.908081 1.39278 0.908081 2.99782V28.1853C0.908081 29.7904 2.20923 31.0916 3.81433 31.0916H10.5956V29.1541H3.81433C3.27934 29.1541 2.84558 28.7204 2.84558 28.1853Z"/>
<path d="M25.1268 15.5918H23.1893V25.2793H25.1268V15.5918Z"/>
<path d="M14.4706 17.5293H17.3768V25.2793H19.3143V17.5293H22.2206V15.5918H14.4706V17.5293Z"/>
<path d="M31.9081 17.5293V15.5918H27.0643C26.5293 15.5918 26.0956 16.0255 26.0956 16.5605V25.2793H28.0331V21.4043H31.9081V19.4668H28.0331V17.5293H31.9081Z"/>
</svg>
