<svg width="32" height="32" viewBox="0 0 32 32" fill="#1E9BAA" xmlns="http://www.w3.org/2000/svg">
<path d="M29.1545 19.7827H27.217V21.7202H29.1545V23.6577H25.2795V17.8452H31.092C31.092 16.7752 30.2246 15.9077 29.1545 15.9077H25.2795C24.2095 15.9077 23.342 16.7752 23.342 17.8452V23.6577C23.342 24.7278 24.2095 25.5952 25.2795 25.5952H29.1545C30.2246 25.5952 31.092 24.7278 31.092 23.6577V21.7202C31.092 20.6502 30.2246 19.7827 29.1545 19.7827Z"/>
<path d="M2.02954 28.5012V3.31374C2.02954 2.77868 2.46324 2.34499 2.99829 2.34499H17.5295V6.21999C17.5295 7.29003 18.397 8.15749 19.467 8.15749H23.342V11.0637H25.2795V7.18874C25.2811 6.93123 25.1799 6.68371 24.9986 6.50092L19.1861 0.688424C19.0033 0.507086 18.7558 0.406033 18.4983 0.407486H2.99829C1.39319 0.407486 0.092041 1.7087 0.092041 3.31374V28.5012C0.092041 30.1063 1.39319 31.4075 2.99829 31.4075H9.77954V29.47H2.99829C2.4633 29.47 2.02954 29.0363 2.02954 28.5012Z"/>
<path d="M8.81079 17.8452H10.7483C11.2833 17.8452 11.717 18.2789 11.717 18.814H13.6545C13.6545 17.2089 12.3534 15.9077 10.7483 15.9077H8.81079C7.20569 15.9077 5.90454 17.2089 5.90454 18.814C5.90454 20.4191 7.20569 21.7202 8.81079 21.7202H10.7483C11.2833 21.7202 11.717 22.1539 11.717 22.689C11.717 23.224 11.2833 23.6577 10.7483 23.6577H8.81079C8.27574 23.6577 7.84204 23.224 7.84204 22.689H5.90454C5.90454 24.2941 7.20569 25.5952 8.81079 25.5952H10.7483C12.3534 25.5952 13.6545 24.2941 13.6545 22.689C13.6545 21.0839 12.3534 19.7827 10.7483 19.7827H8.81079C8.27574 19.7827 7.84204 19.349 7.84204 18.814C7.84204 18.2789 8.2758 17.8452 8.81079 17.8452Z"/>
<path d="M20.4358 21.7202C20.4358 22.7665 18.9633 23.6577 18.4983 23.6577C18.0333 23.6577 16.5608 22.7665 16.5608 21.7202V15.9077H14.6233V21.7202C14.6233 23.8612 16.9677 25.5952 18.4983 25.5952C20.0289 25.5952 22.3733 23.8612 22.3733 21.7202V15.9077H20.4358V21.7202Z"/>
</svg>
