<svg width="32" height="31" viewBox="0 0 32 31" xmlns="http://www.w3.org/2000/svg">
<path d="M2.8916 28.0935V2.90602C2.8916 2.37097 3.3253 1.93727 3.86035 1.93727H18.3916V5.81227C18.3916 6.88232 19.2591 7.74977 20.3291 7.74977H24.2041V10.656H26.1416V6.78102C26.1431 6.52352 26.042 6.276 25.8607 6.09321L20.0482 0.280709C19.8654 0.0993709 19.6179 -0.00168181 19.3604 -0.000228683H3.86035C2.25525 -0.000228683 0.954102 1.30098 0.954102 2.90602V28.0935C0.954102 29.6986 2.25525 30.9998 3.86035 30.9998H10.6416V29.0623H3.86035C3.32536 29.0623 2.8916 28.6286 2.8916 28.0935Z"/>
<path d="M13.6544 16.0328L12.5791 18.1737L11.5038 16.0328C11.3396 15.7071 11.0064 15.5011 10.6416 15.5H8.7041V17.4375H10.041L11.4941 20.3437L10.041 23.25H8.7041V25.1875H10.6416C11.0064 25.1864 11.3396 24.9804 11.5038 24.6547L12.5791 22.5137L13.6544 24.6547C13.8186 24.9804 14.1518 25.1864 14.5166 25.1875H16.4541V23.25H15.1172L13.6641 20.3437L15.1172 17.4375H16.4541V15.5H14.5166C14.1518 15.5012 13.8186 15.7071 13.6544 16.0328Z"/>
<path d="M29.0479 19.375H27.1104C26.5753 19.375 26.1416 18.9413 26.1416 18.4062C26.1416 17.8712 26.5753 17.4375 27.1104 17.4375H29.0479C29.5829 17.4375 30.0166 17.8712 30.0166 18.4062H31.9541C31.9541 16.8012 30.6529 15.5 29.0479 15.5H27.1104C25.5053 15.5 24.2041 16.8012 24.2041 18.4062C24.2041 20.0113 25.5053 21.3125 27.1104 21.3125H29.0479C29.5829 21.3125 30.0166 21.7462 30.0166 22.2812C30.0166 22.8163 29.5829 23.25 29.0479 23.25H27.1104C26.5753 23.25 26.1416 22.8163 26.1416 22.2812H24.2041C24.2041 23.8863 25.5053 25.1875 27.1104 25.1875H29.0479C30.6529 25.1875 31.9541 23.8863 31.9541 22.2812C31.9541 20.6762 30.6529 19.375 29.0479 19.375Z"/>
<path d="M19.3604 15.5H17.4229V24.2187C17.4229 24.7538 17.8565 25.1875 18.3916 25.1875H23.2354V23.25H19.3604V15.5Z"/>
</svg>
