<svg width="94" height="101" viewBox="0 0 94 101" fill="none" xmlns="http://www.w3.org/2000/svg">
<rect width="36.2383" height="7.49577" rx="1.85328" transform="matrix(0.96577 0.256091 -0.272023 0.961296 58.8125 25.4375)" fill="#32BCFF"/>
<rect width="36.2383" height="7.49578" rx="1.85328" transform="matrix(0.96577 0.256091 -0.272023 0.961296 56.2695 34.7246)" fill="#EAF5FF"/>
<rect width="36.2383" height="7.49578" rx="1.85328" transform="matrix(0.96577 0.256091 -0.272023 0.961296 53.7266 44.0117)" fill="#EAF5FF"/>
<rect width="36.2383" height="7.49577" rx="1.85328" transform="matrix(0.96577 0.256091 -0.272023 0.961296 51.1797 53.2988)" fill="#EAF5FF"/>
<path d="M66.6336 18.2204C66.0045 18.1037 65.4 18.5184 65.283 19.1474L65.1253 19.9952L61.5659 22.5466L59.6641 18.4818V17.463C59.6641 16.8233 59.1455 16.3047 58.5058 16.3047C57.8661 16.3047 57.3475 16.8233 57.3475 17.463V18.4818L55.4456 22.5466L51.8878 19.9963L51.7231 19.1108C51.6061 18.4818 51.0017 18.067 50.3725 18.1838C49.7435 18.3008 49.3285 18.9054 49.4455 19.5344L49.6954 20.8781L50.943 27.5859C50.6037 27.7879 50.3757 28.1572 50.3757 28.5808C50.3757 29.2205 50.8943 29.7391 51.534 29.7391H65.4775C66.1172 29.7391 66.6358 29.2205 66.6358 28.5808C66.6358 28.1572 66.4078 27.7879 66.0685 27.5859L67.3039 20.9438C67.306 20.9341 67.3088 20.9247 67.3107 20.9148L67.5606 19.5711C67.6776 18.942 67.2626 18.3374 66.6336 18.2204Z" fill="#FFD02C"/>
<path d="M38.4124 19.3106C38.4279 19.062 38.6086 18.8506 38.8517 18.7965C38.9247 18.7802 39.5911 18.638 40.4903 18.638C40.5417 18.638 40.5941 18.6385 40.6468 18.6395C42.0035 18.6652 43.1361 19.034 43.9225 19.7059C43.9771 19.7525 44.0302 19.8015 44.0824 19.8519C44.3133 18.6913 44.6927 17.5523 45.22 16.4596C44.0997 15.8524 43.3019 15.0584 42.9086 14.1542C42.4962 13.2057 42.4748 12.0147 42.847 10.7099C43.1191 9.75586 43.5059 9.06805 43.5223 9.03909C43.622 8.86318 43.8093 8.75384 44.0111 8.75384C44.0551 8.75384 44.0992 8.75909 44.1426 8.76952C44.1748 8.77724 44.9408 8.96295 45.8249 9.41478C47.0331 10.0322 47.8899 10.86 48.3024 11.8084C48.7148 12.7569 48.7362 13.948 48.364 15.2527C48.0988 16.1825 47.7257 16.8577 47.6918 16.9182C47.6847 16.9326 47.6787 16.9472 47.671 16.9614C45.9227 20.1586 45.7524 23.9061 47.2038 27.2432C48.7554 30.8109 51.9688 33.3664 55.7995 34.0789C56.454 34.2007 56.8858 34.83 56.7641 35.4844C56.7638 35.4867 56.7631 35.4888 56.7626 35.491C56.7301 35.8019 56.6497 36.3651 56.4574 37.0143C56.072 38.3152 55.4154 39.3091 54.5588 39.8887C53.8574 40.3631 52.9278 40.6139 51.8707 40.6139C51.6481 40.6139 51.417 40.6028 51.1841 40.581C50.2139 40.4901 49.4964 40.2506 49.4179 40.2237C49.1823 40.1427 49.0265 39.9123 49.0389 39.6639C49.0432 39.5807 49.0884 38.8242 49.3649 37.8912C49.7503 36.5903 50.4069 35.5963 51.2636 35.0168C51.2651 35.0158 51.2666 35.0149 51.2681 35.0139C50.2284 34.4575 49.2655 33.7731 48.3994 32.9795C48.172 33.1294 47.8966 33.2958 47.5826 33.4568C46.6841 33.9172 45.8155 34.1507 45.0012 34.1507C44.765 34.1507 44.5336 34.1303 44.3117 34.0899L44.311 34.0898C44.271 34.0825 44.2313 34.0745 44.192 34.066C43.1814 33.8457 42.2029 33.1663 41.3624 32.1012C40.7472 31.3219 40.416 30.6065 40.4022 30.5763C40.2983 30.3499 40.3574 30.0781 40.546 29.9156C40.609 29.8614 41.1869 29.3725 42.0537 28.9283C42.9523 28.4678 43.8209 28.2344 44.6352 28.2344C44.7636 28.2344 44.8902 28.2411 45.0149 28.2531C45.0078 28.2368 45.0001 28.2209 44.993 28.2047C44.5717 27.236 44.2648 26.2385 44.0694 25.2286C43.9035 25.2388 43.7246 25.2454 43.5344 25.2454C43.4829 25.2454 43.4306 25.2449 43.3773 25.2439C42.0208 25.2182 40.888 24.8494 40.1017 24.1776C39.3153 23.5056 38.7743 22.4442 38.5373 21.1083C38.364 20.1313 38.4104 19.3438 38.4124 19.3106Z" fill="#32BCFF"/>
<path d="M77.9364 19.311C77.921 19.0624 77.7403 18.851 77.4972 18.7968C77.4241 18.7806 76.7578 18.6384 75.8585 18.6384C75.807 18.6384 75.7548 18.6388 75.7019 18.6398C74.3453 18.6656 73.2126 19.0344 72.4263 19.7063C72.3717 19.7529 72.3186 19.8019 72.2664 19.8522C72.0355 18.6917 71.6561 17.5526 71.1288 16.46C72.2491 15.8528 73.0468 15.0588 73.4401 14.1546C73.8526 13.2061 73.874 12.0151 73.5018 10.7103C73.2296 9.75622 72.8428 9.06841 72.8265 9.03946C72.7268 8.86355 72.5395 8.7542 72.3376 8.7542C72.2937 8.7542 72.2496 8.75945 72.2061 8.76988C72.1739 8.7776 71.408 8.96332 70.5239 9.41514C69.3157 10.0326 68.4589 10.8603 68.0464 11.8088C67.634 12.7573 67.6126 13.9483 67.9848 15.2531C68.25 16.1829 68.6231 16.858 68.6571 16.9186C68.6642 16.9329 68.6701 16.9476 68.6779 16.9617C70.4262 20.1589 70.5965 23.9065 69.1451 27.2435C67.5934 30.8113 64.3801 33.3668 60.5494 34.0793C59.8948 34.2011 59.463 34.8304 59.5847 35.4848C59.5851 35.487 59.5858 35.4891 59.5863 35.4914C59.6188 35.8023 59.6992 36.3654 59.8914 37.0146C60.2769 38.3156 60.9335 39.3095 61.7901 39.889C62.4915 40.3635 63.4211 40.6142 64.4782 40.6142C64.7008 40.6142 64.9318 40.6032 65.1647 40.5813C66.1349 40.4905 66.8525 40.251 66.9309 40.224C67.1665 40.143 67.3224 39.9127 67.3099 39.6643C67.3057 39.5811 67.2605 38.8246 66.9841 37.8916C66.5986 36.5906 65.942 35.5966 65.0853 35.0172C65.0839 35.0162 65.0823 35.0152 65.0809 35.0143C66.1205 34.4578 67.0834 33.7734 67.9496 32.9799C68.177 33.1297 68.4523 33.2962 68.7663 33.4571C69.6649 33.9175 70.5334 34.151 71.3477 34.151C71.584 34.151 71.8153 34.1307 72.0373 34.0903L72.038 34.0901C72.078 34.0829 72.1176 34.0749 72.157 34.0663C73.1675 33.846 74.146 33.1667 74.9866 32.1016C75.6017 31.3223 75.9329 30.6069 75.9467 30.5767C76.0507 30.3503 75.9915 30.0785 75.803 29.916C75.7399 29.8617 75.162 29.3729 74.2952 28.9286C73.3966 28.4682 72.5281 28.2347 71.7137 28.2347C71.5854 28.2347 71.4587 28.2415 71.334 28.2534C71.3411 28.2372 71.3488 28.2213 71.3559 28.2051C71.7773 27.2363 72.0841 26.2389 72.2796 25.229C72.4455 25.2392 72.6244 25.2457 72.8145 25.2457C72.8661 25.2457 72.9183 25.2453 72.9716 25.2443C74.3282 25.2186 75.4609 24.8497 76.2472 24.1779C77.0336 23.5059 77.5746 22.4446 77.8116 21.1087C77.9848 20.1317 77.9384 19.3442 77.9364 19.311Z" fill="#32BCFF"/>
<path d="M83.7804 71.8857C84.1014 71.8363 84.3706 72.1271 84.2966 72.4434L80.262 89.6864C80.1782 90.0442 79.7286 90.1631 79.479 89.8934L66.011 75.3448C65.7614 75.0751 65.9145 74.636 66.2778 74.5801L83.7804 71.8857Z" fill="#FF5C52"/>
<path d="M77.2194 84.7395C77.4052 84.5675 77.4164 84.2774 77.2444 84.0915L71.6236 78.0197C71.4515 77.8339 71.1614 77.8227 70.9756 77.9947L66.407 82.2239C66.2211 82.396 66.2099 82.6861 66.382 82.8719L72.0027 88.9438C72.1748 89.1296 72.4649 89.1408 72.6507 88.9688L77.2194 84.7395Z" fill="#FF5C52"/>
<path d="M70.58 90.8857C70.7658 90.7136 70.777 90.4235 70.605 90.2377L64.9842 84.1659C64.8122 83.98 64.522 83.9688 64.3362 84.1409L61.7478 86.537C61.5619 86.7091 61.5507 86.9992 61.7228 87.185L67.3435 93.2569C67.5156 93.4427 67.8057 93.4539 67.9915 93.2819L70.58 90.8857Z" fill="#FF5C52"/>
<path d="M65.9208 95.1988C66.1066 95.0268 66.1178 94.7366 65.9458 94.5508L60.325 88.479C60.153 88.2931 59.8628 88.2819 59.677 88.454L58.2533 89.7719C58.0675 89.9439 58.0563 90.234 58.2284 90.4199L63.8491 96.4917C64.0212 96.6775 64.3113 96.6887 64.4971 96.5167L65.9208 95.1988Z" fill="#FF5C52"/>
<path d="M62.4264 98.4336C62.6122 98.2616 62.6234 97.9715 62.4514 97.7856L56.8306 91.7138C56.6585 91.528 56.3684 91.5168 56.1826 91.6888L55.9237 91.9284C55.7379 92.1005 55.7267 92.3906 55.8987 92.5764L61.5195 98.6482C61.6916 98.8341 61.9817 98.8453 62.1675 98.6732L62.4264 98.4336Z" fill="#FF5C52"/>
<rect width="57.618" height="23.356" rx="9.57528" transform="matrix(0.968361 -0.246857 0.268117 0.962598 0 76.793)" fill="#EAF5FF"/>
<path d="M11.294 79.7688C11.3439 79.2053 12.0764 79.0198 12.4148 79.485L14.3818 82.1892C14.5262 82.3877 14.7734 82.4864 15.0131 82.4413L18.2037 81.8396C18.7493 81.7367 19.1597 82.3439 18.8492 82.7948L16.9708 85.5225C16.8399 85.7125 16.8306 85.9615 16.9466 86.1659L18.6347 89.1396C18.915 89.6334 18.44 90.1958 17.9003 90.009L14.8225 88.9436C14.5837 88.861 14.3212 88.9275 14.1573 89.1121L12.0454 91.4919C11.675 91.9092 10.9686 91.646 10.9532 91.0851L10.8607 87.7073C10.8543 87.4751 10.7158 87.2635 10.5029 87.1606L7.44549 85.683C6.94016 85.4388 6.97824 84.7181 7.50539 84.5492L10.5879 83.562C10.8194 83.4879 10.9822 83.2853 11.0035 83.0449L11.294 79.7688Z" fill="#FFD02C"/>
<path d="M28.7979 75.1087C28.8479 74.5452 29.5804 74.3597 29.9187 74.8248L31.8857 77.5291C32.0301 77.7276 32.2774 77.8263 32.517 77.7811L35.7076 77.1795C36.2532 77.0766 36.6636 77.6838 36.3531 78.1346L34.4747 80.8623C34.3438 81.0523 34.3345 81.3014 34.4505 81.5057L36.1386 84.4794C36.4189 84.9732 35.9439 85.5356 35.4042 85.3488L32.3264 84.2835C32.0876 84.2008 31.8251 84.2673 31.6612 84.4519L29.5493 86.8318C29.179 87.249 28.4725 86.9859 28.4571 86.425L28.3646 83.0472C28.3582 82.815 28.2197 82.6034 28.0068 82.5005L24.9494 81.0229C24.4441 80.7786 24.4821 80.0579 25.0093 79.8891L28.0918 78.9019C28.3233 78.8277 28.4861 78.6252 28.5074 78.3847L28.7979 75.1087Z" fill="#FFD02C"/>
<path d="M46.2979 70.4427C46.3479 69.8792 47.0804 69.6936 47.4187 70.1588L49.3857 72.8631C49.5301 73.0616 49.7774 73.1603 50.017 73.1151L53.2076 72.5135C53.7532 72.4106 54.1636 73.0177 53.8531 73.4686L51.9747 76.1963C51.8438 76.3863 51.8345 76.6353 51.9505 76.8397L53.6386 79.8134C53.9189 80.3072 53.4439 80.8696 52.9042 80.6828L49.8264 79.6174C49.5876 79.5348 49.3251 79.6013 49.1612 79.7859L47.0493 82.1657C46.679 82.583 45.9725 82.3199 45.9571 81.7589L45.8646 78.3811C45.8582 78.149 45.7197 77.9374 45.5068 77.8344L42.4494 76.3568C41.9441 76.1126 41.9821 75.3919 42.5093 75.2231L45.5918 74.2359C45.8233 74.1617 45.9861 73.9592 46.0074 73.7187L46.2979 70.4427Z" fill="#FFD02C"/>
<path d="M20.3475 27.6263L6.15949 38.5353C3.43947 40.6266 2.97795 44.5909 5.13067 47.3723L16.3596 61.8803C18.5124 64.6617 22.4767 65.223 25.1967 63.1317L39.3847 52.2227C42.1047 50.1313 42.5663 46.167 40.4135 43.3856L29.1846 28.8776C27.0318 26.0962 23.0676 25.5349 20.3475 27.6263ZM23.3018 55.5859C23.3824 56.1378 23.1535 56.6574 22.7473 56.9697C22.5481 57.1229 22.3064 57.2262 22.0376 57.2591C21.2205 57.3593 20.458 56.7716 20.338 55.9491L20.2523 55.3624L22.9647 53.2769L23.3018 55.5859ZM19.0969 54.7182C18.4493 55.2161 17.5054 55.0825 16.9929 54.4202C16.4803 53.758 16.5902 52.8141 17.2378 52.3162L19.5482 50.5398L18.3731 42.4905L16.3369 41.6297C15.5693 41.3051 15.1925 40.4209 15.497 39.6586C15.8016 38.8962 16.6741 38.5401 17.4417 38.8646L17.8703 39.0457L17.8033 38.5866C17.6833 37.764 18.2504 37.0134 19.0674 36.9134C19.4633 36.8649 19.8581 36.9745 20.1791 37.2219C20.5001 37.4693 20.7089 37.8251 20.7671 38.2235L22.2606 48.4542L24.8013 46.5008L28.0166 47.86L19.0969 54.7182ZM32.7682 44.2065L31.814 44.9402L33.6477 45.7154C34.4153 46.0399 34.7921 46.9241 34.4876 47.6864C34.3893 47.9325 34.2307 48.1415 34.0272 48.298C33.9251 48.3765 33.8119 48.4417 33.6892 48.4918C33.3218 48.6417 32.9147 48.6377 32.5428 48.4805L22.8745 44.3933L22.3716 40.9486L28.5987 43.581L30.9091 41.8045C31.5567 41.3066 32.5006 41.4403 33.0132 42.1025C33.5257 42.7647 33.4158 43.7086 32.7682 44.2065Z" fill="#EAF5FF"/>
<path d="M19.0969 54.7182C18.4493 55.2161 17.5054 55.0825 16.9929 54.4202C16.4803 53.758 16.5902 52.8141 17.2378 52.3162L19.5482 50.5398L18.3731 42.4905L16.3369 41.6297C15.5693 41.3051 15.1925 40.4209 15.497 39.6586C15.8016 38.8962 16.6741 38.5401 17.4417 38.8646L17.8703 39.0457L17.8033 38.5866C17.6833 37.764 18.2504 37.0134 19.0674 36.9134C19.4633 36.8649 19.8581 36.9745 20.1791 37.2219C20.5001 37.4693 20.7089 37.8251 20.7671 38.2235L22.2606 48.4542L24.8013 46.5008L28.0166 47.86L19.0969 54.7182Z" fill="#EAF5FF"/>
<path d="M32.7682 44.2065L31.814 44.9402L33.6477 45.7154C34.4153 46.0399 34.7921 46.9241 34.4876 47.6864C34.3893 47.9325 34.2307 48.1415 34.0272 48.298C33.9251 48.3765 33.8119 48.4417 33.6892 48.4918C33.3218 48.6417 32.9147 48.6377 32.5428 48.4805L22.8745 44.3933L22.3716 40.9486L28.5987 43.581L30.9091 41.8045C31.5567 41.3066 32.5006 41.4403 33.0132 42.1025C33.5257 42.7647 33.4158 43.7086 32.7682 44.2065Z" fill="#EAF5FF"/>
<path d="M23.3018 55.5859C23.3824 56.1378 23.1535 56.6574 22.7473 56.9697C22.5481 57.1229 22.3064 57.2262 22.0376 57.2591C21.2205 57.3593 20.458 56.7716 20.338 55.9491L20.2523 55.3624L22.9647 53.2769L23.3018 55.5859Z" fill="#EAF5FF"/>
<path fill-rule="evenodd" clip-rule="evenodd" d="M16.9878 54.4271C17.5008 55.0898 18.4453 55.2236 19.0935 54.7252L28.0199 47.8617L24.8021 46.5015L22.2596 48.4565L20.7649 38.2179C20.7067 37.8191 20.4977 37.4631 20.1764 37.2155C19.8552 36.9679 19.46 36.8582 19.0639 36.9068C18.2463 37.0069 17.6787 37.758 17.7988 38.5812L17.8659 39.0407L17.437 38.8594C16.6687 38.5347 15.7956 38.8911 15.4908 39.654C15.186 40.417 15.5631 41.3019 16.3314 41.6267L18.3691 42.4881L19.5451 50.5436L17.233 52.3214C16.5848 52.8197 16.4749 53.7643 16.9878 54.4271ZM32.7751 44.2055L31.8202 44.9398L33.6552 45.7155C34.4235 46.0402 34.8005 46.9252 34.4958 47.6881C34.3974 47.9343 34.2387 48.1435 34.035 48.3001C33.9329 48.3787 33.8196 48.4439 33.6968 48.494C33.3291 48.6441 32.9217 48.6401 32.5495 48.4827L22.8739 44.3925L22.3706 40.9451L28.6024 43.5795L30.9146 41.8017C31.5627 41.3033 32.5073 41.4371 33.0202 42.0998C33.5332 42.7626 33.4232 43.7072 32.7751 44.2055ZM22.7465 56.9785C23.1531 56.6659 23.3822 56.1459 23.3015 55.5936L22.9642 53.2828L20.2497 55.3699L20.3354 55.9571C20.4556 56.7802 21.2187 57.3683 22.0364 57.2681C22.3054 57.2351 22.5472 57.1318 22.7465 56.9785Z" fill="#FF5C52"/>
</svg>
