<svg width="99" height="96" viewBox="0 0 99 96" fill="none" xmlns="http://www.w3.org/2000/svg">
<g clip-path="url(#clip0)">
<g clip-path="url(#clip1)">
<rect x="14.1133" y="51.8145" width="39.4801" height="39.4801" rx="4.37262" transform="rotate(5.34044 14.1133 51.8145)" fill="#EAF5FF"/>
<rect x="14.8477" y="62.4004" width="7.72436" height="25.4046" rx="0.874525" transform="rotate(5.34044 14.8477 62.4004)" fill="#FFD02C"/>
<rect x="24.8867" y="56.4434" width="7.72437" height="32.2707" rx="0.874525" transform="rotate(5.34044 24.8867 56.4434)" fill="#FF5C52"/>
<rect x="32.6094" y="75.2656" width="7.72436" height="14.2472" rx="0.874525" transform="rotate(5.34044 32.6094 75.2656)" fill="#32BCFF"/>
<rect x="42.5039" y="70.8477" width="7.72437" height="19.5684" rx="0.874525" transform="rotate(5.34044 42.5039 70.8477)" fill="#32BCFF"/>
</g>
<rect x="55.0234" y="49.3652" width="39.4801" height="39.4801" rx="4.37262" transform="rotate(-5.48544 55.0234 49.3652)" fill="#EAF5FF"/>
<path d="M58.4922 53.1719L74.2119 51.6623" stroke="#6BCFFF" stroke-width="4.37262" stroke-linecap="round"/>
<path d="M58.8711 57.0996L90.1397 54.0968" stroke="#FF5C52" stroke-width="4.37262" stroke-linecap="round"/>
<path d="M59.2461 61.0312L70.5233 59.9483" stroke="#00CECB" stroke-width="4.37262" stroke-linecap="round"/>
<path d="M59.625 64.959L78.5912 63.1376" stroke="#FFD02C" stroke-width="4.37262" stroke-linecap="round"/>
<path d="M60.0039 68.8906L84.4378 66.5442" stroke="#FF5C52" stroke-width="4.37262" stroke-linecap="round"/>
<path d="M60.3789 72.8203L79.3451 70.9989" stroke="#FFD02C" stroke-width="4.37262" stroke-linecap="round"/>
<path d="M60.7578 76.75L66.3964 76.2085" stroke="#00CECB" stroke-width="4.37262" stroke-linecap="round"/>
<path d="M61.1367 80.6797L76.0021 79.2521" stroke="#6BCFFF" stroke-width="4.37262" stroke-linecap="round"/>
<path d="M61.5117 84.6094L84.237 82.427" stroke="#FF5C52" stroke-width="4.37262" stroke-linecap="round"/>
<rect x="44.9336" y="5.55078" width="39.4801" height="39.4801" rx="4.37262" transform="rotate(-7.6207 44.9336 5.55078)" fill="#EAF5FF"/>
<path d="M81.0876 7.81358L77.6975 15.5724C76.8249 17.5693 74.393 18.3403 72.5293 17.2109V17.2109C70.624 16.0563 68.1379 16.8906 67.3147 18.9609L65.7847 22.8087C64.8904 25.0579 62.0522 25.7653 60.2069 24.1988V24.1988C58.3876 22.6545 55.5925 23.317 54.66 25.5136L51.5358 32.8723L52.5632 40.5515L84.8892 36.2264" stroke="#FFD02C" stroke-width="2.18631"/>
<path d="M48.4414 9.75781L52.5616 40.5525L85.9084 36.0908" stroke="#32BCFF" stroke-width="2.62357"/>
<path d="M52.1965 37.8297L55.0873 34.5368C56.7588 32.6326 59.3945 31.8906 61.814 32.6429V32.6429C63.8011 33.2608 65.9645 32.8765 67.6173 31.6122L68.9361 30.6033C70.269 29.5837 71.8453 28.9302 73.5087 28.7076L73.9684 28.6461C76.2398 28.3422 78.3663 27.3591 80.0692 25.8257L83.2812 22.9334" stroke="#FF5C52" stroke-width="2.18631"/>
<rect x="5.72266" y="6.35547" width="39.4801" height="39.4801" rx="4.37262" transform="rotate(8.09024 5.72266 6.35547)" fill="#EAF5FF"/>
<path d="M33.9155 39.6707C31.9346 41.7196 29.4438 43.2041 26.6992 43.9716C23.9545 44.7391 21.055 44.762 18.2986 44.0378C15.5422 43.3136 13.0284 41.8686 11.0154 39.8511C9.00249 37.8336 7.56304 35.3166 6.84504 32.5586C6.12703 29.8006 6.15636 26.9011 6.93002 24.1582C7.70368 21.4153 9.19375 18.9279 11.2471 16.9515C13.3005 14.9752 15.843 13.5813 18.6135 12.913C21.384 12.2448 24.2824 12.3263 27.011 13.1492L25.1573 19.2955C23.5202 18.8018 21.7811 18.7529 20.1188 19.1539C18.4566 19.5548 16.931 20.3912 15.699 21.577C14.467 22.7627 13.5729 24.2552 13.1088 25.901C12.6446 27.5467 12.627 29.2864 13.0578 30.9412C13.4886 32.596 14.3522 34.1062 15.56 35.3167C16.7678 36.5272 18.2761 37.3942 19.9299 37.8287C21.5838 38.2632 23.3235 38.2495 24.9702 37.789C26.617 37.3285 28.1115 36.4378 29.3 35.2084L33.9155 39.6707Z" fill="#00CECB"/>
<path d="M35.2107 39.5144C36.9846 37.4361 38.2247 34.9564 38.8232 32.2904C39.4217 29.6244 39.3607 26.8526 38.6453 24.2155C37.93 21.5784 36.5819 19.1557 34.7182 17.1576C32.8544 15.1595 30.5313 13.6464 27.9503 12.7495L25.3589 20.2068C26.7265 20.6821 27.9575 21.4838 28.9451 22.5426C29.9326 23.6013 30.6469 24.885 31.0259 26.2824C31.405 27.6797 31.4373 29.1484 31.1202 30.561C30.8031 31.9737 30.146 33.2876 29.206 34.3888L35.2107 39.5144Z" fill="#FFD02C"/>
</g>
<defs>
<clipPath id="clip0">
<path d="M0 0.402344H98.1405V95.4023H0V0.402344Z" fill="white"/>
</clipPath>
<clipPath id="clip1">
<rect x="14.1133" y="51.8145" width="39.4801" height="39.4801" rx="4.37262" transform="rotate(5.34044 14.1133 51.8145)" fill="white"/>
</clipPath>
</defs>
</svg>
