<svg width="95" height="97" viewBox="0 0 95 97" fill="none" xmlns="http://www.w3.org/2000/svg">
<ellipse rx="15.4358" ry="15.6477" transform="matrix(0.990208 0.139402 -0.149454 0.988738 20.7898 32.7189)" fill="white"/>
<path fill-rule="evenodd" clip-rule="evenodd" d="M17.6348 53.1541C28.6821 54.6745 39.0528 46.762 40.7984 35.4809C42.544 24.1998 35.0034 13.8222 23.9561 12.3018C12.9088 10.7814 2.53806 18.6939 0.79248 29.975C-0.953095 41.256 6.58746 51.6337 17.6348 53.1541ZM18.6883 46.3454C26.0532 47.359 32.967 42.084 34.1307 34.5632C35.2945 27.0425 30.2674 20.1241 22.9025 19.1105C15.5376 18.0969 8.62385 23.3719 7.46013 30.8926C6.29642 38.4133 11.3235 45.3318 18.6883 46.3454Z" fill="#32BCFF"/>
<path d="M27.4631 33.6456C26.8812 37.4059 23.4243 40.0435 19.7419 39.5367C16.0594 39.0299 13.5459 35.5706 14.1278 31.8103C14.7096 28.0499 18.1665 25.4124 21.849 25.9192C25.5314 26.426 28.0449 29.8852 27.4631 33.6456Z" fill="#32BCFF"/>
<path fill-rule="evenodd" clip-rule="evenodd" d="M17.6348 53.1541C28.6821 54.6745 39.0528 46.762 40.7984 35.4809C42.544 24.1998 35.0034 13.8222 23.9561 12.3018C12.9088 10.7814 2.53806 18.6939 0.79248 29.975C-0.953096 41.256 6.58747 51.6337 17.6348 53.1541ZM18.6883 46.3454C26.0532 47.359 32.967 42.084 34.1307 34.5632C35.2945 27.0425 30.2674 20.1241 22.9025 19.1105C15.5376 18.0969 8.62385 23.3719 7.46013 30.8926C6.29642 38.4133 11.3235 45.3318 18.6883 46.3454Z" fill="#FF5C52"/>
<rect width="39.8498" height="32.6461" rx="5.59641" transform="matrix(0.953556 0.300432 -0.311827 0.949866 57.8516 36.3047)" fill="#EAF5FF"/>
<rect width="33.7987" height="18.897" rx="2.09865" transform="matrix(0.953446 0.300748 -0.311484 0.949968 57.4531 47.2734)" fill="#FF5C52"/>
<path d="M70.009 64.1627L77.5299 60.191L76.2808 57.6839L72.9382 59.4491L75.0904 52.8937L72.5864 52.1048L70.4341 58.6602L68.7686 55.3173L66.2616 56.6412L70.009 64.1627Z" fill="#FFD02C"/>
<path d="M60.8255 62.6789L78.3541 68.2009L77.5155 70.7549L59.987 65.2329L60.8255 62.6789Z" fill="#FFD02C"/>
<path d="M74.6173 74.9406L75.8582 74.2987L77.2027 76.9432C77.5908 77.7068 78.5405 77.9973 79.3237 77.5922L79.3441 77.5816C80.1274 77.1765 80.4476 76.229 80.0594 75.4655L78.715 72.821L80.0928 72.1083C81.1135 71.5803 81.2817 70.2057 80.4115 69.5027L73.9243 64.2619L73.3568 64.9413L73.9243 64.2619C73.1014 63.597 71.8453 64.2467 71.9003 65.3088L72.3337 73.6811C72.3918 74.8041 73.5966 75.4685 74.6173 74.9406Z" fill="#32BCFF" stroke="white" stroke-width="1.74888"/>
<path d="M32.613 82.3652L38.8493 74.478C41.6961 70.8777 41.0821 65.655 37.4779 62.8129V62.8129C33.8736 59.9709 28.644 60.5856 25.7972 64.1859L19.5609 72.0731" stroke="#FF5C52" stroke-width="9.44394"/>
<path d="M32.6836 82.334L29.7783 86.0104M19.5897 72.003L16.6844 75.6795" stroke="#FFD02C" stroke-width="9.44394"/>
<path d="M13.117 85.5115L23.2803 79.2192C23.6786 78.9726 24.1392 79.4176 23.9066 79.8242L18.1328 89.9166C17.9912 90.1641 17.6597 90.2219 17.4455 90.0365L13.0559 86.2365C12.8265 86.0379 12.8573 85.6723 13.117 85.5115Z" fill="#32BCFF"/>
<path d="M23.0049 89.2687L12.8416 95.5611C12.4433 95.8076 11.9827 95.3626 12.2153 94.956L17.9891 84.8637C18.1307 84.6162 18.4622 84.5583 18.6764 84.7437L23.0659 88.5437C23.2953 88.7423 23.2646 89.1079 23.0049 89.2687Z" fill="#32BCFF"/>
<rect width="30.0082" height="29.8053" rx="10.3055" transform="matrix(0.997163 -0.111805 0.10013 0.991515 43.2891 4.21094)" fill="#EAF5FF"/>
<g clip-path="url(#clip0)">
<path d="M62.9129 8.7965C60.7396 7.84748 58.1875 8.84004 57.2075 11.0161L51.1257 24.5211C49.5562 28.0063 53.0013 31.6306 56.5855 30.2361C57.6631 29.8169 58.5173 29.0069 58.9909 27.9554L65.0727 14.4503C66.0502 12.2797 65.0813 9.74333 62.9129 8.7965Z" fill="#FFD02C"/>
<path d="M73.3756 22.0275L64.7329 10.1734C64.06 9.25042 63.063 8.64803 61.9258 8.47712C58.1422 7.90839 55.5003 12.217 57.7297 15.2747L66.3724 27.1289C67.7644 29.0381 70.4575 29.4438 72.3934 28.0337C74.3241 26.6272 74.7648 23.9328 73.3756 22.0275Z" fill="#FF5C52"/>
<path d="M59.0943 24.6689C58.2503 22.4595 55.7629 21.373 53.5328 22.2405C49.9473 23.6354 49.8072 28.6555 53.2872 30.1751C56.7591 31.691 60.4589 28.2412 59.0943 24.6689Z" fill="#32BCFF"/>
</g>
<defs>
<clipPath id="clip0">
<rect width="23.4736" height="23.4736" transform="matrix(0.997163 -0.111805 0.10013 0.991515 48.9414 8.74414)" fill="white"/>
</clipPath>
</defs>
</svg>
