<svg xmlns="http://www.w3.org/2000/svg" width="26" height="26" viewBox="0 0 26 26">
    <path fill="#FFF" d="M21.048 21.048c1.025 0 1.857-.832 1.857-1.858V8.048c0-1.026-.832-1.857-1.857-1.857h-3.405l-.553-1.47c-.225-.608-.801-1.007-1.447-1.007h-5.069c-.774 0-1.466.48-1.737 1.204l-.48 1.273H4.952c-1.025 0-1.857.831-1.857 1.857V19.19c0 1.026.832 1.858 1.857 1.858h16.096zm0-1.858H4.952V8.048h4.694l.928-2.477h4.856l.924 2.477h4.694V19.19zM13 18.262c2.561 0 4.643-2.082 4.643-4.643S15.56 8.976 13 8.976s-4.643 2.082-4.643 4.643S10.44 18.262 13 18.262zm0-1.857c-1.536 0-2.786-1.25-2.786-2.786s1.25-2.786 2.786-2.786 2.786 1.25 2.786 2.786-1.25 2.786-2.786 2.786z"/>
</svg>
