<svg xmlns="http://www.w3.org/2000/svg" width="30" height="30" viewBox="0 0 30 30">
    <g fill="#FFF" fill-rule="evenodd">
        <path fill-rule="nonzero" d="M15.009 6.629c4.64 0 8.403 3.793 8.403 8.473 0 4.68-3.762 8.473-8.403 8.473-4.642 0-8.404-3.794-8.404-8.473 0-1.025.335-1.997 1.182-3.734l-2.562-1.27C4.192 12.214 3.75 13.5 3.75 15.102c0 6.27 5.04 11.352 11.259 11.352 6.218 0 11.258-5.083 11.258-11.352 0-6.27-5.04-11.352-11.258-11.352v2.879z"/>
        <path d="M9.486 4.823l4.89-3.744c.263-.201.64-.151.841.112.08.105.124.233.124.365v7.488c0 .33-.269.6-.6.6-.132 0-.26-.044-.365-.124l-4.89-3.744c-.263-.201-.313-.578-.112-.841.032-.042.07-.08.112-.112z"/>
    </g>
</svg>
