<svg xmlns="http://www.w3.org/2000/svg" width="26" height="26" viewBox="0 0 26 26">
    <path fill="#FFF" d="M13 9.904c2.051 0 3.714-1.663 3.714-3.713 0-2.051-1.663-3.715-3.714-3.715S9.286 4.14 9.286 6.19 10.949 9.904 13 9.904zm0-1.856c-1.024 0-1.857-.833-1.857-1.857 0-1.025.833-1.858 1.857-1.858s1.857.833 1.857 1.858c0 1.024-.833 1.857-1.857 1.857zm.521 14.238c.226 0 .454-.053.665-.16 2.184-1.099 5.517-1.38 6.848-1.45 1.049-.055 1.87-.907 1.87-1.94v-6.888c0-1.388-1.226-1.942-2.015-1.942-.027 0-.053 0-.08.002-1.926.11-5.436.502-7.809 1.84-2.248-1.267-5.516-1.687-7.492-1.82l-.317-.02c-.026-.002-.053-.002-.08-.002-.789 0-2.016.554-2.016 1.942v6.889c0 1.032.822 1.884 1.87 1.939 1.332.07 4.665.351 6.849 1.45.211.107.438.16.665.16h1.042zm-1.45-2.073c-2.345-.998-5.345-1.304-7.008-1.392-.066-.003-.11-.046-.11-.084l-.018-6.905c.029-.03.127-.067.15-.07 1.387.078 4.84.393 6.986 1.596v6.855zm1.858 0v-6.855c2.14-1.2 5.578-1.516 6.961-1.595.054.005.146.042.158.085v6.889c0 .038-.045.08-.111.084-1.662.088-4.66.393-7.008 1.392z"/>
</svg>
