<svg xmlns="http://www.w3.org/2000/svg" width="26" height="26" viewBox="0 0 26 26">
    <g fill="none" fill-rule="evenodd">
        <path d="M0 0H26V26H0z"/>
        <path fill="#FFF" fill-rule="nonzero" d="M9.798 21.048c.142 0 .268-.018.398-.032-.473-.602-.894-1.244-1.223-1.91-2.046-.407-4.947-2.123-5.257-3.875L2.49 8.288c-.055-.307.076-.614.318-.749 2.326-1.29 4.959-1.973 7.613-1.973.327 0 .656.019.984.04.368-.204.77-.352 1.2-.421.731-.117 1.472-.176 2.213-.206-.387-.54-.947-.937-1.616-1.044-.926-.148-1.855-.22-2.78-.22-2.967 0-5.893.75-8.517 2.206C.968 6.441.467 7.523.66 8.61l1.227 6.943c.551 3.114 5.275 5.495 7.91 5.495zm14.315-3.035l1.228-6.963c.192-1.09-.31-2.176-1.245-2.696-1.721-.958-3.573-1.612-5.48-1.948-1.908-.336-3.871-.356-5.816-.044-1.057.169-1.899 1.018-2.09 2.108L9.48 15.433c-.595 3.376 3.687 7.613 6.126 8.043 2.438.43 7.91-2.087 8.506-5.463zm-8.185 3.634c-1.55-.273-5.013-3.65-4.618-5.891l1.227-6.963c.054-.308.283-.553.556-.597 1.731-.277 3.48-.264 5.2.04 1.72.302 3.368.888 4.9 1.74.241.135.372.444.318.752l-1.228 6.962c-.395 2.243-4.805 4.23-6.355 3.957zM6.845 11.568c.842-.148 1.404-.951 1.255-1.793-.028-.16-.086-.305-.157-.442-.32.346-.8.611-1.367.711-.567.1-1.11.016-1.527-.2-.02.152-.025.31.003.469.149.842.951 1.404 1.793 1.255zm9.57 1.52c.071-.137.13-.282.158-.442.148-.842-.414-1.645-1.256-1.793-.841-.149-1.644.413-1.793 1.255-.028.16-.023.317-.003.47.418-.216.96-.3 1.528-.2.566.099 1.047.364 1.366.71zm4.877.86c.072-.136.13-.282.158-.442.148-.842-.414-1.645-1.256-1.793-.841-.148-1.644.414-1.792 1.256-.029.16-.024.316-.004.469.418-.216.96-.3 1.528-.2.566.1 1.047.364 1.366.71zm-14.895 2.1c.44-.494 1.114-.92 1.93-1.2l.296-1.675c-1.389.405-2.32 1.598-2.226 2.874zm14.697.224c-1.088.658-2.656.939-4.331.643-1.675-.295-3.052-1.095-3.85-2.086-.173 2.08 1.292 4 3.446 4.38 2.154.38 4.186-.923 4.735-2.937z"/>
    </g>
</svg>
