<svg xmlns="http://www.w3.org/2000/svg" width="26" height="26" viewBox="0 0 26 26">
    <path fill="#FFF" d="M13.619 14.857c3.076 0 5.571-2.495 5.571-5.571 0-.728-.154-1.416-.41-2.05l2.995-.89c.68-.202.68-1.347 0-1.548l-7.502-2.225c-.217-.066-.433-.097-.654-.097-.22 0-.437.031-.654.097L5.463 4.798c-.68.2-.68 1.346 0 1.547l.263.078v1.454c-.27.163-.464.445-.464.786 0 .325.178.596.43.762l-.604 2.414c-.066.267.081.542.294.542h1.617c.213 0 .36-.275.294-.542L6.69 9.43c.251-.166.429-.437.429-.762 0-.34-.193-.623-.464-.786v-1.18l1.803.534c-.256.635-.41 1.323-.41 2.05 0 3.077 2.495 5.572 5.571 5.572zm-.128-8.067L9.382 5.571l4.113-1.218c.039-.012.128-.035.252 0l4.109 1.218-4.113 1.22c-.081.022-.163.026-.252 0zM13.62 13c-2.047 0-3.714-1.668-3.714-3.714 0-.546.127-1.057.34-1.52l2.724.808c.573.17 1.052.077 1.308 0L17 7.765c.212.464.34.98.34 1.52C17.333 11.333 15.666 13 13.619 13zm6.81 9.286c1.025 0 1.857-.832 1.857-1.857v-.372c0-2.793-2.21-5.057-4.976-5.177l-3.691 3.072-3.691-3.072c-2.766.12-4.976 2.384-4.976 5.177v.372c0 1.025.832 1.857 1.858 1.857h13.619zm-7.739-1.857H6.81v-.372c0-1.563 1.079-2.878 2.553-3.23l3.327 2.77v.832zm7.739 0h-5.881v-.832l3.327-2.77c1.474.352 2.554 1.667 2.554 3.23v.372z"/>
</svg>
