<svg xmlns="http://www.w3.org/2000/svg" width="26" height="26" viewBox="0 0 26 26">
    <path fill="#FFF" d="M22.44 22.286c.257 0 .465-.208.465-.465 0-.769-.624-1.392-1.393-1.392h-1.567c1.434-1.304 2.34-3.177 2.34-5.262 0-3.821-3.027-6.94-6.809-7.104V6.235c0-.712-.393-1.333-.973-1.66v-.683c0-.78-.635-1.416-1.415-1.416h-3.89c-.78 0-1.415.635-1.415 1.416v.684c-.58.326-.973.947-.973 1.659v7.65c0 .851.563 1.574 1.337 1.816v1.455c0 .78.635 1.415 1.415 1.415h3.16c.782 0 1.417-.634 1.417-1.415v-1.455c.773-.241 1.337-.965 1.337-1.817V9.936c2.755.164 4.952 2.436 4.952 5.23 0 2.902-2.36 5.263-5.262 5.263H4.488c-.77 0-1.393.623-1.393 1.392 0 .257.208.465.465.465h18.88zm-8.866-8.357H8.712l-.045-.045.045-7.693h.928V4.333h3.006l.044 1.858h.929l-.045 7.738zm-1.292 2.785h-2.278v-1.547h2.278v1.547z"/>
</svg>
